<?xml version="1.0" encoding="UTF-8"?><svg id="_Слой_1" xmlns="http://www.w3.org/2000/svg" viewBox="0 0 2200 5500"><defs><style>.cls-1{fill:#d6deea;}</style></defs><path class="cls-1" d="M1789.38,1776.25c-4.92-28.57-5.19-39.41-8.7-62.1-1.65-10.68-6.18-30.57-15.24-70.34-8.11-35.6-13.57-57.75-18.65-77.26-3.6-13.86-5.47-21-8.56-31.37-6.69-22.43-9.77-28.59-13.58-43.3-1.01-3.88-4.4-17.72-6.93-40.44-.18-1.58-2.43-53.83-6.75-156.74-5.26-125.08-29.12-252.09-173.15-282-.57-.12-8.62-1.49-24.16-4.09-8.47,72.02-8.59,126.98-6.98,164.64,0,0,6.44,150.71,4.64,166.61-.02.14-.49,4.32,0,4.45.32.08.98-2.42,2.65-5.96.46-.98,1.38-2.61,3.22-5.86,1.76-3.13,2.66-4.71,3.5-5.96,1.02-1.51,1.84-2.56,3.3-4.41,1.91-2.42,1.82-2.11,3.8-4.55.64-.78,1.44-1.42,2.07-2.21.2-.25.43-.55.86-.73.7-.29,1.44-.04,1.87.16.68.58,1.37,1.16,2.05,1.74.32.17.84.51,1.2,1.12.88,1.49,0,3.27-.12,3.53-.31.6-2.23,2.81-3.02,3.83-.97,1.26-3.56,4.92-4.09,5.7-.44.65-.76,1.18-1.16,1.86-1.12,1.92-2.24,3.83-3.18,5.66-4.06,7.88-6.2,15.91-6.2,15.91-1.12,4.21-1.47,7.05-1.57,7.85-.48,4.08-.3,6.85-.25,7.56.18,2.38.55,4.12.64,4.53,2.17,10.47,19.78,152.9,17.69,167.6,0,0-.57,7.67.79,12.05.25.81.52,1.3.72,2.04.19.69.24,1.22.24,1.27,4.88,35.89,31.02,116.26,31.02,116.26,38.36,117.96,76.29,196.46,84.5,213.28,1.88,3.86,3.44,7,4.44,9.01,16.86-1.63,44.26-6.4,74.09-22.01,8.83-4.62,35.73-19.54,60.44-48.42,2.85-3.33,5.11-6.19,6.67-8.22-2.12-9.34-5.13-23.43-8.1-40.71Z"/></svg>