<?xml version="1.0" encoding="UTF-8"?><svg id="_Слой_1" xmlns="http://www.w3.org/2000/svg" viewBox="0 0 2200 5500"><defs><style>.cls-1{fill:#d6deea;}</style></defs><path class="cls-1" d="M1569.16,2399.75c-6.07-20.73-13.91-45.9-23.74-74.06-24.68-70.66-22.02-45.93-24.75-52.8-.07-.18-.36-.76-.9-1.37-2.08-2.37-5.64-2.62-7.96-.56-20.76,18.13-43.91,42.4-69.47,72.8-81.82,97.36-149.81,189.87-221.83,319.45-24.96,44.91-33.64,61.62-33.64,61.62-10.68,20.55-17.41,34.58-26.03,48.94-3.17,5.28-7.84,12.7-13.21,23.31-2.94,5.81-3.39,7.24-5.83,11.26-3.57,5.88-5.87,8.2-7.89,13.7-.28.76-.77,2.19-2.01,8.1-1.72,8.27-2.7,14.8-3.3,18.93-1.33,9.07-1.99,13.6-2.65,18.82-2.95,23.3-5.38,56.22-5.69,60.45,87.06-81.17,180.39-177.88,273.72-291.8,67.02-81.81,125.05-161.52,175.18-236.79Z"/></svg>