<?xml version="1.0" encoding="UTF-8"?><svg id="_Слой_1" xmlns="http://www.w3.org/2000/svg" viewBox="0 0 2200 5500"><defs><style>.cls-1{fill:#d6deea;}</style></defs><path class="cls-1" d="M1836.2,1906.94c-16.03-30.57-19.41-37.71-22.39-44.53-4.67-10.68-10.76-26.04-16.34-45.46-10.81,14.02-31.5,37.12-64.7,55.08-30.85,16.69-59.29,21.81-76.5,23.57,16.24,42.93,16.81,60.77,16.81,60.77.03.87.04,1.45.03,1.97,0,1.4-.06,2.43-.07,2.63-.11,2.2-.07,14.26.04,18.42.88,33.88,7,68.61,7,68.61,2.77,15.74,6.34,29.89,13.49,58.2,3.82,15.14,7.37,28.59,9.19,34.93,14.49,50.37,31.56,88.21,39.34,105.16,22.97,50.02,47.43,97.5,79.56,158.47,48.36,91.78,61.48,126.82,81.92,182.71,7.39,20.19,11.21,39.41,11.48,57.66,19.79,6.89,34.98,6.91,43.87,6.12,5.26-.47,10.5-1.41,12.75-1.82,13.33-2.43,24.01-5.97,31.36-8.8-50.61-288.41-71.84-419.3-80.42-479.62-1.19-8.34-4.67-33.2-12.4-65.8-4.19-17.65-21.73-90.07-53.73-149.95-1-1.87-9.26-17.29-20.29-38.32Z"/></svg>