<?xml version="1.0" encoding="UTF-8"?><svg id="_Слой_1" xmlns="http://www.w3.org/2000/svg" viewBox="0 0 2200 5500"><defs><style>.cls-1{fill:#d6deea;}</style></defs><path class="cls-1" d="M620.16,1025.53c-27.21,13.71-44.37,30.62-50.86,37.23-25.12,25.58-36.25,51.13-38.84,57.31-2.92,6.97-5.35,13.95-9.86,31.77-10.32,40.8-15.56,74.52-17.83,90.22-4.42,30.65-8.47,58.69-9.26,96.55-.52,24.97.77,35.38-.66,64.14-.93,18.79-2.62,37.26-3.45,54.23-.05,1.05-.19,3.98-.61,7.89-.55,5.15-1.59,11.92-3.63,19.66-2.18,8.25-4.6,14.12-5.16,15.5-15.45,38.4-38.59,154.38-38.59,154.38-8.83,44.25-18.91,99.06-28.7,162.79,13.56,10.97,34.16,25.06,61.85,35.63,35.08,13.38,66.17,15.23,85.6,14.84,6.13-12.82,13.98-29.62,22.76-49.48,4.3-9.72,19.21-43.67,38.75-94.57,0,0,18.57-46.6,39.8-115.32,1.23-3.98,5.29-21.96,12.19-53.94,1.51-6.81,2.13-13.83,1.84-20.88-1.4-33.33-.41-62.8,2.98-88.42,6.61-49.7,10.03-77.07,10.26-82.1.8-6.83-.29-13.75-3.16-20l-11.23-24.56c-.65-1.31-.28-2.89.87-3.79,1.34-1.04,3.27-.8,4.31.54,8.94,10.64,14.27,19.97,16.9,30.16,11.58-53.77,19.52-152.75,13.96-342.68-44.78,7.51-74.87,15.14-90.24,22.89Z"/></svg>