<?xml version="1.0" encoding="UTF-8"?><svg id="_Слой_1" xmlns="http://www.w3.org/2000/svg" viewBox="0 0 2200 5500"><defs><style>.cls-1{fill:#d6deea;}</style></defs><path class="cls-1" d="M1082.29,2929.17c-.07-11.35-.26-34.66-.97-58.87-.07-2.35-.61-8.8-1.69-21.71-.68-8.14-1.37-15.67-5.07-24.61-.64-1.55-1.23-2.81-1.65-3.67-13.51-19.65-23.51-32.45-34.65-55.52-84.38-174.32-192.21-332.67-323.49-475.06-7.31-7.95-15.38-15.44-24.21-22.45-.18-.14-.38-.26-.6-.34h0s-1.49,0-3,1.39c-9.16,8.46-28.36,82.99-28.36,82.99-1.34,5.21-2.92,10.91-6.07,22.31-4.38,15.87-8.06,28.62-10.37,36.54,46.07,65.85,96.86,133.85,152.84,203.11,97.05,120.07,194.36,224.94,287.26,315.88Z"/></svg>