<?xml version="1.0" encoding="UTF-8"?><svg id="_Слой_1" xmlns="http://www.w3.org/2000/svg" viewBox="0 0 2200 5500"><defs><style>.cls-1{fill:#e4c1d6;}</style></defs><path class="cls-1" d="M1416.18,2970.4c-.9,13.92-8.4,130.43-68.44,149.62-30.15,9.63-71.87-22.29-155.3-86.13-109.5-83.8-120.65-118.36-123.98-138.33-4.76-28.51,5.16-34.63,0-80.91-7.44-66.68-31.24-82.72-22.44-102.86,18.77-42.95,164.51-55.73,264.4,15.79,113.73,81.44,106.7,228.26,105.76,242.83h0Z"/><path class="cls-1" d="M1296.42,1030.19c.08.58.16,1.09.31,2.1,6.21,40.81,20.61,135.46,59.29,142.94,15.53,3.01,30.24-8.96,48.23-23.6,0,0,47.86-38.94,66.47-140.24.59-3.21.82-5.89.82-5.89,1.1-15.4-4.28-19.23-3.8-44.35.69-36.2,12.16-43.88,6.69-55.33-11.66-24.42-87.13-38.28-135.09-3.77-54.6,39.3-44.09,120.11-42.92,128.14Z"/><path class="cls-1" d="M941.59,1025.13c-.08.58-.16,1.09-.31,2.1-6.21,40.81-20.61,135.46-59.29,142.94-15.53,3.01-30.24-8.96-48.23-23.6,0,0-47.86-38.94-66.47-140.24-.59-3.21-.82-5.89-.82-5.89-1.1-15.4,4.28-19.23,3.8-44.35-.69-36.2-12.16-43.88-6.69-55.33,11.66-24.42,87.13-38.28,135.09-3.77,54.6,39.3,44.09,120.11,42.92,128.14Z"/></svg>