<?xml version="1.0" encoding="UTF-8"?><svg id="_Слой_1" xmlns="http://www.w3.org/2000/svg" viewBox="0 0 2200 5500"><defs><style>.cls-1{fill:#e4c1d6;}</style></defs><path class="cls-1" d="M1107.25,3526.01c-32.75,5.92-160.52,25.57-230.79-50.11-25.81-27.8-33.37-57.16-43.61-99.05-41.81-171.13-2.05-440.33-2.86-445.92-.05-.32-.57-3.56-.06-7.72.17-1.37.48-2.74,1-4.46,1.26-4.17,3.55-5.66,4.12-6.01.09-.06.16-.1.24-.14.7-.36,2.2-.75,11.45-2.62,6.12-1.24,8.38-1.68,8.38-1.68,15.2-2.94,14.8-2.8,15.2-2.92,14.07-4.1,17.69-27.64,20.94-26.54,2.27.77.83,8.34,1.27,20.67.32,8.9,1.66,15.79,4.35,29.56,7.56,38.74,11.33,58.11,18.79,77.52,8.41,21.9,27.24,70.94,69.73,92.88,6.95,3.59,17.64,8,39.04,16.82,21.17,8.73,37.17,14.72,42.48,16.71,58.13,21.8,115.88,44.59,173.91,66.66,40.17,15.28,97.15,37.22,167.13,65.16-3.69,4.62-9.47,10.2-17.48,11.63-7.78,1.39-13.6-1.87-21.25-4.6-8.92-3.18-11.58-2.54-36.39-5.51-41.21-4.94-38.6-7.28-63.44-9.29-22.24-1.8-41.04-1.28-60.63,2.68-17.41,3.51-24.61,7.55-29.98,12.65-5.87,5.58-10.1,12.94-14.68,30.91-5.76,22.58-4.28,31.32-7.17,50.18-2.92,19.01-8.74,34.36-20.4,65.07-10.11,26.63-12.83,28.61-18.2,45.21-8.22,25.45-10.47,47.53-11.08,62.27h-.01Z"/><path class="cls-1" d="M1408.17,1522.99c-46.1,26.6-155.82,81.6-304.78,78.22-132.37-3-230.07-50.62-276.1-76.95,2.79-39.33,3.85-71.4,4.27-94.69.41-23.01.16-35.88.01-41.94-.39-16.02-1.13-27.39-3.5-60.89-1.68-23.62-3.18-44.27-4.42-61.14,39.73,34.8,72.74,65.45,102.29,88.62,53.74,42.13,75.03,52.31,87.89,57.75,48.05,20.35,89.37,21.65,99.58,21.81,69.01,1.13,119.75-26.44,142.51-39.18,22.24-12.44,41.8-28.53,80.86-60.8,32.55-26.89,58.49-50.65,76.57-67.82-3.14,25.89-5.17,48.64-6.52,67.4-2.49,34.49-3.06,60.56-3.42,77.65-.47,22.84-.75,36.16,0,54.97.93,23.29,2.94,42.78,4.75,56.97v.02h.01Z"/></svg>