<?xml version="1.0" encoding="UTF-8"?><svg id="_Слой_1" xmlns="http://www.w3.org/2000/svg" viewBox="0 0 2200 5500"><defs><style>.cls-1{fill:#e4c1d6;}</style></defs><path class="cls-1" d="M1273.92,1378.52c-14.9,11.43-39.41,27.42-73.04,37.61-32.3,9.79-57.95,9.66-84.54,9.53-32.23-.16-61.88-.3-96.71-14.21-26.52-10.59-45.64-25-57.51-35.43-.02-3.66-1-203.42-1-203.46v-1.01s.85-1.76,1.36-1.41c0,0,.24.16.47.33.59.4,24.26,15.59,38.52,22.7,60.37,30.11,111.23,31.68,111.23,31.68,22.15.67,54.07,1.65,85.78-13.9,2.34-1.15,21.31-11.51,59.16-32.2.67-.37,17.55-9.59,18.22-9.96-.65,69.91-1.3,139.82-1.95,209.73h.01Z"/><path class="cls-1" d="M1417.54,3144.49c21.85,95.5,26.79,114.19,36.06,114.52,1.21.04,3.12-.2,9.88-6.32,9.32-8.43,28.72-25.98,33.91-53.41,2.89-15.29-.82-30.68-8.24-61.46-6.12-25.42-10.91-33.38-6.34-44.99,6.81-17.29,25.55-20.29,24.12-28.29-1.35-7.62-18.44-5.55-44.05-15.84-28.95-11.64-45.18-29.57-51.77-24.16-1.53,1.25-2.11,4.56-3.28,11.16-1.53,8.63-1.27,15.38-1.21,16.58,2.48,55.35,10.92,92.21,10.92,92.21Z"/></svg>