<?xml version="1.0" encoding="UTF-8"?><svg id="_Слой_1" xmlns="http://www.w3.org/2000/svg" viewBox="0 0 2200 5500"><defs><style>.cls-1,.cls-2,.cls-3{isolation:isolate;}.cls-1,.cls-2,.cls-3,.cls-4{fill:#d4ddeb;}.cls-1,.cls-5{opacity:.5;}.cls-2{opacity:.51;}.cls-3{opacity:.75;}.cls-6{opacity:.25;}.cls-6,.cls-5{fill:#d3ddeb;}</style></defs><path class="cls-3" d="M1436.55,5338.24c-214.21-.25-428.43-.5-642.64-.76.52-2.45,1.27-6.18,2.08-10.73,5.67-31.76,5.59-56.15,5.14-90.31-.5-38.89-.75-58.33-1.22-69.43-1.53-36.21-3.98-89.98-14.9-158.17-5.4-33.72-10.79-57.95-17.44-87.82-12.39-55.69-24.55-98.83-32.44-126.66-8.86-31.26-16.86-57.3-22.81-76.11,12.69,16.03,21.65,29.88,27.42,39.43,12.73,21.06,14.49,28.72,29.98,52.69,7.58,11.72,8.64,12.18,17.27,25.84,12.64,20,13.23,23.55,19.09,28.98,10.83,10.05,23.76,11.78,39.88,13.94,7.75,1.04,31.57,3.57,63.26-5.27,14.56-4.06,16.03-6.41,47.3-19.01,0,0,26.56-10.7,48.19-18.05,41.48-14.11,79.25-14.3,112.66-14.46,46.32-.23,75.77-.38,112.29,12.57,16.1,5.71,65.03,25.12,93.65,34.25,6.32,2.02,16.44,5.06,29.64,6.86,7.91,1.08,15.2,1.47,21.52,1.81,10.34.56,15.51.84,21.24.43,7.66-.54,17.19-1.31,27.75-6.5,3.29-1.62,7.27-3.58,11.27-7.37,8.23-7.8,10.48-17.59,11.71-22.11,1.62-5.99,12.19-22.98,33.33-56.97,9.19-14.77,16.24-25.42,17.92-27.95,8.99-13.55,17.12-25.12,23.76-34.31-3.95,12.93-9.92,32.75-16.91,57.23-5.1,17.85-7.63,27.29-13.44,48.13-13.21,47.39-15.29,53.01-19.94,70.24-12.5,46.24-18.57,83.48-21.49,101.77-7.94,49.59-10.42,88.4-11.89,112.42-.72,11.78-1.42,31.15-2.81,69.87-1.26,35.06-1.64,52.05-1.53,71.91.12,20.36.6,18.15.43,31.65-.19,14.64-.86,25.5,1.09,41.49.55,4.48,1.15,8.13,1.58,10.51v-.03Z"/><path class="cls-2" d="M789.05,5088.39c-1.48-.06-2.54-1.32-7.21-7.49-2.17-2.86-4.65-6.16-7.37-9.83-8.31-14.9-24.43-45.65-34.41-80.12-4.93-17.04-7.59-32.28-7.86-33.92-2.41-14.08-2.71-21.94-3.93-35.88-1.17-13.39-4.9-52.04-14.26-94.87-2.02-9.24-3.87-16.74-5.09-21.49.95-1.67,2.72-4.28,5.78-6.45,1.9-1.36,7.23-5.15,13.57-3.37,7.21,2.02,9.65,9.57,9.83,10.17,9.41,33.98,18.47,69.22,27.04,105.68,13.29,56.57,24.24,111.14,33.24,163.38-.69,2.22-4.6,14.38-9.32,14.19h-.01Z"/><path class="cls-2" d="M1446.73,5090.86c1.48-.06,2.54-1.32,7.21-7.49,2.17-2.86,4.65-6.16,7.37-9.83,8.31-14.9,24.43-45.65,34.41-80.12,4.93-17.04,7.59-32.28,7.86-33.92,2.41-14.08,2.71-21.94,3.93-35.88,1.17-13.39,4.9-52.04,14.26-94.87,2.02-9.24,3.87-16.74,5.09-21.49-.95-1.67-2.72-4.28-5.78-6.45-1.9-1.36-7.23-5.15-13.57-3.37-7.21,2.02-9.65,9.57-9.83,10.17-9.41,33.98-18.47,69.22-27.04,105.68-13.29,56.57-24.24,111.14-33.24,163.38.69,2.22,4.6,14.38,9.32,14.19h.01Z"/><path class="cls-3" d="M1446.83,3259.63c-1.18,2.69-10.51,6.48-18.95,6.19-7.58-.26-13.08-3.77-14.43-4.59-6.84-4.16.28,4.42-172.63-61.55-196.89-75.13-168.45-71.89-188.9-75.92-.04,0-56.24-11.09-79.49-39.01-1.41-1.69-4.02-5.04-13.86-17.15-5.98-7.36-16.07-17.55-25.45-32.39-13.23-20.94-13.94-28.73-14.05-32.09-.21-6.06-11.57-24.42-13.71-32.68-2.38-9.2-2.34-43.47-5.29-84.49-.15-2.09-.44-5.42-.46-9.95-.04-10.48,1.49-18.23,2.08-45.17.2-9.27.19-16.84.15-21.68-.1-51.16-.21-102.32-.31-153.48,38.42-1.7,76.84-3.39,115.25-5.09-.36,12.95-.71,28.05-.95,44.91-.13,8.94-.34,26.09-.35,47.81-.02,28.98.34,49.63,1.04,89.75.33,18.89,1.19,64.96,1.45,71.24,5.19,124.43,438.65,333.08,428.85,355.35h.01Z"/><path class="cls-4" d="M1416.18,2970.4c-.9,13.92-8.4,130.43-68.44,149.62-30.15,9.63-71.87-22.29-155.3-86.13-109.5-83.8-120.65-118.36-123.98-138.33-4.76-28.51,5.16-34.63,0-80.91-7.44-66.68-31.24-82.72-22.44-102.86,18.77-42.95,164.51-55.73,264.4,15.79,113.73,81.44,106.7,228.26,105.76,242.83h0Z"/><path class="cls-2" d="M1408.17,1522.99c-46.1,26.6-155.82,81.6-304.78,78.22-132.37-3-230.07-50.62-276.1-76.95,2.79-39.33,3.85-71.4,4.27-94.69.41-23.01.16-35.88.01-41.94-.39-16.02-1.13-27.39-3.5-60.89-1.68-23.62-3.18-44.27-4.42-61.14,39.73,34.8,72.74,65.45,102.29,88.62,53.74,42.13,75.03,52.31,87.89,57.75,48.05,20.35,89.37,21.65,99.58,21.81,69.01,1.13,119.75-26.44,142.51-39.18,22.24-12.44,41.8-28.53,80.86-60.8,32.55-26.89,58.49-50.65,76.57-67.82-3.14,25.89-5.17,48.64-6.52,67.4-2.49,34.49-3.06,60.56-3.42,77.65-.47,22.84-.75,36.16,0,54.97.93,23.29,2.94,42.78,4.75,56.97v.02Z"/><path class="cls-4" d="M1273.92,1378.52c-14.9,11.43-39.41,27.42-73.04,37.61-32.3,9.79-57.95,9.66-84.54,9.53-32.23-.16-61.88-.3-96.71-14.21-26.52-10.59-45.64-25-57.51-35.43-.02-3.66-1-203.42-1-203.46v-1.01s.85-1.76,1.36-1.41c0,0,.24.16.47.33.59.4,24.26,15.59,38.52,22.7,60.37,30.11,111.23,31.68,111.23,31.68,22.15.67,54.07,1.65,85.78-13.9,2.34-1.15,21.31-11.51,59.16-32.2.67-.37,17.55-9.59,18.22-9.96-.65,69.91-1.3,139.82-1.95,209.73h.01Z"/><path class="cls-1" d="M1161.78,1046.81c-12.96-2.86-46.71-8.91-88.04.73-64.36,15.01-101.21,57.37-112.84,71.99v50.74c5.66-.67,14.56-2.11,24.91-5.57,14.81-4.94,19.26-9.57,43.4-22.55,26.85-14.43,35.14-16.12,38.73-16.75,7.98-1.39,18.12-3.16,30.38-.32,9.03,2.09,11.47,4.89,19.36,4.83,9.08-.07,12.19-3.83,22.37-6.44,10.44-2.68,18.98-1.76,26.38-.97,4.37.47,14.25,1.92,44.4,18.04,21.72,11.61,25.49,15.62,41.07,21.9,9.91,4,18.39,6.41,23.97,7.82v-50.74c-11.14-14.26-48.44-58.24-114.1-72.72h.01Z"/><path class="cls-4" d="M1118.79,756.54h0c-38.55,0-84.64-153.4-82.15-158.47,18.54-37.7,140.12-42.78,161.26,4.32,2.82,6.29-40.56,154.15-79.11,154.15h0Z"/><path class="cls-6" d="M1417.54,3144.49c21.85,95.5,26.79,114.19,36.06,114.52,1.21.04,3.12-.2,9.88-6.32,9.32-8.43,28.72-25.98,33.91-53.41,2.89-15.29-.82-30.68-8.24-61.46-6.12-25.42-10.91-33.38-6.34-44.99,6.81-17.29,25.55-20.29,24.12-28.29-1.35-7.62-18.44-5.55-44.05-15.84-28.95-11.64-45.18-29.57-51.77-24.16-1.53,1.25-2.11,4.56-3.28,11.16-1.53,8.63-1.27,15.38-1.21,16.58,2.48,55.35,10.92,92.21,10.92,92.21Z"/><path class="cls-5" d="M1410.38,3018.29c2.46.09,6.12.09,10.51-.42,13.32-1.56,20.53-6.51,49.83-24.6,32.57-20.11,30.11-18,32.8-19.98.99-.73,4.58-3.41,9.88-5.89.91-.42,4.04-1.86,8.41-3.15,3.38-1,8.01-2.08,13.67-2.52-.57-3.08-1.57-7.74-3.36-13.25-3.21-9.84-6.98-16.31-7.99-18.29-3.7-7.27-4.2-21.07,10.93-49.83-3.87-.19-9.44-.2-16.01.81-25.71,3.96-42.55,19.77-53.9,30.71-22.8,21.99-33.15,45.5-40.91,63.6-7.35,17.16-11.48,32.2-13.88,42.81Z"/><path class="cls-5" d="M818.26,3517.97c1.67-169.8,4.87-496.39,4.87-496.41h0s23.54,38.07,39.27,64.68c.01.02.02.03.02.03,71.6,121.47,331.14,162.05,327.02,178.8-.52,2.11-5.1,3.41-14.81,13.59-2.61,2.74-5.34,6.17-7.95,10.57-6.4,10.78-3.93,15.17-10.76,59.78-2.57,16.75-4.08,23.74-6.46,31.54-3.17,10.39-6.74,18.46-10.66,27.32-9.18,20.76-12.64,23.32-14.98,35.31-1.03,5.26-1.14,8.75-3.21,16.05-2.28,8.06-4.03,10.45-5.4,17.11-.44,2.14-.65,3.92-.86,5.69-2.18,18.81-5.75,41-5.75,41.01h0s-98.53-1.72-290.34-5.06Z"/><path class="cls-6" d="M1296.42,1030.19c.08.58.16,1.09.31,2.1,6.21,40.81,20.61,135.46,59.29,142.94,15.53,3.01,30.24-8.96,48.23-23.6,0,0,47.86-38.94,66.47-140.24.59-3.21.82-5.89.82-5.89,1.1-15.4-4.28-19.23-3.8-44.35.69-36.2,12.16-43.88,6.69-55.33-11.66-24.42-87.13-38.28-135.09-3.77-54.6,39.3-44.09,120.11-42.92,128.14Z"/><path class="cls-6" d="M941.59,1025.13c-.08.58-.16,1.09-.31,2.1-6.21,40.81-20.61,135.46-59.29,142.94-15.53,3.01-30.24-8.96-48.23-23.6,0,0-47.86-38.94-66.47-140.24-.59-3.21-.82-5.89-.82-5.89-1.1-15.4,4.28-19.23,3.8-44.35-.69-36.2-12.16-43.88-6.69-55.33,11.66-24.42,87.13-38.28,135.09-3.77,54.6,39.3,44.09,120.11,42.92,128.14Z"/></svg>