<?xml version="1.0" encoding="UTF-8"?><svg id="_Слой_1" xmlns="http://www.w3.org/2000/svg" viewBox="0 0 2200 5500"><defs><style>.cls-1{fill:#e4c1d6;}</style></defs><path class="cls-1" d="M1436.55,5338.24c-214.21-.25-428.43-.5-642.64-.76.52-2.45,1.27-6.18,2.08-10.73,5.67-31.76,5.59-56.15,5.14-90.31-.5-38.89-.75-58.33-1.22-69.43-1.53-36.21-3.98-89.98-14.9-158.17-5.4-33.72-10.79-57.95-17.44-87.82-12.39-55.69-24.55-98.83-32.44-126.66-8.86-31.26-16.86-57.3-22.81-76.11,12.69,16.03,21.65,29.88,27.42,39.43,12.73,21.06,14.49,28.72,29.98,52.69,7.58,11.72,8.64,12.18,17.27,25.84,12.64,20,13.23,23.55,19.09,28.98,10.83,10.05,23.76,11.78,39.88,13.94,7.75,1.04,31.57,3.57,63.26-5.27,14.56-4.06,16.03-6.41,47.3-19.01,0,0,26.56-10.7,48.19-18.05,41.48-14.11,79.25-14.3,112.66-14.46,46.32-.23,75.77-.38,112.29,12.57,16.1,5.71,65.03,25.12,93.65,34.25,6.32,2.02,16.44,5.06,29.64,6.86,7.91,1.08,15.2,1.47,21.52,1.81,10.34.56,15.51.84,21.24.43,7.66-.54,17.19-1.31,27.75-6.5,3.29-1.62,7.27-3.58,11.27-7.37,8.23-7.8,10.48-17.59,11.71-22.11,1.62-5.99,12.19-22.98,33.33-56.97,9.19-14.77,16.24-25.42,17.92-27.95,8.99-13.55,17.12-25.12,23.76-34.31-3.95,12.93-9.92,32.75-16.91,57.23-5.1,17.85-7.63,27.29-13.44,48.13-13.21,47.39-15.29,53.01-19.94,70.24-12.5,46.24-18.57,83.48-21.49,101.77-7.94,49.59-10.42,88.4-11.89,112.42-.72,11.78-1.42,31.15-2.81,69.87-1.26,35.06-1.64,52.05-1.53,71.91.12,20.36.6,18.15.43,31.65-.19,14.64-.86,25.5,1.09,41.49.55,4.48,1.15,8.13,1.58,10.51v-.03Z"/></svg>