<?xml version="1.0" encoding="UTF-8"?><svg id="_Слой_1" xmlns="http://www.w3.org/2000/svg" viewBox="0 0 2200 5500"><defs><style>.cls-1{fill:#e4c1d6;}</style></defs><path class="cls-1" d="M1161.78,1046.81c-12.96-2.86-46.71-8.91-88.04.73-64.36,15.01-101.21,57.37-112.84,71.99v50.74c5.66-.67,14.56-2.11,24.91-5.57,14.81-4.94,19.26-9.57,43.4-22.55,26.85-14.43,35.14-16.12,38.73-16.75,7.98-1.39,18.12-3.16,30.38-.32,9.03,2.09,11.47,4.89,19.36,4.83,9.08-.07,12.19-3.83,22.37-6.44,10.44-2.68,18.98-1.76,26.38-.97,4.37.47,14.25,1.92,44.4,18.04,21.72,11.61,25.49,15.62,41.07,21.9,9.91,4,18.39,6.41,23.97,7.82v-50.74c-11.14-14.26-48.44-58.24-114.1-72.72h.01Z"/><path class="cls-1" d="M1410.38,3018.29c2.46.09,6.12.09,10.51-.42,13.32-1.56,20.53-6.51,49.83-24.6,32.57-20.11,30.11-18,32.8-19.98.99-.73,4.58-3.41,9.88-5.89.91-.42,4.04-1.86,8.41-3.15,3.38-1,8.01-2.08,13.67-2.52-.57-3.08-1.57-7.74-3.36-13.25-3.21-9.84-6.98-16.31-7.99-18.29-3.7-7.27-4.2-21.07,10.93-49.83-3.87-.19-9.44-.2-16.01.81-25.71,3.96-42.55,19.77-53.9,30.71-22.8,21.99-33.15,45.5-40.91,63.6-7.35,17.16-11.48,32.2-13.88,42.81Z"/></svg>