<?xml version="1.0" encoding="UTF-8"?><svg id="_Слой_1" xmlns="http://www.w3.org/2000/svg" viewBox="0 0 2200 5500"><defs><style>.cls-1{fill:#e4c1d6;}</style></defs><path class="cls-1" d="M789.05,5088.39c-1.48-.06-2.54-1.32-7.21-7.49-2.17-2.86-4.65-6.16-7.37-9.83-8.31-14.9-24.43-45.65-34.41-80.12-4.93-17.04-7.59-32.28-7.86-33.92-2.41-14.08-2.71-21.94-3.93-35.88-1.17-13.39-4.9-52.04-14.26-94.87-2.02-9.24-3.87-16.74-5.09-21.49.95-1.67,2.72-4.28,5.78-6.45,1.9-1.36,7.23-5.15,13.57-3.37,7.21,2.02,9.65,9.57,9.83,10.17,9.41,33.98,18.47,69.22,27.04,105.68,13.29,56.57,24.24,111.14,33.24,163.38-.69,2.22-4.6,14.38-9.32,14.19h-.01Z"/><path class="cls-1" d="M1446.73,5090.86c1.48-.06,2.54-1.32,7.21-7.49,2.17-2.86,4.65-6.16,7.37-9.83,8.31-14.9,24.43-45.65,34.41-80.12,4.93-17.04,7.59-32.28,7.86-33.92,2.41-14.08,2.71-21.94,3.93-35.88,1.17-13.39,4.9-52.04,14.26-94.87,2.02-9.24,3.87-16.74,5.09-21.49-.95-1.67-2.72-4.28-5.78-6.45-1.9-1.36-7.23-5.15-13.57-3.37-7.21,2.02-9.65,9.57-9.83,10.17-9.41,33.98-18.47,69.22-27.04,105.68-13.29,56.57-24.24,111.14-33.24,163.38.69,2.22,4.6,14.38,9.32,14.19h.01Z"/><path class="cls-1" d="M1446.83,3259.63c-1.18,2.69-10.51,6.48-18.95,6.19-7.58-.26-13.08-3.77-14.43-4.59-6.84-4.16.28,4.42-172.63-61.55-196.89-75.13-168.45-71.89-188.9-75.92-.04,0-56.24-11.09-79.49-39.01-1.41-1.69-4.02-5.04-13.86-17.15-5.98-7.36-16.07-17.55-25.45-32.39-13.23-20.94-13.94-28.73-14.05-32.09-.21-6.06-11.57-24.42-13.71-32.68-2.38-9.2-2.34-43.47-5.29-84.49-.15-2.09-.44-5.42-.46-9.95-.04-10.48,1.49-18.23,2.08-45.17.2-9.27.19-16.84.15-21.68-.1-51.16-.21-102.32-.31-153.48,38.42-1.7,76.84-3.39,115.25-5.09-.36,12.95-.71,28.05-.95,44.91-.13,8.94-.34,26.09-.35,47.81-.02,28.98.34,49.63,1.04,89.75.33,18.89,1.19,64.96,1.45,71.24,5.19,124.43,438.65,333.08,428.85,355.35h.01Z"/></svg>