<?xml version="1.0" encoding="UTF-8"?><svg id="_Слой_1" xmlns="http://www.w3.org/2000/svg" viewBox="0 0 2200 5500"><defs><style>.cls-1{fill:#e4c1d6;}</style></defs><path class="cls-1" d="M1161.78,1046.81c-12.96-2.86-46.71-8.91-88.04.73-64.36,15.01-101.21,57.37-112.84,71.99v50.74c5.66-.67,14.56-2.11,24.91-5.57,14.81-4.94,19.26-9.57,43.4-22.55,26.85-14.43,35.14-16.12,38.73-16.75,7.98-1.39,18.12-3.16,30.38-.32,9.03,2.09,11.47,4.89,19.36,4.83,9.08-.07,12.19-3.83,22.37-6.44,10.44-2.68,18.98-1.76,26.38-.97,4.37.47,14.25,1.92,44.4,18.04,21.72,11.61,25.49,15.62,41.07,21.9,9.91,4,18.39,6.41,23.97,7.82v-50.74c-11.14-14.26-48.44-58.24-114.1-72.72h.01Z"/></svg>