<?xml version="1.0" encoding="UTF-8"?>
<svg id="_Слой_1" xmlns="http://www.w3.org/2000/svg" version="1.1" viewBox="0 0 2200 5500">
  <!-- Generator: Adobe Illustrator 29.1.0, SVG Export Plug-In . SVG Version: 2.1.0 Build 142)  -->
  <defs>
    <style>
      .st0 {
        opacity: .5;
      }

      .st0, .st1, .st2 {
        isolation: isolate;
      }

      .st0, .st1, .st2, .st3 {
        fill: #d4ddeb;
      }

      .st1 {
        opacity: .5;
      }

      .st2 {
        opacity: .8;
      }
    </style>
  </defs>
  <path class="st2" d="M1436.6,5338.2c-214.2-.2-428.4-.5-642.6-.8.5-2.5,1.3-6.2,2.1-10.7,5.7-31.8,5.6-56.1,5.1-90.3-.5-38.9-.8-58.3-1.2-69.4-1.5-36.2-4-90-14.9-158.2-5.4-33.7-10.8-58-17.4-87.8-12.4-55.7-24.5-98.8-32.4-126.7-8.9-31.3-16.9-57.3-22.8-76.1,12.7,16,21.7,29.9,27.4,39.4,12.7,21.1,14.5,28.7,30,52.7,7.6,11.7,8.6,12.2,17.3,25.8,12.6,20,13.2,23.5,19.1,29,10.8,10,23.8,11.8,39.9,13.9,7.8,1,31.6,3.6,63.3-5.3,14.6-4.1,16-6.4,47.3-19,0,0,26.6-10.7,48.2-18,41.5-14.1,79.2-14.3,112.7-14.5,46.3-.2,75.8-.4,112.3,12.6,16.1,5.7,65,25.1,93.7,34.2,6.3,2,16.4,5.1,29.6,6.9,7.9,1.1,15.2,1.5,21.5,1.8,10.3.6,15.5.8,21.2.4,7.7-.5,17.2-1.3,27.8-6.5,3.3-1.6,7.3-3.6,11.3-7.4,8.2-7.8,10.5-17.6,11.7-22.1,1.6-6,12.2-23,33.3-57,9.2-14.8,16.2-25.4,17.9-28,9-13.5,17.1-25.1,23.8-34.3-3.9,12.9-9.9,32.8-16.9,57.2-5.1,17.9-7.6,27.3-13.4,48.1-13.2,47.4-15.3,53-19.9,70.2-12.5,46.2-18.6,83.5-21.5,101.8-7.9,49.6-10.4,88.4-11.9,112.4-.7,11.8-1.4,31.1-2.8,69.9-1.3,35.1-1.6,52-1.5,71.9.1,20.4.6,18.1.4,31.6-.2,14.6-.9,25.5,1.1,41.5.6,4.5,1.2,8.1,1.6,10.5h0Z"/>
  <path class="st1" d="M789,5088.4c-1.5,0-2.5-1.3-7.2-7.5-2.2-2.9-4.7-6.2-7.4-9.8-8.3-14.9-24.4-45.6-34.4-80.1-4.9-17-7.6-32.3-7.9-33.9-2.4-14.1-2.7-21.9-3.9-35.9-1.2-13.4-4.9-52-14.3-94.9-2-9.2-3.9-16.7-5.1-21.5,1-1.7,2.7-4.3,5.8-6.5,1.9-1.4,7.2-5.1,13.6-3.4,7.2,2,9.7,9.6,9.8,10.2,9.4,34,18.5,69.2,27,105.7,13.3,56.6,24.2,111.1,33.2,163.4-.7,2.2-4.6,14.4-9.3,14.2h0Z"/>
  <path class="st1" d="M1446.7,5090.9c1.5,0,2.5-1.3,7.2-7.5,2.2-2.9,4.7-6.2,7.4-9.8,8.3-14.9,24.4-45.6,34.4-80.1,4.9-17,7.6-32.3,7.9-33.9,2.4-14.1,2.7-21.9,3.9-35.9,1.2-13.4,4.9-52,14.3-94.9,2-9.2,3.9-16.7,5.1-21.5-.9-1.7-2.7-4.3-5.8-6.5-1.9-1.4-7.2-5.1-13.6-3.4-7.2,2-9.7,9.6-9.8,10.2-9.4,34-18.5,69.2-27,105.7-13.3,56.6-24.2,111.1-33.2,163.4.7,2.2,4.6,14.4,9.3,14.2h0Z"/>
  <path class="st0" d="M1107.2,3526c-32.8,5.9-160.5,25.6-230.8-50.1-25.8-27.8-33.4-57.2-43.6-99.1-41.8-171.1-2-440.3-2.9-445.9,0-.3-.6-3.6,0-7.7.2-1.4.5-2.7,1-4.5,1.3-4.2,3.5-5.7,4.1-6,0,0,.2-.1.2-.1.7-.4,2.2-.8,11.5-2.6,6.1-1.2,8.4-1.7,8.4-1.7,15.2-2.9,14.8-2.8,15.2-2.9,14.1-4.1,17.7-27.6,20.9-26.5,2.3.8.8,8.3,1.3,20.7.3,8.9,1.7,15.8,4.3,29.6,7.6,38.7,11.3,58.1,18.8,77.5,8.4,21.9,27.2,70.9,69.7,92.9,7,3.6,17.6,8,39,16.8,21.2,8.7,37.2,14.7,42.5,16.7,58.1,21.8,115.9,44.6,173.9,66.7,40.2,15.3,97.2,37.2,167.1,65.2-3.7,4.6-9.5,10.2-17.5,11.6-7.8,1.4-13.6-1.9-21.2-4.6-8.9-3.2-11.6-2.5-36.4-5.5-41.2-4.9-38.6-7.3-63.4-9.3-22.2-1.8-41-1.3-60.6,2.7-17.4,3.5-24.6,7.6-30,12.6-5.9,5.6-10.1,12.9-14.7,30.9-5.8,22.6-4.3,31.3-7.2,50.2-2.9,19-8.7,34.4-20.4,65.1-10.1,26.6-12.8,28.6-18.2,45.2-8.2,25.4-10.5,47.5-11.1,62.3h0Z"/>
  <path class="st2" d="M1446.8,3259.6c-1.2,2.7-10.5,6.5-18.9,6.2-7.6-.3-13.1-3.8-14.4-4.6-6.8-4.2.3,4.4-172.6-61.6-196.9-75.1-168.4-71.9-188.9-75.9,0,0-56.2-11.1-79.5-39-1.4-1.7-4-5-13.9-17.1-6-7.4-16.1-17.6-25.5-32.4-13.2-20.9-13.9-28.7-14-32.1-.2-6.1-11.6-24.4-13.7-32.7-2.4-9.2-2.3-43.5-5.3-84.5-.2-2.1-.4-5.4-.5-9.9,0-10.5,1.5-18.2,2.1-45.2.2-9.3.2-16.8.2-21.7,0-51.2-.2-102.3-.3-153.5,38.4-1.7,76.8-3.4,115.2-5.1-.4,12.9-.7,28.1-1,44.9-.1,8.9-.3,26.1-.3,47.8,0,29,.3,49.6,1,89.8.3,18.9,1.2,65,1.5,71.2,5.2,124.4,438.7,333.1,428.8,355.4h0Z"/>
  <path class="st3" d="M1416.2,2970.4c-.9,13.9-8.4,130.4-68.4,149.6-30.2,9.6-71.9-22.3-155.3-86.1-109.5-83.8-120.7-118.4-124-138.3-4.8-28.5,5.2-34.6,0-80.9-7.4-66.7-31.2-82.7-22.4-102.9,18.8-42.9,164.5-55.7,264.4,15.8,113.7,81.4,106.7,228.3,105.8,242.8h0Z"/>
  <path class="st1" d="M1408.2,1523c-46.1,26.6-155.8,81.6-304.8,78.2-132.4-3-230.1-50.6-276.1-76.9,2.8-39.3,3.8-71.4,4.3-94.7.4-23,.2-35.9,0-41.9-.4-16-1.1-27.4-3.5-60.9-1.7-23.6-3.2-44.3-4.4-61.1,39.7,34.8,72.7,65.4,102.3,88.6,53.7,42.1,75,52.3,87.9,57.8,48.1,20.3,89.4,21.7,99.6,21.8,69,1.1,119.8-26.4,142.5-39.2,22.2-12.4,41.8-28.5,80.9-60.8,32.6-26.9,58.5-50.7,76.6-67.8-3.1,25.9-5.2,48.6-6.5,67.4-2.5,34.5-3.1,60.6-3.4,77.7-.5,22.8-.8,36.2,0,55,.9,23.3,2.9,42.8,4.8,57h0Z"/>
  <path class="st3" d="M1273.9,1378.5c-14.9,11.4-39.4,27.4-73,37.6-32.3,9.8-57.9,9.7-84.5,9.5-32.2-.2-61.9-.3-96.7-14.2-26.5-10.6-45.6-25-57.5-35.4,0-3.7-1-203.4-1-203.5v-1s.8-1.8,1.4-1.4c0,0,.2.2.5.3.6.4,24.3,15.6,38.5,22.7,60.4,30.1,111.2,31.7,111.2,31.7,22.2.7,54.1,1.7,85.8-13.9,2.3-1.2,21.3-11.5,59.2-32.2.7-.4,17.6-9.6,18.2-10-.7,69.9-1.3,139.8-1.9,209.7h0Z"/>
  <path class="st0" d="M1161.8,1046.8c-13-2.9-46.7-8.9-88,.7-64.4,15-101.2,57.4-112.8,72v50.7c5.7-.7,14.6-2.1,24.9-5.6,14.8-4.9,19.3-9.6,43.4-22.6,26.8-14.4,35.1-16.1,38.7-16.8,8-1.4,18.1-3.2,30.4-.3,9,2.1,11.5,4.9,19.4,4.8,9.1,0,12.2-3.8,22.4-6.4,10.4-2.7,19-1.8,26.4-1,4.4.5,14.2,1.9,44.4,18,21.7,11.6,25.5,15.6,41.1,21.9,9.9,4,18.4,6.4,24,7.8v-50.7c-11.1-14.3-48.4-58.2-114.1-72.7h0Z"/>
  <path class="st3" d="M1118.8,756.5h0c-38.6,0-84.6-153.4-82.2-158.5,18.5-37.7,140.1-42.8,161.3,4.3,2.8,6.3-40.6,154.1-79.1,154.1h0Z"/>
</svg>