<?xml version="1.0" encoding="UTF-8"?><svg id="_Слой_1" xmlns="http://www.w3.org/2000/svg" viewBox="0 0 2200 5500"><defs><style>.cls-1{fill:#e4c1d6;}</style></defs><path class="cls-1" d="M1408.17,1522.99c-46.1,26.6-155.82,81.6-304.78,78.22-132.37-3-230.07-50.62-276.1-76.95,2.79-39.33,3.85-71.4,4.27-94.69.41-23.01.16-35.88.01-41.94-.39-16.02-1.13-27.39-3.5-60.89-1.68-23.62-3.18-44.27-4.42-61.14,39.73,34.8,72.74,65.45,102.29,88.62,53.74,42.13,75.03,52.31,87.89,57.75,48.05,20.35,89.37,21.65,99.58,21.81,69.01,1.13,119.75-26.44,142.51-39.18,22.24-12.44,41.8-28.53,80.86-60.8,32.55-26.89,58.49-50.65,76.57-67.82-3.14,25.89-5.17,48.64-6.52,67.4-2.49,34.49-3.06,60.56-3.42,77.65-.47,22.84-.75,36.16,0,54.97.93,23.29,2.94,42.78,4.75,56.97v.02Z"/><path class="cls-1" d="M818.26,3517.97c1.67-169.8,4.87-496.39,4.87-496.41h0s23.54,38.07,39.27,64.68c.01.02.02.03.02.03,71.6,121.47,331.14,162.05,327.02,178.8-.52,2.11-5.1,3.41-14.81,13.59-2.61,2.74-5.34,6.17-7.95,10.57-6.4,10.78-3.93,15.17-10.76,59.78-2.57,16.75-4.08,23.74-6.46,31.54-3.17,10.39-6.74,18.46-10.66,27.32-9.18,20.76-12.64,23.32-14.98,35.31-1.03,5.26-1.14,8.75-3.21,16.05-2.28,8.06-4.03,10.45-5.4,17.11-.44,2.14-.65,3.92-.86,5.69-2.18,18.81-5.75,41-5.75,41.01h0s-98.53-1.72-290.34-5.06Z"/></svg>