<?xml version="1.0" encoding="UTF-8"?><svg id="_Слой_1" xmlns="http://www.w3.org/2000/svg" viewBox="0 0 2200 5500"><defs><style>.cls-1{opacity:.51;}.cls-1,.cls-2,.cls-3,.cls-4{fill:#d3ddeb;}.cls-2{opacity:.5;}.cls-3{opacity:.75;}</style></defs><path class="cls-3" d="M1419.57,5085.6c-214.21-.25-428.43-.5-642.64-.76.52-2.45,1.27-6.18,2.08-10.73,5.67-31.76,5.59-56.15,5.14-90.31-.5-38.89-.75-58.33-1.22-69.43-1.53-36.21-3.98-89.98-14.9-158.17-5.4-33.72-10.79-57.95-17.44-87.82-12.39-55.69-24.55-98.83-32.44-126.66-8.86-31.26-16.86-57.3-22.81-76.11,12.69,16.03,21.65,29.88,27.42,39.43,12.73,21.06,14.49,28.72,29.98,52.69,7.58,11.72,8.64,12.18,17.27,25.84,12.64,20,13.23,23.55,19.09,28.98,10.83,10.05,23.76,11.78,39.88,13.94,7.75,1.04,31.57,3.57,63.26-5.27,14.56-4.06,16.03-6.41,47.3-19.01,0,0,26.56-10.7,48.19-18.05,41.48-14.11,79.25-14.3,112.66-14.46,46.32-.23,75.77-.38,112.29,12.57,16.1,5.71,65.03,25.12,93.65,34.25,6.32,2.02,16.44,5.06,29.64,6.86,7.91,1.08,15.2,1.47,21.52,1.81,10.34.56,15.51.84,21.24.43,7.66-.54,17.19-1.31,27.75-6.5,3.29-1.62,7.27-3.58,11.27-7.37,8.23-7.8,10.48-17.59,11.71-22.11,1.62-5.99,12.19-22.98,33.33-56.97,9.19-14.77,16.24-25.42,17.92-27.95,8.99-13.55,17.12-25.12,23.76-34.31-3.95,12.93-9.92,32.75-16.91,57.23-5.1,17.85-7.63,27.29-13.44,48.13-13.21,47.39-15.29,53.01-19.94,70.24-12.5,46.24-18.57,83.48-21.49,101.77-7.94,49.59-10.42,88.4-11.89,112.42-.72,11.78-1.42,31.15-2.81,69.87-1.26,35.06-1.64,52.05-1.53,71.91.12,20.36.6,18.15.43,31.65-.19,14.64-.86,25.5,1.09,41.49.55,4.48,1.15,8.13,1.58,10.51Z"/><path class="cls-2" d="M1090.27,3542.79c-32.75,5.92-160.52,25.57-230.79-50.11-25.81-27.8-33.37-57.16-43.61-99.05-41.81-171.13-2.05-440.33-2.86-445.92-.05-.32-.57-3.56-.06-7.72.17-1.37.48-2.74,1-4.46,1.26-4.17,3.55-5.66,4.12-6.01.09-.06.16-.1.24-.14.7-.36,2.2-.75,11.45-2.62,6.12-1.24,8.38-1.68,8.38-1.68,15.2-2.94,14.8-2.8,15.2-2.92,14.07-4.1,17.69-27.64,20.94-26.54,2.27.77.83,8.34,1.27,20.67.32,8.9,1.66,15.79,4.35,29.56,7.56,38.74,11.33,58.11,18.79,77.52,8.41,21.9,27.24,70.94,69.73,92.88,6.95,3.59,17.64,8,39.04,16.82,21.17,8.73,37.17,14.72,42.48,16.71,58.13,21.8,115.88,44.59,173.91,66.66,40.17,15.28,97.15,37.22,167.13,65.16-3.69,4.62-9.47,10.2-17.48,11.63-7.78,1.39-13.6-1.87-21.25-4.6-8.92-3.18-11.58-2.54-36.39-5.51-41.21-4.94-38.6-7.28-63.44-9.29-22.24-1.8-41.04-1.28-60.63,2.68-17.41,3.51-24.61,7.55-29.98,12.65-5.87,5.58-10.1,12.94-14.68,30.91-5.76,22.58-4.28,31.32-7.17,50.18-2.92,19.01-8.74,34.36-20.4,65.07-10.11,26.63-12.83,28.61-18.2,45.21-8.22,25.45-10.47,47.53-11.08,62.27Z"/><path class="cls-1" d="M772.07,4835.75c-1.48-.06-2.54-1.32-7.21-7.49-2.17-2.86-4.65-6.16-7.37-9.83-8.31-14.9-24.43-45.65-34.41-80.12-4.93-17.04-7.59-32.28-7.86-33.92-2.41-14.08-2.71-21.94-3.93-35.88-1.17-13.39-4.9-52.04-14.26-94.87-2.02-9.24-3.87-16.74-5.09-21.49.95-1.67,2.72-4.28,5.78-6.45,1.9-1.36,7.23-5.15,13.57-3.37,7.21,2.02,9.65,9.57,9.83,10.17,9.41,33.98,18.47,69.22,27.04,105.68,13.29,56.57,24.24,111.14,33.24,163.38-.69,2.22-4.6,14.38-9.32,14.19Z"/><path class="cls-1" d="M1429.75,4838.22c1.48-.06,2.54-1.32,7.21-7.49,2.17-2.86,4.65-6.16,7.37-9.83,8.31-14.9,24.43-45.65,34.41-80.12,4.93-17.04,7.59-32.28,7.86-33.92,2.41-14.08,2.71-21.94,3.93-35.88,1.17-13.39,4.9-52.04,14.26-94.87,2.02-9.24,3.87-16.74,5.09-21.49-.95-1.67-2.72-4.28-5.78-6.45-1.9-1.36-7.23-5.15-13.57-3.37-7.21,2.02-9.65,9.57-9.83,10.17-9.41,33.98-18.47,69.22-27.04,105.68-13.29,56.57-24.24,111.14-33.24,163.38.69,2.22,4.6,14.38,9.32,14.19Z"/><path class="cls-3" d="M1429.85,3276.41c-1.18,2.69-10.51,6.48-18.95,6.19-7.58-.26-13.08-3.77-14.43-4.59-6.84-4.16.28,4.42-172.63-61.55-196.89-75.13-168.45-71.89-188.9-75.92-.04,0-56.24-11.09-79.49-39.01-1.41-1.69-4.02-5.04-13.86-17.15-5.98-7.36-16.07-17.55-25.45-32.39-13.23-20.94-13.94-28.73-14.05-32.09-.21-6.06-11.57-24.42-13.71-32.68-2.38-9.2-2.34-43.47-5.29-84.49-.15-2.09-.44-5.42-.46-9.95-.04-10.48,1.49-18.23,2.08-45.17.2-9.27.19-16.84.15-21.68-.1-51.16-.21-102.32-.31-153.48,38.42-1.7,76.84-3.39,115.25-5.09-.36,12.95-.71,28.05-.95,44.91-.13,8.94-.34,26.09-.35,47.81-.02,28.98.34,49.63,1.04,89.75.33,18.89,1.19,64.96,1.45,71.24,5.19,124.43,438.65,333.08,428.85,355.35Z"/><path class="cls-4" d="M1399.2,2987.17c-.9,13.92-8.4,130.43-68.44,149.62-30.15,9.63-71.87-22.29-155.3-86.13-109.5-83.8-120.65-118.36-123.98-138.33-4.76-28.51,5.16-34.63,0-80.91-7.44-66.68-31.24-82.72-22.44-102.86,18.77-42.95,164.51-55.73,264.4,15.79,113.73,81.44,106.7,228.26,105.76,242.83Z"/><path class="cls-1" d="M1391.19,1795.09c-46.1,26.6-155.82,81.6-304.78,78.22-132.37-3-230.07-50.62-276.1-76.95,2.79-39.33,3.85-71.4,4.27-94.69.41-23.01.16-35.88.01-41.94-.39-16.02-1.13-27.39-3.5-60.89-1.68-23.62-3.18-44.27-4.42-61.14,39.73,34.8,72.74,65.45,102.29,88.62,53.74,42.13,75.03,52.31,87.89,57.75,48.05,20.35,89.37,21.65,99.58,21.81,69.01,1.13,119.75-26.44,142.51-39.18,22.24-12.44,41.8-28.53,80.86-60.8,32.55-26.89,58.49-50.65,76.57-67.82-3.14,25.89-5.17,48.64-6.52,67.4-2.49,34.49-3.06,60.56-3.42,77.65-.47,22.84-.75,36.16,0,54.97.93,23.29,2.94,42.78,4.75,56.97Z"/><path class="cls-4" d="M1256.94,1650.62c-14.9,11.43-39.41,27.42-73.04,37.61-32.3,9.79-57.95,9.66-84.54,9.53-32.23-.16-61.88-.3-96.71-14.21-26.52-10.59-45.64-25-57.51-35.43-.02-3.66-1-203.42-1-203.46,0,0,0-1,0-1.01,0-.03.85-1.76,1.36-1.41,0,0,.24.16.47.33.59.4,24.26,15.59,38.52,22.7,60.37,30.11,111.23,31.68,111.23,31.68,22.15.67,54.07,1.65,85.78-13.9,2.34-1.15,21.31-11.51,59.16-32.2.67-.37,17.55-9.59,18.22-9.96-.65,69.91-1.3,139.82-1.95,209.73Z"/><path class="cls-2" d="M1144.8,1318.91c-12.96-2.86-46.71-8.91-88.04.73-64.36,15.01-101.21,57.37-112.84,71.99v50.74c5.66-.67,14.56-2.11,24.91-5.57,14.81-4.94,19.26-9.57,43.4-22.55,26.85-14.43,35.14-16.12,38.73-16.75,7.98-1.39,18.12-3.16,30.38-.32,9.03,2.09,11.47,4.89,19.36,4.83,9.08-.07,12.19-3.83,22.37-6.44,10.44-2.68,18.98-1.76,26.38-.97,4.37.47,14.25,1.92,44.4,18.04,21.72,11.61,25.49,15.62,41.07,21.9,9.91,4,18.39,6.41,23.97,7.82v-50.74c-11.14-14.26-48.44-58.24-114.1-72.72Z"/><path class="cls-4" d="M1101.81,1028.64h0c-38.55,0-84.64-153.4-82.15-158.47,18.54-37.7,140.12-42.78,161.26,4.32,2.82,6.29-40.56,154.15-79.11,154.15Z"/></svg>