<?xml version="1.0" encoding="UTF-8"?>
<svg id="_Слой_1" xmlns="http://www.w3.org/2000/svg" version="1.1" viewBox="0 0 2200 5500">
  <!-- Generator: Adobe Illustrator 29.1.0, SVG Export Plug-In . SVG Version: 2.1.0 Build 142)  -->
  <defs>
    <style>
      .st0, .st1, .st2, .st3 {
        fill: #d4deeb;
      }

      .st1, .st2 {
        isolation: isolate;
      }

      .st1, .st4 {
        opacity: .2;
      }

      .st2 {
        opacity: .5;
      }

      .st3 {
        opacity: .5;
      }

      .st5 {
        fill: #c3e0e3;
      }
    </style>
  </defs>
  <g class="st4">
    <path class="st0" d="M1148.8,1071.8c1.1,1.7,3.4,2.2,5.1,1.1,0,0,.1,0,.2-.1,16.8-11.8,32.4-18.2,46.8-19.2,56.9-3.9,110.1-12.5,159.6-26,1.4-.4,2.3-1.8,1.9-3.3v-.3c-.2-.4-.6-.7-1-.6-46.9,8.2-104.1,15.9-171.7,23.1-11.3,1.2-24.6,7.8-40,19.8-1.7,1.3-2.1,3.7-.9,5.4h0c0,0,0,0,0,0Z"/>
    <path class="st0" d="M1050.9,1074.5c1.8,1.2,4.2.8,5.4-1,0,0,0,0,0,0h0c1.2-1.9.8-4.3-.9-5.7-16-12.5-29.8-19.4-41.6-20.6-70.1-7.4-129.5-15.3-178.2-23.9-.5,0-.9.2-1,.7h0s0,.3,0,.3c-.3,1.5.5,3,2,3.4,51.4,14,106.6,22.9,165.7,26.9,14.9,1.1,31.1,7.7,48.6,19.9h0Z"/>
    <path class="st0" d="M984.5,1659.2c1.2-.6,2.7,0,3.3,1.1l.2.3c.4.8.2,1.8-.4,2.5,9.3-3.3,22-7.3,37.2-10.8,45.2-10.3,81.2-8.5,104.1-7.2,0,0,45.3,2.6,80.1,13.9.1,0,.3,0,.3,0,0,0,.2,0,.3,0,.1.2.2.3.4.5-.5-.7-.6-1.7,0-2.4l2.4-3c.3-.4.8-.5,1.1-.3,30.5,15.2,62.9,26.6,97.2,34.3,72.2,16.2,161.8,1,193.9-71.9,33.2-75.3,18.1-161.7,2.1-243.6-.6-3.1-.7-6.4-.3-9.6.9-6.6,2.5-13,4.9-19.1h0c-.5-.1,0-4.3,0-4.4,1.8-15.9-4.6-166.6-4.6-166.6-1.6-37.6-1.5-92.4,6.9-164.2-7-1.2-15.5-2.6-25.5-4.3-31.7-5.3-79.3-20-142.9-44.2-61.3,52.4-147.8,85.1-243.7,85.1s-182.4-32.7-243.7-85.1c-2.7,1-5.3,2.1-8,3.1-51,19.1-97.4,32.1-139.2,39,0,0-.1,0-.2,0,5.5,189.9-2.4,288.8-14,342.6-.1-.4-.2-.8-.3-1.3,0,.3,0,.6-.1.8,3.1,11.5,2.7,24,.2,40.7-10.2,67.8-20.9,129.9.7,198.2,43.7,138.2,183.7,123.1,287.6,75.4h0ZM1149.5,1066.3c15.4-12.1,28.7-18.7,40-19.8,67.5-7.1,124.8-14.8,171.7-23.1.4,0,.8.2,1,.6v.3c.4,1.5-.4,3-1.8,3.3-49.5,13.4-102.7,22.1-159.6,26-14.3,1.1-29.9,7.5-46.8,19.2,0,0-.1,0-.2.1-1.7,1.1-4,.6-5.1-1.1h0c-1.2-1.8-.8-4.2.9-5.5h0ZM834.6,1024.2v-.3c0,0,0,0,0,0,0-.5.6-.8,1-.7,48.7,8.5,108.1,16.5,178.2,23.9,11.8,1.2,25.6,8.1,41.6,20.6,1.7,1.4,2.1,3.8.9,5.6h0c0,0,0,.2,0,.2-1.2,1.8-3.6,2.2-5.4,1-17.5-12.2-33.7-18.9-48.6-19.9-59.1-4-114.3-12.9-165.7-26.9-1.5-.4-2.4-1.9-2-3.4h0Z"/>
    <path class="st0" d="M1516.6,1372.6h0"/>
  </g>
  <path class="st5" d="M1098.7,2174.8c-.7-3,1.2-6,4.2-6.8,2.1-.5,4.3.2,5.7,1.9,1,1.2,1.6,2.8,1.8,4.8.3,3-1.8,5.7-4.8,6-1.9.2-3.8-.6-5-2.1-.8-.9-1.3-2.2-1.8-3.9h0Z"/>
  <path class="st0" d="M808.5,3882.6c-.4,30.1-5.2,82.4-14.5,157.2-16.3,131-20.1,243-.7,350.9,33,183.1,95.1,391.4,140.4,563.3,7.5,28.4,12.4,51,14.5,67.7,4.6,4.2,24.4,21.5,55.1,21.9,31.8.4,52.5-17.8,56.9-21.9-.7-4.2-2.2-10.7-3-18.6-15.5-153-8.7-326,6.5-495,8.3-92.8,7.8-174-1.4-243.8-8-61-15.4-121.4-16-179.9-.3-37.4,1.1-64,4.5-79.7,18.1-85.6,26.4-153.7,24.9-204.3-.5-17.9-2.1-45.2-4.6-82.1-23.7,12.4-72.2,33.9-137.2,34.4-67.5.5-117.9-21.9-141.7-34.4,7.5,38.1,17.1,95,16.2,164.2h0Z"/>
  <path class="st0" d="M1410.2,3718.8c-25.4,12.6-73.9,32.6-138,33.6-69.3,1-121.8-20.7-147.6-33.6-.5,4.5-1.1,11.7-1.9,20.7-7.7,84.2,4,152,20.5,238.1,20.5,106.8,9.5,168.3-5.3,301.3-9.8,88.7-4.5,178.9,8.2,295.1,10.1,92.9,14.7,183.1,14,270.7-.6,65-2.6,122.4-16.3,177.6,5.1,4.5,27.4,23.1,61.1,22.6,31.9-.5,52.9-17.8,58.3-22.6,1.3-10.3,3.7-27,7.7-47.4,3.2-16.1,6.9-32.5,11.3-49.3,34.6-132.6,67.5-264.2,98.8-394.6,26.6-110.7,40.1-217.3,40.7-319.9.2-36.3-4.3-91.9-13.4-166.7-15-122.4-22.7-220.4-.3-315.8.8-3.2,1.5-6.4,2.3-9.7h0Z"/>
  <path class="st0" d="M1082.3,2929.2c0-11.4-.3-34.7-1-58.9,0-2.4-.6-8.8-1.7-21.7-.7-8.1-1.4-15.7-5.1-24.6-.6-1.6-1.2-2.8-1.7-3.7-13.5-19.6-23.5-32.4-34.7-55.5-84.4-174.3-192.2-332.7-323.5-475.1-7.3-7.9-15.4-15.4-24.2-22.4-.2-.1-.4-.3-.6-.3h0s-1.5,0-3,1.4c-9.2,8.5-28.4,83-28.4,83-1.3,5.2-2.9,10.9-6.1,22.3-4.4,15.9-8.1,28.6-10.4,36.5,46.1,65.9,96.9,133.9,152.8,203.1,97,120.1,194.4,224.9,287.3,315.9h0Z"/>
  <path class="st0" d="M1569.2,2399.8c-6.1-20.7-13.9-45.9-23.7-74.1-24.7-70.7-22-45.9-24.8-52.8,0-.2-.4-.8-.9-1.4-2.1-2.4-5.6-2.6-8-.6-20.8,18.1-43.9,42.4-69.5,72.8-81.8,97.4-149.8,189.9-221.8,319.4-25,44.9-33.6,61.6-33.6,61.6-10.7,20.6-17.4,34.6-26,48.9-3.2,5.3-7.8,12.7-13.2,23.3-2.9,5.8-3.4,7.2-5.8,11.3-3.6,5.9-5.9,8.2-7.9,13.7-.3.8-.8,2.2-2,8.1-1.7,8.3-2.7,14.8-3.3,18.9-1.3,9.1-2,13.6-2.7,18.8-2.9,23.3-5.4,56.2-5.7,60.4,87.1-81.2,180.4-177.9,273.7-291.8,67-81.8,125.1-161.5,175.2-236.8h0Z"/>
  <path class="st2" d="M1073.5,3196.3c2.7-25.2,3.5-35.1,5.3-59.9,6.3-86.9,5.4-158.4,3.4-207.2-27-26.2-62.3-61.3-102.5-103.8-20.7-21.9-90.7-96.5-176.2-201.7-48.2-59.3-103.2-130.6-161.5-213.4-7.8,31.3-17.7,75.2-25.8,128.4-7.4,48.2-27.2,171.3-10.4,351.8,12.9,138.1,37.4,275.6,73.5,412.7,38.2,145.2,68.7,255.2,91.2,329.9,8.7,28.9,15.9,57.4,21.6,85.4,23.9,12.4,73.3,33.9,139.3,34,66.2,0,115.7-21.6,139.6-34-.7-11-1.9-27.5-3.3-47.6-3.1-41.2-5.6-70.9-6.1-76.5-9.9-118.2,7.8-360.6,11.8-398h0Z"/>
  <path class="st2" d="M1556.1,3179.1c19.7-85,43.5-201.1,51.1-338.9,5.8-104.8,3.4-256.7-38.1-440.4-66.7,101-148.7,211.2-248.8,324.1-68.1,76.8-135.6,144.7-200.1,204.4-2.6,29.6-5.4,74.6-4.4,129.6.9,49.5,4.5,86,6.3,105.2,2,21.3,17.5,173,20,263.1,2.8,100.3-5.9,168.7-17.5,292.6,25.4,12.6,74.7,32.9,139.7,33.5,68.4.6,120.2-20.8,145.8-33.5,16.3-56.2,37.7-144.9,71.2-251.9,20.2-64.6,45.1-160.5,74.6-287.8Z"/>
  <path class="st1" d="M1106.5,2365.1c-150,0-290.7-40-412.2-110.1.3,1.2,1,2.3,1.9,3.2,37.2,35.3,72,73.3,104.6,113.9,100.6,125.6,185.4,260.7,254.3,405.4,1.2,2.5,8.7,12.9,22.5,31.3,1.5,2,3.8,3.3,6.4,3.5l35.3,2.5c3.2.2,6.2-1.3,7.9-4,17.6-28.4,27.1-43.8,28.3-46.4,69.6-141.6,153.6-273.3,251.9-395,31.4-38.9,62.1-69,102.1-108.4.5-.5.9-1.1,1.3-1.6-119.7,67.3-257.6,105.6-404.4,105.6h0Z"/>
  <path class="st2" d="M1510.9,2250.4c-48.4-93-75.2-144.7-80.4-155.2-24.4-48.7-30.3-101.8-17.5-159.5,34.6-157.1,55.2-243.5,61.8-259.4.2-.6.3-1.2,0-1.8-.4-1.3-1.8-2.1-3.1-1.7-.6.2-7.7,4.1-21.4,11.8-72,40.7-170.6,14.1-240-24.7,0,0-.2-.1-.3-.2-.2-.2-.3-.3-.4-.5,0,0-.2,0-.3,0,0,0-.1,0-.3,0-34.8-11.3-80.1-13.9-80.1-13.9-22.9-1.3-58.9-3.1-104.1,7.2-16.2,3.7-29.5,8-39,11.5-81.4,46.1-189.8,62.6-261.2-12.1-.8-.8-1.9-1.2-3-.8-1.5.5-2.4,2.1-1.9,3.6,29.7,98.8,53.2,196.9,70.7,294.4,9.4,52.3,1.4,102.5-24,150.7-30.2,57.3-54.2,107.5-72.2,150.5-.7,1.6-.7,3.4-.2,5,106,61.1,226.7,99.4,355.4,108.1v-13c-.2-1.8-.3-3.6-.3-5.4v-360.3c0-25.7,19.7-47,44.7-49.5,1.8-.2,3.6-.3,5.4-.3h0c27.4,0,49.8,22.4,49.8,49.8v379.6c130.8-6.7,253.6-43.8,361.6-104.5,1.7-2.8,1.9-6.3.4-9.2h0Z"/>
  <path class="st0" d="M513.2,2097.4c9.9-40.9,13.7-89,17.4-130.8.9-10.4,4.8-36.8,16.8-69.2,4.7-12.7,9.4-22.9,12.8-29.8-18.1.6-47-.7-80.2-12.4-31.2-11-53.7-26.8-67.3-38.1-6,27.7-14.4,50.1-22.3,67.3-13.2,28.7-20.8,33.9-40.6,72.7-7.9,15.6-18.3,36.1-28.2,64.3-3.6,10.4-8.7,29.3-18.8,67.3-2.4,9-8.6,32.4-14.8,60.4-5.7,25.4-6.5,32.7-6.9,36.6-.4,3.7-1,11.4-2.8,22.1-1.2,7.8-2.5,13.5-2.7,14.5-2.2,10.7-21.2,116.1-71.1,396.4,5.4,3.3,13.6,7.6,24.2,10.5,9.7,2.6,17.4,3,24.2,3.3,8.6.4,20.8,0,35.4-2.8,8.3-45.6,26.4-88.6,47.5-132.7,56-118.1,142.3-255.6,177.4-399.7h0Z"/>
  <path class="st0" d="M1836.2,1906.9c-16-30.6-19.4-37.7-22.4-44.5-4.7-10.7-10.8-26-16.3-45.5-10.8,14-31.5,37.1-64.7,55.1-30.8,16.7-59.3,21.8-76.5,23.6,16.2,42.9,16.8,60.8,16.8,60.8,0,.9,0,1.4,0,2,0,1.4,0,2.4,0,2.6-.1,2.2,0,14.3,0,18.4.9,33.9,7,68.6,7,68.6,2.8,15.7,6.3,29.9,13.5,58.2,3.8,15.1,7.4,28.6,9.2,34.9,14.5,50.4,31.6,88.2,39.3,105.2,23,50,47.4,97.5,79.6,158.5,48.4,91.8,61.5,126.8,81.9,182.7,7.4,20.2,11.2,39.4,11.5,57.7,19.8,6.9,35,6.9,43.9,6.1,5.3-.5,10.5-1.4,12.8-1.8,13.3-2.4,24-6,31.4-8.8-50.6-288.4-71.8-419.3-80.4-479.6-1.2-8.3-4.7-33.2-12.4-65.8-4.2-17.6-21.7-90.1-53.7-149.9-1-1.9-9.3-17.3-20.3-38.3h0Z"/>
  <path class="st2" d="M620.2,1025.5c-27.2,13.7-44.4,30.6-50.9,37.2-25.1,25.6-36.2,51.1-38.8,57.3-2.9,7-5.3,13.9-9.9,31.8-10.3,40.8-15.6,74.5-17.8,90.2-4.4,30.7-8.5,58.7-9.3,96.6-.5,25,.8,35.4-.7,64.1-.9,18.8-2.6,37.3-3.5,54.2,0,1.1-.2,4-.6,7.9-.5,5.2-1.6,11.9-3.6,19.7-2.2,8.2-4.6,14.1-5.2,15.5-15.5,38.4-38.6,154.4-38.6,154.4-8.8,44.2-18.9,99.1-28.7,162.8,13.6,11,34.2,25.1,61.9,35.6,35.1,13.4,66.2,15.2,85.6,14.8,6.1-12.8,14-29.6,22.8-49.5,4.3-9.7,19.2-43.7,38.8-94.6,0,0,18.6-46.6,39.8-115.3,1.2-4,5.3-22,12.2-53.9,1.5-6.8,2.1-13.8,1.8-20.9-1.4-33.3-.4-62.8,3-88.4,6.6-49.7,10-77.1,10.3-82.1.8-6.8-.3-13.8-3.2-20l-11.2-24.6c-.7-1.3-.3-2.9.9-3.8,1.3-1,3.3-.8,4.3.5,8.9,10.6,14.3,20,16.9,30.2,11.6-53.8,19.5-152.8,14-342.7-44.8,7.5-74.9,15.1-90.2,22.9h0Z"/>
  <path class="st2" d="M1789.4,1776.2c-4.9-28.6-5.2-39.4-8.7-62.1-1.7-10.7-6.2-30.6-15.2-70.3-8.1-35.6-13.6-57.8-18.7-77.3-3.6-13.9-5.5-21-8.6-31.4-6.7-22.4-9.8-28.6-13.6-43.3-1-3.9-4.4-17.7-6.9-40.4-.2-1.6-2.4-53.8-6.8-156.7-5.3-125.1-29.1-252.1-173.2-282-.6-.1-8.6-1.5-24.2-4.1-8.5,72-8.6,127-7,164.6,0,0,6.4,150.7,4.6,166.6,0,.1-.5,4.3,0,4.4.3,0,1-2.4,2.7-6,.5-1,1.4-2.6,3.2-5.9,1.8-3.1,2.7-4.7,3.5-6,1-1.5,1.8-2.6,3.3-4.4,1.9-2.4,1.8-2.1,3.8-4.6.6-.8,1.4-1.4,2.1-2.2.2-.2.4-.6.9-.7.7-.3,1.4,0,1.9.2.7.6,1.4,1.2,2.1,1.7.3.2.8.5,1.2,1.1.9,1.5,0,3.3-.1,3.5-.3.6-2.2,2.8-3,3.8-1,1.3-3.6,4.9-4.1,5.7-.4.7-.8,1.2-1.2,1.9-1.1,1.9-2.2,3.8-3.2,5.7-4.1,7.9-6.2,15.9-6.2,15.9-1.1,4.2-1.5,7.1-1.6,7.8-.5,4.1-.3,6.8-.2,7.6.2,2.4.6,4.1.6,4.5,2.2,10.5,19.8,152.9,17.7,167.6,0,0-.6,7.7.8,12.1.2.8.5,1.3.7,2,.2.7.2,1.2.2,1.3,4.9,35.9,31,116.3,31,116.3,38.4,118,76.3,196.5,84.5,213.3,1.9,3.9,3.4,7,4.4,9,16.9-1.6,44.3-6.4,74.1-22,8.8-4.6,35.7-19.5,60.4-48.4,2.8-3.3,5.1-6.2,6.7-8.2-2.1-9.3-5.1-23.4-8.1-40.7h0Z"/>
  <path class="st0" d="M1338.7,957c-97.4-37.3-123.7-119.9-114.1-214.5,0-.9-.3-1.8-.9-2.4-1.2-1.2-3.2-1.2-4.3,0-21.6,23.2-45.8,41.2-72.8,53.9-58.3,27.5-117.3-5.7-158.8-48.8-.5-.5-1.2-.8-1.9-.7-1.3.1-2.3,1.3-2.2,2.7,2.8,27.8,1.5,56.8-3.6,87-11.8,69.5-61.9,101.9-123,125.7,61.3,52.8,148.2,85.8,244.5,85.8s183.3-33,244.6-85.9c-2.4-.9-4.9-1.9-7.4-2.8h0Z"/>
  <ellipse class="st0" cx="693.1" cy="1327" rx="134.3" ry="143.5"/>
  <ellipse class="st0" cx="1530.8" cy="1322.8" rx="134.3" ry="143.5"/>
  <path class="st2" d="M1006.3,5043.9h0c-7.9-.1-20.5-1.3-34.5-7.3-10.3-4.4-18-9.9-23.2-14.3.3,2.8.6,6.4.9,10.7,0,0,.1,2,.2,4,.5,19.4-11.9,47.6-12.4,68.2-1,50.3-5.2,80.9-26,130.4-14.2,34-48.5,62.5-73.9,86-5.5,5.1-10,11.4-13.4,18.8-1.8,3.9-1.3,8.4,1,11.8l4.2,6.3c.8,1.2,2,1.9,3.4,2,2.4.1,4.5-1.7,4.6-4.1,1.7-19.6,13.4-32.6,35.1-38.9.3,0,.7,0,.9.4l1.4,2c0,0,0,.1,0,.2.4.9,0,1.9-.8,2.3-16.5,7.4-25.6,18.6-27.1,33.7-.6,5.8,3.4,11.1,9.1,12.1l8.7,1.5s0,0,0,0c4.3.7,8.3-2.1,9-6.3l2.9-16.3c.7-3.8,3.1-7.1,6.6-8.8,9.2-4.7,16.8-10.9,22.7-18.5.9-1.1,2.3-1.5,3.6-1.1,1.8.5,2.7,2.4,2.2,4.2-5.9,19.2-33,15.3-26.6,44.6.8,3.9,4.4,6.6,8.3,6.4l22-1h0c2.7-.1,4.8-2.5,4.6-5.2l-.9-17.5c-.2-3.6,1.6-7.1,4.6-9.1l25.1-16.8c.8-.5,1.8-.8,2.7-.6,2,.4,3.3,2.3,3,4.3l-.9,4.7c-.2,1.2-1.1,2.3-2.3,2.7-13.1,4.7-20.7,12-22.7,21.7-5.6,26.2,31.3,25.8,44.5,15.2,3.5-2.8,5.5-7.1,5.3-11.6-.6-12.7,8-25.2,25.8-37.6.2-.1.4-.2.6-.3,1.9-.9,4.1,0,4.9,1.8,1.6,3.6,4.5,6.8,8.6,9.7.6.4,1,1.2.8,2-.2,1-1.2,1.8-2.2,1.6,0,0-.8-.5-2.4-1.6-3-2.1-7-2-10,.2-10.2,7.2-16.1,16.4-17.7,27.4-.4,3,.7,5.9,2.9,7.8,10.1,8.7,22,12.4,33.4,11.5,21-1.6,33.4-19.3,35.3-22,4-5.8,6.6-11.9,10.6-48.1,3.5-31.5,4.6-55.1,4.8-59.6.9-19.9,1.2-33.1,1.4-46.2,1.8-81.7,5.3-85.5,2.9-111.2-1.7-17.7-6-43.4-18.2-74.3-5.1,4.5-12.9,10.5-23.7,15.1-12.2,5.3-23.1,6.7-30.3,7.1h0Z"/>
  <path class="st2" d="M1340.8,5300.8c-44.7-34-73.9-130.1-71.8-188.5,1.2-32.1-6.3-55.8-6.4-62.5-.1-11.5.3-21,.8-27.6-5.4,4.8-14.4,11.5-27,16.4-13.5,5.2-25.4,6-32.8,6-7.3.1-19.3-.6-33-6-12.5-4.9-21.3-11.7-26.6-16.4-2.9,8.5-6.6,19.9-10.1,33.6-3.2,12.5-15.9,41.1-12.5,80.2,4.1,47.8,5.7,85.1,4.7,111.9-1.3,37.9,7.4,77.5,17.7,106.4,9.8,27.3,30.6,34.5,62.4,21.5,6.6-2.7,9.4-7.2,8.7-13.5-1.8-14-9.7-24.1-23.9-30.4-.3-.1-.6-.3-.9-.5-1.9-1.4-2.2-4-.9-5.9,5.1-7,7.8-10.5,8.2-10.6.4-.1.8-.2,1.2-.3,2.4-.2,4.4,1.6,4.6,3.9.6,8.1,5.7,15.5,15.3,22.1,2.1,1.4,3.4,3.7,3.5,6.2l.9,19.1c.3,5.8,4.5,10.5,10.2,11.5,12.4,2.2,23.3.8,32.4-4.4,2.7-1.5,4.4-4.4,4.3-7.5-.4-14.2-8.3-25-23.6-32.3-1.4-.7-2.1-2.2-1.7-3.6l.7-2.6c0-.2.2-.5.3-.7.9-1.5,2.9-2.1,4.4-1.2,19.8,11.6,30,25.8,30.8,42.5.2,3.8,3,7,6.8,7.6,9.5,1.6,18.2-.4,26.1-5.8,5.2-3.6,6.6-10.7,3.1-15.9l-20.1-29.6c-.2-.4-.2-.8,0-1.1.3-.7,1.1-1,1.7-.7,18.6,9.9,28.7,24,30.2,42.3,0,.2,0,.4,0,.5.5,2.5,2.9,4.2,5.4,3.7l22.4-4.1c.8-.1,1.6-.5,2.3-.9,2.7-1.9,3.4-5.6,1.6-8.3l-25.9-38.3c-.5-.7-.5-1.6,0-2.4.7-1,2-1.3,3-.6,18.1,12,27.6,25.2,28.5,39.7,0,.9.5,1.8,1.2,2.4,1.5,1.2,3.6,1,4.8-.5,17.4-21.5-13.2-41.3-31.1-55h0Z"/>
  <path class="st3" d="M285.4,2671.7c-1.2-6.4-1.4-11.5-1.2-14.9.1-3.4.5-5.5,1.7-14.7.7-5.4,1.3-9.7,1.6-12.4-5.4,1.1-11.4,2-17.9,2.5-14.2,1.1-26.6,0-36.5-1.8-4.1-1.2-8.6-2.6-13.2-4.5-5.7-2.2-10.8-4.7-15.3-7.1-1.2,5.6-4.1,19.4-5.3,24.8-.8,3.6-4.2,19.7-5.1,24l-1.9,9c-5.2,24.6-45.3,146-59.2,184.8-3.7,10.5-1.9,22,5.6,34.6,2.1,3.6,3.3,7.6,3.5,11.7,3.3,66.7,28.3,125.5,74.9,176.4,1.8,1.9,4.3,2.3,7.6,1.3.1,0,.2,0,.3-.1,3.7-1.3,5.6-5.2,4.4-8.8-8.8-25.4-21.1-52.5-36.8-81.3-6.2-11.2-20.2-58.9-5.9-73.4,1.9-1.9,3.2-4.5,3.5-7.2,4.9-44,10.1-51.8,32.9-83.7,1.7-2.4,2.1-5.5,1-8.3-4-9.9-5.7-19.5-5.3-28.9,0-2,1.5-3.7,3.4-4.3,2.5-.7,5,.8,5.7,3.2,11.1,39.9,6.8,90.4,10.8,129.8.9,9.4,8.6,16.6,18.1,17.1h.8c.6.1,1.1.1,1.7,0,8.2-.5,14.4-7.6,13.9-15.9-4.1-59.9,3.1-117,21.8-171.3,4.4-12.6,4.9-26.3,1.5-39.2l-11-41.6h0Z"/>
  <path class="st0" d="M1945.1,3010.7c17.7-20.2,34.2-34.7,36.8-32.4s-9.7,20.4-27.4,40.6c-17.7,20.2-34.2,34.7-36.8,32.4s9.7-20.4,27.4-40.6Z"/>
  <path class="st3" d="M2003.1,2640.6c-.9.4-2.4,1.1-4.3,1.8-2.4.9-4.3,1.3-5,1.4-7.5,1.7-17.3,4.6-25.6,6.1-3.1.6-5.6.9-6.1.9-1,.1-2.1.2-3.2.3-6.4.5-11.2.2-14.1,0-13.1-1-26-4.9-30.4-6.3.1,2.7.1,5.9-.1,9.6,0,1.6-.3,4.9-1,9.1-.5,3.3-.7,3.3-2.2,10.3-1.6,7.3-1.7,9-3,12.4-1.1,2.8-2.1,4.7-2.5,5.5-4.1,8.1-5.6,19.8-6.3,25.1-1.3,10.2-3.3,26,.9,45.2,2.2,10.1,5.6,18.5,10.1,36.7.7,3,1.2,5.1,2.1,9.4,2.7,12.2,3.1,15.7,3.2,18.5.2,4.2,0,7.4-.2,9.8-1.8,23.1-.7,46.4-2.1,69.6,0,0-1.1,15.9,6.1,23.3.1.1.3.3.4.4,5.2,4.8,13.7,4.1,19.2-1.6,8-8.4,11.9-18.8,11.8-31.1-.5-41.6,4.9-80.4,16.4-116.1.2-.7.7-1.3,1.3-1.7,1.5-1,3.5-.6,4.5.9,5.1,7.8,3,21.1-6.3,40-3.1,6.2-1.1,13.8,4.6,17.8,20.7,14.3,30.1,35.6,28.3,63.8-1.8,28.6-5.4,50.7-10.8,66.3-1,3-1.1,6.3-.4,9.4,0,0,.3.8.8,2.2,1.1,3.2.7,6.8-1,9.8-16.2,28.5-38.4,52-66.8,70.5-1.7,1.1-2.6,3.2-2.2,5.2l.4,2.6c0,.4.2.9.4,1.3,1.2,2.4,4.1,3.3,6.5,2.1,28.7-14.1,50.6-36.8,65.7-67.8,1.3-2.6,2.1-5.4,2.5-8.3,2.4-19.1,9.2-39.1,20.5-60.1,1.6-2.9,2.2-6.2,1.7-9.5-1.3-8-1.9-13.9-1.8-17.8,0-1.4,1-2.5,2.3-2.6,1.4,0,2.5,1,2.6,2.3,4.8,27.4.1,50.9-14.2,70.7-1.9,2.6-3.1,5.6-3.4,8.9-3.5,34.1-26.3,67.2-34.7,86-.2.4-.3.8-.4,1.3-.7,3.5,1.5,6.9,5.1,7.7h.3c4.9,1.1,9.9-.9,12.8-4.9,31.5-43.9,65.3-98.4,72-151,2.1-16,5-33.1,8.9-51.5.9-4.2.6-8.6-.9-12.6-19.4-52.3-62.4-219.4-62.7-221.3h0Z"/>
  <path class="st0" d="M1098.9,1934c-27.4,0-49.8,22.4-49.8,49.8,0,126.4,0,252.8,0,379.2,6.1.4,14.2,1,23.8,1.4,8.8.4,23,1,41.4.9,9.3,0,20.9-.3,34.4-1.1v-380.4c0-27.4-22.4-49.8-49.8-49.8h0Z"/>
</svg>