<?xml version="1.0" encoding="UTF-8"?><svg id="_Слой_1" xmlns="http://www.w3.org/2000/svg" viewBox="0 0 2200 5500"><defs><style>.cls-1,.cls-2,.cls-3{fill:#d4deeb;}.cls-2,.cls-4{opacity:.24;}.cls-3{opacity:.5;}.cls-5{fill:#c3e0e3;}</style></defs><g class="cls-4"><path class="cls-1" d="M1148.75,1071.83c1.11,1.71,3.39,2.19,5.1,1.08.06-.04.11-.08.17-.12,16.84-11.75,32.42-18.16,46.75-19.21,56.9-3.86,110.08-12.51,159.55-25.96,1.42-.38,2.28-1.85,1.93-3.33l-.09-.26c-.13-.41-.54-.68-.96-.61-46.9,8.25-104.12,15.93-171.66,23.07-11.29,1.17-24.62,7.78-40,19.82-1.7,1.32-2.09,3.71-.88,5.44l.09.09Z"/><path class="cls-1" d="M1050.95,1074.47c1.75,1.22,4.15.79,5.37-.96.02-.03.04-.06.06-.1l.09-.09c1.23-1.78.85-4.23-.88-5.61-15.96-12.51-29.82-19.38-41.58-20.61-70.11-7.37-129.52-15.32-178.23-23.86-.47-.1-.94.19-1.05.67,0,.01,0,.02,0,.03l-.09.26c-.35,1.53.55,3.04,2.02,3.42,51.4,13.98,106.63,22.95,165.69,26.93,14.91,1.05,31.11,7.69,48.59,19.91Z"/><path class="cls-1" d="M984.46,1659.25c1.24-.58,2.71-.07,3.33,1.14l.18.35c.43.85.24,1.85-.39,2.51,9.35-3.32,22-7.34,37.22-10.81,45.21-10.31,81.2-8.52,104.09-7.21,0,0,45.27,2.59,80.11,13.88.14.05.28.09.28.09.09.03.18.06.28.09.11.18.24.34.41.48-.52-.68-.55-1.65,0-2.36l2.37-2.98c.26-.37.75-.48,1.14-.26,30.47,15.15,62.86,26.58,97.19,34.3,72.19,16.23,161.83.96,193.93-71.93,33.16-75.35,18.07-161.66,2.1-243.58-.64-3.13-.73-6.37-.26-9.56.9-6.64,2.52-12.99,4.87-19.08,0,0,0,0,0,0-.49-.12-.02-4.31,0-4.45,1.8-15.9-4.64-166.61-4.64-166.61-1.61-37.6-1.49-92.43,6.94-164.25-6.98-1.17-15.48-2.59-25.5-4.27-31.67-5.26-79.3-19.98-142.9-44.16-61.27,52.44-147.78,85.15-243.7,85.15s-182.39-32.69-243.66-85.11c-2.66,1.04-5.34,2.06-8.04,3.07-50.99,19.12-97.39,32.13-139.2,39.03-.07.01-.14.02-.21.04,5.55,189.85-2.39,288.8-13.97,342.56-.11-.42-.23-.84-.35-1.26-.05.27-.09.55-.14.82,3.09,11.47,2.73,23.99.19,40.71-10.18,67.8-20.88,129.9.7,198.23,43.68,138.24,183.67,123.06,287.61,75.43ZM1149.54,1066.31c15.38-12.05,28.71-18.65,40-19.82,67.54-7.13,124.76-14.82,171.66-23.07.43-.06.84.2.96.61l.09.26c.35,1.48-.51,2.96-1.93,3.33-49.47,13.45-102.65,22.1-159.55,25.96-14.33,1.05-29.91,7.46-46.75,19.21-.05.04-.11.08-.17.12-1.71,1.11-3.99.63-5.1-1.08l-.09-.09c-1.21-1.72-.82-4.12.88-5.44ZM834.64,1024.21l.09-.26s0-.02,0-.03c.1-.47.57-.77,1.05-.67,48.71,8.54,108.12,16.49,178.23,23.86,11.75,1.23,25.61,8.1,41.58,20.61,1.73,1.38,2.11,3.83.88,5.61l-.09.09s-.04.06-.06.1c-1.22,1.75-3.63,2.18-5.37.96-17.48-12.22-33.68-18.86-48.59-19.91-59.06-3.98-114.29-12.95-165.69-26.93-1.47-.38-2.36-1.89-2.02-3.42Z"/><path class="cls-1" d="M1516.61,1372.64s0,.03,0,.05"/></g><path class="cls-5" d="M1098.67,2174.83c-.71-3.02,1.16-6.04,4.18-6.75,2.1-.49,4.29.25,5.65,1.93.99,1.17,1.58,2.78,1.75,4.82.35,3-1.82,5.67-4.85,5.98-1.91.2-3.8-.61-4.98-2.12-.76-.94-1.34-2.22-1.75-3.86Z"/><path class="cls-1" d="M808.5,3882.62c-.41,30.06-5.23,82.45-14.47,157.18-16.31,131.04-20.09,242.97-.7,350.94,32.98,183.15,95.08,391.38,140.43,563.3,7.51,28.39,12.36,50.95,14.55,67.67,4.6,4.23,24.44,21.54,55.07,21.88,31.8.35,52.51-17.83,56.92-21.88-.72-4.21-2.23-10.66-3.04-18.64-15.53-152.97-8.68-326.03,6.49-494.97,8.3-92.8,7.84-174.05-1.4-243.76-7.98-60.96-15.44-121.4-15.96-179.9-.35-37.42,1.14-64,4.47-79.73,18.07-85.61,26.37-153.7,24.91-204.28-.52-17.85-2.05-45.22-4.6-82.06-23.65,12.43-72.25,33.95-137.21,34.43-67.46.5-117.9-21.94-141.66-34.43,7.54,38.14,17.14,95.04,16.2,164.25Z"/><path class="cls-1" d="M1410.19,3718.82c-25.39,12.62-73.95,32.59-137.98,33.55-69.33,1.04-121.79-20.74-147.58-33.55-.49,4.48-1.1,11.74-1.91,20.66-7.72,84.21,4.03,152.01,20.52,238.06,20.53,106.75,9.47,168.32-5.26,301.3-9.82,88.68-4.47,178.85,8.16,295.07,10.06,92.86,14.74,183.09,14.03,270.68-.58,65.04-2.56,122.37-16.33,177.58,5.11,4.5,27.41,23.1,61.11,22.58,31.93-.49,52.92-17.84,58.31-22.58,1.33-10.28,3.67-26.96,7.67-47.39,3.16-16.12,6.91-32.55,11.27-49.31,34.56-132.62,67.48-264.16,98.77-394.62,26.55-110.69,40.11-217.33,40.7-319.89.18-36.31-4.3-91.87-13.42-166.66-15-122.36-22.72-220.42-.35-315.77.75-3.2,1.53-6.44,2.31-9.7Z"/><path class="cls-1" d="M1082.29,2929.17c-.07-11.35-.26-34.66-.97-58.87-.07-2.35-.61-8.8-1.69-21.71-.68-8.14-1.37-15.67-5.07-24.61-.64-1.55-1.23-2.81-1.65-3.67-13.51-19.65-23.51-32.45-34.65-55.52-84.38-174.32-192.21-332.67-323.49-475.06-7.31-7.95-15.38-15.44-24.21-22.45-.18-.14-.38-.26-.6-.34h0s-1.49,0-3,1.39c-9.16,8.46-28.36,82.99-28.36,82.99-1.34,5.21-2.92,10.91-6.07,22.31-4.38,15.87-8.06,28.62-10.37,36.54,46.07,65.85,96.86,133.85,152.84,203.11,97.05,120.07,194.36,224.94,287.26,315.88Z"/><path class="cls-1" d="M1569.16,2399.75c-6.07-20.73-13.91-45.9-23.74-74.06-24.68-70.66-22.02-45.93-24.75-52.8-.07-.18-.36-.76-.9-1.37-2.08-2.37-5.64-2.62-7.96-.56-20.76,18.13-43.91,42.4-69.47,72.8-81.82,97.36-149.81,189.87-221.83,319.45-24.96,44.91-33.64,61.62-33.64,61.62-10.68,20.55-17.41,34.58-26.03,48.94-3.17,5.28-7.84,12.7-13.21,23.31-2.94,5.81-3.39,7.24-5.83,11.26-3.57,5.88-5.87,8.2-7.89,13.7-.28.76-.77,2.19-2.01,8.1-1.72,8.27-2.7,14.8-3.3,18.93-1.33,9.07-1.99,13.6-2.65,18.82-2.95,23.3-5.38,56.22-5.69,60.45,87.06-81.17,180.39-177.88,273.72-291.8,67.02-81.81,125.05-161.52,175.18-236.79Z"/><path class="cls-3" d="M1073.52,3196.26c2.65-25.25,3.53-35.12,5.33-59.89,6.32-86.91,5.41-158.37,3.43-207.2-27.03-26.23-62.29-61.34-102.46-103.84-20.67-21.87-90.7-96.54-176.2-201.71-48.24-59.34-103.25-130.64-161.45-213.45-7.81,31.26-17.66,75.24-25.82,128.39-7.4,48.2-27.18,171.26-10.36,351.84,12.87,138.06,37.37,275.63,73.5,412.69,38.24,145.25,68.65,255.22,91.22,329.89,8.71,28.89,15.9,57.35,21.61,85.38,23.86,12.36,73.3,33.94,139.31,33.97,66.15.03,115.69-21.61,139.56-33.97-.74-11.03-1.87-27.54-3.35-47.6-3.05-41.22-5.62-70.92-6.08-76.47-9.9-118.17,7.83-360.65,11.75-398.04Z"/><path class="cls-3" d="M1556.09,3179.09c19.73-84.99,43.53-201.1,51.14-338.92,5.78-104.81,3.36-256.74-38.07-440.42-66.74,100.97-148.67,211.22-248.77,324.14-68.08,76.8-135.58,144.71-200.13,204.44-2.55,29.59-5.36,74.6-4.38,129.57.88,49.48,4.46,86.04,6.29,105.23,2.03,21.33,17.46,172.98,20,263.14,2.83,100.34-5.86,168.72-17.47,292.56,25.37,12.61,74.65,32.92,139.73,33.54,68.45.65,120.21-20.82,145.82-33.54,16.28-56.17,37.67-144.9,71.2-251.95,20.23-64.62,45.11-160.54,74.64-287.79Z"/><path class="cls-2" d="M1106.54,2365.14c-149.98,0-290.69-40.04-412.17-110.08.35,1.18.98,2.28,1.89,3.17,37.19,35.32,72.04,73.3,104.56,113.94,100.64,125.55,185.4,260.69,254.28,405.41,1.23,2.51,8.74,12.95,22.54,31.31,1.5,2.01,3.83,3.28,6.4,3.51l35.35,2.54c3.18.22,6.21-1.33,7.89-4.03,17.6-28.36,27.05-43.83,28.33-46.4,69.59-141.63,153.56-273.29,251.91-394.97,31.4-38.86,62.1-69.03,102.1-108.41.5-.5.93-1.05,1.29-1.63-119.69,67.3-257.6,105.65-404.39,105.65Z"/><path class="cls-3" d="M1510.88,2250.39c-48.36-92.98-75.17-144.73-80.43-155.25-24.44-48.65-30.29-101.81-17.54-159.46,34.62-157.07,55.2-243.52,61.75-259.37.23-.56.26-1.18.09-1.76-.4-1.34-1.78-2.09-3.07-1.66-.59.18-7.72,4.12-21.4,11.84-72.01,40.7-170.6,14.12-239.98-24.74-.1-.05-.2-.12-.28-.19-.19-.15-.33-.32-.45-.51-.09-.03-.19-.06-.28-.09,0,0-.14-.05-.28-.09-34.84-11.29-80.11-13.88-80.11-13.88-22.89-1.31-58.88-3.11-104.09,7.21-16.22,3.7-29.53,8.02-39.02,11.46-81.38,46.14-189.8,62.62-261.25-12.06-.76-.84-1.94-1.16-3.02-.82-1.52.48-2.37,2.11-1.89,3.63,29.65,98.77,53.21,196.89,70.7,294.37,9.42,52.28,1.43,102.51-23.95,150.69-30.17,57.31-54.24,107.48-72.19,150.52-.67,1.62-.71,3.37-.23,4.98,106.03,61.13,226.71,99.4,355.42,108.14v-13.01c-.2-1.79-.31-3.61-.31-5.45v-360.29c0-25.68,19.7-46.98,44.74-49.53,1.76-.19,3.55-.3,5.37-.3h0c27.38,0,49.79,22.41,49.79,49.79v379.6c130.77-6.69,253.58-43.81,361.56-104.52,1.73-2.75,1.92-6.27.37-9.25Z"/><path class="cls-1" d="M513.16,2097.41c9.91-40.87,13.68-89.03,17.37-130.78.92-10.41,4.85-36.75,16.84-69.21,4.68-12.68,9.4-22.86,12.8-29.75-18.07.58-47.05-.72-80.16-12.37-31.25-11-53.7-26.84-67.29-38.1-5.96,27.73-14.38,50.12-22.27,67.29-13.2,28.73-20.81,33.9-40.57,72.74-7.92,15.55-18.3,36.13-28.2,64.32-3.65,10.38-8.7,29.35-18.8,67.29-2.4,9.02-8.58,32.35-14.84,60.37-5.67,25.37-6.54,32.74-6.93,36.62-.37,3.71-1.03,11.41-2.75,22.1-1.25,7.79-2.47,13.48-2.69,14.52-2.25,10.73-21.23,116.06-71.12,396.42,5.43,3.33,13.61,7.6,24.23,10.48,9.74,2.64,17.41,3,24.23,3.27,8.62.35,20.81.08,35.35-2.83,8.34-45.58,26.44-88.56,47.45-132.68,56.05-118.06,142.27-255.6,177.36-399.71Z"/><path class="cls-1" d="M1836.2,1906.94c-16.03-30.57-19.41-37.71-22.39-44.53-4.67-10.68-10.76-26.04-16.34-45.46-10.81,14.02-31.5,37.12-64.7,55.08-30.85,16.69-59.29,21.81-76.5,23.57,16.24,42.93,16.81,60.77,16.81,60.77.03.87.04,1.45.03,1.97,0,1.4-.06,2.43-.07,2.63-.11,2.2-.07,14.26.04,18.42.88,33.88,7,68.61,7,68.61,2.77,15.74,6.34,29.89,13.49,58.2,3.82,15.14,7.37,28.59,9.19,34.93,14.49,50.37,31.56,88.21,39.34,105.16,22.97,50.02,47.43,97.5,79.56,158.47,48.36,91.78,61.48,126.82,81.92,182.71,7.39,20.19,11.21,39.41,11.48,57.66,19.79,6.89,34.98,6.91,43.87,6.12,5.26-.47,10.5-1.41,12.75-1.82,13.33-2.43,24.01-5.97,31.36-8.8-50.61-288.41-71.84-419.3-80.42-479.62-1.19-8.34-4.67-33.2-12.4-65.8-4.19-17.65-21.73-90.07-53.73-149.95-1-1.87-9.26-17.29-20.29-38.32Z"/><path class="cls-3" d="M620.16,1025.53c-27.21,13.71-44.37,30.62-50.86,37.23-25.12,25.58-36.25,51.13-38.84,57.31-2.92,6.97-5.35,13.95-9.86,31.77-10.32,40.8-15.56,74.52-17.83,90.22-4.42,30.65-8.47,58.69-9.26,96.55-.52,24.97.77,35.38-.66,64.14-.93,18.79-2.62,37.26-3.45,54.23-.05,1.05-.19,3.98-.61,7.89-.55,5.15-1.59,11.92-3.63,19.66-2.18,8.25-4.6,14.12-5.16,15.5-15.45,38.4-38.59,154.38-38.59,154.38-8.83,44.25-18.91,99.06-28.7,162.79,13.56,10.97,34.16,25.06,61.85,35.63,35.08,13.38,66.17,15.23,85.6,14.84,6.13-12.82,13.98-29.62,22.76-49.48,4.3-9.72,19.21-43.67,38.75-94.57,0,0,18.57-46.6,39.8-115.32,1.23-3.98,5.29-21.96,12.19-53.94,1.51-6.81,2.13-13.83,1.84-20.88-1.4-33.33-.41-62.8,2.98-88.42,6.61-49.7,10.03-77.07,10.26-82.1.8-6.83-.29-13.75-3.16-20l-11.23-24.56c-.65-1.31-.28-2.89.87-3.79,1.34-1.04,3.27-.8,4.31.54,8.94,10.64,14.27,19.97,16.9,30.16,11.58-53.77,19.52-152.75,13.96-342.68-44.78,7.51-74.87,15.14-90.24,22.89Z"/><path class="cls-3" d="M1789.38,1776.25c-4.92-28.57-5.19-39.41-8.7-62.1-1.65-10.68-6.18-30.57-15.24-70.34-8.11-35.6-13.57-57.75-18.65-77.26-3.6-13.86-5.47-21-8.56-31.37-6.69-22.43-9.77-28.59-13.58-43.3-1.01-3.88-4.4-17.72-6.93-40.44-.18-1.58-2.43-53.83-6.75-156.74-5.26-125.08-29.12-252.09-173.15-282-.57-.12-8.62-1.49-24.16-4.09-8.47,72.02-8.59,126.98-6.98,164.64,0,0,6.44,150.71,4.64,166.61-.02.14-.49,4.32,0,4.45.32.08.98-2.42,2.65-5.96.46-.98,1.38-2.61,3.22-5.86,1.76-3.13,2.66-4.71,3.5-5.96,1.02-1.51,1.84-2.56,3.3-4.41,1.91-2.42,1.82-2.11,3.8-4.55.64-.78,1.44-1.42,2.07-2.21.2-.25.43-.55.86-.73.7-.29,1.44-.04,1.87.16.68.58,1.37,1.16,2.05,1.74.32.17.84.51,1.2,1.12.88,1.49,0,3.27-.12,3.53-.31.6-2.23,2.81-3.02,3.83-.97,1.26-3.56,4.92-4.09,5.7-.44.65-.76,1.18-1.16,1.86-1.12,1.92-2.24,3.83-3.18,5.66-4.06,7.88-6.2,15.91-6.2,15.91-1.12,4.21-1.47,7.05-1.57,7.85-.48,4.08-.3,6.85-.25,7.56.18,2.38.55,4.12.64,4.53,2.17,10.47,19.78,152.9,17.69,167.6,0,0-.57,7.67.79,12.05.25.81.52,1.3.72,2.04.19.69.24,1.22.24,1.27,4.88,35.89,31.02,116.26,31.02,116.26,38.36,117.96,76.29,196.46,84.5,213.28,1.88,3.86,3.44,7,4.44,9.01,16.86-1.63,44.26-6.4,74.09-22.01,8.83-4.62,35.73-19.54,60.44-48.42,2.85-3.33,5.11-6.19,6.67-8.22-2.12-9.34-5.13-23.43-8.1-40.71Z"/><path class="cls-1" d="M1338.74,957.03c-97.36-37.28-123.68-119.9-114.12-214.55.07-.91-.27-1.8-.92-2.43-1.21-1.18-3.16-1.15-4.34.06-21.58,23.21-45.84,41.2-72.8,53.94-58.33,27.45-117.27-5.7-158.76-48.77-.49-.53-1.2-.81-1.92-.74-1.31.13-2.3,1.32-2.2,2.67,2.75,27.78,1.55,56.78-3.6,87.01-11.82,69.5-61.87,101.93-123.03,125.69,61.31,52.83,148.16,85.8,244.48,85.8s183.26-33.01,244.58-85.89c-2.43-.92-4.88-1.86-7.36-2.81Z"/><ellipse class="cls-1" cx="693.1" cy="1326.99" rx="134.35" ry="143.51"/><ellipse class="cls-1" cx="1530.81" cy="1322.85" rx="134.35" ry="143.51"/><path class="cls-3" d="M1006.29,5043.94h0c-7.91-.11-20.5-1.29-34.51-7.26-10.29-4.38-17.98-9.92-23.19-14.34.31,2.8.64,6.43.88,10.68,0,0,.13,2,.19,3.99.53,19.38-11.93,47.63-12.37,68.24-.96,50.26-5.17,80.87-25.96,130.43-14.21,34.03-48.51,62.45-73.86,85.96-5.55,5.15-10.03,11.4-13.42,18.77-1.75,3.86-1.35,8.35,1.05,11.84l4.21,6.32c.76,1.18,2.03,1.93,3.43,2.01,2.42.15,4.49-1.7,4.64-4.11,1.7-19.65,13.39-32.6,35.09-38.86.32-.06.66.08.88.35l1.4,2.02c.04.06.07.12.1.18.4.88.04,1.9-.8,2.28-16.55,7.43-25.58,18.65-27.1,33.68-.6,5.8,3.38,11.08,9.12,12.1l8.68,1.49s.05,0,.08.01c4.3.71,8.35-2.12,9.04-6.33l2.89-16.31c.67-3.81,3.11-7.07,6.58-8.77,9.24-4.74,16.81-10.91,22.72-18.51.86-1.08,2.29-1.51,3.6-1.1,1.76.55,2.74,2.42,2.19,4.17-5.88,19.21-32.98,15.26-26.58,44.65.82,3.9,4.36,6.62,8.33,6.4l22.02-1.05s.07,0,.1,0c2.71-.15,4.79-2.46,4.64-5.17l-.88-17.45c-.16-3.65,1.57-7.11,4.56-9.12l25.09-16.84c.79-.54,1.77-.75,2.71-.58,2,.35,3.34,2.26,2.99,4.27l-.88,4.74c-.21,1.25-1.08,2.29-2.28,2.72-13.1,4.74-20.67,11.96-22.72,21.67-5.61,26.23,31.31,25.79,44.47,15.17,3.52-2.81,5.48-7.12,5.26-11.58-.64-12.69,7.95-25.23,25.79-37.63.19-.13.38-.24.59-.33,1.9-.85,4.11-.04,4.93,1.82,1.64,3.57,4.5,6.81,8.6,9.74.64.42.97,1.19.83,1.95-.19,1.05-1.19,1.75-2.24,1.56-.06,0-.85-.53-2.37-1.58-2.99-2.06-7-1.99-10,.18-10.23,7.25-16.14,16.37-17.72,27.37-.39,2.96.7,5.89,2.89,7.81,10.11,8.68,21.99,12.35,33.41,11.49,21.05-1.59,33.35-19.26,35.27-22.01,4.03-5.75,6.62-11.9,10.6-48.07,3.46-31.47,4.62-55.08,4.83-59.58.94-19.92,1.15-33.11,1.44-46.2,1.84-81.66,5.35-85.49,2.89-111.17-1.69-17.71-6-43.43-18.15-74.29-5.05,4.49-12.92,10.45-23.72,15.11-12.19,5.26-23.14,6.73-30.28,7.12Z"/><path class="cls-3" d="M1340.75,5300.77c-44.73-34.03-73.94-130.08-71.84-188.5,1.16-32.08-6.32-55.81-6.4-62.54-.14-11.51.31-21.04.75-27.57-5.39,4.77-14.37,11.55-27.03,16.43-13.5,5.2-25.42,6.02-32.8,5.96-7.32.1-19.35-.65-32.96-5.96-12.52-4.89-21.35-11.69-26.62-16.43-2.94,8.51-6.6,19.94-10.1,33.63-3.19,12.47-15.89,41.06-12.54,80.17,4.09,47.83,5.67,85.14,4.74,111.92-1.32,37.89,7.37,77.45,17.72,106.4,9.77,27.31,30.58,34.47,62.45,21.49,6.55-2.69,9.44-7.19,8.68-13.51-1.75-14.03-9.71-24.15-23.86-30.35-.32-.13-.62-.3-.9-.51-1.86-1.39-2.25-4.03-.86-5.89,5.09-6.96,7.84-10.5,8.24-10.61.37-.14.77-.23,1.16-.26,2.37-.19,4.44,1.58,4.63,3.94.64,8.13,5.73,15.5,15.26,22.1,2.1,1.43,3.4,3.74,3.51,6.23l.88,19.12c.32,5.75,4.54,10.52,10.18,11.49,12.45,2.22,23.27.76,32.45-4.39,2.71-1.52,4.36-4.38,4.3-7.46-.41-14.21-8.27-24.97-23.59-32.28-1.36-.67-2.06-2.18-1.67-3.6l.7-2.63c.07-.25.18-.5.31-.73.89-1.55,2.87-2.09,4.43-1.2,19.76,11.64,30.03,25.82,30.79,42.54.16,3.82,2.98,7.01,6.75,7.63,9.47,1.58,18.16-.35,26.05-5.79,5.19-3.6,6.55-10.67,3.07-15.88l-20.09-29.65c-.19-.35-.21-.77-.06-1.14.28-.67,1.05-.98,1.72-.7,18.6,9.94,28.65,24.03,30.17,42.28.01.18.04.36.07.54.49,2.52,2.93,4.16,5.45,3.67l22.45-4.12c.81-.15,1.58-.46,2.27-.93,2.73-1.85,3.44-5.56,1.59-8.28l-25.88-38.33c-.52-.7-.54-1.63-.05-2.35.66-.98,2.01-1.26,3.03-.63,18.07,11.99,27.57,25.23,28.51,39.73.07.93.51,1.8,1.24,2.4,1.46,1.2,3.61.99,4.82-.47,17.45-21.49-13.16-41.31-31.14-55Z"/><path class="cls-1" d="M285.37,2671.69c-1.24-6.36-1.35-11.48-1.23-14.91.12-3.45.48-5.54,1.71-14.73.72-5.39,1.28-9.73,1.61-12.35-5.4,1.1-11.38,2-17.89,2.51-14.17,1.09-26.59-.05-36.5-1.79-4.12-1.17-8.56-2.64-13.24-4.47-5.72-2.25-10.82-4.67-15.29-7.06-1.21,5.65-4.14,19.4-5.29,24.78-.77,3.6-4.21,19.74-5.11,24-.64,3.01-1.28,6.02-1.92,9.03-5.25,24.61-45.32,145.97-59.21,184.81-3.74,10.47-1.87,21.99,5.61,34.56,2.13,3.57,3.34,7.58,3.51,11.67,3.33,66.72,28.3,125.52,74.91,176.39,1.75,1.87,4.3,2.31,7.63,1.32.11-.03.23-.07.34-.11,3.66-1.26,5.63-5.18,4.4-8.75-8.77-25.38-21.05-52.48-36.84-81.31-6.23-11.23-20.17-58.94-5.88-73.42,1.93-1.93,3.17-4.47,3.51-7.19,4.91-44.03,10.09-51.75,32.89-83.68,1.7-2.41,2.06-5.54.97-8.33-3.98-9.88-5.73-19.53-5.26-28.95.09-2.01,1.46-3.74,3.4-4.28,2.47-.69,5.04.76,5.73,3.23,11.14,39.91,6.75,90.35,10.79,129.82.94,9.37,8.62,16.64,18.07,17.1l.79.09c.57.03,1.15.02,1.72-.01,8.22-.54,14.44-7.64,13.9-15.86-4.15-59.88,3.1-116.98,21.75-171.3,4.35-12.64,4.87-26.28,1.49-39.21l-11.05-41.58Z"/><path class="cls-1" d="M1945.07,3010.67c17.71-20.16,34.17-34.67,36.75-32.4,2.58,2.27-9.68,20.45-27.39,40.62-17.71,20.16-34.17,34.67-36.75,32.4-2.58-2.27,9.68-20.45,27.39-40.62Z"/><path class="cls-1" d="M2003.05,2640.63c-.93.45-2.42,1.12-4.31,1.79-2.4.85-4.26,1.27-4.96,1.43-7.49,1.71-17.29,4.64-25.55,6.15-3.06.56-5.59.86-6.06.92-1,.12-2.06.23-3.22.33-6.38.54-11.25.19-14.08-.02-13.09-.96-25.97-4.9-30.38-6.32.11,2.69.12,5.94-.12,9.61-.1,1.59-.35,4.9-1.03,9.1-.54,3.34-.7,3.27-2.21,10.31-1.57,7.34-1.73,8.99-3.01,12.42-1.05,2.81-2.08,4.72-2.49,5.54-4.14,8.09-5.64,19.84-6.31,25.07-1.3,10.19-3.32,26.03.91,45.17,2.22,10.06,5.62,18.54,10.06,36.68.73,2.97,1.2,5.1,2.13,9.37,2.68,12.18,3.08,15.69,3.24,18.5.25,4.24.02,7.44-.17,9.81-1.81,23.13-.66,46.42-2.11,69.57,0,0-1.06,15.89,6.14,23.33.13.13.26.26.39.38,5.16,4.84,13.74,4.12,19.17-1.61,8.01-8.42,11.93-18.77,11.75-31.05-.53-41.63,4.94-80.35,16.4-116.13.23-.69.68-1.29,1.29-1.7,1.49-.99,3.51-.59,4.5.91,5.09,7.78,2.98,21.11-6.32,40-3.08,6.25-1.14,13.81,4.56,17.81,20.7,14.33,30.14,35.58,28.33,63.77-1.81,28.59-5.41,50.7-10.79,66.31-.98,3.04-1.13,6.28-.44,9.39.06.06.32.79.79,2.19,1.06,3.24.71,6.8-.96,9.82-16.2,28.48-38.45,51.98-66.75,70.52-1.7,1.13-2.57,3.17-2.19,5.18l.44,2.63c.08.45.23.89.44,1.31,1.21,2.38,4.11,3.32,6.49,2.11,28.71-14.15,50.61-36.75,65.7-67.8,1.28-2.61,2.14-5.43,2.54-8.33,2.4-19.12,9.24-39.15,20.52-60.08,1.59-2.9,2.18-6.24,1.67-9.47-1.34-8.01-1.93-13.95-1.75-17.81-.07-1.36.97-2.51,2.32-2.59,1.36-.07,2.51.97,2.59,2.32,4.85,27.37.12,50.93-14.21,70.7-1.9,2.58-3.08,5.64-3.42,8.86-3.51,34.12-26.31,67.19-34.65,85.96-.18.41-.32.84-.41,1.29-.72,3.51,1.54,6.94,5.05,7.66l.26.09c4.88.96,9.87-.99,12.81-5,31.49-43.86,65.26-98.41,72.01-150.96,2.05-15.96,5.03-33.13,8.95-51.49.92-4.24.61-8.62-.88-12.63-19.4-52.26-62.41-219.36-62.69-221.31Z"/><path class="cls-1" d="M1098.86,1933.97c-27.38,0-49.79,22.41-49.79,49.79-.02,126.4-.03,252.8-.05,379.2,6.1.44,14.24.97,23.85,1.41,8.85.4,23.01,1.03,41.4.9,9.28-.06,20.92-.33,34.38-1.08v-380.43c0-27.38-22.41-49.79-49.79-49.79Z"/></svg>