<?xml version="1.0" encoding="UTF-8"?><svg id="_Слой_1" xmlns="http://www.w3.org/2000/svg" viewBox="0 0 2200 5500"><defs><style>.cls-1,.cls-2{fill:#1d1d1b;}.cls-2{stroke:#1d1d1b;stroke-miterlimit:10;}</style></defs><path class="cls-1" d="M1100.95,1981.78h.53c3,0,5.44,2.44,5.44,5.44v144.73c0,3-2.44,5.44-5.44,5.44h-.53c-3,0-5.44-2.44-5.44-5.44v-144.73c0-3,2.44-5.44,5.44-5.44Z" transform="translate(-3.91 2.1) rotate(-.11)"/><path class="cls-1" d="M1102.56,2152.96c6.86-.53,13.07,7.54,13.88,18.02.81,10.48-4.1,19.4-10.96,19.93-6.86.53-13.07-7.54-13.88-18.02h0c-.81-10.48,4.1-19.4,10.96-19.93ZM1098.67,2174.83c.41,1.64.99,2.92,1.75,3.86,1.87,2.4,5.33,2.86,7.74,1.04,1.52-1.15,2.31-3.01,2.09-4.9-.18-2.05-.76-3.65-1.75-4.82-1.95-2.41-5.49-2.78-7.9-.82-1.67,1.36-2.42,3.55-1.93,5.65Z"/><path class="cls-2" d="M2015.19,3053.55l-29.21,35.52c-5.58,6.89-15.69,7.95-22.58,2.37-5.01-4.06-7.11-10.73-5.32-16.93l3.16-11.23c.3-.97-.24-2-1.21-2.31-.66-.2-1.38-.03-1.86.47l-18.77,18.68c-5.32,5.37-13.93,5.63-19.65.61-7.6-6.72-13.04-14.36-16.31-22.89-1.26-3.29-.8-6.98,1.23-9.82l27.54-38.16,40.79-40.52c2.68-2.62,4.46-6.06,5.09-9.82l12.28-69.03c1.3-7.48-.34-15.18-4.56-21.49l-15.79-23.33c-1.37-1.94-4.05-2.4-5.99-1.03-1.19.84-1.87,2.21-1.82,3.66,1.93,35.17,5.53,72.01-27.28,91.92-2.88,1.72-6.37,2.04-9.47.88-7.66-2.81-14.21-7.4-19.65-13.77-2.98-8.19-4.3-14-3.95-17.45,4.79-47.54,5.06-79.44.79-95.7-13.95-53.15-23.51-79.29-5.88-127.97,8.51-23.42,9.12-38.16,4.3-61.05-30.52-144.9-138.32-281.56-188.58-423.13-24.97-70.46-39.24-121.07-42.8-151.83-5.35-46.58-3.6-110.69-28.51-162.01-49.12-101.05-85.93-205.86-110.43-314.45-.19-.95-1.11-1.57-2.06-1.38-.66.13-1.19.63-1.36,1.29l-13.59,49.91c-16.43,22.81-25.55,37.78-27.37,44.91-28.71,112.16-50.84,211.18-66.4,297.09-12.46,68.77,14.65,117.62,52.89,188.67,16.05,29.82,48.68,88.33,66.49,135.08,56.19,147.18,83.88,301.09,83.06,461.72-.29,58.3-4.82,122.33-13.59,192.09-17.31,137.83-49.56,289.66-96.75,455.5-53.92,189.87-81.34,286.53-82.28,289.98-23.62,92.63-30.06,183.2-19.3,271.74,9.82,80.46,15.5,128,17.02,142.62,15.35,149.9-2.98,286.47-37.19,434.36-27.31,117.89-59.06,244.78-95.26,380.68-10.79,40.44-26.93,109.2-17.89,156.22,3.57,18.3,5.23,35.06,5,50.26-.79,47.54,20,130.96,62.45,166.74,24.03,20.29,36.69,31.49,37.98,33.59,10.18,17.1,9.65,34.56-11.67,44.38-19.18,8.83-34.5,11.93-45.96,9.3-3.63-.85-7.45-.38-10.79,1.32-13.33,6.78-25.12,7.22-35.35,1.32-2.42-1.43-5.39-1.59-7.98-.44-19.24,8.48-36.55,8.86-51.93,1.14-2.45-1.19-5.34-1.03-7.63.44-7.72,4.97-17.42,7.57-29.12,7.81-28.71.58-46.43-13.19-53.15-41.31-9.3-38.89-13.3-78.27-12.02-118.15,1.05-31.84-4.91-55.61-6.05-80.52-1.93-40.17,1.32-63.5,14.65-104.29,10.99-33.62,17.16-61.37,18.51-83.24,9.36-149.05,6.26-282.06-9.3-399.01-12.63-94.73-16.2-181.48-10.7-260.25,4.21-60.43,17.54-131.75,19.56-193.15,1.75-51.4-3.07-89.47-15.35-148.94-11.29-54.09-17.84-106.28-19.65-156.57-1.75-49.47,7.02-111.05,12.28-165.6,13.22-129.23,12.54-258.96-2.02-389.19-14.74-128.76-18.1-237.12-10.09-325.07,1.46-16.08,6.26-48.65,14.39-97.71.44-2.53-1.25-4.94-3.78-5.38-.34-.06-.69-.08-1.04-.06l-28.33,1.32c-2.9.13-5.15,2.59-5.02,5.49,0,.1.01.2.02.3,11.58,115.72,11.64,231.27.18,346.64-8.42,85.32-13.48,146.69-15.17,184.11-4.56,102.63-2.08,202.56,7.46,299.81,7.54,77.36,10.53,129.49,8.95,156.39-3.45,60.11-9.59,112.01-18.42,155.69-26.4,130.25,7.72,256.74,12.1,391.9,2.89,89.64-11.32,181.66-15.35,272.53-6.26,143.62-5.76,260.57,1.49,350.85,1.49,18.77,4.47,38.68,12.72,61.58,8.65,23.98,12.4,46.55,11.23,67.71-6.55,122.74-10.61,192-12.19,207.79-2.37,23.77-9.21,49.56-31.31,60.52-21.34,10.58-41.58,9.21-60.7-4.12-2.07-1.43-4.79-1.5-6.93-.17-16.78,10.53-34.68,10.88-53.68,1.05-2.32-1.21-5.08-1.24-7.46-.09-12.4,6.02-24.41,5.67-36.05-1.05-2.32-1.36-5.02-1.86-7.63-1.4-11.52,1.93-29.39-2.46-53.59-13.16-2.64-1.13-4.75-3.27-5.88-5.96-5.96-13.86-3.04-26.08,8.77-36.66,37.1-33.24,64.29-54.91,82.98-100.96,16.14-39.7,22.75-81.43,19.82-125.17,12.46-39.82,14.06-76.57,4.82-110.26-39.24-142.68-77.01-285.65-113.33-428.92-16.96-66.84-31.02-135.25-42.19-205.25-10-99.17-9.44-188.64,1.67-268.4,9.88-71.11,15.64-124.99,17.28-161.66,7.19-86.13-.2-166.98-22.19-242.53-76.31-261.91-138.06-477.86-172.01-727.32-2.51-34.21-4.94-69.5-7.28-105.87-8.6-134.32.44-263.96,27.1-388.92,19.06-89.06,44.27-168.29,75.61-237.7,12.34-27.25,35.17-75.2,68.5-143.85,17.89-36.84,23.01-77.16,15.35-120.96-14.38-82.45-30.09-153.47-47.1-213.06-5.15-17.95-11.31-43.77-18.51-77.45-6.08-28.3-16.87-59.59-32.37-93.85-.29-.82-1.19-1.26-2.01-.97-.64.22-1.06.82-1.06,1.5-1.11,15.61-4.65,31.9-10.61,48.86-47.31,133.97-74.56,207.35-81.75,220.16-17.78,31.52-30.73,61.08-38.86,88.68-11.14,37.54-9.12,86.57-15.17,121.83-25.09,145.34-88.85,259.11-165.95,405.24-35.61,67.36-64.47,133.15-70.61,203.14-.64,7.35.26,14.72,2.63,21.67,12.72,38.16,12.19,60.87,1.23,97.36-13.77,45.79-18.16,89.91-15.53,138.59.99,19.24-6.96,29.33-23.86,30.26-13.86,8.71-23.33,4.27-28.42-13.33-7.37-25.32-9.06-50.64-5.09-75.96.33-2.06-1.08-3.99-3.13-4.32-1.16-.18-2.33.18-3.18.98-32.19,30.7-14.12,104.12,5.35,137.27,6.78,11.58,23.01,30.09,48.68,55.52.77.79,2.06.79,2.89,0l1.84-1.84c.97-1.01,1.05-2.58.18-3.68-16.58-20.88-50.61-52.45-53.42-84.38-.13-1.35.86-2.55,2.21-2.68,1.02-.1,1.99.45,2.44,1.36,12.16,24.15,30.64,49.32,55.43,75.52,5.57,5.87,6.6,14.75,2.54,21.84l-13.95,24.12c-2.88,5-9.26,6.71-14.25,3.84-.75-.43-1.44-.95-2.06-1.55l-23.86-23.24c-.8-.85-2.16-.86-3.04-.03-.01.01-.02.02-.03.03-.88.89-.92,2.31-.09,3.25,12.69,13.68,10.67,25.44-6.05,35.26-4.58,2.67-10.42,1.84-14.12-2.02-29.47-30.64-51.11-65.05-64.91-103.24-12.19-33.77-14.3-73.24-24.12-109.03-1.77-6.41-1.65-13.24.35-19.65l18.86-60.61c17.89-45.9,32.63-95.17,44.21-147.8,23.8-107.83,39-183.2,45.61-226.13,23.42-151.74,38.68-281.39,84.29-414.18,15.88-46.23,46.31-96.48,68.59-136.48,5.64-10.06,9.78-20.88,12.28-32.1,8.42-38.24,16.72-82.6,24.91-133.06,9.71-59.94,27.19-135.17,52.45-225.69,4.5-16.08,6.9-28.48,7.19-37.19,3.45-96.13,6.64-159.58,9.56-190.34,13.51-142.45,54.73-244.02,209.02-263.58,2.83-.34,5.47-1.64,7.46-3.68,56.05-56.49,75-141.66,79.99-213.85,6.4-93.5,10.44-267,37.72-396.82,27.37-129.99,111.05-247.18,253.4-260.33,150.34-13.95,260.16,99.82,295.77,240.16,29.21,115.26,31.75,215.42,40.79,360.06,5.35,85.35,15.88,159.55,51.05,225.42,7.95,14.97,21.93,31.64,41.93,50,2.3,2.13,5.11,3.64,8.16,4.39,15.44,3.95,33.07,5.18,50.08,10.61,74.79,23.8,121.1,76.69,138.94,158.67,21.23,97.71,21.14,189.11,23.42,283.4.18,6.49,2.49,16.78,6.93,30.88,21.17,67.95,37.16,132.97,47.98,195.08,13.04,74.67,19.88,113.38,20.52,116.13,12.46,56.4,31.66,88.42,60.52,142.71,42.1,79.38,62.45,169.2,76.75,267.18,11.4,78.59,30.32,195.6,56.75,351.03,17.84,105.02,44.62,209.11,80.35,312.26,1.14,3.32,1.27,6.89.35,10.26-8.68,32.1-10.35,63.24-22.89,96.05-11.11,29.35-24.5,56.08-40.17,80.17ZM728.43,988.94c41.64-8.42,81.78-19.94,120.43-34.56,73.59-27.89,122.8-67.8,125.69-153.67.53-15.96.18-37.13-1.05-63.5-.29-6.06-2.36-11.92-5.96-16.84-25.85-35.38-43.33-74.41-52.45-117.1-.76-3.57-3.68-6.11-8.77-7.63-3.8-1.11-7.37-3.07-10.7-5.88-26.84-22.92-39.88-57.98-39.12-105.17.29-16.72,5.55-25.7,15.79-26.93,1.36-.17,2.72.11,3.86.79l10.18,5.88c1.82,1.02,3.92,1.4,5.96,1.05,95.49-17.07,169.9-68.33,223.23-153.76,5.19-8.3,4.15-19.9-2.63-29.3-6.49-8.89-10.29-14.68-11.4-17.37-.61-1.42.05-3.07,1.47-3.69.83-.36,1.79-.29,2.56.18,3.68,2.22,8.07,6.96,13.16,14.21,1.3,1.87,3.23,3.21,5.44,3.77,1.34.35,2.1.56,2.28.61,2.83,1.16,4.59,4.02,4.39,7.1-1.23,18.07,4.53,36.11,17.28,54.12,36.75,52.01,82.01,82.63,141.66,99.47,34.27,9.59,52.16,14.71,53.68,15.35,2.63,1.05,4.34,3.6,4.3,6.4-.26,42.63-8.51,100.7-46.49,127.01-3.76,2.59-6.35,6.53-7.19,10.96-8.6,43.27-26.99,83.24-55.17,119.9-2.06,2.64-3.31,5.81-3.6,9.12-5.7,60.96-3.68,125.78,36.22,172.8,22.98,27.1,65.87,46.58,101.22,58.59,25.91,8.83,65,20.67,117.27,35.52,1.21.36,2.48-.32,2.84-1.52.27-.88-.02-1.84-.74-2.42-19.53-16.55-34.3-36.81-44.29-60.79-38.68-92.8-47.54-200.95-51.4-322.17-2.98-92.51-13.65-174.96-32.02-247.35-31.31-123.41-127.62-237.79-264.72-235.42-155.6,2.72-246.47,135.78-270.25,279.37-13.51,81.46-21.02,148.62-22.54,201.48-2.89,103.85-5.26,221.04-44.47,321.47-5.91,15.09-17.95,33.86-36.14,56.31-.8.92-.67,2.31.3,3.1.53.43,1.22.61,1.89.5ZM1316.9,456.35c-87.77-14.56-151.66-60.41-191.65-137.53-.43-.92-1.53-1.32-2.45-.89-.33.15-.61.4-.8.72-52.69,84.91-127.07,136.16-223.14,153.76-4.32.8-7.32,4.75-6.93,9.12,5,57.89,22.1,91.49,40.08,148.94,11.4,36.61,29.65,70.35,54.73,101.22,43.94,54.03,113.76,87.71,178.58,43.33,56.25-38.54,93.68-90.2,112.27-154.99,7.66-26.84,12.22-42.01,13.68-45.52,10.09-24.56,29.91-67.54,23.77-94.82-1.11-4.97-.85-8.3.79-10,4.03-4.21,6.05-6.49,6.05-6.84.28-3.17-1.91-6-5-6.49ZM1333.22,463.21c-4.37-.55-8.67,5.01-9.59,12.42h0c-.92,7.4,1.88,13.85,6.25,14.39h0c4.37.54,8.67-5.02,9.59-12.42.92-7.4-1.88-13.85-6.25-14.39ZM905.7,575.64c-9.77-20.06-17.16-49.59-22.19-88.59-.64-4.91-.41-8.8.7-11.67.64-1.83-.28-3.83-2.06-4.46-.3-.11-.6-.17-.92-.19l-9.12-.7c-2.02-.16-3.81,1.32-4.04,3.33-4.85,41.81,4.91,77.69,29.3,107.62,1.8,2.09,4.96,2.33,7.05.53,1.69-1.45,2.21-3.85,1.28-5.88ZM1326.98,493.63l-23.77,77.28c-.17.45.05.96.51,1.13,0,0,.01,0,.02,0l.7.18c5.65,1.67,15.14-12.95,21.23-32.72l2.28-7.28c6.07-19.78,6.43-37.2.79-38.94l-.7-.26c-.46-.11-.92.16-1.05.61ZM1471.98,1673.2c-.59.18-7.72,4.12-21.4,11.84-72.01,40.7-170.6,14.12-239.98-24.74-.94-.5-1.3-1.67-.8-2.61.05-.1.12-.2.19-.29l2.37-2.98c.26-.37.75-.48,1.14-.26,30.47,15.15,62.86,26.58,97.19,34.3,72.19,16.23,161.83.96,193.93-71.93,33.16-75.35,18.07-161.66,2.1-243.58-.64-3.13-.73-6.37-.26-9.56,2.46-18.19,10.35-34.33,23.68-48.42.65-.68,1.71-.75,2.46-.18l2.46,1.93c1.45,1.14,1.67,3.26.5,4.75-.02.03-.04.05-.06.08-10.47,12.46-16.78,26.08-18.95,40.87-.58,3.89-.46,7.84.35,11.67,12.4,58.59,18.22,114.58,17.45,167.97-.06,5.18.53,10.34,1.75,15.35,28.48,115.2,67.13,225.1,115.96,329.72,13.45,28.83,20.32,51.28,20.61,67.36,3.16,162.62,68.86,302.17,148.59,448.39,30.7,56.31,59.38,120.96,81.92,182.71,13.39,36.61,15.09,70.02,5.09,100.26-7.89,23.86-14.03,54.38-7.89,75.78,10.35,35.85,15.5,57.36,15.44,64.56-.23,34.68-.99,61.14-2.28,79.38-.76,10.64,1.29,18.42,6.14,23.33,4.92,5.08,13.48,4.73,19.13-.79.15-.14.29-.29.43-.44,8.01-8.42,11.93-18.77,11.75-31.05-.53-41.63,4.94-80.35,16.4-116.13.56-1.7,2.39-2.63,4.09-2.08.69.23,1.29.68,1.7,1.29,5.09,7.78,2.98,21.11-6.32,40-3.08,6.25-1.14,13.81,4.56,17.81,20.7,14.33,30.14,35.58,28.33,63.77-1.81,28.59-5.41,50.7-10.79,66.31-.98,3.04-1.13,6.28-.44,9.39.06.06.32.79.79,2.19,1.06,3.24.71,6.8-.96,9.82-16.2,28.48-38.45,51.98-66.75,70.52-1.7,1.13-2.57,3.17-2.19,5.18l.44,2.63c.49,2.62,3,4.35,5.62,3.86.45-.08.9-.23,1.31-.44,28.71-14.15,50.61-36.75,65.7-67.8,1.28-2.61,2.14-5.43,2.54-8.33,2.4-19.12,9.24-39.15,20.52-60.08,1.59-2.9,2.18-6.24,1.67-9.47-1.34-8.01-1.93-13.95-1.75-17.81-.07-1.36.97-2.51,2.32-2.59,1.36-.07,2.51.97,2.59,2.32h0c4.85,27.37.12,50.93-14.21,70.7-1.9,2.58-3.08,5.64-3.42,8.86-3.51,34.12-26.31,67.19-34.65,85.96-1.43,3.29.08,7.11,3.36,8.54.41.18.84.32,1.28.41l.26.09c4.88.96,9.87-.99,12.81-5,31.49-43.86,65.26-98.41,72.01-150.96,2.05-15.96,5.03-33.13,8.95-51.49.92-4.24.61-8.62-.88-12.63-26.08-69.53-46.08-138.35-60-206.48-21.58-105.9-49.47-271.18-83.68-495.84-12.75-83.5-40.87-166.42-84.38-248.76-26.93-50.96-42.02-86.49-48.68-133.76-14.85-105.49-36.43-200.28-64.73-284.37-4.39-13.24-5-26.23-6.93-40.44-.18-1.58-2.43-53.83-6.75-156.74-5.26-125.08-29.12-252.09-173.15-282-.82-.18-17.31-2.95-49.47-8.33-32.75-5.44-82.57-20.99-149.46-46.66-97.36-37.28-123.68-119.9-114.12-214.55.13-1.69-1.14-3.16-2.83-3.29-.91-.07-1.8.27-2.43.92-21.58,23.21-45.85,41.2-72.8,53.94-58.33,27.45-117.27-5.7-158.76-48.77-.89-.97-2.4-1-3.36-.06-.53.52-.81,1.25-.76,1.99,2.75,27.78,1.55,56.78-3.6,87.01-12.28,72.19-65.79,104.38-130.17,128.41-50.99,19.12-97.39,32.13-139.2,39.03-45.08,7.54-75.35,15.2-90.78,22.98-50.35,25.55-83.53,67.66-99.56,126.31-24.65,89.99-25.26,176.57-27.81,277-.44,17.1-3.51,41.58-7.63,55.7-31.64,109.58-54.85,217.09-69.64,322.52-11.4,81.22-64.82,137.45-90.87,210.43-20.88,58.3-36.34,121.1-46.4,188.41-26.67,177.94-55.26,334.74-85.78,470.41-7.6,33.86-27.34,95.46-59.21,184.81-3.74,10.47-1.87,21.99,5.61,34.56,2.13,3.57,3.34,7.58,3.51,11.67,3.33,66.72,28.3,125.52,74.91,176.39,1.75,1.87,4.3,2.31,7.63,1.32,3.72-1.08,5.89-4.9,4.84-8.53-.03-.11-.07-.22-.11-.33-8.77-25.38-21.05-52.48-36.84-81.31-6.23-11.23-20.17-58.94-5.88-73.42,1.93-1.93,3.17-4.47,3.51-7.19,4.91-44.03,10.09-51.75,32.89-83.68,1.7-2.41,2.06-5.54.97-8.33-3.98-9.88-5.73-19.53-5.26-28.95.11-2.57,2.28-4.56,4.84-4.45,2.01.08,3.74,1.46,4.28,3.4,11.14,39.91,6.75,90.35,10.79,129.82.94,9.37,8.62,16.64,18.07,17.1l.79.09c8.23.41,15.22-5.93,15.63-14.16.03-.57.02-1.15-.01-1.72-4.15-59.88,3.1-116.98,21.75-171.3,4.35-12.64,4.87-26.28,1.49-39.21l-11.05-41.58c-1.28-4.88-1.69-9.92-1.23-14.91,4.82-56.49,25.96-108.06,51.31-161.31,56.05-118.06,142.27-255.6,177.36-399.71,9.91-40.87,13.68-89.03,17.37-130.78,1.93-22.1,9.3-53.86,16.84-69.21,45.08-91.92,83.15-187.62,114.2-287.09,1.23-3.98,5.29-21.96,12.19-53.94,1.51-6.81,2.13-13.83,1.84-20.88-1.4-33.33-.41-62.8,2.98-88.42,6.61-49.7,10.03-77.07,10.26-82.1.8-6.83-.29-13.75-3.16-20l-11.23-24.56c-.75-1.52-.13-3.36,1.39-4.11,1.31-.65,2.89-.28,3.79.87,18.86,22.45,21.67,39.03,16.93,70.26-10.18,67.8-20.88,129.9.7,198.23,43.68,138.24,183.67,123.06,287.61,75.43,1.24-.58,2.71-.07,3.33,1.14l.18.35c.53,1.04.14,2.32-.88,2.89-81.49,46.58-190.51,63.5-262.26-11.49-1.07-1.19-2.9-1.28-4.09-.21-.84.76-1.16,1.94-.82,3.02,29.65,98.77,53.21,196.89,70.7,294.37,9.41,52.28,1.43,102.51-23.95,150.69-30.17,57.31-54.24,107.48-72.19,150.52-1.16,2.8-.5,6.03,1.67,8.16,37.19,35.32,72.04,73.3,104.55,113.94,100.64,125.55,185.4,260.69,254.28,405.41,1.23,2.51,8.74,12.95,22.54,31.31,1.5,2.01,3.83,3.28,6.4,3.51l35.35,2.54c3.18.22,6.21-1.33,7.89-4.03,17.6-28.36,27.05-43.83,28.33-46.4,69.59-141.63,153.56-273.29,251.91-394.97,31.4-38.86,62.1-69.03,102.1-108.41,2.87-2.87,3.55-7.28,1.67-10.88-48.36-92.98-75.17-144.73-80.43-155.25-24.44-48.65-30.29-101.81-17.54-159.46,34.62-157.07,55.2-243.52,61.75-259.37.54-1.29-.04-2.79-1.29-3.34-.54-.24-1.14-.27-1.7-.09ZM1017.18,5337.79c-.06,0-.85-.53-2.37-1.58-2.99-2.06-7-1.99-10,.18-10.23,7.25-16.14,16.37-17.72,27.37-.39,2.96.7,5.89,2.89,7.81,22.28,19.12,53.15,13.95,68.68-10.53,5.44-8.71,8.97-24.73,10.61-48.07,3.1-44.21,6.49-110.58,10.18-199.11,1.67-39.56-18.16-71.14-22.19-110.78-15.53-152.97-8.68-326.03,6.49-494.97,8.3-92.8,7.84-174.05-1.4-243.76-7.98-60.96-15.44-121.4-15.96-179.9-.35-37.42,1.14-64,4.47-79.73,18.07-85.61,26.37-153.7,24.91-204.28-.99-34.09-5.67-102.8-14.03-206.13-10.61-131.13-2.37-263.4,11.75-398.04,12.86-122.1,13.65-244.75,2.37-367.96-.23-2.93-1.23-5.75-2.89-8.16-13.51-19.65-23.51-32.45-34.65-55.52-84.38-174.32-192.21-332.67-323.49-475.06-7.31-7.95-15.38-15.44-24.21-22.45-.98-.79-2.43-.6-3.24.43-.15.19-.27.4-.36.62-73.97,200.05-100.99,407.46-81.05,622.24,12.87,138.06,37.37,275.63,73.5,412.69,38.24,145.25,68.65,255.22,91.22,329.89,26.26,87.13,38.86,170.34,37.81,249.63-.41,30.06-5.23,82.45-14.47,157.18-16.31,131.04-20.09,242.97-.7,350.94,32.98,183.15,95.08,391.38,140.43,563.3,10.12,38.24,15.41,65.9,15.88,82.98.53,19.38-11.93,47.63-12.37,68.24-.96,50.26-5.17,80.87-25.96,130.43-14.21,34.03-48.51,62.45-73.86,85.96-5.55,5.15-10.03,11.4-13.42,18.77-1.75,3.86-1.35,8.35,1.05,11.84l4.21,6.32c1.31,2.04,4.02,2.63,6.06,1.32,1.18-.76,1.93-2.03,2.01-3.43,1.7-19.65,13.39-32.6,35.09-38.86.32-.06.66.08.88.35l1.4,2.02c.5.83.26,1.89-.53,2.37-.05.03-.11.06-.17.09-16.55,7.43-25.58,18.65-27.1,33.68-.6,5.8,3.38,11.08,9.12,12.1l8.68,1.49c4.29.75,8.37-2.04,9.11-6.24,0-.03,0-.05.01-.08l2.89-16.31c.67-3.81,3.11-7.07,6.58-8.77,9.24-4.74,16.81-10.91,22.72-18.51,1.15-1.44,3.24-1.68,4.68-.53,1.08.86,1.51,2.29,1.1,3.6-5.88,19.21-32.98,15.26-26.58,44.65.82,3.9,4.36,6.62,8.33,6.4l22.02-1.05c2.71-.09,4.83-2.37,4.74-5.08,0-.03,0-.07,0-.1l-.88-17.45c-.16-3.65,1.57-7.11,4.56-9.12l25.09-16.84c1.68-1.15,3.97-.71,5.12.97.54.79.75,1.77.58,2.71l-.88,4.74c-.21,1.25-1.08,2.29-2.28,2.72-13.1,4.74-20.67,11.96-22.72,21.66-5.61,26.23,31.31,25.79,44.47,15.17,3.52-2.81,5.48-7.12,5.26-11.58-.64-12.69,7.95-25.23,25.79-37.63,1.72-1.17,4.05-.76,5.2.91.13.18.23.38.32.58,1.64,3.57,4.5,6.81,8.6,9.74.89.59,1.13,1.79.54,2.67-.43.64-1.19.97-1.95.83ZM1189.19,5325.5c5.09-6.96,7.84-10.5,8.24-10.61,2.22-.83,4.7.3,5.53,2.52.14.37.23.77.26,1.16.64,8.13,5.73,15.5,15.26,22.1,2.1,1.43,3.4,3.74,3.51,6.23l.88,19.12c.32,5.75,4.54,10.52,10.18,11.49,12.45,2.22,23.27.76,32.45-4.39,2.71-1.52,4.36-4.38,4.3-7.46-.41-14.21-8.27-24.97-23.59-32.28-1.36-.67-2.06-2.18-1.67-3.6l.7-2.63c.49-1.72,2.28-2.73,4.01-2.24.25.07.5.18.73.31,19.76,11.64,30.03,25.82,30.79,42.54.16,3.82,2.98,7.01,6.75,7.63,9.47,1.58,18.16-.35,26.05-5.79,5.19-3.6,6.55-10.67,3.07-15.88l-20.09-29.65c-.35-.64-.11-1.44.53-1.78.35-.19.77-.21,1.14-.06,18.6,9.94,28.65,24.03,30.17,42.28.19,2.56,2.43,4.48,4.99,4.28.18-.01.36-.04.54-.07l22.45-4.12c3.24-.6,5.38-3.71,4.79-6.95-.15-.81-.46-1.58-.93-2.27l-25.88-38.33c-.7-.95-.46-2.26.53-2.93.73-.49,1.7-.51,2.45-.05,18.07,11.99,27.57,25.23,28.51,39.73.13,1.88,1.77,3.3,3.66,3.17.93-.07,1.8-.51,2.4-1.24,17.45-21.49-13.16-41.31-31.14-55-44.73-34.03-73.94-130.08-71.84-188.5.88-24.12-4.39-41.31-6.4-62.54-.76-7.87-.67-15.81.26-23.68,3.86-32.28,10.35-65.96,19.47-101.05,34.56-132.62,67.48-264.16,98.77-394.62,26.55-110.69,40.11-217.33,40.7-319.89.18-36.31-4.3-91.87-13.42-166.66-15-122.36-22.72-220.42-.35-315.77,16.84-71.57,41.34-158.79,73.5-261.65,20.23-64.62,45.11-160.54,74.64-287.79,26.9-115.72,43.94-228.7,51.14-338.93,12.46-190.43-8.86-396.29-86.57-567.07-1.33-2.85-4.69-4.11-7.51-2.81-.49.23-.95.52-1.35.88-20.76,18.13-43.91,42.4-69.47,72.8-84.97,100.99-158.91,207.47-221.83,319.45-28.77,51.14-54.21,106.48-84.03,154.46-2.37,3.88-3.92,8.2-4.56,12.72-17.19,119.99-20.44,230.83-9.74,332.52,11.46,108.59,18.13,196.3,20,263.14,2.98,105.78-6.84,176.04-19.38,313.23-7.72,84.2,4.03,152.01,20.52,238.05,20.53,106.75,9.47,168.32-5.26,301.3-9.82,88.68-4.47,178.85,8.16,295.07,10.06,92.86,14.74,183.09,14.03,270.68-.7,78.5-3.42,145.78-26.49,211.65-10.35,29.59-14.53,56.31-12.54,80.17,4.09,47.83,5.67,85.14,4.74,111.92-1.32,37.89,7.37,77.45,17.72,106.4,9.77,27.31,30.58,34.47,62.45,21.49,6.55-2.69,9.44-7.19,8.68-13.51-1.75-14.03-9.71-24.15-23.86-30.35-2.15-.9-3.16-3.36-2.26-5.51.13-.32.3-.62.51-.9ZM193.29,2928.99c-.05-.97-.87-1.72-1.84-1.67-.97.05-1.71.87-1.67,1.84-1.58,20.35-.88,43.77,10,63.24,16.67,30.11,37.69,54.5,63.07,73.15,2.84,2.11,6.85,1.51,8.96-1.33.12-.16.24-.33.34-.51l.18-.26c2-3.29,1.21-7.58-1.84-10-41.28-32.45-67.01-73.94-77.19-124.47ZM1981.82,2978.27c-2.58-2.27-19.04,12.23-36.75,32.4,0,0,0,0,0,0-17.71,20.16-29.98,38.35-27.39,40.62h0c2.58,2.27,19.04-12.24,36.75-32.4,17.71-20.16,29.98-38.35,27.39-40.62Z"/><path class="cls-1" d="M836.67,1027.63c-1.47-.38-2.36-1.89-2.02-3.42l.09-.26c.09-.48.54-.79,1.02-.71.01,0,.02,0,.03,0,48.71,8.54,108.12,16.49,178.23,23.86,11.75,1.23,25.61,8.1,41.58,20.61,1.73,1.38,2.11,3.83.88,5.61l-.09.09c-1.17,1.78-3.56,2.28-5.34,1.12-.03-.02-.06-.04-.1-.06-17.48-12.22-33.68-18.86-48.59-19.91-59.06-3.98-114.29-12.95-165.69-26.93Z"/><path class="cls-1" d="M1360.32,1027.63c-49.47,13.45-102.65,22.1-159.55,25.96-14.33,1.05-29.91,7.46-46.75,19.21-1.64,1.2-3.95.84-5.15-.8-.04-.05-.08-.11-.12-.17l-.09-.09c-1.21-1.72-.82-4.12.88-5.44,15.38-12.05,28.71-18.65,40-19.82,67.54-7.13,124.76-14.82,171.66-23.07.43-.06.84.2.96.61l.09.26c.35,1.48-.51,2.96-1.93,3.33Z"/></svg>