<?xml version="1.0" encoding="UTF-8"?>
<svg id="_Слой_1" xmlns="http://www.w3.org/2000/svg" version="1.1" viewBox="0 0 2200 5500">
  <!-- Generator: Adobe Illustrator 29.1.0, SVG Export Plug-In . SVG Version: 2.1.0 Build 142)  -->
  <defs>
    <style>
      .st0 {
        fill: #e4c1d6;
        stroke: #e4c1d6;
        stroke-miterlimit: 10;
        stroke-width: 2px;
      }
    </style>
  </defs>
  <path class="st0" d="M513.2,2097.4c9.9-40.9,13.7-89,17.4-130.8.9-10.4,4.8-36.8,16.8-69.2,4.7-12.7,9.4-22.9,12.8-29.8-18.1.6-47-.7-80.2-12.4-31.2-11-53.7-26.8-67.3-38.1-6,27.7-14.4,50.1-22.3,67.3-13.2,28.7-20.8,33.9-40.6,72.7-7.9,15.6-18.3,36.1-28.2,64.3-3.6,10.4-8.7,29.3-18.8,67.3-2.4,9-8.6,32.4-14.8,60.4-5.7,25.4-6.5,32.7-6.9,36.6-.4,3.7-1,11.4-2.8,22.1-1.2,7.8-2.5,13.5-2.7,14.5-2.2,10.7-21.2,116.1-71.1,396.4,5.4,3.3,13.6,7.6,24.2,10.5,9.7,2.6,17.4,3,24.2,3.3,8.6.4,20.8,0,35.4-2.8,8.3-45.6,26.4-88.6,47.5-132.7,56-118.1,142.3-255.6,177.4-399.7h0Z"/>
  <path class="st0" d="M1836.2,1906.9c-16-30.6-19.4-37.7-22.4-44.5-4.7-10.7-10.8-26-16.3-45.5-10.8,14-31.5,37.1-64.7,55.1-30.8,16.7-59.3,21.8-76.5,23.6,16.2,42.9,16.8,60.8,16.8,60.8,0,.9,0,1.4,0,2,0,1.4,0,2.4,0,2.6-.1,2.2,0,14.3,0,18.4.9,33.9,7,68.6,7,68.6,2.8,15.7,6.3,29.9,13.5,58.2,3.8,15.1,7.4,28.6,9.2,34.9,14.5,50.4,31.6,88.2,39.3,105.2,23,50,47.4,97.5,79.6,158.5,48.4,91.8,61.5,126.8,81.9,182.7,7.4,20.2,11.2,39.4,11.5,57.7,19.8,6.9,35,6.9,43.9,6.1,5.3-.5,10.5-1.4,12.8-1.8,13.3-2.4,24-6,31.4-8.8-50.6-288.4-71.8-419.3-80.4-479.6-1.2-8.3-4.7-33.2-12.4-65.8-4.2-17.6-21.7-90.1-53.7-149.9-1-1.9-9.3-17.3-20.3-38.3h0Z"/>
</svg>