<?xml version="1.0" encoding="UTF-8"?>
<svg id="_Слой_1" xmlns="http://www.w3.org/2000/svg" version="1.1" viewBox="0 0 2200 5500">
  <!-- Generator: Adobe Illustrator 29.1.0, SVG Export Plug-In . SVG Version: 2.1.0 Build 142)  -->
  <defs>
    <style>
      .st0 {
        fill: #e4c1d6;
      }
    </style>
  </defs>
  <path class="st0" d="M1338.7,957c-97.4-37.3-123.7-119.9-114.1-214.5,0-.9-.3-1.8-.9-2.4-1.2-1.2-3.2-1.2-4.3,0-21.6,23.2-45.8,41.2-72.8,53.9-58.3,27.5-117.3-5.7-158.8-48.8-.5-.5-1.2-.8-1.9-.7-1.3.1-2.3,1.3-2.2,2.7,2.8,27.8,1.5,56.8-3.6,87-11.8,69.5-61.9,101.9-123,125.7,61.3,52.8,148.2,85.8,244.5,85.8s183.3-33,244.6-85.9c-2.4-.9-4.9-1.9-7.4-2.8h0Z"/>
</svg>