<?xml version="1.0" encoding="UTF-8"?>
<svg id="_Слой_1" xmlns="http://www.w3.org/2000/svg" version="1.1" viewBox="0 0 2200 5500">
  <!-- Generator: Adobe Illustrator 29.1.0, SVG Export Plug-In . SVG Version: 2.1.0 Build 142)  -->
  <defs>
    <style>
      .st0 {
        fill: #010101;
      }

      .st1 {
        fill: #e4c1d6;
        stroke: #e4c1d6;
        stroke-miterlimit: 10;
        stroke-width: 2px;
      }

      .st2 {
        fill: #c3e0e3;
      }
    </style>
  </defs>
  <path class="st1" d="M1098.9,1934c-27.4,0-49.8,22.4-49.8,49.8,0,126.4,0,252.8,0,379.2,6.1.4,14.2,1,23.8,1.4,8.8.4,23,1,41.4.9,9.3,0,20.9-.3,34.4-1.1v-380.4c0-27.4-22.4-49.8-49.8-49.8h0Z"/>
  <path class="st0" d="M1100.8,1981.8h.5c3,0,5.4,2.4,5.5,5.4l.3,144.7c0,3-2.4,5.4-5.4,5.5h-.5c-3,0-5.4-2.4-5.5-5.4l-.3-144.7c0-3,2.4-5.4,5.4-5.5Z"/>
  <path class="st0" d="M1102.6,2153c6.9-.5,13.1,7.5,13.9,18s-4.1,19.4-11,19.9-13.1-7.5-13.9-18h0c-.8-10.5,4.1-19.4,11-19.9ZM1098.7,2174.8c.4,1.6,1,2.9,1.8,3.9,1.9,2.4,5.3,2.9,7.7,1,1.5-1.1,2.3-3,2.1-4.9-.2-2.1-.8-3.6-1.8-4.8-1.9-2.4-5.5-2.8-7.9-.8-1.7,1.4-2.4,3.6-1.9,5.6h0Z"/>
  <path class="st2" d="M1098.7,2174.8c-.7-3,1.2-6,4.2-6.8,2.1-.5,4.3.2,5.7,1.9,1,1.2,1.6,2.8,1.8,4.8.3,3-1.8,5.7-4.8,6-1.9.2-3.8-.6-5-2.1-.8-.9-1.3-2.2-1.8-3.9h0Z"/>
</svg>