<?xml version="1.0" encoding="UTF-8"?>
<svg id="_Слой_1" xmlns="http://www.w3.org/2000/svg" version="1.1" viewBox="0 0 2200 5500">
  <!-- Generator: Adobe Illustrator 29.1.0, SVG Export Plug-In . SVG Version: 2.1.0 Build 142)  -->
  <defs>
    <style>
      .st0 {
        fill: #e4c1d6;
        stroke: #e4c1d6;
        stroke-miterlimit: 10;
      }

      .st1 {
        fill: #fff;
      }
    </style>
  </defs>
  <path class="st1" d="M600.5,2952.2c34,249.5,95.7,465.4,172,727.3,22,75.6,29.4,156.4,22.2,242.5-6.8-31.6-9.2-64.1-7.3-97.5.5-7.6-.2-15.1-1.8-22.4-9.5-41.8-10.1-78.7-23.5-124.4-36.1-122.9-71.4-250.3-105.7-382.1-12.9-49.2-19.4-75-19.7-77.3-6.4-46.3-23.2-99.7-24.1-148.2,0-2.6-1-5-2.6-7-1.8-2.2-3.1-4.9-4-8.3-9-35.5-10.8-69.7-5.4-102.5h0Z"/>
  <path class="st1" d="M1118.9,3249.9c14.6,130.2,15.2,259.9,2,389.2-7.1.8-10.7-2.6-10.8-10,0-21.8-4-41.8,0-63.3,15.7-83.9,14.4-167.6-3.9-251-.6-2.6-.8-5.3-.7-8,.6-16.2,1.3-32.7,2-49.4.2-6.1,4-8.6,11.4-7.5h0Z"/>
  <path class="st0" d="M1073.5,3196.3c2.7-25.2,3.5-35.1,5.3-59.9,6.3-86.9,5.4-158.4,3.4-207.2-27-26.2-62.3-61.3-102.5-103.8-20.7-21.9-90.7-96.5-176.2-201.7-48.2-59.3-103.2-130.6-161.5-213.4-7.8,31.3-17.7,75.2-25.8,128.4-7.4,48.2-27.2,171.3-10.4,351.8,12.9,138.1,37.4,275.6,73.5,412.7,38.2,145.2,68.7,255.2,91.2,329.9,8.7,28.9,15.9,57.4,21.6,85.4,23.9,12.4,73.3,33.9,139.3,34,66.2,0,115.7-21.6,139.6-34-.7-11-1.9-27.5-3.3-47.6-3.1-41.2-5.6-70.9-6.1-76.5-9.9-118.2,7.8-360.6,11.8-398h0Z"/>
  <path class="st0" d="M1556.1,3179.1c19.7-85,43.5-201.1,51.1-338.9,5.8-104.8,3.4-256.7-38.1-440.4-66.7,101-148.7,211.2-248.8,324.1-68.1,76.8-135.6,144.7-200.1,204.4-2.6,29.6-5.4,74.6-4.4,129.6.9,49.5,4.5,86,6.3,105.2,2,21.3,17.5,173,20,263.1,2.8,100.3-5.9,168.7-17.5,292.6,25.4,12.6,74.7,32.9,139.7,33.5,68.4.6,120.2-20.8,145.8-33.5,16.3-56.2,37.7-144.9,71.2-251.9,20.2-64.6,45.1-160.5,74.6-287.8Z"/>
</svg>