<?xml version="1.0" encoding="UTF-8"?>
<svg id="_Слой_1" xmlns="http://www.w3.org/2000/svg" version="1.1" viewBox="0 0 2200 5500">
  <!-- Generator: Adobe Illustrator 29.1.0, SVG Export Plug-In . SVG Version: 2.1.0 Build 142)  -->
  <defs>
    <style>
      .st0 {
        fill: #e4c1d6;
        stroke: #e4c1d6;
        stroke-miterlimit: 10;
        stroke-width: 2px;
      }
    </style>
  </defs>
  <path class="st0" d="M1510.9,2250.4c-48.4-93-75.2-144.7-80.4-155.2-24.4-48.7-30.3-101.8-17.5-159.5,34.6-157.1,55.2-243.5,61.8-259.4.2-.6.3-1.2,0-1.8-.4-1.3-1.8-2.1-3.1-1.7-.6.2-7.7,4.1-21.4,11.8-72,40.7-170.6,14.1-240-24.7,0,0-.2-.1-.3-.2-.2-.2-.3-.3-.4-.5,0,0-.2,0-.3,0,0,0-.1,0-.3,0-34.8-11.3-80.1-13.9-80.1-13.9-22.9-1.3-58.9-3.1-104.1,7.2-16.2,3.7-29.5,8-39,11.5-81.4,46.1-189.8,62.6-261.2-12.1-.8-.8-1.9-1.2-3-.8-1.5.5-2.4,2.1-1.9,3.6,29.7,98.8,53.2,196.9,70.7,294.4,9.4,52.3,1.4,102.5-24,150.7-30.2,57.3-54.2,107.5-72.2,150.5-.7,1.6-.7,3.4-.2,5,106,61.1,226.7,99.4,355.4,108.1v-13c-.2-1.8-.3-3.6-.3-5.4v-360.3c0-25.7,19.7-47,44.7-49.5,1.8-.2,3.6-.3,5.4-.3h0c27.4,0,49.8,22.4,49.8,49.8v379.6c130.8-6.7,253.6-43.8,361.6-104.5,1.7-2.8,1.9-6.3.4-9.2h0Z"/>
</svg>