<?xml version="1.0" encoding="UTF-8"?>
<svg id="_Слой_1" xmlns="http://www.w3.org/2000/svg" version="1.1" viewBox="0 0 2200 5500">
  <!-- Generator: Adobe Illustrator 29.1.0, SVG Export Plug-In . SVG Version: 2.1.0 Build 142)  -->
  <defs>
    <style>
      .st0 {
        fill: #e2abcf;
      }
    </style>
  </defs>
  <path class="st0" d="M620.2,1025.5c-27.2,13.7-44.4,30.6-50.9,37.2-25.1,25.6-36.2,51.1-38.8,57.3-2.9,7-5.3,13.9-9.9,31.8-10.3,40.8-15.6,74.5-17.8,90.2-4.4,30.7-8.5,58.7-9.3,96.6-.5,25,.8,35.4-.7,64.1-.9,18.8-2.6,37.3-3.5,54.2,0,1.1-.2,4-.6,7.9-.5,5.2-1.6,11.9-3.6,19.7-2.2,8.2-4.6,14.1-5.2,15.5-15.5,38.4-38.6,154.4-38.6,154.4-8.8,44.2-18.9,99.1-28.7,162.8,13.6,11,34.2,25.1,61.9,35.6,35.1,13.4,66.2,15.2,85.6,14.8,6.1-12.8,14-29.6,22.8-49.5,4.3-9.7,19.2-43.7,38.8-94.6,0,0,18.6-46.6,39.8-115.3,1.2-4,5.3-22,12.2-53.9,1.5-6.8,2.1-13.8,1.8-20.9-1.4-33.3-.4-62.8,3-88.4,6.6-49.7,10-77.1,10.3-82.1.8-6.8-.3-13.8-3.2-20l-11.2-24.6c-.7-1.3-.3-2.9.9-3.8,1.3-1,3.3-.8,4.3.5,8.9,10.6,14.3,20,16.9,30.2,11.6-53.8,19.5-152.8,14-342.7-44.8,7.5-74.9,15.1-90.2,22.9h0Z"/>
  <path class="st0" d="M1789.4,1776.2c-4.9-28.6-5.2-39.4-8.7-62.1-1.7-10.7-6.2-30.6-15.2-70.3-8.1-35.6-13.6-57.8-18.7-77.3-3.6-13.9-5.5-21-8.6-31.4-6.7-22.4-9.8-28.6-13.6-43.3-1-3.9-4.4-17.7-6.9-40.4-.2-1.6-2.4-53.8-6.8-156.7-5.3-125.1-29.1-252.1-173.2-282-.6-.1-8.6-1.5-24.2-4.1-8.5,72-8.6,127-7,164.6,0,0,6.4,150.7,4.6,166.6,0,.1-.5,4.3,0,4.4.3,0,1-2.4,2.7-6,.5-1,1.4-2.6,3.2-5.9,1.8-3.1,2.7-4.7,3.5-6,1-1.5,1.8-2.6,3.3-4.4,1.9-2.4,1.8-2.1,3.8-4.6.6-.8,1.4-1.4,2.1-2.2.2-.2.4-.6.9-.7.7-.3,1.4,0,1.9.2.7.6,1.4,1.2,2.1,1.7.3.2.8.5,1.2,1.1.9,1.5,0,3.3-.1,3.5-.3.6-2.2,2.8-3,3.8-1,1.3-3.6,4.9-4.1,5.7-.4.7-.8,1.2-1.2,1.9-1.1,1.9-2.2,3.8-3.2,5.7-4.1,7.9-6.2,15.9-6.2,15.9-1.1,4.2-1.5,7.1-1.6,7.8-.5,4.1-.3,6.8-.2,7.6.2,2.4.6,4.1.6,4.5,2.2,10.5,19.8,152.9,17.7,167.6,0,0-.6,7.7.8,12.1.2.8.5,1.3.7,2,.2.7.2,1.2.2,1.3,4.9,35.9,31,116.3,31,116.3,38.4,118,76.3,196.5,84.5,213.3,1.9,3.9,3.4,7,4.4,9,16.9-1.6,44.3-6.4,74.1-22,8.8-4.6,35.7-19.5,60.4-48.4,2.8-3.3,5.1-6.2,6.7-8.2-2.1-9.3-5.1-23.4-8.1-40.7h0Z"/>
</svg>