<?xml version="1.0" encoding="UTF-8"?><svg id="_Слой_1" xmlns="http://www.w3.org/2000/svg" viewBox="0 0 2200 5500"><defs><style>.cls-1{fill:#e4c1d6;}</style></defs><path class="cls-1" d="M1069.49,2841.28c-1.21,1.09-2.49,2.22-3.78,3.34-25.33,22.04-63.85,39.04-63.85,39.04-24.16,8.79-60.6,18.89-105.77,19.98-39.59.95-72.47-5.34-95.63-11.67-14.08-2.89-119.74-26.3-209.82-105.29,2.95,159.56,37.77,316.57,78.51,473.3,16.61,63.91,65.11,204.76,102.11,407.4,5.26,28.82,9.2,52.67,11.76,68.64,33.83,12.34,88.83,27.66,157.69,26.27,59.95-1.22,108.26-14.66,140.06-26.27-.87-16.27-2.22-41.62-3.84-72.76-3.21-62.08-4.19-84.77-4.65-93.96-2.74-54.11-4.5-108.14-2.69-161.92-1.27-187.59,52.5-382.24-.1-566.12Z"/><path class="cls-1" d="M1416.15,2888.71c-154.59,31.17-268.05-40.92-272.5-44.87-1.03-.92-2.05-1.86-3.07-2.8-11.59,15.3-11.3,34.34-13.72,51.69-22.58,144.72,3.94,289.97,10.89,434.82,0,0,2.99,102.77-6.4,340.35-.05,1.17-.6,15.32-.85,21.54-.27,6.89-1.56,39.8-1.83,46.6,36.36,11.49,90.94,24.12,157.81,22.84,57.74-1.1,105.37-12.2,139.03-22.84,1.54-11.11,3.6-24.78,6.29-40.39,0,0,1.97-11.41,4.15-22.78,37.73-196.57,105.07-412.61,105.07-412.61,31.51-101.07,66.44-253.77,78.14-475.87-45.07,40.33-113.01,86.17-203.03,104.32Z"/></svg>