<?xml version="1.0" encoding="UTF-8"?>
<svg id="_Слой_1" xmlns="http://www.w3.org/2000/svg" version="1.1" viewBox="0 0 2200 5500">
  <!-- Generator: Adobe Illustrator 29.1.0, SVG Export Plug-In . SVG Version: 2.1.0 Build 142)  -->
  <defs>
    <style>
      .st0 {
        fill: #e4c1d6;
        stroke: #e4c1d6;
        stroke-miterlimit: 10;
        stroke-width: 2px;
      }
    </style>
  </defs>
  <path class="st0" d="M486.4,1425c-4.3,88.2-45.6,169.5-55.6,257.3-8.6,50-14.8,100.6-27.7,149.8-4.1,10.2-8.6,20.7-13.7,31.4-1.8,3.7-3.5,7.3-5.3,10.8,12.9,11,37.8,29.3,74,39,42.8,11.5,78.6,5,95.5.8,21.9-57.2,43.4-114.5,64.5-171.9,21-57.2,41.7-114.6,62-172.2,1.2-3.4,3.2-9.3,4.7-16.7,4.5-21.6,1.8-37.5-3.4-77.8-4.2-32.7-3-26.8-4.3-35.1-6.2-38.8-21.1-52.2-21.1-84.5,0-5.8.4-9.3,2.3-23.1,7.2-53.9,10.8-80.9,13.8-98.4,5.2-30.3,10-91.9,8-229-17,1.2-43.3,5.3-69.5,20.7-135.3,79.3-117.4,262.9-124.1,398.9h0Z"/>
  <path class="st0" d="M1807.6,1841.9h-3.3l3.3-2.4c-27.1-92.7-30.3-190.4-59.8-282.7-23.9-65-31.3-133-28.8-201.8-7.8-290.6-84.1-323-196.7-349.4-3.2,70.8.4,126.4,4.6,165.3,10.8,99.4,16.2,149.1,19.2,159.2.8,2.6,3.6,11.5,2.7,23.3-.8,12-5,20.1-7.6,26.2-4.5,10.8-4.2,15.3-8.1,48.9-5.9,51.8-9.2,52.6-11,84.2-1,18.5-.8,35,0,49.1h1.9c19.1,57.3,39.8,116.1,62.4,176.4,20.9,55.6,42.2,109.3,63.8,161,6.5,3.2,46,21.9,91.9,4.7,44.7-16.8,62.3-55.1,65.3-62h0Z"/>
</svg>