<?xml version="1.0" encoding="UTF-8"?><svg id="_Слой_1" xmlns="http://www.w3.org/2000/svg" viewBox="0 0 2200 5500"><defs><style>.cls-1{fill:#e4c1d6;}</style></defs><path class="cls-1" d="M316.97,2019.49c-38.95,96.25-64.93,305.88-66.74,320.42-8.98,72.09-25.74,177.16-59.91,306.13,6.72,4.96,24.27,16.5,49.58,17.89,28.73,1.58,49.4-10.92,56.1-15.37,1.06-6.07,2.69-14.81,5.05-25.24,10.49-46.32,24.9-79.99,31.5-95.14,25.46-58.45,38.2-87.68,60.73-128.4,28.57-51.64,68.83-132.83,119-261.42,24.49-68.83,24.75-142.39,39.5-213.28,1.16-3.86,2.34-7.72,3.55-11.57-16.68,4.41-52.55,11.47-95.49.17-35.96-9.47-60.65-27.53-73.43-38.41-8.2,14.59-19.21,34.85-31.37,59.46,0,0-20.74,41.99-38.06,84.78Z"/><path class="cls-1" d="M2009.59,2599.59c0-.82-.07-1.75-.21-2.77-.16-1.11-.4-2.1-.65-2.94-23.84-95.11-38.05-174.04-46.71-229.52-6.58-42.17-32.99-195.77-52.14-289.49-10.96-53.64-34.16-102.27-46.85-126.59-1.8-3.46-3.63-6.71-8.67-16.13-20.89-39-36.88-70.52-47.35-91.53-4.24,10.22-17.49,38.29-48.73,56-50.08,28.39-102.29,5.17-107.88,2.57,11.15,45.02,16.62,81.85,19.55,107.31,3.12,27.07,2.93,37.38,6.93,61.68,5.57,33.8,13.99,62.65,23.96,90.8,22.09,62.37,51.75,121.16,85.76,186.65,0,0,57.22,108.69,91.04,183.09,0,0,19.11,42.05,21.4,64.21.69,6.66,1.86,12.41,4.2,23.91.27,1.3.9,4.34,2.3,8.14.8,2.18,1.59,3.91,2.13,5.02,4.7,2.39,29.41,14.32,59.01,4.63,27.16-8.89,39.99-29.95,42.92-35.07Z"/></svg>