<?xml version="1.0" encoding="UTF-8"?>
<svg id="_Слой_1" xmlns="http://www.w3.org/2000/svg" version="1.1" viewBox="0 0 2200 5500">
  <!-- Generator: Adobe Illustrator 29.1.0, SVG Export Plug-In . SVG Version: 2.1.0 Build 142)  -->
  <defs>
    <style>
      .st0 {
        fill: #d4deeb;
      }

      .st1, .st2 {
        isolation: isolate;
      }

      .st1, .st2, .st3 {
        fill: #d3ddeb;
      }

      .st1, .st4 {
        opacity: .5;
      }

      .st2 {
        opacity: .8;
      }

      .st5 {
        opacity: .7;
      }

      .st6 {
        opacity: .3;
      }

      .st7 {
        opacity: .2;
      }
    </style>
  </defs>
  <path class="st3" d="M1265.2,890.7c-38.5-48.4-30.3-108.8-32.6-166.2-.3-7.2-.7-14.3-1.4-21.3l-5-2.4c-82.1,99.7-170.1,137.6-293.5,208.5-16.5,8.8-42.8,24-72.3,39.2,54.2,53.6,141,88.3,238.8,88.3s189.2-36.6,243.1-92.7c-25.1-13.7-50.8-31-77.1-53.5h0Z"/>
  <path class="st2" d="M1099.7,1036.1c-97.6,0-184.2-34.6-238.4-88-50.4,26-110.6,52.1-149.3,46.5l-1-.2c-3.5,1.8-7.5,3.7-11.9,5.4-7,2.7-13.4,4.3-19,5.4,0,6.8.6,119.9-2.3,173.4-.4,8.2-1.1,19.9-2.8,35.3-2.3,20.7-3.6,21.6-8,52.3-1.7,11.7-5.2,37.8-7.1,53.8-.3,2.6-1.1,9.6-2.6,18.9-1.2,7.4-1.6,9.1-1.9,11.4-1.2,9.2,1.5,14.3,7.9,33.7,3.3,10.1,6.9,20.9,9.9,34.3.5,2,2,8.7,3.5,17.9,4.1,25.4,4.2,44.9,5.2,62.4.7,13.1,2.3,32.1,6.3,55.4h.8c3,19.9,7.2,39.8,13.3,59.2,2.8,11.2,5.7,22.5,8.7,33.7,121.9,7.8,251.3,12.4,387.5,12.5,140.2.1,273.4-4.5,398.6-12.5,3.6-13.7,7.5-27.5,10.6-41.7,2.7-12.5,3.1-26.3,9.1-38.2.9-4.7,2.3-12.2,3.8-21.3,8-49.4,4.2-59.1,10.8-100.7,5.3-33.5,8-50.2,12.4-62.2.9-2.6,4.3-11.3,5.2-23.2.1-1.7.6-7.7-.2-15.8-1-10.4-2.9-13.7-5-25.9-.9-5.3-1.1-7.9-2.1-17.4-.9-8.2.2,2.6-4.7-39.4-2.8-24.1-4.2-36.1-5.5-48.1-4.2-38.3-6.4-58.6-8.2-86.1-.5-7.3-1.2-19.2-1.8-34.4-.9-25.1-.9-54.4.9-87.3-26.7-5.5-56.5-13.2-88.3-23.9-34.7-11.7-65.3-24.8-91.6-37.7-53.9,55.8-142.4,92.2-242.6,92.2h0Z"/>
  <path class="st3" d="M1447.7,1832.8h0c15.5-62.1,33.5-123.6,49.7-185.6-123,8.3-254.2,13.2-392.6,13.2-138.8,0-270.2-4.9-393.5-13.2,8.8,30.6,17.3,61.5,26.3,92.6,8.9,30.9,17.7,61.8,25.3,92.9h0c12.8,52.1,22.5,104.7,24.6,158.7-6.8,87.5-66.1,158.7-91.7,241-3.6,9.6-7.1,19.3-10.5,29,97.5,40.3,250.7,88.4,430.8,83,160.3-4.8,306.4-50.8,360.9-68.4,19-6.1,34.7-11.6,45.6-15.5-30.5-110.1-121-204.1-97.4-324.6,6.3-34.7,14-69,22.5-103.2h0Z"/>
  <g class="st4">
    <path class="st3" d="M1079.2,5178.6c3.9-25.6,7.4-51.7,1-78.2-6.5-20.7-11.9-41.6-15.9-62.7-10.9,6.4-38.7,20.6-76.1,18.3-28.1-1.7-49-12-59.7-18.3,5,32.6,3.1,58,.8,75.8-3.2,25.3-4.8,50.3,1.2,74.9.6,2.5,1.5,5,2.5,7.4l-2.1.9c-31.7,25.5-37.4,78.1-82.2,86.7-10.1,1.8-19.8,7.4-19.7,20.8.1,12.8-.8,24.9,17.9,26.8,6.7.7,11.2,10.8,19.5,14.3,18.4,7.7,38.2,8.1,57.2,12.7l3.8-.2c44.6,50.5,171.7,44.8,162-38.9-4.7-46.8-18.6-92.6-10.1-140.2h0Z"/>
    <path class="st3" d="M1359.9,5283.6c-44.3-9.1-52.4-59.2-81.3-87l-4.2-.5c1.9-3.3,3.7-6.8,4.5-10.8,5.9-28.1,2.1-55.5-2-83.1-.3-21.6.2-43.1,1.6-64.5-9.8,6-34.7,19.5-69.1,19.1-32.4-.4-55.8-13-65.7-19.1-3.6,26.6-31.4,71.5-17.4,124.5,15.7,59.4-10,115.6-7.3,174.5,7.2,66.8,119.2,66.6,160.6,21.1h5.5c16.3-3.2,32.5-7,48.9-9.5,11.5-1.7,16.7-13.5,26.2-16,26.8-5.2,25.1-46.9-.2-48.8h0Z"/>
  </g>
  <g class="st7">
    <path class="st3" d="M1069.5,2841.3c-1.2,1.1-2.5,2.2-3.8,3.3-25.3,22-63.8,39-63.8,39-24.2,8.8-60.6,18.9-105.8,20-39.6.9-72.5-5.3-95.6-11.7-14.1-2.9-119.7-26.3-209.8-105.3,3,159.6,37.8,316.6,78.5,473.3,16.6,63.9,65.1,204.8,102.1,407.4,5.3,28.8,9.2,52.7,11.8,68.6,33.8,12.3,88.8,27.7,157.7,26.3,60-1.2,108.3-14.7,140.1-26.3-.9-16.3-2.2-41.6-3.8-72.8-3.2-62.1-4.2-84.8-4.7-94-2.7-54.1-4.5-108.1-2.7-161.9-1.3-187.6,52.5-382.2,0-566.1h0Z"/>
    <path class="st3" d="M1416.2,2888.7c-154.6,31.2-268-40.9-272.5-44.9-1-.9-2.1-1.9-3.1-2.8-11.6,15.3-11.3,34.3-13.7,51.7-22.6,144.7,3.9,290,10.9,434.8,0,0,3,102.8-6.4,340.4,0,1.2-.6,15.3-.8,21.5-.3,6.9-1.6,39.8-1.8,46.6,36.4,11.5,90.9,24.1,157.8,22.8,57.7-1.1,105.4-12.2,139-22.8,1.5-11.1,3.6-24.8,6.3-40.4,0,0,2-11.4,4.2-22.8,37.7-196.6,105.1-412.6,105.1-412.6,31.5-101.1,66.4-253.8,78.1-475.9-45.1,40.3-113,86.2-203,104.3h0Z"/>
  </g>
  <path class="st3" d="M1080.8,3736c-31.8,11.6-80.1,25.1-140.1,26.3-68.9,1.4-123.9-13.9-157.7-26.3,18,77.3,19.4,139.6,20.1,180.7,2.4,127.9-39.4,254.7-26.1,382.8,6.8,254.1,137.1,491.2,152.1,743.3,13.8,5.8,38.2,14,69.5,13.7,29.7-.3,52.8-8,66.4-13.7-4.2-18.4-5.4-33.5-6.5-44-1.5-14.8-2.2-29.7-2.2-44.6-.6-10.1-6.6-19-5.1-29.3,11.1-75.1,3.9-151,9.2-226.5,4.5-82.1,13.8-164,19.3-246,10.9-127.5-22.8-253-31.7-379.5l1.6-3.2c32.9-109.7,35.5-221.5,31.1-333.8h0Z"/>
  <path class="st3" d="M1406.8,3946c.4-70.8,7.5-140.6,18.7-209.9-34.5,10.9-85.1,22.7-146.9,22.9-63.3.2-115-11.9-149.9-22.9-3.2,48-2.7,104.8,2.4,168.4,4.4,55.7,13.3,110.9,29.4,165.4l1.6,3.2c-9.8,109.5-36.4,216.9-35.7,327.4,14.2,165.7,21.8,332.6,29.5,498.4,5,26-6,50.8-4.2,76.7,2.6,22.7-1.5,45.1-7.2,67.4,13.1,5.8,36.8,14.3,67.7,14.2,30.5,0,54.1-8.5,67.1-14.2,1.8-22.1,5.4-58.5,12.4-102.9,28.1-178.4,74.9-252.4,111.9-429.6,14.5-69.3,23-110.1,26.1-170.2,7.5-144.6-23.8-241.6-22.8-394.2h0Z"/>
  <g class="st7">
    <path class="st3" d="M486.4,1425c-4.3,88.2-45.6,169.5-55.6,257.3-8.6,50-14.8,100.6-27.7,149.8-4.1,10.2-8.6,20.7-13.7,31.4-1.8,3.7-3.5,7.3-5.3,10.8,12.9,11,37.8,29.3,74,39,42.8,11.5,78.6,5,95.5.8,21.9-57.2,43.4-114.5,64.5-171.9,21-57.2,41.7-114.6,62-172.2,1.2-3.4,3.2-9.3,4.7-16.7,4.5-21.6,1.8-37.5-3.4-77.8-4.2-32.7-3-26.8-4.3-35.1-6.2-38.8-21.1-52.2-21.1-84.5,0-5.8.4-9.3,2.3-23.1,7.2-53.9,10.8-80.9,13.8-98.4,5.2-30.3,10-91.9,8-229-17,1.2-43.3,5.3-69.5,20.7-135.3,79.3-117.4,262.9-124.1,398.9h0Z"/>
    <path class="st3" d="M1807.6,1841.9h-3.3l3.3-2.4c-27.1-92.7-30.3-190.4-59.8-282.7-23.9-65-31.3-133-28.8-201.8-7.8-290.6-84.1-323-196.7-349.4-3.2,70.8.4,126.4,4.6,165.3,10.8,99.4,16.2,149.1,19.2,159.2.8,2.6,3.6,11.5,2.7,23.3-.8,12-5,20.1-7.6,26.2-4.5,10.8-4.2,15.3-8.1,48.9-5.9,51.8-9.2,52.6-11,84.2-1,18.5-.8,35,0,49.1h1.9c19.1,57.3,39.8,116.1,62.4,176.4,20.9,55.6,42.2,109.3,63.8,161,6.5,3.2,46,21.9,91.9,4.7,44.7-16.8,62.3-55.1,65.3-62h0Z"/>
  </g>
  <g class="st5">
    <path class="st3" d="M317,2019.5c-39,96.2-64.9,305.9-66.7,320.4-9,72.1-25.7,177.2-59.9,306.1,6.7,5,24.3,16.5,49.6,17.9,28.7,1.6,49.4-10.9,56.1-15.4,1.1-6.1,2.7-14.8,5-25.2,10.5-46.3,24.9-80,31.5-95.1,25.5-58.4,38.2-87.7,60.7-128.4,28.6-51.6,68.8-132.8,119-261.4,24.5-68.8,24.8-142.4,39.5-213.3,1.2-3.9,2.3-7.7,3.5-11.6-16.7,4.4-52.5,11.5-95.5.2-36-9.5-60.6-27.5-73.4-38.4-8.2,14.6-19.2,34.8-31.4,59.5,0,0-20.7,42-38.1,84.8h0Z"/>
    <path class="st3" d="M2009.6,2599.6c0-.8,0-1.8-.2-2.8-.2-1.1-.4-2.1-.7-2.9-23.8-95.1-38.1-174-46.7-229.5-6.6-42.2-33-195.8-52.1-289.5-11-53.6-34.2-102.3-46.8-126.6-1.8-3.5-3.6-6.7-8.7-16.1-20.9-39-36.9-70.5-47.3-91.5-4.2,10.2-17.5,38.3-48.7,56-50.1,28.4-102.3,5.2-107.9,2.6,11.2,45,16.6,81.8,19.6,107.3,3.1,27.1,2.9,37.4,6.9,61.7,5.6,33.8,14,62.6,24,90.8,22.1,62.4,51.8,121.2,85.8,186.6,0,0,57.2,108.7,91,183.1,0,0,19.1,42.1,21.4,64.2.7,6.7,1.9,12.4,4.2,23.9.3,1.3.9,4.3,2.3,8.1.8,2.2,1.6,3.9,2.1,5,4.7,2.4,29.4,14.3,59,4.6,27.2-8.9,40-29.9,42.9-35.1h0Z"/>
  </g>
  <g class="st6">
    <path class="st3" d="M301.7,2695.4c-1.7-5-3.4-10.9-4.5-17.6-2-11.4-1.9-21.4-1.2-29.2-7.2,4.6-25.2,14.9-50.3,15.1-28.6.2-48.6-12.8-55.4-17.6-1.5,6.8-3.6,15.9-6.2,26.4-1.3,5.2-2.9,11.7-5.3,21-1.6,6.1-7,27-12.9,47.9-9.7,34.2-20.1,65.7-25.8,82.8-10.4,22.6-20.2,46.9-9.7,71.7,10.5,26.3,16.6,53.7,21.1,81.5,3.4,21.1,17.2,36.5,29.8,51.8,13.9,16.9,26.3,34.3,35.4,54.1,2.5,5.4,7,8.2,10.9,10.9,18.7-4.1,10.1-22,16.9-32.2l.8-3.1c10.6,7.7,22.5,15.9,36,24.9,21.1-21-.7-39.5-15.7-54.4-6.3-6.2-12.2-12.8-18.3-19.2l2.1-2c14.8-2.3,25.4,7.4,37.1,13.7,24.5-16.3-14.8-38.5-27-48.2-47.7-32.4-44.2-67.2-34.5-118.6.3-3,.7-6,1.3-8.9l3.6.7c5.2-1.1,9.9-2.9,14.4-5.2l1.9.3c9.3,11.2,3.4,23.7,3.5,35.8.1,21.9-4.8,45.1,12.8,63.5,35.1,32.9,37.2-44,33.8-65.1-9.7-62.4,38.3-120.6,5.7-181h0Z"/>
    <path class="st3" d="M2075.1,2843.8c-12.5-29.9-22.7-60.5-31-91.6-5.7-21.4-10.8-46.4-10.8-46.4-1.6-9.3-3.4-18.7-5.4-28.3-5.6-27.1-12.2-52.6-19.2-76.6-3.5,5.7-15.5,23.7-39.5,32.5-27.9,10.2-51.9.7-57.3-1.6,0,10.9-.2,24.6-1.2,37.6-.2,2.8-.5,6.2-1.3,10.7-1.9,11-5,18.7-5.7,20.1-28.2,59.5,17.1,114.4,7.6,174.6-4.2,20.1.2,97.7,33.7,68.3,24.8-27.5,6.9-67.9,14.7-101l.9-1.5c5.7,3.5,11.7,6.4,18.6,8l3.2-.5c.6,3.5,1,6.9,1.4,10.3,2.6,21.6,8.7,42.1,3.1,65.4-5,45.7-90.4,66.1-69.5,95.7,5,4.7,8.6,0,13.1-2.9,9.3-2.7,17.6-5.6,25.1-8.8l.8,2c10.3,11.9-65.2,44.1-28.8,73.8,11.8-8.3,22.5-15.8,32.3-22.9l4.7,1.2c5.4,4.6-4.3,24,11.6,30.5,11.2,4,13.8-6.9,17.8-14.2,11.4-21.1,25.3-40.3,40.4-58.9,8.1-10,17.5-19.6,20.2-33.9,5.9-30.2,11.1-60.7,22.2-89.7,6.6-17.1,5.1-34.9-1.4-52h0Z"/>
  </g>
  <path class="st3" d="M1103.5,2609.6c-27.4,0-49.8,22.4-49.8,49.8s0,73.9,0,110.9c8.5,18,16.7,35.9,24.7,53.9l1,1.5c14.3-12.7,34-12.6,49.3-.9l1.9-.6c7.3-17.4,14.9-34.9,22.8-52.2v-112.6c0-27.4-22.4-49.8-49.8-49.8h0Z"/>
  <path class="st1" d="M1613.5,2673.6c-14.9-139.9-47-279.4-91.3-413l-2.4.8c-.2.1-.3.3-.5.4.2-.1.3-.3.5-.4l2.4-.8c0,0,0-.2,0-.2,0,0,0-.1,0-.2-34.5,12.4-82.8,28.3-141.5,43-70.8,17.6-162.4,39.9-284.1,40.7-99.4.7-179.1-13.1-226.7-23.6-74.7-16.3-137-38.7-184.9-59.2,0,0,0,.2,0,.2s0,.2,0,.2l4.4,1.5c2.5,2.1,5,4.2,7.5,6.4-2.5-2.1-5-4.3-7.5-6.4l-4.4-1.5c-29.9,85.9-50.6,174.3-67.7,263.7-21,87.8-28.7,174.6-27.1,260.6,90.1,79,195.8,102.4,209.8,105.3,23.2,6.3,56,12.6,95.6,11.7,45.2-1.1,81.6-11.2,105.8-20,0,0,38.5-17,63.9-39,1.3-1.1,2.6-2.3,3.8-3.3,0-.2-.1-.5-.2-.7l-3.5-1.7c4.1-3.5,8.1-7.1,12-10.9.7-.7,1.5-1.4,2.2-2.1l-1-1.5c-8-18-16.2-36-24.7-54q0-47.7,0-.1c0,71.5,0,0,0,0,0-36.9,0-73.9,0-110.9,0-27.4,22.4-49.8,49.8-49.8s49.3,22,49.8,49v113.6c.1-.3.3-.6.4-.9-8,17.6-15.8,35.3-23.2,53.1l-1.9.6c1.7,1.3,3.4,2.8,5,4.4,3.1,3,6.2,5.9,9.4,8.8l-2.8,2.5c-.1.2-.2.3-.4.5,1,.9,2,1.9,3.1,2.8,4.4,3.9,117.9,76,272.5,44.9,90-18.1,158-64,203-104.3.2-36.4-1.3-73-5-109.9h0ZM1179.5,2715.8c1.2-2.5,2.4-4.9,3.7-7.4v-3.5,3.5c0-.1,0-.2.2-.3-1.3,2.6-2.6,5.1-3.8,7.7h0Z"/>
  <g>
    <ellipse class="st0" cx="693.1" cy="1327" rx="134.3" ry="143.5"/>
    <ellipse class="st0" cx="1530.8" cy="1322.8" rx="134.3" ry="143.5"/>
  </g>
</svg>