<?xml version="1.0" encoding="UTF-8"?><svg id="_Слой_1" xmlns="http://www.w3.org/2000/svg" viewBox="0 0 2200 5500"><defs><style>.cls-1{fill:none;stroke:#000;stroke-linecap:round;stroke-linejoin:round;stroke-width:10px;}</style></defs><path class="cls-1" d="M1199.23,2212.46c-26.01,24.3-46.57,52.59-61.9,84.7"/><path class="cls-1" d="M1007.02,2218.98c20.04,23.45,40.15,46.83,53.95,74.83,1.17,2.38,1.1,4.39,1.43,6.61"/><path class="cls-1" d="M646.44,1336.51c33.83,68.67,30.84,145.24,42.11,219.17,3.05,20.04,7.15,39.89,13.32,59.34,30.7,125.26,79.79,247.84,84.92,377.9-6.85,87.49-66.07,158.68-91.69,240.99-3.69,9.8-7.25,19.64-10.68,29.51-29.91,85.85-50.61,174.33-67.69,263.68-113.64,475.41,163.06,918.61,185.53,1386.27,2.37,127.88-39.36,254.69-26.09,382.82,7.53,279.38,164.23,538.31,152.97,819.09-3.2,25.33-4.85,50.33,1.18,74.91.62,2.51,1.47,4.96,2.46,7.38,4.25,10.34,10.95,20.07,11.74,31.82"/><path class="cls-1" d="M1521.12,1561.29c-10.85,13.28-10.66,30.51-13.94,45.76-26.97,110.43-62.51,218.31-82.78,330.37-23.64,120.6,66.99,214.64,97.47,324.82.03.09.06.17.08.26,44.31,133.58,76.4,273.03,91.29,412.96,42.87,436.48-204.65,835.69-207.33,1267.15,7.08,131.24,36.54,262.28,22.83,394.24-21.72,260.22-156.3,504.26-151.99,767.13,4.1,27.6,7.98,55.07,2.03,83.14-2.45,11.56-12.3,18.95-13.85,30.81-.5,3.77-.3,7.71-1.16,11.46"/><path class="cls-1" d="M1236.08,725.7c9.52-.34,12.7-8.29,16.11-14.75,11.25-21.37,24.92-43.63,26.55-66.78.29-4.2.84-8.29,1.58-12.3,4.41-24.2,15.73-45.51,21.21-68.98,6.32-27.06,14.62-53.7,24.1-79.9,4.29-11.85,8.38-23.37,16.76-33.53.27-.33.54-.65.82-.98,26.28-54.06,14.95-122.09-4.47-177.24-38.81-123.16-164.55-156.53-279.81-150.87-301.97,63.08-230.41,441.92-274.11,667.21-10.24,73.86-40.91,140.71-73.51,206.78-.19.58-.44,1.1-.74,1.58-2.14,3.32-7,4.4-11.93,5.41-29.83,6.07-60.72,9.38-87.94,24.21-135.3,79.3-117.38,262.92-124.13,398.9-4.26,88.22-45.56,169.47-55.6,257.28-8.62,50.03-14.81,100.64-27.73,149.79-25.87,63.43-63.83,122.69-87.41,187.47-71.37,264.65-86.87,544.16-175.96,804.62-10.38,22.62-20.19,46.88-9.71,71.65,10.48,26.28,16.64,53.67,21.05,81.47,3.34,21.15,17.15,36.47,29.75,51.82,13.86,16.88,26.28,34.32,35.39,54.08,2.49,5.41,6.99,8.26,10.89,10.95,18.67-4.12,10.09-21.99,16.89-32.16"/><path class="cls-1" d="M1524.38,1561.29c36.97,151.81,130.05,287.83,144.42,444.73-.64,214.21,291.25,558.87,234.55,693.55-28.2,59.47,17.11,114.41,7.6,174.63-4.18,20.06.18,97.71,33.67,68.33,24.79-27.46,6.87-67.92,14.65-100.99"/><path class="cls-1" d="M1047.13,4069.67c8.9,126.5,42.6,252.02,31.71,379.47-5.49,81.96-14.75,163.83-19.27,245.96-5.25,75.43,1.9,151.31-9.16,226.45-1.5,10.24,4.48,19.2,5.1,29.3-.12,51.71,9.13,102.1,24.59,151.4,6.45,26.45,2.87,52.57-1.01,78.18-8.44,47.62,5.48,93.36,10.13,140.19,9.65,83.68-117.44,89.32-162.03,38.86-4.27-4.84-7.8-10.21-10.36-16.07"/><path class="cls-1" d="M1231.19,704.53c.71,7.03,1.14,14.14,1.41,21.3,2.21,57.36-5.91,117.85,32.56,166.21,241.7,206.33,441.15-17.28,454.02,462.36-2.46,68.84,4.93,136.82,28.83,201.86,29.5,92.36,32.66,190.02,59.78,282.74"/><path class="cls-1" d="M1807.79,1841.44s0,.01.01.01c37.99,75.36,79.26,150.48,100.94,232.92,39.23,192.02,61.55,387.71,114.76,576.8,9.57,65.76,25.59,130.48,51.38,192.01,6.52,17.1,8.02,34.92,1.45,52.03-11.15,29.06-16.39,59.49-22.24,89.73-2.77,14.3-12.13,23.83-20.24,33.86-15.07,18.64-28.97,37.86-40.38,58.91-3.96,7.31-6.54,18.28-17.76,14.26-15.89-6.51-6.1-25.91-11.55-30.54"/><path class="cls-1" d="M1139.98,2841.54c-11.99,15.38-11.66,34.65-14.1,52.2-22.58,144.71,3.94,289.96,10.89,434.81,19.68,245.61-47.79,499.02,22.75,737.86"/><path class="cls-1" d="M1068.31,2841.54c52.96,184.08-.96,379.01.31,566.85-7.4,219.26,44.65,442.76-19.86,658.02"/><path class="cls-1" d="M683.91,1556.4c-34.2,126.47-95.73,243.03-133.28,368.18-14.75,70.89-15,144.44-39.49,213.27-33.14,141.25-252.84,446.78-209.66,556.91,32.61,60.44-15.36,118.66-5.68,181.04,3.47,21.12,1.32,97.97-33.75,65.09-17.62-18.43-12.66-41.64-12.81-63.52-.09-12.14,5.79-24.63-3.49-35.83"/><path class="cls-1" d="M1105.77,1160.6c-13.11,301.57,8.1,604.07-3.26,905.62"/><path class="cls-1" d="M1161.15,4069.67c-9.85,109.5-36.37,216.86-35.66,327.38,14.16,165.73,21.79,332.63,29.55,498.35,5.02,26.05-6.02,50.77-4.17,76.67,7.37,65.15-39.8,127.84-24.66,191.97,15.67,59.39-9.97,115.59-7.27,174.47,7.15,66.79,119.18,66.57,160.55,21.1,5.24-5.77,9.35-12.27,11.97-19.46"/><path class="cls-1" d="M1519.49,2263.31c-173.21,148.94-301.54,352.51-389.29,561.94"/><path class="cls-1" d="M688.8,2264.94c174.69,146.41,297.66,353.75,389.28,560.31"/><path class="cls-1" d="M1276.8,631.23c-16.78,26.86-33.56,50.21-50.59,70.89-82.08,99.66-170.12,137.57-293.5,208.47-44.58,23.63-159.87,94.37-221.11,85.49"/><path class="cls-1" d="M1142.75,2839.02c73.86,65.57,181.45,80.68,272.5,44.87"/><path class="cls-1" d="M799.55,2887.15c89.22,32.38,193.09,14.09,265.26-47.35,4.11-3.51,8.11-7.15,12.01-10.93.72-.74,1.46-1.44,2.21-2.1,14.32-12.66,34-12.55,49.31-.93,1.73,1.33,3.41,2.79,5.02,4.4,3.06,3.02,6.19,5.95,9.38,8.78"/><path class="cls-1" d="M1565.1,1329.99c-37.62,67.49-34.9,145.41-43.97,219.89-.34,3.49.2,6.69,3.25,8.96"/><path class="cls-1" d="M1939.73,2665.63c-24.79,58.18,8.05,110.42,35.31,159.92,3.71,6.48,5.69,14.19,6.99,21.99.58,3.46,1.02,6.93,1.43,10.32,2.59,21.58,8.66,42.05,3.08,65.41-5.04,45.69-90.4,66.14-69.49,95.67,5,4.7,8.63-.04,13.06-2.88,89.11-25.65,90.84-74.44,113.86-151.72"/><path class="cls-1" d="M268.56,2668.88c22.55,52.1-5,100.78-30.45,145.27-5.74,9.53-10.04,20.23-12.26,31.54-.58,2.92-1.02,5.89-1.31,8.88-9.7,51.31-13.2,86.15,34.52,118.56,12.21,9.72,51.5,31.98,26.99,48.25-11.63-6.26-22.25-15.98-37.04-13.7"/><path class="cls-1" d="M143.14,2867.6c20.07,109.73,27.85,137.07,101.83,190.76,10.57,7.67,22.49,15.88,35.99,24.94,21.14-21.02-.69-39.54-15.71-54.4-6.26-6.23-12.18-12.83-18.32-19.19-7.75-8.02-15.88-15.65-25.58-21.62-44.08-26.77-43.4-79.83-57.04-123.75"/><path class="cls-1" d="M2063.52,2867.6c5.57,11.45-4.04,20.45-5.49,30.86-14.26,91.5-38.84,118.6-98.57,161.81-9.77,7.07-20.49,14.57-32.26,22.86-36.42-29.77,39.14-61.91,28.82-73.82"/><path class="cls-1" d="M1278.43,5198.44c28.95,27.78,37.06,77.9,81.34,86.98,25.35,1.81,27.02,43.5.23,48.74-9.51,2.47-14.63,14.26-26.16,15.97-16.41,2.44-32.6,6.31-48.89,9.57"/><path class="cls-1" d="M930.67,5198.44c-31.71,25.47-37.43,78.12-82.18,86.74-10.1,1.82-19.8,7.39-19.66,20.77.13,12.83-.76,24.85,17.88,26.79,6.7.7,11.22,10.81,19.48,14.27,18.44,7.72,38.2,8.13,57.15,12.69"/><path class="cls-1" d="M1345.21,450.43c11.49,12.16,5.9,26.11,3.01,39.04-6.15,24.71-19.36,106.26-53.5,101.04"/><path class="cls-1" d="M1929.96,2818.74c10.59,6.26,19.81,14.81,30.27,21.29,5.68,3.52,11.74,6.43,18.59,8.02"/><path class="cls-1" d="M275.07,2818.74c-10.39,7.51-19.84,16.58-31.2,22.49-4.45,2.31-9.19,4.14-14.4,5.2"/><path class="cls-1" d="M403.75,1841.44c6.21,9.11-2.9,17.26-1.63,26.06"/><path class="cls-1" d="M1804.54,1841.44h0c-4.79,9.03.02,17.44,1.62,26.06"/></svg>