<?xml version="1.0" encoding="UTF-8"?>
<svg id="_Слой_1" xmlns="http://www.w3.org/2000/svg" version="1.1" viewBox="0 0 2200 5500">
  <!-- Generator: Adobe Illustrator 29.1.0, SVG Export Plug-In . SVG Version: 2.1.0 Build 142)  -->
  <defs>
    <style>
      .st0 {
        fill: #e4c1d6;
        stroke: #e4c1d6;
        stroke-miterlimit: 10;
        stroke-width: 2px;
      }
    </style>
  </defs>
  <path class="st0" d="M1447.7,1832.8h0c15.5-62.1,33.5-123.6,49.7-185.6-123,8.3-254.2,13.2-392.6,13.2-138.8,0-270.2-4.9-393.5-13.2,8.8,30.6,17.3,61.5,26.3,92.6,8.9,30.9,17.7,61.8,25.3,92.9h0c12.8,52.1,22.5,104.7,24.6,158.7-6.8,87.5-66.1,158.7-91.7,241-3.6,9.6-7.1,19.3-10.5,29,97.5,40.3,250.7,88.4,430.8,83,160.3-4.8,306.4-50.8,360.9-68.4,19-6.1,34.7-11.6,45.6-15.5-30.5-110.1-121-204.1-97.4-324.6,6.3-34.7,14-69,22.5-103.2h0Z"/>
</svg>