<?xml version="1.0" encoding="UTF-8"?><svg id="_Слой_1" xmlns="http://www.w3.org/2000/svg" viewBox="0 0 2200 5500"><defs><style>.cls-1,.cls-2,.cls-3{fill:#d3ddeb;}.cls-1,.cls-4{opacity:.5;}.cls-2{opacity:.75;}.cls-5{opacity:.74;}.cls-6{opacity:.26;}.cls-7{opacity:.25;}</style></defs><path class="cls-3" d="M1265.19,890.68c-38.46-48.37-30.35-108.85-32.56-166.22-.27-7.16-.7-14.27-1.41-21.3l-4.98-2.41c-82.07,99.67-170.12,137.58-293.5,208.48-16.52,8.76-42.75,23.98-72.34,39.22,54.17,53.6,140.96,88.34,238.8,88.34s189.24-36.61,243.05-92.66c-25.07-13.72-50.81-31.05-77.06-53.45Z"/><path class="cls-2" d="M1099.74,1036.14c-97.62,0-184.23-34.59-238.43-87.98-50.37,25.98-110.59,52.13-149.27,46.52l-1.03-.15c-3.51,1.85-7.48,3.71-11.92,5.41-6.98,2.68-13.44,4.35-19.02,5.41.04,6.82.58,119.86-2.29,173.44-.44,8.23-1.08,19.86-2.8,35.31-2.31,20.73-3.58,21.64-7.97,52.33-1.67,11.71-5.23,37.79-7.11,53.83-.3,2.6-1.1,9.56-2.58,18.95-1.17,7.41-1.62,9.07-1.94,11.41-1.25,9.19,1.53,14.34,7.94,33.73,3.35,10.13,6.87,20.88,9.93,34.32.46,2.03,1.95,8.65,3.45,17.87,4.13,25.42,4.2,44.9,5.17,62.45.72,13.09,2.32,32.07,6.33,55.4l.79-.12c3.05,20.05,7.15,39.9,13.32,59.35,2.76,11.25,5.68,22.47,8.69,33.69,121.93,7.79,251.33,12.41,387.48,12.53,140.25.13,273.37-4.54,398.58-12.53,3.58-13.67,7.51-27.47,10.57-41.67,2.69-12.48,3.05-26.31,9.06-38.2.92-4.73,2.31-12.16,3.79-21.28,8.04-49.4,4.23-59.1,10.83-100.71,5.31-33.48,7.96-50.22,12.37-62.24.94-2.57,4.27-11.28,5.22-23.2.13-1.66.56-7.72-.19-15.85-.97-10.42-2.9-13.72-5.03-25.9-.93-5.32-1.11-7.86-2.13-17.4-.87-8.17.21,2.6-4.67-39.41-2.8-24.09-4.2-36.14-5.52-48.11-4.23-38.33-6.44-58.57-8.22-86.08-.47-7.29-1.23-19.21-1.75-34.4-.86-25.06-.91-54.41.87-87.33-26.74-5.51-56.5-13.16-88.33-23.88-34.71-11.69-65.3-24.82-91.57-37.73-53.86,55.8-142.44,92.22-242.61,92.22Z"/><path class="cls-3" d="M1447.73,1832.78h.02c15.48-62.11,33.46-123.56,49.68-185.55-123,8.26-254.15,13.18-392.61,13.19-138.78.01-270.21-4.91-393.45-13.19,8.85,30.55,17.31,61.51,26.3,92.63,8.92,30.87,17.67,61.79,25.32,92.91h-.01c12.8,52.09,22.49,104.73,24.61,158.67-6.84,87.48-66.07,158.68-91.69,240.99-3.63,9.64-7.13,19.31-10.51,29.01,97.53,40.29,250.72,88.38,430.75,83.03,160.3-4.76,306.36-50.84,360.92-68.41,19-6.12,34.68-11.6,45.55-15.5-30.53-110.11-121.03-204.11-97.42-324.64,6.28-34.72,14.03-69.03,22.53-103.15Z"/><g class="cls-4"><path class="cls-3" d="M1079.19,5178.58c3.87-25.62,7.45-51.73,1.01-78.19-6.49-20.71-11.88-41.62-15.94-62.73-10.88,6.35-38.73,20.61-76.14,18.32-28.12-1.72-48.99-12.01-59.73-18.32,5.01,32.58,3.09,57.95.84,75.77-3.19,25.32-4.85,50.32,1.18,74.9.62,2.51,1.47,4.96,2.46,7.38l-2.1.88c-31.72,25.46-37.44,78.11-82.19,86.74-10.09,1.82-19.8,7.38-19.66,20.76.14,12.83-.76,24.86,17.89,26.8,6.69.69,11.21,10.81,19.47,14.27,18.44,7.72,38.2,8.12,57.16,12.68l3.84-.22c44.57,50.47,171.68,44.83,162.03-38.85-4.65-46.84-18.57-92.58-10.12-140.19Z"/><path class="cls-3" d="M1359.86,5283.56c-44.27-9.08-52.38-59.2-81.34-86.97l-4.15-.53c1.95-3.34,3.67-6.83,4.51-10.8,5.95-28.07,2.06-55.54-2.04-83.14-.35-21.61.25-43.09,1.63-64.46-9.84,6.05-34.71,19.54-69.05,19.09-32.39-.42-55.82-13.01-65.7-19.09-3.56,26.56-31.4,71.54-17.42,124.52,15.67,59.4-9.97,115.59-7.27,174.48,7.16,66.79,119.19,66.56,160.55,21.09l5.46.09c16.28-3.26,32.48-7.13,48.89-9.56,11.53-1.71,16.66-13.51,26.17-15.97,26.78-5.25,25.11-46.94-.24-48.75Z"/></g><g class="cls-7"><path class="cls-3" d="M1069.49,2841.28c-1.21,1.09-2.49,2.22-3.78,3.34-25.33,22.04-63.85,39.04-63.85,39.04-24.16,8.79-60.6,18.89-105.77,19.98-39.59.95-72.47-5.34-95.63-11.67-14.08-2.89-119.74-26.3-209.82-105.29,2.95,159.56,37.77,316.57,78.51,473.3,16.61,63.91,65.11,204.76,102.11,407.4,5.26,28.82,9.2,52.67,11.76,68.64,33.83,12.34,88.83,27.66,157.69,26.27,59.95-1.22,108.26-14.66,140.06-26.27-.87-16.27-2.22-41.62-3.84-72.76-3.21-62.08-4.19-84.77-4.65-93.96-2.74-54.11-4.5-108.14-2.69-161.92-1.27-187.59,52.5-382.24-.1-566.12Z"/><path class="cls-3" d="M1416.15,2888.71c-154.59,31.17-268.05-40.92-272.5-44.87-1.03-.92-2.05-1.86-3.07-2.8-11.59,15.3-11.3,34.34-13.72,51.69-22.58,144.72,3.94,289.97,10.89,434.82,0,0,2.99,102.77-6.4,340.35-.05,1.17-.6,15.32-.85,21.54-.27,6.89-1.56,39.8-1.83,46.6,36.36,11.49,90.94,24.12,157.81,22.84,57.74-1.1,105.37-12.2,139.03-22.84,1.54-11.11,3.6-24.78,6.29-40.39,0,0,1.97-11.41,4.15-22.78,37.73-196.57,105.07-412.61,105.07-412.61,31.51-101.07,66.44-253.77,78.14-475.87-45.07,40.33-113.01,86.17-203.03,104.32Z"/></g><path class="cls-3" d="M1080.77,3736.03c-31.8,11.61-80.12,25.05-140.06,26.27-68.86,1.4-123.86-13.93-157.69-26.27,17.97,77.28,19.38,139.58,20.14,180.7,2.38,127.88-39.36,254.7-26.09,382.83,6.85,254.07,137.07,491.25,152.13,743.32,13.81,5.8,38.18,13.95,69.45,13.68,29.66-.26,52.85-7.99,66.42-13.68-4.21-18.36-5.41-33.51-6.46-44.02-1.47-14.78-2.23-29.66-2.19-44.65-.62-10.09-6.61-19.05-5.1-29.3,11.05-75.14,3.9-151.01,9.16-226.45,4.51-82.12,13.77-164,19.26-245.96,10.89-127.45-22.81-252.96-31.7-379.47l1.63-3.25c32.86-109.67,35.47-221.47,31.1-333.75Z"/><path class="cls-3" d="M1406.81,3945.99c.44-70.75,7.46-140.63,18.71-209.95-34.47,10.87-85.06,22.67-146.94,22.85-63.33.19-115.02-11.85-149.91-22.85-3.22,47.97-2.67,104.75,2.36,168.35,4.4,55.71,13.31,110.94,29.4,165.4l1.62,3.25c-9.85,109.5-36.37,216.87-35.65,327.39,14.16,165.72,21.78,332.62,29.54,498.35,5.03,26.04-6.02,50.76-4.17,76.67,2.57,22.72-1.5,45.15-7.24,67.44,13.06,5.78,36.85,14.3,67.67,14.24,30.5-.05,54.06-8.48,67.08-14.24,1.84-22.13,5.38-58.46,12.37-102.87,28.09-178.38,74.87-252.4,111.88-429.56,14.48-69.3,23-110.11,26.1-170.23,7.46-144.57-23.78-241.58-22.83-394.23Z"/><g class="cls-7"><path class="cls-3" d="M486.4,1424.96c-4.27,88.22-45.57,169.47-55.61,257.28-8.61,50.04-14.81,100.64-27.73,149.8-4.07,10.21-8.62,20.71-13.72,31.44-1.75,3.68-3.51,7.29-5.29,10.83,12.92,11.04,37.76,29.3,73.96,39.04,42.75,11.5,78.57,4.99,95.53.75,21.9-57.16,43.41-114.47,64.54-171.93,21.05-57.25,41.72-114.64,62-172.17,1.22-3.41,3.15-9.26,4.69-16.69,4.48-21.55,1.8-37.46-3.36-77.8-4.18-32.73-3-26.81-4.32-35.06-6.19-38.77-21.11-52.16-21.13-84.53,0-5.77.42-9.26,2.27-23.14,7.19-53.93,10.78-80.9,13.81-98.45,5.23-30.32,9.97-91.95,8.05-229-17.02,1.19-43.29,5.33-69.55,20.72-135.3,79.29-117.38,262.91-124.12,398.89Z"/><path class="cls-3" d="M1807.62,1841.95h-3.26l3.26-2.45c-27.13-92.72-30.29-190.38-59.79-282.74-23.9-65.04-31.28-133.01-28.83-201.85-7.8-290.58-84.08-323.05-196.74-349.38-3.25,70.83.38,126.41,4.61,165.34,10.8,99.38,16.21,149.06,19.21,159.18.76,2.55,3.58,11.54,2.74,23.33-.85,11.96-4.99,20.07-7.55,26.2-4.5,10.79-4.25,15.33-8.06,48.93-5.88,51.78-9.25,52.57-10.96,84.21-1,18.48-.76,35,0,49.07h1.94c19.05,57.26,39.8,116.14,62.45,176.42,20.9,55.64,42.22,109.32,63.75,160.99,6.52,3.23,45.97,21.95,91.93,4.71,44.74-16.78,62.3-55.11,65.3-61.96Z"/></g><g class="cls-5"><path class="cls-3" d="M316.97,2019.49c-38.95,96.25-64.93,305.88-66.74,320.42-8.98,72.09-25.74,177.16-59.91,306.13,6.72,4.96,24.27,16.5,49.58,17.89,28.73,1.58,49.4-10.92,56.1-15.37,1.06-6.07,2.69-14.81,5.05-25.24,10.49-46.32,24.9-79.99,31.5-95.14,25.46-58.45,38.2-87.68,60.73-128.4,28.57-51.64,68.83-132.83,119-261.42,24.49-68.83,24.75-142.39,39.5-213.28,1.16-3.86,2.34-7.72,3.55-11.57-16.68,4.41-52.55,11.47-95.49.17-35.96-9.47-60.65-27.53-73.43-38.41-8.2,14.59-19.21,34.85-31.37,59.46,0,0-20.74,41.99-38.06,84.78Z"/><path class="cls-3" d="M2009.59,2599.59c0-.82-.07-1.75-.21-2.77-.16-1.11-.4-2.1-.65-2.94-23.84-95.11-38.05-174.04-46.71-229.52-6.58-42.17-32.99-195.77-52.14-289.49-10.96-53.64-34.16-102.27-46.85-126.59-1.8-3.46-3.63-6.71-8.67-16.13-20.89-39-36.88-70.52-47.35-91.53-4.24,10.22-17.49,38.29-48.73,56-50.08,28.39-102.29,5.17-107.88,2.57,11.15,45.02,16.62,81.85,19.55,107.31,3.12,27.07,2.93,37.38,6.93,61.68,5.57,33.8,13.99,62.65,23.96,90.8,22.09,62.37,51.75,121.16,85.76,186.65,0,0,57.22,108.69,91.04,183.09,0,0,19.11,42.05,21.4,64.21.69,6.66,1.86,12.41,4.2,23.91.27,1.3.9,4.34,2.3,8.14.8,2.18,1.59,3.91,2.13,5.02,4.7,2.39,29.41,14.32,59.01,4.63,27.16-8.89,39.99-29.95,42.92-35.07Z"/></g><g class="cls-6"><path class="cls-3" d="M301.71,2695.4c-1.73-5.04-3.36-10.94-4.51-17.61-1.96-11.4-1.88-21.42-1.2-29.23-7.2,4.65-25.22,14.92-50.32,15.1-28.55.2-48.59-12.78-55.36-17.61-1.52,6.83-3.58,15.86-6.16,26.45-1.28,5.24-2.88,11.69-5.29,21.01-1.59,6.13-6.98,26.98-12.94,47.94-9.72,34.2-20.08,65.73-25.83,82.82-10.38,22.63-20.19,46.88-9.71,71.66,10.49,26.28,16.65,53.66,21.05,81.47,3.35,21.14,17.16,36.47,29.75,51.81,13.86,16.89,26.28,34.32,35.39,54.09,2.5,5.41,7,8.25,10.89,10.95,18.67-4.13,10.09-21.99,16.89-32.17l.84-3.07c10.57,7.67,22.49,15.88,35.99,24.94,21.14-21.02-.69-39.54-15.71-54.39-6.26-6.23-12.18-12.84-18.32-19.2l2.08-2.03c14.8-2.28,25.41,7.45,37.05,13.7,24.5-16.27-14.79-38.52-27-48.24-47.71-32.41-44.22-67.25-34.52-118.57.29-2.99.73-5.96,1.31-8.88l3.62.74c5.21-1.06,9.95-2.88,14.4-5.2l1.89.31c9.28,11.2,3.4,23.69,3.48,35.84.15,21.87-4.81,45.08,12.81,63.52,35.07,32.88,37.22-43.98,33.75-65.1-9.68-62.38,38.29-120.6,5.68-181.04Z"/><path class="cls-3" d="M2075.12,2843.83c-12.52-29.86-22.74-60.48-31.03-91.6-5.71-21.43-10.83-46.42-10.83-46.42-1.64-9.29-3.45-18.73-5.44-28.32-5.63-27.09-12.17-52.65-19.25-76.61-3.47,5.68-15.49,23.72-39.52,32.54-27.87,10.23-51.95.73-57.34-1.55.02,10.93-.21,24.59-1.16,37.63-.2,2.79-.5,6.23-1.26,10.66-1.89,10.99-5.04,18.67-5.7,20.06-28.2,59.46,17.11,114.41,7.6,174.63-4.18,20.06.18,97.7,33.67,68.33,24.8-27.46,6.87-67.92,14.66-101l.95-1.51c5.68,3.53,11.74,6.44,18.59,8.03l3.22-.52c.58,3.46,1.02,6.93,1.42,10.32,2.59,21.59,8.66,42.05,3.08,65.41-5.04,45.69-90.4,66.15-69.48,95.67,4.99,4.71,8.62-.04,13.05-2.87,9.26-2.67,17.57-5.58,25.06-8.75l.85,1.99c10.32,11.92-65.23,44.05-28.82,73.82,11.77-8.29,22.48-15.79,32.26-22.86l4.7,1.16c5.45,4.63-4.34,24.03,11.55,30.54,11.22,4.02,13.8-6.95,17.76-14.25,11.41-21.06,25.31-40.27,40.38-58.92,8.11-10.02,17.48-19.55,20.24-33.85,5.85-30.24,11.1-60.68,22.25-89.74,6.56-17.1,5.06-34.92-1.45-52.02Z"/></g><path class="cls-3" d="M1103.47,2609.6c-27.38,0-49.79,22.41-49.79,49.79,0,36.95-.01,73.9-.02,110.85,8.47,17.96,16.7,35.95,24.67,53.94l.96,1.53c14.31-12.66,33.98-12.55,49.3-.94l1.87-.59c7.31-17.45,14.92-34.85,22.79-52.18v-112.61c0-27.38-22.41-49.79-49.79-49.79Z"/><path class="cls-1" d="M1613.49,2673.63c-14.89-139.92-46.98-279.39-91.29-412.96l-2.45.81c-.17.15-.34.29-.5.44.17-.15.33-.29.5-.44l2.45-.81c-.02-.08-.05-.17-.08-.25-.02-.06-.04-.13-.05-.19-34.5,12.42-82.78,28.33-141.52,42.96-70.77,17.63-162.37,39.86-284.09,40.7-99.37.69-179.06-13.15-226.7-23.56-74.71-16.32-137.01-38.7-184.9-59.23-.03.08-.06.16-.09.24-.03.08-.06.16-.09.24l4.38,1.52c2.52,2.11,5.02,4.24,7.52,6.37-2.5-2.14-5-4.26-7.52-6.37l-4.38-1.52c-29.9,85.86-50.6,174.34-67.69,263.69-21,87.84-28.66,174.58-27.07,260.58,90.09,78.98,195.75,102.4,209.82,105.29,23.16,6.32,56.05,12.62,95.63,11.67,45.16-1.09,81.61-11.19,105.77-19.98,0,0,38.52-17,63.85-39.04,1.29-1.12,2.57-2.26,3.78-3.34-.07-.25-.14-.5-.21-.74l-3.5-1.74c4.11-3.5,8.12-7.14,12.02-10.92.72-.74,1.46-1.44,2.21-2.1l-.96-1.53c-7.98-18-16.22-36.01-24.69-53.98q0-71.62.02-.13s0,.02.01.03c0-36.95.01-73.9.02-110.85,0-27.38,22.41-49.79,49.79-49.79s49.33,21.96,49.77,48.97v113.56c.13-.3.27-.59.41-.89-8.02,17.63-15.76,35.33-23.19,53.07l-1.87.59c1.74,1.32,3.42,2.79,5.03,4.4,3.06,3.02,6.19,5.95,9.38,8.78l-2.77,2.52c-.13.17-.25.34-.38.51,1.02.94,2.04,1.88,3.07,2.8,4.45,3.95,117.91,76.04,272.5,44.87,90.02-18.15,157.96-63.99,203.03-104.32.2-36.41-1.34-73.04-4.96-109.93ZM1179.52,2715.84c1.22-2.47,2.43-4.95,3.66-7.42v-3.49,3.5c.05-.1.1-.2.16-.3-1.29,2.57-2.55,5.14-3.82,7.72Z"/></svg>