<?xml version="1.0" encoding="UTF-8"?><svg id="_Слой_1" xmlns="http://www.w3.org/2000/svg" viewBox="0 0 2200 5500"><defs><style>.cls-1{fill:#e4c1d6;}</style></defs><path class="cls-1" d="M1613.49,2673.63c-14.89-139.92-46.98-279.39-91.29-412.96l-2.45.81c-.17.15-.34.29-.5.44.17-.15.33-.29.5-.44l2.45-.81c-.02-.08-.05-.17-.08-.25-.02-.06-.04-.13-.05-.19-34.5,12.42-82.78,28.33-141.52,42.96-70.77,17.63-162.37,39.86-284.09,40.7-99.37.69-179.06-13.15-226.7-23.56-74.71-16.32-137.01-38.7-184.9-59.23-.03.08-.06.16-.09.24-.03.08-.06.16-.09.24l4.38,1.52c2.52,2.11,5.02,4.24,7.52,6.37-2.5-2.14-5-4.26-7.52-6.37l-4.38-1.52c-29.9,85.86-50.6,174.34-67.69,263.69-21,87.84-28.66,174.58-27.07,260.58,90.09,78.98,195.75,102.4,209.82,105.29,23.16,6.32,56.05,12.62,95.63,11.67,45.16-1.09,81.61-11.19,105.77-19.98,0,0,38.52-17,63.85-39.04,1.29-1.12,2.57-2.26,3.78-3.34-.07-.25-.14-.5-.21-.74l-3.5-1.74c4.11-3.5,8.12-7.14,12.02-10.92.72-.74,1.46-1.44,2.21-2.1l-.96-1.53c-7.98-18-16.22-36.01-24.69-53.98q0-71.62.02-.13s0,.02.01.03c0-36.95.01-73.9.02-110.85,0-27.38,22.41-49.79,49.79-49.79s49.33,21.96,49.77,48.97v113.56c.13-.3.27-.59.41-.89-8.02,17.63-15.76,35.33-23.19,53.07l-1.87.59c1.74,1.32,3.42,2.79,5.03,4.4,3.06,3.02,6.19,5.95,9.38,8.78l-2.77,2.52c-.13.17-.25.34-.38.51,1.02.94,2.04,1.88,3.07,2.8,4.45,3.95,117.91,76.04,272.5,44.87,90.02-18.15,157.96-63.99,203.03-104.32.2-36.41-1.34-73.04-4.96-109.93ZM1179.52,2715.84c1.22-2.47,2.43-4.95,3.66-7.42v-3.49,3.5c.05-.1.1-.2.16-.3-1.29,2.57-2.55,5.14-3.82,7.72Z"/></svg>