<?xml version="1.0" encoding="UTF-8"?>
<svg id="_Слой_1" xmlns="http://www.w3.org/2000/svg" version="1.1" viewBox="0 0 2200 5500">
  <!-- Generator: Adobe Illustrator 29.1.0, SVG Export Plug-In . SVG Version: 2.1.0 Build 142)  -->
  <defs>
    <style>
      .st0 {
        fill: #e4c1d6;
        stroke: #e4c1d6;
        stroke-miterlimit: 10;
        stroke-width: 2px;
      }
    </style>
  </defs>
  <path class="st0" d="M1069.5,2841.3c-1.2,1.1-2.5,2.2-3.8,3.3-25.3,22-63.8,39-63.8,39-24.2,8.8-60.6,18.9-105.8,20-39.6.9-72.5-5.3-95.6-11.7-14.1-2.9-119.7-26.3-209.8-105.3,3,159.6,37.8,316.6,78.5,473.3,16.6,63.9,65.1,204.8,102.1,407.4,5.3,28.8,9.2,52.7,11.8,68.6,33.8,12.3,88.8,27.7,157.7,26.3,60-1.2,108.3-14.7,140.1-26.3-.9-16.3-2.2-41.6-3.8-72.8-3.2-62.1-4.2-84.8-4.7-94-2.7-54.1-4.5-108.1-2.7-161.9-1.3-187.6,52.5-382.2,0-566.1h0Z"/>
  <path class="st0" d="M1416.2,2888.7c-154.6,31.2-268-40.9-272.5-44.9-1-.9-2.1-1.9-3.1-2.8-11.6,15.3-11.3,34.3-13.7,51.7-22.6,144.7,3.9,290,10.9,434.8,0,0,3,102.8-6.4,340.4,0,1.2-.6,15.3-.8,21.5-.3,6.9-1.6,39.8-1.8,46.6,36.4,11.5,90.9,24.1,157.8,22.8,57.7-1.1,105.4-12.2,139-22.8,1.5-11.1,3.6-24.8,6.3-40.4,0,0,2-11.4,4.2-22.8,37.7-196.6,105.1-412.6,105.1-412.6,31.5-101.1,66.4-253.8,78.1-475.9-45.1,40.3-113,86.2-203,104.3h0Z"/>
</svg>