<?xml version="1.0" encoding="UTF-8"?><svg id="_Слой_1" xmlns="http://www.w3.org/2000/svg" viewBox="0 0 2200 5500"><defs><style>.cls-1{fill:#e4c1d6;}</style></defs><path class="cls-1" d="M1079.19,5178.58c3.87-25.62,7.45-51.73,1.01-78.19-6.49-20.71-11.88-41.62-15.94-62.73-10.88,6.35-38.73,20.61-76.14,18.32-28.12-1.72-48.99-12.01-59.73-18.32,5.01,32.58,3.09,57.95.84,75.77-3.19,25.32-4.85,50.32,1.18,74.9.62,2.51,1.47,4.96,2.46,7.38l-2.1.88c-31.72,25.46-37.44,78.11-82.19,86.74-10.09,1.82-19.8,7.38-19.66,20.76.14,12.83-.76,24.86,17.89,26.8,6.69.69,11.21,10.81,19.47,14.27,18.44,7.72,38.2,8.12,57.16,12.68l3.84-.22c44.57,50.47,171.68,44.83,162.03-38.85-4.65-46.84-18.57-92.58-10.12-140.19Z"/><path class="cls-1" d="M1359.86,5283.56c-44.27-9.08-52.38-59.2-81.34-86.97l-4.15-.53c1.95-3.34,3.67-6.83,4.51-10.8,5.95-28.07,2.06-55.54-2.04-83.14-.35-21.61.25-43.09,1.63-64.46-9.84,6.05-34.71,19.54-69.05,19.09-32.39-.42-55.82-13.01-65.7-19.09-3.56,26.56-31.4,71.54-17.42,124.52,15.67,59.4-9.97,115.59-7.27,174.48,7.16,66.79,119.19,66.56,160.55,21.09l5.46.09c16.28-3.26,32.48-7.13,48.89-9.56,11.53-1.71,16.66-13.51,26.17-15.97,26.78-5.25,25.11-46.94-.24-48.75Z"/></svg>