<?xml version="1.0" encoding="UTF-8"?><svg id="_Слой_1" xmlns="http://www.w3.org/2000/svg" viewBox="0 0 2200 5500"><defs><style>.cls-1{fill:#e4c1d6;}</style></defs><path class="cls-1" d="M1099.74,1036.14c-97.62,0-184.23-34.59-238.43-87.98-50.37,25.98-110.59,52.13-149.27,46.52l-1.03-.15c-3.51,1.85-7.48,3.71-11.92,5.41-6.98,2.68-13.44,4.35-19.02,5.41.04,6.82.58,119.86-2.29,173.44-.44,8.23-1.08,19.86-2.8,35.31-2.31,20.73-3.58,21.64-7.97,52.33-1.67,11.71-5.23,37.79-7.11,53.83-.3,2.6-1.1,9.56-2.58,18.95-1.17,7.41-1.62,9.07-1.94,11.41-1.25,9.19,1.53,14.34,7.94,33.73,3.35,10.13,6.87,20.88,9.93,34.32.46,2.03,1.95,8.65,3.45,17.87,4.13,25.42,4.2,44.9,5.17,62.45.72,13.09,2.32,32.07,6.33,55.4l.79-.12c3.05,20.05,7.15,39.9,13.32,59.35,2.76,11.25,5.68,22.47,8.69,33.69,121.93,7.79,251.33,12.41,387.48,12.53,140.25.13,273.37-4.54,398.58-12.53,3.58-13.67,7.51-27.47,10.57-41.67,2.69-12.48,3.05-26.31,9.06-38.2.92-4.73,2.31-12.16,3.79-21.28,8.04-49.4,4.23-59.1,10.83-100.71,5.31-33.48,7.96-50.22,12.37-62.24.94-2.57,4.27-11.28,5.22-23.2.13-1.66.56-7.72-.19-15.85-.97-10.42-2.9-13.72-5.03-25.9-.93-5.32-1.11-7.86-2.13-17.4-.87-8.17.21,2.6-4.67-39.41-2.8-24.09-4.2-36.14-5.52-48.11-4.23-38.33-6.44-58.57-8.22-86.08-.47-7.29-1.23-19.21-1.75-34.4-.86-25.06-.91-54.41.87-87.33-26.74-5.51-56.5-13.16-88.33-23.88-34.71-11.69-65.3-24.82-91.57-37.73-53.86,55.8-142.44,92.22-242.61,92.22Z"/></svg>