<?xml version="1.0" encoding="UTF-8"?><svg id="_Слой_1" xmlns="http://www.w3.org/2000/svg" viewBox="0 0 2200 5500"><defs><style>.cls-1{fill:#e4c1d6;}</style></defs><path class="cls-1" d="M301.71,2695.4c-1.73-5.04-3.36-10.94-4.51-17.61-1.96-11.4-1.88-21.42-1.2-29.23-7.2,4.65-25.22,14.92-50.32,15.1-28.55.2-48.59-12.78-55.36-17.61-1.52,6.83-3.58,15.86-6.16,26.45-1.28,5.24-2.88,11.69-5.29,21.01-1.59,6.13-6.98,26.98-12.94,47.94-9.72,34.2-20.08,65.73-25.83,82.82-10.38,22.63-20.19,46.88-9.71,71.66,10.49,26.28,16.65,53.66,21.05,81.47,3.35,21.14,17.16,36.47,29.75,51.81,13.86,16.89,26.28,34.32,35.39,54.09,2.5,5.41,7,8.25,10.89,10.95,18.67-4.13,10.09-21.99,16.89-32.17l.84-3.07c10.57,7.67,22.49,15.88,35.99,24.94,21.14-21.02-.69-39.54-15.71-54.39-6.26-6.23-12.18-12.84-18.32-19.2l2.08-2.03c14.8-2.28,25.41,7.45,37.05,13.7,24.5-16.27-14.79-38.52-27-48.24-47.71-32.41-44.22-67.25-34.52-118.57.29-2.99.73-5.96,1.31-8.88l3.62.74c5.21-1.06,9.95-2.88,14.4-5.2l1.89.31c9.28,11.2,3.4,23.69,3.48,35.84.15,21.87-4.81,45.08,12.81,63.52,35.07,32.88,37.22-43.98,33.75-65.1-9.68-62.38,38.29-120.6,5.68-181.04Z"/><path class="cls-1" d="M2075.12,2843.83c-12.52-29.86-22.74-60.48-31.03-91.6-5.71-21.43-10.83-46.42-10.83-46.42-1.64-9.29-3.45-18.73-5.44-28.32-5.63-27.09-12.17-52.65-19.25-76.61-3.47,5.68-15.49,23.72-39.52,32.54-27.87,10.23-51.95.73-57.34-1.55.02,10.93-.21,24.59-1.16,37.63-.2,2.79-.5,6.23-1.26,10.66-1.89,10.99-5.04,18.67-5.7,20.06-28.2,59.46,17.11,114.41,7.6,174.63-4.18,20.06.18,97.7,33.67,68.33,24.8-27.46,6.87-67.92,14.66-101l.95-1.51c5.68,3.53,11.74,6.44,18.59,8.03l3.22-.52c.58,3.46,1.02,6.93,1.42,10.32,2.59,21.59,8.66,42.05,3.08,65.41-5.04,45.69-90.4,66.15-69.48,95.67,4.99,4.71,8.62-.04,13.05-2.87,9.26-2.67,17.57-5.58,25.06-8.75l.85,1.99c10.32,11.92-65.23,44.05-28.82,73.82,11.77-8.29,22.48-15.79,32.26-22.86l4.7,1.16c5.45,4.63-4.34,24.03,11.55,30.54,11.22,4.02,13.8-6.95,17.76-14.25,11.41-21.06,25.31-40.27,40.38-58.92,8.11-10.02,17.48-19.55,20.24-33.85,5.85-30.24,11.1-60.68,22.25-89.74,6.56-17.1,5.06-34.92-1.45-52.02Z"/></svg>