<?xml version="1.0" encoding="UTF-8"?><svg id="_Слой_1" xmlns="http://www.w3.org/2000/svg" viewBox="0 0 2200 5500"><defs><style>.cls-1{fill:#e4c1d6;}</style></defs><path class="cls-1" d="M1447.73,1832.78h.02c15.48-62.11,33.46-123.56,49.68-185.55-123,8.26-254.15,13.18-392.61,13.19-138.78.01-270.21-4.91-393.45-13.19,8.85,30.55,17.31,61.51,26.3,92.63,8.92,30.87,17.67,61.79,25.32,92.91h-.01c12.8,52.09,22.49,104.73,24.61,158.67-6.84,87.48-66.07,158.68-91.69,240.99-3.63,9.64-7.13,19.31-10.51,29.01,97.53,40.29,250.72,88.38,430.75,83.03,160.3-4.76,306.36-50.84,360.92-68.41,19-6.12,34.68-11.6,45.55-15.5-30.53-110.11-121.03-204.11-97.42-324.64,6.28-34.72,14.03-69.03,22.53-103.15Z"/></svg>