<?xml version="1.0" encoding="UTF-8"?><svg id="_Слой_1" xmlns="http://www.w3.org/2000/svg" viewBox="0 0 2200 5500"><defs><style>.cls-1{fill:#e4c1d6;}</style></defs><path class="cls-1" d="M1080.77,3736.03c-31.8,11.61-80.12,25.05-140.06,26.27-68.86,1.4-123.86-13.93-157.69-26.27,17.97,77.28,19.38,139.58,20.14,180.7,2.38,127.88-39.36,254.7-26.09,382.83,6.85,254.07,137.07,491.25,152.13,743.32,13.81,5.8,38.18,13.95,69.45,13.68,29.66-.26,52.85-7.99,66.42-13.68-4.21-18.36-5.41-33.51-6.46-44.02-1.47-14.78-2.23-29.66-2.19-44.65-.62-10.09-6.61-19.05-5.1-29.3,11.05-75.14,3.9-151.01,9.16-226.45,4.51-82.12,13.77-164,19.26-245.96,10.89-127.45-22.81-252.96-31.7-379.47l1.63-3.25c32.86-109.67,35.47-221.47,31.1-333.75Z"/><path class="cls-1" d="M1406.81,3945.99c.44-70.75,7.46-140.63,18.71-209.95-34.47,10.87-85.06,22.67-146.94,22.85-63.33.19-115.02-11.85-149.91-22.85-3.22,47.97-2.67,104.75,2.36,168.35,4.4,55.71,13.31,110.94,29.4,165.4l1.62,3.25c-9.85,109.5-36.37,216.87-35.65,327.39,14.16,165.72,21.78,332.62,29.54,498.35,5.03,26.04-6.02,50.76-4.17,76.67,2.57,22.72-1.5,45.15-7.24,67.44,13.06,5.78,36.85,14.3,67.67,14.24,30.5-.05,54.06-8.48,67.08-14.24,1.84-22.13,5.38-58.46,12.37-102.87,28.09-178.38,74.87-252.4,111.88-429.56,14.48-69.3,23-110.11,26.1-170.23,7.46-144.57-23.78-241.58-22.83-394.23Z"/></svg>