<?xml version="1.0" encoding="UTF-8"?>
<svg id="_Слой_1" xmlns="http://www.w3.org/2000/svg" version="1.1" viewBox="0 0 2200 5500">
  <!-- Generator: Adobe Illustrator 29.1.0, SVG Export Plug-In . SVG Version: 2.1.0 Build 142)  -->
  <defs>
    <style>
      .st0 {
        fill: #e4c1d6;
        stroke: #e4c1d6;
        stroke-miterlimit: 10;
        stroke-width: 2px;
      }
    </style>
  </defs>
  <path class="st0" d="M1613.5,2673.6c-14.9-139.9-47-279.4-91.3-413l-2.4.8c-.2.1-.3.3-.5.4.2-.1.3-.3.5-.4l2.4-.8c0,0,0-.2,0-.2,0,0,0-.1,0-.2-34.5,12.4-82.8,28.3-141.5,43-70.8,17.6-162.4,39.9-284.1,40.7-99.4.7-179.1-13.1-226.7-23.6-74.7-16.3-137-38.7-184.9-59.2,0,0,0,.2,0,.2s0,.2,0,.2l4.4,1.5c2.5,2.1,5,4.2,7.5,6.4-2.5-2.1-5-4.3-7.5-6.4l-4.4-1.5c-29.9,85.9-50.6,174.3-67.7,263.7-21,87.8-28.7,174.6-27.1,260.6,90.1,79,195.8,102.4,209.8,105.3,23.2,6.3,56,12.6,95.6,11.7,45.2-1.1,81.6-11.2,105.8-20,0,0,38.5-17,63.9-39,1.3-1.1,2.6-2.3,3.8-3.3,0-.2-.1-.5-.2-.7l-3.5-1.7c4.1-3.5,8.1-7.1,12-10.9.7-.7,1.5-1.4,2.2-2.1l-1-1.5c-8-18-16.2-36-24.7-54q0-47.7,0-.1c0,71.5,0,0,0,0,0-36.9,0-73.9,0-110.9,0-27.4,22.4-49.8,49.8-49.8s49.3,22,49.8,49v113.6c.1-.3.3-.6.4-.9-8,17.6-15.8,35.3-23.2,53.1l-1.9.6c1.7,1.3,3.4,2.8,5,4.4,3.1,3,6.2,5.9,9.4,8.8l-2.8,2.5c-.1.2-.2.3-.4.5,1,.9,2,1.9,3.1,2.8,4.4,3.9,117.9,76,272.5,44.9,90-18.1,158-64,203-104.3.2-36.4-1.3-73-5-109.9h0ZM1179.5,2715.8c1.2-2.5,2.4-4.9,3.7-7.4v-3.5,3.5c0-.1,0-.2.2-.3-1.3,2.6-2.6,5.1-3.8,7.7h0Z"/>
</svg>