<?xml version="1.0" encoding="UTF-8"?><svg id="_Слой_1" xmlns="http://www.w3.org/2000/svg" viewBox="0 0 2200 5500"><defs><style>.cls-1{fill:#e4c1d6;}</style></defs><path class="cls-1" d="M486.4,1424.96c-4.27,88.22-45.57,169.47-55.61,257.28-8.61,50.04-14.81,100.64-27.73,149.8-4.07,10.21-8.62,20.71-13.72,31.44-1.75,3.68-3.51,7.29-5.29,10.83,12.92,11.04,37.76,29.3,73.96,39.04,42.75,11.5,78.57,4.99,95.53.75,21.9-57.16,43.41-114.47,64.54-171.93,21.05-57.25,41.72-114.64,62-172.17,1.22-3.41,3.15-9.26,4.69-16.69,4.48-21.55,1.8-37.46-3.36-77.8-4.18-32.73-3-26.81-4.32-35.06-6.19-38.77-21.11-52.16-21.13-84.53,0-5.77.42-9.26,2.27-23.14,7.19-53.93,10.78-80.9,13.81-98.45,5.23-30.32,9.97-91.95,8.05-229-17.02,1.19-43.29,5.33-69.55,20.72-135.3,79.29-117.38,262.91-124.12,398.89Z"/><path class="cls-1" d="M1807.62,1841.95h-3.26l3.26-2.45c-27.13-92.72-30.29-190.38-59.79-282.74-23.9-65.04-31.28-133.01-28.83-201.85-7.8-290.58-84.08-323.05-196.74-349.38-3.25,70.83.38,126.41,4.61,165.34,10.8,99.38,16.21,149.06,19.21,159.18.76,2.55,3.58,11.54,2.74,23.33-.85,11.96-4.99,20.07-7.55,26.2-4.5,10.79-4.25,15.33-8.06,48.93-5.88,51.78-9.25,52.57-10.96,84.21-1,18.48-.76,35,0,49.07h1.94c19.05,57.26,39.8,116.14,62.45,176.42,20.9,55.64,42.22,109.32,63.75,160.99,6.52,3.23,45.97,21.95,91.93,4.71,44.74-16.78,62.3-55.11,65.3-61.96Z"/></svg>