<?xml version="1.0" encoding="UTF-8"?><svg id="_Слой_1" xmlns="http://www.w3.org/2000/svg" viewBox="0 0 2300 5500"><defs><style>.cls-1{fill:#9baa97;stroke:#9baa97;stroke-miterlimit:10;stroke-width:4px;}</style></defs><path class="cls-1" d="M1685.92,2729.75c-3.75-20.92-6.95-31.4-13.43-57.28-9.81-39.22-16.56-66.21-22.05-99.37-6.85-41.4-4.72-50.07-13.5-87.85-3.42-14.7-5.23-19.8-10.92-42.66-7.52-30.22-12.76-55.07-16.06-71.67-48.02,31.6-117.72,70.36-207.67,98.67-105.49,33.2-194.42,38.06-243.31,38.33-122.7.66-213.59-26.45-237.6-33.96-86.32-27.02-152.1-64.9-195.77-94.49-7.86,20.57-18.33,50.9-27.23,88.51-15.39,64.99-10.42,85.51-26.78,160.13-10.09,46.02-14.06,47.69-23.25,93.4-9.06,45.07-13.05,82.47-15,106.93,67.91,63.11,130.81,101.75,175.07,125.02,50.47,26.54,77.76,33.65,95.44,37.12,7.83,1.54,77.78,14.47,150.21-11.02,39.18-13.79,61.87-32.76,66.53-36.74,8.55-7.3,15-14.16,19.36-19.16-.07-.11-.14-.23-.21-.34-7.98-17.99-16.21-35.98-24.67-53.94,0-36.95.01-73.9.02-110.85,0-27.38,22.41-49.79,49.79-49.79s49.79,22.41,49.79,49.79v112.61c-7.88,17.33-15.48,34.74-22.79,52.18l-1.87.59c-.12-.09-.25-.18-.38-.27,36.69,32.85,72.37,48.76,95.06,56.73,80.39,28.26,169.44,17.3,221.64-16.74,5.45-3.56,13.22-9.14,17.55-12.25,8.78-6.31,40.88-29.64,82.86-68.57,24.08-22.33,54.04-52.24,86.53-90.21-.79-14.47-2.61-36.43-7.35-62.86Z"/></svg>