<?xml version="1.0" encoding="UTF-8"?><svg id="_Слой_1" xmlns="http://www.w3.org/2000/svg" viewBox="0 0 2300 5500"><defs><style>.cls-1{fill:none;stroke:#000;stroke-linecap:round;stroke-linejoin:round;stroke-width:10px;}</style></defs><path class="cls-1" d="M1695.03,1624.12c-8.92,18.99-9.57,40.26-16.1,59.78-14.44,43.12-28.65,86.44-45.94,128.44-20.32,49.36-30.73,101.68-48.88,151.59,6.74,21.57-3.09,42.26-3.22,63.39-.09,14.88-4.17,29.06-4.22,44.01-.16,45.96,9.56,90.54,16.04,135.6,2.42,16.84,5.66,34.49,3.14,50.94-7.65,49.92,8.09,96.15,20.44,142.58,15.3,57.51,28.51,115.11,35.14,174.39,4.94,44.17,17.82,87.03,27.93,130.3,7.75,33.17,13.05,66.63,17.84,100.34,6.67,46.93,13.81,93.78,18.93,140.92,3.06,28.16,6.53,56.29,8.7,84.52,4.82,62.69,7.33,125.53,5.18,188.38-2.14,62.42-6.98,124.62-14.8,186.74-5.62,44.66-12.06,89.24-19.12,133.6-6.72,42.19-18.83,83.56-29.34,125.09-12.21,48.28-25.82,96.09-30.15,146.14-4.22,48.84-5.36,97.45.29,146.17.27,2.32.17,4.7.02,7.04-3.66,56.73,10.66,111.01,22.99,165.49,15.13,66.86,29.54,133.68,34.08,202.45,1.36,20.57,4.23,41.31,2.37,61.63-4.05,44.12-7.66,88.32-15.17,132.13-10.85,63.24-19.61,126.83-30.31,190.09-11,65-21.87,129.99-29.94,195.44-4.27,34.61-9.2,69.11-12.72,103.85-2.09,20.62-2.23,41.11-3.07,61.68-1.32,32.46,4.13,63.88,12.21,95.14,3.1,11.98,4.12,24.56,5.35,36.93.65,6.58,2.95,9.84,8.4,14.7,15.11,13.45,27.28,30.14,41.15,45.06,8.49,9.13,16.71,16.13,31.27,19.21,15.93,3.38,32.53,11.95,47.55,20.17,20.37,11.16,16.68,38.48-4.94,48.81-2.6,1.24-5.51,2.96-6.96,5.29-16.33,26.18-43.45,31.18-70.51,37.06-20.03,4.35-36.8,15.67-52.87,27.99-36.97,28.35-79.26,39.38-124.96,34.84-29.06-2.89-57.61-11.43-71.79-40.32-10.17-20.72-9.45-43.88-5.79-66.71,6.17-38.5,17.54-76.34,12.7-116.23-1.85-15.3-8.41-29.01-11.02-43.95-4.75-27.18,1.48-53.25,7.36-79.22,10.85-47.91,7.05-96.18,4.97-144.41-.91-21.16-2.88-42.32-5.27-63.38-3-26.47-6.37-52.92-10.56-79.23-6.57-41.16-15.91-81.97-20.53-123.32-6.37-56.93-23.04-111.15-39.58-165.34-22.73-74.49-28.41-150.32-22.21-227.22,3.56-44.16,9.27-88.21,15.87-132.03,4.77-31.64,7.35-63.69,13.11-94.92,4.34-23.55,11.79-47.16,18.25-70.63"/><path class="cls-1" d="M754.82,1973.62c-4.56,8.16-6.68,15.55-5.22,21.99,6.08,26.69,6.13,53.82,7.32,80.99,1.7,38.81-5.64,76.58-11.51,114.37-3.84,24.7-8.24,49.24-6.13,74.02,3.73,43.83-6.75,85.4-18.15,126.73-12.67,45.94-26.38,91.42-31.72,139.13-7.49,66.87-25.3,131.78-39.87,197.31-7.34,33-10.97,66.82-16.19,100.28-4.76,30.51-10.19,60.94-13.9,91.58-4.39,36.28-7.61,72.72-10.69,109.15-5.25,62.1-6.91,124.38-5.07,186.62,1.59,53.53,5.76,106.93,11.43,160.3,5.01,47.11,11.53,93.97,18.54,140.74,7.42,49.45,20.85,97.73,33.1,146.19,13.79,54.55,28.22,108.92,31.86,165.49,2.84,44.07,1.92,88.05-.56,132.04-.15,2.57-1.48,5.95-1.25,8.82,4.3,53.23-9.62,104.09-21.64,154.85-14.49,61.18-27.03,122.59-34.8,184.97-7.35,58.96-2.91,117.72,5.62,176.02,9.65,65.95,23.37,131.31,32.77,197.3,13.13,92.2,31,183.68,41.13,276.35,5.32,48.65,10.73,97.24,8.21,146.16-1.54,29.81-11.08,58.62-15.07,88.12-2.3,17.01-6.95,29.81-21.16,41-12.15,9.57-19.76,24.67-30.53,36.27-16.97,18.28-41.71,22.24-63.38,31.49-22.41,9.57-28.08,14.52-28.18,32.03-.03,6.2.62,13.48,5.59,15.45,17.44,6.91,24.81,25.13,40.33,33.87,14.32,8.07,30.14,11.98,45.85,15.58,18.27,4.2,34.43,11.78,49.3,23.06,37.41,28.38,78.88,44.86,126.71,40.45,20.43-1.88,41.26-5.02,57.93-17.73,30.36-23.17,29.8-56.3,24.66-89.52-5.89-37.99-15.54-75.58-11.93-114.45.88-9.53,3.81-19.03,6.95-28.15,9.53-27.7,6.73-55.45-.32-82.75-13.55-52.47-12.29-105.22-7.34-158.56,1.73-18.65,1.75-37.58,3.99-56.3,3.59-29.92,5.2-60.23,11.07-89.7,6.65-33.37,12.2-66.9,16.73-100.51,6.85-50.78,16.63-100.92,32.51-149.47,13.08-39.98,25.79-80.22,30.51-121.72,5.5-48.35,5.96-97.08,1.44-146.12-5.83-63.22-18.04-125.49-24.38-188.43-3.61-35.87-16.21-68.92-22.09-103.78"/><path class="cls-1" d="M1756.66,1363.54c-16.89,37.11-37.69,73.06-41.97,114.48-4.68,45.28-16.66,89.7-16.04,135.54.22,15.93,10.09,29.02,14.4,43.9,24.22,83.66,60.6,162.09,103.19,237.97,25.56,45.55,38.63,95.04,41.12,147.72,2.97,62.91,16.22,124.07,38.43,183.12,20.4,54.23,46.5,105.82,74.04,156.65,43.13,79.63,80.44,161.59,107.76,248.17,10.12,32.06,13.01,60.48-7.08,90.24-21.94,32.5-22.28,70.26-14,106.99,6.58,29.17,6.88,57.3,1.62,86.46-3.32,18.42-4.35,37.53-.33,56.26,4.45,20.74,21.43,26.15,36.97,12.39,19.54-17.3,17.61-40.95,19.19-63.45,1.16-16.65-2.34-33.88,7.17-49.29"/><path class="cls-1" d="M1297.11,710.32c16.61,76.14,67.47,122.51,133.66,156.99,58.23,30.33,115.94,61.83,172.41,95.28,32.72,19.38,68.81,25.35,104.22,34.54,53.29,13.83,103.14,33.95,140.65,76.04,40.45,45.39,63.61,99.9,77.44,158.37,12.71,53.74,15.94,108.65,15.86,163.7-.03,18.78-2.2,37.56-3.32,56.34-.42,7.01,2.07,12.95,4.92,19.52,22.3,51.35,43.1,103.39,54.71,158.36,9.84,46.54,17.54,93.51,23.19,140.8,6.29,52.6,22.82,101.83,49.1,147.97,36.44,63.97,63.63,131.95,76.93,204.3,8.64,46.99,14.84,94.62,18.49,142.48,2.91,38.24,8.06,76.31,12.06,114.47,3.07,29.33,5.4,58.75,8.94,88.02,6.28,51.91,14.06,103.62,32.07,153.02,1.56,4.29,3.4,8.25,2.92,12.49-4.87,43.23,8.57,83.86,17.87,124.99,10.51,46.51,21.69,92.88,33.58,139.06,3.69,14.35-.67,26.74-5.84,38.68-11.61,26.79-23.14,54.69-24.96,82.95-2.7,41.8-30.91,64.31-56.18,89.28-15.89,15.7-32.64,30.72-48.94,46.14-14.4,13.62-21.49,12.19-31.62-5.21-16.14-27.73-12.43-36.88,13.75-56.78,21.86-16.62,47.2-26.85,68.32-45.91,23.91-21.57,30.81-47.87,39.3-75.18,2.99-9.64,5.59-19.38,10.73-28.11,11.66-19.77,14.08-40.2,5.24-61.65"/><path class="cls-1" d="M436.13,1391.71c-8.96,6.6-10.08,17.9-15.35,26.71-30.38,50.83-52.02,105.77-70.72,161.76-12.8,38.31-19.55,78.16-26.78,117.87-9,49.37-12.26,99.94-28.22,147.86-15.09,45.32-41.33,85.55-61.27,128.67-22.59,48.87-37.95,99.93-48.12,153.03-16.65,86.96-25.13,175.02-37.88,262.49-7.88,54.06-14.35,108.28-24.73,161.99-5.02,25.98-15.65,50.05-22.57,75.34-4.74,17.33,1.59,32.97-1.6,49.76-4.15,21.92-10.13,43.3-15.02,64.96-9.85,43.6-15.86,88.44-32.22,130.07-13.2,33.59-.7,62.09,9.63,91.73,5.05,14.49,5.56,31.14,12.98,43.58,8.76,14.69,15,31.08,25.72,44.39,30.81,38.25,68.45,68.68,110.76,93.45"/><path class="cls-1" d="M636.85,1618.84c-12.66,17.33-13.88,38.82-20.81,58.22-20.07,56.11-43.79,110.41-69.96,164.02-20,40.97-45.34,79.47-57.76,124.45-9.01,32.64-11.28,65.75-14.97,98.8-10.95,98.23-44.98,188.3-91.47,274.82-37.38,69.58-76.71,138.29-107.51,211.2-15.02,35.55-29.08,71.73-38.39,109.21-3.98,16.01-3.18,34.89,6.86,48.89,25.76,35.94,29.9,75.79,20.03,116.3-8.31,34.11-7.35,67.02-.93,100.51,3.32,17.3-.24,34.07-1.72,51.1-1.06,12.26-21.61,19.64-33.52,10.43-11.3-8.74-18.18-20.54-19.45-35.09-2.4-27.58-4.71-55.17-7.06-82.75"/><path class="cls-1" d="M1143.93,2934.08c7.77,21.36,5.17,43.94,2.54,65.02-3.01,24.11-2.26,48.29-5.45,72.39-5.35,40.38-7.97,81.08-14.13,121.49-4.91,32.23-8.62,64.63-14.44,96.79-8.81,48.71-21.82,96.37-33.66,144.34-9.61,38.93-16.44,78.39-23.29,117.9-7.3,42.12-11.37,84.6-16.72,126.9-4.71,37.26-6.91,75.05-7.2,112.62-.72,92.44-20.18,181.43-46.61,269.24-1.54,5.13-2.81,12.64-9.19,15.99"/><path class="cls-1" d="M1191.47,2934.08c-5.3,13.89-8.21,27.66-2.05,42.38,1.88,4.5.31,10.44.29,15.72-.17,47.23,5.89,93.97,9.99,140.91,3.61,41.28,9.27,82.25,15.17,123.13,5.21,36.15,14.47,71.74,22.45,107.46,12.07,54.05,26.46,107.67,36.26,162.12,6.79,37.7,11.12,76.01,15.27,114.27,6.99,64.46,10.56,129.01,14.45,193.68,4.4,73.14,17.97,145.42,43.25,214.81,3.24,8.88,1.99,19.62,10.42,26.46"/><path class="cls-1" d="M1038.29,708.56c-5.19,30.77-18.36,57.64-36.72,82.94-37.99,52.37-96.45,74.18-149.87,103.78-38.39,21.27-76.74,42.69-114.38,65.25-33.92,20.33-71.68,28.22-109.3,36.67-93.48,21.01-158.64,74.68-195.69,163.74-33.97,81.64-40.45,166.96-37.86,253.64.34,11.4-2.94,24.62,5.56,35.23"/><path class="cls-1" d="M1386.91,465.58c2.93-15.26,4.6-30.91,9.12-45.68,5.67-18.55,7.26-37.68,8.01-56.46,1.96-49.16,2.97-98.21-13.31-146.22-30.76-90.72-107.6-139.71-195.73-147.92-54.19-5.05-105.33,3.63-153.2,30.05-51.04,28.16-81.76,71.83-98.74,126.74-15.41,49.81-14.86,100.52-10.22,151.45,2.72,29.86,10.69,58.88,17.41,88.05"/><path class="cls-1" d="M1172.1,1117.04c-2.82,5.65-1.71,11.71-1.72,17.61-.08,44.02,1.96,88.14-.41,132.03-7.98,147.85-6.66,295.78-6.59,443.72.02,33.45,1.09,66.91,1.68,100.36"/><path class="cls-1" d="M1168.58,1944.57c3.76,69.81,3.16,139.76.96,209.5-1.52,48.15-2.15,96.26-2.63,144.4-.07,7.62,1.08,15.26,1.67,22.89"/><path class="cls-1" d="M576.99,1360.02c31.97,54.38,48.42,113.39,52.87,176.07,1.93,27.09,4.5,54.91,10.26,80.66,9.44,42.26,20.55,84.7,36.87,125.49,27.6,68.97,51.18,139.42,70.71,211.16,1.72,6.31,2.42,12.89,3.59,19.35"/><path class="cls-1" d="M1520.72,2958.73c-56.14,33.44-116.54,47.41-181.32,36.77-68.39-11.24-129.94-36.41-172.77-96.46-44.6,62.63-106.51,86.56-175.88,96.69-65.65,9.59-125.77-5.23-181.36-40.52"/><path class="cls-1" d="M76.95,2881.26c-7.42,20.76-8.16,40.19,4.75,60.21,7.09,10.99,10.02,25.23,12.63,38.44,9.02,45.75,38.81,73.65,77.52,95.35,14.93,8.37,31.67,15.63,42.12,29.84,8.66,11.79,13.08,25.59.31,38.5-.58.59-1.17,1.17-1.76,1.76-5,4.98,3.72,17.34-10.55,17.88-11.96.45-17.37-7.96-24.68-14.33-28.2-24.57-55.15-50.48-80.82-77.64-13.69-14.48-24.38-31.01-21.28-52.68"/><path class="cls-1" d="M930.89,395.15c-22.94-7.4-34.6.71-33.11,26.39,2.33,40.15,8.98,79.47,31.17,114.58,8.14,12.87,17.05,22.57,33.63,21.01"/><path class="cls-1" d="M1372.82,557.14c12.59,1.71,20.89-3.53,28.4-13.92,29.14-40.28,37.23-85.88,34.67-133.96-.92-17.29-11.59-21.21-31.38-14.1"/><path class="cls-1" d="M2175.7,2951.69c-3.6,13.28-8.33,26.33-7.16,40.51.24,2.87,1.45,6.19-1.61,8.83-15.84,13.63-24.09,33.72-42.01,46.14-22.18,15.38-24.73,27.32-16.12,48.9"/><path class="cls-1" d="M207.24,2733.36c6.82,32.07-2.06,62.44-16.72,89.32-13.01,23.85-17.64,51.64-35.74,72.97-2.61,3.07-.32,10.26-.37,15.54-.08,8.37,1.64,17.37-3.65,24.54-8.38,11.36-7.33,22.51-3.95,35.47,2.09,8,5.29,17.46.64,26.94,3.8,5.35,10.48,8.5,14.25,15.04,8.03,13.95,19.28,24.59,32.87,34.09,19.75,13.82,22.7,29.15,14.44,48.8"/><path class="cls-1" d="M2112.32,2733.36c-6.58,32.02,2.17,62.3,16.65,89.37,12.71,23.77,19.23,50.12,33.91,72.94,3.91,6.08,1.8,16.1,2.23,24.33.6,11.46,3.49,21.91,12.54,30.1,5.18-2.96,10.42-5.97,15.66-8.97"/><path class="cls-1" d="M2230.28,3034.44c-29.02,43.89-68.03,77.02-112.87,103.56-4.04,2.39-5.75,8.99-12.13,7.36"/><path class="cls-1" d="M1369.3,539.53c.86,42.87-2.78,84.3-27.78,121.75-12.13,18.16-8.83,40.76-6.93,61.32,1.9,20.54.56,41.52,6.31,61.74.53,1.86-2.12,4.63-3.29,6.98"/><path class="cls-1" d="M999.55,599.39c.59,15.26,2.53,30.61,1.5,45.76-2.98,43.99,3.22,88.3-4.88,132.1-.87,4.73-1.32,10.24,3.37,14.06"/><path class="cls-1" d="M1320,2395.31c-42.85,15.06-75.91,42.7-102.21,79.17-1.64,2.27-4.6,3.59-6.95,5.35"/><path class="cls-1" d="M1017.16,2395.31c42.41,16.44,74.72,45.63,102.12,80.99"/><path class="cls-1" d="M966.1,543.05c-1.48,38.04,5.61,74.41,21.1,109.17,1.98,4.43,4.52,8.02,9.71,8.79"/><path class="cls-1" d="M1404.52,426.85c.37,32.52-8.94,62.65-23.11,91.45-1.27,2.57-1.19,4.74-1.54,7.15"/><path class="cls-1" d="M932.65,430.37c-2.77,32.78,10.21,61.93,21.13,91.56"/><path class="cls-1" d="M1355.22,511.36c-21.08,28.21-46.4,53.24-63.39,84.51"/><path class="cls-1" d="M981.95,511.36c2.6,12.72,13.46,19.26,21.15,28.15,15.02,17.35,31.04,33.98,38.71,56.36"/><path class="cls-1" d="M1161.54,602.92c-29.52-13.81-57.26-6.32-84.51,7.04"/><path class="cls-1" d="M1260.14,609.96c-21.91-9.59-44.13-17.07-68.69-12.47-4.72.88-9.71.12-12.3,5.42"/><path class="cls-1" d="M1337.61,599.39c-.59,14.67-1.22,29.34-1.74,44.02-.22,6.25-.74,12.65,4.38,17.61"/><path class="cls-1" d="M1901.03,1391.71c9.53,21.42,19.4,42.66,33.45,61.62"/><path class="cls-1" d="M709.04,5222.99c7.63,15.26,15.26,30.52,22.89,45.78"/><path class="cls-1" d="M1624.6,5222.99c-7.63,15.26-15.26,30.52-22.89,45.78"/><path class="cls-1" d="M2084.15,2842.53c16.01,20.84,39.84,26.89,63.39,33.45"/><path class="cls-1" d="M233.65,2844.29c-15.47,20.42-39.94,23.36-61.62,31.69"/><path class="cls-1" d="M643.89,5286.38c-.06,9.57-7.6,13.17-14.09,17.61"/><path class="cls-1" d="M1693.27,5289.9c-.31,9.87,12.27,9.43,14.09,17.61"/><path class="cls-1" d="M122.73,2941.12c6.95.78,10.19,8.97,17.61,8.8"/><path class="cls-1" d="M2175.7,2888.3c-5.82-1.1-3.79,9.58-10.56,7.04"/></svg>