<?xml version="1.0" encoding="UTF-8"?>
<svg id="_Слой_1" xmlns="http://www.w3.org/2000/svg" version="1.1" viewBox="0 0 2300 5500">
  <!-- Generator: Adobe Illustrator 29.1.0, SVG Export Plug-In . SVG Version: 2.1.0 Build 142)  -->
  <defs>
    <style>
      .st0 {
        fill: #9bc8ec;
        stroke: #9bc8ec;
        stroke-miterlimit: 10;
        stroke-width: 4px;
      }
    </style>
  </defs>
  <path class="st0" d="M2183.7,2647s0,0,0,.1c.1,0,.2-.1.3-.1h-.4Z"/>
  <path class="st0" d="M2030.3,1821.6c-2.6-10.2-5-20.2-7.2-30-2.8-22.5-5.6-40.7-7.7-52.7-6.2-36.7-8.8-41.1-16.9-87.4-2.5-14.5-5.5-28.9-8.1-43.3-2.8-15.6-3.8-22.5-7.3-33-3.4-10.2-5.5-12.8-11-26.4-5.4-13.5-6.4-18.3-11-31.6-12.8-36.7-18.9-38.4-22.5-57.6-2.8-14.9-1.1-24.5.5-40.8,4.2-43.4,1.8-78-.7-107.2-2.1-24.7-4.8-54.2-15.2-92-3.6-13.2-9.8-35.2-22.1-62-9.3-20.2-37.2-80.7-89-116.2-14.6-10-29.3-20.2-48.5-25.7-9-2.6-16-3.3-27.2-8.8-7.8-3.8-11.8-7.1-20.6-8.8-3.9-.8-6.8-.8-13.2-2.2-1.3-.3-2.6-.6-3.7-.9v604.2c2.4,11.2,4.6,21.3,6.7,30.3,3.3,14.6,4.7,20.4,7.4,28,2.5,7.1,4.3,10.4,7,16.8,4.9,11.2,7.5,19.7,12.9,36.7,0,0,19.7,62.5,24.9,72.8,2.5,4.9,2.1,3.8,10.3,19.2,20.3,38.2,19.5,39.3,31,60.1,15.1,27.3,22.7,41,27.2,48.3,4.6,7.4,8,12.4,9.9,20.7,1.1,4.8,1.8,8.3,4.3,17.6,1.4,5.3,2.7,9.6,3.6,12.4,18.9,1.7,55.5,2.3,95.7-15.4,63-27.7,90.8-81,98.3-96.7-2.7-9.2-5.3-18.7-7.8-28.5h0Z"/>
  <path class="st0" d="M603.2,1005.5s-3.2.7-6.7,1.7c-17.5,4.9-32.5,11.8-32.5,11.8-25.5,11.7-48.6,30.9-49.8,31.9-40.5,34-60.8,74.6-75.4,103.9-7.8,15.7-17.6,35.5-25.4,63.5-6,21.6-8.4,47.5-12.9,98.5-5.6,63.8,1,72.6-4.5,92.9-2,7.6-6.3,19.7-1.8,32.7,2.2,6.4,5.4,9.5,5.1,16-.3,8.1-5.5,11.1-11.1,19.9-8.7,13.6-2.7,16.5-13,42.3-5.5,13.9-29.6,76.4-33.6,92.4-3.9,15.9-5.8,28.6-6.2,30.8-3.9,25.9-6.3,26-12.3,58.2-5.8,31.1-4.8,37.9-11.2,73.9-3.8,21.2-5.6,31.8-6.7,34.7-1.2,3.3-3.7,9.4-3.9,17.9-.1,6.1,1,11.1,2,14.5,10.9,16.1,32.5,42.9,68.6,63.3,54.9,31,108.2,27,127.6,24.6,7-15.8,18.2-40.3,33-70,20-39.9,24.6-44.8,38.2-74,20.8-44.7,13.9-41.2,35.2-87.8,15.3-33.3,14.3-52.9,27.9-75.9v-626.4c-6.6,2.3-16.7,5.5-21.3,6.8-2.1.6-5.3,1.4-9.5,1.7h0Z"/>
</svg>