<?xml version="1.0" encoding="UTF-8"?>
<svg id="_Слой_1" xmlns="http://www.w3.org/2000/svg" version="1.1" viewBox="0 0 2300 5500">
  <!-- Generator: Adobe Illustrator 29.1.0, SVG Export Plug-In . SVG Version: 2.1.0 Build 142)  -->
  <defs>
    <style>
      .st0 {
        fill: #9bc8ec;
        stroke: #9bc8ec;
        stroke-miterlimit: 10;
        stroke-width: 4px;
      }
    </style>
  </defs>
  <path class="st0" d="M2183.7,2647s0,0,0,.1c.1,0,.2-.1.3-.1h-.4Z"/>
  <path class="st0" d="M1698.3,1599.1H634.1c13.8,51,18.4,70.8,18.6,75.4,0,.3,0,2.6.5,5.7.3,2.8.9,6.3,2,10.3,2.7,10.2,6,13.7,10.1,22.9,5.9,13.2,3.5,15.8,9.2,33,4,12.3,8.4,20.4,11,25.6,13.8,27.8,29.3,75,38.8,104.1,0,0,25.2,78.9,31,124.7.5,3.8.8,7.2,1.1,10.5,2.1,23.9,2.6,42.6,2.7,50.9,0,13.8.2,38.8-4.1,71.2-.7,5.3-.6,3.9-5.8,34.8-7,41.7-10.5,62.6-10.6,68.6-.5,27.4,5.5,32,2.9,61.8-1,12.1-3.2,25.3-3.9,29-3.3,19.8-6.8,32.4-7.7,35.7-1.8,6.4-3.5,11.7-4.8,15.4,39.5,27.8,96.4,61.6,170.1,87.5,78.1,27.4,147.3,36.2,197.1,38.6v.3c6.8.5,15.9,1.1,26.6,1.6,9.8.5,25.7,1.1,46.2,1,10.4,0,23.3-.3,38.4-1.2v-.6c38.6-1.9,81.9-6.9,128.5-16.9,119-25.7,211.1-74.2,273.5-115.1-2.6-10.6-5.6-24.7-7.7-41.5-.8-6-2.7-22.5-2.9-44.4-.2-23.4,1.8-23.6,1-44.4-.5-12.1-1.5-22.2-3.1-36.7-1.2-11.2-2.1-19.9-3.7-29.9-3.3-20.9-6.9-30.2-9.7-42.5-4.1-18.3-3.6-33.3-2.7-63.2.7-21.5,1.9-17.5,7.5-76.8,3.5-36.8,3.5-43.1,7.7-57,4.3-14.1,7.6-18.3,16-42.4,5.4-15.5,6.2-19.9,12.1-39.2,7.2-23.6,7.3-21.2,25-73.8.6-1.8.1-.4,17.4-52.1,3.2-9.7,6.4-19.3,9.7-29,6.4-19.2,15.4-48.3,26.7-90.4,0-3.9-.2-7.8-.5-11.5h0Z"/>
</svg>