<?xml version="1.0" encoding="UTF-8"?>
<svg id="_Слой_1" xmlns="http://www.w3.org/2000/svg" version="1.1" viewBox="0 0 2300 5500">
  <!-- Generator: Adobe Illustrator 29.1.0, SVG Export Plug-In . SVG Version: 2.1.0 Build 142)  -->
  <defs>
    <style>
      .st0, .st1, .st2, .st3, .st4 {
        fill: #d4deeb;
      }

      .st1 {
        opacity: .2;
      }

      .st1, .st2, .st3 {
        isolation: isolate;
      }

      .st2 {
        opacity: .5;
      }

      .st3 {
        opacity: .2;
      }

      .st4 {
        stroke: #d4deeb;
        stroke-miterlimit: 10;
      }
    </style>
  </defs>
  <path class="st3" d="M1685.9,2729.8c-3.8-20.9-6.9-31.4-13.4-57.3-9.8-39.2-16.6-66.2-22.1-99.4-6.8-41.4-4.7-50.1-13.5-87.9-3.4-14.7-5.2-19.8-10.9-42.7-7.5-30.2-12.8-55.1-16.1-71.7-48,31.6-117.7,70.4-207.7,98.7-105.5,33.2-194.4,38.1-243.3,38.3-122.7.7-213.6-26.4-237.6-34-86.3-27-152.1-64.9-195.8-94.5-7.9,20.6-18.3,50.9-27.2,88.5-15.4,65-10.4,85.5-26.8,160.1-10.1,46-14.1,47.7-23.2,93.4-9.1,45.1-13,82.5-15,106.9,67.9,63.1,130.8,101.8,175.1,125,50.5,26.5,77.8,33.6,95.4,37.1,7.8,1.5,77.8,14.5,150.2-11,39.2-13.8,61.9-32.8,66.5-36.7,8.6-7.3,15-14.2,19.4-19.2,0-.1-.1-.2-.2-.3-8-18-16.2-36-24.7-53.9,0-36.9,0-73.9,0-110.9,0-27.4,22.4-49.8,49.8-49.8s49.8,22.4,49.8,49.8v112.6c-7.9,17.3-15.5,34.7-22.8,52.2l-1.9.6c-.1,0-.2-.2-.4-.3,36.7,32.9,72.4,48.8,95.1,56.7,80.4,28.3,169.4,17.3,221.6-16.7,5.4-3.6,13.2-9.1,17.6-12.2,8.8-6.3,40.9-29.6,82.9-68.6,24.1-22.3,54-52.2,86.5-90.2-.8-14.5-2.6-36.4-7.3-62.9h0Z"/>
  <path class="st2" d="M1701.9,5288.7c-12.9-5.9-22.3-14.8-41.1-32.6-15.5-14.6-23.1-22-29.1-32.6-4.8-8.4-7.7-19.3-13.4-41.1-5.1-19.3-8.1-30.8-10.3-47.4-2.1-15.7-2.4-27.3-2.8-44.1-.4-18.1,0-34.3.6-47.9-7.4,6.7-40.5,35.6-91.1,35.2-45.7-.3-76.4-24.2-84.8-31.3,0,9.9-.3,24.2-3,41.2-4.3,27.8-10.1,33.8-12.7,61.5-2.1,22-.2,36.6.6,42.3,1.5,9.6,2.2,8.5,5.4,24.2,3.1,15.3,5.9,29.8,5.8,47.7,0,9.1-.8,15.4-2.2,26.8-1.8,14.7-5,32-7.2,44.5h0c-4.2,27.8-8.3,37.4-6,55.7,1,7.7,2.4,19,9.4,30.9,13.6,22.8,37.9,30.4,50.6,34.3,25.2,7.8,46.9,4.9,62.9,2.7,14.3-2,26.2-5.5,30.7-6.9,5-1.6,12.9-4.1,22.7-8.8,8.8-4.3,14.8-8.3,18.8-10.9,26.9-17.8,40.3-26.7,45.7-29.2,19.2-8.7,19.5-2,42.8-12,6.7-2.9,20.8-9.5,36-21.4.4-.3,6.8-6.5,19.7-18.9,5.1-4.9,13.7-12.2,12.1-17.5-.3-1-1.3-3-1.2-5.8,0-2.4.8-3.5,1.1-5,.7-4.3-3.3-8.5-5.1-10.3-7.6-7.4-16.9-9.4-22.9-11,0,0-12-3.1-31.9-12.2h0Z"/>
  <path class="st2" d="M598,5301.9c-6,1.6-15.4,3.5-22.9,11-2.3,2.2-5.7,6.1-5.1,10.3.2,1.6,1,3.3.8,6.3-.1,2.3-.7,3.8-.9,4.5-1.5,5.6,8.1,13.6,12.1,17.5,12.9,12.4,19.3,18.6,19.7,18.9,15.1,12,29.3,18.5,36,21.4,22.7,9.7,22.6,3.3,42.8,12,14.2,6.1,27.5,14.9,46.3,27.4,3.2,2.1,8.9,6,17.1,10.3,9.3,4.9,17.1,7.9,21.4,9.4,2.8,1,14.8,5.2,30,7.7,29.5,4.8,53,.7,66-1.7,24.1-4.5,31.5-10.1,34.2-12.2,8.7-7.1,13.2-16,16.4-22,1.5-2.9,7.3-14.1,9.4-30.9,2.3-18.3-1.8-27.9-6-55.7,0,0-3.1-20.5-4.3-41.1-.1-2.5-.2-8-.4-19-.4-23.2-.6-34.8-.3-39.8,1-20.2,4.4-20.9,6.7-43.2,2.3-21.9.9-38.9.6-42.3-2.3-25.8-8.4-33.1-12.7-61.5-2.6-16.8-3-30.7-3-39.6-7.2,5.6-17.8,12.7-31.7,18.8-26.7,11.6-49.4,12.2-54.5,12.2-8.9.1-30-.5-54.2-10.7-15-6.3-26.2-14.2-33.6-20.2.9,9.6,1.6,21.6,1.6,35.2,0,5.7-.2,21.7-2.8,42.8-1.7,13.8-4.6,37-13.7,65.4-4.6,14.4-7.1,21.8-12.9,31.5-6.8,11.4-14.4,18.6-29.1,32.6-18.8,17.8-28.2,26.7-41.1,32.6-20,9.1-31.9,12.2-31.9,12.2h0Z"/>
  <path class="st3" d="M56.8,2854.5c11.9-47.1,22.2-83.6,32.2-124.4,7.8-31.8,9.3-41.4,9.9-52.9,1.2-21.3-1.6-31.3,1.6-49.8,3.4-19.3,11-34,16.5-43,10.3,8.1,31.8,22.8,62.9,29,30.9,6.1,56.2.9,68.8-2.6-1.4,5-3.4,12.3-5.8,21.1-12,45-11.8,51-10.2,56.9,4,14.2,11.5,11.2,17.9,30.4,2.3,7.1,3.8,14.9,9.2,29.4,1.5,4.1,2.9,7.5,3.8,9.7.5,17,.8,30.9,1.2,41.9.2,4.4.6,11.5-1.7,20.3-1.1,4.4-2.2,6.5-3.4,10.2-1.9,5.7-3.8,14.1-3.4,25.4-1.4,11.4-1.7,21.2-1.7,28.8,0,12,1,21.4,1.7,27.9,1,9.9,1.6,10.5,3.4,24.5,3.3,25.6,2.4,30,.9,33.9-1,2.5-5,12.2-15.2,16.1-1.1.4-10,3.6-18.8-.6-7.9-3.8-11.2-11.4-15-20.6-2.4-5.6-3.5-10.7-4.4-14.5-1.2-5.2-1.9-10-2.4-15.1-1.2-12.8-.2-22.1,0-27.1.4-9.2-.8-22.6-8.5-39.8-3.4-1-17.6-4.9-27.1,2.5-3.4,2.7-6,6.7-8,9.8-.9,1.3-4.2,6.6-6.6,13.6-3.9,11.7-1.3,17.6-3.2,30.8-3.1,21.7-10.6,23.3-8.5,37.2,1,6.8,3.1,8.7,5.1,20.3,1.3,7.8,1.6,14.3,1.7,18.6,4,5.4,10.5,13.4,19.5,22,22.2,21.4,34.7,22.5,39.8,37.2,4.6,13.4-5,16.3-.1,34.2,3.8,13.9,11,17.8,9.8,30-.3,3.2-.9,3.6-4.5,17.5-1.9,7.3-3.4,13.3-4.3,17.3-4.6-.2-9.8-1-15.2-2.5-22.4-6.4-35.8-22.6-41.5-30.5-4.7-4.8-12.1-12.2-21.2-21.2-16.5-16.2-24.1-22-35.7-35.4-12-13.9-14.9-20.3-15.8-22.5-5-11.5-4.7-20.2-5.5-30.2-.9-11.1-2.4-9.8-13.9-54.6-10.2-39.9-12.2-43-13-55.3-.9-15.6,1.4-26.4,8.5-54.2h0Z"/>
  <path class="st0" d="M2038.1,1850c-8.3,15.6-22.3,37.7-44.9,59.3-9.8,9.4-26,24.6-50.4,36.6-38.8,19-76.7,18.6-98.8,16.2,6.8,23.4,9.6,42.7,10.9,55.6,2.3,22.5.4,29,3.3,59.9,1.2,12.5,3.3,27.5,6.4,46.5,3.9,23.5,10.7,40.2,13.4,48.3,17.4,53.2,26,79.8,32,95.1,9.9,25.6,31.7,66.7,75.1,147.9,11.9,22.4,26,50.6,54.3,107s15.2,30.6,23.8,56.5c7.6,22.9,11.8,42.7,14.1,56.5,6.4,3.6,35.4,18.7,72.1,9.7,39.2-9.7,58-39.9,61.4-45.6-5.9-19.1-13.9-48.2-19.8-84.4-4.7-28.7-3-30.7-9.3-91.7-7.3-71.3-11.1-83.2-14.2-124.9-.7-9.5-1.9-26.4-5.1-49.2-1.6-11.3-2.4-14.3-4.4-28.6-.7-5-2.5-17.9-5.1-42.6-4.5-41.8-3.3-42.3-5.9-55.5-.9-4.8-1.7-8-12.5-42.2-17.4-55.3-21.3-65.9-26-77.4-4.9-11.9-9-20.6-13.9-31.2-13-27.8-20.2-40-29.3-58.2-7.3-14.6-17.1-36-27.1-63.5h0Z"/>
  <path class="st0" d="M1165.9,2710.5c-27.4,0-49.8,22.4-49.8,49.8s0,73.9,0,110.9c8.5,18,16.7,35.9,24.7,53.9l.2.3c11.2-10,19.7-19.3,25.7-26.4,5.8,7.2,13.7,16.4,24,26.4.1,0,.2.2.4.3l1.9-.6c7.3-17.4,14.9-34.9,22.8-52.2v-112.6c0-27.4-22.4-49.8-49.8-49.8h0Z"/>
  <path class="st0" d="M2183.7,2647s0,0,0,.1c.1,0,.2-.1.3-.1h-.4Z"/>
  <path class="st1" d="M1666.3,983.5c-14.5-3.8-22.1-4.9-29.7-7.1-33.5-9.6-56.6-21.6-101.9-46.5-40.7-22.3-75.1-41.7-101.6-56.9-51.4,23.4-139.3,55.5-252.7,59.1-130,4.2-230.9-31.1-284.9-54.6-22.1,8.8-40.3,17.2-53.9,24-7.7,3.8-30.1,15-58.8,32.5-34.1,20.6-29,20.8-43.5,27.2-29.8,13.1-62.9,22.8-62.9,22.8-11.5,3.4-25.8,7.4-42.4,11.7v582.5c.5,5,1.3,11.8,2.3,21,150.6,26.7,333.8,47.4,542.3,46.7,199-.7,374.6-20.9,520.3-46.7v-606c-9.8-3.2-20.7-6.5-32.6-9.6h0Z"/>
  <path class="st3" d="M2262.2,2852.7c-11.9-47.1-22.2-83.6-32.2-124.4-7.8-31.8-9.3-41.4-9.9-52.9-1.5-27.6.4-35.5-1.6-49.8-.9-6.4-2.9-15.4-7.7-26.1-3.4,5.7-22.2,35.9-61.4,45.6-36.7,9.1-65.7-6.1-72.1-9.7,2.6,6.4,4.9,13.3,7,20.8.5,1.9,1,3.8,1.4,5.6v5.8c-.1,1.8-.4,5.4-1.2,10.1-.4,2.8-7.2,30-9.1,32.8-2.2,3.2-4.8,4.6-6.2,5.6,0,0-5,3.6-10,30.7-2,13.4-4,30.9-5.1,51.6-.4,4.9-.4,12.1,1.7,20.3,1.1,4.4,2.2,6.5,3.4,10.2,1.9,5.7,3.8,14.1,3.4,25.4,1.4,11.4,1.7,21.2,1.7,28.8,0,12-1,21.4-1.7,27.9-1.1,9.9-1.6,10.5-3.4,24.5-3.3,25.6-2.4,30-.9,33.9,1,2.5,5,12.2,15.2,16.1,1.1.4,10,3.6,18.8-.6,7.9-3.8,11.2-11.4,15-20.6,2.4-5.6,3.5-10.7,4.4-14.5,1.2-5.2,1.9-10,2.4-15.1,1.2-12.8.2-22.1,0-27.1-.4-9.2.8-22.6,8.5-39.8,9.4,2.5,17.2,4.1,22.7,5,6.2,1.1,8.5,1.3,11.1,3.4,4.7,3.8,6.3,10,7.8,17.4,2.9,14.5,1.5,19.1,3.2,30.8,3.1,21.7,10.6,23.3,8.5,37.2-1,6.8-3.1,8.7-5.1,20.3-1.3,7.8-1.6,14.3-1.7,18.6-4,5.4-10.5,13.4-19.5,22-22.2,21.4-34.7,22.5-39.8,37.2-2.6,7.4-.4,10.2.4,18.3.6,5.6.6,9.8-.3,15.9-1.8,12.7-9.2,16.7-12.3,25.1-2.8,7.3-2.8,19.4,11.4,39.7,4.6-.2,9.8-1,15.2-2.5,22.4-6.4,35.8-22.6,41.5-30.5,4.7-4.8,12.1-12.2,21.2-21.2,26.7-26.2,29.5-27.2,35.7-35.4,16.7-22.3,20.3-45.2,21.3-52.7.6-4.5.6-6.4,1.7-13.9.9-6.4,2-13.7,3.9-20.7,2.3-8.4,3.9-9.2,8.3-20,2.8-6.9,8.9-25,12.3-48.8.3-2,.5-4.1.6-6.4.9-15.6-1.4-26.4-8.5-54.2h0Z"/>
  <path class="st0" d="M276.5,1892.3c-4.4,9.7-15.8,30.3-38.6,71.6,0,0-27.7,49.5-32.6,83.5-.5,3.5-.9,6.8-.9,6.8h0c-.3,2.5-1.3,5.6-3.3,9.1,0,1.5-.3,4.1-1,7.1-.9,4.3-2.3,7.4-2.6,8.1-3.1,7.4-8.8,32.8-12.3,60.6-2.2,17.3-1.6,20.6-4.5,30.2-2.4,7.8-4.2,10.5-5.8,18.6-1.4,7-1.2,11.2-1.3,23.8,0,16.4-.1,24.6-.5,30.2-.7,10.4-2.3,9.7-6,32.2-6.2,38.5-9.5,65.6-9.5,65.6-9.5,78-20.3,140.8-20.3,140.8-4.1,24.5-10.5,60.2-20.3,103.8,10.1,8.2,32.3,24.1,65.1,30.1,29.9,5.4,54.3,0,66.6-3.7,5.3-19.8,11.3-35.6,16.1-46.9,5.7-13.5,11.8-25.5,19.3-40.5,7.1-14.1,8.8-16.8,14.8-28.9,7.9-16.1,12.2-26.6,15.5-34.1,9.7-21.9,15.6-29.4,37.1-66.8,6.4-11.2,19.8-34.4,33.4-60.4,12.3-23.5,25.3-48.2,39.2-81.6,14.2-34.2,26-62.6,33.6-101.4,3-15.4,6.1-36.4,9.1-56.7,3.6-24.3,5.8-40.8,6.4-46.5,2.6-23.1,9.9-60,31.2-119.1-22.3,4.4-69.4,10.3-115.8-12.6-25.2-12.4-43.2-29.6-50.4-36.6-18.9-18.4-31-36.9-38.5-50.4-4.1,15-11.2,37.7-23.2,63.9h0Z"/>
  <path class="st0" d="M1433.2,873c-5.5-3.5-12.7-8.1-21-13.4-51-33-64.4-43.9-69.4-61.3-.2-.7-.8-5.1-1.9-13.9-3.2-24.6-5.5-42.1-6.3-61.7-1-25.1-2.9-36.5.8-48.6,2-6.3,4.8-13,4.8-13,4.7-10.8,8.3-15.5,11.8-21.8,7.6-13.8,9.7-26.6,13.1-47.6.9-5.7,1.4-10.1,2.4-19,1.9-17.6,2.8-26.5,1.8-33-1-6.4-4-16.7-14.1-28.2-20.6,16.6-32.1,33.2-38.9,45.7-8.3,15.3-11.3,27.8-24.5,38.8-10.8,9-22.9,12.5-31.7,14.1h0c-27.3-3.9-31.3-15.5-57-13.8-15.3,1-16.1,5.3-32.7,5.9-26.3,1-29.7-9.7-50.5-7.4-14,1.5-17.7,6.9-28.1,11.3h0s-7.1,3.2-14.8,4c-4.6.5-19.1.3-32.9-8.8-12.6-8.3-16.8-18-28.7-39.5-18.9-34.1-28.3-51.2-33.5-50.3-10.8,1.8-27.4,58.5-5.9,101.6,0,0,27.4,54.8,24.5,74.5,0,0-.2,1.3-.1,1.3h0s0,0,0,0c.4.3-2.7,6.2.7,55.7,1.4,20.6,2.3,21.5,1.2,28.2-4.6,28.8-27.5,46.7-50.8,67.3-22.2,19.6-44.2,30.9-59,37.3,53.7,23.4,153.7,58.6,282.8,55.2,116.1-3,206-36,257.7-59.5h0Z"/>
  <path class="st2" d="M1698.3,1599.1c-146.5,27.4-326.7,49.4-532.8,49.3-205.5,0-385.1-22-531.3-49.3,13.8,51,18.4,70.8,18.6,75.4,0,.3,0,2.6.5,5.7.3,2.8.9,6.3,2,10.3,2.7,10.2,6,13.7,10.1,22.9,5.9,13.2,3.5,15.8,9.2,33,4,12.3,8.4,20.4,11,25.6,13.8,27.8,29.3,75,38.8,104.1,0,0,25.2,78.9,31,124.7.5,3.8.8,7.1,1.1,10.5,2.1,23.9,2.6,42.6,2.7,50.9,0,13.8.2,38.8-4.1,71.2-.7,5.3-.6,3.9-5.8,34.8-7,41.7-10.5,62.6-10.6,68.6-.5,27.4,5.5,32,2.9,61.8-1,12.1-3.2,25.3-3.9,29-3.3,19.8-6.8,32.4-7.7,35.7-1.8,6.4-3.5,11.7-4.8,15.4,39.5,27.8,96.4,61.6,170.1,87.5,78.1,27.4,147.3,36.2,197.1,38.6v.3c6.8.5,15.9,1.1,26.6,1.6,9.8.5,25.7,1.1,46.2,1,10.4,0,23.3-.3,38.4-1.2v-.6c38.6-1.9,81.9-6.9,128.5-16.9,119-25.7,211.1-74.2,273.5-115.1-2.6-10.6-5.6-24.7-7.7-41.5-.8-6-2.7-22.5-2.9-44.4-.2-23.4,1.8-23.6,1-44.4-.5-12.1-1.5-22.2-3.1-36.7-1.2-11.2-2.1-19.9-3.7-29.9-3.3-20.9-6.9-30.2-9.7-42.5-4.1-18.3-3.6-33.3-2.7-63.2.7-21.5,1.9-17.5,7.5-76.8,3.5-36.9,3.5-43.1,7.7-57,4.3-14.1,7.6-18.3,16-42.4,5.4-15.5,6.2-19.9,12.1-39.2,7.2-23.6,7.3-21.2,25-73.8.6-1.8.1-.4,17.4-52.1,3.2-9.7,6.4-19.3,9.7-29,6.4-19.2,15.4-48.3,26.7-90.4,0-3.9-.2-7.8-.5-11.5h0Z"/>
  <ellipse class="st0" cx="636.5" cy="1375.7" rx="134.3" ry="143.5"/>
  <ellipse class="st0" cx="1673.6" cy="1375.7" rx="134.3" ry="143.5"/>
  <path class="st2" d="M2030.3,1821.6c-2.6-10.2-5-20.2-7.2-30-2.8-22.5-5.6-40.7-7.7-52.7-6.2-36.7-8.8-41.1-16.9-87.4-2.5-14.5-5.5-28.9-8.1-43.3-2.8-15.6-3.8-22.5-7.3-33-3.4-10.2-5.5-12.8-11-26.4-5.4-13.5-6.4-18.3-11-31.6-12.8-36.7-18.9-38.4-22.5-57.6-2.8-14.9-1.1-24.5.5-40.8,4.2-43.4,1.8-78-.7-107.2-2.1-24.7-4.8-54.2-15.2-92-3.6-13.2-9.8-35.2-22.1-62-9.3-20.2-37.2-80.7-89-116.2-14.6-10-29.3-20.2-48.5-25.7-9-2.6-16-3.3-27.2-8.8-7.8-3.8-11.8-7.1-20.6-8.8-3.9-.8-6.8-.8-13.2-2.2-1.3-.3-2.6-.6-3.7-.9v604.2c2.4,11.2,4.6,21.3,6.7,30.3,3.3,14.6,4.7,20.4,7.4,28,2.5,7.1,4.3,10.4,7,16.8,4.9,11.2,7.5,19.7,12.9,36.7,0,0,19.7,62.5,24.9,72.8,2.5,4.9,2.1,3.8,10.3,19.2,20.3,38.2,19.5,39.3,31,60.1,15.1,27.3,22.7,41,27.2,48.3,4.6,7.4,8,12.4,9.9,20.7,1.1,4.8,1.8,8.3,4.3,17.6,1.4,5.3,2.7,9.6,3.6,12.4,18.9,1.7,55.5,2.3,95.7-15.4,63-27.7,90.8-81,98.3-96.7-2.7-9.2-5.3-18.7-7.8-28.5h0Z"/>
  <path class="st2" d="M603.2,1005.5s-3.2.7-6.7,1.7c-17.5,4.9-32.5,11.8-32.5,11.8-25.5,11.7-48.6,30.9-49.8,31.9-40.5,34-60.8,74.6-75.4,103.9-7.8,15.7-17.6,35.5-25.4,63.5-6,21.6-8.4,47.5-12.9,98.5-5.6,63.8,1,72.6-4.5,92.9-2,7.6-6.3,19.7-1.8,32.7,2.2,6.4,5.4,9.5,5.1,16-.3,8.1-5.5,11.1-11.1,19.9-8.7,13.6-2.7,16.5-13,42.3-5.5,13.9-29.6,76.4-33.6,92.4-3.9,15.9-5.8,28.6-6.2,30.8-3.9,25.9-6.3,26-12.3,58.2-5.8,31.1-4.8,37.9-11.2,73.9-3.8,21.2-5.6,31.8-6.7,34.7-1.2,3.3-3.7,9.4-3.9,17.9-.1,6.1,1,11.1,2,14.5,10.9,16.1,32.5,42.9,68.6,63.3,54.9,31,108.2,27,127.6,24.6,7-15.8,18.2-40.3,33-70,20-39.9,24.6-44.8,38.2-74,20.8-44.7,13.9-41.2,35.2-87.8,15.3-33.3,14.3-52.9,27.9-75.9v-626.4c-6.6,2.3-16.7,5.5-21.3,6.8-2.1.6-5.3,1.4-9.5,1.7h0Z"/>
  <path class="st2" d="M1726.4,3037.2c-2-17.1-2.6-16.6-6.9-45.7-8.2-55.6-8.4-74.4-16-133.3-2-15.1-5.2-38.4-9.7-67.3-.2.2-.4.4-.6.7,0,.3,0,.7,0,1-32.5,38-62.5,67.9-86.5,90.2-42,38.9-74.1,62.3-82.9,68.6-4.3,3.1-12.1,8.7-17.6,12.2-16.2,10.6-36.1,19-58.1,24.6-2.8.9-5.6,1.7-8.3,2.4-31.1,7.9-60.1,8.5-60.1,8.5-50.3,1-88.3-13.4-110.4-22-20.1-7.8-47.9-20.9-78-43-1.8,4.2-4,10.6-4.9,18.4-1.6,13.4,1.3,23.1,3,30.9,3.6,17.1.3,21.6.4,47.8,0,10.7.6,15.1,5.9,59.6,12.1,101.9,13,112.5,13.1,124.8,0,3.7,0,12.1,1.4,23.4,1.7,14.1,4.3,21.9,7.5,35.8,3.7,16.1,4.7,24.8,6.8,37.2,6,35.3,16.2,70.9,25.1,106.1,0,0,13.8,54.3,23.8,107.6,9.1,48,12.7,85.6,19.5,158.7,3.9,41.9,8.5,96.8,12.2,161.7,28.9,11.5,55.1,18.6,76.8,23,17.4,3.5,52.3,9.6,97.1,8.9,16.4-.2,44.3-1.6,78.5-8,29.5-5.5,54.8-13.2,75.4-20.8.4-13.9,1.4-32.8,3.9-55.2,4.3-38.4,11-69.3,15.7-88.3,6.2-25.1,7.9-26.3,17.7-63.2,0,0,6.8-25.9,13.7-56.4,13.7-60.6,35.7-195,44-352.2,0,0,2.4-44.5,2.3-104.5,0-42.6-1.2-66.5-4.2-92.2h0Z"/>
  <path class="st2" d="M1143.9,2934.1c-8.8,5.6-21.4,13.3-37.1,21.4-28,14.5-65.7,33.6-116.1,40.2-38,5-67.8.9-77.1-.6-41.5-6.4-72.5-21.7-104.2-40-8-4.6-16.9-9.9-26.6-15.8-41.4-23.9-93.8-59.2-149.5-110.9-12.6,85.5-20,153.1-24.6,200.7-2.9,30.4-4.6,52.7-5.8,78.1-.7,16-2.5,61.7,0,123.4,1.7,42,4.4,70.8,9.1,119.3,8.4,86.9,12.6,130.3,24.6,183.8,2.3,10.3,2.2,9.2,16.8,71.6,15.5,66.2,13.6,58.9,19.7,84.2,5.6,23.2,8.3,33.9,12.6,54,6.9,32.1,9.2,47.7,9.8,51.9,3,20.8,4.3,38.3,4.9,50.5,34.7,14.2,95.7,33.9,173.6,32,68.1-1.6,121.8-19.1,154.8-32.7.2-34.9,1.4-80.1,5.6-132.6,2.9-36,8.3-89.4,21.1-164.3,22.8-134,33.9-129.7,56.9-258.6,23.5-131.5,13.3-143.2,28.6-218.3,3.1-15.1,11.7-54.9,7.1-106.8-1.2-13.2-2.9-23.9-4.1-30.6h0Z"/>
  <path class="st4" d="M1678.8,4219.8c-9.3-52.9-14-79.3-21.1-106.6-8.3-32-14.4-48.2-18.9-81.4-2.5-18.5-3.1-32.4-3.6-44.3-1.4-32.9-3.2-79.3-5.1-137.1-16.6,6-36,11.9-58.1,16.8-1.1.2-2.2.5-3.2.7,0,0-.2,0-.3,0-24.6,5.3-52.9,9.2-84.3,10-1.8,0-3.4,0-5,.1-44.8.7-79.8-5.4-97.1-8.9-19.1-3.9-41.8-9.8-66.7-19.1-3.3-1.2-6.4-2.4-9.4-3.6.2,6.2.7,15.8,2.2,27.6,1.9,14.6,4.4,25.3,5.5,30,7.9,33.7,6.1,36.3,17.4,86.8,7.3,32.6,11,49.1,15.4,57.6,3.8,7.2,8.5,14.5,10.4,26.5,1.7,10.2.3,17.7-2.3,33.1-2.2,13.2-3.6,26.6-6.2,39.8-5.1,25.2-8.1,52.5-13.9,106.5-7.3,67.6-10.9,101.4-9.3,134.2,2,42.1,8.9,73.5,16,106.1,8.3,38.1,21,83.5,35.4,134.6,5.5,19.7,9.5,33.5,13,54.4,4.8,28.4,2.8,35.9,8,64.7,4.7,26.3,8.1,29.9,13.2,54.3,6.2,29.6,6.9,51.5,7.9,74.3,1.8,43.4,5,98.5,9.2,168.6,7.2,6.1,46.8,38.2,102.7,31.9,39.5-4.4,65.5-25.6,74.9-34.1,2.2-41.6,5.7-75.5,8.7-99.5,2.3-18.5,4.8-35.8,8.7-62.5,4.5-31,6.6-43,10.2-66.9,8.3-55.1,7.1-53.9,14.5-103.9,7.2-48.2,13.9-86.1,17.4-106.1,7.6-43,7.6-39.1,13.1-70.5,11.6-66.4,17.3-99.6,18.3-140.3.9-39.5-2.5-71.4-5-94.1-2.6-23.8-5.9-42.5-12.6-79.8h0Z"/>
  <path class="st0" d="M1024.5,3847.1c-.8.3-1.5.6-2.3.9-.4.2-.9.3-1.3.5-.7.3-1.5.6-2.2.9-.5.2-1,.4-1.4.5-.7.3-1.5.6-2.2.9-.5.2-1,.4-1.5.6-.8.3-1.5.6-2.3.9-.5.2-1,.4-1.5.5-.8.3-1.6.6-2.5.9-.5.2-1,.4-1.5.5-.9.3-1.7.6-2.6.9-.5.2-1,.3-1.5.5-.9.3-1.8.6-2.8.9-.5.2-1,.3-1.5.5-1,.3-2,.6-3,.9-.5.1-.9.3-1.4.4-1.1.3-2.1.7-3.2,1-.4.1-.8.3-1.3.4-1.2.4-2.4.7-3.6,1.1-.3.1-.7.2-1,.3-1.4.4-2.8.8-4.2,1.2-.2,0-.3.1-.5.1-4.9,1.4-9.9,2.7-15.2,3.9-.4.1-.9.2-1.3.3-1.3.3-2.5.6-3.8.9-.6.1-1.3.3-1.9.4-1.1.2-2.2.5-3.3.7-.8.2-1.6.3-2.3.5-1,.2-2,.4-3,.6-.9.2-1.8.4-2.7.5-.9.2-1.8.3-2.7.5-1,.2-2,.4-3.1.6-.8.1-1.6.3-2.3.4-1.2.2-2.3.4-3.5.6-.6.1-1.3.2-1.9.3-1.3.2-2.7.4-4,.6-.4,0-.8.1-1.1.2-21.7,3.2-45.6,5.1-71.4,4.6-68.3-1.3-122.2-18.6-155.2-32.1,3.2,21.6,6.3,54.5,2.5,94.2,0,.6-.1,1.2-.3,3.2-3.4,32.4-4,49.5-5.3,64.1-.9,9.7-3.4,23.1-8.3,49.9-5.6,30.3-9.2,47-15.8,79-8.7,42.3-13,63.4-16.6,84-5.7,32-9.9,56.2-13,88.5-3.9,40.6-3.8,72.6-3.6,87.3.6,48.5,7.3,93.1,20.8,182.4,2.2,14.4,3.3,21.8,5.1,32.9,9.9,59.9,15.3,71.9,20.2,110.5,3.5,27.4.8,21.5,4.9,58.7,3.1,28.3,5.8,41.2,12.1,82.5,5.9,38.4,10,67.8,12.1,83.7,3.9,28.5,8.3,63.2,12.8,102.8,10.9,8.8,34.1,24.9,67.3,29.6,57.8,8.2,100.4-24.5,108.7-31.1-.3-39.5,1.1-74,2.9-102.2,1.4-21.2,4.8-60.8,11.6-110.9,3.1-23.1,3.4-19.7,16.4-95.5,14.2-82.4,13.3-82.8,18.3-105.1,12.1-53.4,17.4-52.5,30.9-107.1,8.2-33.2,18-73.9,21.2-127.3,3.4-56.6-1.9-105.3-3.9-122.5-2-17.6-4.4-33.1-8.7-72.4-5.1-47-3.6-43.5-5.8-53-7.7-33.9-19.4-48.5-12.5-70.4,2.8-8.8,4.9-7.4,10.7-20.9,9.2-21.7,9.8-40,10.6-50.5,2.4-33.8,9.5-32.3,22.2-95.5,3.2-16.1,7.6-39.9,11.1-69.4-1.1.4-2.1.9-3.2,1.3-.3.1-.7.3-1.1.4h0Z"/>
</svg>