<?xml version="1.0" encoding="UTF-8"?><svg id="_Слой_1" xmlns="http://www.w3.org/2000/svg" viewBox="0 0 2300 5500"><defs><style>.cls-1{fill:#e0cdaf;}</style></defs><path class="cls-1" d="M2038.13,1850.04c-8.3,15.55-22.28,37.65-44.87,59.28-9.77,9.36-26.04,24.63-50.4,36.57-38.77,19-76.65,18.56-98.75,16.2,6.77,23.45,9.58,42.7,10.9,55.64,2.3,22.53.42,29,3.27,59.91,1.15,12.46,3.27,27.48,6.4,46.47,3.87,23.51,10.74,40.22,13.38,48.31,17.36,53.19,26.04,79.78,31.96,95.13,9.88,25.62,31.74,66.73,75.07,147.9,11.94,22.36,26.04,50.58,54.26,107.02,6.01,12.02,15.2,30.59,23.78,56.49,7.61,22.95,11.75,42.67,14.12,56.49,6.42,3.56,35.43,18.73,72.09,9.66,39.2-9.7,58.02-39.89,61.45-45.63-5.87-19.05-13.87-48.17-19.83-84.44-4.72-28.71-3.03-30.69-9.26-91.73-7.27-71.27-11.07-83.21-14.24-124.88-.72-9.5-1.86-26.36-5.14-49.2-1.62-11.28-2.37-14.29-4.41-28.64-.71-5.02-2.5-17.88-5.14-42.59-4.46-41.79-3.33-42.27-5.89-55.48-.94-4.84-1.73-8.04-12.46-42.18-17.4-55.31-21.33-65.95-26.04-77.4-4.9-11.91-8.96-20.6-13.9-31.18-12.97-27.76-20.24-39.98-29.3-58.23-7.27-14.64-17.12-36.03-27.05-63.49Z"/><path class="cls-1" d="M276.49,1892.27c-4.44,9.73-15.84,30.35-38.63,71.6,0,0-27.67,49.49-32.63,83.54-.5,3.45-.91,6.77-.91,6.84h0c-.29,2.54-1.32,5.56-3.3,9.15-.08,1.51-.3,4.06-.97,7.14-.94,4.31-2.28,7.36-2.6,8.12-3.1,7.36-8.79,32.83-12.26,60.59-2.16,17.26-1.6,20.59-4.5,30.19-2.35,7.78-4.19,10.49-5.78,18.63-1.36,6.97-1.23,11.24-1.28,23.77-.08,16.43-.12,24.64-.5,30.25-.72,10.41-2.31,9.69-5.96,32.2-6.24,38.47-9.54,65.6-9.54,65.6-9.5,78.02-20.28,140.75-20.28,140.75-4.08,24.5-10.54,60.25-20.28,103.77,10.09,8.23,32.34,24.12,65.13,30.07,29.93,5.43,54.26-.02,66.59-3.7,5.33-19.8,11.3-35.61,16.06-46.9,5.69-13.51,11.75-25.54,19.27-40.47,7.1-14.1,8.84-16.77,14.78-28.91,7.89-16.14,12.25-26.63,15.54-34.05,9.71-21.9,15.59-29.36,37.14-66.81,6.44-11.2,19.76-34.39,33.41-60.39,12.32-23.47,25.31-48.22,39.19-81.59,14.24-34.23,26.02-62.55,33.58-101.45,2.99-15.4,6.1-36.45,9.1-56.74,3.58-24.26,5.75-40.75,6.4-46.47,2.62-23.09,9.92-59.99,31.23-119.13-22.29,4.45-69.35,10.28-115.81-12.62-25.24-12.44-43.24-29.6-50.4-36.57-18.9-18.39-31.05-36.92-38.54-50.39-4.12,14.99-11.23,37.66-23.23,63.95Z"/></svg>