<?xml version="1.0" encoding="UTF-8"?>
<svg id="_Слой_1" xmlns="http://www.w3.org/2000/svg" version="1.1" viewBox="0 0 2300 5500">
  <!-- Generator: Adobe Illustrator 29.1.0, SVG Export Plug-In . SVG Version: 2.1.0 Build 142)  -->
  <defs>
    <style>
      .st0 {
        fill: #9bc8ec;
        stroke: #9bc8ec;
        stroke-miterlimit: 10;
        stroke-width: 4px;
      }
    </style>
  </defs>
  <path class="st0" d="M1701.9,5288.7c-12.9-5.9-22.3-14.8-41.1-32.6-15.5-14.6-23.1-22-29.1-32.6-4.8-8.4-7.7-19.3-13.4-41.1-5.1-19.3-8.1-30.8-10.3-47.4-2.1-15.7-2.4-27.3-2.8-44.1-.4-18.1,0-34.3.6-47.9-7.4,6.7-40.5,35.6-91.1,35.2-45.7-.3-76.4-24.2-84.8-31.3,0,9.9-.3,24.2-3,41.2-4.3,27.8-10.1,33.8-12.7,61.5-2.1,22-.2,36.6.6,42.3,1.5,9.6,2.2,8.5,5.4,24.2,3.1,15.3,5.9,29.8,5.8,47.7,0,9.1-.8,15.4-2.2,26.8-1.8,14.7-5,32-7.2,44.5h0c-4.2,27.8-8.3,37.4-6,55.7,1,7.7,2.4,19,9.4,30.9,13.6,22.8,37.9,30.4,50.6,34.3,25.2,7.8,46.9,4.9,62.9,2.7,14.3-2,26.2-5.5,30.7-6.9,5-1.6,12.9-4.1,22.7-8.8,8.8-4.3,14.8-8.3,18.8-10.9,26.9-17.8,40.3-26.7,45.7-29.2,19.2-8.7,19.5-2,42.8-12,6.7-2.9,20.8-9.5,36-21.4.4-.3,6.8-6.5,19.7-18.9,5.1-4.9,13.7-12.2,12.1-17.5-.3-1-1.3-3-1.2-5.8,0-2.4.8-3.5,1.1-5,.7-4.3-3.3-8.5-5.1-10.3-7.6-7.4-16.9-9.4-22.9-11,0,0-12-3.1-31.9-12.2h0Z"/>
  <path class="st0" d="M598,5301.9c-6,1.6-15.4,3.5-22.9,11-2.3,2.2-5.7,6.1-5.1,10.3.2,1.6,1,3.3.8,6.3-.1,2.3-.7,3.8-.9,4.5-1.5,5.6,8.1,13.6,12.1,17.5,12.9,12.4,19.3,18.6,19.7,18.9,15.1,12,29.3,18.5,36,21.4,22.7,9.7,22.6,3.3,42.8,12,14.2,6.1,27.5,14.9,46.3,27.4,3.2,2.1,8.9,6,17.1,10.3,9.3,4.9,17.1,7.9,21.4,9.4,2.8,1,14.8,5.2,30,7.7,29.5,4.8,53,.7,66-1.7,24.1-4.5,31.5-10.1,34.2-12.2,8.7-7.1,13.2-16,16.4-22,1.5-2.9,7.3-14.1,9.4-30.9,2.3-18.3-1.8-27.9-6-55.7,0,0-3.1-20.5-4.3-41.1-.1-2.5-.2-8-.4-19-.4-23.2-.6-34.8-.3-39.8,1-20.2,4.4-20.9,6.7-43.2,2.3-21.9.9-38.9.6-42.3-2.3-25.8-8.4-33.1-12.7-61.5-2.6-16.8-3-30.7-3-39.6-7.2,5.6-17.8,12.7-31.7,18.8-26.7,11.6-49.4,12.2-54.5,12.2-8.9.1-30-.5-54.2-10.7-15-6.3-26.2-14.2-33.6-20.2.9,9.6,1.6,21.6,1.6,35.2,0,5.7-.2,21.7-2.8,42.8-1.7,13.8-4.6,37-13.7,65.4-4.6,14.4-7.1,21.8-12.9,31.5-6.8,11.4-14.4,18.6-29.1,32.6-18.8,17.8-28.2,26.7-41.1,32.6-20,9.1-31.9,12.2-31.9,12.2h0Z"/>
</svg>