<?xml version="1.0" encoding="UTF-8"?><svg id="_Слой_1" xmlns="http://www.w3.org/2000/svg" viewBox="0 0 2300 5500"><defs><style>.cls-1{fill:#e0cdaf;}</style></defs><path class="cls-1" d="M1433.15,873.03c-5.52-3.5-12.66-8.06-20.97-13.44-50.98-32.97-64.41-43.88-69.36-61.35-.19-.66-.77-5.08-1.92-13.91-3.22-24.6-5.51-42.09-6.31-61.74-1.02-25.11-2.92-36.54.83-48.6,1.96-6.3,4.83-12.98,4.83-12.98,4.65-10.8,8.29-15.48,11.79-21.84,7.58-13.77,9.67-26.62,13.09-47.59.92-5.66,1.41-10.12,2.38-19.04,1.92-17.58,2.85-26.5,1.8-33.02-1.03-6.39-4.03-16.69-14.09-28.17-20.55,16.65-32.06,33.21-38.87,45.73-8.31,15.28-11.33,27.75-24.52,38.79-10.76,9.01-22.87,12.53-31.69,14.09h0c-27.34-3.86-31.35-15.52-57.04-13.84-15.35,1-16.09,5.31-32.65,5.94-26.34,1-29.74-9.68-50.46-7.42-13.96,1.52-17.65,6.94-28.11,11.28,0,0,0,0,0,0,0,0-7.13,3.17-14.84,4.04-4.61.52-19.05.3-32.88-8.85-12.55-8.3-16.84-18.03-28.69-39.45-18.87-34.11-28.3-51.16-33.51-50.3-10.8,1.79-27.41,58.48-5.86,101.64,0,0,27.36,54.79,24.54,74.5,0,.03-.2,1.31-.11,1.31h0s.03,0,.05.01c.44.31-2.67,6.23.67,55.73,1.39,20.58,2.32,21.46,1.23,28.23-4.62,28.84-27.51,46.72-50.77,67.26-22.25,19.64-44.2,30.92-59.02,37.26,53.72,23.41,153.73,58.6,282.79,55.23,116.11-3.03,205.99-35.97,257.68-59.49Z"/></svg>