<?xml version="1.0" encoding="UTF-8"?>
<svg id="_Слой_1" xmlns="http://www.w3.org/2000/svg" version="1.1" viewBox="0 0 2300 5500">
  <!-- Generator: Adobe Illustrator 29.1.0, SVG Export Plug-In . SVG Version: 2.1.0 Build 142)  -->
  <defs>
    <style>
      .st0 {
        fill: #9bc8ec;
        stroke: #9bc8ec;
        stroke-miterlimit: 10;
        stroke-width: 4px;
      }
    </style>
  </defs>
  <path class="st0" d="M1726.4,3037.2c-2-17.1-2.6-16.6-6.9-45.7-8.2-55.6-8.4-74.4-16-133.3-2-15.1-5.2-38.4-9.7-67.3-.2.2-.4.4-.6.7,0,.3,0,.7,0,1-32.5,38-62.5,67.9-86.5,90.2-42,38.9-74.1,62.3-82.9,68.6-4.3,3.1-12.1,8.7-17.6,12.2-16.2,10.6-36.1,19-58.1,24.6-2.8.9-5.6,1.7-8.3,2.4-31.1,7.9-60.1,8.5-60.1,8.5-50.3,1-88.3-13.4-110.4-22-20.1-7.8-47.9-20.9-78-43-1.8,4.2-4,10.6-4.9,18.4-1.6,13.4,1.3,23.1,3,30.9,3.6,17.1.3,21.6.4,47.8,0,10.7.6,15.1,5.9,59.6,12.1,101.9,13,112.5,13.1,124.8,0,3.7,0,12.1,1.4,23.4,1.7,14.1,4.3,21.9,7.5,35.8,3.7,16.1,4.7,24.8,6.8,37.2,6,35.3,16.2,70.9,25.1,106.1,0,0,13.8,54.3,23.8,107.6,9.1,48,12.7,85.6,19.5,158.7,3.9,41.9,8.5,96.8,12.2,161.7,28.9,11.5,55.1,18.6,76.8,23,17.4,3.5,52.3,9.6,97.1,8.9,16.4-.2,44.3-1.6,78.5-8,29.5-5.5,54.8-13.2,75.4-20.8.4-13.9,1.4-32.8,3.9-55.2,4.3-38.4,11-69.3,15.7-88.3,6.2-25.1,7.9-26.3,17.7-63.2,0,0,6.8-25.9,13.7-56.4,13.7-60.6,35.7-195,44-352.2,0,0,2.4-44.5,2.3-104.5,0-42.6-1.2-66.5-4.2-92.2h0Z"/>
  <path class="st0" d="M1143.9,2934.1c-8.8,5.6-21.4,13.3-37.1,21.4-28,14.5-65.7,33.6-116.1,40.2-38,5-67.8.9-77.1-.6-41.5-6.4-72.5-21.7-104.2-40-8-4.6-16.9-9.9-26.6-15.8-41.4-23.9-93.8-59.2-149.5-110.9-12.6,85.5-20,153.1-24.6,200.7-2.9,30.4-4.6,52.7-5.8,78.1-.7,16-2.5,61.7,0,123.4,1.7,42,4.4,70.8,9.1,119.3,8.4,86.9,12.6,130.3,24.6,183.8,2.3,10.3,2.2,9.2,16.8,71.6,15.5,66.2,13.6,58.9,19.7,84.2,5.6,23.2,8.3,33.9,12.6,54,6.9,32.1,9.2,47.7,9.8,51.9,3,20.8,4.3,38.3,4.9,50.5,34.7,14.2,95.7,33.9,173.6,32,68.1-1.6,121.8-19.1,154.8-32.7.2-34.9,1.4-80.1,5.6-132.6,2.9-36,8.3-89.4,21.1-164.3,22.8-134,33.9-129.7,56.9-258.6,23.5-131.5,13.3-143.2,28.6-218.3,3.1-15.1,11.7-54.9,7.1-106.8-1.2-13.2-2.9-23.9-4.1-30.6h0Z"/>
</svg>