<?xml version="1.0" encoding="UTF-8"?>
<svg id="_Слой_1" xmlns="http://www.w3.org/2000/svg" version="1.1" viewBox="0 0 2300 5500">
  <!-- Generator: Adobe Illustrator 29.1.0, SVG Export Plug-In . SVG Version: 2.1.0 Build 142)  -->
  <defs>
    <style>
      .st0 {
        fill: #9bc8ec;
        stroke: #9bc8ec;
        stroke-miterlimit: 10;
        stroke-width: 4px;
      }
    </style>
  </defs>
  <path class="st0" d="M1433.2,873c-5.5-3.5-12.7-8.1-21-13.4-51-33-64.4-43.9-69.4-61.3-.2-.7-.8-5.1-1.9-13.9-3.2-24.6-5.5-42.1-6.3-61.7-1-25.1-2.9-36.5.8-48.6,2-6.3,4.8-13,4.8-13,4.7-10.8,8.3-15.5,11.8-21.8,7.6-13.8,9.7-26.6,13.1-47.6.9-5.7,1.4-10.1,2.4-19,1.9-17.6,2.8-26.5,1.8-33-1-6.4-4-16.7-14.1-28.2-20.6,16.6-32.1,33.2-38.9,45.7-8.3,15.3-11.3,27.8-24.5,38.8-10.8,9-22.9,12.5-31.7,14.1h0c-27.3-3.9-31.3-15.5-57-13.8-15.3,1-16.1,5.3-32.7,5.9-26.3,1-29.7-9.7-50.5-7.4-14,1.5-17.7,6.9-28.1,11.3h0s-7.1,3.2-14.8,4c-4.6.5-19.1.3-32.9-8.8-12.6-8.3-16.8-18-28.7-39.5-18.9-34.1-28.3-51.2-33.5-50.3-10.8,1.8-27.4,58.5-5.9,101.6,0,0,27.4,54.8,24.5,74.5,0,0-.2,1.3-.1,1.3h0s0,0,0,0c.4.3-2.7,6.2.7,55.7,1.4,20.6,2.3,21.5,1.2,28.2-4.6,28.8-27.5,46.7-50.8,67.3-22.2,19.6-44.2,30.9-59,37.3,53.7,23.4,153.7,58.6,282.8,55.2,116.1-3,206-36,257.7-59.5h0Z"/>
</svg>