<?xml version="1.0" encoding="UTF-8"?>
<svg id="_Слой_1" xmlns="http://www.w3.org/2000/svg" version="1.1" viewBox="0 0 2300 5500">
  <!-- Generator: Adobe Illustrator 29.1.0, SVG Export Plug-In . SVG Version: 2.1.0 Build 142)  -->
  <defs>
    <style>
      .st0 {
        stroke: #9baa97;
      }

      .st0, .st1 {
        fill: #9bc8ec;
        stroke-miterlimit: 10;
        stroke-width: 4px;
      }

      .st1 {
        stroke: #9bc8ec;
      }
    </style>
  </defs>
  <path class="st1" d="M2038.1,1850c-8.3,15.6-22.3,37.7-44.9,59.3-9.8,9.4-26,24.6-50.4,36.6-38.8,19-76.7,18.6-98.8,16.2,6.8,23.4,9.6,42.7,10.9,55.6,2.3,22.5.4,29,3.3,59.9,1.2,12.5,3.3,27.5,6.4,46.5,3.9,23.5,10.7,40.2,13.4,48.3,17.4,53.2,26,79.8,32,95.1,9.9,25.6,31.7,66.7,75.1,147.9,11.9,22.4,26,50.6,54.3,107,28.3,56.4,15.2,30.6,23.8,56.5,7.6,22.9,11.8,42.7,14.1,56.5,6.4,3.6,35.4,18.7,72.1,9.7,39.2-9.7,58-39.9,61.4-45.6-5.9-19.1-13.9-48.2-19.8-84.4-4.7-28.7-3-30.7-9.3-91.7-7.3-71.3-11.1-83.2-14.2-124.9-.7-9.5-1.9-26.4-5.1-49.2-1.6-11.3-2.4-14.3-4.4-28.6-.7-5-2.5-17.9-5.1-42.6-4.5-41.8-3.3-42.3-5.9-55.5-.9-4.8-1.7-8-12.5-42.2-17.4-55.3-21.3-65.9-26-77.4-4.9-11.9-9-20.6-13.9-31.2-13-27.8-20.2-40-29.3-58.2-7.3-14.6-17.1-36-27.1-63.5h-.1Z"/>
  <path class="st0" d="M2183.7,2647h0c.1.1.2,0,.3,0h-.4,0Z"/>
  <path class="st1" d="M276.5,1892.3c-4.4,9.7-15.8,30.3-38.6,71.6,0,0-27.7,49.5-32.6,83.5-.5,3.5-.9,6.8-.9,6.8h0c-.3,2.5-1.3,5.6-3.3,9.1,0,1.5-.3,4.1-1,7.1-.9,4.3-2.3,7.4-2.6,8.1-3.1,7.4-8.8,32.8-12.3,60.6-2.2,17.3-1.6,20.6-4.5,30.2-2.4,7.8-4.2,10.5-5.8,18.6-1.4,7-1.2,11.2-1.3,23.8,0,16.4-.1,24.6-.5,30.2-.7,10.4-2.3,9.7-6,32.2-6.2,38.5-9.5,65.6-9.5,65.6-9.5,78-20.3,140.8-20.3,140.8-4.1,24.5-10.5,60.2-20.3,103.8,10.1,8.2,32.3,24.1,65.1,30.1,29.9,5.4,54.3,0,66.6-3.7,5.3-19.8,11.3-35.6,16.1-46.9,5.7-13.5,11.8-25.5,19.3-40.5,7.1-14.1,8.8-16.8,14.8-28.9,7.9-16.1,12.2-26.6,15.5-34.1,9.7-21.9,15.6-29.4,37.1-66.8,6.4-11.2,19.8-34.4,33.4-60.4,12.3-23.5,25.3-48.2,39.2-81.6,14.2-34.2,26-62.6,33.6-101.4,3-15.4,6.1-36.4,9.1-56.7,3.6-24.3,5.8-40.8,6.4-46.5,2.6-23.1,9.9-60,31.2-119.1-22.3,4.4-69.4,10.3-115.8-12.6-25.2-12.4-43.2-29.6-50.4-36.6-18.9-18.4-31-36.9-38.5-50.4-4.1,15-11.2,37.7-23.2,63.9h0v.2Z"/>
</svg>