<?xml version="1.0" encoding="UTF-8"?>
<svg id="_Слой_1" xmlns="http://www.w3.org/2000/svg" version="1.1" viewBox="0 0 2300 5500">
  <!-- Generator: Adobe Illustrator 29.1.0, SVG Export Plug-In . SVG Version: 2.1.0 Build 142)  -->
  <defs>
    <style>
      .st0 {
        fill: #9bc8ec;
        stroke: #9bc8ec;
        stroke-miterlimit: 10;
        stroke-width: 4px;
      }
    </style>
  </defs>
  <path class="st0" d="M1685.9,2729.8c-3.8-20.9-6.9-31.4-13.4-57.3-9.8-39.2-16.6-66.2-22.1-99.4-6.8-41.4-4.7-50.1-13.5-87.9-3.4-14.7-5.2-19.8-10.9-42.7-7.5-30.2-12.8-55.1-16.1-71.7-48,31.6-117.7,70.4-207.7,98.7-105.5,33.2-194.4,38.1-243.3,38.3-122.7.7-213.6-26.4-237.6-34-86.3-27-152.1-64.9-195.8-94.5-7.9,20.6-18.3,50.9-27.2,88.5-15.4,65-10.4,85.5-26.8,160.1-10.1,46-14.1,47.7-23.2,93.4-9.1,45.1-13,82.5-15,106.9,67.9,63.1,130.8,101.8,175.1,125,50.5,26.5,77.8,33.6,95.4,37.1,7.8,1.5,77.8,14.5,150.2-11,39.2-13.8,61.9-32.8,66.5-36.7,8.6-7.3,15-14.2,19.4-19.2,0-.1-.1-.2-.2-.3-8-18-16.2-36-24.7-53.9,0-36.9,0-73.9,0-110.9,0-27.4,22.4-49.8,49.8-49.8s49.8,22.4,49.8,49.8v112.6c-7.9,17.3-15.5,34.7-22.8,52.2l-1.9.6c-.1,0-.2-.2-.4-.3,36.7,32.9,72.4,48.8,95.1,56.7,80.4,28.3,169.4,17.3,221.6-16.7,5.4-3.6,13.2-9.1,17.6-12.2,8.8-6.3,40.9-29.6,82.9-68.6,24.1-22.3,54-52.2,86.5-90.2-.8-14.5-2.6-36.4-7.3-62.9h0Z"/>
</svg>