<?xml version="1.0" encoding="UTF-8"?>
<svg id="_Слой_1" xmlns="http://www.w3.org/2000/svg" version="1.1" viewBox="0 0 2300 5500">
  <!-- Generator: Adobe Illustrator 29.1.0, SVG Export Plug-In . SVG Version: 2.1.0 Build 142)  -->
  <defs>
    <style>
      .st0 {
        fill: #9bc8ec;
        stroke: #9bc8ec;
        stroke-miterlimit: 10;
        stroke-width: 4px;
      }
    </style>
  </defs>
  <path class="st0" d="M56.8,2854.5c11.9-47.1,22.2-83.6,32.2-124.4,7.8-31.8,9.3-41.4,9.9-52.9,1.2-21.3-1.6-31.3,1.6-49.8,3.4-19.3,11-34,16.5-43,10.3,8.1,31.8,22.8,62.9,29,30.9,6.1,56.2.9,68.8-2.6-1.4,5-3.4,12.3-5.8,21.1-12,45-11.8,51-10.2,56.9,4,14.2,11.5,11.2,17.9,30.4,2.3,7.1,3.8,14.9,9.2,29.4,1.5,4.1,2.9,7.5,3.8,9.7.5,17,.8,30.9,1.2,41.9.2,4.4.6,11.5-1.7,20.3-1.1,4.4-2.2,6.5-3.4,10.2-1.9,5.7-3.8,14.1-3.4,25.4-1.4,11.4-1.7,21.2-1.7,28.8,0,12,1,21.4,1.7,27.9,1,9.9,1.6,10.5,3.4,24.5,3.3,25.6,2.4,30,.9,33.9-1,2.5-5,12.2-15.2,16.1-1.1.4-10,3.6-18.8-.6-7.9-3.8-11.2-11.4-15-20.6-2.4-5.6-3.5-10.7-4.4-14.5-1.2-5.2-1.9-10-2.4-15.1-1.2-12.8-.2-22.1,0-27.1.4-9.2-.8-22.6-8.5-39.8-3.4-1-17.6-4.9-27.1,2.5-3.4,2.7-6,6.7-8,9.8-.9,1.3-4.2,6.6-6.6,13.6-3.9,11.7-1.3,17.6-3.2,30.8-3.1,21.7-10.6,23.3-8.5,37.2,1,6.8,3.1,8.7,5.1,20.3,1.3,7.8,1.6,14.3,1.7,18.6,4,5.4,10.5,13.4,19.5,22,22.2,21.4,34.7,22.5,39.8,37.2,4.6,13.4-5,16.3-.1,34.2,3.8,13.9,11,17.8,9.8,30-.3,3.2-.9,3.6-4.5,17.5-1.9,7.3-3.4,13.3-4.3,17.3-4.6-.2-9.8-1-15.2-2.5-22.4-6.4-35.8-22.6-41.5-30.5-4.7-4.8-12.1-12.2-21.2-21.2-16.5-16.2-24.1-22-35.7-35.4-12-13.9-14.9-20.3-15.8-22.5-5-11.5-4.7-20.2-5.5-30.2-.9-11.1-2.4-9.8-13.9-54.6-10.2-39.9-12.2-43-13-55.3-.9-15.6,1.4-26.4,8.5-54.2h0Z"/>
  <path class="st0" d="M2183.7,2647s0,0,0,.1c.1,0,.2-.1.3-.1h-.4Z"/>
  <path class="st0" d="M2262.2,2852.7c-11.9-47.1-22.2-83.6-32.2-124.4-7.8-31.8-9.3-41.4-9.9-52.9-1.5-27.6.4-35.5-1.6-49.8-.9-6.4-2.9-15.4-7.7-26.1-3.4,5.7-22.2,35.9-61.4,45.6-36.7,9.1-65.7-6.1-72.1-9.7,2.6,6.4,4.9,13.3,7,20.8.5,1.9,1,3.8,1.4,5.6v5.8c-.1,1.8-.4,5.4-1.2,10.1-.4,2.8-7.2,30-9.1,32.8-2.2,3.2-4.8,4.6-6.2,5.6,0,0-5,3.6-10,30.7-2,13.4-4,30.9-5.1,51.6-.4,4.9-.4,12.1,1.7,20.3,1.1,4.4,2.2,6.5,3.4,10.2,1.9,5.7,3.8,14.1,3.4,25.4,1.4,11.4,1.7,21.2,1.7,28.8,0,12-1,21.4-1.7,27.9-1.1,9.9-1.6,10.5-3.4,24.5-3.3,25.6-2.4,30-.9,33.9,1,2.5,5,12.2,15.2,16.1,1.1.4,10,3.6,18.8-.6,7.9-3.8,11.2-11.4,15-20.6,2.4-5.6,3.5-10.7,4.4-14.5,1.2-5.2,1.9-10,2.4-15.1,1.2-12.8.2-22.1,0-27.1-.4-9.2.8-22.6,8.5-39.8,9.4,2.5,17.2,4.1,22.7,5,6.2,1.1,8.5,1.3,11.1,3.4,4.7,3.8,6.3,10,7.8,17.4,2.9,14.5,1.5,19.1,3.2,30.8,3.1,21.7,10.6,23.3,8.5,37.2-1,6.8-3.1,8.7-5.1,20.3-1.3,7.8-1.6,14.3-1.7,18.6-4,5.4-10.5,13.4-19.5,22-22.2,21.4-34.7,22.5-39.8,37.2-2.6,7.4-.4,10.2.4,18.3.6,5.6.6,9.8-.3,15.9-1.8,12.7-9.2,16.7-12.3,25.1-2.8,7.3-2.8,19.4,11.4,39.7,4.6-.2,9.8-1,15.2-2.5,22.4-6.4,35.8-22.6,41.5-30.5,4.7-4.8,12.1-12.2,21.2-21.2,26.7-26.2,29.5-27.2,35.7-35.4,16.7-22.3,20.3-45.2,21.3-52.7.6-4.5.6-6.4,1.7-13.9.9-6.4,2-13.7,3.9-20.7,2.3-8.4,3.9-9.2,8.3-20,2.8-6.9,8.9-25,12.3-48.8.3-2,.5-4.1.6-6.4.9-15.6-1.4-26.4-8.5-54.2h0Z"/>
</svg>