<?xml version="1.0" encoding="UTF-8"?><svg id="_Слой_1" xmlns="http://www.w3.org/2000/svg" viewBox="0 0 2300 5500"><defs><style>.cls-1{fill:#9baa97;stroke:#9baa97;stroke-miterlimit:10;stroke-width:4px;}</style></defs><path class="cls-1" d="M1678.79,4219.76c-9.35-52.85-14.02-79.27-21.07-106.56-8.27-31.99-14.43-48.19-18.89-81.38-2.49-18.52-3.12-32.4-3.63-44.32-1.41-32.88-3.25-79.29-5.08-137.1-16.55,5.97-36,11.92-58.06,16.78-1.08.24-2.16.48-3.25.71-.09.02-.18.04-.27.06-24.62,5.28-52.93,9.23-84.32,10.01-1.76.05-3.43.08-4.98.1-44.79.67-79.75-5.36-97.14-8.9-19.08-3.88-41.76-9.8-66.66-19.07-3.29-1.2-6.43-2.4-9.4-3.56.18,6.17.66,15.84,2.18,27.61,1.88,14.63,4.43,25.32,5.53,30.01,7.89,33.68,6.09,36.27,17.37,86.83,7.27,32.58,10.99,49.05,15.44,57.56,3.76,7.19,8.49,14.48,10.42,26.46,1.65,10.2.28,17.68-2.26,33.1-2.18,13.23-3.56,26.61-6.24,39.75-5.13,25.16-8.07,52.47-13.89,106.52-7.28,67.59-10.92,101.38-9.35,134.18,2.02,42.1,8.87,73.54,15.97,106.07,8.32,38.15,21.04,83.52,35.36,134.58,5.52,19.68,9.54,33.51,13.04,54.4,4.75,28.41,2.84,35.91,7.99,64.67,4.72,26.3,8.09,29.92,13.19,54.28,6.2,29.62,6.91,51.51,7.89,74.33,1.85,43.44,4.98,98.52,9.22,168.6,7.19,6.06,46.8,38.22,102.65,31.93,39.46-4.44,65.48-25.64,74.88-34.14,2.2-41.63,5.74-75.46,8.72-99.55,2.29-18.48,4.82-35.83,8.72-62.49,4.53-30.98,6.55-42.95,10.17-66.85,8.35-55.06,7.07-53.94,14.53-103.91,7.2-48.23,13.89-86.1,17.44-106.09,7.63-43.03,7.63-39.14,13.08-70.48,11.55-66.39,17.33-99.59,18.28-140.26.92-39.54-2.49-71.38-5-94.06-2.63-23.76-5.93-42.45-12.55-79.84Z"/><path class="cls-1" d="M1024.51,3847.13c-.76.3-1.52.61-2.3.92-.43.17-.88.34-1.32.51-.73.28-1.46.57-2.2.86-.47.18-.95.36-1.42.54-.74.28-1.48.56-2.24.85-.49.18-.98.36-1.48.55-.77.29-1.54.57-2.33.86-.5.18-1,.36-1.51.54-.81.29-1.62.58-2.45.87-.5.18-1.01.35-1.51.53-.86.3-1.72.6-2.59.89-.5.17-1,.34-1.5.51-.91.31-1.83.61-2.75.92-.49.16-.98.32-1.47.48-.97.32-1.96.63-2.95.95-.47.15-.93.3-1.4.45-1.06.33-2.13.66-3.21.99-.42.13-.84.26-1.27.39-1.18.36-2.38.71-3.59,1.06-.34.1-.68.2-1.02.3-1.39.4-2.8.8-4.22,1.2-.18.05-.35.1-.52.15-4.88,1.36-9.94,2.67-15.18,3.92-.43.1-.87.2-1.31.31-1.28.3-2.55.6-3.85.89-.63.14-1.28.28-1.91.42-1.1.24-2.21.49-3.32.73-.78.17-1.57.33-2.35.49-.99.2-1.97.41-2.97.61-.89.18-1.79.36-2.7.53-.89.17-1.79.34-2.69.51-1.01.19-2.03.38-3.06.56-.78.14-1.56.28-2.34.41-1.15.2-2.31.4-3.48.59-.63.1-1.26.2-1.89.31-1.33.21-2.66.43-4.01.63-.38.06-.76.11-1.14.17-21.72,3.24-45.62,5.11-71.39,4.63-68.29-1.28-122.19-18.58-155.23-32.09,3.24,21.65,6.33,54.52,2.52,94.2-.06.6-.13,1.21-.34,3.18-3.38,32.43-3.97,49.51-5.31,64.11-.89,9.69-3.36,23.09-8.32,49.9-5.6,30.3-9.25,47.02-15.8,79.01-8.66,42.26-12.99,63.39-16.63,84-5.65,31.97-9.94,56.25-13.03,88.46-3.89,40.56-3.83,72.61-3.64,87.32.62,48.46,7.33,93.1,20.75,182.38,2.17,14.41,3.28,21.79,5.11,32.86,9.93,59.86,15.26,71.91,20.15,110.53,3.47,27.44.8,21.51,4.92,58.67,3.14,28.29,5.75,41.24,12.13,82.47,5.94,38.41,9.96,67.77,12.13,83.68,3.89,28.51,8.34,63.17,12.85,102.83,10.94,8.84,34.08,24.94,67.29,29.65,57.76,8.19,100.44-24.53,108.66-31.09-.31-39.46,1.06-73.97,2.89-102.25,1.37-21.18,4.76-60.78,11.58-110.93,3.13-23.06,3.37-19.7,16.4-95.5,14.17-82.4,13.27-82.75,18.33-105.14,12.06-53.41,17.42-52.51,30.87-107.07,8.19-33.24,18-73.86,21.22-127.33,3.41-56.61-1.91-105.29-3.86-122.51-1.99-17.59-4.44-33.11-8.68-72.35-5.08-46.98-3.61-43.46-5.79-53.05-7.69-33.89-19.4-48.45-12.54-70.42,2.75-8.8,4.93-7.42,10.65-20.92,9.21-21.71,9.83-40.04,10.57-50.46,2.4-33.82,9.45-32.27,22.19-95.5,3.24-16.07,7.56-39.87,11.1-69.44-1.06.44-2.14.88-3.23,1.32-.35.14-.72.29-1.08.43Z"/></svg>