<?xml version="1.0" encoding="UTF-8"?><svg id="_Слой_1" xmlns="http://www.w3.org/2000/svg" viewBox="0 0 2300 5500"><defs><style>.cls-1{fill:#9baa97;stroke:#9baa97;stroke-miterlimit:10;stroke-width:4px;}</style></defs><path class="cls-1" d="M2183.7,2646.98s.02.07.03.14c.11-.04.24-.1.34-.14h-.37Z"/><path class="cls-1" d="M1666.34,983.52c-14.48-3.84-22.1-4.92-29.65-7.09-33.54-9.63-56.56-21.61-101.9-46.53-40.66-22.34-75.09-41.74-101.63-56.86-51.42,23.37-139.35,55.46-252.65,59.09-130.01,4.17-230.91-31.14-284.94-54.58-22.11,8.75-40.33,17.22-53.93,23.95-7.65,3.79-30.08,15.05-58.85,32.49-34.07,20.65-29.01,20.85-43.45,27.21-29.79,13.13-62.9,22.75-62.9,22.75-11.54,3.4-25.83,7.44-42.39,11.72v582.47c.51,5,1.27,11.82,2.33,21.01h1062.56v-605.99c-9.84-3.21-20.73-6.49-32.59-9.64Z"/></svg>