<?xml version="1.0" encoding="UTF-8"?><svg id="_Слой_1" xmlns="http://www.w3.org/2000/svg" viewBox="0 0 2300 5500"><defs><style>.cls-1{fill:#e0cdaf;}</style></defs><path class="cls-1" d="M634.04,1598.87c13.88,51.17,18.47,71.03,18.66,75.69.01.33.1,2.63.46,5.74.33,2.8.9,6.34,1.96,10.34,2.7,10.25,5.96,13.67,10.07,22.9,5.88,13.2,3.51,15.82,9.16,32.97,4.04,12.28,8.38,20.41,10.99,25.64,13.83,27.76,29.27,75.01,38.78,104.09,0,0,25.15,78.94,31.03,124.74.48,3.76.82,7.15,1.11,10.52,2.06,23.87,2.62,42.59,2.68,50.89.1,13.76.19,38.8-4.08,71.19-.7,5.27-.6,3.9-5.79,34.76-7.01,41.68-10.52,62.64-10.62,68.55-.49,27.41,5.48,32.04,2.9,61.79-1.05,12.11-3.25,25.31-3.86,28.96-3.3,19.8-6.77,32.36-7.72,35.72-1.8,6.4-3.53,11.69-4.83,15.45,39.51,27.75,96.42,61.63,170.09,87.5,78.06,27.41,147.35,36.16,197.14,38.62v.33c6.81.46,15.86,1.14,26.59,1.6,9.83.46,25.69,1.14,46.25,1.03,10.39,0,23.35-.34,38.43-1.25v-.61c38.62-1.93,81.9-6.87,128.48-16.93,118.96-25.68,211.06-74.24,273.53-115.11-2.61-10.55-5.6-24.66-7.72-41.51-.75-5.99-2.68-22.5-2.9-44.41-.23-23.37,1.77-23.58.97-44.41-.47-12.05-1.53-22.16-3.06-36.7-1.18-11.25-2.09-19.89-3.7-29.92-3.34-20.86-6.91-30.22-9.65-42.48-4.09-18.28-3.63-33.26-2.69-63.21.67-21.54,1.87-17.49,7.52-76.78,3.51-36.85,3.49-43.13,7.72-56.96,4.31-14.08,7.6-18.29,15.99-42.44,5.37-15.46,6.16-19.86,12.07-39.18,7.23-23.63,7.34-21.2,25.04-73.82.61-1.8.13-.39,17.38-52.13,3.22-9.65,6.45-19.3,9.65-28.96,6.38-19.25,15.45-48.34,26.72-90.42-152.32,21.89-331.91,37.38-533.2,35.13-200.96-2.24-379.9-21.68-531.52-46.9Z"/></svg>