<?xml version="1.0" encoding="UTF-8"?>
<svg id="_Слой_1" xmlns="http://www.w3.org/2000/svg" version="1.1" viewBox="0 0 2300 5500">
  <!-- Generator: Adobe Illustrator 29.1.0, SVG Export Plug-In . SVG Version: 2.1.0 Build 142)  -->
  <defs>
    <style>
      .st0 {
        fill: #9bc8ec;
        stroke: #9bc8ec;
        stroke-miterlimit: 10;
        stroke-width: 4px;
      }
    </style>
  </defs>
  <path class="st0" d="M2183.7,2647s0,0,0,.1c.1,0,.2-.1.3-.1h-.4Z"/>
  <path class="st0" d="M1666.3,983.5c-14.5-3.8-22.1-4.9-29.7-7.1-33.5-9.6-56.6-21.6-101.9-46.5-40.7-22.3-75.1-41.7-101.6-56.9-51.4,23.4-139.3,55.5-252.7,59.1-130,4.2-230.9-31.1-284.9-54.6-22.1,8.8-40.3,17.2-53.9,24-7.7,3.8-30.1,15-58.8,32.5-34.1,20.7-29,20.8-43.5,27.2-29.8,13.1-62.9,22.8-62.9,22.8-11.5,3.4-25.8,7.4-42.4,11.7v582.5c.5,5,1.3,11.8,2.3,21h1062.6v-606c-9.8-3.2-20.7-6.5-32.6-9.6h0Z"/>
</svg>