<?xml version="1.0" encoding="UTF-8"?>
<svg id="_Слой_1" xmlns="http://www.w3.org/2000/svg" version="1.1" viewBox="0 0 2300 5500">
  <!-- Generator: Adobe Illustrator 29.1.0, SVG Export Plug-In . SVG Version: 2.1.0 Build 142)  -->
  <defs>
    <style>
      .st0 {
        fill: #9bc8ec;
        stroke: #9bc8ec;
        stroke-miterlimit: 10;
        stroke-width: 4px;
      }
    </style>
  </defs>
  <path class="st0" d="M1678.8,4219.8c-9.3-52.9-14-79.3-21.1-106.6-8.3-32-14.4-48.2-18.9-81.4-2.5-18.5-3.1-32.4-3.6-44.3-1.4-32.9-3.2-79.3-5.1-137.1-16.6,6-36,11.9-58.1,16.8-1.1.2-2.2.5-3.2.7h-.3c-24.6,5.3-52.9,9.2-84.3,10-1.8,0-3.4,0-5,.1-44.8.7-79.8-5.4-97.1-8.9-19.1-3.9-41.8-9.8-66.7-19.1-3.3-1.2-6.4-2.4-9.4-3.6.2,6.2.7,15.8,2.2,27.6,1.9,14.6,4.4,25.3,5.5,30,7.9,33.7,6.1,36.3,17.4,86.8,7.3,32.6,11,49.1,15.4,57.6,3.8,7.2,8.5,14.5,10.4,26.5,1.7,10.2.3,17.7-2.3,33.1-2.2,13.2-3.6,26.6-6.2,39.8-5.1,25.2-8.1,52.5-13.9,106.5-7.3,67.6-10.9,101.4-9.3,134.2,2,42.1,8.9,73.5,16,106.1,8.3,38.1,21,83.5,35.4,134.6,5.5,19.7,9.5,33.5,13,54.4,4.8,28.4,2.8,35.9,8,64.7,4.7,26.3,8.1,29.9,13.2,54.3,6.2,29.6,6.9,51.5,7.9,74.3,1.8,43.4,5,98.5,9.2,168.6,7.2,6.1,46.8,38.2,102.7,31.9,39.5-4.4,65.5-25.6,74.9-34.1,2.2-41.6,5.7-75.5,8.7-99.5,2.3-18.5,4.8-35.8,8.7-62.5,4.5-31,6.6-43,10.2-66.9,8.3-55.1,7.1-53.9,14.5-103.9,7.2-48.2,13.9-86.1,17.4-106.1,7.6-43,7.6-39.1,13.1-70.5,11.6-66.4,17.3-99.6,18.3-140.3.9-39.5-2.5-71.4-5-94.1-2.6-23.8-5.9-42.5-12.6-79.8h0Z"/>
  <path class="st0" d="M1024.5,3847.1c-.8.3-1.5.6-2.3.9-.4.2-.9.3-1.3.5-.7.3-1.5.6-2.2.9-.5.2-1,.4-1.4.5-.7.3-1.5.6-2.2.9-.5.2-1,.4-1.5.6-.8.3-1.5.6-2.3.9-.5.2-1,.4-1.5.5-.8.3-1.6.6-2.5.9-.5.2-1,.4-1.5.5-.9.3-1.7.6-2.6.9-.5.2-1,.3-1.5.5-.9.3-1.8.6-2.8.9-.5.2-1,.3-1.5.5-1,.3-2,.6-3,.9-.5.1-.9.3-1.4.4-1.1.3-2.1.7-3.2,1-.4.1-.8.3-1.3.4-1.2.4-2.4.7-3.6,1.1-.3.1-.7.2-1,.3-1.4.4-2.8.8-4.2,1.2-.2,0-.3.1-.5.1-4.9,1.4-9.9,2.7-15.2,3.9-.4.1-.9.2-1.3.3-1.3.3-2.5.6-3.8.9-.6.1-1.3.3-1.9.4-1.1.2-2.2.5-3.3.7-.8.2-1.6.3-2.3.5-1,.2-2,.4-3,.6-.9.2-1.8.4-2.7.5-.9.2-1.8.3-2.7.5-1,.2-2,.4-3.1.6-.8.1-1.6.3-2.3.4-1.2.2-2.3.4-3.5.6-.6.1-1.3.2-1.9.3-1.3.2-2.7.4-4,.6-.4,0-.8.1-1.1.2-21.7,3.2-45.6,5.1-71.4,4.6-68.3-1.3-122.2-18.6-155.2-32.1,3.2,21.6,6.3,54.5,2.5,94.2,0,.6,0,1.2-.3,3.2-3.4,32.4-4,49.5-5.3,64.1-.9,9.7-3.4,23.1-8.3,49.9-5.6,30.3-9.2,47-15.8,79-8.7,42.3-13,63.4-16.6,84-5.7,32-9.9,56.2-13,88.5-3.9,40.6-3.8,72.6-3.6,87.3.6,48.5,7.3,93.1,20.8,182.4,2.2,14.4,3.3,21.8,5.1,32.9,9.9,59.9,15.3,71.9,20.2,110.5,3.5,27.4.8,21.5,4.9,58.7,3.1,28.3,5.8,41.2,12.1,82.5,5.9,38.4,10,67.8,12.1,83.7,3.9,28.5,8.3,63.2,12.8,102.8,10.9,8.8,34.1,24.9,67.3,29.6,57.8,8.2,100.4-24.5,108.7-31.1-.3-39.5,1.1-74,2.9-102.2,1.4-21.2,4.8-60.8,11.6-110.9,3.1-23.1,3.4-19.7,16.4-95.5,14.2-82.4,13.3-82.8,18.3-105.1,12.1-53.4,17.4-52.5,30.9-107.1,8.2-33.2,18-73.9,21.2-127.3,3.4-56.6-1.9-105.3-3.9-122.5-2-17.6-4.4-33.1-8.7-72.4-5.1-47-3.6-43.5-5.8-53-7.7-33.9-19.4-48.5-12.5-70.4,2.8-8.8,4.9-7.4,10.7-20.9,9.2-21.7,9.8-40,10.6-50.5,2.4-33.8,9.5-32.3,22.2-95.5,3.2-16.1,7.6-39.9,11.1-69.4-1.1.4-2.1.9-3.2,1.3-.3.1-.7.3-1.1.4h-.3Z"/>
</svg>