<?xml version="1.0" encoding="UTF-8"?><svg id="_Слой_1" xmlns="http://www.w3.org/2000/svg" viewBox="0 0 2300 5500"><defs><style>.cls-1{fill:#e0cdaf;}</style></defs><path class="cls-1" d="M1701.87,5288.68c-12.93-5.89-22.33-14.78-41.14-32.57-15.47-14.64-23.14-22.03-29.14-32.57-4.79-8.42-7.65-19.32-13.36-41.14-5.05-19.31-8.06-30.8-10.32-47.37-2.14-15.73-2.42-27.33-2.81-44.09-.43-18.14-.05-34.28.64-47.92-7.36,6.74-40.48,35.58-91.07,35.24-45.73-.3-76.4-24.24-84.81-31.29.1,9.89-.33,24.19-2.96,41.16-4.32,27.84-10.06,33.8-12.73,61.46-2.13,22.04-.25,36.6.6,42.26,1.46,9.64,2.25,8.55,5.38,24.2,3.06,15.29,5.88,29.79,5.8,47.71-.04,9.1-.82,15.39-2.23,26.75-1.82,14.72-4.97,32.02-7.23,44.46h0c-4.18,27.81-8.28,37.41-6,55.71.97,7.73,2.38,19.04,9.43,30.85,13.59,22.78,37.94,30.35,50.56,34.28,25.21,7.84,46.89,4.9,62.92,2.72,14.32-1.95,26.24-5.5,30.72-6.91,4.98-1.57,12.92-4.09,22.66-8.83,8.79-4.28,14.85-8.32,18.82-10.94,26.88-17.82,40.32-26.73,45.71-29.17,19.24-8.7,19.47-2.03,42.85-12,6.74-2.87,20.85-9.45,35.99-21.43.36-.29,6.81-6.48,19.71-18.85,5.1-4.9,13.7-12.19,12.12-17.5-.31-1.04-1.28-2.95-1.19-5.83.08-2.38.82-3.48,1.07-4.96.73-4.31-3.33-8.51-5.14-10.28-7.55-7.41-16.88-9.4-22.91-10.96,0,0-11.99-3.09-31.94-12.18Z"/><path class="cls-1" d="M597.97,5301.88c-6.03,1.56-15.36,3.55-22.91,10.96-2.27,2.23-5.65,6.08-5.14,10.28.19,1.58.95,3.29.79,6.27-.13,2.3-.72,3.8-.91,4.51-1.49,5.56,8.12,13.65,12.12,17.5,12.9,12.38,19.35,18.57,19.71,18.85,15.14,11.98,29.26,18.55,35.99,21.43,22.67,9.66,22.57,3.28,42.85,12,14.21,6.11,27.49,14.94,46.28,27.42,3.17,2.11,8.87,5.95,17.14,10.28,9.27,4.86,17.06,7.86,21.43,9.43,2.81,1.01,14.85,5.24,30,7.71,29.55,4.82,53.04.69,65.99-1.71,24.14-4.48,31.54-10.07,34.18-12.23,8.73-7.15,13.25-15.95,16.38-22.05,1.48-2.88,7.33-14.09,9.43-30.85,2.29-18.3-1.82-27.9-6-55.71,0,0-3.08-20.5-4.29-41.14-.14-2.47-.22-7.97-.4-18.96-.38-23.2-.57-34.8-.33-39.82.98-20.21,4.37-20.9,6.73-43.2,2.32-21.92.91-38.85.6-42.26-2.3-25.82-8.36-33.12-12.73-61.46-2.6-16.8-3.01-30.7-2.98-39.56-7.18,5.57-17.76,12.73-31.67,18.8-26.67,11.63-49.43,12.19-54.49,12.25-8.94.11-29.99-.54-54.18-10.72-15-6.31-26.19-14.18-33.61-20.24.91,9.65,1.64,21.57,1.58,35.23-.03,5.66-.24,21.66-2.78,42.82-1.65,13.76-4.56,36.98-13.71,65.4-4.63,14.37-7.08,21.84-12.86,31.45-6.83,11.37-14.36,18.59-29.14,32.57-18.8,17.79-28.2,26.68-41.14,32.57-19.95,9.08-31.94,12.18-31.94,12.18Z"/></svg>