<?xml version="1.0" encoding="UTF-8"?><svg id="_Слой_1" xmlns="http://www.w3.org/2000/svg" viewBox="0 0 2300 5500"><defs><style>.cls-1,.cls-2,.cls-3{fill:#d4deeb;}.cls-2{opacity:.5;}.cls-2,.cls-3{isolation:isolate;}.cls-3,.cls-4{opacity:.2;}.cls-5{fill:#fff;}</style></defs><path class="cls-3" d="M1685.92,2729.75c-3.75-20.92-6.95-31.4-13.43-57.28-9.81-39.22-16.56-66.21-22.05-99.37-6.85-41.4-4.72-50.07-13.5-87.85-3.42-14.7-5.23-19.8-10.92-42.66-7.52-30.22-12.76-55.07-16.06-71.67-48.02,31.6-117.72,70.36-207.67,98.67-105.49,33.2-194.42,38.06-243.31,38.33-122.7.66-213.59-26.45-237.6-33.96-86.32-27.02-152.1-64.9-195.77-94.49-7.86,20.57-18.33,50.9-27.23,88.51-15.39,64.99-10.42,85.51-26.78,160.13-10.09,46.02-14.06,47.69-23.25,93.4-9.06,45.07-13.05,82.47-15,106.93,67.91,63.11,130.81,101.75,175.07,125.02,50.47,26.54,77.76,33.65,95.44,37.12,7.83,1.54,77.78,14.47,150.21-11.02,39.18-13.79,61.87-32.76,66.53-36.74,8.55-7.3,15-14.16,19.36-19.16-.07-.11-.14-.23-.21-.34-7.98-17.99-16.21-35.98-24.67-53.94,0-36.95.01-73.9.02-110.85,0-27.38,22.41-49.79,49.79-49.79s49.79,22.41,49.79,49.79v112.61c-7.88,17.33-15.48,34.74-22.79,52.18l-1.87.59c-.12-.09-.25-.18-.38-.27,36.69,32.85,72.37,48.76,95.06,56.73,80.39,28.26,169.44,17.3,221.64-16.74,5.45-3.56,13.22-9.14,17.55-12.25,8.78-6.31,40.88-29.64,82.86-68.57,24.08-22.33,54.04-52.24,86.53-90.21-.79-14.47-2.61-36.43-7.35-62.86Z"/><path class="cls-2" d="M1701.87,5288.68c-12.93-5.89-22.33-14.78-41.14-32.57-15.47-14.64-23.14-22.03-29.14-32.57-4.79-8.42-7.65-19.32-13.36-41.14-5.05-19.31-8.06-30.8-10.32-47.37-2.14-15.73-2.42-27.33-2.81-44.09-.43-18.14-.05-34.28.64-47.92-7.36,6.74-40.48,35.58-91.07,35.24-45.73-.3-76.4-24.24-84.81-31.29.1,9.89-.33,24.19-2.96,41.16-4.32,27.84-10.06,33.8-12.73,61.46-2.13,22.04-.25,36.6.6,42.26,1.46,9.64,2.25,8.55,5.38,24.2,3.06,15.29,5.88,29.79,5.8,47.71-.04,9.1-.82,15.39-2.23,26.75-1.82,14.72-4.97,32.02-7.23,44.46h0c-4.18,27.81-8.28,37.41-6,55.71.97,7.73,2.38,19.04,9.43,30.85,13.59,22.78,37.94,30.35,50.56,34.28,25.21,7.84,46.89,4.9,62.92,2.72,14.32-1.95,26.24-5.5,30.72-6.91,4.98-1.57,12.92-4.09,22.66-8.83,8.79-4.28,14.85-8.32,18.82-10.94,26.88-17.82,40.32-26.73,45.71-29.17,19.24-8.7,19.47-2.03,42.85-12,6.74-2.87,20.85-9.45,35.99-21.43.36-.29,6.81-6.48,19.71-18.85,5.1-4.9,13.7-12.19,12.12-17.5-.31-1.04-1.28-2.95-1.19-5.83.08-2.38.82-3.48,1.07-4.96.73-4.31-3.33-8.51-5.14-10.28-7.55-7.41-16.88-9.4-22.91-10.96,0,0-11.99-3.09-31.94-12.18Z"/><path class="cls-2" d="M597.97,5301.88c-6.03,1.56-15.36,3.55-22.91,10.96-2.27,2.23-5.65,6.08-5.14,10.28.19,1.58.95,3.29.79,6.27-.13,2.3-.72,3.8-.91,4.51-1.49,5.56,8.12,13.65,12.12,17.5,12.9,12.38,19.35,18.57,19.71,18.85,15.14,11.98,29.26,18.55,35.99,21.43,22.67,9.66,22.57,3.28,42.85,12,14.21,6.11,27.49,14.94,46.28,27.42,3.17,2.11,8.87,5.95,17.14,10.28,9.27,4.86,17.06,7.86,21.43,9.43,2.81,1.01,14.85,5.24,30,7.71,29.55,4.82,53.04.69,65.99-1.71,24.14-4.48,31.54-10.07,34.18-12.23,8.73-7.15,13.25-15.95,16.38-22.05,1.48-2.88,7.33-14.09,9.43-30.85,2.29-18.3-1.82-27.9-6-55.71,0,0-3.08-20.5-4.29-41.14-.14-2.47-.22-7.97-.4-18.96-.38-23.2-.57-34.8-.33-39.82.98-20.21,4.37-20.9,6.73-43.2,2.32-21.92.91-38.85.6-42.26-2.3-25.82-8.36-33.12-12.73-61.46-2.6-16.8-3.01-30.7-2.98-39.56-7.18,5.57-17.76,12.73-31.67,18.8-26.67,11.63-49.43,12.19-54.49,12.25-8.94.11-29.99-.54-54.18-10.72-15-6.31-26.19-14.18-33.61-20.24.91,9.65,1.64,21.57,1.58,35.23-.03,5.66-.24,21.66-2.78,42.82-1.65,13.76-4.56,36.98-13.71,65.4-4.63,14.37-7.08,21.84-12.86,31.45-6.83,11.37-14.36,18.59-29.14,32.57-18.8,17.79-28.2,26.68-41.14,32.57-19.95,9.08-31.94,12.18-31.94,12.18Z"/><path class="cls-1" d="M1630.11,3850.16c-34.01,12.45-86.13,26.99-150.88,27.89-76.47,1.06-137-17.35-173.2-31.52.18,6.17.66,15.84,2.18,27.61,1.88,14.63,4.43,25.32,5.53,30.01,7.89,33.68,6.09,36.27,17.37,86.83,7.27,32.58,10.99,49.05,15.44,57.56,3.76,7.19,8.49,14.48,10.42,26.46,1.65,10.2.28,17.68-2.26,33.1-2.18,13.23-3.56,26.61-6.24,39.75-5.13,25.16-8.07,52.47-13.89,106.52-7.28,67.59-10.92,101.38-9.35,134.18,2.02,42.1,8.87,73.54,15.97,106.07,8.32,38.15,21.04,83.52,35.36,134.58,5.52,19.68,9.54,33.51,13.04,54.4,4.75,28.41,2.84,35.91,7.99,64.67,4.72,26.3,8.09,29.92,13.19,54.28,6.2,29.62,6.91,51.51,7.89,74.33,1.85,43.44,4.98,98.52,9.22,168.6,7.19,6.06,46.8,38.22,102.65,31.93,39.46-4.44,65.48-25.64,74.88-34.14,2.2-41.63,5.74-75.46,8.72-99.55,2.29-18.48,4.82-35.83,8.72-62.49,4.53-30.98,6.55-42.95,10.17-66.85,8.35-55.06,7.07-53.94,14.53-103.91,7.2-48.23,13.89-86.1,17.44-106.09,7.63-43.03,7.63-39.14,13.08-70.48,11.55-66.39,17.33-99.59,18.28-140.26.92-39.54-2.49-71.38-5-94.06-2.63-23.76-5.93-42.45-12.55-79.84-9.35-52.85-14.02-79.27-21.07-106.56-8.27-31.99-14.43-48.19-18.89-81.38-2.49-18.52-3.12-32.4-3.63-44.32-1.41-32.93-3.25-79.42-5.09-137.33Z"/><path class="cls-3" d="M56.81,2854.52c11.91-47.08,22.19-83.64,32.16-124.4,7.77-31.78,9.3-41.39,9.95-52.94,1.19-21.34-1.64-31.33,1.6-49.76,3.39-19.31,11.01-34.01,16.54-42.99,10.32,8.13,31.76,22.81,62.95,29,30.92,6.14,56.15.9,68.78-2.63-1.41,5.04-3.43,12.34-5.79,21.15-12.03,45.02-11.81,50.98-10.16,56.9,3.99,14.24,11.52,11.23,17.88,30.44,2.33,7.06,3.78,14.93,9.21,29.45,1.54,4.12,2.91,7.47,3.84,9.68.45,17.01.78,30.94,1.24,41.94.18,4.4.57,11.48-1.69,20.31-1.11,4.35-2.19,6.52-3.39,10.16-1.88,5.71-3.76,14.1-3.39,25.39-1.38,11.45-1.71,21.24-1.69,28.77.04,12.04,1,21.36,1.69,27.93,1.05,9.9,1.57,10.47,3.39,24.54,3.31,25.62,2.41,30.02.85,33.85-1.03,2.52-4.98,12.2-15.23,16.08-1.09.41-10,3.63-18.82-.61-7.94-3.81-11.17-11.44-15.03-20.55-2.39-5.64-3.53-10.66-4.42-14.54-1.18-5.16-1.89-10.03-2.35-15.08-1.16-12.82-.22-22.05,0-27.08.4-9.24-.84-22.56-8.46-39.77-3.45-1.03-17.65-4.89-27.08,2.54-3.42,2.69-6.04,6.73-8.03,9.81-.85,1.31-4.18,6.56-6.55,13.55-3.95,11.66-1.28,17.56-3.19,30.8-3.13,21.68-10.55,23.31-8.46,37.24,1.01,6.75,3.1,8.7,5.08,20.31,1.32,7.76,1.64,14.26,1.69,18.62,4.01,5.35,10.46,13.35,19.46,22,22.2,21.35,34.69,22.46,39.77,37.24,4.61,13.4-5.01,16.26-.14,34.21,3.78,13.89,10.97,17.83,9.82,30-.31,3.24-.88,3.61-4.54,17.53-1.91,7.27-3.36,13.27-4.3,17.27-4.61-.25-9.76-.98-15.23-2.54-22.45-6.39-35.84-22.59-41.47-30.47-4.73-4.82-12.06-12.22-21.16-21.16-16.48-16.19-24.14-22.03-35.66-35.44-11.97-13.93-14.87-20.3-15.82-22.5-4.97-11.52-4.68-20.24-5.46-30.18-.89-11.15-2.43-9.83-13.89-54.65-10.2-39.9-12.23-43.02-12.96-55.26-.93-15.62,1.44-26.41,8.46-54.16Z"/><path class="cls-1" d="M2038.13,1850.04c-8.3,15.55-22.28,37.65-44.87,59.28-9.77,9.36-26.04,24.63-50.4,36.57-38.77,19-76.65,18.56-98.75,16.2,6.77,23.45,9.58,42.7,10.9,55.64,2.3,22.53.42,29,3.27,59.91,1.15,12.46,3.27,27.48,6.4,46.47,3.87,23.51,10.74,40.22,13.38,48.31,17.36,53.19,26.04,79.78,31.96,95.13,9.88,25.62,31.74,66.73,75.07,147.9,11.94,22.36,26.04,50.58,54.26,107.02,6.01,12.02,15.2,30.59,23.78,56.49,7.61,22.95,11.75,42.67,14.12,56.49,6.42,3.56,35.43,18.73,72.09,9.66,39.2-9.7,58.02-39.89,61.45-45.63-5.87-19.05-13.87-48.17-19.83-84.44-4.72-28.71-3.03-30.69-9.26-91.73-7.27-71.27-11.07-83.21-14.24-124.88-.72-9.5-1.86-26.36-5.14-49.2-1.62-11.28-2.37-14.29-4.41-28.64-.71-5.02-2.5-17.88-5.14-42.59-4.46-41.79-3.33-42.27-5.89-55.48-.94-4.84-1.73-8.04-12.46-42.18-17.4-55.31-21.33-65.95-26.04-77.4-4.9-11.91-8.96-20.6-13.9-31.18-12.97-27.76-20.24-39.98-29.3-58.23-7.27-14.64-17.12-36.03-27.05-63.49Z"/><path class="cls-1" d="M1165.86,2710.49c-27.38,0-49.79,22.41-49.79,49.79,0,36.95-.01,73.9-.02,110.85,8.47,17.96,16.7,35.95,24.67,53.94l.21.34c11.16-10.03,19.69-19.32,25.7-26.37,5.76,7.16,13.72,16.39,23.97,26.35.12.09.25.18.38.27l1.87-.59c7.31-17.45,14.92-34.85,22.79-52.18v-112.61c0-27.38-22.41-49.79-49.79-49.79Z"/><path class="cls-1" d="M697.33,4007.57c-.89,9.69-3.36,23.09-8.32,49.9-5.6,30.3-9.25,47.02-15.8,79.01-8.66,42.26-12.99,63.39-16.63,84-5.65,31.97-9.94,56.25-13.03,88.46-3.89,40.56-3.83,72.61-3.64,87.32.62,48.46,7.33,93.1,20.75,182.38,2.17,14.41,3.28,21.79,5.11,32.86,9.93,59.86,15.26,71.91,20.15,110.53,3.47,27.44.8,21.51,4.92,58.67,3.14,28.29,5.75,41.24,12.13,82.47,5.94,38.41,9.96,67.77,12.13,83.68,3.89,28.51,8.34,63.17,12.85,102.83,10.94,8.84,34.08,24.94,67.29,29.65,57.76,8.19,100.44-24.53,108.66-31.09-.31-39.46,1.06-73.97,2.89-102.25,1.37-21.18,4.76-60.78,11.58-110.93,3.13-23.06,3.37-19.7,16.4-95.5,14.17-82.4,13.27-82.75,18.33-105.14,12.06-53.41,17.42-52.51,30.87-107.07,8.19-33.24,18-73.86,21.22-127.33,3.41-56.61-1.91-105.29-3.86-122.51-1.99-17.59-4.44-33.11-8.68-72.35-5.08-46.98-3.61-43.46-5.79-53.05-7.69-33.89-19.4-48.45-12.54-70.42,2.75-8.8,4.93-7.42,10.65-20.92,9.21-21.71,9.83-40.04,10.57-50.46,2.4-33.82,9.45-32.27,22.19-95.5,3.24-16.07,7.56-39.87,11.1-69.44-34.57,14.3-95.42,34.25-173.15,32.79-68.29-1.28-122.19-18.58-155.23-32.09,3.24,21.65,6.33,54.52,2.52,94.2-.06.6-.13,1.21-.34,3.18-3.38,32.43-3.97,49.51-5.31,64.11Z"/><path class="cls-1" d="M2183.7,2646.98s.02.07.03.14c.11-.04.24-.1.34-.14h-.37Z"/><path class="cls-3" d="M2262.17,2852.66c-11.91-47.08-22.19-83.64-32.16-124.4-7.77-31.78-9.3-41.39-9.95-52.94-1.54-27.55.41-35.54-1.6-49.76-.89-6.35-2.85-15.39-7.68-26.08-3.43,5.74-22.25,35.93-61.45,45.63-36.66,9.07-65.67-6.1-72.09-9.66,2.55,6.39,4.93,13.33,6.97,20.83.52,1.9.99,3.77,1.44,5.62l-.13,5.75c.02,1.78-.31,5.44-1.12,10.11-.44,2.78-7.19,30.04-9.14,32.83-2.23,3.19-4.8,4.64-6.16,5.6,0,0-5.03,3.57-10.03,30.7-1.97,13.45-3.98,30.89-5.08,51.62-.39,4.9-.41,12.07,1.69,20.31,1.11,4.35,2.19,6.52,3.39,10.16,1.88,5.71,3.76,14.1,3.39,25.39,1.38,11.45,1.71,21.24,1.69,28.77-.04,12.04-1,21.36-1.69,27.93-1.05,9.9-1.57,10.47-3.39,24.54-3.31,25.62-2.41,30.02-.85,33.85,1.03,2.52,4.98,12.2,15.23,16.08,1.09.41,10,3.63,18.82-.61,7.94-3.81,11.17-11.44,15.03-20.55,2.39-5.64,3.53-10.66,4.42-14.54,1.18-5.16,1.89-10.03,2.35-15.08,1.16-12.82.22-22.05,0-27.08-.4-9.24.84-22.56,8.46-39.77,9.45,2.49,17.2,4.05,22.7,5.04,6.23,1.12,8.5,1.3,11.15,3.42,4.7,3.77,6.33,10.03,7.81,17.43,2.91,14.52,1.51,19.15,3.19,30.8,3.13,21.68,10.55,23.31,8.46,37.24-1.01,6.75-3.1,8.7-5.08,20.31-1.32,7.76-1.64,14.26-1.69,18.62-4.01,5.35-10.46,13.35-19.46,22-22.2,21.35-34.69,22.46-39.77,37.24-2.56,7.44-.44,10.19.41,18.28.58,5.59.59,9.75-.27,15.93-1.77,12.69-9.17,16.7-12.33,25.06-2.77,7.34-2.79,19.44,11.35,39.74,4.61-.25,9.76-.98,15.23-2.54,22.45-6.39,35.84-22.59,41.47-30.47,4.73-4.82,12.06-12.22,21.16-21.16,26.66-26.19,29.48-27.21,35.66-35.44,16.71-22.26,20.27-45.19,21.28-52.68.6-4.47.58-6.41,1.66-13.92.92-6.4,1.96-13.66,3.92-20.71,2.32-8.35,3.92-9.2,8.31-20.02,2.81-6.92,8.92-24.97,12.33-48.81.29-2.03.48-4.07.62-6.45.92-15.62-1.44-26.41-8.46-54.16Z"/><path class="cls-1" d="M276.49,1892.27c-4.44,9.73-15.84,30.35-38.63,71.6,0,0-27.67,49.49-32.63,83.54-.5,3.45-.91,6.77-.91,6.84h0c-.29,2.54-1.32,5.56-3.3,9.15-.08,1.51-.3,4.06-.97,7.14-.94,4.31-2.28,7.36-2.6,8.12-3.1,7.36-8.79,32.83-12.26,60.59-2.16,17.26-1.6,20.59-4.5,30.19-2.35,7.78-4.19,10.49-5.78,18.63-1.36,6.97-1.23,11.24-1.28,23.77-.08,16.43-.12,24.64-.5,30.25-.72,10.41-2.31,9.69-5.96,32.2-6.24,38.47-9.54,65.6-9.54,65.6-9.5,78.02-20.28,140.75-20.28,140.75-4.08,24.5-10.54,60.25-20.28,103.77,10.09,8.23,32.34,24.12,65.13,30.07,29.93,5.43,54.26-.02,66.59-3.7,5.33-19.8,11.3-35.61,16.06-46.9,5.69-13.51,11.75-25.54,19.27-40.47,7.1-14.1,8.84-16.77,14.78-28.91,7.89-16.14,12.25-26.63,15.54-34.05,9.71-21.9,15.59-29.36,37.14-66.81,6.44-11.2,19.76-34.39,33.41-60.39,12.32-23.47,25.31-48.22,39.19-81.59,14.24-34.23,26.02-62.55,33.58-101.45,2.99-15.4,6.1-36.45,9.1-56.74,3.58-24.26,5.75-40.75,6.4-46.47,2.62-23.09,9.92-59.99,31.23-119.13-22.29,4.45-69.35,10.28-115.81-12.62-25.24-12.44-43.24-29.6-50.4-36.57-18.9-18.39-31.05-36.92-38.54-50.39-4.12,14.99-11.23,37.66-23.23,63.95Z"/><path class="cls-2" d="M305.32,1810.61c-1.23,3.29-3.74,9.43-3.92,17.92-.13,6.09.99,11.14,2.01,14.54,10.93,16.05,32.46,42.93,68.58,63.3,54.9,30.96,108.25,27.01,127.62,24.62,6.99-15.81,18.15-40.34,33.03-69.99,20.03-39.89,24.59-44.77,38.21-73.99,20.84-44.68,13.88-41.18,35.25-87.8,16.26-35.46,14.16-55.35,30.75-80.38,4.72-7.12,8.07-19.51,1.17-42.61,3.08-182.06,7.05-267.36,10.3-311.22,1.05-14.2,4.22-53.61,3.92-106.28-.14-24.01-1-45.03-1.96-70.04-1.24-32.33-2.93-63.93-5-94.77-1.93.22-4.99.72-8.5,2.05-6.13,2.33-18.69,6.3-24.08,7.84-2.12.61-5.35,1.36-9.52,1.68,0,0-3.21.7-6.72,1.68-17.45,4.86-32.47,11.76-32.47,11.76-25.47,11.68-48.62,30.9-49.83,31.91-40.51,33.97-60.77,74.63-75.36,103.91-7.84,15.73-17.56,35.49-25.42,63.5-6.05,21.57-8.41,47.52-12.88,98.54-5.59,63.8.97,72.62-4.48,92.94-2.04,7.59-6.34,19.65-1.77,32.73,2.23,6.37,5.36,9.54,5.13,15.98-.29,8.07-5.5,11.1-11.1,19.87-8.69,13.6-2.67,16.48-12.97,42.28-5.54,13.86-29.65,76.44-33.59,92.38-3.93,15.88-5.82,28.56-6.16,30.79-3.9,25.86-6.33,26.04-12.32,58.23-5.8,31.14-4.82,37.92-11.2,73.91-3.76,21.21-5.64,31.82-6.72,34.71Z"/><path class="cls-1" d="M1433.15,873.03c-5.52-3.5-12.66-8.06-20.97-13.44-50.98-32.97-64.41-43.88-69.36-61.35-.19-.66-.77-5.08-1.92-13.91-3.22-24.6-5.51-42.09-6.31-61.74-1.02-25.11-2.92-36.54.83-48.6,1.96-6.3,4.83-12.98,4.83-12.98,4.65-10.8,8.29-15.48,11.79-21.84,7.58-13.77,9.67-26.62,13.09-47.59.92-5.66,1.41-10.12,2.38-19.04,1.92-17.58,2.85-26.5,1.8-33.02-1.03-6.39-4.03-16.69-14.09-28.17-20.55,16.65-32.06,33.21-38.87,45.73-8.31,15.28-11.33,27.75-24.52,38.79-10.76,9.01-22.87,12.53-31.69,14.09h0c-27.34-3.86-31.35-15.52-57.04-13.84-15.35,1-16.09,5.31-32.65,5.94-26.34,1-29.74-9.68-50.46-7.42-13.96,1.52-17.65,6.94-28.11,11.28,0,0,0,0,0,0,0,0-7.13,3.17-14.84,4.04-4.61.52-19.05.3-32.88-8.85-12.55-8.3-16.84-18.03-28.69-39.45-18.87-34.11-28.3-51.16-33.51-50.3-10.8,1.79-27.41,58.48-5.86,101.64,0,0,27.36,54.79,24.54,74.5,0,.03-.2,1.31-.11,1.31h0s.03,0,.05.01c.44.31-2.67,6.23.67,55.73,1.39,20.58,2.32,21.46,1.23,28.23-4.62,28.84-27.51,46.72-50.77,67.26-22.25,19.64-44.2,30.92-59.02,37.26,53.72,23.41,153.73,58.6,282.79,55.23,116.11-3.03,205.99-35.97,257.68-59.49Z"/><path class="cls-5" d="M1732.9,1730.2c26.4,70.3,59.3,136.9,98.7,199.7,3.2,5.1,6.8,18.2,10.8,39.2,2.1,10.9,3.2,24.3,3.6,40.3,2.2,100.1,28.4,199.6,78.5,298.6,46,90.9,84.4,153.4,120.1,237.2,12.5,29.4,21.5,59.5,26.8,90.3l-2.3,2.3c-1.6,1.6-4.2,1-5.9-1.4-.6-.9-1-1.9-1.2-3-9.6-60.2-39-122.6-70.8-179.9-43.2-77.9-75.5-141.2-96.8-189.9-21.3-48.8-35.6-93.6-42.7-134.3-3.9-22.4-7.2-39.3-10-50.6-8.2-33.9-6.9-73.5-9.3-108.1-.2-3-.7-5.9-1.6-8.8-5.4-17.8-8.8-27.9-10.2-30.3-26.7-49.4-49.2-91.3-67.5-125.8-13.2-24.8-20-50-20.3-75.6h0l.1.1Z"/><path class="cls-5" d="M632.9,3552.1c19,59.1,36.3,118.3,52.2,177.6,7,26,12.1,52.5,15.4,79.4l-1.8,11.8c-.2,1.3-1.5,2.2-2.9,2-.5,0-.9-.3-1.3-.6l-2.5-2.5c-.4-.4-.7-.9-.7-1.5-1.8-26.1-3.6-42-5.3-47.8-22.3-72.1-40.1-144.9-53.2-218.3h0l.1-.1Z"/><g class="cls-4"><path class="cls-1" d="M1698.64,1613.56c.57-20.14,1.67-41.26,3.46-63.24,1.7-20.93,3.88-40.98,6.41-60.07-7.08-30.46-13.13-62.84-17.65-97.06-19.94-151.17-2.68-284.01,22.06-386.03-9.83-6.93-25.55-16.62-46.59-23.63-14.23-4.74-25.23-5.82-29.65-7.09-33.54-9.63-56.56-21.61-101.9-46.53-40.66-22.34-75.09-41.74-101.63-56.86-51.42,23.37-139.35,55.46-252.65,59.09-130.01,4.17-230.91-31.14-284.94-54.58-22.11,8.75-40.33,17.22-53.93,23.95-7.65,3.79-30.08,15.05-58.85,32.49-34.07,20.65-29.01,20.85-43.45,27.21-13.6,6-30.07,12-62.9,22.75-13.05,4.27-23.85,7.69-31.15,9.98,6.35,65.65,9.62,141.29,6.06,224.89-3.82,89.79-14.73,169.92-27.96,238.36,1.46,21.35,2.91,39.36,4.07,52.97,3.8,44.59,4.93,46.57,5.37,50.75.32,3.02.27,5.27.27,5.68,0,2.91,1.09,14.58,4.96,46.79,156.27,19.15,333.24,32.25,527.5,32.42,196.49.16,375.37-12.95,533.09-32.21Z"/></g><path class="cls-2" d="M1728.23,3233.83s2.36-44.51,2.35-104.47c0-42.58-1.21-66.54-4.16-92.18-1.97-17.15-2.59-16.6-6.88-45.67-8.19-55.59-8.39-74.45-16.04-133.33-1.97-15.12-5.15-38.44-9.73-67.27-95.4,113.11-191.3,183.82-253.83,199.68-31.09,7.89-60.07,8.46-60.07,8.46-50.29.99-88.31-13.39-110.42-22-20.06-7.81-47.95-20.9-77.97-42.98-1.78,4.22-3.98,10.55-4.94,18.44-1.63,13.38,1.31,23.06,2.96,30.88,3.61,17.09.28,21.57.42,47.81.06,10.69.64,15.07,5.92,59.65,12.09,101.92,13.03,112.46,13.11,124.8.02,3.72,0,12.12,1.39,23.44,1.72,14.06,4.3,21.88,7.5,35.79,3.7,16.09,4.66,24.8,6.77,37.23,6,35.34,16.2,70.87,25.13,106.05,0,0,13.8,54.34,23.84,107.62,9.05,48.01,12.66,85.55,19.51,158.69,3.92,41.88,8.47,96.78,12.24,161.71,28.88,11.54,55.13,18.56,76.77,22.96,17.39,3.54,52.35,9.57,97.14,8.9,16.4-.25,44.35-1.55,78.53-7.96,29.47-5.53,54.81-13.22,75.42-20.81.43-13.89,1.43-32.83,3.94-55.2,4.29-38.35,11.04-69.31,15.7-88.3,6.15-25.07,7.95-26.26,17.68-63.25,0,0,6.82-25.92,13.72-56.45,13.69-60.59,35.67-195.04,44.01-352.25Z"/><path class="cls-2" d="M2023.12,1791.54c-2.77-22.54-5.64-40.7-7.66-52.65-6.19-36.67-8.75-41.09-16.89-87.38-2.54-14.47-5.53-28.86-8.08-43.32-2.75-15.6-3.79-22.51-7.34-33.04-3.42-10.16-5.49-12.75-11.01-26.43-5.45-13.5-6.4-18.32-11.01-31.57-12.77-36.67-18.93-38.43-22.53-57.58-2.81-14.94-1.05-24.52.5-40.82,4.15-43.42,1.78-78.02-.73-107.21-2.13-24.7-4.82-54.23-15.2-91.98-3.63-13.21-9.77-35.19-22.14-62-9.34-20.25-37.23-80.68-88.96-116.24-14.58-10.02-29.32-20.15-48.46-25.7-9.03-2.62-16.03-3.34-27.17-8.81-7.76-3.81-11.8-7.11-20.56-8.81-3.91-.76-6.8-.81-13.22-2.2-5.51-1.19-9.94-2.57-12.88-3.57-9.27,78.53-9.38,138.52-7.63,179.53,0,0,5.16,296.09,5.28,307.3.21,18.8,10.64,88.55,9.39,95.76-.09.49-.11,3.06,0,6.57.24,7.51,1.25,13.62,2.11,17.75,2.39,11.17,4.63,21.34,6.67,30.35,3.3,14.63,4.74,20.39,7.44,27.97,2.54,7.1,4.26,10.39,7.02,16.75,4.87,11.23,7.54,19.73,12.9,36.74,0,0,19.68,62.47,24.88,72.76,2.5,4.95,2.12,3.81,10.33,19.25,20.32,38.24,19.51,39.35,30.98,60.09,15.11,27.3,22.67,40.96,27.23,48.35,4.57,7.4,7.98,12.43,9.86,20.65,1.1,4.83,1.83,8.32,4.28,17.6,1.41,5.31,2.71,9.62,3.6,12.45,18.94,1.7,55.52,2.3,95.72-15.39,63.04-27.74,90.82-80.99,98.29-96.66-2.66-9.21-5.26-18.7-7.78-28.47-2.63-10.24-5.04-20.25-7.23-30.03Z"/><ellipse class="cls-1" cx="636.45" cy="1375.65" rx="134.3" ry="143.5"/><ellipse class="cls-1" cx="1673.58" cy="1375.65" rx="134.3" ry="143.5"/><path class="cls-1" d="M634.04,1598.87c13.88,51.17,18.47,71.03,18.66,75.69.01.33.1,2.63.46,5.74.33,2.8.9,6.34,1.96,10.34,2.7,10.25,5.96,13.67,10.07,22.9,5.88,13.2,3.51,15.82,9.16,32.97,4.04,12.28,8.38,20.41,10.99,25.64,13.83,27.76,29.27,75.01,38.78,104.09,0,0,25.15,78.94,31.03,124.74.48,3.76.82,7.15,1.11,10.52,2.06,23.87,2.62,42.59,2.68,50.89.1,13.76.19,38.8-4.08,71.19-.7,5.27-.6,3.9-5.79,34.76-7.01,41.68-10.52,62.64-10.62,68.55-.49,27.41,5.48,32.04,2.9,61.79-1.05,12.11-3.25,25.31-3.86,28.96-3.3,19.8-6.77,32.36-7.72,35.72-1.8,6.4-3.53,11.69-4.83,15.45,39.51,27.75,96.42,61.63,170.09,87.5,78.06,27.41,147.35,36.16,197.14,38.62v.33c6.81.46,15.86,1.14,26.59,1.6,9.83.46,25.69,1.14,46.25,1.03,10.39,0,23.35-.34,38.43-1.25v-.61c38.62-1.93,81.9-6.87,128.48-16.93,118.96-25.68,211.06-74.24,273.53-115.11-2.61-10.55-5.6-24.66-7.72-41.51-.75-5.99-2.68-22.5-2.9-44.41-.23-23.37,1.77-23.58.97-44.41-.47-12.05-1.53-22.16-3.06-36.7-1.18-11.25-2.09-19.89-3.7-29.92-3.34-20.86-6.91-30.22-9.65-42.48-4.09-18.28-3.63-33.26-2.69-63.21.67-21.54,1.87-17.49,7.52-76.78,3.51-36.85,3.49-43.13,7.72-56.96,4.31-14.08,7.6-18.29,15.99-42.44,5.37-15.46,6.16-19.86,12.07-39.18,7.23-23.63,7.34-21.2,25.04-73.82.61-1.8.13-.39,17.38-52.13,3.22-9.65,6.45-19.3,9.65-28.96,6.38-19.25,15.45-48.34,26.72-90.42-152.32,21.89-331.91,37.38-533.2,35.13-200.96-2.24-379.9-21.68-531.52-46.9Z"/><path class="cls-2" d="M636.59,3533.84c2.3,10.3,2.25,9.23,16.84,71.57,15.49,66.19,13.57,58.92,19.65,84.2,5.57,23.2,8.3,33.91,12.63,54.03,6.92,32.12,9.21,47.68,9.82,51.92,3,20.84,4.3,38.28,4.91,50.52,34.69,14.16,95.73,33.86,173.57,32.02,68.11-1.61,121.83-19.08,154.82-32.72.15-34.93,1.39-80.09,5.61-132.62,2.89-35.96,8.32-89.42,21.08-164.33,22.83-134,33.89-129.69,56.93-258.65,23.5-131.51,13.29-143.2,28.57-218.28,3.08-15.14,11.68-54.9,7.05-106.83-1.18-13.22-2.92-23.91-4.14-30.59-8.78,5.65-21.38,13.33-37.05,21.44-28,14.49-65.66,33.58-116.13,40.21-38.01,5-67.78.9-77.1-.55-41.45-6.44-72.47-21.73-104.25-39.97-40.73-23.37-102.87-63.15-176.06-126.77-12.6,85.46-20.05,153.15-24.58,200.72-2.89,30.38-4.61,52.67-5.76,78.11-.72,15.97-2.51,61.72-.09,123.43,1.65,41.98,4.43,70.79,9.12,119.28,8.4,86.87,12.6,130.3,24.56,183.84Z"/></svg>