<?xml version="1.0" encoding="UTF-8"?><svg id="_Слой_1" xmlns="http://www.w3.org/2000/svg" viewBox="0 0 2300 5500"><defs><style>.cls-1{fill:#e0cdaf;}</style></defs><path class="cls-1" d="M1698.64,1613.56c.57-20.14,1.67-41.26,3.46-63.24,1.7-20.93,3.88-40.98,6.41-60.07-7.08-30.46-13.13-62.84-17.65-97.06-19.94-151.17-2.68-284.01,22.06-386.03-9.83-6.93-25.55-16.62-46.59-23.63-14.23-4.74-25.23-5.82-29.65-7.09-33.54-9.63-56.56-21.61-101.9-46.53-40.66-22.34-75.09-41.74-101.63-56.86-51.42,23.37-139.35,55.46-252.65,59.09-130.01,4.17-230.91-31.14-284.94-54.58-22.11,8.75-40.33,17.22-53.93,23.95-7.65,3.79-30.08,15.05-58.85,32.49-34.07,20.65-29.01,20.85-43.45,27.21-13.6,6-30.07,12-62.9,22.75-13.05,4.27-23.85,7.69-31.15,9.98,6.35,65.65,9.62,141.29,6.06,224.89-3.82,89.79-14.73,169.92-27.96,238.36,1.46,21.35,2.91,39.36,4.07,52.97,3.8,44.59,4.93,46.57,5.37,50.75.32,3.02.27,5.27.27,5.68,0,2.91,1.09,14.58,4.96,46.79,156.27,19.15,333.24,32.25,527.5,32.42,196.49.16,375.37-12.95,533.09-32.21Z"/></svg>