<?xml version="1.0" encoding="UTF-8"?><svg id="_Слой_1" xmlns="http://www.w3.org/2000/svg" viewBox="0 0 2300 5500"><defs><style>.cls-1{fill:#9baa97;stroke:#9baa97;stroke-miterlimit:10;stroke-width:4px;}</style></defs><path class="cls-1" d="M1726.42,3037.18c-1.97-17.15-2.59-16.6-6.88-45.67-8.19-55.59-8.39-74.45-16.04-133.33-1.97-15.12-5.15-38.44-9.73-67.27-.19.22-.37.44-.56.66.02.34.04.7.06,1.03-32.49,37.96-62.46,67.88-86.53,90.21-41.98,38.93-74.08,62.27-82.86,68.57-4.33,3.11-12.1,8.69-17.55,12.25-16.25,10.6-36.08,18.96-58.11,24.59-2.82.89-5.58,1.68-8.27,2.36-31.09,7.89-60.07,8.46-60.07,8.46-50.29.99-88.31-13.39-110.42-22-20.06-7.81-47.95-20.9-77.97-42.98-1.78,4.22-3.98,10.55-4.94,18.44-1.63,13.38,1.31,23.06,2.96,30.88,3.61,17.09.28,21.57.42,47.81.06,10.69.64,15.07,5.92,59.65,12.09,101.92,13.03,112.46,13.11,124.8.02,3.72,0,12.12,1.39,23.44,1.72,14.06,4.3,21.88,7.5,35.79,3.7,16.09,4.66,24.8,6.77,37.23,6,35.34,16.2,70.87,25.13,106.05,0,0,13.8,54.34,23.84,107.62,9.05,48.01,12.66,85.55,19.51,158.69,3.92,41.88,8.47,96.78,12.24,161.71,28.88,11.54,55.13,18.56,76.77,22.96,17.39,3.54,52.35,9.57,97.14,8.9,16.4-.25,44.35-1.55,78.53-7.96,29.47-5.53,54.81-13.22,75.42-20.81.43-13.89,1.43-32.83,3.94-55.2,4.29-38.35,11.04-69.31,15.7-88.3,6.15-25.07,7.95-26.26,17.68-63.25,0,0,6.82-25.92,13.72-56.45,13.69-60.59,35.67-195.04,44.01-352.25,0,0,2.36-44.51,2.35-104.47,0-42.58-1.21-66.54-4.16-92.18Z"/><path class="cls-1" d="M1143.93,2934.08c-8.78,5.65-21.38,13.33-37.05,21.44-28,14.49-65.66,33.58-116.13,40.21-38.01,5-67.78.9-77.1-.55-41.45-6.44-72.47-21.73-104.25-39.97-8.04-4.62-16.94-9.88-26.57-15.84-41.44-23.86-93.78-59.16-149.49-110.93-12.6,85.46-20.05,153.15-24.58,200.72-2.89,30.38-4.61,52.67-5.76,78.11-.72,15.97-2.51,61.72-.09,123.43,1.65,41.98,4.43,70.79,9.12,119.28,8.4,86.87,12.6,130.3,24.56,183.84,2.3,10.3,2.25,9.23,16.84,71.57,15.49,66.19,13.57,58.92,19.65,84.2,5.57,23.2,8.3,33.91,12.63,54.03,6.92,32.12,9.21,47.68,9.82,51.92,3,20.84,4.3,38.28,4.91,50.52,34.69,14.16,95.73,33.86,173.57,32.02,68.11-1.61,121.83-19.08,154.82-32.72.15-34.93,1.39-80.09,5.61-132.62,2.89-35.96,8.32-89.42,21.08-164.33,22.83-134,33.89-129.69,56.93-258.65,23.5-131.51,13.29-143.2,28.57-218.28,3.08-15.14,11.68-54.9,7.05-106.83-1.18-13.22-2.92-23.91-4.14-30.59Z"/></svg>