<?xml version="1.0" encoding="UTF-8"?><svg id="_Слой_1" xmlns="http://www.w3.org/2000/svg" viewBox="0 0 2300 5500"><defs><style>.cls-1{fill:#e0cdaf;}</style></defs><path class="cls-1" d="M56.81,2854.52c11.91-47.08,22.19-83.64,32.16-124.4,7.77-31.78,9.3-41.39,9.95-52.94,1.19-21.34-1.64-31.33,1.6-49.76,3.39-19.31,11.01-34.01,16.54-42.99,10.32,8.13,31.76,22.81,62.95,29,30.92,6.14,56.15.9,68.78-2.63-1.41,5.04-3.43,12.34-5.79,21.15-12.03,45.02-11.81,50.98-10.16,56.9,3.99,14.24,11.52,11.23,17.88,30.44,2.33,7.06,3.78,14.93,9.21,29.45,1.54,4.12,2.91,7.47,3.84,9.68.45,17.01.78,30.94,1.24,41.94.18,4.4.57,11.48-1.69,20.31-1.11,4.35-2.19,6.52-3.39,10.16-1.88,5.71-3.76,14.1-3.39,25.39-1.38,11.45-1.71,21.24-1.69,28.77.04,12.04,1,21.36,1.69,27.93,1.05,9.9,1.57,10.47,3.39,24.54,3.31,25.62,2.41,30.02.85,33.85-1.03,2.52-4.98,12.2-15.23,16.08-1.09.41-10,3.63-18.82-.61-7.94-3.81-11.17-11.44-15.03-20.55-2.39-5.64-3.53-10.66-4.42-14.54-1.18-5.16-1.89-10.03-2.35-15.08-1.16-12.82-.22-22.05,0-27.08.4-9.24-.84-22.56-8.46-39.77-3.45-1.03-17.65-4.89-27.08,2.54-3.42,2.69-6.04,6.73-8.03,9.81-.85,1.31-4.18,6.56-6.55,13.55-3.95,11.66-1.28,17.56-3.19,30.8-3.13,21.68-10.55,23.31-8.46,37.24,1.01,6.75,3.1,8.7,5.08,20.31,1.32,7.76,1.64,14.26,1.69,18.62,4.01,5.35,10.46,13.35,19.46,22,22.2,21.35,34.69,22.46,39.77,37.24,4.61,13.4-5.01,16.26-.14,34.21,3.78,13.89,10.97,17.83,9.82,30-.31,3.24-.88,3.61-4.54,17.53-1.91,7.27-3.36,13.27-4.3,17.27-4.61-.25-9.76-.98-15.23-2.54-22.45-6.39-35.84-22.59-41.47-30.47-4.73-4.82-12.06-12.22-21.16-21.16-16.48-16.19-24.14-22.03-35.66-35.44-11.97-13.93-14.87-20.3-15.82-22.5-4.97-11.52-4.68-20.24-5.46-30.18-.89-11.15-2.43-9.83-13.89-54.65-10.2-39.9-12.23-43.02-12.96-55.26-.93-15.62,1.44-26.41,8.46-54.16Z"/><path class="cls-1" d="M2183.7,2646.98s.02.07.03.14c.11-.04.24-.1.34-.14h-.37Z"/><path class="cls-1" d="M2262.17,2852.66c-11.91-47.08-22.19-83.64-32.16-124.4-7.77-31.78-9.3-41.39-9.95-52.94-1.54-27.55.41-35.54-1.6-49.76-.89-6.35-2.85-15.39-7.68-26.08-3.43,5.74-22.25,35.93-61.45,45.63-36.66,9.07-65.67-6.1-72.09-9.66,2.55,6.39,4.93,13.33,6.97,20.83.52,1.9.99,3.77,1.44,5.62l-.13,5.75c.02,1.78-.31,5.44-1.12,10.11-.44,2.78-7.19,30.04-9.14,32.83-2.23,3.19-4.8,4.64-6.16,5.6,0,0-5.03,3.57-10.03,30.7-1.97,13.45-3.98,30.89-5.08,51.62-.39,4.9-.41,12.07,1.69,20.31,1.11,4.35,2.19,6.52,3.39,10.16,1.88,5.71,3.76,14.1,3.39,25.39,1.38,11.45,1.71,21.24,1.69,28.77-.04,12.04-1,21.36-1.69,27.93-1.05,9.9-1.57,10.47-3.39,24.54-3.31,25.62-2.41,30.02-.85,33.85,1.03,2.52,4.98,12.2,15.23,16.08,1.09.41,10,3.63,18.82-.61,7.94-3.81,11.17-11.44,15.03-20.55,2.39-5.64,3.53-10.66,4.42-14.54,1.18-5.16,1.89-10.03,2.35-15.08,1.16-12.82.22-22.05,0-27.08-.4-9.24.84-22.56,8.46-39.77,9.45,2.49,17.2,4.05,22.7,5.04,6.23,1.12,8.5,1.3,11.15,3.42,4.7,3.77,6.33,10.03,7.81,17.43,2.91,14.52,1.51,19.15,3.19,30.8,3.13,21.68,10.55,23.31,8.46,37.24-1.01,6.75-3.1,8.7-5.08,20.31-1.32,7.76-1.64,14.26-1.69,18.62-4.01,5.35-10.46,13.35-19.46,22-22.2,21.35-34.69,22.46-39.77,37.24-2.56,7.44-.44,10.19.41,18.28.58,5.59.59,9.75-.27,15.93-1.77,12.69-9.17,16.7-12.33,25.06-2.77,7.34-2.79,19.44,11.35,39.74,4.61-.25,9.76-.98,15.23-2.54,22.45-6.39,35.84-22.59,41.47-30.47,4.73-4.82,12.06-12.22,21.16-21.16,26.66-26.19,29.48-27.21,35.66-35.44,16.71-22.26,20.27-45.19,21.28-52.68.6-4.47.58-6.41,1.66-13.92.92-6.4,1.96-13.66,3.92-20.71,2.32-8.35,3.92-9.2,8.31-20.02,2.81-6.92,8.92-24.97,12.33-48.81.29-2.03.48-4.07.62-6.45.92-15.62-1.44-26.41-8.46-54.16Z"/></svg>