<?xml version="1.0" encoding="UTF-8"?><svg id="_Слой_1" xmlns="http://www.w3.org/2000/svg" viewBox="0 0 2300 5500"><defs><style>.cls-1{fill:#e0cdaf;}</style></defs><path class="cls-1" d="M305.32,1810.61c-1.23,3.29-3.74,9.43-3.92,17.92-.13,6.09.99,11.14,2.01,14.54,10.93,16.05,32.46,42.93,68.58,63.3,54.9,30.96,108.25,27.01,127.62,24.62,6.99-15.81,18.15-40.34,33.03-69.99,20.03-39.89,24.59-44.77,38.21-73.99,20.84-44.68,13.88-41.18,35.25-87.8,16.26-35.46,14.16-55.35,30.75-80.38,4.72-7.12,8.07-19.51,1.17-42.61,3.08-182.06,7.05-267.36,10.3-311.22,1.05-14.2,4.22-53.61,3.92-106.28-.14-24.01-1-45.03-1.96-70.04-1.24-32.33-2.93-63.93-5-94.77-1.93.22-4.99.72-8.5,2.05-6.13,2.33-18.69,6.3-24.08,7.84-2.12.61-5.35,1.36-9.52,1.68,0,0-3.21.7-6.72,1.68-17.45,4.86-32.47,11.76-32.47,11.76-25.47,11.68-48.62,30.9-49.83,31.91-40.51,33.97-60.77,74.63-75.36,103.91-7.84,15.73-17.56,35.49-25.42,63.5-6.05,21.57-8.41,47.52-12.88,98.54-5.59,63.8.97,72.62-4.48,92.94-2.04,7.59-6.34,19.65-1.77,32.73,2.23,6.37,5.36,9.54,5.13,15.98-.29,8.07-5.5,11.1-11.1,19.87-8.69,13.6-2.67,16.48-12.97,42.28-5.54,13.86-29.65,76.44-33.59,92.38-3.93,15.88-5.82,28.56-6.16,30.79-3.9,25.86-6.33,26.04-12.32,58.23-5.8,31.14-4.82,37.92-11.2,73.91-3.76,21.21-5.64,31.82-6.72,34.71Z"/><path class="cls-1" d="M2023.12,1791.54c-2.77-22.54-5.64-40.7-7.66-52.65-6.19-36.67-8.75-41.09-16.89-87.38-2.54-14.47-5.53-28.86-8.08-43.32-2.75-15.6-3.79-22.51-7.34-33.04-3.42-10.16-5.49-12.75-11.01-26.43-5.45-13.5-6.4-18.32-11.01-31.57-12.77-36.67-18.93-38.43-22.53-57.58-2.81-14.94-1.05-24.52.5-40.82,4.15-43.42,1.78-78.02-.73-107.21-2.13-24.7-4.82-54.23-15.2-91.98-3.63-13.21-9.77-35.19-22.14-62-9.34-20.25-37.23-80.68-88.96-116.24-14.58-10.02-29.32-20.15-48.46-25.7-9.03-2.62-16.03-3.34-27.17-8.81-7.76-3.81-11.8-7.11-20.56-8.81-3.91-.76-6.8-.81-13.22-2.2-5.51-1.19-9.94-2.57-12.88-3.57-9.27,78.53-9.38,138.52-7.63,179.53,0,0,5.16,296.09,5.28,307.3.21,18.8,10.64,88.55,9.39,95.76-.09.49-.11,3.06,0,6.57.24,7.51,1.25,13.62,2.11,17.75,2.39,11.17,4.63,21.34,6.67,30.35,3.3,14.63,4.74,20.39,7.44,27.97,2.54,7.1,4.26,10.39,7.02,16.75,4.87,11.23,7.54,19.73,12.9,36.74,0,0,19.68,62.47,24.88,72.76,2.5,4.95,2.12,3.81,10.33,19.25,20.32,38.24,19.51,39.35,30.98,60.09,15.11,27.3,22.67,40.96,27.23,48.35,4.57,7.4,7.98,12.43,9.86,20.65,1.1,4.83,1.83,8.32,4.28,17.6,1.41,5.31,2.71,9.62,3.6,12.45,18.94,1.7,55.52,2.3,95.72-15.39,63.04-27.74,90.82-80.99,98.29-96.66-2.66-9.21-5.26-18.7-7.78-28.47-2.63-10.24-5.04-20.25-7.23-30.03Z"/></svg>