<?xml version="1.0" encoding="UTF-8"?><svg id="_Слой_1" xmlns="http://www.w3.org/2000/svg" viewBox="0 0 2300 5500"><defs><style>.cls-1{fill:#e0cdaf;}</style></defs><path class="cls-1" d="M430.3,5402.8c-1.2,3-3.9,9.9-1.1,16.6,1.6,3.8,5,7.7,15.9,12.1,15.1,6.2,22.4,4.6,38.6,8.3,19.6,4.5,16.4,8.6,28.8,9.8,21.1,2.1,27.6-10.1,43.5-5,10.1,3.2,9.8,8.7,21.6,12.6,10.7,3.5,20.2,1.9,28.2.3,31.5-6.2,58.9-16.6,70.4-20.9,43.8-16.2,47.2-18.2,52.2-22.6,16.2-14.6,15.8-26.7,33.9-39.1,13.5-9.2,27.5-11.5,36.5-13,21.9-3.8,26.4,1.8,49.2-2.4,7.1-1.3,19.5-3.7,33.4-11.5,8-4.5,21.4-12,28.7-25.2,5.1-9.3,5.4-18.1.9-50.4-7.5-53.3-12.5-59.8-11.3-84.2,1.1-22.7,5.7-21.1,5-40.4-.8-23.4-7.9-32.9-12.7-61.5-1.7-10.1-3.6-25.1-3.4-44-5.3,5.6-35.8,36.5-84.7,36.8-43.5.2-72.2-24.1-79-30.2-1.3,14.4-4.5,35.4-13,59.1-7.9,21.9-17.8,39-34.8,63.5-32.6,47.1-56.2,78.6-85.4,106.4-13.2,12.6-24.6,21.4-33.3,28.3-37.5,29.8-56.3,44.7-83.1,59.3-15.4,8.4-37.7,19-45.1,37.2l.1.1Z"/><path class="cls-1" d="M1758,5309.4c-47.1-36-74.7-71.2-118.7-134.7-16.9-24.4-26.9-41.5-34.8-63.5-8.6-23.8-11.8-44.7-13-59.1-10.3,7.4-35.5,23.5-71.3,25.2-49.8,2.4-84.2-24.9-92.4-31.8,0,9.5-.3,23.7-1.4,40.9-2.4,37.9-6.3,50.1-13.2,104-10,77.8-2,53.4-7.8,85.2-3.3,18.2-7.4,34.3.9,50.4,7.5,14.5,20.9,21.3,28.7,25.2,25.7,13,39.2,3.9,82.6,13.9,17.6,4.1,26.6,6.2,36.5,13,18.1,12.4,17.7,24.5,33.9,39.1,4.9,4.4,8.3,6.4,52.2,22.6,54.3,20.1,60.6,21.5,70.4,20.9,20.3-1.2,19.1-8.6,45.2-10.4,20.8-1.4,29,2.8,46.9-2.6,14.6-4.4,13.1-8.4,26.1-11.3,21.3-4.8,31,4.7,42.6-1.7,10.6-5.9,14.6-20.7,14.8-28.7.9-33-58.5-43.2-128.2-96.5v-.1Z"/></svg>