<?xml version="1.0" encoding="UTF-8"?>
<svg id="_Слой_1" xmlns="http://www.w3.org/2000/svg" version="1.1" viewBox="0 0 2300 5500">
  <!-- Generator: Adobe Illustrator 29.1.0, SVG Export Plug-In . SVG Version: 2.1.0 Build 142)  -->
  <defs>
    <style>
      .st0 {
        fill: none;
      }

      .st1, .st2, .st3, .st4, .st5, .st6 {
        fill: #d4deeb;
      }

      .st2 {
        opacity: .5;
      }

      .st2, .st3, .st4, .st5, .st6 {
        isolation: isolate;
      }

      .st3 {
        opacity: .2;
      }

      .st4, .st7 {
        opacity: .5;
      }

      .st5 {
        opacity: .5;
      }

      .st6 {
        opacity: .2;
      }

      .st8 {
        fill: #1d1d1b;
      }
    </style>
  </defs>
  <path class="st4" d="M430.3,5402.8c-1.2,3-3.9,9.9-1.1,16.6,1.6,3.8,5,7.7,15.9,12.1,15.1,6.2,22.4,4.6,38.6,8.3,19.6,4.5,16.4,8.6,28.8,9.8,21.1,2.1,27.6-10.1,43.5-5,10.1,3.2,9.8,8.7,21.6,12.6,10.7,3.5,20.2,1.9,28.2.3,31.5-6.2,58.9-16.6,70.4-20.9,43.8-16.2,47.2-18.2,52.2-22.6,16.2-14.6,15.8-26.7,33.9-39.1,13.5-9.2,27.5-11.5,36.5-13,21.9-3.8,26.4,1.8,49.2-2.4,7.1-1.3,19.5-3.7,33.4-11.5,8-4.5,21.4-12,28.7-25.2,5.1-9.3,5.4-18.1.9-50.4-7.5-53.3-12.5-59.8-11.3-84.2,1.1-22.7,5.7-21.1,5-40.4-.8-23.4-7.9-32.9-12.7-61.5-.7-4.2-1.2-7.5-1.4-9.1-2-15.4-2.2-28.1-2-36.6-4.5,5.1-34.9,38.7-84.8,38.5-45-.2-73.6-27.9-79-33.4-1.1,15.3-4,37.3-13,62.3-7.8,21.8-16.1,36.5-34.8,63.5-32.6,47.1-56.2,78.6-85.4,106.4-13.2,12.6-24.6,21.4-33.3,28.3-33.9,26.9-50.2,34.4-83.1,59.3-10.7,8.1-26.5,20.6-45,37.3h0Z"/>
  <path class="st4" d="M1758,5309.4c-47.1-36-74.7-71.2-118.7-134.7-27.4-39.5-32.7-57.4-34.8-63.5-8.3-23.7-10.9-44.7-11.8-59.1-6.4,4.6-15.6,10.4-27.4,15.4-2.1.9-23.2,9.6-46.4,10.7-45.9,2.2-83.2-26.4-91.1-32.7,0,9.5-.3,23.7-1.4,40.9-2.4,37.9-6.3,50.1-13.2,104-10,77.8-2,53.4-7.8,85.2-3.3,18.2-7.4,34.3.9,50.4,7.5,14.5,20.9,21.3,28.7,25.2,25.7,13,39.2,3.9,82.6,13.9,17.6,4.1,26.6,6.2,36.5,13,18.1,12.4,17.7,24.5,33.9,39.1,4.9,4.4,8.3,6.4,52.2,22.6,54.3,20.1,60.6,21.5,70.4,20.9,20.3-1.2,19.1-8.6,45.2-10.4,20.8-1.4,29,2.8,46.9-2.6,14.6-4.4,13.1-8.4,26.1-11.3,21.3-4.8,31,4.7,42.6-1.7,12.3-6.8,14.7-27.5,14.8-28.7,3.9-46.8-119.8-93.5-128.2-96.6h0Z"/>
  <path class="st1" d="M1629.5,2495.8c-8.6-30.7-14.7-56.1-18.9-74.2,0,0-13.3-58.3-19.6-57-.3,0-.6.4-1.2.3-2.3-.2-3.7-5.3-4.5-9.7-19.1,18.8-45.3,45.6-74.8,79.1-63.4,72.1-104.8,132.9-130.2,170.3-30.7,45.1-60.8,93.7-91.6,149.1-25,44.9-33.6,61.6-33.6,61.6-10.7,20.6-35.2,63.2-80.1,127.3l-1.6,2.3c1.2,2.8,2.8,7,4,12.3,2.4,11.1,1.2,19.8,1.2,23,0,9,.7,22.9,4.2,43.5,88.4-80.7,184.2-179,279.5-296.8,64.7-80,120-157.9,167.4-231.1h-.2Z"/>
  <path class="st6" d="M50.9,2864.3c19.9-39,23.4-84.3,35.5-126.3,10.1-35,23.3-85.1,35.8-148.4,9.7,7,29.6,19.3,57.8,23.9,28.9,4.6,52.1-1.3,63.5-5-4.3,7.3-6.5,13.8-7.7,18.5-2.3,8.8-2.3,18.1-2.4,36.9,0,1.1.2,3.1.1,5.7,0,1.8.3,5.4,1.1,10.1.4,2.8.7,3.5,1.5,7,.7,3,.3,4.1,1,4.4.9.4,1.7-1,2.9-.8,1.2.3,1.7,2.1,3.1,6.7,1.6,5.4,2.2,6.8,2.5,7.4,1.3,3,2.7,4.9,3.1,5.5,2.9,4.3,7.1,17.4,8.7,31.8,2.4,22.3-2.1,43.4-4.1,51.5-.1,6.3-1,11.3-1.8,14.7-1.9,7.7-4.1,10.8-7.6,21.1,0,0-2.8,6.4-4,13.8-.9,5.5.2,19.6,2.5,47.8,1.7,21.2,2.5,31.9,3.7,36.2,4.6,17.1,11.3,25.5,7,36.2-2.5,6.4-8.1,11.2-10.1,12.9-3.5,2.8-6.9,5.5-11.4,5.2-1.3,0-6.3-.5-9-3.9-.7-.9-1.5-2.3-2.6-2.3s-1.7,1.8-3,1.9c-1.3.1-2.3-1.2-3.7-2.8-1.3-1.4-3.2-3.3-5.8-5.2-1.9-1.5-4.6-3.9-7-7.7-2.8-4.3-3.7-8.2-4.3-10.4-1.1-4.5-.7-6.4-1.2-12-.6-6.3-1.7-10.2-2.5-13.8-1.4-6.4-3.1-17.9-4.6-40.8-3.4-13.8-16.9-68-21.2-75.2-.3-.5-1.2-2-1.6-1.9-.7.3,1.3,6.9,3.2,13,7.8,25.7,7.8,29.2,6.4,32.5-1.6,3.8-3.3,3.2-11.3,10.4-2.8,2.5-14.1,12.7-20.8,24.8-4.8,8.7-5.9,16.1-7.7,28.2-1.9,13.1-4.4,31,1.2,53.3,4.6,18.2,12.8,32,19.6,41.4,2,7,5.5,17.6,12.1,29.2,5,8.8,10.2,14.5,31.7,39.3,13.1,15.2,19.7,22.9,18.9,29.2-1.1,9.8-12,16.4-19,19.8-4.3-15-18.2-19.5-27.4-17.5-8.9,1.9-9.9,22.1-9.8,22.3h0v.3c0,.1.3.9.3,1.1,0,.7-4.6,1.7-5.1,1.8-1,1.4-2.1,2.8-3.1,4.2-3.1.2-7.8.1-12.9-1.5-6.8-2.2-15.5-7.5-32.3-38.5-12.8-23.6-13.2-27.9-21-41.8-4.8-8.5-7.4-12.4-9.8-17.6-2.5-5.3-2.4-7-4.9-13.1-3.9-9.5-6-11.2-8.8-17.6-4.2-9.5-4.9-17.4-6.1-30.4-1.2-14.1.3-15-.6-23.2-2.4-21.8-15-27.6-19.2-43.7-4.8-18.4,5.1-34.8,12.2-48.7h0c0,.1,0,.1,0,.1Z"/>
  <path class="st1" d="M2034.5,1857.4c-7.5,13.6-20.4,33.1-41.2,51.9-23.1,20.9-45.4,31.4-54.7,35.3-38.4,16.5-73.5,16.6-93.3,15.1,7.4,56.5,11.1,93.2,13.1,118,.7,8.1,2.8,24.5,6.4,46.5,3.9,23.5,10.7,40.2,13.4,48.3,17.4,53.2,26,79.8,32,95.1,9.9,25.6,31.7,66.7,75.1,147.9,11.9,22.4,26,50.6,54.3,107,6,12,15.2,30.6,23.8,56.5,7.6,23,11.8,42.7,14.1,56.5,5.9,3.4,35.5,19.5,72.1,9.7,29.1-7.9,45.5-27.5,50.5-34.2-9.9-39.9-15.8-72.7-19.3-94.4-9.9-61.6-14.7-123.4-24.5-231.9-1.1-12.2-2.4-25.8-5.2-43.9-1.7-10.9-2.7-14.9-4.5-26.8-2.7-18-2.7-23.4-4.5-37.9-3.6-29.1-6.9-33.1-11.9-67.6-2.6-17.9-1.9-18-3.7-30.5-6.6-44.5-20.9-78.5-29-97.4-.7-1.6-1.3-2.9-2-4.4-13.1-28.5-24.4-48.8-29.2-57.3-7.7-13.6-18.6-33.8-31.8-61.5h0Z"/>
  <path class="st1" d="M859.9,2732.5c95.3,117.9,191.1,216.1,279.5,296.8,3.5-20.6,4.2-34.4,4.2-43.5s-1.3-12,1.2-23c1.2-5.3,2.8-9.5,4-12.3l-1.6-2.3c-44.9-64.1-69.4-106.7-80.1-127.3,0,0-8.6-16.7-33.6-61.6-30.8-55.4-60.8-104-91.6-149.1-25.4-37.4-66.8-98.2-130.2-170.3-29.6-33.6-55.8-60.4-74.8-79.1-.9,4.5-2.3,9.6-4.5,9.7-.6,0-.9-.3-1.2-.3-6.3-1.2-19.6,57-19.6,57-4.2,18.2-10.3,43.5-18.9,74.2,47.4,73.2,102.8,151.1,167.4,231.1h-.2,0Z"/>
  <ellipse class="st1" cx="636.4" cy="1375.6" rx="134.3" ry="143.5"/>
  <ellipse class="st1" cx="1673.6" cy="1375.6" rx="134.3" ry="143.5"/>
  <path class="st3" d="M1598.5,972.6c-51.1-26-104.1-55.2-158.8-87.7-33,25.6-126.8,90.3-262.2,91.8-144.2,1.6-243.8-69.2-276.2-94.9-1.3.8-2.6,1.5-3.9,2.3-52.9,30.2-108.2,60.1-165.8,89.6-14.2,7.3-29.5,12.2-45.3,14.4-4.1.5-16.1,3.1-36.2,7.5v472.7c10.5,15.7,27.2,37.8,51.9,59.6,90.7,80.1,188.9,68.5,472.5,68.2h14.5c257.9,0,348.7,8.7,438.9-65.5,27.8-22.9,46.7-46.4,58.1-62.3,1-7.6,2-15.2,2.9-22.8.7-5.8,1.2-9.7,1.4-11.1v-436.9c-32-5.9-65.6-11.5-91.9-24.9h0Z"/>
  <path class="st1" d="M692.1,4003.3c-8.6,45.5-13.2,66.7-24.3,122.5-9.2,46.6-13.9,70.2-15.8,83.7-4.6,33.2-6.2,59.3-8.5,99.4-2.6,44.7-3.9,67.1-3.6,87.3.6,48.5,7.3,93.1,20.8,182.4,2.2,14.4,3.3,21.8,5.1,32.9,9.9,59.9,15.3,71.9,20.1,110.5,3.5,27.4.8,21.5,4.9,58.7,3.1,28.3,5.8,41.2,12.1,82.5,5.9,38.4,10,67.8,12.1,83.7,3.9,28.5,8.3,63.2,12.9,102.8,7.7,7,31.4,26.9,67.3,29.7,51.5,4,85.9-30.4,90.9-35.5-.4-27.4.3-61.6,3.6-100.7,3.3-38.6,8.3-68.6,18.2-128.5,4.2-25.1,10.1-59.4,18.2-100.7,9.5-48.6,14.3-72.9,20.6-97,16.7-63.5,25.2-67.5,37.8-120.5,10.2-42.7,13.2-75.7,16-106.1,2.6-28.9,5.6-76.7,2.3-135.7-1.6-28.9-4.2-66.5-13.7-115.2-7-36.1-13.2-53.9-12.1-86.5.7-18.8,4.1-34.8,10.9-66.7,7.8-36.7,12.7-50,21.7-92,4.2-19.8,7.2-35.9,8.9-45.8-32.5,14-93.6,35.2-172.1,31.4-61.4-3-109.5-20.1-139.3-33.4.7,27.7-.2,59.2-4.3,93.7-2.7,22.8-6.5,43.9-10.7,63.1h0Z"/>
  <path class="st6" d="M2251.4,2868c-6.8-12.7-14.8-53.7-30.8-135.5-6.3-32.5-13.7-73.5-20.7-121.6-5,6.7-21.3,26.4-50.3,34.3-36.8,10-66.6-6.4-72.4-9.8-2.1,10.8-2.6,17.2-2.7,21.1,0,.8-.2,2.9-.2,5.7s-.4,5.4-1.2,10.1c-.6,3.7-.9,3.7-2.7,11.4-2,8.1-2.1,10-3.7,13.8-.5,1.1-.9,2-1.3,2.8-.9,1.8-1.6,3.1-1.8,3.3-1.5,2.6-10.7,21.6-14,30.6-7.5,20.7-4.5,46.7-3.8,53.3,3.1,27.3,10.5,26.7,12.1,52.2.6,9.3-.5,20.8-2.6,43.8-1.9,20.8-2.9,31.1-4.2,37.4-3.9,19.8-8.5,27.9-3.8,38.6.9,2.1,4.3,9.9,12.5,13.2,5.5,2.2,10.8,1.5,12.9,1.1,4.2-.8,7.3-2.6,9.1-3.8.6-.5,1.5-1.3,2.6-2.3,2.9-2.6,5.1-4.7,5.7-5.3,8-8.1,11-18.1,11-18.1,1.1-3.7.6-4.3,1.5-11.3,1.3-9.8,3.1-16.2,4.2-20.4,3.5-14.6,1.4-21.5,3.8-39.3,0,0,2-14.9,29.2-70.7.3-.6,1-2,1.6-1.9,1.4.2,1.3,7.4,1.3,8.7-.1,17.9-26.2,36.1-21.9,46.9,2,5,8.1,2.2,19.3,10.6,8.7,6.5,13.2,14.3,16.6,20.4,1.7,3,6.7,12.1,9.4,25.3,4.1,19.3.9,35-1.9,48.4-2.3,10.9-6.7,26.3-15.9,43.5-2.1,7-5.7,17.5-12.5,29.1-12,20.7-28.3,35.5-32.1,38.9-15.3,13.7-30,21.8-28,28.7,1.2,4,7.5,5.9,7.4,11.1,0,2.5-1.6,4.6-2.7,5.8l.5,2.9c0,.4.2,1,.5,1.4,1.2,2.2,4.7,1.7,8,2.3,5.3,1,5.5,3.8,9.7,4.9,4.6,1.1,6.8-1.6,13.2-3.8,13.9-4.6,28,.1,27.9.9v.4c-.1.3-.3.6-.5,1.1-.9,3.1-.8,5.9-.6,7.8.9,1.4,1.8,2.8,2.6,4.2,3.8,1.9,9.5,4,15.9,3,15.2-2.4,22.6-20.5,35.9-48.4,27.8-58,28.8-48.3,36.5-72.1,11.9-36.7,2.9-39.9,16.3-71.1,11.3-26.4,15.2-40.4,15.7-45,.9-8.6-.2-21.6-10.6-38.6h0Z"/>
  <g class="st7">
    <path class="st1" d="M1197.1,2481c.1,0,.3,0,.4,0h-.4Z"/>
    <path class="st1" d="M1682,1473.9c-1.4-4.7-3.1-6-4.4-6.3-5.1-1-12.8,11.3-16.7,20.6-3.2,7.8-2.8,11.1-7.2,17-.7.9-3.1,3.5-7.8,8.6-2.6,2.9-4.9,5.3-8.1,8.2-1.3,1.2-2.9,2.6-3.7,3.3,0,0-3.1,2.7-6.2,5.2-90.2,74.2-180.9,65.6-438.9,65.5h-14.5c-283.6.3-381.9,11.9-472.5-68.2-22.4-19.8-38.2-39.8-48.8-55-1.1,5.1-2.1,10.1-3.1,15v161.2c2.5,9.3,5.3,17.7,8.3,25.3,4,10.2,10,22.9,20.1,49.6,5.9,15.6,16,43.3,40.2,127.2,27.2,94.6,30.4,115.3,32.1,135.3,1.3,14.7,1.9,31.1,2.7,50.9,1.9,48.6.9,71,0,84.4-1,14.8-1.3,11.5-2.7,29.5-2.6,33.7-4.7,62.5-1.3,96.4,3.4,34,8.8,36.5,5.3,53.5-2.7,13.3-9.8,35.5-13.1,45.6-2.1,6.3-3.9,11.6-5.2,15.2,0,0,.2.1.3.2,0,0,0-.1,0-.2,37.1,25.5,92.8,58.6,165.9,83.8,67.6,22.8,128.3,31,174.2,33.7v.6h15.5s0-14.6,0-14.6c-.2-2-.3-4.1-.3-6.1v-405.9c0-29,21.2-52.9,48.1-55.8,1.9-.2,3.9-.3,5.8-.3,29.5,0,53.5,25.2,53.5,56.1v427.6h4.4s0-.3,0-.3c4.5-.2,9-.5,13.7-.8,95-8,164-29.9,189.8-38.6,52.4-17.7,96.8-38.9,132.7-59.1.6-.3,1.1-.6,1.7-.9.8-.4,1.5-.9,2.3-1.3,15.5-8.9,29.7-17.7,42.5-26.1h0c-10.1-21.3-13.3-39-14.4-50.7-3.8-39.6,6.8-106.3,6.7-116.9,0-8.3-.3-7.7-1-25.9-1.7-45.9-1.5-84-1-112.1,1.1-41.9,6-104.8,25.9-178.2,21.8-80.5,44.8-111.6,63.4-176.9,14.2-49.9,26.8-122.6,16.1-219.1h0Z"/>
  </g>
  <path class="st1" d="M251,1926c-27.6,66.1-44.9,115.2-45.8,121.5-.5,3.5-.9,6.7-.9,6.7-.8,6.6-.8,9.7-2.8,23.8-5,34.6-8.3,38.5-11.9,67.6-1.8,14.5-1.8,19.9-4.5,37.9-1.3,8.4-2.4,16.3-4.5,26.8-2.8,14.1-4.5,18.2-7.6,31.9-1.7,7.7-3.2,15.3-6,32.2-6.2,38.5-9.5,65.6-9.5,65.6-9.5,78-20.3,140.7-20.3,140.7-4.1,24.5-10.5,60.2-20.3,103.8,9,7.8,31.4,25.1,65.1,30.1,25.8,3.8,46.6-1.4,57.7-5,3.7-14,9.9-34.6,20.3-58.4,12-27.4,23.6-45.3,32-59.2,17.7-29,13.3-30.3,54.3-107,43.3-81.2,65.2-122.3,75.1-147.9,5.9-15.4,14.6-41.9,32-95.1,2.6-8.1,9.5-24.8,13.4-48.3,3.6-22.2,5.8-38.7,6.4-46.5,1.9-23.5,5.7-59.8,14.2-115.6-22.1,2.4-60,2.8-98.7-16.2-6.7-3.3-28.5-14.3-50.4-36.6-18-18.3-28.9-36.8-35.3-49.8-5.3,9.6-10.7,19.2-16,29-12.5,22.9-24.5,45.6-36,68Z"/>
  <path class="st0" d="M649.5,1523.4v-10.3c-.2,2.4-.4,4.8-.7,7.2.3,1.1.5,2.1.7,3.1Z"/>
  <path class="st2" d="M649.5,987.8c-3.8.3-8.3.9-13.3,1.9-5.2,1-8.5,2-16.7,4.2-16.1,4.3-16.4,4.1-24,6.3-14.1,4-25.9,8.3-31.3,10.4-26.7,10.6-46.4,26.6-52.2,31.3-41.1,33.4-58.8,77.3-73.1,112.7-2.9,7.2-12.4,31.5-19.8,64.7-7.5,33.6-9.1,59.6-10.4,83.5-1.8,31.6-1.5,62.7-1,103.3.3,31.6.9,38.1-2.1,51.2-4.2,18.2-8.5,19.4-23.6,62.1-4.2,11.9-6.2,18.3-11.1,30.1-5.2,12.6-7.3,15.6-9.9,24-4.1,13.2-2.6,18.4-5,30.7-2.9,15-7.8,22.4-13.1,34.7-5.5,12.6-8.9,29.3-15.7,62.6-3.8,18.8-8.4,43.5-12.5,73.1-1.3,12-3,24.5-5.2,37.6v.2c-1.9,10.7-3.9,20.9-6,30.7,13.5,18.3,33.1,39.7,60.6,58,8.2,5.4,22,14.5,41.8,21.8,32.6,12.1,62.8,12.6,84.2,10.6,11.9-22.2,31.2-58.6,40.7-76.2,49.4-92.3,63.2-117.9,75.4-158.1,5.1-16.7,12.5-44.6,13.6-48.8,6.7-25.3,12.8-50,18.3-74.2,1.5-1.4,3.4-3.5,4.2-6.6.8-2.9.2-5.3,0-6.6-1.3-7.2,3.6-12.6,6.1-19.7.4-1.2.8-2.5,1.2-3.9v-551.6h0ZM649.5,1523.4c-.2-1-.4-2-.7-3.1.2-2.4.4-4.8.7-7.2v10.3Z"/>
  <path class="st5" d="M2025.7,1831.2c-4.4-14.3-5.7-27-5.9-36.6v-.2c-2.4-8.8-6.1-23.4-9.9-41.6-9.6-46.4-6.5-53.8-15.8-91.1-5.7-22.7-8.9-28-10.9-45.6-1.2-10.6-1.1-18.3-5-30.7-2.6-8.4-4.6-11.4-9.9-24-3.6-8.7-6.2-16-11.1-30.1-13-37.4-19.5-56.1-21.3-69.5-1.8-13.9-.8-20.6,0-40.3,1-27.6-.6-56.3-4-113.8-2.6-45.2-4.1-68.3-8.9-88.1-6.6-27.2-15.1-46.5-22.1-62-14.8-32.7-40.5-89.8-85.5-120-9.9-6.6-28.9-17.5-48.3-26.1-12.9-5.7-22.7-9-24.8-9.7-4.4-1.5-1.4-.3-23-6.6-6-1.7-8.7-2.6-12.8-3.1-7-.9-12.9-.3-16.8.3h0v534.3c.2,1.8.3,3.7.5,5.5-.2.8-.3,1.5-.5,2.3v17.4c.3,1.2.6,2.3,1,3.3,2.5,7.1,7.4,12.5,6.1,19.7-.2,1.2-.8,3.6,0,6.6s2.7,5.2,4.2,6.6c5.5,24.1,11.6,48.9,18.3,74.2,4.4,16.6,9,32.9,13.6,48.8,6.8,33,16.9,56.9,24.9,72.8,2.5,4.9,2.1,3.8,10.3,19.2,20.3,38.2,19.5,39.4,31,60.1,15.1,27.3,22.7,41,27.2,48.4,4.6,7.4,8,12.4,9.9,20.7,1.2,5.2,1.4,10.1,4.3,17.6,1.7,4.3,3.5,7.7,4.8,9.8,17.7,1.4,68.2,3.1,119.4-28.5,41.5-25.6,62.4-60,70.9-76.2-3.4-6.4-7-14.4-9.9-23.8h0Z"/>
  <path class="st1" d="M901.4,881.8c32.4,25.7,132,96.5,276.2,94.9,135.4-1.5,229.2-66.2,262.2-91.8.3.2.7.4,1,.6,1-.8,1.9-1.5,2.8-2.2l-8.9-7.6h0c-5.2-3.2-12.5-7.7-21-13.5-17.1-11.9-36.1-26-51.3-44-24.4-28.9-27.7-65.5-30.5-95.9-1.7-18.6-1-34.2,0-45.1-8.9,4.7-14.9,9.9-18.6,13.5-.9.9-4.2,4.1-7.9,9-4,5.3-6.4,9.6-6.8,10.2-4,7-29.6,31.5-60.9,44-78.7,31.5-194.5-12.3-204.1-44.1-1-3.2-4.9-19.5-14.8-21.8-2.9-.6-5.6,0-6.9.7-13.6,6,3.4,46.8-7.9,86.7-8.5,29.9-29.9,48.8-50.8,67.3-22.2,19.6-44.2,30.9-59,37.3,1.3,1,2.8,2.2,4.4,3.5.9-.5,1.9-1.1,2.8-1.6h0Z"/>
  <path class="st8" d="M1144.7,2113.6h.5c3,0,5.4,2.4,5.4,5.4l.3,144.7c0,3-2.4,5.4-5.4,5.4h-.5c-3,0-5.4-2.4-5.4-5.4l-.3-144.7c0-3,2.4-5.4,5.4-5.4Z"/>
  <path class="st8" d="M1146.4,2284.8c6.9-.5,13.1,7.5,13.9,18s-4.1,19.4-11,19.9-13.1-7.5-13.9-18h0c-.8-10.5,4.1-19.4,11-19.9ZM1142.5,2306.6c.4,1.6,1,2.9,1.8,3.9,1.9,2.4,5.3,2.9,7.7,1,1.5-1.1,2.3-3,2.1-4.9-.2-2.1-.8-3.6-1.8-4.8-1.9-2.4-5.5-2.8-7.9-.8-1.7,1.4-2.4,3.6-1.9,5.6h0Z"/>
  <path class="st6" d="M1543.4,2379.8c-.8.4-1.5.9-2.3,1.3-.6.3-1.1.6-1.7.9-35.9,20.2-80.3,41.4-132.7,59.1-25.8,8.7-94.8,30.6-189.8,38.6-6.9.5-13.8.9-20.4,1.2-35.7-.3-71.4-.7-107.1-1-47.2-1.8-113-9.2-187.3-34.3-70.6-24.4-124.9-56-162-81.1,18.6,18.5,43.3,43.9,71,75.3,63.4,72.1,104.8,132.9,130.2,170.3,30.8,45.1,60.8,93.7,91.6,149.1,25,44.9,33.6,61.6,33.6,61.6,10.7,20.6,35.2,63.2,80.1,127.3l1.6,2.3c-.9,2-1.9,4.7-2.9,8.1,10.6.2,21.2.3,31.8.4-.1-.6-.2-1.2-.4-1.8-1.2-5.3-2.8-9.5-4-12.3l1.6-2.3c44.9-64.1,69.4-106.7,80.1-127.3,0,0,8.6-16.7,33.6-61.6,30.8-55.4,60.9-104,91.6-149.1,25.4-37.4,66.8-98.2,130.2-170.3,22.7-25.7,43.4-47.5,60.4-64.7,3.2-4.1,6.2-8,9.1-11.6-11.1,7.1-23.1,14.5-36,21.9h0Z"/>
  <path class="st1" d="M1092.3,2480h-.1.1l107.1,1q1.6,0,0,0v-427.6c0-30.9-24-56.1-53.5-56.1s-3.9,0-5.8.3c-26.9,2.9-48.1,26.8-48.1,55.8v405.9c0,2,0,4.1.3,6.1v14.6Z"/>
  <path class="st4" d="M859.9,2732.5h.2c-64.6-80-120-157.9-167.4-231.1.7-2.4,1.3-4.8,2-7.1-.8-1.2-1.5-2.4-2.3-3.6-22.2,97.2-53.1,245.2-72.9,398.2-9.7,74.9-13.7,127.6-15.2,148.1-3.6,50.8-8.2,116-5.8,193.9,1.9,63,10.4,196.7,47.9,331.4h0c13.3,47.9,24.1,96.5,37.4,144.6,4.1,14.9,12.8,46.3,18.7,89.3,2.8,20.7,4.2,38.1,4.9,50.2,31.5,14.5,91.9,37.1,170.2,34.6,62.5-2,111.4-19.3,141-32.5,2.9-40.7,7-91.2,13.1-149.2,2.4-22.4,9.4-89,19.8-160.6,18.4-126.1,32.3-163.9,54.2-285,9.7-53.3,22.3-130.2,33-225.2-88.2-80.6-183.7-178.5-278.7-296.1h0Z"/>
  <path class="st4" d="M1726.4,3037.2c-2.5-37.3-6.6-80.3-15.3-140.3-22.2-153.9-57.9-306.7-81.6-400.8-6.7,10.4-13.6,20.8-20.6,31.4-55.6,84.5-123.2,176.3-205,270.6-66.7,76.9-133,144.1-195.8,202.2-8.5,8-17,15.8-25.3,23.4,0,0,0-.2,0-.2,0,0-.2.2-.3.2,7.3,92,18.8,165.8,27.8,215.4,20.7,114.7,36.1,147.2,60.1,288.7,3.7,22.1,13.3,80.4,22.7,156.6,7.5,60.6,12.8,116.4,16.6,166.3,36.6,13.2,95.8,29.3,169.6,27.3,60.4-1.6,109.4-14.7,142.8-26.5.2-14.4,1-35.3,4.1-60.2,4.9-39.7,12.2-68.6,17.3-84.8,14.6-46.1,21.4-94.4,33.1-141.4,12.3-49.7,43.4-175.6,51.7-331.3h0c1.4-25.8,4.7-100.1-1.8-196.6h0Z"/>
  <polygon class="st1" points="1622.1 3851.5 1622.1 3851.5 1622.1 3851.5 1622.1 3851.5 1622.1 3851.5 1622.1 3851.5"/>
  <path class="st1" d="M1678.9,4219.7c-10.6-59-8.5-59.6-16-100.4-12.4-67.5-20.3-77.5-29.7-125.5-6.5-33.3-13-81.4-11.1-142.3-33.4,11.8-82.5,25-142.8,26.5h0c-73.8,2-133-14.1-169.6-27.3,1.2,9.6,3.2,24.1,6.4,41.7,7.4,39.3,15.5,63.1,20.5,82.1,8.3,31.5,14.9,66.6,10.7,109.7-1.9,19.6-4.3,20.1-10.7,53.3-9.9,51.5-12.4,92.1-13.7,115.2-3.3,59-.4,106.8,2.3,135.7,1.2,12.7,5.1,53.1,16,106.1,9.3,45.2,11.4,40.6,35.4,134.6,19.8,78,24.7,106.1,27.4,125.5.9,6.5,3.1,23.3,6.8,47.9,4.8,32,8.8,54.9,9.5,59.2,4.4,26.1,8.7,76.5,7.6,183.8,7.1,6,47.1,38.8,102.6,31.9,34-4.2,57.3-21.3,67.3-29.7.5-23.8,1.8-58.6,5.7-100.4,5.4-57.8,13.2-100.7,17.1-122,36.6-201.5,36-192,44.5-248.6,16.6-111.3,7.6-96.1,21.7-193.9,2.6-18,6.8-45.9,4.6-83.3-1.5-24.8-4.9-36.9-12.5-79.8h0Z"/>
</svg>