<?xml version="1.0" encoding="UTF-8"?><svg id="_Слой_1" xmlns="http://www.w3.org/2000/svg" viewBox="0 0 2300 5500"><defs><style>.cls-1{fill:#9baa97;}</style></defs><path class="cls-1" d="M901.36,881.83c32.38,25.69,131.96,96.5,276.18,94.87,135.45-1.53,229.2-66.19,262.23-91.8.33.19.65.38.97.58,1.01-.78,1.95-1.53,2.83-2.22l-8.9-7.6v-.1c-5.2-3.1-12.5-7.6-21-13.4-17.1-11.9-36.1-26-51.3-44-24.4-28.9-27.7-65.5-30.5-95.9-1.7-18.6-1-34.2,0-45.1-8.9,4.7-14.9,9.9-18.6,13.5-.9.9-4.2,4.1-7.9,9-4,5.3-6.4,9.6-6.8,10.2-4,7-29.6,31.5-60.9,44-78.7,31.5-194.5-12.3-204.1-44.1-1-3.2-4.9-19.5-14.8-21.8-2.9-.6-5.6,0-6.9.7-13.6,6,3.4,46.8-7.9,86.7-8.5,29.9-29.9,48.8-50.8,67.3-22.2,19.6-44.2,30.9-59,37.3,1.29,1.05,2.77,2.23,4.38,3.5.94-.54,1.88-1.08,2.8-1.62Z"/></svg>