<?xml version="1.0" encoding="UTF-8"?><svg id="_Слой_1" xmlns="http://www.w3.org/2000/svg" viewBox="0 0 2300 5500"><defs><style>.cls-1{fill:#e0cdaf;}</style></defs><path class="cls-1" d="M309.3,1812.4c-1.8,10.7-3.8,20.9-5.9,30.7,11,16,32.5,42.7,68.6,63.3,50,28.6,98,28.4,118,27.1,13.9-26,30.3-56.8,40.7-76.2,49.4-92.3,63.2-117.9,75.4-158.1,5.1-16.7,12.5-44.6,13.6-48.8,6.7-25.3,12.8-50,18.3-74.2,1.5-1.4,3.4-3.5,4.2-6.6.8-2.9.2-5.3,0-6.6-1.3-7.2,3.6-12.6,6.1-19.7,1.8-4.9,3.1-12.3.5-23,1.6-16.5,2.6-34.2,2.8-53,.1-11.2,5.3-307.3,5.3-307.3-.4-23.5-.8-47.2-1-71.1-.3-34.2-.4-68-.2-101.5-4.5.2-11.4.7-19.6,2.3-5.2,1-8.5,2-16.7,4.2-16.1,4.3-16.4,4.1-24,6.3-14.1,4-25.9,8.3-31.3,10.4-26.7,10.6-46.4,26.6-52.2,31.3-41.1,33.4-58.8,77.3-73.1,112.7-2.9,7.2-12.4,31.5-19.8,64.7-7.5,33.6-9.1,59.6-10.4,83.5-1.8,31.6-1.5,62.7-1,103.3.3,31.6.9,38.1-2.1,51.2-4.2,18.2-8.5,19.4-23.6,62.1-4.2,11.9-6.2,18.3-11.1,30.1-5.2,12.6-7.3,15.6-9.9,24-4.1,13.2-2.6,18.4-5,30.7-2.9,15-7.8,22.4-13.1,34.7-5.5,12.6-8.9,29.3-15.7,62.6-3.8,18.8-8.4,43.5-12.5,73.1-1.3,12-3,24.5-5.2,37.6l-.1.2Z"/><path class="cls-1" d="M2019.8,1794.4c-2.4-8.8-6.1-23.4-9.9-41.6-9.6-46.4-6.5-53.8-15.8-91.1-5.7-22.7-8.9-28-10.9-45.6-1.2-10.6-1.1-18.3-5-30.7-2.6-8.4-4.6-11.4-9.9-24-3.6-8.7-6.2-16-11.1-30.1-13-37.4-19.5-56.1-21.3-69.5-1.8-13.9-.8-20.6,0-40.3,1-27.6-.6-56.3-4-113.8-2.6-45.2-4.1-68.3-8.9-88.1-6.6-27.2-15.1-46.5-22.1-62-14.8-32.7-40.5-89.8-85.5-120-9.9-6.6-28.9-17.5-48.3-26.1-12.9-5.7-22.7-9-24.8-9.7-4.4-1.5-1.4-.3-23-6.6-6-1.7-8.7-2.6-12.8-3.1-7-.9-12.9-.3-16.8.3-9.3,78.5-9.4,138.5-7.6,179.5,0,0,5.2,296.1,5.3,307.3.2,18.8,1.2,36.5,2.8,53-2.6,10.7-1.3,18.1.5,23,2.5,7.1,7.4,12.5,6.1,19.7-.2,1.2-.8,3.6,0,6.6s2.7,5.2,4.2,6.6c5.5,24.1,11.6,48.9,18.3,74.2,4.4,16.6,9,32.9,13.6,48.8,6.8,33,16.9,56.9,24.9,72.8,2.5,4.9,2.1,3.8,10.3,19.2,20.3,38.2,19.5,39.4,31,60.1,15.1,27.3,22.7,41,27.2,48.4,4.6,7.4,8,12.4,9.9,20.7,1.2,5.2,1.4,10.1,4.3,17.6,1.7,4.3,3.5,7.7,4.8,9.8,16.6,1.7,68.3,5,120.3-27.3,41.9-26,62.2-61.5,70-77.4-3.4-6.4-7-14.4-9.9-23.8-4.4-14.3-5.7-27-5.9-36.6v-.2Z"/></svg>