<?xml version="1.0" encoding="UTF-8"?>
<svg id="_Слой_1" xmlns="http://www.w3.org/2000/svg" version="1.1" viewBox="0 0 2300 5500">
  <!-- Generator: Adobe Illustrator 29.1.0, SVG Export Plug-In . SVG Version: 2.1.0 Build 142)  -->
  <defs>
    <style>
      .st0 {
        stroke-width: 2px;
      }

      .st0, .st1 {
        fill: #9bc8ec;
        stroke: #9bc8ec;
        stroke-miterlimit: 10;
      }
    </style>
  </defs>
  <path class="st1" d="M1197.1,2481h.4-.4Z"/>
  <path class="st0" d="M1682,1473.9c-1.4-4.7-3.1-6-4.4-6.3-5.1-1-12.8,11.3-16.7,20.6-3.2,7.8-2.8,11.1-7.2,17-.7.9-3.1,3.5-7.8,8.6-2.6,2.9-4.9,5.3-8.1,8.2-1.3,1.2-2.9,2.6-3.7,3.3,0,0-3.1,2.7-6.2,5.2-90.2,74.2-180.9,65.6-438.9,65.5h-14.5c-283.6.3-381.9,11.9-472.5-68.2-22.4-19.8-38.2-39.8-48.8-55-1.1,5.1-2.1,10.1-3.1,15v161.2c2.5,9.3,5.3,17.7,8.3,25.3,4,10.2,10,22.9,20.1,49.6,5.9,15.6,16,43.3,40.2,127.2,27.2,94.6,30.4,115.3,32.1,135.3,1.3,14.7,1.9,31.1,2.7,50.9,1.9,48.6.9,71,0,84.4-1,14.8-1.3,11.5-2.7,29.5-2.6,33.7-4.7,62.5-1.3,96.4,3.4,34,8.8,36.5,5.3,53.5-2.7,13.3-9.8,35.5-13.1,45.6-2.1,6.3-3.9,11.6-5.2,15.2,0,0,.2.1.3.2v-.2c37.1,25.5,92.8,58.6,165.9,83.8,67.6,22.8,128.3,31,174.2,33.7v.6h15.5v-14.6c-.2-2-.3-4.1-.3-6.1v-405.9c0-29,21.2-52.9,48.1-55.8,1.9-.2,3.9-.3,5.8-.3,29.5,0,53.5,25.2,53.5,56.1v427.6h4.4v-.3c4.5-.2,9-.5,13.7-.8,95-8,164-29.9,189.8-38.6,52.4-17.7,96.8-38.9,132.7-59.1.6-.3,1.1-.6,1.7-.9.8-.4,1.5-.9,2.3-1.3,15.5-8.9,29.7-17.7,42.5-26.1h0c-10.1-21.3-13.3-39-14.4-50.7-3.8-39.6,6.8-106.3,6.7-116.9,0-8.3-.3-7.7-1-25.9-1.7-45.9-1.5-84-1-112.1,1.1-41.9,6-104.8,25.9-178.2,21.8-80.5,44.8-111.6,63.4-176.9,14.2-49.9,26.8-122.6,16.1-219.1h0l-.3-.2Z"/>
  <path class="st1" d="M649.5,1523.4v-10.3c-.2,2.4-.4,4.8-.7,7.2.3,1.1.5,2.1.7,3.1h0Z"/>
</svg>