<?xml version="1.0" encoding="UTF-8"?><svg id="_Слой_1" xmlns="http://www.w3.org/2000/svg" viewBox="0 0 2300 5500"><defs><style>.cls-1{fill:#9baa97;}</style></defs><path class="cls-1" d="M1629.5,2495.8c-8.6-30.7-14.7-56.1-18.9-74.2,0,0-13.3-58.3-19.6-57-.3,0-.6.4-1.2.3-2.3-.2-3.7-5.3-4.5-9.7-19.1,18.8-45.3,45.6-74.8,79.1-63.4,72.1-104.8,132.9-130.2,170.3-30.7,45.1-60.8,93.7-91.6,149.1-25,44.9-33.6,61.6-33.6,61.6-10.7,20.6-35.2,63.2-80.1,127.3l-1.6,2.3c1.2,2.8,2.8,7,4,12.3,2.4,11.1,1.2,19.8,1.2,23,0,9,.7,22.9,4.2,43.5,88.4-80.7,184.2-179,279.5-296.8,64.7-80,120-157.9,167.4-231.1h-.2Z"/><path class="cls-1" d="M859.9,2732.5c95.3,117.9,191.1,216.1,279.5,296.8,3.5-20.6,4.2-34.4,4.2-43.5,0-3.2-1.3-12,1.2-23,1.2-5.3,2.8-9.5,4-12.3l-1.6-2.3c-44.9-64.1-69.4-106.7-80.1-127.3,0,0-8.6-16.7-33.6-61.6-30.8-55.4-60.8-104-91.6-149.1-25.4-37.4-66.8-98.2-130.2-170.3-29.6-33.6-55.8-60.4-74.8-79.1-.9,4.5-2.3,9.6-4.5,9.7-.6,0-.9-.3-1.2-.3-6.3-1.2-19.6,57-19.6,57-4.2,18.2-10.3,43.5-18.9,74.2,47.4,73.2,102.8,151.1,167.4,231.1h-.2Z"/></svg>