<?xml version="1.0" encoding="UTF-8"?><svg id="_Слой_1" xmlns="http://www.w3.org/2000/svg" viewBox="0 0 2300 5500"><defs><style>.cls-1,.cls-2{fill:#9baa97;}.cls-2{stroke:#9baa97;stroke-miterlimit:10;stroke-width:7px;}</style></defs><path class="cls-2" d="M1598.54,972.59c-51.11-25.97-104.05-55.2-158.77-87.69-33.03,25.61-126.78,90.27-262.23,91.8-144.22,1.63-243.8-69.18-276.18-94.87-1.29.75-2.6,1.5-3.92,2.26-52.9,30.2-108.2,60.1-165.8,89.6-20.36,10.43-38.88,12.77-45.3,14.4-14.89,3.78-27.62,6.09-36.95,7.54-.15,150.9-.3,301.79-.45,452.69.41,6.67.83,13.34,1.24,20.01,10.51,15.7,27.25,37.77,51.89,59.55,90.65,80.12,188.94,68.51,472.54,68.24,4.89,0,9.72,0,14.5,0,257.95.09,348.73,8.65,438.88-65.51,27.84-22.9,46.72-46.38,58.14-62.28,1-7.57,1.97-15.18,2.93-22.83.73-5.84,1.2-9.72,1.36-11.05v-436.92c-32.01-5.94-65.57-11.47-91.9-24.93Z"/><path class="cls-1" d="M649.45,1523.36v-10.26c-.2,2.42-.42,4.83-.65,7.2.26,1.06.46,2.07.65,3.06Z"/></svg>