<?xml version="1.0" encoding="UTF-8"?><svg id="_Слой_1" xmlns="http://www.w3.org/2000/svg" viewBox="0 0 2300 5500"><defs><style>.cls-1{fill:#e0cdaf;}</style></defs><path class="cls-1" d="M1162.4,1663.1c106.8,8.7,336.8,11.4,467.3-137.9,8.4-9.6,16.4-19.9,24.1-31,17.4-24.9,29.5-41.8,32.7-44.9,0,0,3.9-3.8,3.9-7.1,0-.1,0-.4-.2-4.4,0,0,0-1.3-.2-4.8-.1-2.8-.8-21.2-1.8-47.2.3-14.8.4-29.9.4-45.3,0-10.3-.2-20.5-.4-30.6-.7-41.2-1.8-69.6-2.8-88.5-.3-6.1-1.2-23.2-2-46.4-.5-13.5-.8-24.7-.9-32.2-1.4-28.9-.7-52.3.2-68.6.5-8.4,1.5-21.5,3.5-47.6,1.3-16.5,2.4-30.2,3.1-39.5-12.6-1.5-31-4.5-52.6-10.7-34.1-9.8-55.9-21.9-101.9-46.5-19.2-10.3-51.1-27.4-92.8-49.3-28.8,22.9-124.8,93.4-266.3,95-150.8,1.7-252.8-75.8-280.2-98.1-39.8,28.7-91.8,59.7-156.2,83.7-23.4,8.7-45.9,15.5-67,20.9-5.5,1.8-11,3.6-16.5,5.4.2,14.7.5,35.9.9,61.6,1.3,97.9,1.3,125.7.5,145.4-.2,3.8-.3,6.3-.5,9.8-5.1,86-29.7,212.6-18.1,228.4.6.8,4.5,5.7,7.9,13.4,1.9,4.4,2.9,7.7,3.2,8.7,1.8,6,7.2,16.6,23,36.4,9.4,10.7,19.4,21,30.1,31,141.8,133,338.4,146.3,459.8,141l-.2-.1Z"/></svg>