<?xml version="1.0" encoding="UTF-8"?>
<svg id="_Слой_1" xmlns="http://www.w3.org/2000/svg" version="1.1" viewBox="0 0 2300 5500">
  <!-- Generator: Adobe Illustrator 29.1.0, SVG Export Plug-In . SVG Version: 2.1.0 Build 142)  -->
  <defs>
    <style>
      .st0, .st1 {
        fill: #9bc8ec;
        stroke: #9bc8ec;
        stroke-miterlimit: 10;
      }

      .st1 {
        stroke-width: 7px;
      }
    </style>
  </defs>
  <path class="st1" d="M1598.5,972.6c-51.1-26-104.1-55.2-158.8-87.7-33,25.6-126.8,90.3-262.2,91.8-144.2,1.6-243.8-69.2-276.2-94.9-1.3.8-2.6,1.5-3.9,2.3-52.9,30.2-108.2,60.1-165.8,89.6-20.4,10.4-38.9,12.8-45.3,14.4-14.9,3.8-27.6,6.1-37,7.5-.2,150.9-.3,301.8-.5,452.7.4,6.7.8,13.3,1.2,20,10.5,15.7,27.2,37.8,51.9,59.6,90.7,80.1,188.9,68.5,472.5,68.2h14.5c257.9,0,348.7,8.7,438.9-65.5,27.8-22.9,46.7-46.4,58.1-62.3,1-7.6,2-15.2,2.9-22.8.7-5.8,1.2-9.7,1.4-11.1v-436.9c-32-5.9-65.6-11.5-91.9-24.9h0Z"/>
  <path class="st0" d="M649.5,1523.4v-10.3c-.2,2.4-.4,4.8-.7,7.2.3,1.1.5,2.1.7,3.1Z"/>
</svg>