<?xml version="1.0" encoding="UTF-8"?><svg id="_Слой_1" xmlns="http://www.w3.org/2000/svg" viewBox="0 0 2300 5500"><defs><style>.cls-1{fill:none;}.cls-2,.cls-3,.cls-4,.cls-5,.cls-6,.cls-7{fill:#d4deeb;}.cls-3,.cls-4{isolation:isolate;}.cls-3,.cls-8{opacity:.5;}.cls-4{opacity:.2;}.cls-9{fill:#1d1d1b;}.cls-5{opacity:.49;}.cls-6{opacity:.51;}.cls-7{opacity:.25;}</style></defs><path class="cls-3" d="M430.3,5402.8c-1.2,3-3.9,9.9-1.1,16.6,1.6,3.8,5,7.7,15.9,12.1,15.1,6.2,22.4,4.6,38.6,8.3,19.6,4.5,16.4,8.6,28.8,9.8,21.1,2.1,27.6-10.1,43.5-5,10.1,3.2,9.8,8.7,21.6,12.6,10.7,3.5,20.2,1.9,28.2.3,31.5-6.2,58.9-16.6,70.4-20.9,43.8-16.2,47.2-18.2,52.2-22.6,16.2-14.6,15.8-26.7,33.9-39.1,13.5-9.2,27.5-11.5,36.5-13,21.9-3.8,26.4,1.8,49.2-2.4,7.1-1.3,19.5-3.7,33.4-11.5,8-4.5,21.4-12,28.7-25.2,5.1-9.3,5.4-18.1.9-50.4-7.5-53.3-12.5-59.8-11.3-84.2,1.1-22.7,5.7-21.1,5-40.4-.8-23.4-7.9-32.9-12.7-61.5-.71-4.24-1.15-7.51-1.36-9.08-2-15.39-2.18-28.06-1.99-36.62-4.48,5.11-34.93,38.71-84.76,38.5-45.05-.19-73.59-27.89-79.01-33.37-1.06,15.28-4.04,37.34-12.99,62.27-7.83,21.81-16.14,36.53-34.8,63.5-32.6,47.1-56.2,78.6-85.4,106.4-13.2,12.6-24.6,21.4-33.3,28.3-33.87,26.86-50.24,34.42-83.1,59.3-10.7,8.1-26.53,20.59-45,37.3Z"/><path class="cls-3" d="M1758,5309.4c-47.1-36-74.7-71.2-118.7-134.7-27.38-39.51-32.68-57.43-34.8-63.5-8.28-23.72-10.93-44.66-11.82-59.11-6.42,4.63-15.59,10.42-27.38,15.38-2.05.86-23.21,9.59-46.41,10.69-45.94,2.18-83.19-26.36-91.1-32.66,0,9.5-.3,23.7-1.4,40.9-2.4,37.9-6.3,50.1-13.2,104-10,77.8-2,53.4-7.8,85.2-3.3,18.2-7.4,34.3.9,50.4,7.5,14.5,20.9,21.3,28.7,25.2,25.7,13,39.2,3.9,82.6,13.9,17.6,4.1,26.6,6.2,36.5,13,18.1,12.4,17.7,24.5,33.9,39.1,4.9,4.4,8.3,6.4,52.2,22.6,54.3,20.1,60.6,21.5,70.4,20.9,20.3-1.2,19.1-8.6,45.2-10.4,20.8-1.4,29,2.8,46.9-2.6,14.6-4.4,13.1-8.4,26.1-11.3,21.3-4.8,31,4.7,42.6-1.7,12.35-6.82,14.7-27.45,14.8-28.7,3.93-46.76-119.83-93.5-128.2-96.6Z"/><path class="cls-2" d="M1629.5,2495.8c-8.6-30.7-14.7-56.1-18.9-74.2,0,0-13.3-58.3-19.6-57-.3,0-.6.4-1.2.3-2.3-.2-3.7-5.3-4.5-9.7-19.1,18.8-45.3,45.6-74.8,79.1-63.4,72.1-104.8,132.9-130.2,170.3-30.7,45.1-60.8,93.7-91.6,149.1-25,44.9-33.6,61.6-33.6,61.6-10.7,20.6-35.2,63.2-80.1,127.3l-1.6,2.3c1.2,2.8,2.8,7,4,12.3,2.4,11.1,1.2,19.8,1.2,23,0,9,.7,22.9,4.2,43.5,88.4-80.7,184.2-179,279.5-296.8,64.7-80,120-157.9,167.4-231.1h-.2Z"/><path class="cls-4" d="M50.9,2864.3c19.9-39,23.4-84.3,35.5-126.3,10.1-35,23.3-85.1,35.8-148.4,9.7,7,29.6,19.3,57.8,23.9,28.9,4.6,52.1-1.3,63.5-5-4.3,7.3-6.5,13.8-7.7,18.5-2.3,8.8-2.3,18.1-2.4,36.9,0,1.1.2,3.1.1,5.7,0,1.8.3,5.4,1.1,10.1.4,2.8.7,3.5,1.5,7,.7,3,.3,4.1,1,4.4.9.4,1.7-1,2.9-.8,1.2.3,1.7,2.1,3.1,6.7,1.6,5.4,2.2,6.8,2.5,7.4,1.3,3,2.7,4.9,3.1,5.5,2.9,4.3,7.1,17.4,8.7,31.8,2.4,22.3-2.1,43.4-4.1,51.5-.1,6.3-1,11.3-1.8,14.7-1.9,7.7-4.1,10.8-7.6,21.1,0,0-2.8,6.4-4,13.8-.9,5.5.2,19.6,2.5,47.8,1.7,21.2,2.5,31.9,3.7,36.2,4.6,17.1,11.3,25.5,7,36.2-2.5,6.4-8.1,11.2-10.1,12.9-3.5,2.8-6.9,5.5-11.4,5.2-1.3,0-6.3-.5-9-3.9-.7-.9-1.5-2.3-2.6-2.3-1.3,0-1.7,1.8-3,1.9-1.3.1-2.3-1.2-3.7-2.8-1.3-1.4-3.2-3.3-5.8-5.2-1.9-1.5-4.6-3.9-7-7.7-2.8-4.3-3.7-8.2-4.3-10.4-1.1-4.5-.7-6.4-1.2-12-.6-6.3-1.7-10.2-2.5-13.8-1.4-6.4-3.1-17.9-4.6-40.8-3.4-13.8-16.9-68-21.2-75.2-.3-.5-1.2-2-1.6-1.9-.7.3,1.3,6.9,3.2,13,7.8,25.7,7.8,29.2,6.4,32.5-1.6,3.8-3.3,3.2-11.3,10.4-2.8,2.5-14.1,12.7-20.8,24.8-4.8,8.7-5.9,16.1-7.7,28.2-1.9,13.1-4.4,31,1.2,53.3,4.6,18.2,12.8,32,19.6,41.4,2,7,5.5,17.6,12.1,29.2,5,8.8,10.2,14.5,31.7,39.3,13.1,15.2,19.7,22.9,18.9,29.2-1.1,9.8-12,16.4-19,19.8-4.3-15-18.2-19.5-27.4-17.5-8.9,1.9-9.9,22.1-9.8,22.3h0v.3c0,.1.3.9.3,1.1,0,.7-4.6,1.7-5.1,1.8-1,1.4-2.1,2.8-3.1,4.2-3.1.2-7.8.1-12.9-1.5-6.8-2.2-15.5-7.5-32.3-38.5-12.8-23.6-13.2-27.9-21-41.8-4.8-8.5-7.4-12.4-9.8-17.6-2.5-5.3-2.4-7-4.9-13.1-3.9-9.5-6-11.2-8.8-17.6-4.2-9.5-4.9-17.4-6.1-30.4-1.2-14.1.3-15-.6-23.2-2.4-21.8-15-27.6-19.2-43.7-4.8-18.4,5.1-34.8,12.2-48.7v.1Z"/><path class="cls-2" d="M2034.5,1857.4c-7.53,13.57-20.39,33.08-41.2,51.9-23.13,20.92-45.44,31.36-54.73,35.34-38.39,16.46-73.46,16.6-93.27,15.06,7.37,56.47,11.07,93.2,13.1,118,.67,8.15,2.76,24.54,6.4,46.5,3.9,23.5,10.7,40.2,13.4,48.3,17.4,53.2,26,79.8,32,95.1,9.9,25.6,31.7,66.7,75.1,147.9,11.9,22.4,26,50.6,54.3,107,6,12,15.2,30.6,23.8,56.5,7.6,23,11.8,42.7,14.1,56.5,5.9,3.4,35.5,19.5,72.1,9.7,29.1-7.9,45.5-27.5,50.5-34.2-9.9-39.9-15.8-72.7-19.3-94.4-9.9-61.6-14.7-123.4-24.5-231.9-1.1-12.2-2.4-25.8-5.2-43.9-1.7-10.9-2.7-14.9-4.5-26.8-2.7-18-2.7-23.4-4.5-37.9-3.6-29.1-6.9-33.1-11.9-67.6-2.6-17.9-1.9-18-3.7-30.5-6.6-44.5-20.9-78.5-29-97.4-.69-1.59-1.28-2.95-1.96-4.42-13.07-28.47-24.42-48.75-29.24-57.28-7.7-13.61-18.61-33.81-31.8-61.5Z"/><path class="cls-2" d="M859.9,2732.5c95.3,117.9,191.1,216.1,279.5,296.8,3.5-20.6,4.2-34.4,4.2-43.5,0-3.2-1.3-12,1.2-23,1.2-5.3,2.8-9.5,4-12.3l-1.6-2.3c-44.9-64.1-69.4-106.7-80.1-127.3,0,0-8.6-16.7-33.6-61.6-30.8-55.4-60.8-104-91.6-149.1-25.4-37.4-66.8-98.2-130.2-170.3-29.6-33.6-55.8-60.4-74.8-79.1-.9,4.5-2.3,9.6-4.5,9.7-.6,0-.9-.3-1.2-.3-6.3-1.2-19.6,57-19.6,57-4.2,18.2-10.3,43.5-18.9,74.2,47.4,73.2,102.8,151.1,167.4,231.1h-.2Z"/><ellipse class="cls-2" cx="636.4" cy="1375.6" rx="134.3" ry="143.5"/><ellipse class="cls-2" cx="1673.6" cy="1375.6" rx="134.3" ry="143.5"/><path class="cls-7" d="M1598.54,972.59c-51.11-25.97-104.05-55.2-158.77-87.69-33.03,25.61-126.78,90.27-262.23,91.8-144.22,1.63-243.8-69.18-276.18-94.87-1.29.75-2.6,1.5-3.92,2.26-52.9,30.2-108.2,60.1-165.8,89.6-14.2,7.3-29.5,12.2-45.3,14.4-4.1.55-16.14,3.06-36.15,7.53v472.71c10.51,15.7,27.25,37.77,51.89,59.55,90.65,80.12,188.94,68.51,472.54,68.24,4.89,0,9.72,0,14.5,0,257.95.09,348.73,8.65,438.88-65.51,27.84-22.9,46.72-46.38,58.14-62.28,1-7.57,1.97-15.18,2.93-22.83.73-5.84,1.2-9.72,1.36-11.05v-436.92c-32.01-5.94-65.57-11.47-91.9-24.93Z"/><path class="cls-2" d="M692.1,4003.3c-8.6,45.5-13.2,66.7-24.3,122.5-9.2,46.6-13.9,70.2-15.8,83.7-4.6,33.2-6.2,59.3-8.5,99.4-2.6,44.7-3.9,67.1-3.6,87.3.6,48.5,7.3,93.1,20.8,182.4,2.2,14.4,3.3,21.8,5.1,32.9,9.9,59.9,15.3,71.9,20.1,110.5,3.5,27.4.8,21.5,4.9,58.7,3.1,28.3,5.8,41.2,12.1,82.5,5.9,38.4,10,67.8,12.1,83.7,3.9,28.5,8.3,63.2,12.9,102.8,7.7,7,31.4,26.9,67.3,29.7,51.5,4,85.9-30.4,90.9-35.5-.4-27.4.3-61.6,3.6-100.7,3.3-38.6,8.3-68.6,18.2-128.5,4.2-25.1,10.1-59.4,18.2-100.7,9.5-48.6,14.3-72.9,20.6-97,16.7-63.5,25.2-67.5,37.8-120.5,10.2-42.7,13.2-75.7,16-106.1,2.6-28.9,5.6-76.7,2.3-135.7-1.6-28.9-4.2-66.5-13.7-115.2-7-36.1-13.2-53.9-12.1-86.5.7-18.8,4.1-34.8,10.9-66.7,7.82-36.68,12.73-50.02,21.7-92,4.22-19.78,7.16-35.89,8.9-45.82-32.47,14-93.64,35.2-172.1,31.42-61.39-2.96-109.55-20.07-139.3-33.4.74,27.71-.2,59.24-4.3,93.7-2.71,22.79-6.45,43.88-10.7,63.1Z"/><path class="cls-4" d="M2251.4,2868c-6.8-12.7-14.8-53.7-30.8-135.5-6.3-32.5-13.7-73.5-20.7-121.6-5.04,6.68-21.27,26.39-50.3,34.3-36.83,10.03-66.62-6.45-72.4-9.8-2.1,10.8-2.6,17.2-2.7,21.1,0,.8-.2,2.9-.2,5.7s-.4,5.4-1.2,10.1c-.6,3.7-.9,3.7-2.7,11.4-2,8.1-2.1,10-3.7,13.8-.5,1.1-.9,2-1.3,2.8-.9,1.8-1.6,3.1-1.8,3.3-1.5,2.6-10.7,21.6-14,30.6-7.5,20.7-4.5,46.7-3.8,53.3,3.1,27.3,10.5,26.7,12.1,52.2.6,9.3-.5,20.8-2.6,43.8-1.9,20.8-2.9,31.1-4.2,37.4-3.9,19.8-8.5,27.9-3.8,38.6.9,2.1,4.3,9.9,12.5,13.2,5.5,2.2,10.8,1.5,12.9,1.1,4.2-.8,7.3-2.6,9.1-3.8.6-.5,1.5-1.3,2.6-2.3,2.9-2.6,5.1-4.7,5.7-5.3,8-8.1,11-18.1,11-18.1,1.1-3.7.6-4.3,1.5-11.3,1.3-9.8,3.1-16.2,4.2-20.4,3.5-14.6,1.4-21.5,3.8-39.3,0,0,2-14.9,29.2-70.7.3-.6,1-2,1.6-1.9,1.4.2,1.3,7.4,1.3,8.7-.1,17.9-26.2,36.1-21.9,46.9,2,5,8.1,2.2,19.3,10.6,8.7,6.5,13.2,14.3,16.6,20.4,1.7,3,6.7,12.1,9.4,25.3,4.1,19.3.9,35-1.9,48.4-2.3,10.9-6.7,26.3-15.9,43.5-2.1,7-5.7,17.5-12.5,29.1-12,20.7-28.3,35.5-32.1,38.9-15.3,13.7-30,21.8-28,28.7,1.2,4,7.5,5.9,7.4,11.1,0,2.5-1.6,4.6-2.7,5.8l.5,2.9c0,.4.2,1,.5,1.4,1.2,2.2,4.7,1.7,8,2.3,5.3,1,5.5,3.8,9.7,4.9,4.6,1.1,6.8-1.6,13.2-3.8,13.9-4.6,28,.1,27.9.9l-.1.4c0,.3-.2.6-.4,1.1-.9,3.1-.8,5.9-.6,7.8.9,1.4,1.8,2.8,2.6,4.2,3.8,1.9,9.5,4,15.9,3,15.2-2.4,22.6-20.5,35.9-48.4,27.8-58,28.8-48.3,36.5-72.1,11.9-36.7,2.9-39.9,16.3-71.1,11.33-26.38,15.25-40.38,15.7-45,.85-8.62-.22-21.64-10.6-38.6Z"/><g class="cls-8"><path class="cls-2" d="M1197.08,2480.99c.13,0,.26-.01.39-.02h-.39s0,.02,0,.02Z"/><path class="cls-2" d="M1682.04,1473.9c-1.39-4.69-3.08-6-4.42-6.27-5.1-1.04-12.85,11.35-16.69,20.63-3.21,7.76-2.75,11.1-7.2,17-.71.94-3.07,3.5-7.77,8.64-2.62,2.86-4.88,5.33-8.05,8.2-1.29,1.17-2.93,2.58-3.72,3.27,0,0-3.14,2.72-6.2,5.23-90.15,74.16-180.93,65.6-438.88,65.51-4.78,0-9.61,0-14.5,0-283.61.27-381.89,11.88-472.54-68.24-22.37-19.77-38.21-39.76-48.8-55.03-1.11,5.1-2.14,10.1-3.09,15.01v161.15c2.48,9.34,5.31,17.74,8.29,25.28,4,10.2,10,22.9,20.1,49.6,5.9,15.6,16,43.3,40.2,127.2,27.2,94.6,30.4,115.3,32.1,135.3,1.3,14.7,1.9,31.1,2.7,50.9,1.9,48.6.9,71,0,84.4-1,14.8-1.3,11.5-2.7,29.5-2.6,33.7-4.7,62.5-1.3,96.4,3.4,34,8.8,36.5,5.3,53.5-2.7,13.3-9.8,35.5-13.1,45.6-2.1,6.3-3.9,11.6-5.2,15.2.09.06.19.13.28.19-.02-.06-.04-.12-.06-.18,37.08,25.52,92.81,58.56,165.89,83.79,67.61,22.82,128.27,31.03,174.2,33.67v.6l15.46.03v-14.6c-.2-2-.3-4.1-.3-6.1v-405.9c0-29,21.2-52.9,48.1-55.8,1.9-.2,3.9-.3,5.8-.3,29.5,0,53.5,25.2,53.5,56.1v427.56l4.38.04v-.35c4.5-.24,9.04-.51,13.67-.84,94.96-8.01,163.97-29.88,189.79-38.6,52.42-17.7,96.79-38.94,132.69-59.11.56-.31,1.11-.63,1.67-.94.77-.44,1.54-.87,2.31-1.31,15.51-8.88,29.69-17.7,42.51-26.15h-.1c-10.1-21.3-13.3-39-14.4-50.7-3.8-39.6,6.8-106.3,6.7-116.9,0-8.3-.3-7.7-1-25.9-1.7-45.9-1.5-84-1-112.1,1.1-41.9,6-104.8,25.9-178.2,21.8-80.5,44.8-111.6,63.4-176.9,14.22-49.86,26.8-122.64,16.06-219.09Z"/></g><path class="cls-2" d="M265.4,1888.4c-26.4,51.2-27.4,52.9-31.2,61.7-8.1,18.8-22.4,52.9-29,97.4-1.8,12.4-1.1,12.5-3.7,30.5-5,34.6-8.3,38.5-11.9,67.6-1.8,14.5-1.8,19.9-4.5,37.9-1.3,8.4-2.4,16.3-4.5,26.8-2.8,14.1-4.5,18.2-7.6,31.9-1.7,7.7-3.2,15.3-6,32.2-6.2,38.5-9.5,65.6-9.5,65.6-9.5,78-20.3,140.7-20.3,140.7-4.1,24.5-10.5,60.2-20.3,103.8,9,7.8,31.4,25.1,65.1,30.1,25.8,3.8,46.6-1.4,57.7-5,3.7-14,9.9-34.6,20.3-58.4,12-27.4,23.6-45.3,32-59.2,17.7-29,13.3-30.3,54.3-107,43.3-81.2,65.2-122.3,75.1-147.9,5.9-15.4,14.6-41.9,32-95.1,2.6-8.1,9.5-24.8,13.4-48.3,3.6-22.2,5.8-38.7,6.4-46.5,1.9-23.5,5.7-59.8,14.2-115.6-22.1,2.4-60,2.8-98.7-16.2-24.2-11.8-40.7-27.3-50.4-36.6-19.9-19-33-38-41.2-51.9-7.1,13.8-18.1,35.2-31.6,61.5h-.1Z"/><path class="cls-1" d="M649.45,1523.36v-10.26c-.2,2.42-.42,4.83-.65,7.2.26,1.06.46,2.07.65,3.06Z"/><path class="cls-6" d="M649.45,987.82c-3.8.34-8.32.9-13.35,1.88-5.2,1-8.5,2-16.7,4.2-16.1,4.3-16.4,4.1-24,6.3-14.1,4-25.9,8.3-31.3,10.4-26.7,10.6-46.4,26.6-52.2,31.3-41.1,33.4-58.8,77.3-73.1,112.7-2.9,7.2-12.4,31.5-19.8,64.7-7.5,33.6-9.1,59.6-10.4,83.5-1.8,31.6-1.5,62.7-1,103.3.3,31.6.9,38.1-2.1,51.2-4.2,18.2-8.5,19.4-23.6,62.1-4.2,11.9-6.2,18.3-11.1,30.1-5.2,12.6-7.3,15.6-9.9,24-4.1,13.2-2.6,18.4-5,30.7-2.9,15-7.8,22.4-13.1,34.7-5.5,12.6-8.9,29.3-15.7,62.6-3.8,18.8-8.4,43.5-12.5,73.1-1.3,12-3,24.5-5.2,37.6l-.1.2c-1.8,10.7-3.8,20.9-5.9,30.7,13.51,18.34,33.08,39.72,60.61,57.96,8.16,5.41,22.01,14.46,41.82,21.8,32.64,12.09,62.84,12.61,84.18,10.64,11.86-22.22,31.25-58.55,40.7-76.2,49.4-92.3,63.2-117.9,75.4-158.1,5.1-16.7,12.5-44.6,13.6-48.8,6.7-25.3,12.8-50,18.3-74.2,1.5-1.4,3.4-3.5,4.2-6.6.8-2.9.2-5.3,0-6.6-1.3-7.2,3.6-12.6,6.1-19.7.43-1.16.82-2.47,1.15-3.92v-551.56ZM649.45,1523.36c-.18-.99-.39-2.01-.65-3.06.23-2.37.44-4.78.65-7.2v10.26Z"/><path class="cls-5" d="M2025.7,1831.2c-4.4-14.3-5.7-27-5.9-36.6v-.2c-2.4-8.8-6.1-23.4-9.9-41.6-9.6-46.4-6.5-53.8-15.8-91.1-5.7-22.7-8.9-28-10.9-45.6-1.2-10.6-1.1-18.3-5-30.7-2.6-8.4-4.6-11.4-9.9-24-3.6-8.7-6.2-16-11.1-30.1-13-37.4-19.5-56.1-21.3-69.5-1.8-13.9-.8-20.6,0-40.3,1-27.6-.6-56.3-4-113.8-2.6-45.2-4.1-68.3-8.9-88.1-6.6-27.2-15.1-46.5-22.1-62-14.8-32.7-40.5-89.8-85.5-120-9.9-6.6-28.9-17.5-48.3-26.1-12.9-5.7-22.7-9-24.8-9.7-4.4-1.5-1.4-.3-23-6.6-6-1.7-8.7-2.6-12.8-3.1-7-.9-12.9-.3-16.8.3,0,0,0,.01,0,.02v534.3c.16,1.84.33,3.67.5,5.49-.19.78-.35,1.54-.5,2.28v17.42c.3,1.21.64,2.31,1,3.3,2.5,7.1,7.4,12.5,6.1,19.7-.2,1.2-.8,3.6,0,6.6s2.7,5.2,4.2,6.6c5.5,24.1,11.6,48.9,18.3,74.2,4.4,16.6,9,32.9,13.6,48.8,6.8,33,16.9,56.9,24.9,72.8,2.5,4.9,2.1,3.8,10.3,19.2,20.3,38.2,19.5,39.4,31,60.1,15.1,27.3,22.7,41,27.2,48.4,4.6,7.4,8,12.4,9.9,20.7,1.2,5.2,1.4,10.1,4.3,17.6,1.7,4.3,3.5,7.7,4.8,9.8,17.67,1.4,68.18,3.08,119.4-28.49,41.48-25.57,62.38-59.97,70.9-76.21-3.4-6.4-7-14.4-9.9-23.8Z"/><path class="cls-2" d="M901.36,881.83c32.38,25.69,131.96,96.5,276.18,94.87,135.45-1.53,229.2-66.19,262.23-91.8.33.19.65.38.97.58,1.01-.78,1.95-1.53,2.83-2.22l-8.9-7.6v-.1c-5.2-3.1-12.5-7.6-21-13.4-17.1-11.9-36.1-26-51.3-44-24.4-28.9-27.7-65.5-30.5-95.9-1.7-18.6-1-34.2,0-45.1-8.9,4.7-14.9,9.9-18.6,13.5-.9.9-4.2,4.1-7.9,9-4,5.3-6.4,9.6-6.8,10.2-4,7-29.6,31.5-60.9,44-78.7,31.5-194.5-12.3-204.1-44.1-1-3.2-4.9-19.5-14.8-21.8-2.9-.6-5.6,0-6.9.7-13.6,6,3.4,46.8-7.9,86.7-8.5,29.9-29.9,48.8-50.8,67.3-22.2,19.6-44.2,30.9-59,37.3,1.29,1.05,2.77,2.23,4.38,3.5.94-.54,1.88-1.08,2.8-1.62Z"/><path class="cls-9" d="M1144.72,2113.59h.53c3,0,5.44,2.43,5.45,5.43l.28,144.73c0,3-2.43,5.44-5.43,5.45h-.53c-3,0-5.44-2.43-5.45-5.43l-.28-144.73c0-3,2.43-5.44,5.43-5.45Z"/><path class="cls-9" d="M1146.43,2284.78c6.86-.53,13.07,7.54,13.88,18.02s-4.1,19.4-10.96,19.93-13.07-7.54-13.88-18.02h0c-.81-10.48,4.1-19.4,10.96-19.93ZM1142.54,2306.65c.41,1.64.99,2.92,1.75,3.86,1.87,2.4,5.33,2.86,7.74,1.04,1.52-1.15,2.31-3.01,2.09-4.9-.18-2.05-.76-3.65-1.75-4.82-1.95-2.41-5.49-2.78-7.9-.82-1.67,1.36-2.42,3.55-1.93,5.65h0Z"/><path class="cls-4" d="M1543.39,2379.83c-.77.44-1.54.87-2.31,1.31-.55.31-1.11.63-1.67.94-35.9,20.18-80.27,41.41-132.69,59.11-25.83,8.72-94.83,30.59-189.79,38.6-6.95.5-13.77.89-20.43,1.18-35.7-.33-71.4-.67-107.1-1-47.18-1.8-113.05-9.24-187.29-34.3-70.57-24.36-124.94-55.99-161.98-81.12,18.62,18.46,43.32,43.92,70.99,75.33,63.4,72.1,104.8,132.9,130.2,170.3,30.8,45.1,60.8,93.7,91.6,149.1,25,44.9,33.6,61.6,33.6,61.6,10.7,20.6,35.2,63.2,80.1,127.3l1.6,2.3c-.86,2-1.92,4.73-2.89,8.05,10.62.17,21.23.28,31.85.45-.11-.59-.23-1.19-.36-1.79-1.2-5.3-2.8-9.5-4-12.3l1.6-2.3c44.9-64.1,69.4-106.7,80.1-127.3,0,0,8.6-16.7,33.6-61.6,30.8-55.4,60.9-104,91.6-149.1,25.4-37.4,66.8-98.2,130.2-170.3,22.66-25.74,43.36-47.5,60.41-64.74,3.16-4.07,6.2-7.96,9.09-11.65-11.08,7.15-23.08,14.51-36.03,21.93Z"/><path class="cls-2" d="M1092.35,2479.99s-.08,0-.13,0c.04,0,.08,0,.13,0l107.1,1q2.43-.11,0,0v-427.6c0-30.9-24-56.1-53.5-56.1-1.9,0-3.9.1-5.8.3-26.9,2.9-48.1,26.8-48.1,55.8v405.9c0,2,.1,4.1.3,6.1v14.6Z"/><path class="cls-3" d="M859.9,2732.5h.2c-64.6-80-120-157.9-167.4-231.1.68-2.42,1.34-4.8,1.98-7.15-.76-1.2-1.53-2.4-2.28-3.59-22.2,97.25-53.1,245.23-72.9,398.25-9.7,74.9-13.7,127.55-15.2,148.08-3.6,50.84-8.2,115.97-5.8,193.89,1.9,63.02,10.4,196.71,47.9,331.4h-.1c13.3,47.92,24.1,96.54,37.4,144.56,4.1,14.9,12.8,46.31,18.7,89.29,2.8,20.74,4.2,38.05,4.9,50.23,31.5,14.5,91.9,37.15,170.2,34.63,62.5-2.01,111.4-19.33,141-32.52,2.9-40.67,7-91.21,13.1-149.19,2.4-22.45,9.4-88.99,19.8-160.57,18.4-126.14,32.3-163.89,54.2-284.99,9.68-53.26,22.33-130.21,32.98-225.18-88.17-80.56-183.67-178.51-278.68-296.05Z"/><path class="cls-3" d="M1726.4,3037.2c-2.5-37.3-6.6-80.3-15.3-140.3-22.17-153.92-57.92-306.74-81.62-400.77-6.71,10.36-13.59,20.82-20.62,31.35-55.63,84.5-123.2,176.33-204.96,270.61-66.74,76.93-133.01,144.05-195.75,202.16-8.51,7.97-16.96,15.79-25.35,23.44-.01-.08-.03-.16-.04-.24-.09.08-.17.16-.26.24,7.3,92,18.8,165.8,27.8,215.4,20.7,114.7,36.1,147.2,60.1,288.7,3.7,22.1,13.3,80.4,22.7,156.6,7.5,60.6,12.8,116.4,16.6,166.3,36.6,13.2,95.8,29.3,169.6,27.3,60.4-1.6,109.4-14.7,142.8-26.5.2-14.4,1-35.3,4.1-60.2,4.9-39.7,12.2-68.6,17.3-84.8,14.6-46.1,21.4-94.4,33.1-141.4,12.3-49.7,43.4-175.6,51.7-331.3h-.1c1.4-25.8,4.7-100.1-1.8-196.6Z"/><polygon class="cls-2" points="1622.1 3851.49 1622.1 3851.5 1622.1 3851.5 1622.1 3851.5 1622.1 3851.5 1622.1 3851.49"/><path class="cls-2" d="M1678.9,4219.7c-10.6-59-8.5-59.6-16-100.4-12.4-67.5-20.3-77.5-29.7-125.5-6.5-33.28-12.99-81.45-11.1-142.3-33.4,11.8-82.5,25-142.8,26.5h0c-73.8,2-133-14.1-169.6-27.3,1.2,9.6,3.2,24.1,6.4,41.7,7.4,39.3,15.5,63.1,20.5,82.1,8.3,31.5,14.9,66.6,10.7,109.7-1.9,19.6-4.3,20.1-10.7,53.3-9.9,51.5-12.4,92.1-13.7,115.2-3.3,59-.4,106.8,2.3,135.7,1.2,12.7,5.1,53.1,16,106.1,9.3,45.2,11.4,40.6,35.4,134.6,19.8,78,24.7,106.1,27.4,125.5.9,6.5,3.1,23.3,6.8,47.9,4.8,32,8.8,54.9,9.5,59.2,4.4,26.1,8.7,76.5,7.6,183.8,7.1,6,47.1,38.8,102.6,31.9,34-4.2,57.3-21.3,67.3-29.7.5-23.8,1.8-58.6,5.7-100.4,5.4-57.8,13.2-100.7,17.1-122,36.6-201.5,36-192,44.5-248.6,16.6-111.3,7.6-96.1,21.7-193.9,2.6-18,6.8-45.9,4.6-83.3-1.5-24.8-4.9-36.9-12.5-79.8Z"/></svg>