<?xml version="1.0" encoding="UTF-8"?><svg id="_Слой_1" xmlns="http://www.w3.org/2000/svg" viewBox="0 0 2300 5500"><defs><style>.cls-1{fill:#9baa97;}</style></defs><path class="cls-1" d="M1543.39,2379.83c-.77.44-1.54.87-2.31,1.31-.55.31-1.11.63-1.67.94-35.9,20.18-80.27,41.41-132.69,59.11-25.83,8.72-94.83,30.59-189.79,38.6-6.95.5-13.77.89-20.43,1.18-35.7-.33-71.4-.67-107.1-1-47.18-1.8-113.05-9.24-187.29-34.3-70.57-24.36-124.94-55.99-161.98-81.12,18.62,18.46,43.32,43.92,70.99,75.33,63.4,72.1,104.8,132.9,130.2,170.3,30.8,45.1,60.8,93.7,91.6,149.1,25,44.9,33.6,61.6,33.6,61.6,10.7,20.6,35.2,63.2,80.1,127.3l1.6,2.3c-.86,2,25.8-2.8,24.6-5.6l1.6-2.3c44.9-64.1,69.4-106.7,80.1-127.3,0,0,8.6-16.7,33.6-61.6,30.8-55.4,60.9-104,91.6-149.1,25.4-37.4,66.8-98.2,130.2-170.3,22.66-25.74,43.36-47.5,60.41-64.74,3.16-4.07,6.2-7.96,9.09-11.65-11.08,7.15-23.08,14.51-36.03,21.93Z"/></svg>