<?xml version="1.0" encoding="UTF-8"?><svg id="_Слой_1" xmlns="http://www.w3.org/2000/svg" viewBox="0 0 2300 5500"><defs><style>.cls-1{fill:#e0cdaf;}</style></defs><path class="cls-1" d="M2034.5,1857.4c-8.2,13.9-21.3,32.9-41.2,51.9-9.7,9.2-26.2,24.7-50.4,36.6-38.8,19-76.7,18.6-98.7,16.2,8.4,55.8,12.2,92.1,14.2,115.6.6,7.8,2.8,24.3,6.4,46.5,3.9,23.5,10.7,40.2,13.4,48.3,17.4,53.2,26,79.8,32,95.1,9.9,25.6,31.7,66.7,75.1,147.9,11.9,22.4,26,50.6,54.3,107,6,12,15.2,30.6,23.8,56.5,7.6,23,11.8,42.7,14.1,56.5,5.9,3.4,35.5,19.5,72.1,9.7,29.1-7.9,45.5-27.5,50.5-34.2-9.9-39.9-15.8-72.7-19.3-94.4-9.9-61.6-14.7-123.4-24.5-231.9-1.1-12.2-2.4-25.8-5.2-43.9-1.7-10.9-2.7-14.9-4.5-26.8-2.7-18-2.7-23.4-4.5-37.9-3.6-29.1-6.9-33.1-11.9-67.6-2.6-17.9-1.9-18-3.7-30.5-6.6-44.5-20.9-78.5-29-97.4-3.8-8.8-4.8-10.5-31.2-61.7-13.6-26.3-24.6-47.7-31.6-61.5h-.2Z"/><path class="cls-1" d="M2183.7,2647v.1c.1,0,.2,0,.3-.1h-.4.1Z"/><path class="cls-1" d="M265.4,1888.4c-26.4,51.2-27.4,52.9-31.2,61.7-8.1,18.8-22.4,52.9-29,97.4-1.8,12.4-1.1,12.5-3.7,30.5-5,34.6-8.3,38.5-11.9,67.6-1.8,14.5-1.8,19.9-4.5,37.9-1.3,8.4-2.4,16.3-4.5,26.8-2.8,14.1-4.5,18.2-7.6,31.9-1.7,7.7-3.2,15.3-6,32.2-6.2,38.5-9.5,65.6-9.5,65.6-9.5,78-20.3,140.7-20.3,140.7-4.1,24.5-10.5,60.2-20.3,103.8,9,7.8,31.4,25.1,65.1,30.1,25.8,3.8,46.6-1.4,57.7-5,3.7-14,9.9-34.6,20.3-58.4,12-27.4,23.6-45.3,32-59.2,17.7-29,13.3-30.3,54.3-107,43.3-81.2,65.2-122.3,75.1-147.9,5.9-15.4,14.6-41.9,32-95.1,2.6-8.1,9.5-24.8,13.4-48.3,3.6-22.2,5.8-38.7,6.4-46.5,1.9-23.5,5.7-59.8,14.2-115.6-22.1,2.4-60,2.8-98.7-16.2-24.2-11.8-40.7-27.3-50.4-36.6-19.9-19-33-38-41.2-51.9-7.1,13.8-18.1,35.2-31.6,61.5h-.1Z"/></svg>