<?xml version="1.0" encoding="UTF-8"?><svg id="_Слой_1" xmlns="http://www.w3.org/2000/svg" viewBox="0 0 2300 5500"><defs><style>.cls-1{fill:#e0cdaf;}</style></defs><path class="cls-1" d="M50.9,2864.3c19.9-39,23.4-84.3,35.5-126.3,10.1-35,23.3-85.1,35.8-148.4,9.7,7,29.6,19.3,57.8,23.9,28.9,4.6,52.1-1.3,63.5-5-4.3,7.3-6.5,13.8-7.7,18.5-2.3,8.8-2.3,18.1-2.4,36.9,0,1.1.2,3.1.1,5.7,0,1.8.3,5.4,1.1,10.1.4,2.8.7,3.5,1.5,7,.7,3,.3,4.1,1,4.4.9.4,1.7-1,2.9-.8,1.2.3,1.7,2.1,3.1,6.7,1.6,5.4,2.2,6.8,2.5,7.4,1.3,3,2.7,4.9,3.1,5.5,2.9,4.3,7.1,17.4,8.7,31.8,2.4,22.3-2.1,43.4-4.1,51.5-.1,6.3-1,11.3-1.8,14.7-1.9,7.7-4.1,10.8-7.6,21.1,0,0-2.8,6.4-4,13.8-.9,5.5.2,19.6,2.5,47.8,1.7,21.2,2.5,31.9,3.7,36.2,4.6,17.1,11.3,25.5,7,36.2-2.5,6.4-8.1,11.2-10.1,12.9-3.5,2.8-6.9,5.5-11.4,5.2-1.3,0-6.3-.5-9-3.9-.7-.9-1.5-2.3-2.6-2.3-1.3,0-1.7,1.8-3,1.9-1.3.1-2.3-1.2-3.7-2.8-1.3-1.4-3.2-3.3-5.8-5.2-1.9-1.5-4.6-3.9-7-7.7-2.8-4.3-3.7-8.2-4.3-10.4-1.1-4.5-.7-6.4-1.2-12-.6-6.3-1.7-10.2-2.5-13.8-1.4-6.4-3.1-17.9-4.6-40.8-3.4-13.8-16.9-68-21.2-75.2-.3-.5-1.2-2-1.6-1.9-.7.3,1.3,6.9,3.2,13,7.8,25.7,7.8,29.2,6.4,32.5-1.6,3.8-3.3,3.2-11.3,10.4-2.8,2.5-14.1,12.7-20.8,24.8-4.8,8.7-5.9,16.1-7.7,28.2-1.9,13.1-4.4,31,1.2,53.3,4.6,18.2,12.8,32,19.6,41.4,2,7,5.5,17.6,12.1,29.2,5,8.8,10.2,14.5,31.7,39.3,13.1,15.2,19.7,22.9,18.9,29.2-1.1,9.8-12,16.4-19,19.8-4.3-15-18.2-19.5-27.4-17.5-8.9,1.9-9.9,22.1-9.8,22.3h0v.3c0,.1.3.9.3,1.1,0,.7-4.6,1.7-5.1,1.8-1,1.4-2.1,2.8-3.1,4.2-3.1.2-7.8.1-12.9-1.5-6.8-2.2-15.5-7.5-32.3-38.5-12.8-23.6-13.2-27.9-21-41.8-4.8-8.5-7.4-12.4-9.8-17.6-2.5-5.3-2.4-7-4.9-13.1-3.9-9.5-6-11.2-8.8-17.6-4.2-9.5-4.9-17.4-6.1-30.4-1.2-14.1.3-15-.6-23.2-2.4-21.8-15-27.6-19.2-43.7-4.8-18.4,5.1-34.8,12.2-48.7v.1Z"/><path class="cls-1" d="M2183.7,2647v.1c.1,0,.2,0,.3-.1h-.4.1Z"/><path class="cls-1" d="M2251.4,2868c-6.8-12.7-14.8-53.7-30.8-135.5-6.3-32.5-13.7-73.5-20.7-121.6-2.9,3.3-41.3,26.6-48.5,28.4-32.3,8.2-64.6-.9-74.2-3.9-2.1,10.8-2.6,17.2-2.7,21.1,0,.8-.2,2.9-.2,5.7s-.4,5.4-1.2,10.1c-.6,3.7-.9,3.7-2.7,11.4-2,8.1-2.1,10-3.7,13.8-.5,1.1-.9,2-1.3,2.8-.9,1.8-1.6,3.1-1.8,3.3-1.5,2.6-10.7,21.6-14,30.6-7.5,20.7-4.5,46.7-3.8,53.3,3.1,27.3,10.5,26.7,12.1,52.2.6,9.3-.5,20.8-2.6,43.8-1.9,20.8-2.9,31.1-4.2,37.4-3.9,19.8-8.5,27.9-3.8,38.6.9,2.1,4.3,9.9,12.5,13.2,5.5,2.2,10.8,1.5,12.9,1.1,4.2-.8,7.3-2.6,9.1-3.8.6-.5,1.5-1.3,2.6-2.3,2.9-2.6,5.1-4.7,5.7-5.3,8-8.1,11-18.1,11-18.1,1.1-3.7.6-4.3,1.5-11.3,1.3-9.8,3.1-16.2,4.2-20.4,3.5-14.6,1.4-21.5,3.8-39.3,0,0,2-14.9,29.2-70.7.3-.6,1-2,1.6-1.9,1.4.2,1.3,7.4,1.3,8.7-.1,17.9-26.2,36.1-21.9,46.9,2,5,8.1,2.2,19.3,10.6,8.7,6.5,13.2,14.3,16.6,20.4,1.7,3,6.7,12.1,9.4,25.3,4.1,19.3.9,35-1.9,48.4-2.3,10.9-6.7,26.3-15.9,43.5-2.1,7-5.7,17.5-12.5,29.1-12,20.7-28.3,35.5-32.1,38.9-15.3,13.7-30,21.8-28,28.7,1.2,4,7.5,5.9,7.4,11.1,0,2.5-1.6,4.6-2.7,5.8l.5,2.9c0,.4.2,1,.5,1.4,1.2,2.2,4.7,1.7,8,2.3,5.3,1,5.5,3.8,9.7,4.9,4.6,1.1,6.8-1.6,13.2-3.8,13.9-4.6,28,.1,27.9.9l-.1.4c0,.3-.2.6-.4,1.1-.9,3.1-.8,5.9-.6,7.8.9,1.4,1.8,2.8,2.6,4.2,3.8,1.9,9.5,4,15.9,3,15.2-2.4,22.6-20.5,35.9-48.4,27.8-58,28.8-48.3,36.5-72.1,11.9-36.7,2.9-39.9,16.3-71.1,7.9-18.3,15.4-27.5,15.7-45,.3-18.5-7.6-32.3-10.9-38.6h.3Z"/></svg>