<?xml version="1.0" encoding="UTF-8"?><svg id="_Слой_1" xmlns="http://www.w3.org/2000/svg" viewBox="0 0 2300 5500"><defs><style>.cls-1{fill:#e0cdaf;}</style></defs><path class="cls-1" d="M1586.7,2353.8c-10.1-21.3-13.3-39-14.4-50.7-3.8-39.6,6.8-106.3,6.7-116.9,0-8.3-.3-7.7-1-25.9-1.7-45.9-1.5-84-1-112.1,1.1-41.9,6-104.8,25.9-178.2,21.8-80.5,44.8-111.6,63.4-176.9,15-52.6,28.2-130.7,14.1-235.2-70.2,98.6-147.2,143.5-191.3,164.2-84,39.3-165,39.9-326.8,41-141.3,1-212.5-16-249.1-26.2-87.9-24.7-136.2-56.5-151.3-67-51.7-35.6-86-75.5-106.8-103.7-23.8,103.7-12.2,168,3.7,208.2,4,10.2,10,22.9,20.1,49.6,5.9,15.6,16,43.3,40.2,127.2,27.2,94.6,30.4,115.3,32.1,135.3,1.3,14.7,1.9,31.1,2.7,50.9,1.9,48.6.9,71,0,84.4-1,14.8-1.3,11.5-2.7,29.5-2.6,33.7-4.7,62.5-1.3,96.4,3.4,34,8.8,36.5,5.3,53.5-2.7,13.3-9.8,35.5-13.1,45.6-2.1,6.3-3.9,11.6-5.2,15.2,36.7,25.6,87.9,55.7,153.2,79.3,79.5,28.7,150.3,36.9,200.2,38.8v-14.6c-.2-2-.3-4.1-.3-6.1v-405.9c0-29,21.2-52.9,48.1-55.8,1.9-.2,3.9-.3,5.8-.3,29.5,0,53.5,25.2,53.5,56.1v427.6c38.6-1.7,82.3-6.6,129.6-17,113.4-24.9,200.9-71.5,259.8-110.3h-.1Z"/></svg>