<?xml version="1.0" encoding="UTF-8"?><svg id="_Слой_1" xmlns="http://www.w3.org/2000/svg" viewBox="0 0 2300 5500"><defs><style>.cls-1{fill:#9baa97;}</style></defs><path class="cls-1" d="M859.9,2732.5h.2c-64.6-80-120-157.9-167.4-231.1.68-2.42,1.34-4.8,1.98-7.15-.76-1.2-1.53-2.4-2.28-3.59-22.2,97.25-53.1,245.23-72.9,398.25-9.7,74.9-13.7,127.55-15.2,148.08-3.6,50.84-8.2,115.97-5.8,193.89,1.9,63.02,10.4,196.71,47.9,331.4h-.1c13.3,47.92,24.1,96.54,37.4,144.56,4.1,14.9,12.8,46.31,18.7,89.29,2.8,20.74,4.2,38.05,4.9,50.23,31.5,14.5,91.9,37.15,170.2,34.63,62.5-2.01,111.4-19.33,141-32.52,2.9-40.67,7-91.21,13.1-149.19,2.4-22.45,9.4-88.99,19.8-160.57,18.4-126.14,32.3-163.89,54.2-284.99,9.68-53.26,22.33-130.21,32.98-225.18-88.17-80.56-183.67-178.51-278.68-296.05Z"/><path class="cls-1" d="M1726.4,3037.2c-2.5-37.3-6.6-80.3-15.3-140.3-22.17-153.92-57.92-306.74-81.62-400.77-6.71,10.36-13.59,20.82-20.62,31.35-55.63,84.5-123.2,176.33-204.96,270.61-66.74,76.93-133.01,144.05-195.75,202.16-8.51,7.97-16.96,15.79-25.35,23.44-.01-.08-.03-.16-.04-.24-.09.08-.17.16-.26.24,7.3,92,18.8,165.8,27.8,215.4,20.7,114.7,36.1,147.2,60.1,288.7,3.7,22.1,13.3,80.4,22.7,156.6,7.5,60.6,12.8,116.4,16.6,166.3,36.6,13.2,95.8,29.3,169.6,27.3,60.4-1.6,109.4-14.7,142.8-26.5.2-14.4,1-35.3,4.1-60.2,4.9-39.7,12.2-68.6,17.3-84.8,14.6-46.1,21.4-94.4,33.1-141.4,12.3-49.7,43.4-175.6,51.7-331.3h-.1c1.4-25.8,4.7-100.1-1.8-196.6Z"/></svg>