<?xml version="1.0" encoding="UTF-8"?><svg id="_Слой_1" xmlns="http://www.w3.org/2000/svg" viewBox="0 0 2300 5500"><defs><style>.cls-1{fill:#e0cdaf;}</style></defs><path class="cls-1" d="M1728.2,3233.8c1.4-25.8,4.7-100.1-1.8-196.6-2.5-37.3-6.6-80.3-15.3-140.3-22.2-154.1-58-307.1-81.7-401.1-59.3,93-133.4,196.1-225.5,302.3-75.9,87.5-151.2,162.3-221.4,225.6,7.3,92,18.8,165.8,27.8,215.4,20.7,114.7,36.1,147.2,60.1,288.7,3.7,22.1,13.3,80.4,22.7,156.6,7.5,60.6,12.8,116.4,16.6,166.3,36.6,13.2,95.8,29.3,169.6,27.3,60.4-1.6,109.4-14.7,142.8-26.5.2-14.4,1-35.3,4.1-60.2,4.9-39.7,12.2-68.6,17.3-84.8,14.6-46.1,21.4-94.4,33.1-141.4,12.3-49.7,43.4-175.6,51.7-331.3h-.1Z"/><path class="cls-1" d="M646.3,3564.4c13.3,47.6,24.1,95.9,37.4,143.6,4.1,14.8,12.8,46,18.7,88.7,2.8,20.6,4.2,37.8,4.9,49.9,31.5,14.4,91.9,36.9,170.2,34.4,62.5-2,111.4-19.2,141-32.3,2.9-40.4,7-90.6,13.1-148.2,2.4-22.3,9.4-88.4,19.8-159.5,18.4-125.3,32.3-162.8,54.2-283.1,9.9-54.1,22.9-132.8,33.7-230.1-70.2-63.3-145.5-138.1-221.4-225.6-92.1-106.2-166.2-209.3-225.5-302.3-22.2,96.6-53.1,243.6-72.9,395.6-9.7,74.4-13.7,126.7-15.2,147.1-3.6,50.5-8.2,115.2-5.8,192.6,1.9,62.6,10.4,195.4,47.9,329.2h-.1Z"/></svg>