<?xml version="1.0" encoding="UTF-8"?>
<svg id="_Слой_1" xmlns="http://www.w3.org/2000/svg" version="1.1" viewBox="0 0 2300 5500">
  <!-- Generator: Adobe Illustrator 29.1.0, SVG Export Plug-In . SVG Version: 2.1.0 Build 142)  -->
  <defs>
    <style>
      .st0 {
        fill: #9bc8ec;
        stroke: #9bc8ec;
        stroke-miterlimit: 10;
      }
    </style>
  </defs>
  <path class="st0" d="M859.9,2732.5h.2c-64.6-80-120-157.9-167.4-231.1.7-2.4,1.3-4.8,2-7.1-.8-1.2-1.5-2.4-2.3-3.6-22.2,97.2-53.1,245.2-72.9,398.2-9.7,74.9-13.7,127.6-15.2,148.1-3.6,50.8-8.2,116-5.8,193.9,1.9,63,10.4,196.7,47.9,331.4h0c13.3,47.9,24.1,96.5,37.4,144.6,4.1,14.9,12.8,46.3,18.7,89.3,2.8,20.7,4.2,38.1,4.9,50.2,31.5,14.5,91.9,37.1,170.2,34.6,62.5-2,111.4-19.3,141-32.5,2.9-40.7,7-91.2,13.1-149.2,2.4-22.4,9.4-89,19.8-160.6,18.4-126.1,32.3-163.9,54.2-285,9.7-53.3,22.3-130.2,33-225.2-88.2-80.6-183.7-178.5-278.7-296.1h0Z"/>
  <path class="st0" d="M1726.4,3037.2c-2.5-37.3-6.6-80.3-15.3-140.3-22.2-153.9-57.9-306.7-81.6-400.8-6.7,10.4-13.6,20.8-20.6,31.4-55.6,84.5-123.2,176.3-205,270.6-66.7,76.9-133,144.1-195.8,202.2-8.5,8-17,15.8-25.3,23.4,0,0,0-.2,0-.2,0,0-.2.2-.3.2,7.3,92,18.8,165.8,27.8,215.4,20.7,114.7,36.1,147.2,60.1,288.7,3.7,22.1,13.3,80.4,22.7,156.6,7.5,60.6,12.8,116.4,16.6,166.3,36.6,13.2,95.8,29.3,169.6,27.3,60.4-1.6,109.4-14.7,142.8-26.5.2-14.4,1-35.3,4.1-60.2,4.9-39.7,12.2-68.6,17.3-84.8,14.6-46.1,21.4-94.4,33.1-141.4,12.3-49.7,43.4-175.6,51.7-331.3h0c1.4-25.8,4.7-100.1-1.8-196.6h0Z"/>
</svg>