<?xml version="1.0" encoding="UTF-8"?>
<svg id="_Слой_1" xmlns="http://www.w3.org/2000/svg" version="1.1" viewBox="0 0 2300 5500">
  <!-- Generator: Adobe Illustrator 29.1.0, SVG Export Plug-In . SVG Version: 2.1.0 Build 142)  -->
  <defs>
    <style>
      .st0 {
        fill: #010101;
      }

      .st1, .st2, .st3 {
        fill: #d4deeb;
      }

      .st2 {
        opacity: .5;
      }

      .st2, .st3 {
        isolation: isolate;
      }

      .st3, .st4 {
        opacity: .2;
      }

      .st5 {
        fill: #fff;
      }

      .st6 {
        fill: #c3e0e3;
      }
    </style>
  </defs>
  <path class="st2" d="M430.3,5402.8c-1.2,3-3.9,9.9-1.1,16.6,1.6,3.8,5,7.7,15.9,12.1,15.1,6.2,22.4,4.6,38.6,8.3,19.6,4.5,16.4,8.6,28.8,9.8,21.1,2.1,27.6-10.1,43.5-5,10.1,3.2,9.8,8.7,21.6,12.6,10.7,3.5,20.2,1.9,28.2.3,31.5-6.2,58.9-16.6,70.4-20.9,43.8-16.2,47.2-18.2,52.2-22.6,16.2-14.6,15.8-26.7,33.9-39.1,13.5-9.2,27.5-11.5,36.5-13,21.9-3.8,26.4,1.8,49.2-2.4,7.1-1.3,19.5-3.7,33.4-11.5,8-4.5,21.4-12,28.7-25.2,5.1-9.3,5.4-18.1.9-50.4-7.5-53.3-12.5-59.8-11.3-84.2,1.1-22.7,5.7-21.1,5-40.4-.8-23.4-7.9-32.9-12.7-61.5-1.7-10.1-3.6-25.1-3.4-44-5.3,5.6-35.8,36.5-84.7,36.8-43.5.2-72.2-24.1-79-30.2-1.3,14.4-4.5,35.4-13,59.1-7.9,21.9-17.8,39-34.8,63.5-32.6,47.1-56.2,78.6-85.4,106.4-13.2,12.6-24.6,21.4-33.3,28.3-37.5,29.8-56.3,44.7-83.1,59.3-15.4,8.4-37.7,19-45.1,37.2Z"/>
  <path class="st1" d="M1622.1,3851.5c-33.4,11.8-82.5,25-142.8,26.5-73.8,1.9-132.9-14.2-169.6-27.3,1.2,9.6,3.2,24.1,6.4,41.7,7.4,39.3,15.5,63.1,20.5,82.1,8.3,31.5,14.9,66.6,10.7,109.7-1.9,19.6-4.3,20.1-10.7,53.3-9.9,51.5-12.4,92.1-13.7,115.2-3.3,59-.4,106.8,2.3,135.7,1.2,12.7,5.1,53.1,16,106.1,9.3,45.2,11.4,40.6,35.4,134.6,19.8,78,24.7,106.1,27.4,125.5.9,6.5,3.1,23.3,6.8,47.9,4.8,32,8.8,54.9,9.5,59.2,4.4,26.1,8.7,76.5,7.6,183.8,7.1,6,47.1,38.8,102.6,31.9,34-4.2,57.3-21.3,67.3-29.7.5-23.8,1.8-58.6,5.7-100.4,5.4-57.8,13.2-100.7,17.1-122,36.6-201.5,36-192,44.5-248.6,16.6-111.3,7.6-96.1,21.7-193.9,2.6-18,6.8-45.9,4.6-83.3-1.5-24.8-4.9-36.9-12.5-79.8-10.6-59-8.5-59.6-16-100.4-12.4-67.5-20.3-77.5-29.7-125.5-6.5-33.3-13-81.5-11.1-142.4Z"/>
  <path class="st2" d="M1758,5309.4c-47.1-36-74.7-71.2-118.7-134.7-16.9-24.4-26.9-41.5-34.8-63.5-8.6-23.8-11.8-44.7-13-59.1-10.3,7.4-35.5,23.5-71.3,25.2-49.8,2.4-84.2-24.9-92.4-31.8,0,9.5-.3,23.7-1.4,40.9-2.4,37.9-6.3,50.1-13.2,104-10,77.8-2,53.4-7.8,85.2-3.3,18.2-7.4,34.3.9,50.4,7.5,14.5,20.9,21.3,28.7,25.2,25.7,13,39.2,3.9,82.6,13.9,17.6,4.1,26.6,6.2,36.5,13,18.1,12.4,17.7,24.5,33.9,39.1,4.9,4.4,8.3,6.4,52.2,22.6,54.3,20.1,60.6,21.5,70.4,20.9,20.3-1.2,19.1-8.6,45.2-10.4,20.8-1.4,29,2.8,46.9-2.6,14.6-4.4,13.1-8.4,26.1-11.3,21.3-4.8,31,4.7,42.6-1.7,10.6-5.9,14.6-20.7,14.8-28.7.9-33-58.5-43.2-128.2-96.5Z"/>
  <path class="st1" d="M1629.5,2495.8c-8.6-30.7-14.7-56.1-18.9-74.2,0,0-13.3-58.3-19.6-57-.3,0-.6.4-1.2.3-2.3-.2-3.7-5.3-4.5-9.7-19.1,18.8-45.3,45.6-74.8,79.1-63.4,72.1-104.8,132.9-130.2,170.3-30.7,45.1-60.8,93.7-91.6,149.1-25,44.9-33.6,61.6-33.6,61.6-10.7,20.6-35.2,63.2-80.1,127.3,0,0-1.6,2.3-1.6,2.3,1.2,2.8,2.8,7,4,12.3,2.4,11.1,1.2,19.8,1.2,23,0,9,.7,22.9,4.2,43.5,88.4-80.7,184.2-179,279.5-296.8,64.7-80,120-157.9,167.4-231.1Z"/>
  <path class="st3" d="M50.9,2864.3c19.9-39,23.4-84.3,35.5-126.3,10.1-35,23.3-85.1,35.8-148.4,9.7,7,29.6,19.3,57.8,23.9,28.9,4.6,52.1-1.3,63.5-5-4.3,7.3-6.5,13.8-7.7,18.5-2.3,8.8-2.3,18.1-2.4,36.9,0,1.1.2,3.1.1,5.7,0,1.8.3,5.4,1.1,10.1.4,2.8.7,3.5,1.5,7,.7,3,.3,4.1,1,4.4.9.4,1.7-1,2.9-.8,1.2.3,1.7,2.1,3.1,6.7,1.6,5.4,2.2,6.8,2.5,7.4,1.3,3,2.7,4.9,3.1,5.5,2.9,4.3,7.1,17.4,8.7,31.8,2.4,22.3-2.1,43.4-4.1,51.5-.1,6.3-1,11.3-1.8,14.7-1.9,7.7-4.1,10.8-7.6,21.1,0,0-2.8,6.4-4,13.8-.9,5.5.2,19.6,2.5,47.8,1.7,21.2,2.5,31.9,3.7,36.2,4.6,17.1,11.3,25.5,7,36.2-2.5,6.4-8.1,11.2-10.1,12.9-3.5,2.8-6.9,5.5-11.4,5.2-1.3,0-6.3-.5-9-3.9-.7-.9-1.5-2.3-2.6-2.3-1.3,0-1.7,1.8-3,1.9-1.3.1-2.3-1.2-3.7-2.8-1.3-1.4-3.2-3.3-5.8-5.2-1.9-1.5-4.6-3.9-7-7.7-2.8-4.3-3.7-8.2-4.3-10.4-1.1-4.5-.7-6.4-1.2-12-.6-6.3-1.7-10.2-2.5-13.8-1.4-6.4-3.1-17.9-4.6-40.8-3.4-13.8-16.9-68-21.2-75.2-.3-.5-1.2-2-1.6-1.9-.7.3,1.3,6.9,3.2,13,7.8,25.7,7.8,29.2,6.4,32.5-1.6,3.8-3.3,3.2-11.3,10.4-2.8,2.5-14.1,12.7-20.8,24.8-4.8,8.7-5.9,16.1-7.7,28.2-1.9,13.1-4.4,31,1.2,53.3,4.6,18.2,12.8,32,19.6,41.4,2,7,5.5,17.6,12.1,29.2,5,8.8,10.2,14.5,31.7,39.3,13.1,15.2,19.7,22.9,18.9,29.2-1.1,9.8-12,16.4-19,19.8-4.3-15-18.2-19.5-27.4-17.5-8.9,1.9-9.9,22.1-9.8,22.3,0,0,0,0,0,0,0,0,0,.1,0,.3,0,.1.3.9.3,1.1,0,.7-4.6,1.7-5.1,1.8-1,1.4-2.1,2.8-3.1,4.2-3.1.2-7.8.1-12.9-1.5-6.8-2.2-15.5-7.5-32.3-38.5-12.8-23.6-13.2-27.9-21-41.8-4.8-8.5-7.4-12.4-9.8-17.6-2.5-5.3-2.4-7-4.9-13.1-3.9-9.5-6-11.2-8.8-17.6-4.2-9.5-4.9-17.4-6.1-30.4-1.2-14.1.3-15-.6-23.2-2.4-21.8-15-27.6-19.2-43.7-4.8-18.4,5.1-34.8,12.2-48.7Z"/>
  <path class="st1" d="M2034.5,1857.4c-8.2,13.9-21.3,32.9-41.2,51.9-9.7,9.2-26.2,24.7-50.4,36.6-38.8,19-76.7,18.6-98.7,16.2,8.4,55.8,12.2,92.1,14.2,115.6.6,7.8,2.8,24.3,6.4,46.5,3.9,23.5,10.7,40.2,13.4,48.3,17.4,53.2,26,79.8,32,95.1,9.9,25.6,31.7,66.7,75.1,147.9,11.9,22.4,26,50.6,54.3,107,6,12,15.2,30.6,23.8,56.5,7.6,23,11.8,42.7,14.1,56.5,5.9,3.4,35.5,19.5,72.1,9.7,29.1-7.9,45.5-27.5,50.5-34.2-9.9-39.9-15.8-72.7-19.3-94.4-9.9-61.6-14.7-123.4-24.5-231.9-1.1-12.2-2.4-25.8-5.2-43.9-1.7-10.9-2.7-14.9-4.5-26.8-2.7-18-2.7-23.4-4.5-37.9-3.6-29.1-6.9-33.1-11.9-67.6-2.6-17.9-1.9-18-3.7-30.5-6.6-44.5-20.9-78.5-29-97.4-3.8-8.8-4.8-10.5-31.2-61.7-13.6-26.3-24.6-47.7-31.6-61.5Z"/>
  <path class="st1" d="M859.9,2732.5c95.3,117.9,191.1,216.1,279.5,296.8,3.5-20.6,4.2-34.4,4.2-43.5,0-3.2-1.3-12,1.2-23,1.2-5.3,2.8-9.5,4-12.3,0,0-1.6-2.3-1.6-2.3-44.9-64.1-69.4-106.7-80.1-127.3,0,0-8.6-16.7-33.6-61.6-30.8-55.4-60.8-104-91.6-149.1-25.4-37.4-66.8-98.2-130.2-170.3-29.6-33.6-55.8-60.4-74.8-79.1-.9,4.5-2.3,9.6-4.5,9.7-.6,0-.9-.3-1.2-.3-6.3-1.2-19.6,57-19.6,57-4.2,18.2-10.3,43.5-18.9,74.2,47.4,73.2,102.8,151.1,167.4,231.1Z"/>
  <path class="st1" d="M692.1,4003.3c-8.6,45.5-13.2,66.7-24.3,122.5-9.2,46.6-13.9,70.2-15.8,83.7-4.6,33.2-6.2,59.3-8.5,99.4-2.6,44.7-3.9,67.1-3.6,87.3.6,48.5,7.3,93.1,20.8,182.4,2.2,14.4,3.3,21.8,5.1,32.9,9.9,59.9,15.3,71.9,20.1,110.5,3.5,27.4.8,21.5,4.9,58.7,3.1,28.3,5.8,41.2,12.1,82.5,5.9,38.4,10,67.8,12.1,83.7,3.9,28.5,8.3,63.2,12.9,102.8,7.7,7,31.4,26.9,67.3,29.7,51.5,4,85.9-30.4,90.9-35.5-.4-27.4.3-61.6,3.6-100.7,3.3-38.6,8.3-68.6,18.2-128.5,4.2-25.1,10.1-59.4,18.2-100.7,9.5-48.6,14.3-72.9,20.6-97,16.7-63.5,25.2-67.5,37.8-120.5,10.2-42.7,13.2-75.7,16-106.1,2.6-28.9,5.6-76.7,2.3-135.7-1.6-28.9-4.2-66.5-13.7-115.2-7-36.1-13.2-53.9-12.1-86.5.7-18.8,4.1-34.8,10.9-66.7,8.3-38.8,14.4-52.9,21.7-92,3.3-17.7,5.3-32.3,6.4-41.7-33.5,13.1-93.5,31.6-169.6,27.3-60.9-3.4-109-20.1-139.3-33.4.7,22.3.5,54.8-4.3,93.7-1.8,14.5-4.9,30.9-10.9,63.1Z"/>
  <path class="st1" d="M2183.7,2647s0,0,0,.1c.1,0,.2,0,.3-.1h-.4Z"/>
  <path class="st3" d="M2251.4,2868c-6.8-12.7-14.8-53.7-30.8-135.5-6.3-32.5-13.7-73.5-20.7-121.6-2.9,3.3-41.3,26.6-48.5,28.4-32.3,8.2-64.6-.9-74.2-3.9-2.1,10.8-2.6,17.2-2.7,21.1,0,.8-.2,2.9-.2,5.7s-.4,5.4-1.2,10.1c-.6,3.7-.9,3.7-2.7,11.4-2,8.1-2.1,10-3.7,13.8-.5,1.1-.9,2-1.3,2.8-.9,1.8-1.6,3.1-1.8,3.3-1.5,2.6-10.7,21.6-14,30.6-7.5,20.7-4.5,46.7-3.8,53.3,3.1,27.3,10.5,26.7,12.1,52.2.6,9.3-.5,20.8-2.6,43.8-1.9,20.8-2.9,31.1-4.2,37.4-3.9,19.8-8.5,27.9-3.8,38.6.9,2.1,4.3,9.9,12.5,13.2,5.5,2.2,10.8,1.5,12.9,1.1,4.2-.8,7.3-2.6,9.1-3.8.6-.5,1.5-1.3,2.6-2.3,2.9-2.6,5.1-4.7,5.7-5.3,8-8.1,11-18.1,11-18.1,1.1-3.7.6-4.3,1.5-11.3,1.3-9.8,3.1-16.2,4.2-20.4,3.5-14.6,1.4-21.5,3.8-39.3,0,0,2-14.9,29.2-70.7.3-.6,1-2,1.6-1.9,1.4.2,1.3,7.4,1.3,8.7-.1,17.9-26.2,36.1-21.9,46.9,2,5,8.1,2.2,19.3,10.6,8.7,6.5,13.2,14.3,16.6,20.4,1.7,3,6.7,12.1,9.4,25.3,4.1,19.3.9,35-1.9,48.4-2.3,10.9-6.7,26.3-15.9,43.5-2.1,7-5.7,17.5-12.5,29.1-12,20.7-28.3,35.5-32.1,38.9-15.3,13.7-30,21.8-28,28.7,1.2,4,7.5,5.9,7.4,11.1,0,2.5-1.6,4.6-2.7,5.8l.5,2.9c0,.4.2,1,.5,1.4,1.2,2.2,4.7,1.7,8,2.3,5.3,1,5.5,3.8,9.7,4.9,4.6,1.1,6.8-1.6,13.2-3.8,13.9-4.6,28,.1,27.9.9,0,0,0,0-.1.4,0,.3-.2.6-.4,1.1-.9,3.1-.8,5.9-.6,7.8.9,1.4,1.8,2.8,2.6,4.2,3.8,1.9,9.5,4,15.9,3,15.2-2.4,22.6-20.5,35.9-48.4,27.8-58,28.8-48.3,36.5-72.1,11.9-36.7,2.9-39.9,16.3-71.1,7.9-18.3,15.4-27.5,15.7-45,.3-18.5-7.6-32.3-10.9-38.6Z"/>
  <path class="st1" d="M265.4,1888.4c-26.4,51.2-27.4,52.9-31.2,61.7-8.1,18.8-22.4,52.9-29,97.4-1.8,12.4-1.1,12.5-3.7,30.5-5,34.6-8.3,38.5-11.9,67.6-1.8,14.5-1.8,19.9-4.5,37.9-1.3,8.4-2.4,16.3-4.5,26.8-2.8,14.1-4.5,18.2-7.6,31.9-1.7,7.7-3.2,15.3-6,32.2-6.2,38.5-9.5,65.6-9.5,65.6-9.5,78-20.3,140.7-20.3,140.7-4.1,24.5-10.5,60.2-20.3,103.8,9,7.8,31.4,25.1,65.1,30.1,25.8,3.8,46.6-1.4,57.7-5,3.7-14,9.9-34.6,20.3-58.4,12-27.4,23.6-45.3,32-59.2,17.7-29,13.3-30.3,54.3-107,43.3-81.2,65.2-122.3,75.1-147.9,5.9-15.4,14.6-41.9,32-95.1,2.6-8.1,9.5-24.8,13.4-48.3,3.6-22.2,5.8-38.7,6.4-46.5,1.9-23.5,5.7-59.8,14.2-115.6-22.1,2.4-60,2.8-98.7-16.2-24.2-11.8-40.7-27.3-50.4-36.6-19.9-19-33-38-41.2-51.9-7.1,13.8-18.1,35.2-31.6,61.5Z"/>
  <path class="st2" d="M309.3,1812.4c-1.8,10.7-3.8,20.9-5.9,30.7,11,16,32.5,42.7,68.6,63.3,50,28.6,98,28.4,118,27.1,13.9-26,30.3-56.8,40.7-76.2,49.4-92.3,63.2-117.9,75.4-158.1,5.1-16.7,12.5-44.6,13.6-48.8,6.7-25.3,12.8-50,18.3-74.2,1.5-1.4,3.4-3.5,4.2-6.6.8-2.9.2-5.3,0-6.6-1.3-7.2,3.6-12.6,6.1-19.7,1.8-4.9,3.1-12.3.5-23,1.6-16.5,2.6-34.2,2.8-53,.1-11.2,5.3-307.3,5.3-307.3-.4-23.5-.8-47.2-1-71.1-.3-34.2-.4-68-.2-101.5-4.5.2-11.4.7-19.6,2.3-5.2,1-8.5,2-16.7,4.2-16.1,4.3-16.4,4.1-24,6.3-14.1,4-25.9,8.3-31.3,10.4-26.7,10.6-46.4,26.6-52.2,31.3-41.1,33.4-58.8,77.3-73.1,112.7-2.9,7.2-12.4,31.5-19.8,64.7-7.5,33.6-9.1,59.6-10.4,83.5-1.8,31.6-1.5,62.7-1,103.3.3,31.6.9,38.1-2.1,51.2-4.2,18.2-8.5,19.4-23.6,62.1-4.2,11.9-6.2,18.3-11.1,30.1-5.2,12.6-7.3,15.6-9.9,24-4.1,13.2-2.6,18.4-5,30.7-2.9,15-7.8,22.4-13.1,34.7-5.5,12.6-8.9,29.3-15.7,62.6-3.8,18.8-8.4,43.5-12.5,73.1-1.3,12-3,24.5-5.2,37.6Z"/>
  <path class="st1" d="M1433.2,873c-5.2-3.1-12.5-7.6-21-13.4-17.1-11.9-36.1-26-51.3-44-24.4-28.9-27.7-65.5-30.5-95.9-1.7-18.6-1-34.2,0-45.1-8.9,4.7-14.9,9.9-18.6,13.5-.9.9-4.2,4.1-7.9,9-4,5.3-6.4,9.6-6.8,10.2-4,7-29.6,31.5-60.9,44-78.7,31.5-194.5-12.3-204.1-44.1-1-3.2-4.9-19.5-14.8-21.8-2.9-.6-5.6,0-6.9.7-13.6,6,3.4,46.8-7.9,86.7-8.5,29.9-29.9,48.8-50.8,67.3-22.2,19.6-44.2,30.9-59,37.3,27.8,22.5,129,99,279,98.3,143.9-.7,241.6-72.2,270.4-95l-8.9-7.6Z"/>
  <path class="st0" d="M1339,758.2c3.8,37.9,23.9,68.5,60.3,91.8,71.5,45.8,137,81.7,196.7,107.8,9.5,9.5,23.6,16,42.1,19.7,42.9,8.5,71.1,14.6,84.7,18.2,213.9,55.4,221.2,276.5,217.2,456.7-.3,12.5,1.9,24.9,6.6,36.4,26.8,66.8,44.8,122.7,57.1,198.4.6,3.4,6.4,39.6,17.5,108.4,4.2,25.8,14.4,58,28.9,85,30.1,55.8,46.9,88.3,50.4,97.4,26.1,67.9,43.6,140.1,52.4,216.6,12.3,106.9,23.5,209.1,33.8,306.6,5.9,55.9,23.8,160.2,53.9,313.1,4.8,24.7,14.8,54.4,24.8,87.6,2.1,6.9,1.8,14.2-.8,20.9-11.9,31.1-19.9,64.4-23.8,99.9-16.2,37.5-37.5,75.5-63.9,114.1-6,8.8-12.7,14.8-20.3,18-2.6,1.1-5.4,1.4-8.2.9-12-2.6-18.2-9.3-18.7-20.3,0-2.3-2-4.1-4.2-4-.6,0-1.2.2-1.8.5-9.9,5.3-27.1,15.3-37.1,6.3-8.9-7.9-14.3-16-16.3-24-1.7-6.9.3-14.3,5.3-19.4l45.7-46.7c1.9-2,3.5-4.2,4.7-6.7,15.3-30.2,24.8-60.9,28.6-92.2.2-21.9-.4-36.7-2-44.6-2.3-11.2-11.2-23.1-26.6-35.5-1.7-1.4-4.3-1.1-5.7.6-.1.2-.3.4-.4.6-5,9.1-7.6,15-7.6,17.7-1.1,36.9-2.1,76.1-35.6,95.4-2.6,1.6-5.7,2.3-8.8,2.2-34.2-.9-35.3-23.1-28.9-52.3,9.9-45.4,14.7-78.2,4.7-122.1-12.5-54.6-4.3-83.2,24.2-128.8,1.9-3,2.8-6.5,2.7-10.1l-1.1-31.5c-5.4-30.8-14.3-60.9-26.8-90.3-35.7-83.8-74.1-146.3-120.1-237.2-50.1-98.9-76.3-198.5-78.5-298.6-.3-16-1.6-29.5-3.6-40.3-4-21.1-7.6-34.1-10.8-39.2-39.4-62.9-72.3-129.4-98.7-199.7l-36-133.1c-.4-1.3-1.8-2-3.1-1.6-.8.3-1.5,1-1.6,1.8-11.1,71.7-32.3,142.1-63.9,211.2-9.4,20.5-18,51.4-26.1,92.9-13,67.5-21.7,136.7-19.8,208.6,1.8,68.8,4.3,97.6-.5,146-1.8,17.5-3,31.6-3.7,42.2-.2,3.9.3,7.9,1.6,11.7,71.9,216.4,120.9,434.1,147.1,653.3,2.6,21.6,5.7,73.2,9.5,154.8,2.5,54.4,1.6,106-2.6,154.6-11.5,131.6-34.3,255.5-69.2,382.7-18.2,66.1-28.7,113.6-31.4,142.4-6.9,70.8-1.7,142,15.6,213.6,20.6,85.5,34.7,162.1,42.3,229.8,4,35.9,4.6,84.9,1.6,147.1-3.3,69.6-15.2,158.1-35.5,265.4-24.4,128.6-43.4,248.4-57,359.5-8.9,72.5,25.3,123.3,69.8,185,20.3,28.2,37.4,49.9,51.4,64.8,40.4,43.3,84.7,69.6,146.8,105.3,19.1,11,31,26,21.1,46-9.8,20-27,28.2-51.7,24.5-3.3-.5-6.7.4-9.4,2.4-15.6,11.8-33.3,13.7-53.2,5.6-3.1-1.3-6.5-1.1-9.4.5-47.1,25.8-81.1,6.4-126.9-7-37.3-11-56.7-27-79.8-54.4-33.3-39.4-92.2-11.6-130.3-36.9-24.3-16.1-33.8-41.1-28.4-75,5.7-35.7,9.2-59,10.4-69.9.9-8.5.9-17,0-25.4-2.6-23.7-3.2-38.7-1.8-45,9.7-43.5,14.4-79.3,14.4-107.5,0-44.2-4-96.8-11.9-157.9-9.1-125.2-34.8-245.3-77-360.3-15.1-77.4-21.5-146.6-19.3-207.6,1.8-48.2,9.8-124.4,24.2-228.5,1.2-9.1,2-26,2.3-50.9,0-8.6-1.2-17-3.6-25.2-19.1-62.7-30.6-113.1-34.4-151-15.8-155.7-26.2-285-63.5-435.9-16.2-65.4-26.8-112.4-31.8-141-13.9-78.6-21.6-126.1-22.9-142.6-6.2-72.7-11.4-129.3-15.6-169.9-.3-3.3-1.2-6-2.5-8-2.4-3.8-7.5-4.9-11.3-2.4-1.9,1.3-3.3,3.3-3.6,5.6-12,75.3-15.3,149.4-26.4,230.9-11.1,79.8-31.9,165.2-49,246.1-30.3,142.9-36.3,296.7-52.3,426.9-6.4,52.2-18.8,104.7-37.2,157.5-1.2,3.5-1.9,7.2-1.9,11-.4,43.1,9.9,103.2,21.3,204.6,7.7,68.3,6.5,138-3.5,209.2-2.9,21-16.7,73.3-41.3,156.7-30.3,103-50.8,214.7-61.7,335-5,55.3-10.8,104.6-4.5,137.4,4.7,24.5,9.3,48.1,13.6,70.7,2,10.8,2.1,21.8.2,32.6l-2.8,15.7c-.9,5.2-1,10.6,0,15.8,12.3,74.2,42.4,153.2-62.9,159.9-30.6,1.9-64.2-2.4-83.8,23.1-24,31-62.1,54.1-114.4,69.2-39.9,11.5-71.5,9.1-94.7-7.4-2.6-1.8-5.9-2.2-8.8-1-22.6,9.3-42.2,7.8-58.9-4.4-3-2.2-6.8-3-10.5-2.2-8,1.8-19-1-33.2-8.5-17.3-9.2-22-22.4-14.1-39.6,1.2-2.6,3-4.9,5.2-6.8,10.4-8.6,33.2-23.2,47.9-31.3,96.9-52.9,167.3-140.5,220.2-229.5,20.9-35.1,28-76.7,21.2-124.6-18.2-129.4-33.9-230.2-46.9-302.4-33.5-184.8-52-367.4-12.2-554.7,25.9-121.8,50.3-217.5,39.7-331.6-3.3-26.9-8.5-53.4-15.4-79.4-15.8-59.3-33.2-118.5-52.2-177.6-2.9-24.4-9.8-67.2-21-128.6-20.5-112.9-25.1-239-13.9-378.3,20.1-250.7,66.2-498.3,147.1-732.5,3-8.6,4-17.6,3.2-26.7-4.4-47.1-5.6-88.6-1-144.2,9.9-122.9-10-244.9-57.4-361.9-24.4-60.4-39.1-124.2-44.2-191.4,0-1.1-1.1-1.8-2.2-1.7-.8,0-1.4.7-1.6,1.4-16.7,78.6-44.5,154.5-83.4,227.6-16.1,30.3-36.8,67.6-62,111.9-6.9,12.1-11.6,25.3-13.9,39-3.6,21.8-6.2,43.2-7.8,64.3-13.4,172.4-86.3,293.2-170.5,442.6-25.6,45.4-45.6,92.9-60,142.3-9.4,32.3-4.7,64.5,14,96.6,14.9,25.6,7.5,65.8-3.1,99.5-10.3,33-9.9,78.6-3.6,107.3,6,27.1,9,41,9,41.7,0,3-.9,5.9-2.5,8.3-6.4,9.6-14.7,15-25.1,16.3-52.1,6.4-51.7-89.6-53.6-120-.1-2.2-2-3.9-4.2-3.8-.7,0-1.4.3-2,.6-14.8,9.8-25.4,22.5-30.4,40.8-12.2,44-6.1,79.5,18.4,106.3,11,33.5,27.9,47.4,57.4,76.6,7.9,7.8,9.8,18.3,5.7,31.6l-14.8,16.9c-2.1,2.4-5.5,3.1-8.3,1.7-8.8-4.2-16.6-10.1-23.3-17.5-1.3-1.4-3.4-1.5-4.8-.2-.8.7-1.1,1.7-1.1,2.7,1.1,14.9-4.4,24-16.5,27.2-6.8,1.9-12.9-.4-18.2-6.9-44.3-54-87.8-117.1-92.4-192,0-.8-.2-1.5-.4-2.2l-11.2-29.6c-2.7-7.2-2.8-15.1-.3-22.4,45-128.1,76.8-259.3,95.3-393.8,17.8-128.7,33-233.4,45.8-314,9.1-57.5,20.8-111.4,35.3-161.7,18.1-62.8,47.2-110.6,77.6-170.3,21.8-42.7,24.3-88.1,38.2-164,13.3-72.9,36-142.9,68.2-210.1,2.4-5,5-14.6,7.7-28.8.9-4.4,1.2-8.8,1-13.2-3.5-77.1.9-148.7,13.1-214.6,20.9-112.8,69.6-197.6,185.8-230.8,12.9-3.7,45.5-11.2,98-22.5,11.5-2.5,23.2-6.8,35.2-13.2,40.5-21.2,92.7-49.3,156.7-84.4,51.2-28.1,97.5-60.8,111-121.6,2.9-12.8,3.3-37.5,1.3-74.3-.2-3.2-1.1-6.4-2.6-9.2-20.3-36.8-35.1-72.9-44.5-108.1-1.1-4-3.5-7.5-6.8-9.9l-15.6-11.4c-3-2.2-5.5-5-7.4-8.2-15.4-26.3-25.3-54-29.5-83.2-4-26.8-5.8-70.8,32.1-69.1,2.4.1,4.5-1.7,4.6-4.2v-.8c-3-19.7-2.4-53.3,1.8-100.9,3.2-37.1,12.5-69.3,27.8-96.4,40.8-72.2,121.6-117,203.9-116,122.4,1.6,216.6,78.2,236.3,200.9,4.8,30.1,5.9,68.7,3.2,115.7,0,2,1.4,3.7,3.4,3.8.5,0,1,0,1.4-.2l3.3-1.3c2.7-1,5.8-.7,8.2.9,14.2,9.2,21.4,20.7,21.6,34.6.3,37.7-17.5,116.5-55.5,133.9-3.7,1.7-6.4,5-7.4,9-7.5,32-21.2,65.1-41.1,99.1-2,3.4-3.4,7.2-3.9,11-4.8,32.6-3.3,60.8,4.5,84.6h0l-.2.5ZM1392.3,407.3c3.7-70.7,10.4-146.2-23.9-210.9-78.8-148.1-291.2-164.3-387.7-25.1-43.4,62.7-48.8,168.9-34.4,240.8.2,1.8-1,3.4-2.8,3.7-1.3.2-2.6-.5-3.3-1.6-4.8-9.8-9.2-15.5-13.1-17.2-8.9-3.7-19.1,1.1-22.8,10.8-.8,2.1-1.3,4.3-1.4,6.5-1.7,41.4,8.2,80.5,29.8,117.2,4.6,7.8,11.1,11.4,19.4,10.7,2.3-.2,4.5,1.2,5.2,3.4,23.2,72,45.9,133,103,184.1,67.9,61,165.8,48.4,227.3-17.8,43.4-46.7,71.6-100.1,84.6-160.2.8-3.4,3.2-6,6.5-7,36.5-11.2,47.4-73.6,52.8-108.9,1.9-12.9,0-24.4-5.4-34.5-3.3-5.9-10.8-7.8-16.7-4.3-2.4,1.4-4.3,3.6-5.4,6.2-2,4.7-3.8,7.5-5.3,8.3-2.1,1.1-4.7.3-5.8-1.9-.4-.7-.5-1.5-.5-2.3h0ZM445.4,5422.9c6.1,7.4,13.4,11.2,21.8,11.3,2.8,0,5.4-1.5,6.8-4,8.1-14.2,16.9-31.9,36.8-35.7,15.4-2.9,30-11,43.8-24.1.9-.9,2.4-.8,3.2.1,0,0,0,.2.2.2l1.6,2.4c1,1.4.7,3.4-.7,4.4-15.6,11.8-30.6,20.2-45,25.4-12.3,4.4-21.3,12.3-26.9,23.5-2.6,5.2,0,11.7,5.6,14.5.2,0,.3.2.5.2,12.8,5.4,42.2,11.4,46.1-8.2,1.6-7.9,3.1-13.4,4.6-16.5,1.8-3.9,4.7-7.1,8.2-9.5l26-17.5c2.2-1.5,5.2-1.6,7.5,0,6.9,4.5,13.6,6,20.1,4.4,2.9-.7,5.5-2.5,7.3-5.1,5.5-8,11.7-13.8,18.6-17.4,1.4-.8,3.3-.3,4,1.2.6,1.1.5,2.4-.3,3.3-13.6,17.5-29.6,26.6-48,27.3-13,.5-28,5.2-34.4,15.3-6,9.2-4.5,20.9,3.3,26.2.6.4,1.2.8,1.9,1.1,46.8,22.5,102.4-1.1,150.3-24.6,9.2-4.5,17.3-11,23.8-19,15.2-18.4,37.5-43.9,66.6-44,35.6-.2,104.3,2.3,108.5-43.8,1.6-17.8-2.3-53.7-11.8-107.7-.2-1.4-.3-2.8-.2-4.3l3.6-41c.6-6.7,0-13.4-1.3-19.9-12.9-56.4-18.2-101-12.9-166.5,12.3-152.4,35.9-287,77.5-420.4,34.1-109,45.8-219.4,31.7-331.7-12.8-101.5-19.9-165.3-21.6-191.6-.2-3.2.3-6.4,1.5-9.5,22.2-58.4,36.3-120,42.3-184.9,7.5-80.9,16.8-177.4,27.9-289.4,3.2-32.2,15.5-96.5,37-193.1,18.7-84.3,30.9-148.7,36.6-193.1,7.6-59.9,15.6-130.1,23.9-210.5.3-3.1-1.7-5.9-4.7-6.8l-28.5-8c-.7-.1-1.2-.7-1.2-1.4v-2.9c0-1.3.8-2.3,2-2.4.3,0,.5,0,.8.1,32.9,10.1,65.8,11.2,98.9,3.3,1.4-.4,2.8.4,3.4,1.8l.9,2.4c.2.7,0,1.4-.8,1.7h-.3l-33.7,6.3c-2.3.5-3.8,2.7-3.4,4.9v.3c2.5,9.6,8.6,65.5,18.3,167.5,8.8,92.4,29.2,186.7,57.4,303.6,20.8,86,33.9,156.5,39.5,211.7,10.1,99.9,17.5,172.1,22.4,216.5,5.1,46,16.1,95.6,33.1,148.8,2.7,8.6,4.2,17.6,4.4,26.6.3,19-1.1,40.7-4.4,65-19.7,144.8-36.2,269.2-3.1,400.5,14.7,58.6,40.8,138,52.8,202.6,21,112.2,33.1,227.5,36.3,346,.8,31.4-6,62.8-12.5,96.7-1.6,8.1-2.1,16.5-1.6,24.8,2.3,34-.2,73.8-7.7,119.2-12.9,78.6,49.1,73.7,103.3,79.5,41.6,4.5,59.1,35.6,85.5,59.4,13.3,11.9,38.5,17.7,57.4,23.8,37.6,12,61.6,23.2,100.2,4.1,3.4-1.7,5.5-5.3,5.3-9.1l-1-19.6c-.2-3.5-2.2-6.6-5.3-8-17.5-7.8-33.1-12.2-46.6-13.1-8.4-.5-15.6-6.2-21.8-17-1-1.8-.4-4.1,1.4-5.1.4-.3,1-.4,1.5-.5,3.3-.3,6.8,2.2,10.5,7.4,1.5,2,3.9,3,6.2,2.6,5.2-.7,24.3,5.7,57.3,19.3,3,1.2,5,4,5.2,7.3l1.2,24.8c0,2.8,1.6,5.3,4,6.7,14.6,8.1,30.8,6.8,48.9-4.1,2.4-1.5,3.4-4.4,2.6-7.1-4.5-14.8-9.6-23.7-15.3-26.8-16.9-8.8-36.2-20.5-57.9-34.9-.7-.4-1-1.3-.6-2l1.3-2.3c0-.3.5-.4.8-.3l64.3,33.1c5.4,2.8,9.2,7.9,10.3,14,4.4,24,17.1,28.6,38.1,14,1.4-1.1,1.8-3.1.8-4.5,0,0,0-.1,0-.2-8-9.5-14.4-16.7-19-21.7-12.7-13.6-34.4-18.7-48.9-30.4-.6-.5-.6-1.4,0-2,.3-.4.9-.5,1.3-.4,25.1,7.8,64.5,26.4,72.3,52.1.3,1.3,1.6,2.1,3,1.8,1-.2,1.7-1.1,1.9-2.1,2.5-15.9-2.7-27.8-15.7-35.5-15.4-9.2-40.5-24.4-75.1-45.6-64.8-39.6-118.8-108.9-166.1-183.5-21.9-34.5-32.9-66.3-33-95.4,0-41.6,6.3-102.4,19.2-182.5,3.9-24.2,19.7-115.1,47.3-272.6,29.4-168,40.4-328.9.5-496.1-24.1-101.4-43.4-196-35.5-299.4,2.1-27.1,10.3-65.8,24.8-116.2,2.9-10.2,13.1-50.5,30.5-120.9,33-133.3,49.7-265,49.8-395,.3-286.7-67.9-581.3-158.8-861.4-1-3.2-1.4-6.6-1.1-10,4-35.5,8.3-73.1,7.3-107.4-1.8-56.1-5.2-110.7-.6-161,5-55.4,14.6-113.2,28.9-173.4,4.7-19.7,15.6-49.1,32.6-88.3,23-53.1,38.7-110.4,46.9-171.8,6.1-45,2.6-74.1-.4-129.3,0-1.3-1.2-2.3-2.5-2.2-.8,0-1.6.5-2,1.3-11.3,22.4-25.7,42.1-43.2,59-1.1.9-2.8.7-3.7-.4-.7-.8-.8-2-.2-2.9,28.9-41.6,56.1-82.2,81.4-121.8,3.6-5.7,10-12.8,19-21.1.9-.9,2.5-.9,3.4,0l1.9,1.9c.3.3.4.8.2,1.1l-44.4,65.3c-.9,1.3-1.3,2.9-1.2,4.6l5.2,82.7c0,1.2.2,2.4.5,3.6,5,23,10,46.2,15,69.7,22.9,107.2,62.1,205.5,117.4,294.7,27.1,43.8,28,73.4,30.8,133.6,3.8,81.5,27.9,168.9,62.2,238.4,37.5,76.1,72.9,144.9,106.2,206.3,26,48,58.4,123.6,57.5,181.6-.1,6.1-1.9,12.1-5.1,17.3-19.2,31.3-33,56.7-29.6,96.8.8,8.5,4.4,28.1,11,58.7,3.8,17.7,0,55.9-11.6,114.6-1.9,9.4,4.2,18.6,13.6,20.4.4,0,.8.1,1.2.2h.4c11.3,1.6,22.1-4.8,26.3-15.3,7-17.3,12.1-40.1,15.4-68.3,2.5-22.1,12.9-50.1,31.1-84,.9-1.7,3-2.3,4.7-1.4.3.2.6.4.9.6l2.1,2.1c1.4,1.4,1.8,3.6.9,5.4l-19.6,38.9c-1.2,2.4-.2,5.4,2.2,6.6.1,0,.3.1.5.2.5.2,1.7.4,3.5.5s4.1,1.4,6.8,3.8c6,5.4,16.8,19.2,32.4,41.4,2,2.9,2.6,6.5,1.5,9.9-5.7,17.7-7.7,39.4-6,65.2.1,1.7.8,3.3,2,4.4l4.4,4.3c1.2,1.1,1.3,3,.2,4.2-.7.8-1.8,1.1-2.9.9-.2,0-1.1-.5-2.7-1.4-2.9-1.6-6.6-.5-8.2,2.5l-30.2,58.3c-.4.8-.9,1.6-1.5,2.2l-46.4,50c-1.7,1.8-1.9,4.5-.5,6.6l1.8,2.5c1.8,2.7,5.3,3.4,8,1.7.2-.1.4-.3.6-.4,24.2-20.1,44.5-42.5,69.2-61.1,8.4-6.3,14.1-15.5,17.2-27.7,1.6-6.3,3.9-35.8,7.1-88.7,0-.1,0-.2.2-.2h2.6c1-.1,1.8.6,1.9,1.6,3.2,36,1.6,66.9-4.8,92.7-2.6,10.6-17.2,43.4-43.9,98.3-2,4.2-.5,9.3,3.6,11.6l3,1.7c5.2,3,11.9,1.4,15.1-3.7l52.3-83.7c2.4-4,4.3-8.2,5.5-12.7l35.7-131c.9-3.4.9-7,0-10.4-4.8-18.8-14.4-44.4-19.1-65.4-26.3-116.5-46.9-234.2-62-353-16.1-126-22.2-284.7-56.2-422.2-13.2-53.4-34.9-105.7-65.3-156.7-20.8-34.8-31.1-58.8-38.2-93.2-11.8-57.1-19.7-138.6-37.6-204.4-8.4-30.7-22.6-72-42.8-123.8-4.2-10.6-6.1-21.9-5.6-33.3,6.1-164.2,0-383.3-190.6-442.4-42.6-13.2-99.5-15.3-139.6-35.8-62-31.5-126.7-67.8-194-108.9-74.4-45.3-84.5-97.6-79.4-175.2,0-1.3-1-2.4-2.3-2.5-.6,0-1.1.2-1.6.5-1.6,1.3-7.7,8.2-18.3,20.9-81.2,96.6-213.3,94.4-285-13.2-.8-1.4-2.6-1.8-4-1-1,.6-1.6,1.8-1.4,3,9.8,93.9-31.9,140.3-115.1,187.9-52.9,30.2-108.2,60.1-165.8,89.6-14.2,7.3-29.5,12.2-45.3,14.4-6,.8-29,5.8-69.1,15-95.5,22-156.8,83.5-183.9,184.5-21.1,78.8-25.5,169.6-21.9,257.3.6,13.9-2.2,27.7-8.2,40.3-35.9,76.2-60.7,156-74.4,239.4-8.6,52-15.9,87.9-21.8,107.4-6.3,20.7-20,50.7-41,89.9-24,44.7-42.1,85.8-52.5,128.2-35.2,142.3-51.3,282.5-71.5,425.1-21.8,154.9-50.2,288.8-99.1,424.4-2.1,6-2.1,12.4,0,18.3l11.2,30.5c.2.7.4,1.4.5,2.2,5.4,46.6,17.2,83.5,35.3,110.8,21.9,33,39.3,58.3,52,75.9,3.5,4.8,10,6.1,14.6,2.9,1.4-.9,2.5-2.2,3.2-3.7,2.1-4.4,1.8-9.8-.8-16.3-13.4-33.5-30.8-65.1-52-94.6-1.2-1.7-1.9-3.6-2-5.6l-3.3-70.5c0-.5.3-1,.9-1.1l6.7-.3c1.2,0,2.2.8,2.3,2v.5c-4.8,32.8-.6,63.2,12.5,91.1,1.2,2.6,2.7,5,4.4,7.3,15.2,20.1,28.7,39.1,40.5,57,2.6,4,13.3,11.1,31.9,21.4,2.5,1.4,5.6.5,6.9-1.9l.2-.3c1.3-2.2.6-5.1-1.6-6.4-38.1-24.2-62.9-58.5-74.6-103-1.1-4.3-3.6-26.1-7.5-65.5-.3-3.5,0-7.1,1.1-10.5,3.3-10.3,3.8-20.5,1.5-30.6-.7-3.2,0-6.6,2.1-9.1l38.2-49c.7-.9,1-2,.8-3.1l-6.3-33.8c-.1-.9.4-1.8,1.2-2.1l2.3-.9c1.2-.4,2.6.1,3.1,1.3,12.1,27.6,19.2,52,21.4,73.1,3.2,30.8,7,54.8,11.4,72.1,3.2,12.5,13.9,21.6,26.8,22.7h.7c9.4.8,17.6-6.1,18.4-15.4.1-1.7,0-3.4-.3-5.1-9.2-41.3-12.8-79.7-11-115.2.2-3,.7-6,1.7-8.9,12.5-38.3,25.4-80.1,12.1-111.1-12.3-28.5-19.1-44.2-20.2-47.3-4.1-11.2-2.7-30.3,4.2-57.3,28.6-111.9,112.4-238,152.4-316.3,47.1-92.4,72.4-187.2,80.2-289.2,2.5-31.9,6.1-53.7,11-65.3,11.4-27,27.6-58.2,48.6-93.4,53.2-89.5,90.3-184.9,111.1-286.1,1-4.6,3.4-11.4,7.2-20.4.9-2,1.3-4.2,1.3-6.5l-1-80.5c0-1.9-.5-3.9-1.6-5.5l-41.2-65.6c-.9-1.4-.7-3.2.3-4.5h.2c1.9-1.7,4.6-1.4,6.2.5,0,.1.2.3.3.4l93.2,138.2c.3.5,0,1.2-.3,1.5l-2,1.3c-.5.4-1.3.2-1.7-.3l-39.7-51.1c-.7-.8-1.8-1-2.7-.4-.5.4-.8.9-.7,1.6.6,23.3.4,42.7-.4,58.2-4.1,71.3,10,155.7,31.7,209.8,22.5,56,35.3,89.3,38.6,99.7,31.6,101.3,39.6,200.8,31.9,314.4-3.3,49.2-2.7,96.2,1.8,141,.5,4.8,0,9.7-1.7,14.3-41.2,118-73.3,237-96.1,356.9-13.2,69.6-26.8,154.6-40.7,254.9-32,231.1-19,456.1,39.1,674.8,14.2,53.6,44,138.4,50.5,196.4,7.2,64.2,2,140-8.1,194.8-2.1,11.5-14.7,73.5-37.9,185.9-29,141-17.4,297.7,7.8,445.9,20.3,119.3,39.4,243.1,57.2,371.5,6.7,48,1.1,89.2-16.7,123.8-25.1,48.8-66.7,104.8-124.7,168-31.4,34.3-69.6,54.6-113.2,80.7-3.2,1.9-15.2,10.8-36.2,26.8-6.4,4.9-8.1,13.7-4,20.5,2.3,3.9,6.5,5.4,12.5,4.6h.3ZM212.1,3113.1c1.7-.6,2.6-2.5,1.9-4.2-.1-.3-.3-.6-.5-.8-8.2-10.4-20.3-23.9-36.4-40.5-12-12.4-22.4-33.7-31.4-64-.6-2-2.8-3.2-4.8-2.6-.4.1-.7.3-1,.5l-3.8,2.5c-.5.4-.8,1-.6,1.7,10.8,47.4,35.6,83.4,74.5,108.1.6.4,1.3.5,1.5.2h0c.3-.5.5-.8.5-.8h.1ZM2158.4,3066.2l-63.2,61.7c-1.4,1.3-1.5,3.6,0,5,1,1,2.4,1.4,3.8.9,7.2-2.5,16.6-7.1,28.2-13.8,2-1.2,3.7-2.9,4.9-4.8l29.5-48.7M2161.4,3066.3l-.4-.4c-.8-.6-1.9-.5-2.5.2l3,.2h-.1Z"/>
  <path class="st5" d="M1597.7,952.5c-59.7-26.1-125.2-62-196.7-107.8-36.4-23.3-56.5-53.9-60.3-91.8,17.1,41,36,67.7,56.8,80.1,66.1,39.4,132.8,79.3,200.2,119.5h0Z"/>
  <path class="st0" d="M809.7,987.2c-.8-.3-1.2-1.3-.9-2.2.3-.8,1.2-1.2,1.9-.9,11.1,3.7,23.7,6.7,37.9,9,77.9,12.2,145,19.7,201.3,22.3,33.6,1.6,55.3,8.9,72.4,35.5.8,1.2.5,2.7-.7,3.5-1,.7-2.4.6-3.2-.4-21.1-21.5-37.8-29.3-71.3-30.2-44.2-1.1-102.4-7.5-174.7-19.1-26-4.2-47-10.1-62.8-17.5h0Z"/>
  <path class="st0" d="M1529.9,985l1.7,2.4c.7.9.5,2.2-.4,2.9-.2.2-.5.3-.8.4-88.1,19.4-178.1,31.1-269.8,35.2-18.3.8-35.8,11.6-52.4,32.3-1.3,1.6-3.7,1.9-5.4.7l-.2-.2c-1.6-1.2-1.9-3.4-.8-5.1h0c18.4-24.1,39.3-36.5,62.9-37.4,52.7-1.6,104.9-6.5,156.6-14.7,30.5-4.8,66.6-10.3,108.5-16.5h0c0,0,0,0,0,0Z"/>
  <path class="st5" d="M1732.9,1730.2c26.4,70.3,59.3,136.9,98.7,199.7,3.2,5.1,6.8,18.2,10.8,39.2,2.1,10.9,3.2,24.3,3.6,40.3,2.2,100.1,28.4,199.6,78.5,298.6,46,90.9,84.4,153.4,120.1,237.2,12.5,29.4,21.5,59.5,26.8,90.3l-2.3,2.3c-1.6,1.6-4.2,1-5.9-1.4-.6-.9-1-1.9-1.2-3-9.6-60.2-39-122.6-70.8-179.9-43.2-77.9-75.5-141.2-96.8-189.9-21.3-48.8-35.6-93.6-42.7-134.3-3.9-22.4-7.2-39.3-10-50.6-8.2-33.9-6.9-73.5-9.3-108.1-.2-3-.7-5.9-1.6-8.8-5.4-17.8-8.8-27.9-10.2-30.3-26.7-49.4-49.2-91.3-67.5-125.8-13.2-24.8-20-50-20.3-75.6h.1Z"/>
  <path class="st5" d="M632.9,3552.1c19,59.1,36.3,118.3,52.2,177.6,7,26,12.1,52.5,15.4,79.4l-1.8,11.8c-.2,1.3-1.5,2.2-2.9,2-.5,0-.9-.3-1.3-.6l-2.5-2.5c-.4-.4-.7-.9-.7-1.5-1.8-26.1-3.6-42-5.3-47.8-22.3-72.1-40.1-144.9-53.2-218.3h0Z"/>
  <g class="st4">
    <path class="st1" d="M818.9,990.6c-.6,0-1.1.2-1.3.7h0v.3c-.4,1.5.6,3,2.5,3.4,65,14.1,60.4,4.2-1.3-4.4Z"/>
    <path class="st1" d="M1162.4,1663.1c106.8,8.7,336.8,11.4,467.3-137.9,8.4-9.6,16.4-19.9,24.1-31,17.4-24.9,29.5-41.8,32.7-44.9,0,0,3.9-3.8,3.9-7.1,0-.1,0-.4-.2-4.4,0,0,0-1.3-.2-4.8-.1-2.8-.8-21.2-1.8-47.2.3-14.8.4-29.9.4-45.3,0-10.3-.2-20.5-.4-30.6-.7-41.2-1.8-69.6-2.8-88.5-.3-6.1-1.2-23.2-2-46.4-.5-13.5-.8-24.7-.9-32.2-1.4-28.9-.7-52.3.2-68.6.5-8.4,1.5-21.5,3.5-47.6,1.3-16.5,2.4-30.2,3.1-39.5-12.6-1.5-31-4.5-52.6-10.7-34.1-9.8-55.9-21.9-101.9-46.5-19.2-10.3-51.1-27.4-92.8-49.3-28.8,22.9-124.8,93.4-266.3,95-150.8,1.7-252.8-75.8-280.2-98.1-39.8,28.7-91.8,59.7-156.2,83.7-23.4,8.7-45.9,15.5-67,20.9-5.5,1.8-11,3.6-16.5,5.4.2,14.7.5,35.9.9,61.6,1.3,97.9,1.3,125.7.5,145.4-.2,3.8-.3,6.3-.5,9.8-5.1,86-29.7,212.6-18.1,228.4.6.8,4.5,5.7,7.9,13.4,1.9,4.4,2.9,7.7,3.2,8.7,1.8,6,7.2,16.6,23,36.4,9.4,10.7,19.4,21,30.1,31,141.8,133,338.4,146.3,459.8,141ZM1208.2,1058.2c5.2-10.3-11.7-.9-11.8-1.1,0,0,4.6-3.5,11.6-8.6,17.2-12.4,2.7,2.1.2,9.6ZM819.2,990.6c.1,0,.3,0,.4,0,60.7,8.4-.5,0-.4,0Z"/>
    <path class="st1" d="M1680.6,1341.2h0"/>
  </g>
  <path class="st6" d="M-1676.5,2148c-.7-3,1.2-6,4.2-6.8,2.1-.5,4.3.2,5.7,1.9,1,1.2,1.6,2.8,1.8,4.8.3,3-1.8,5.7-4.8,6-1.9.2-3.8-.6-5-2.1-.8-.9-1.3-2.2-1.8-3.9h0Z"/>
  <path class="st2" d="M1728.2,3233.8c1.4-25.8,4.7-100.1-1.8-196.6-2.5-37.3-6.6-80.3-15.3-140.3-22.2-154.1-58-307.1-81.7-401.1-59.3,93-133.4,196.1-225.5,302.3-75.9,87.5-151.2,162.3-221.4,225.6,7.3,92,18.8,165.8,27.8,215.4,20.7,114.7,36.1,147.2,60.1,288.7,3.7,22.1,13.3,80.4,22.7,156.6,7.5,60.6,12.8,116.4,16.6,166.3,36.6,13.2,95.8,29.3,169.6,27.3,60.4-1.6,109.4-14.7,142.8-26.5.2-14.4,1-35.3,4.1-60.2,4.9-39.7,12.2-68.6,17.3-84.8,14.6-46.1,21.4-94.4,33.1-141.4,12.3-49.7,43.4-175.6,51.7-331.3Z"/>
  <path class="st3" d="M1160,2482.8c-50.9.8-135.4,1.5-239.1-31.1-82.1-25.8-144-62.2-184.1-89.8.3,1.2,1,2.4,2,3.3,38.6,36.6,74.7,76.1,108.6,118.2,104.4,130.4,192.5,270.6,264,420.8,1.2,2.6,29.1,33,30,31.6,12.2.2,24.4.3,36.6.5,1.7,2.4,36.3-43,37.6-45.7,48.3-98.3,103.3-192,165-281.1,37.3-53.8,71.3-97.4,96.5-128.9,37.9-47.4,101.7-119.5,106.8-125.1-40.9,26.6-100.2,59.9-176.6,85.7-30.8,10.4-123,39.5-247.4,41.5Z"/>
  <path class="st2" d="M1586.7,2353.8c-10.1-21.3-13.3-39-14.4-50.7-3.8-39.6,6.8-106.3,6.7-116.9,0-8.3-.3-7.7-1-25.9-1.7-45.9-1.5-84-1-112.1,1.1-41.9,6-104.8,25.9-178.2,21.8-80.5,44.8-111.6,63.4-176.9,15-52.6,28.2-130.7,14.1-235.2-70.2,98.6-147.2,143.5-191.3,164.2-84,39.3-165,39.9-326.8,41-141.3,1-212.5-16-249.1-26.2-87.9-24.7-136.2-56.5-151.3-67-51.7-35.6-86-75.5-106.8-103.7-23.8,103.7-12.2,168,3.7,208.2,4,10.2,10,22.9,20.1,49.6,5.9,15.6,16,43.3,40.2,127.2,27.2,94.6,30.4,115.3,32.1,135.3,1.3,14.7,1.9,31.1,2.7,50.9,1.9,48.6.9,71,0,84.4-1,14.8-1.3,11.5-2.7,29.5-2.6,33.7-4.7,62.5-1.3,96.4,3.4,34,8.8,36.5,5.3,53.5-2.7,13.3-9.8,35.5-13.1,45.6-2.1,6.3-3.9,11.6-5.2,15.2,36.7,25.6,87.9,55.7,153.2,79.3,79.5,28.7,150.3,36.9,200.2,38.8v-14.6c-.2-2-.3-4.1-.3-6.1v-405.9c0-29,21.2-52.9,48.1-55.8,1.9-.2,3.9-.3,5.8-.3,29.5,0,53.5,25.2,53.5,56.1v427.6c38.6-1.7,82.3-6.6,129.6-17,113.4-24.9,200.9-71.5,259.8-110.3Z"/>
  <path class="st2" d="M2019.8,1794.4c-2.4-8.8-6.1-23.4-9.9-41.6-9.6-46.4-6.5-53.8-15.8-91.1-5.7-22.7-8.9-28-10.9-45.6-1.2-10.6-1.1-18.3-5-30.7-2.6-8.4-4.6-11.4-9.9-24-3.6-8.7-6.2-16-11.1-30.1-13-37.4-19.5-56.1-21.3-69.5-1.8-13.9-.8-20.6,0-40.3,1-27.6-.6-56.3-4-113.8-2.6-45.2-4.1-68.3-8.9-88.1-6.6-27.2-15.1-46.5-22.1-62-14.8-32.7-40.5-89.8-85.5-120-9.9-6.6-28.9-17.5-48.3-26.1-12.9-5.7-22.7-9-24.8-9.7-4.4-1.5-1.4-.3-23-6.6-6-1.7-8.7-2.6-12.8-3.1-7-.9-12.9-.3-16.8.3-9.3,78.5-9.4,138.5-7.6,179.5,0,0,5.2,296.1,5.3,307.3.2,18.8,1.2,36.5,2.8,53-2.6,10.7-1.3,18.1.5,23,2.5,7.1,7.4,12.5,6.1,19.7-.2,1.2-.8,3.6,0,6.6.8,3,2.7,5.2,4.2,6.6,5.5,24.1,11.6,48.9,18.3,74.2,4.4,16.6,9,32.9,13.6,48.8,6.8,33,16.9,56.9,24.9,72.8,2.5,4.9,2.1,3.8,10.3,19.2,20.3,38.2,19.5,39.4,31,60.1,15.1,27.3,22.7,41,27.2,48.4,4.6,7.4,8,12.4,9.9,20.7,1.2,5.2,1.4,10.1,4.3,17.6,1.7,4.3,3.5,7.7,4.8,9.8,16.6,1.7,68.3,5,120.3-27.3,41.9-26,62.2-61.5,70-77.4-3.4-6.4-7-14.4-9.9-23.8-4.4-14.3-5.7-27-5.9-36.6Z"/>
  <ellipse class="st1" cx="636.4" cy="1375.6" rx="134.3" ry="143.5"/>
  <ellipse class="st1" cx="1673.6" cy="1375.6" rx="134.3" ry="143.5"/>
  <path class="st1" d="M1196.5,2478v-427.6c0-30.9-24.1-56.1-53.5-56.1s-3.9.1-5.8.3c-26.9,2.8-48.1,26.8-48.1,55.8v405.9c0,2,.1,4.1.3,6.1v14.6c-.8,0-1.5,0-2.3,0v3.3c6.8.5,15.9,1.1,26.6,1.6,9.8.5,25.7,1.1,46.2,1,10.4,0,23.3-.3,38.4-1.3v-3.6c-.6,0-1.3,0-1.9,0Z"/>
  <path class="st2" d="M646.3,3564.4c13.3,47.6,24.1,95.9,37.4,143.6,4.1,14.8,12.8,46,18.7,88.7,2.8,20.6,4.2,37.8,4.9,49.9,31.5,14.4,91.9,36.9,170.2,34.4,62.5-2,111.4-19.2,141-32.3,2.9-40.4,7-90.6,13.1-148.2,2.4-22.3,9.4-88.4,19.8-159.5,18.4-125.3,32.3-162.8,54.2-283.1,9.9-54.1,22.9-132.8,33.7-230.1-70.2-63.3-145.5-138.1-221.4-225.6-92.1-106.2-166.2-209.3-225.5-302.3-22.2,96.6-53.1,243.6-72.9,395.6-9.7,74.4-13.7,126.7-15.2,147.1-3.6,50.5-8.2,115.2-5.8,192.6,1.9,62.6,10.4,195.4,47.9,329.2Z"/>
</svg>