<?xml version="1.0" encoding="UTF-8"?>
<svg id="_Слой_1" xmlns="http://www.w3.org/2000/svg" version="1.1" viewBox="0 0 2300 5500">
  <!-- Generator: Adobe Illustrator 29.1.0, SVG Export Plug-In . SVG Version: 2.1.0 Build 142)  -->
  <defs>
    <style>
      .st0 {
        fill: #9bc8ec;
        stroke: #9bc8ec;
        stroke-miterlimit: 10;
      }
    </style>
  </defs>
  <path class="st0" d="M2034.5,1857.4c-7.5,13.6-20.4,33.1-41.2,51.9-23.1,20.9-45.4,31.4-54.7,35.3-38.4,16.5-73.5,16.6-93.3,15.1,7.4,56.5,11.1,93.2,13.1,118,.7,8.1,2.8,24.5,6.4,46.5,3.9,23.5,10.7,40.2,13.4,48.3,17.4,53.2,26,79.8,32,95.1,9.9,25.6,31.7,66.7,75.1,147.9,11.9,22.4,26,50.6,54.3,107,6,12,15.2,30.6,23.8,56.5,7.6,23,11.8,42.7,14.1,56.5,5.9,3.4,35.5,19.5,72.1,9.7,29.1-7.9,45.5-27.5,50.5-34.2-9.9-39.9-15.8-72.7-19.3-94.4-9.9-61.6-14.7-123.4-24.5-231.9-1.1-12.2-2.4-25.8-5.2-43.9-1.7-10.9-2.7-14.9-4.5-26.8-2.7-18-2.7-23.4-4.5-37.9-3.6-29.1-6.9-33.1-11.9-67.6-2.6-17.9-1.9-18-3.7-30.5-6.6-44.5-20.9-78.5-29-97.4-.7-1.6-1.3-2.9-2-4.4-13.1-28.5-24.4-48.8-29.2-57.3-7.7-13.6-18.6-33.8-31.8-61.5h0Z"/>
  <path class="st0" d="M238,1953s-26.6,51.3-32.8,94.5c-.5,3.5-.9,6.7-.9,6.7-.8,6.6-.8,9.7-2.8,23.8-5,34.6-8.3,38.5-11.9,67.6-1.8,14.5-1.8,19.9-4.5,37.9-1.3,8.4-2.4,16.3-4.5,26.8-2.8,14.1-4.5,18.2-7.6,31.9-1.7,7.7-3.2,15.3-6,32.2-6.2,38.5-9.5,65.6-9.5,65.6-9.5,78-20.3,140.7-20.3,140.7-4.1,24.5-10.5,60.2-20.3,103.8,9,7.8,31.4,25.1,65.1,30.1,25.8,3.8,46.6-1.4,57.7-5,3.7-14,9.9-34.6,20.3-58.4,12-27.4,23.6-45.3,32-59.2,17.7-29,13.3-30.3,54.3-107,43.3-81.2,65.2-122.3,75.1-147.9,5.9-15.4,14.6-41.9,32-95.1,2.6-8.1,9.5-24.8,13.4-48.3,3.6-22.2,5.8-38.7,6.4-46.5,1.9-23.5,5.7-59.8,14.2-115.6-22.1,2.4-60,2.8-98.7-16.2-22.3-11-39.1-26.4-50.4-36.6-18-16.2-31-31.9-39.9-43.8-11.2,20.2-22.4,41.2-33.5,63.1-9.5,18.6-18.4,36.9-26.9,54.9Z"/>
  <path class="st0" d="M649.5,1523.4v-10.3c-.2,2.4-.4,4.8-.7,7.2.3,1.1.5,2.1.7,3.1h0Z"/>
</svg>