<?xml version="1.0" encoding="UTF-8"?><svg id="_Слой_1" xmlns="http://www.w3.org/2000/svg" viewBox="0 0 2300 5500"><defs><style>.cls-1{fill:#e0cdaf;}</style></defs><path class="cls-1" d="M1160,2482.8c-50.9.8-135.4,1.5-239.1-31.1-82.1-25.8-144-62.2-184.1-89.8.3,1.2,1,2.4,2,3.3,38.6,36.6,74.7,76.1,108.6,118.2,104.4,130.4,192.5,270.6,264,420.8,1.2,2.6,29.1,33,30,31.6,12.2.2,24.4.3,36.6.5,1.7,2.4,36.3-43,37.6-45.7,48.3-98.3,103.3-192,165-281.1,37.3-53.8,71.3-97.4,96.5-128.9,37.9-47.4,101.7-119.5,106.8-125.1-40.9,26.6-100.2,59.9-176.6,85.7-30.8,10.4-123,39.5-247.4,41.5l.1.1Z"/></svg>