<?xml version="1.0" encoding="UTF-8"?>
<svg id="_Слой_1" xmlns="http://www.w3.org/2000/svg" version="1.1" viewBox="0 0 2300 5500">
  <!-- Generator: Adobe Illustrator 29.1.0, SVG Export Plug-In . SVG Version: 2.1.0 Build 142)  -->
  <defs>
    <style>
      .st0 {
        fill: #9bc8ec;
        stroke: #9bc8ec;
        stroke-miterlimit: 10;
        stroke-width: 3px;
      }
    </style>
  </defs>
  <path class="st0" d="M1543.4,2379.8c-.8.4-1.5.9-2.3,1.3-.6.3-1.1.6-1.7.9-35.9,20.2-80.3,41.4-132.7,59.1-25.8,8.7-94.8,30.6-189.8,38.6-6.9.5-13.8.9-20.4,1.2-35.7-.3-71.4-.7-107.1-1-47.2-1.8-113-9.2-187.3-34.3-70.6-24.4-124.9-56-162-81.1,18.6,18.5,43.3,43.9,71,75.3,63.4,72.1,104.8,132.9,130.2,170.3,30.8,45.1,60.8,93.7,91.6,149.1,25,44.9,33.6,61.6,33.6,61.6,10.7,20.6,35.2,63.2,80.1,127.3l1.6,2.3c-.9,2,25.8-2.8,24.6-5.6l1.6-2.3c44.9-64.1,69.4-106.7,80.1-127.3,0,0,8.6-16.7,33.6-61.6,30.8-55.4,60.9-104,91.6-149.1,25.4-37.4,66.8-98.2,130.2-170.3,22.7-25.7,43.4-47.5,60.4-64.7,3.2-4.1,6.2-8,9.1-11.6-11.1,7.1-23.1,14.5-36,21.9h0Z"/>
</svg>