<?xml version="1.0" encoding="UTF-8"?>
<svg id="_Слой_1" xmlns="http://www.w3.org/2000/svg" version="1.1" viewBox="0 0 2300 5500">
  <!-- Generator: Adobe Illustrator 29.1.0, SVG Export Plug-In . SVG Version: 2.1.0 Build 142)  -->
  <defs>
    <style>
      .st0 {
        fill: #9bc8ec;
        stroke: #9bc8ec;
        stroke-miterlimit: 10;
      }
    </style>
  </defs>
  <path class="st0" d="M901.4,881.8c32.4,25.7,132,96.5,276.2,94.9,135.4-1.5,229.2-66.2,262.2-91.8.3.2.7.4,1,.6,1-.8,1.9-1.5,2.8-2.2l-8.9-7.6h0c-5.2-3.2-12.5-7.7-21-13.5-17.1-11.9-36.1-26-51.3-44-24.4-28.9-27.7-65.5-30.5-95.9-1.7-18.6-1-34.2,0-45.1-8.9,4.7-14.9,9.9-18.6,13.5-.9.9-4.2,4.1-7.9,9-4,5.3-6.4,9.6-6.8,10.2-4,7-29.6,31.5-60.9,44-78.7,31.5-194.5-12.3-204.1-44.1-1-3.2-4.9-19.5-14.8-21.8-2.9-.6-5.6,0-6.9.7-13.6,6,3.4,46.8-7.9,86.7-8.5,29.9-29.9,48.8-50.8,67.3-22.2,19.6-44.2,30.9-59,37.3,1.3,1,2.8,2.2,4.4,3.5.9-.5,1.9-1.1,2.8-1.6h0Z"/>
</svg>