<?xml version="1.0" encoding="UTF-8"?>
<svg id="_Слой_1" xmlns="http://www.w3.org/2000/svg" version="1.1" viewBox="0 0 2300 5500">
  <!-- Generator: Adobe Illustrator 29.1.0, SVG Export Plug-In . SVG Version: 2.1.0 Build 142)  -->
  <defs>
    <style>
      .st0 {
        fill: #010101;
      }

      .st1, .st2, .st3 {
        fill: #d4deeb;
      }

      .st2, .st3 {
        isolation: isolate;
      }

      .st2, .st4 {
        opacity: .2;
      }

      .st3 {
        opacity: .5;
      }

      .st5 {
        fill: #fff;
      }

      .st6 {
        fill: #c3e0e3;
      }
    </style>
  </defs>
  <path class="st0" d="M1340.8,752.8c3.8,37.9,23.9,68.5,60.3,91.8,71.5,45.8,137,81.7,196.7,107.8,9.5,9.5,23.6,16,42.1,19.7,42.9,8.5,71.1,14.6,84.7,18.2,213.9,55.4,221.2,276.5,217.2,456.7-.3,12.5,1.9,24.9,6.6,36.4,26.8,66.8,44.8,122.7,57.1,198.4.6,3.4,6.4,39.6,17.5,108.4,4.2,25.8,14.4,58,28.9,85,30.1,55.8,46.9,88.3,50.4,97.4,26.1,67.9,43.6,140.1,52.4,216.6,12.3,106.9,23.5,209.1,33.8,306.6,5.9,55.9,23.8,160.2,53.9,313.1,4.8,24.7,14.8,54.4,24.8,87.6,2.1,6.9,1.8,14.2-.8,20.9-11.9,31.1-19.9,64.4-23.8,99.9-16.2,37.5-37.5,75.5-63.9,114.1-6,8.8-12.7,14.8-20.3,18-2.6,1.1-5.4,1.4-8.2.9-12-2.6-18.2-9.3-18.7-20.3,0-2.3-2-4.1-4.2-4-.6,0-1.2.2-1.8.5-9.9,5.3-27.1,15.3-37.1,6.3-8.9-7.9-14.3-16-16.3-24-1.7-6.9.3-14.3,5.3-19.4l45.7-46.7c1.9-2,3.5-4.2,4.7-6.7,15.3-30.2,24.8-60.9,28.6-92.2.2-21.9-.4-36.7-2-44.6-2.3-11.2-11.2-23.1-26.6-35.5-1.7-1.4-4.3-1.1-5.7.6-.1.2-.3.4-.4.6-5,9.1-7.6,15-7.6,17.7-1.1,36.9-2.1,76.1-35.6,95.4-2.6,1.6-5.7,2.3-8.8,2.2-34.2-.9-35.3-23.1-28.9-52.3,9.9-45.4,14.7-78.2,4.7-122.1-12.5-54.6-4.3-83.2,24.2-128.8,1.9-3,2.8-6.5,2.7-10.1l-1.1-31.5c-5.4-30.8-14.3-60.9-26.8-90.3-35.7-83.8-74.1-146.3-120.1-237.2-50.1-98.9-76.3-198.5-78.5-298.6-.3-16-1.6-29.5-3.6-40.3-4-21.1-7.6-34.1-10.8-39.2-39.4-62.9-72.3-129.4-98.7-199.7l-36-133.1c-.4-1.3-1.8-2-3.1-1.6-.8.3-1.5,1-1.6,1.8-11.1,71.7-32.3,142.1-63.9,211.2-9.4,20.5-18,51.4-26.1,92.9-13,67.5-21.7,136.7-19.8,208.6,1.8,68.8,4.3,97.6-.5,146-1.8,17.5-3,31.6-3.7,42.2-.2,3.9.3,7.9,1.6,11.7,71.9,216.4,120.9,434.1,147.1,653.3,2.6,21.6,5.7,73.2,9.5,154.8,2.5,54.4,1.6,106-2.6,154.6-11.5,131.6-34.3,255.5-69.2,382.7-18.2,66.1-28.7,113.6-31.4,142.4-6.9,70.8-1.7,142,15.6,213.6,20.6,85.5,34.7,162.1,42.3,229.8,4,35.9,4.6,84.9,1.6,147.1-3.3,69.6-15.2,158.1-35.5,265.4-24.4,128.6-43.4,248.4-57,359.5-8.9,72.5,25.3,123.3,69.8,185,20.3,28.2,37.4,49.9,51.4,64.8,40.4,43.3,84.7,69.6,146.8,105.3,19.1,11,31,26,21.1,46-9.8,20-27,28.2-51.7,24.5-3.3-.5-6.7.4-9.4,2.4-15.6,11.8-33.3,13.7-53.2,5.6-3.1-1.3-6.5-1.1-9.4.5-47.1,25.8-81.1,6.4-126.9-7-37.3-11-56.7-27-79.8-54.4-33.3-39.4-92.2-11.6-130.3-36.9-24.3-16.1-33.8-41.1-28.4-75,5.7-35.7,9.2-59,10.4-69.9.9-8.5.9-17,0-25.4-2.6-23.7-3.2-38.7-1.8-45,9.7-43.5,14.4-79.3,14.4-107.5,0-44.2-4-96.8-11.9-157.9-9.1-125.2-34.8-245.3-77-360.3-15.1-77.4-21.5-146.6-19.3-207.6,1.8-48.2,9.8-124.4,24.2-228.5,1.2-9.1,2-26,2.3-50.9,0-8.6-1.2-17-3.6-25.2-19.1-62.7-30.6-113.1-34.4-151-15.8-155.7-26.2-285-63.5-435.9-16.2-65.4-26.8-112.4-31.8-141-13.9-78.6-21.6-126.1-22.9-142.6-6.2-72.7-11.4-129.3-15.6-169.9-.3-3.3-1.2-6-2.5-8-2.4-3.8-7.5-4.9-11.3-2.4-1.9,1.3-3.3,3.3-3.6,5.6-12,75.3-15.3,149.4-26.4,230.9-11.1,79.8-31.9,165.2-49,246.1-30.3,142.9-36.3,296.7-52.3,426.9-6.4,52.2-18.8,104.7-37.2,157.5-1.2,3.5-1.9,7.2-1.9,11-.4,43.1,9.9,103.2,21.3,204.6,7.7,68.3,6.5,138-3.5,209.2-2.9,21-16.7,73.3-41.3,156.7-30.3,103-50.8,214.7-61.7,335-5,55.3-10.8,104.6-4.5,137.4,4.7,24.5,9.3,48.1,13.6,70.7,2,10.8,2.1,21.8.2,32.6l-2.8,15.7c-.9,5.2-1,10.6,0,15.8,12.3,74.2,42.4,153.2-62.9,159.9-30.6,1.9-64.2-2.4-83.8,23.1-24,31-62.1,54.1-114.4,69.2-39.9,11.5-71.5,9.1-94.7-7.4-2.6-1.8-5.9-2.2-8.8-1-22.6,9.3-42.2,7.8-58.9-4.4-3-2.2-6.8-3-10.5-2.2-8,1.8-19-1-33.2-8.5-17.3-9.2-22-22.4-14.1-39.6,1.2-2.6,3-4.9,5.2-6.8,10.4-8.6,33.2-23.2,47.9-31.3,96.9-52.9,167.3-140.5,220.2-229.5,20.9-35.1,28-76.7,21.2-124.6-18.2-129.4-33.9-230.2-46.9-302.4-33.5-184.8-52-367.4-12.2-554.7,25.9-121.8,50.3-217.5,39.7-331.6-3.3-26.9-8.5-53.4-15.4-79.4-15.8-59.3-33.2-118.5-52.2-177.6-2.9-24.4-9.8-67.2-21-128.6-20.5-112.9-25.1-239-13.9-378.3,20.1-250.7,66.2-498.3,147.1-732.5,3-8.6,4-17.6,3.2-26.7-4.4-47.1-5.6-88.6-1-144.2,9.9-122.9-10-244.9-57.4-361.9-24.4-60.4-39.1-124.2-44.2-191.4-.1-1.1-1.1-1.8-2.2-1.7-.8,0-1.4.7-1.6,1.4-16.7,78.6-44.5,154.5-83.4,227.6-16.1,30.3-36.8,67.6-62,111.9-6.9,12.1-11.6,25.3-13.9,39-3.6,21.8-6.2,43.2-7.8,64.3-13.4,172.4-86.3,293.2-170.5,442.6-25.6,45.4-45.6,92.9-60,142.3-9.4,32.3-4.7,64.5,14,96.6,14.9,25.6,7.5,65.8-3.1,99.5-10.3,33-9.9,78.6-3.6,107.3,6,27.1,9,41,9,41.7,0,3-.9,5.9-2.5,8.3-6.4,9.6-14.7,15-25.1,16.3-52.1,6.4-51.7-89.6-53.6-120-.1-2.2-2-3.9-4.2-3.8-.7,0-1.4.3-2,.6-14.8,9.8-25.4,22.5-30.4,40.8-12.2,44-6.1,79.5,18.4,106.3,11,33.5,27.9,47.4,57.4,76.6,7.9,7.8,9.8,18.3,5.7,31.6l-14.8,16.9c-2.1,2.4-5.5,3.1-8.3,1.7-8.8-4.2-16.6-10.1-23.3-17.5-1.3-1.4-3.4-1.5-4.8-.2-.8.7-1.1,1.7-1.1,2.7,1.1,14.9-4.4,24-16.5,27.2-6.8,1.9-12.9-.4-18.2-6.9-44.3-54-87.8-117.1-92.4-192,0-.8-.2-1.5-.4-2.2l-11.2-29.6c-2.7-7.2-2.8-15.1-.3-22.4,45-128.1,76.8-259.3,95.3-393.8,17.8-128.7,33-233.4,45.8-314,9.1-57.5,20.8-111.4,35.3-161.7,18.1-62.8,47.2-110.6,77.6-170.3,21.8-42.7,24.3-88.1,38.2-164,13.3-72.9,36-142.9,68.2-210.1,2.4-5,5-14.6,7.7-28.8.9-4.4,1.2-8.8,1-13.2-3.5-77.1.9-148.7,13.1-214.6,20.9-112.8,69.6-197.6,185.8-230.8,12.9-3.7,45.5-11.2,98-22.5,11.5-2.5,23.2-6.8,35.2-13.2,40.5-21.2,92.7-49.3,156.7-84.4,51.2-28.1,97.5-60.8,111-121.6,2.9-12.8,3.3-37.5,1.3-74.3-.2-3.2-1.1-6.4-2.6-9.2-20.3-36.8-35.1-72.9-44.5-108.1-1.1-4-3.5-7.5-6.8-9.9l-15.6-11.4c-3-2.2-5.5-5-7.4-8.2-15.4-26.3-25.3-54-29.5-83.2-4-26.8-5.8-70.8,32.1-69.1,2.4.1,4.5-1.7,4.6-4.2,0-.3,0-.6,0-.8-3-19.7-2.4-53.3,1.8-100.9,3.2-37.1,12.5-69.3,27.8-96.4,40.8-72.2,121.6-117,203.9-116,122.4,1.6,216.6,78.2,236.3,200.9,4.8,30.1,5.9,68.7,3.2,115.7-.1,2,1.4,3.7,3.4,3.8.5,0,1,0,1.4-.2l3.3-1.3c2.7-1,5.8-.7,8.2.9,14.2,9.2,21.4,20.7,21.6,34.6.3,37.7-17.5,116.5-55.5,133.9-3.7,1.7-6.4,5-7.4,9-7.5,32-21.2,65.1-41.1,99.1-2,3.4-3.4,7.2-3.9,11-4.8,32.6-3.3,60.8,4.5,84.6h0ZM1394.1,401.9c3.7-70.7,10.4-146.2-23.9-210.9-78.8-148.1-291.2-164.3-387.7-25.1-43.4,62.7-48.8,168.9-34.4,240.8.2,1.8-1,3.4-2.8,3.7-1.3.2-2.6-.5-3.3-1.6-4.8-9.8-9.2-15.5-13.1-17.2-8.9-3.7-19.1,1.1-22.8,10.8-.8,2.1-1.3,4.3-1.4,6.5-1.7,41.4,8.2,80.5,29.8,117.2,4.6,7.8,11.1,11.4,19.4,10.7,2.3-.2,4.5,1.2,5.2,3.4,23.2,72,45.9,133,103,184.1,67.9,61,165.8,48.4,227.3-17.8,43.4-46.7,71.6-100.1,84.6-160.2.8-3.4,3.2-6,6.5-7,36.5-11.2,47.4-73.6,52.8-108.9,1.9-12.9.1-24.4-5.4-34.5-3.3-5.9-10.8-7.8-16.7-4.3-2.4,1.4-4.3,3.6-5.4,6.2-2,4.7-3.8,7.5-5.3,8.3-2.1,1.1-4.7.3-5.8-1.9-.4-.7-.5-1.5-.5-2.3h0ZM447.2,5417.5c6.1,7.4,13.4,11.2,21.8,11.3,2.8,0,5.4-1.5,6.8-4,8.1-14.2,16.9-31.9,36.8-35.7,15.4-2.9,30-11,43.8-24.1.9-.9,2.4-.8,3.2.1,0,0,.1.2.2.2l1.6,2.4c1,1.4.7,3.4-.7,4.4-15.6,11.8-30.6,20.2-45,25.4-12.3,4.4-21.3,12.3-26.9,23.5-2.6,5.2,0,11.7,5.6,14.5.2,0,.3.2.5.2,12.8,5.4,42.2,11.4,46.1-8.2,1.6-7.9,3.1-13.4,4.6-16.5,1.8-3.9,4.7-7.1,8.2-9.5l26-17.5c2.2-1.5,5.2-1.6,7.5,0,6.9,4.5,13.6,6,20.1,4.4,2.9-.7,5.5-2.5,7.3-5.1,5.5-8,11.7-13.8,18.6-17.4,1.4-.8,3.3-.3,4,1.2.6,1.1.5,2.4-.3,3.3-13.6,17.5-29.6,26.6-48,27.3-13,.5-28,5.2-34.4,15.3-6,9.2-4.5,20.9,3.3,26.2.6.4,1.2.8,1.9,1.1,46.8,22.5,102.4-1.1,150.3-24.6,9.2-4.5,17.3-11,23.8-19,15.2-18.4,37.5-43.9,66.6-44,35.6-.2,104.3,2.3,108.5-43.8,1.6-17.8-2.3-53.7-11.8-107.7-.2-1.4-.3-2.8-.2-4.3l3.6-41c.6-6.7.1-13.4-1.3-19.9-12.9-56.4-18.2-101-12.9-166.5,12.3-152.4,35.9-287,77.5-420.4,34.1-109,45.8-219.4,31.7-331.7-12.8-101.5-19.9-165.3-21.6-191.6-.2-3.2.3-6.4,1.5-9.5,22.2-58.4,36.3-120,42.3-184.9,7.5-80.9,16.8-177.4,27.9-289.4,3.2-32.2,15.5-96.5,37-193.1,18.7-84.3,30.9-148.7,36.6-193.1,7.6-59.9,15.6-130.1,23.9-210.5.3-3.1-1.7-5.9-4.7-6.8l-28.5-8c-.7-.1-1.2-.7-1.2-1.4v-2.9c-.1-1.3.8-2.3,2-2.4.3,0,.5,0,.8.1,32.9,10.1,65.8,11.2,98.9,3.3,1.4-.4,2.8.4,3.4,1.8l.9,2.4c.2.7,0,1.4-.8,1.7,0,0-.2,0-.3,0l-33.7,6.3c-2.3.5-3.8,2.7-3.4,4.9,0,0,0,.2,0,.3,2.5,9.6,8.6,65.5,18.3,167.5,8.8,92.4,29.2,186.7,57.4,303.6,20.8,86,33.9,156.5,39.5,211.7,10.1,99.9,17.5,172.1,22.4,216.5,5.1,46,16.1,95.6,33.1,148.8,2.7,8.6,4.2,17.6,4.4,26.6.3,19-1.1,40.7-4.4,65-19.7,144.8-36.2,269.2-3.1,400.5,14.7,58.6,40.8,138,52.8,202.6,21,112.2,33.1,227.5,36.3,346,.8,31.4-6,62.8-12.5,96.7-1.6,8.1-2.1,16.5-1.6,24.8,2.3,34-.2,73.8-7.7,119.2-12.9,78.6,49.1,73.7,103.3,79.5,41.6,4.5,59.1,35.6,85.5,59.4,13.3,11.9,38.5,17.7,57.4,23.8,37.6,12,61.6,23.2,100.2,4.1,3.4-1.7,5.5-5.3,5.3-9.1l-1-19.6c-.2-3.5-2.2-6.6-5.3-8-17.5-7.8-33.1-12.2-46.6-13.1-8.4-.5-15.6-6.2-21.8-17-1-1.8-.4-4.1,1.4-5.1.4-.3,1-.4,1.5-.5,3.3-.3,6.8,2.2,10.5,7.4,1.5,2,3.9,3,6.2,2.6,5.2-.7,24.3,5.7,57.3,19.3,3,1.2,5,4,5.2,7.3l1.2,24.8c.1,2.8,1.6,5.3,4,6.7,14.6,8.1,30.8,6.8,48.9-4.1,2.4-1.5,3.4-4.4,2.6-7.1-4.5-14.8-9.6-23.7-15.3-26.8-16.9-8.8-36.2-20.5-57.9-34.9-.7-.4-1-1.3-.6-2,0,0,0,0,0,0l1.3-2.3c.1-.3.5-.4.8-.3,0,0,0,0,0,0l64.3,33.1c5.4,2.8,9.2,7.9,10.3,14,4.4,24,17.1,28.6,38.1,14,1.4-1.1,1.8-3.1.8-4.5,0,0,0-.1-.1-.2-8-9.5-14.4-16.7-19-21.7-12.7-13.6-34.4-18.7-48.9-30.4-.6-.5-.6-1.4,0-2,.3-.4.9-.5,1.3-.4,25.1,7.8,64.5,26.4,72.3,52.1.3,1.3,1.6,2.1,3,1.8,1-.2,1.7-1.1,1.9-2.1,2.5-15.9-2.7-27.8-15.7-35.5-15.4-9.2-40.5-24.4-75.1-45.6-64.8-39.6-118.8-108.9-166.1-183.5-21.9-34.5-32.9-66.3-33-95.4-.1-41.6,6.3-102.4,19.2-182.5,3.9-24.2,19.7-115.1,47.3-272.6,29.4-168,40.4-328.9.5-496.1-24.1-101.4-43.4-196-35.5-299.4,2.1-27.1,10.3-65.8,24.8-116.2,2.9-10.2,13.1-50.5,30.5-120.9,33-133.3,49.7-265,49.8-395,.3-286.7-67.9-581.3-158.8-861.4-1-3.2-1.4-6.6-1.1-10,4-35.5,8.3-73.1,7.3-107.4-1.8-56.1-5.2-110.7-.6-161,5-55.4,14.6-113.2,28.9-173.4,4.7-19.7,15.6-49.1,32.6-88.3,23-53.1,38.7-110.4,46.9-171.8,6.1-45,2.6-74.1-.4-129.3,0-1.3-1.2-2.3-2.5-2.2-.8,0-1.6.5-2,1.3-11.3,22.4-25.7,42.1-43.2,59-1.1.9-2.8.7-3.7-.4-.7-.8-.8-2-.2-2.9,28.9-41.6,56.1-82.2,81.4-121.8,3.6-5.7,10-12.8,19-21.1.9-.9,2.5-.9,3.4,0l1.9,1.9c.3.3.4.8.2,1.1l-44.4,65.3c-.9,1.3-1.3,2.9-1.2,4.6l5.2,82.7c0,1.2.2,2.4.5,3.6,5,23,10,46.2,15,69.7,22.9,107.2,62.1,205.5,117.4,294.7,27.1,43.8,28,73.4,30.8,133.6,3.8,81.5,27.9,168.9,62.2,238.4,37.5,76.1,72.9,144.9,106.2,206.3,26,48,58.4,123.6,57.5,181.6-.1,6.1-1.9,12.1-5.1,17.3-19.2,31.3-33,56.7-29.6,96.8.8,8.5,4.4,28.1,11,58.7,3.8,17.7,0,55.9-11.6,114.6-1.9,9.4,4.2,18.6,13.6,20.4.4,0,.8.1,1.2.2h.4c11.3,1.6,22.1-4.8,26.3-15.3,7-17.3,12.1-40.1,15.4-68.3,2.5-22.1,12.9-50.1,31.1-84,.9-1.7,3-2.3,4.7-1.4.3.2.6.4.9.6l2.1,2.1c1.4,1.4,1.8,3.6.9,5.4l-19.6,38.9c-1.2,2.4-.2,5.4,2.2,6.6.1,0,.3.1.5.2.5.2,1.7.4,3.5.5s4.1,1.4,6.8,3.8c6,5.4,16.8,19.2,32.4,41.4,2,2.9,2.6,6.5,1.5,9.9-5.7,17.7-7.7,39.4-6,65.2.1,1.7.8,3.3,2,4.4l4.4,4.3c1.2,1.1,1.3,3,.2,4.2-.7.8-1.8,1.1-2.9.9-.2,0-1.1-.5-2.7-1.4-2.9-1.6-6.6-.5-8.2,2.5,0,0,0,0,0,0l-30.2,58.3c-.4.8-.9,1.6-1.5,2.2l-46.4,50c-1.7,1.8-1.9,4.5-.5,6.6l1.8,2.5c1.8,2.7,5.3,3.4,8,1.7.2-.1.4-.3.6-.4,24.2-20.1,44.5-42.5,69.2-61.1,8.4-6.3,14.1-15.5,17.2-27.7,1.6-6.3,3.9-35.8,7.1-88.7,0-.1,0-.2.2-.2h2.6c1-.1,1.8.6,1.9,1.6,3.2,36,1.6,66.9-4.8,92.7-2.6,10.6-17.2,43.4-43.9,98.3-2,4.2-.5,9.3,3.6,11.6l3,1.7c5.2,3,11.9,1.4,15.1-3.7l52.3-83.7c2.4-4,4.3-8.2,5.5-12.7l35.7-131c.9-3.4.9-7,0-10.4-4.8-18.8-14.4-44.4-19.1-65.4-26.3-116.5-46.9-234.2-62-353-16.1-126-22.2-284.7-56.2-422.2-13.2-53.4-34.9-105.7-65.3-156.7-20.8-34.8-31.1-58.8-38.2-93.2-11.8-57.1-19.7-138.6-37.6-204.4-8.4-30.7-22.6-72-42.8-123.8-4.2-10.6-6.1-21.9-5.6-33.3,6.1-164.2,0-383.3-190.6-442.4-42.6-13.2-99.5-15.3-139.6-35.8-62-31.5-126.7-67.8-194-108.9-74.4-45.3-84.5-97.6-79.4-175.2,0-1.3-1-2.4-2.3-2.5-.6,0-1.1.2-1.6.5-1.6,1.3-7.7,8.2-18.3,20.9-81.2,96.6-213.3,94.4-285-13.2-.8-1.4-2.6-1.8-4-1-1,.6-1.6,1.8-1.4,3,9.8,93.9-31.9,140.3-115.1,187.9-52.9,30.2-108.2,60.1-165.8,89.6-14.2,7.3-29.5,12.2-45.3,14.4-6,.8-29,5.8-69.1,15-95.5,22-156.8,83.5-183.9,184.5-21.1,78.8-25.5,169.6-21.9,257.3.6,13.9-2.2,27.7-8.2,40.3-35.9,76.2-60.7,156-74.4,239.4-8.6,52-15.9,87.9-21.8,107.4-6.3,20.7-20,50.7-41,89.9-24,44.7-42.1,85.8-52.5,128.2-35.2,142.3-51.3,282.5-71.5,425.1-21.8,154.9-50.2,288.8-99.1,424.4-2.1,6-2.1,12.4,0,18.3l11.2,30.5c.2.7.4,1.4.5,2.2,5.4,46.6,17.2,83.5,35.3,110.8,21.9,33,39.3,58.3,52,75.9,3.5,4.8,10,6.1,14.6,2.9,1.4-.9,2.5-2.2,3.2-3.7,2.1-4.4,1.8-9.8-.8-16.3-13.4-33.5-30.8-65.1-52-94.6-1.2-1.7-1.9-3.6-2-5.6l-3.3-70.5c0-.5.3-1,.9-1.1h0l6.7-.3c1.2,0,2.2.8,2.3,2,0,.1,0,.3,0,.5-4.8,32.8-.6,63.2,12.5,91.1,1.2,2.6,2.7,5,4.4,7.3,15.2,20.1,28.7,39.1,40.5,57,2.6,4,13.3,11.1,31.9,21.4,2.5,1.4,5.6.5,6.9-1.9l.2-.3c1.3-2.2.6-5.1-1.6-6.4-38.1-24.2-62.9-58.5-74.6-103-1.1-4.3-3.6-26.1-7.5-65.5-.3-3.5,0-7.1,1.1-10.5,3.3-10.3,3.8-20.5,1.5-30.6-.7-3.2,0-6.6,2.1-9.1l38.2-49c.7-.9,1-2,.8-3.1l-6.3-33.8c-.1-.9.4-1.8,1.2-2.1l2.3-.9c1.2-.4,2.6.1,3.1,1.3,12.1,27.6,19.2,52,21.4,73.1,3.2,30.8,7,54.8,11.4,72.1,3.2,12.5,13.9,21.6,26.8,22.7h.7c9.4.8,17.6-6.1,18.4-15.4.1-1.7,0-3.4-.3-5.1-9.2-41.3-12.8-79.7-11-115.2.2-3,.7-6,1.7-8.9,12.5-38.3,25.4-80.1,12.1-111.1-12.3-28.5-19.1-44.2-20.2-47.3-4.1-11.2-2.7-30.3,4.2-57.3,28.6-111.9,112.4-238,152.4-316.3,47.1-92.4,72.4-187.2,80.2-289.2,2.5-31.9,6.1-53.7,11-65.3,11.4-27,27.6-58.2,48.6-93.4,53.2-89.5,90.3-184.9,111.1-286.1,1-4.6,3.4-11.4,7.2-20.4.9-2,1.3-4.2,1.3-6.5l-1-80.5c0-1.9-.5-3.9-1.6-5.5l-41.2-65.6c-.9-1.4-.7-3.2.3-4.5h.2c1.9-1.7,4.6-1.4,6.2.5.1.1.2.3.3.4l93.2,138.2c.3.5.1,1.2-.3,1.5l-2,1.3c-.5.4-1.3.2-1.7-.3l-39.7-51.1c-.7-.8-1.8-1-2.7-.4-.5.4-.8.9-.7,1.6.6,23.3.4,42.7-.4,58.2-4.1,71.3,10,155.7,31.7,209.8,22.5,56,35.3,89.3,38.6,99.7,31.6,101.3,39.6,200.8,31.9,314.4-3.3,49.2-2.7,96.2,1.8,141,.5,4.8-.1,9.7-1.7,14.3-41.2,118-73.3,237-96.1,356.9-13.2,69.6-26.8,154.6-40.7,254.9-32,231.1-19,456.1,39.1,674.8,14.2,53.6,44,138.4,50.5,196.4,7.2,64.2,2,140-8.1,194.8-2.1,11.5-14.7,73.5-37.9,185.9-29,141-17.4,297.7,7.8,445.9,20.3,119.3,39.4,243.1,57.2,371.5,6.7,48,1.1,89.2-16.7,123.8-25.1,48.8-66.7,104.8-124.7,168-31.4,34.3-69.6,54.6-113.2,80.7-3.2,1.9-15.2,10.8-36.2,26.8-6.4,4.9-8.1,13.7-4,20.5,2.3,3.9,6.5,5.4,12.5,4.6h0ZM213.9,3107.7c1.7-.6,2.6-2.5,1.9-4.2-.1-.3-.3-.6-.5-.8-8.2-10.4-20.3-23.9-36.4-40.5-12-12.4-22.4-33.7-31.4-64-.6-2-2.8-3.2-4.8-2.6-.4.1-.7.3-1,.5l-3.8,2.5c-.5.4-.8,1-.6,1.7,10.8,47.4,35.6,83.4,74.5,108.1.6.4,1.3.5,1.5.2,0,0,0,0,0,0,.3-.5.5-.8.5-.8h0ZM2160.2,3060.8l-63.2,61.7c-1.4,1.3-1.5,3.6,0,5,1,1,2.4,1.4,3.8.9,7.2-2.5,16.6-7.1,28.2-13.8,2-1.2,3.7-2.9,4.9-4.8l29.5-48.7M2163.2,3060.9l-.4-.4c-.8-.6-1.9-.5-2.5.2l3,.2h0Z"/>
  <path class="st5" d="M1400.4,406c1.6-.8,3.4-3.6,5.3-8.3,2.6-6.4,9.8-9.6,16.1-7.1,2.6,1,4.7,2.8,6,5.2,5.6,10.1,7.4,21.6,5.4,34.5-5.3,35.4-16.3,97.7-52.8,108.9-3.2,1-5.7,3.7-6.5,7-12.9,60.1-41.1,113.5-84.6,160.2-61.6,66.2-159.5,78.8-227.3,17.8-57.1-51.1-79.7-112.1-103-184.1-.7-2.2-2.9-3.6-5.2-3.4-8.3.7-14.8-2.9-19.4-10.7-21.6-36.7-31.5-75.8-29.8-117.2.5-10.4,8.6-18.7,18.2-18.5,2.1,0,4.1.5,6,1.2,3.9,1.6,8.3,7.4,13.1,17.2.9,1.6,2.8,2.1,4.4,1.3,1.2-.6,1.8-2,1.6-3.3-14.4-71.8-9-178.1,34.4-240.8,96.5-139.2,308.9-123.1,387.7,25.1,34.4,64.6,27.6,140.2,23.9,210.9-.1,2.4,1.7,4.5,4.1,4.6.8,0,1.5-.1,2.2-.5h0Z"/>
  <path class="st5" d="M447.2,5417.5c9-5.5,9-16.3,18-21,33.7-17.6,51.3-26.7,52.7-27.3.3-.1.5-.5.4-.7,0,0,0,0,0,0l-1.5-4c-.3-.9-1.3-1.4-2.2-1.1,0,0-.1,0-.2,0-19.8,10.9-39.7,20.8-59.7,29.8-8.1,3.6-10.5,11.7-7.4,24.1-6.1.8-10.3-.8-12.5-4.6-4.1-6.9-2.3-15.7,4-20.5,21-16,33.1-24.9,36.2-26.8,43.6-26.1,81.8-46.4,113.2-80.7,58-63.1,99.6-119.1,124.7-168,17.8-34.6,23.3-75.8,16.7-123.8-17.8-128.4-36.8-252.2-57.2-371.5-25.2-148.1-36.8-304.9-7.8-445.9,23.2-112.4,35.8-174.4,37.9-185.9,10.1-54.8,15.3-130.6,8.1-194.8-6.5-58-36.3-142.8-50.5-196.4-58.1-218.7-71.1-443.6-39.1-674.8,13.9-100.3,27.5-185.2,40.7-254.9,22.9-119.9,54.9-238.9,96.1-356.9,1.6-4.6,2.1-9.5,1.7-14.3-4.4-44.9-5-91.9-1.8-141,7.6-113.6-.3-213.1-31.9-314.4-3.3-10.5-16.1-43.7-38.6-99.7-21.7-54.1-35.8-138.5-31.7-209.8.9-15.5,1-34.9.4-58.2,0-1,.7-1.9,1.8-1.9.6,0,1.2.3,1.6.8l39.7,51.1c.4.5,1.1.6,1.7.3l2-1.3c.5-.3.6-1,.3-1.5l-93.2-138.2c-1.3-2-4-2.6-6.1-1.3-.2,0-.3.2-.4.3h-.2c-1.1,1.3-1.2,3.2-.3,4.6l41.2,65.6c1,1.7,1.6,3.6,1.6,5.5l1,80.5c0,2.3-.5,4.5-1.3,6.5-3.8,9-6.2,15.8-7.2,20.4-20.9,101.2-57.9,196.6-111.1,286.1-21,35.3-37.2,66.4-48.6,93.4-4.9,11.6-8.6,33.3-11,65.3-7.8,102-33.1,196.8-80.2,289.2-40,78.3-123.9,204.4-152.4,316.3-6.9,27-8.3,46.1-4.2,57.3,1.1,3,7.8,18.8,20.2,47.3,13.3,31,.4,72.7-12.1,111.1-.9,2.9-1.5,5.8-1.7,8.9-1.9,35.5,1.8,73.9,11,115.2,2,9.1-3.8,18.2-12.9,20.2-1.7.4-3.4.5-5.1.3h-.7c-12.8-1.1-23.6-10.2-26.8-22.7-4.4-17.3-8.2-41.3-11.4-72.1-2.2-21.1-9.3-45.5-21.4-73.1-.5-1.2-1.8-1.8-3.1-1.3l-2.3.9c-.9.3-1.4,1.2-1.2,2.1l6.3,33.8c.2,1.1-.1,2.2-.8,3.1l-38.2,49c-2.1,2.6-2.8,5.9-2.1,9.1,2.3,10.1,1.8,20.3-1.5,30.6-1.1,3.4-1.5,7-1.1,10.5,3.9,39.4,6.3,61.2,7.5,65.5,11.7,44.4,36.6,78.8,74.6,103,2.2,1.4,2.9,4.2,1.6,6.4l-.2.3c-1.4,2.4-4.4,3.3-6.9,1.9-18.6-10.3-29.3-17.4-31.9-21.4-11.8-17.9-25.3-37-40.5-57-1.7-2.3-3.2-4.7-4.4-7.3-13.1-27.9-17.2-58.3-12.5-91.1.2-1.1-.6-2.2-1.8-2.4-.2,0-.3,0-.5,0l-6.7.3c-.5,0-.9.5-.9,1h0l3.3,70.5c.1,2,.8,4,2,5.6,21.2,29.6,38.6,61.1,52,94.6,2.6,6.5,2.8,11.9.8,16.3-2.4,5-8.7,6.9-13.9,4.2-1.5-.8-2.9-2-3.9-3.4-12.8-17.5-30.1-42.8-52-75.9-18.1-27.3-29.9-64.2-35.3-110.8-.1-.8-.3-1.5-.5-2.2l-11.2-30.5c-2.2-5.9-2.2-12.4,0-18.3,48.9-135.6,77.3-269.5,99.1-424.4,20.2-142.5,36.3-282.8,71.5-425.1,10.4-42.4,28.5-83.5,52.5-128.2,21-39.2,34.7-69.2,41-89.9,5.9-19.6,13.2-55.4,21.8-107.4,13.7-83.3,38.5-163.1,74.4-239.4,5.9-12.6,8.7-26.4,8.2-40.3-3.6-87.6.8-178.5,21.9-257.3,27-101.1,88.3-162.6,183.9-184.5,40.1-9.2,63.2-14.2,69.1-15,15.8-2.2,31.2-7.1,45.3-14.4,57.6-29.5,112.9-59.4,165.8-89.6,83.2-47.5,124.9-93.9,115.1-187.9-.2-1.6.8-3.1,2.4-3.3,1.2-.2,2.3.4,3,1.4,71.7,107.5,203.8,109.7,285,13.2,10.6-12.6,16.8-19.6,18.3-20.9,1-.8,2.5-.7,3.3.3.4.5.6,1,.5,1.6-5.1,77.5,5,129.8,79.4,175.2,67.4,41.2,132,77.5,194,108.9,40.2,20.4,97,22.5,139.6,35.8,190.5,59.1,196.7,278.2,190.6,442.4-.5,11.4,1.4,22.8,5.6,33.3,20.2,51.9,34.4,93.2,42.8,123.8,18,65.8,25.9,147.3,37.6,204.4,7.1,34.4,17.4,58.3,38.2,93.2,30.4,51,52.1,103.2,65.3,156.7,34,137.4,40.2,296.1,56.2,422.2,15.1,118.8,35.8,236.4,62,353,4.7,21,14.3,46.6,19.1,65.4.9,3.4.9,7,0,10.4l-35.7,131c-1.2,4.5-3.1,8.8-5.5,12.7l-52.3,83.7c-3.2,5.1-9.9,6.7-15.1,3.7l-3-1.7c-4.1-2.3-5.6-7.4-3.6-11.6,26.6-55,41.2-87.7,43.9-98.3,6.4-25.8,8-56.7,4.8-92.7,0-1-.9-1.7-1.9-1.7h-2.6c-.1,0-.2.2-.2.3h0c-3.2,52.9-5.5,82.4-7.1,88.7-3.1,12.2-8.8,21.5-17.2,27.7-24.7,18.6-45,41.1-69.2,61.1-2.4,2.1-6.1,1.8-8.2-.6-.2-.2-.3-.4-.4-.6l-1.8-2.5c-1.4-2-1.2-4.8.5-6.6l46.4-50c.6-.6,1.1-1.4,1.5-2.2l30.2-58.3c1.5-3,5.2-4.1,8.2-2.6,0,0,0,0,0,0,1.6.9,2.5,1.4,2.7,1.4,1.6.4,3.2-.6,3.6-2.2.2-1.1,0-2.1-.9-2.9l-4.4-4.3c-1.2-1.1-1.9-2.7-2-4.4-1.8-25.8.2-47.5,6-65.2,1.1-3.4.5-7-1.5-9.9-15.6-22.2-26.4-36-32.4-41.4-2.8-2.4-5-3.6-6.8-3.8s-3-.3-3.5-.5c-2.6-1-3.9-3.8-2.9-6.4,0-.2.1-.3.2-.5l19.6-38.9c.9-1.8.5-4-.9-5.4l-2.1-2.1c-1.4-1.4-3.6-1.4-4.9,0-.2.2-.4.5-.6.8-18.2,34-28.6,62-31.1,84-3.2,28.2-8.3,51-15.4,68.3-4.2,10.5-15.1,16.9-26.3,15.4h-.4c-9.5-1.3-16.2-10-15-19.5,0-.4.1-.8.2-1.2,11.5-58.8,15.4-97,11.6-114.6-6.6-30.6-10.2-50.1-11-58.7-3.4-40.1,10.4-65.4,29.6-96.8,3.2-5.2,5-11.2,5.1-17.3,1-58.1-31.4-133.7-57.4-181.6-33.3-61.4-68.7-130.2-106.2-206.3-34.3-69.5-58.4-156.9-62.2-238.4-2.8-60.2-3.7-89.8-30.8-133.6-55.4-89.2-94.5-187.5-117.4-294.7-5-23.5-10-46.8-15-69.7-.3-1.2-.5-2.4-.5-3.6l-5.2-82.7c-.1-1.6.3-3.2,1.2-4.6l44.4-65.3c.2-.4.1-.8-.2-1.1l-1.9-1.9c-.9-.9-2.5-.9-3.4,0-9.1,8.4-15.4,15.4-19,21.1-25.3,39.6-52.4,80.2-81.4,121.8-.7,1.3-.2,2.9,1,3.6.9.5,2.1.4,2.9-.2,17.5-16.9,32-36.6,43.2-59,.6-1.2,2-1.6,3.2-1,.8.4,1.2,1.2,1.3,2,3.1,55.2,6.5,84.3.4,129.3-8.2,61.5-23.9,118.7-46.9,171.8-17.1,39.2-27.9,68.7-32.6,88.3-14.3,60.2-23.9,118-28.9,173.4-4.6,50.3-1.2,105,.6,161,1.1,34.2-3.2,71.8-7.3,107.4-.3,3.4,0,6.8,1.1,10,90.9,280.1,159.1,574.6,158.8,861.4-.2,130-16.8,261.6-49.8,395-17.4,70.4-27.6,110.7-30.5,120.9-14.5,50.4-22.8,89.1-24.8,116.2-7.9,103.3,11.4,198,35.5,299.4,39.9,167.2,28.9,328.1-.5,496.1-27.6,157.5-43.4,248.4-47.3,272.6-12.9,80.1-19.3,141-19.2,182.5.1,29.1,11.1,60.9,33,95.4,47.3,74.6,101.3,143.9,166.1,183.5,34.6,21.2,59.7,36.4,75.1,45.6,13,7.8,18.2,19.6,15.7,35.5-.2,1.4-1.4,2.3-2.8,2.1-1-.1-1.8-.9-2.1-1.9-7.8-25.7-47.2-44.3-72.3-52.1-.8-.2-1.5.3-1.7,1s0,1,.4,1.3c14.6,11.7,36.2,16.8,48.9,30.4,4.7,5,11,12.2,19,21.7,1.1,1.3.9,3.3-.4,4.5,0,0-.1.1-.2.1-21,14.6-33.7,9.9-38.1-14-1.1-6-4.9-11.2-10.3-14l-64.3-33.1c-.3-.2-.7,0-.8.2h0c0,0-1.3,2.3-1.3,2.3-.4.7-.2,1.6.4,2.1,0,0,0,0,0,0,21.7,14.4,41,26.1,57.9,34.9,5.7,3,10.8,12,15.3,26.8.8,2.7-.3,5.6-2.6,7.1-18,10.9-34.3,12.2-48.9,4.1-2.4-1.4-3.9-3.9-4-6.7l-1.2-24.8c-.2-3.3-2.2-6.1-5.2-7.3-33-13.6-52.1-20-57.3-19.3-2.4.3-4.8-.7-6.2-2.6-3.7-5.2-7.2-7.7-10.5-7.4-2.1.2-3.6,2.1-3.4,4.1,0,.5.2,1,.5,1.5,6.1,10.8,13.4,16.5,21.8,17,13.5.9,29,5.2,46.6,13.1,3.1,1.4,5.2,4.5,5.3,8l1,19.6c.2,3.8-1.9,7.4-5.3,9.1-38.6,19.1-62.5,7.9-100.2-4.1-18.9-6-44-11.8-57.4-23.8-26.4-23.8-43.9-54.9-85.5-59.4-54.2-5.8-116.2-.9-103.3-79.5,7.5-45.4,10.1-85.2,7.7-119.2-.5-8.3,0-16.7,1.6-24.8,6.5-33.9,13.2-65.3,12.5-96.7-3.2-118.5-15.3-233.9-36.3-346-12-64.6-38.1-144-52.8-202.6-33.2-131.3-16.6-255.7,3.1-400.5,3.3-24.3,4.7-46,4.4-65-.2-9-1.7-18-4.4-26.6-17-53.1-28-102.7-33.1-148.8-4.9-44.4-12.4-116.5-22.4-216.5-5.6-55.2-18.7-125.8-39.5-211.7-28.2-116.8-48.6-211.1-57.4-303.6-9.7-102-15.8-157.9-18.3-167.5-.6-2.2.8-4.5,3-5.1,0,0,.2,0,.3,0l33.7-6.3c.7-.1,1.2-.8,1.1-1.5,0,0,0-.2,0-.3l-.9-2.4c-.6-1.4-2-2.1-3.4-1.8-33.1,7.8-66.1,6.7-98.9-3.3-1.2-.4-2.4.3-2.8,1.5,0,.3-.1.5-.1.8v2.9c.2.7.7,1.2,1.3,1.4l28.5,8c3,.8,5,3.7,4.7,6.8-8.3,80.5-16.3,150.6-23.9,210.5-5.7,44.4-17.9,108.8-36.6,193.1-21.5,96.5-33.9,160.9-37,193.1-11.1,112-20.3,208.4-27.9,289.4-6,64.9-20.1,126.5-42.3,184.9-1.2,3.1-1.7,6.3-1.5,9.5,1.6,26.3,8.8,90.2,21.6,191.7,14.1,112.4,2.5,222.7-31.7,331.7-41.7,133.4-65.3,268-77.5,420.4-5.3,65.4,0,110.1,12.9,166.5,1.5,6.5,1.9,13.2,1.3,19.9l-3.6,41c-.1,1.5,0,2.9.2,4.3,9.5,54,13.5,89.9,11.8,107.7-4.2,46-72.9,43.6-108.5,43.8-29,0-51.4,25.6-66.6,44-6.5,8-14.6,14.4-23.8,19-48,23.5-103.6,47.1-150.3,24.6-8.5-4.1-11.4-15.3-6.5-25.1.4-.8.8-1.5,1.3-2.2,6.4-10.1,21.4-14.7,34.4-15.3,18.4-.7,34.4-9.8,48-27.3,1-1.3.8-3.2-.5-4.2-.9-.8-2.2-.9-3.3-.3-6.9,3.6-13.1,9.4-18.6,17.4-1.8,2.5-4.3,4.4-7.3,5.1-6.5,1.6-13.2.1-20.1-4.4-2.3-1.5-5.2-1.5-7.5,0l-26,17.5c-3.5,2.4-6.3,5.6-8.2,9.5-1.5,3.1-3,8.6-4.6,16.5-3.9,19.6-33.2,13.6-46,8.2-5.8-2.5-8.7-8.9-6.4-14.3,0-.2.1-.3.2-.5,5.6-11.2,14.6-19.1,26.9-23.5,14.4-5.1,29.4-13.6,45-25.4,1.4-1,1.7-2.9.7-4.4l-1.6-2.4c-.7-1-2.2-1.3-3.2-.5,0,0-.2.1-.2.2-13.8,13.2-28.4,21.2-43.8,24.1-19.8,3.8-28.7,21.5-36.8,35.7-1.4,2.4-3.9,4-6.8,4-8.4-.1-15.7-3.9-21.8-11.3h0ZM809.7,987.2c15.8,7.5,36.8,13.3,62.8,17.5,72.3,11.6,130.6,18,174.7,19.1,33.5.9,50.3,8.7,71.3,30.2.9,1,2.5,1.1,3.5.2.9-.9,1.1-2.3.4-3.3-17.1-26.7-38.9-34-72.4-35.5-56.3-2.6-123.4-10.1-201.3-22.3-14.2-2.2-26.8-5.2-37.9-9-.7-.3-1.6,0-1.9.9-.3.9,0,1.8.9,2.2h0ZM1529.9,985s0-.1,0-.1c0,0-.1,0-.1,0h0c-41.9,6.2-78,11.7-108.5,16.5-51.7,8.1-103.9,13-156.6,14.7-23.6.8-44.5,13.3-62.9,37.4-1.2,1.6-1,3.9.6,5.1,0,0,0,0,0,0l.2.2c1.7,1.2,4.1.9,5.4-.7,16.7-20.7,34.2-31.5,52.4-32.3,91.8-4,181.7-15.8,269.8-35.2,1.1-.3,1.8-1.4,1.6-2.5,0-.3-.2-.5-.4-.8l-1.7-2.4h0ZM2173.9,3008.4c1.4-1.8,1.1-4.4-.7-5.8l-.4-.3c-1.8-1.4-4.4-1.1-5.8.7h0l-26.1,33.2c-1.4,1.8-1.1,4.4.7,5.8h0l.4.3c1.8,1.4,4.4,1.1,5.8-.7h0l26.1-33.2Z"/>
  <path class="st5" d="M1597.7,952.5c-59.7-26.1-125.2-62-196.7-107.8-36.4-23.3-56.5-53.9-60.3-91.8,17.1,41,36,67.7,56.8,80.1,66.1,39.4,132.8,79.3,200.2,119.5h0Z"/>
  <path class="st0" d="M809.7,987.2c-.8-.3-1.2-1.3-.9-2.2.3-.8,1.2-1.2,1.9-.9,11.1,3.7,23.7,6.7,37.9,9,77.9,12.2,145,19.7,201.3,22.3,33.6,1.6,55.3,8.9,72.4,35.5.8,1.2.5,2.7-.7,3.5-1,.7-2.4.6-3.2-.4-21.1-21.5-37.8-29.3-71.3-30.2-44.2-1.1-102.4-7.5-174.7-19.1-26-4.2-47-10.1-62.8-17.5h0Z"/>
  <path class="st0" d="M1529.9,985l1.7,2.4c.7.9.5,2.2-.4,2.9-.2.2-.5.3-.8.4-88.1,19.4-178.1,31.1-269.8,35.2-18.3.8-35.8,11.6-52.4,32.3-1.3,1.6-3.7,1.9-5.4.7l-.2-.2c-1.6-1.2-1.9-3.4-.8-5.1,0,0,0,0,0,0,18.4-24.1,39.3-36.5,62.9-37.4,52.7-1.6,104.9-6.5,156.6-14.7,30.5-4.8,66.6-10.3,108.5-16.5,0,0,0,0,.1,0,0,0,0,0,0,.1h0Z"/>
  <path class="st5" d="M1732.9,1730.2c26.4,70.3,59.3,136.9,98.7,199.7,3.2,5.1,6.8,18.2,10.8,39.2,2.1,10.9,3.2,24.3,3.6,40.3,2.2,100.1,28.4,199.6,78.5,298.6,46,90.9,84.4,153.4,120.1,237.2,12.5,29.4,21.5,59.5,26.8,90.3l-2.3,2.3c-1.6,1.6-4.2,1-5.9-1.4-.6-.9-1-1.9-1.2-3-9.6-60.2-39-122.6-70.8-179.9-43.2-77.9-75.5-141.2-96.8-189.9-21.3-48.8-35.6-93.6-42.7-134.3-3.9-22.4-7.2-39.3-10-50.6-8.2-33.9-6.9-73.5-9.3-108.1-.2-3-.7-5.9-1.6-8.8-5.4-17.8-8.8-27.9-10.2-30.3-26.7-49.4-49.2-91.3-67.5-125.8-13.2-24.8-20-50-20.3-75.6h0Z"/>
  <path class="st5" d="M632.9,3552.1c19,59.1,36.3,118.3,52.2,177.6,7,26,12.1,52.5,15.4,79.4l-1.8,11.8c-.2,1.3-1.5,2.2-2.9,2-.5,0-.9-.3-1.3-.6l-2.5-2.5c-.4-.4-.7-.9-.7-1.5-1.8-26.1-3.6-42-5.3-47.8-22.3-72.1-40.1-144.9-53.2-218.3h0Z"/>
  <path class="st5" d="M1334.3,4508.2c42.2,115,67.9,235.1,77,360.3-2.5-1.1-4.8-2.8-6.8-4.9-1.9-2-3.1-4.5-3.3-7.2-13.2-116.7-35.5-232.7-66.8-348.2h0Z"/>
  <g class="st4">
    <path class="st1" d="M-1626.4,1045c1.1,1.7,3.4,2.2,5.1,1.1,0,0,.1,0,.2-.1,16.8-11.8,32.4-18.2,46.8-19.2,56.9-3.9,110.1-12.5,159.6-26,1.4-.4,2.3-1.8,1.9-3.3v-.3c-.2-.4-.6-.7-1-.6-46.9,8.2-104.1,15.9-171.7,23.1-11.3,1.2-24.6,7.8-40,19.8-1.7,1.3-2.1,3.7-.9,5.4h0c0,0,0,0,0,0Z"/>
    <path class="st1" d="M-1724.2,1047.6c1.8,1.2,4.2.8,5.4-1,0,0,0,0,0,0h0c1.2-1.9.8-4.3-.9-5.7-16-12.5-29.8-19.4-41.6-20.6-70.1-7.4-129.5-15.3-178.2-23.9-.5,0-.9.2-1,.7h0s0,.3,0,.3c-.3,1.5.5,3,2,3.4,51.4,14,106.6,22.9,165.7,26.9,14.9,1.1,31.1,7.7,48.6,19.9h0Z"/>
    <path class="st1" d="M-1790.7,1632.4c1.2-.6,2.7,0,3.3,1.1l.2.3c.4.8.2,1.8-.4,2.5,9.3-3.3,22-7.3,37.2-10.8,45.2-10.3,81.2-8.5,104.1-7.2,0,0,45.3,2.6,80.1,13.9.1,0,.3,0,.3,0,0,0,.2,0,.3,0,.1.2.2.3.4.5-.5-.7-.6-1.7,0-2.4l2.4-3c.3-.4.8-.5,1.1-.3,30.5,15.2,62.9,26.6,97.2,34.3,72.2,16.2,161.8,1,193.9-71.9,33.2-75.3,18.1-161.7,2.1-243.6-.6-3.1-.7-6.4-.3-9.6.9-6.6,2.5-13,4.9-19.1h0c-.5-.1,0-4.3,0-4.4,1.8-15.9-4.6-166.6-4.6-166.6-1.6-37.6-1.5-92.4,6.9-164.2-7-1.2-15.5-2.6-25.5-4.3-31.7-5.3-79.3-20-142.9-44.2-61.3,52.4-147.8,85.1-243.7,85.1s-182.4-32.7-243.7-85.1c-2.7,1-5.3,2.1-8,3.1-51,19.1-97.4,32.1-139.2,39,0,0-.1,0-.2,0,5.5,189.9-2.4,288.8-14,342.6-.1-.4-.2-.8-.3-1.3,0,.3,0,.6-.1.8,3.1,11.5,2.7,24,.2,40.7-10.2,67.8-20.9,129.9.7,198.2,43.7,138.2,183.7,123.1,287.6,75.4h0ZM-1625.6,1039.5c15.4-12.1,28.7-18.7,40-19.8,67.5-7.1,124.8-14.8,171.7-23.1.4,0,.8.2,1,.6v.3c.4,1.5-.4,3-1.8,3.3-49.5,13.4-102.7,22.1-159.6,26-14.3,1.1-29.9,7.5-46.8,19.2,0,0-.1,0-.2.1-1.7,1.1-4,.6-5.1-1.1h0c-1.2-1.8-.8-4.2.9-5.5h0ZM-1940.5,997.4v-.3c0,0,0,0,0,0,0-.5.6-.8,1-.7,48.7,8.5,108.1,16.5,178.2,23.9,11.8,1.2,25.6,8.1,41.6,20.6,1.7,1.4,2.1,3.8.9,5.6h0c0,0,0,.2,0,.2-1.2,1.8-3.6,2.2-5.4,1-17.5-12.2-33.7-18.9-48.6-19.9-59.1-4-114.3-12.9-165.7-26.9-1.5-.4-2.4-1.9-2-3.4h0Z"/>
    <path class="st1" d="M-1258.5,1345.8h0"/>
  </g>
  <path class="st6" d="M-1676.5,2148c-.7-3,1.2-6,4.2-6.8,2.1-.5,4.3.2,5.7,1.9,1,1.2,1.6,2.8,1.8,4.8.3,3-1.8,5.7-4.8,6-1.9.2-3.8-.6-5-2.1-.8-.9-1.3-2.2-1.8-3.9h0Z"/>
  <path class="st1" d="M-1966.7,3855.8c-.4,30.1-5.2,82.4-14.5,157.2-16.3,131-20.1,243-.7,350.9,33,183.1,95.1,391.4,140.4,563.3,7.5,28.4,12.4,51,14.5,67.7,4.6,4.2,24.4,21.5,55.1,21.9,31.8.4,52.5-17.8,56.9-21.9-.7-4.2-2.2-10.7-3-18.6-15.5-153-8.7-326,6.5-495,8.3-92.8,7.8-174-1.4-243.8-8-61-15.4-121.4-16-179.9-.3-37.4,1.1-64,4.5-79.7,18.1-85.6,26.4-153.7,24.9-204.3-.5-17.9-2.1-45.2-4.6-82.1-23.7,12.4-72.2,33.9-137.2,34.4-67.5.5-117.9-21.9-141.7-34.4,7.5,38.1,17.1,95,16.2,164.2h0Z"/>
  <path class="st1" d="M-1365,3692c-25.4,12.6-73.9,32.6-138,33.6-69.3,1-121.8-20.7-147.6-33.6-.5,4.5-1.1,11.7-1.9,20.7-7.7,84.2,4,152,20.5,238.1,20.5,106.8,9.5,168.3-5.3,301.3-9.8,88.7-4.5,178.9,8.2,295.1,10.1,92.9,14.7,183.1,14,270.7-.6,65-2.6,122.4-16.3,177.6,5.1,4.5,27.4,23.1,61.1,22.6,31.9-.5,52.9-17.8,58.3-22.6,1.3-10.3,3.7-27,7.7-47.4,3.2-16.1,6.9-32.5,11.3-49.3,34.6-132.6,67.5-264.2,98.8-394.6,26.6-110.7,40.1-217.3,40.7-319.9.2-36.3-4.3-91.9-13.4-166.7-15-122.4-22.7-220.4-.3-315.8.8-3.2,1.5-6.4,2.3-9.7h0Z"/>
  <path class="st1" d="M-1692.9,2902.3c0-11.4-.3-34.7-1-58.9,0-2.4-.6-8.8-1.7-21.7-.7-8.1-1.4-15.7-5.1-24.6-.6-1.6-1.2-2.8-1.7-3.7-13.5-19.6-23.5-32.4-34.7-55.5-84.4-174.3-192.2-332.7-323.5-475.1-7.3-7.9-15.4-15.4-24.2-22.4-.2-.1-.4-.3-.6-.3h0s-1.5,0-3,1.4c-9.2,8.5-28.4,83-28.4,83-1.3,5.2-2.9,10.9-6.1,22.3-4.4,15.9-8.1,28.6-10.4,36.5,46.1,65.9,96.9,133.9,152.8,203.1,97,120.1,194.4,224.9,287.3,315.9h0Z"/>
  <path class="st1" d="M-1206,2372.9c-6.1-20.7-13.9-45.9-23.7-74.1-24.7-70.7-22-45.9-24.8-52.8,0-.2-.4-.8-.9-1.4-2.1-2.4-5.6-2.6-8-.6-20.8,18.1-43.9,42.4-69.5,72.8-81.8,97.4-149.8,189.9-221.8,319.4-25,44.9-33.6,61.6-33.6,61.6-10.7,20.6-17.4,34.6-26,48.9-3.2,5.3-7.8,12.7-13.2,23.3-2.9,5.8-3.4,7.2-5.8,11.3-3.6,5.9-5.9,8.2-7.9,13.7-.3.8-.8,2.2-2,8.1-1.7,8.3-2.7,14.8-3.3,18.9-1.3,9.1-2,13.6-2.7,18.8-2.9,23.3-5.4,56.2-5.7,60.4,87.1-81.2,180.4-177.9,273.7-291.8,67-81.8,125.1-161.5,175.2-236.8h0Z"/>
  <path class="st3" d="M-1701.6,3169.4c2.7-25.2,3.5-35.1,5.3-59.9,6.3-86.9,5.4-158.4,3.4-207.2-27-26.2-62.3-61.3-102.5-103.8-20.7-21.9-90.7-96.5-176.2-201.7-48.2-59.3-103.2-130.6-161.5-213.4-7.8,31.3-17.7,75.2-25.8,128.4-7.4,48.2-27.2,171.3-10.4,351.8,12.9,138.1,37.4,275.6,73.5,412.7,38.2,145.2,68.7,255.2,91.2,329.9,8.7,28.9,15.9,57.4,21.6,85.4,23.9,12.4,73.3,33.9,139.3,34,66.2,0,115.7-21.6,139.6-34-.7-11-1.9-27.5-3.3-47.6-3.1-41.2-5.6-70.9-6.1-76.5-9.9-118.2,7.8-360.6,11.8-398h0Z"/>
  <path class="st3" d="M-1219.1,3152.2c19.7-85,43.5-201.1,51.1-338.9,5.8-104.8,3.4-256.7-38.1-440.4-66.7,101-148.7,211.2-248.8,324.1-68.1,76.8-135.6,144.7-200.1,204.4-2.6,29.6-5.4,74.6-4.4,129.6.9,49.5,4.5,86,6.3,105.2,2,21.3,17.5,173,20,263.1,2.8,100.3-5.9,168.7-17.5,292.6,25.4,12.6,74.7,32.9,139.7,33.5,68.4.6,120.2-20.8,145.8-33.5,16.3-56.2,37.7-144.9,71.2-251.9,20.2-64.6,45.1-160.5,74.6-287.8Z"/>
  <path class="st2" d="M-1668.6,2338.3c-150,0-290.7-40-412.2-110.1.3,1.2,1,2.3,1.9,3.2,37.2,35.3,72,73.3,104.6,113.9,100.6,125.6,185.4,260.7,254.3,405.4,1.2,2.5,8.7,12.9,22.5,31.3,1.5,2,3.8,3.3,6.4,3.5l35.3,2.5c3.2.2,6.2-1.3,7.9-4,17.6-28.4,27.1-43.8,28.3-46.4,69.6-141.6,153.6-273.3,251.9-395,31.4-38.9,62.1-69,102.1-108.4.5-.5.9-1.1,1.3-1.6-119.7,67.3-257.6,105.6-404.4,105.6h0Z"/>
  <path class="st3" d="M-1264.3,2223.5c-48.4-93-75.2-144.7-80.4-155.2-24.4-48.7-30.3-101.8-17.5-159.5,34.6-157.1,55.2-243.5,61.8-259.4.2-.6.3-1.2,0-1.8-.4-1.3-1.8-2.1-3.1-1.7-.6.2-7.7,4.1-21.4,11.8-72,40.7-170.6,14.1-240-24.7,0,0-.2-.1-.3-.2-.2-.2-.3-.3-.4-.5,0,0-.2,0-.3,0,0,0-.1,0-.3,0-34.8-11.3-80.1-13.9-80.1-13.9-22.9-1.3-58.9-3.1-104.1,7.2-16.2,3.7-29.5,8-39,11.5-81.4,46.1-189.8,62.6-261.2-12.1-.8-.8-1.9-1.2-3-.8-1.5.5-2.4,2.1-1.9,3.6,29.7,98.8,53.2,196.9,70.7,294.4,9.4,52.3,1.4,102.5-24,150.7-30.2,57.3-54.2,107.5-72.2,150.5-.7,1.6-.7,3.4-.2,5,106,61.1,226.7,99.4,355.4,108.1v-13c-.2-1.8-.3-3.6-.3-5.4v-360.3c0-25.7,19.7-47,44.7-49.5,1.8-.2,3.6-.3,5.4-.3h0c27.4,0,49.8,22.4,49.8,49.8v379.6c130.8-6.7,253.6-43.8,361.6-104.5,1.7-2.8,1.9-6.3.4-9.2h0Z"/>
  <path class="st1" d="M-2262,2070.6c9.9-40.9,13.7-89,17.4-130.8.9-10.4,4.8-36.8,16.8-69.2,4.7-12.7,9.4-22.9,12.8-29.8-18.1.6-47-.7-80.2-12.4-31.2-11-53.7-26.8-67.3-38.1-6,27.7-14.4,50.1-22.3,67.3-13.2,28.7-20.8,33.9-40.6,72.7-7.9,15.6-18.3,36.1-28.2,64.3-3.6,10.4-8.7,29.3-18.8,67.3-2.4,9-8.6,32.4-14.8,60.4-5.7,25.4-6.5,32.7-6.9,36.6-.4,3.7-1,11.4-2.8,22.1-1.2,7.8-2.5,13.5-2.7,14.5-2.2,10.7-21.2,116.1-71.1,396.4,5.4,3.3,13.6,7.6,24.2,10.5,9.7,2.6,17.4,3,24.2,3.3,8.6.4,20.8,0,35.4-2.8,8.3-45.6,26.4-88.6,47.5-132.7,56-118.1,142.3-255.6,177.4-399.7h0Z"/>
  <path class="st1" d="M-939,1880.1c-16-30.6-19.4-37.7-22.4-44.5-4.7-10.7-10.8-26-16.3-45.5-10.8,14-31.5,37.1-64.7,55.1-30.8,16.7-59.3,21.8-76.5,23.6,16.2,42.9,16.8,60.8,16.8,60.8,0,.9,0,1.4,0,2,0,1.4,0,2.4,0,2.6-.1,2.2,0,14.3,0,18.4.9,33.9,7,68.6,7,68.6,2.8,15.7,6.3,29.9,13.5,58.2,3.8,15.1,7.4,28.6,9.2,34.9,14.5,50.4,31.6,88.2,39.3,105.2,23,50,47.4,97.5,79.6,158.5,48.4,91.8,61.5,126.8,81.9,182.7,7.4,20.2,11.2,39.4,11.5,57.7,19.8,6.9,35,6.9,43.9,6.1,5.3-.5,10.5-1.4,12.8-1.8,13.3-2.4,24-6,31.4-8.8-50.6-288.4-71.8-419.3-80.4-479.6-1.2-8.3-4.7-33.2-12.4-65.8-4.2-17.6-21.7-90.1-53.7-149.9-1-1.9-9.3-17.3-20.3-38.3h0Z"/>
  <path class="st3" d="M-2155,998.7c-27.2,13.7-44.4,30.6-50.9,37.2-25.1,25.6-36.2,51.1-38.8,57.3-2.9,7-5.3,13.9-9.9,31.8-10.3,40.8-15.6,74.5-17.8,90.2-4.4,30.7-8.5,58.7-9.3,96.6-.5,25,.8,35.4-.7,64.1-.9,18.8-2.6,37.3-3.5,54.2,0,1.1-.2,4-.6,7.9-.5,5.2-1.6,11.9-3.6,19.7-2.2,8.2-4.6,14.1-5.2,15.5-15.5,38.4-38.6,154.4-38.6,154.4-8.8,44.2-18.9,99.1-28.7,162.8,13.6,11,34.2,25.1,61.9,35.6,35.1,13.4,66.2,15.2,85.6,14.8,6.1-12.8,14-29.6,22.8-49.5,4.3-9.7,19.2-43.7,38.8-94.6,0,0,18.6-46.6,39.8-115.3,1.2-4,5.3-22,12.2-53.9,1.5-6.8,2.1-13.8,1.8-20.9-1.4-33.3-.4-62.8,3-88.4,6.6-49.7,10-77.1,10.3-82.1.8-6.8-.3-13.8-3.2-20l-11.2-24.6c-.7-1.3-.3-2.9.9-3.8,1.3-1,3.3-.8,4.3.5,8.9,10.6,14.3,20,16.9,30.2,11.6-53.8,19.5-152.8,14-342.7-44.8,7.5-74.9,15.1-90.2,22.9h0Z"/>
  <path class="st3" d="M-985.8,1749.4c-4.9-28.6-5.2-39.4-8.7-62.1-1.7-10.7-6.2-30.6-15.2-70.3-8.1-35.6-13.6-57.8-18.7-77.3-3.6-13.9-5.5-21-8.6-31.4-6.7-22.4-9.8-28.6-13.6-43.3-1-3.9-4.4-17.7-6.9-40.4-.2-1.6-2.4-53.8-6.8-156.7-5.3-125.1-29.1-252.1-173.2-282-.6-.1-8.6-1.5-24.2-4.1-8.5,72-8.6,127-7,164.6,0,0,6.4,150.7,4.6,166.6,0,.1-.5,4.3,0,4.4.3,0,1-2.4,2.7-6,.5-1,1.4-2.6,3.2-5.9,1.8-3.1,2.7-4.7,3.5-6,1-1.5,1.8-2.6,3.3-4.4,1.9-2.4,1.8-2.1,3.8-4.6.6-.8,1.4-1.4,2.1-2.2.2-.2.4-.6.9-.7.7-.3,1.4,0,1.9.2.7.6,1.4,1.2,2.1,1.7.3.2.8.5,1.2,1.1.9,1.5,0,3.3-.1,3.5-.3.6-2.2,2.8-3,3.8-1,1.3-3.6,4.9-4.1,5.7-.4.7-.8,1.2-1.2,1.9-1.1,1.9-2.2,3.8-3.2,5.7-4.1,7.9-6.2,15.9-6.2,15.9-1.1,4.2-1.5,7.1-1.6,7.8-.5,4.1-.3,6.8-.2,7.6.2,2.4.6,4.1.6,4.5,2.2,10.5,19.8,152.9,17.7,167.6,0,0-.6,7.7.8,12.1.2.8.5,1.3.7,2,.2.7.2,1.2.2,1.3,4.9,35.9,31,116.3,31,116.3,38.4,118,76.3,196.5,84.5,213.3,1.9,3.9,3.4,7,4.4,9,16.9-1.6,44.3-6.4,74.1-22,8.8-4.6,35.7-19.5,60.4-48.4,2.8-3.3,5.1-6.2,6.7-8.2-2.1-9.3-5.1-23.4-8.1-40.7h0Z"/>
  <path class="st1" d="M-1436.4,930.2c-97.4-37.3-123.7-119.9-114.1-214.5,0-.9-.3-1.8-.9-2.4-1.2-1.2-3.2-1.2-4.3,0-21.6,23.2-45.8,41.2-72.8,53.9-58.3,27.5-117.3-5.7-158.8-48.8-.5-.5-1.2-.8-1.9-.7-1.3.1-2.3,1.3-2.2,2.7,2.8,27.8,1.5,56.8-3.6,87-11.8,69.5-61.9,101.9-123,125.7,61.3,52.8,148.2,85.8,244.5,85.8s183.3-33,244.6-85.9c-2.4-.9-4.9-1.9-7.4-2.8h0Z"/>
  <ellipse class="st1" cx="-2082.1" cy="1300.1" rx="134.3" ry="143.5"/>
  <ellipse class="st1" cx="-1244.3" cy="1296" rx="134.3" ry="143.5"/>
  <path class="st3" d="M-1768.9,5017.1h0c-7.9-.1-20.5-1.3-34.5-7.3-10.3-4.4-18-9.9-23.2-14.3.3,2.8.6,6.4.9,10.7,0,0,.1,2,.2,4,.5,19.4-11.9,47.6-12.4,68.2-1,50.3-5.2,80.9-26,130.4-14.2,34-48.5,62.5-73.9,86-5.5,5.1-10,11.4-13.4,18.8-1.8,3.9-1.3,8.4,1,11.8l4.2,6.3c.8,1.2,2,1.9,3.4,2,2.4.1,4.5-1.7,4.6-4.1,1.7-19.6,13.4-32.6,35.1-38.9.3,0,.7,0,.9.4l1.4,2c0,0,0,.1,0,.2.4.9,0,1.9-.8,2.3-16.5,7.4-25.6,18.6-27.1,33.7-.6,5.8,3.4,11.1,9.1,12.1l8.7,1.5s0,0,0,0c4.3.7,8.3-2.1,9-6.3l2.9-16.3c.7-3.8,3.1-7.1,6.6-8.8,9.2-4.7,16.8-10.9,22.7-18.5.9-1.1,2.3-1.5,3.6-1.1,1.8.5,2.7,2.4,2.2,4.2-5.9,19.2-33,15.3-26.6,44.6.8,3.9,4.4,6.6,8.3,6.4l22-1h0c2.7-.1,4.8-2.5,4.6-5.2l-.9-17.5c-.2-3.6,1.6-7.1,4.6-9.1l25.1-16.8c.8-.5,1.8-.8,2.7-.6,2,.4,3.3,2.3,3,4.3l-.9,4.7c-.2,1.2-1.1,2.3-2.3,2.7-13.1,4.7-20.7,12-22.7,21.7-5.6,26.2,31.3,25.8,44.5,15.2,3.5-2.8,5.5-7.1,5.3-11.6-.6-12.7,8-25.2,25.8-37.6.2-.1.4-.2.6-.3,1.9-.9,4.1,0,4.9,1.8,1.6,3.6,4.5,6.8,8.6,9.7.6.4,1,1.2.8,2-.2,1-1.2,1.8-2.2,1.6,0,0-.8-.5-2.4-1.6-3-2.1-7-2-10,.2-10.2,7.2-16.1,16.4-17.7,27.4-.4,3,.7,5.9,2.9,7.8,10.1,8.7,22,12.4,33.4,11.5,21-1.6,33.4-19.3,35.3-22,4-5.8,6.6-11.9,10.6-48.1,3.5-31.5,4.6-55.1,4.8-59.6.9-19.9,1.2-33.1,1.4-46.2,1.8-81.7,5.3-85.5,2.9-111.2-1.7-17.7-6-43.4-18.2-74.3-5.1,4.5-12.9,10.5-23.7,15.1-12.2,5.3-23.1,6.7-30.3,7.1h0Z"/>
  <path class="st3" d="M-1434.4,5273.9c-44.7-34-73.9-130.1-71.8-188.5,1.2-32.1-6.3-55.8-6.4-62.5-.1-11.5.3-21,.8-27.6-5.4,4.8-14.4,11.5-27,16.4-13.5,5.2-25.4,6-32.8,6-7.3.1-19.3-.6-33-6-12.5-4.9-21.3-11.7-26.6-16.4-2.9,8.5-6.6,19.9-10.1,33.6-3.2,12.5-15.9,41.1-12.5,80.2,4.1,47.8,5.7,85.1,4.7,111.9-1.3,37.9,7.4,77.5,17.7,106.4,9.8,27.3,30.6,34.5,62.4,21.5,6.6-2.7,9.4-7.2,8.7-13.5-1.8-14-9.7-24.1-23.9-30.4-.3-.1-.6-.3-.9-.5-1.9-1.4-2.2-4-.9-5.9,5.1-7,7.8-10.5,8.2-10.6.4-.1.8-.2,1.2-.3,2.4-.2,4.4,1.6,4.6,3.9.6,8.1,5.7,15.5,15.3,22.1,2.1,1.4,3.4,3.7,3.5,6.2l.9,19.1c.3,5.8,4.5,10.5,10.2,11.5,12.4,2.2,23.3.8,32.4-4.4,2.7-1.5,4.4-4.4,4.3-7.5-.4-14.2-8.3-25-23.6-32.3-1.4-.7-2.1-2.2-1.7-3.6l.7-2.6c0-.2.2-.5.3-.7.9-1.5,2.9-2.1,4.4-1.2,19.8,11.6,30,25.8,30.8,42.5.2,3.8,3,7,6.8,7.6,9.5,1.6,18.2-.4,26.1-5.8,5.2-3.6,6.6-10.7,3.1-15.9l-20.1-29.6c-.2-.4-.2-.8,0-1.1.3-.7,1.1-1,1.7-.7,18.6,9.9,28.7,24,30.2,42.3,0,.2,0,.4,0,.5.5,2.5,2.9,4.2,5.4,3.7l22.4-4.1c.8-.1,1.6-.5,2.3-.9,2.7-1.9,3.4-5.6,1.6-8.3l-25.9-38.3c-.5-.7-.5-1.6,0-2.4.7-1,2-1.3,3-.6,18.1,12,27.6,25.2,28.5,39.7,0,.9.5,1.8,1.2,2.4,1.5,1.2,3.6,1,4.8-.5,17.4-21.5-13.2-41.3-31.1-55h0Z"/>
  <path class="st1" d="M-2489.8,2644.8c-1.2-6.4-1.4-11.5-1.2-14.9.1-3.4.5-5.5,1.7-14.7.7-5.4,1.3-9.7,1.6-12.4-5.4,1.1-11.4,2-17.9,2.5-14.2,1.1-26.6,0-36.5-1.8-4.1-1.2-8.6-2.6-13.2-4.5-5.7-2.2-10.8-4.7-15.3-7.1-1.2,5.6-4.1,19.4-5.3,24.8-.8,3.6-4.2,19.7-5.1,24l-1.9,9c-5.2,24.6-45.3,146-59.2,184.8-3.7,10.5-1.9,22,5.6,34.6,2.1,3.6,3.3,7.6,3.5,11.7,3.3,66.7,28.3,125.5,74.9,176.4,1.8,1.9,4.3,2.3,7.6,1.3.1,0,.2,0,.3-.1,3.7-1.3,5.6-5.2,4.4-8.8-8.8-25.4-21.1-52.5-36.8-81.3-6.2-11.2-20.2-58.9-5.9-73.4,1.9-1.9,3.2-4.5,3.5-7.2,4.9-44,10.1-51.8,32.9-83.7,1.7-2.4,2.1-5.5,1-8.3-4-9.9-5.7-19.5-5.3-28.9,0-2,1.5-3.7,3.4-4.3,2.5-.7,5,.8,5.7,3.2,11.1,39.9,6.8,90.4,10.8,129.8.9,9.4,8.6,16.6,18.1,17.1h.8c.6.1,1.1.1,1.7,0,8.2-.5,14.4-7.6,13.9-15.9-4.1-59.9,3.1-117,21.8-171.3,4.4-12.6,4.9-26.3,1.5-39.2l-11-41.6h0Z"/>
  <path class="st1" d="M-830.1,2983.8c17.7-20.2,34.2-34.7,36.8-32.4s-9.7,20.4-27.4,40.6c-17.7,20.2-34.2,34.7-36.8,32.4s9.7-20.4,27.4-40.6Z"/>
  <path class="st1" d="M-772.1,2613.8c-.9.4-2.4,1.1-4.3,1.8-2.4.9-4.3,1.3-5,1.4-7.5,1.7-17.3,4.6-25.6,6.1-3.1.6-5.6.9-6.1.9-1,.1-2.1.2-3.2.3-6.4.5-11.2.2-14.1,0-13.1-1-26-4.9-30.4-6.3.1,2.7.1,5.9-.1,9.6,0,1.6-.3,4.9-1,9.1-.5,3.3-.7,3.3-2.2,10.3-1.6,7.3-1.7,9-3,12.4-1.1,2.8-2.1,4.7-2.5,5.5-4.1,8.1-5.6,19.8-6.3,25.1-1.3,10.2-3.3,26,.9,45.2,2.2,10.1,5.6,18.5,10.1,36.7.7,3,1.2,5.1,2.1,9.4,2.7,12.2,3.1,15.7,3.2,18.5.2,4.2,0,7.4-.2,9.8-1.8,23.1-.7,46.4-2.1,69.6,0,0-1.1,15.9,6.1,23.3.1.1.3.3.4.4,5.2,4.8,13.7,4.1,19.2-1.6,8-8.4,11.9-18.8,11.8-31.1-.5-41.6,4.9-80.4,16.4-116.1.2-.7.7-1.3,1.3-1.7,1.5-1,3.5-.6,4.5.9,5.1,7.8,3,21.1-6.3,40-3.1,6.2-1.1,13.8,4.6,17.8,20.7,14.3,30.1,35.6,28.3,63.8-1.8,28.6-5.4,50.7-10.8,66.3-1,3-1.1,6.3-.4,9.4,0,0,.3.8.8,2.2,1.1,3.2.7,6.8-1,9.8-16.2,28.5-38.4,52-66.8,70.5-1.7,1.1-2.6,3.2-2.2,5.2l.4,2.6c0,.4.2.9.4,1.3,1.2,2.4,4.1,3.3,6.5,2.1,28.7-14.1,50.6-36.8,65.7-67.8,1.3-2.6,2.1-5.4,2.5-8.3,2.4-19.1,9.2-39.1,20.5-60.1,1.6-2.9,2.2-6.2,1.7-9.5-1.3-8-1.9-13.9-1.8-17.8,0-1.4,1-2.5,2.3-2.6,1.4,0,2.5,1,2.6,2.3,4.8,27.4.1,50.9-14.2,70.7-1.9,2.6-3.1,5.6-3.4,8.9-3.5,34.1-26.3,67.2-34.7,86-.2.4-.3.8-.4,1.3-.7,3.5,1.5,6.9,5.1,7.7h.3c4.9,1.1,9.9-.9,12.8-4.9,31.5-43.9,65.3-98.4,72-151,2.1-16,5-33.1,8.9-51.5.9-4.2.6-8.6-.9-12.6-19.4-52.3-62.4-219.4-62.7-221.3h0Z"/>
  <path class="st1" d="M-1676.3,1907.1c-27.4,0-49.8,22.4-49.8,49.8,0,126.4,0,252.8,0,379.2,6.1.4,14.2,1,23.8,1.4,8.8.4,23,1,41.4.9,9.3,0,20.9-.3,34.4-1.1v-380.4c0-27.4-22.4-49.8-49.8-49.8h0Z"/>
</svg>