<?xml version="1.0" encoding="UTF-8"?>
<svg id="_Слой_1" xmlns="http://www.w3.org/2000/svg" version="1.1" viewBox="0 0 2300 5500">
  <!-- Generator: Adobe Illustrator 29.1.0, SVG Export Plug-In . SVG Version: 2.1.0 Build 142)  -->
  <defs>
    <style>
      .st0 {
        fill: #9bc8ec;
        stroke: #9bc8ec;
        stroke-miterlimit: 10;
      }
    </style>
  </defs>
  <path class="st0" d="M430.3,5402.8c-1.2,3-3.9,9.9-1.1,16.6,1.6,3.8,5,7.7,15.9,12.1,15.1,6.2,22.4,4.6,38.6,8.3,19.6,4.5,16.4,8.6,28.8,9.8,21.1,2.1,27.6-10.1,43.5-5,10.1,3.2,9.8,8.7,21.6,12.6,10.7,3.5,20.2,1.9,28.2.3,31.5-6.2,58.9-16.6,70.4-20.9,43.8-16.2,47.2-18.2,52.2-22.6,16.2-14.6,15.8-26.7,33.9-39.1,13.5-9.2,27.5-11.5,36.5-13,21.9-3.8,26.4,1.8,49.2-2.4,7.1-1.3,19.5-3.7,33.4-11.5,8-4.5,21.4-12,28.7-25.2,5.1-9.3,5.4-18.1.9-50.4-7.5-53.3-12.5-59.8-11.3-84.2,1.1-22.7,5.7-21.1,5-40.4-.8-23.4-7.9-32.9-12.7-61.5-.7-4.2-1.2-7.5-1.4-9.1-2-15.4-2.2-28.1-2-36.6-4.5,5.1-34.9,38.7-84.8,38.5-45-.2-73.6-27.9-79-33.4-1.1,15.3-4,37.3-13,62.3-7.8,21.8-16.1,36.5-34.8,63.5-32.6,47.1-56.2,78.6-85.4,106.4-13.2,12.6-24.6,21.4-33.3,28.3-33.9,26.9-50.2,34.4-83.1,59.3-10.7,8.1-26.5,20.6-45,37.3h0Z"/>
  <path class="st0" d="M1758,5309.4c-47.1-36-74.7-71.2-118.7-134.7-27.4-39.5-32.7-57.4-34.8-63.5-8.3-23.7-10.9-44.7-11.8-59.1-6.4,4.6-15.6,10.4-27.4,15.4-2.1.9-23.2,9.6-46.4,10.7-45.9,2.2-83.2-26.4-91.1-32.7,0,9.5-.3,23.7-1.4,40.9-2.4,37.9-6.3,50.1-13.2,104-10,77.8-2,53.4-7.8,85.2-3.3,18.2-7.4,34.3.9,50.4,7.5,14.5,20.9,21.3,28.7,25.2,25.7,13,39.2,3.9,82.6,13.9,17.6,4.1,26.6,6.2,36.5,13,18.1,12.4,17.7,24.5,33.9,39.1,4.9,4.4,8.3,6.4,52.2,22.6,54.3,20.1,60.6,21.5,70.4,20.9,20.3-1.2,19.1-8.6,45.2-10.4,20.8-1.4,29,2.8,46.9-2.6,14.6-4.4,13.1-8.4,26.1-11.3,21.3-4.8,31,4.7,42.6-1.7,12.3-6.8,14.7-27.5,14.8-28.7,3.9-46.8-119.8-93.5-128.2-96.6h0Z"/>
</svg>