<?xml version="1.0" encoding="UTF-8"?><svg id="_Слой_1" xmlns="http://www.w3.org/2000/svg" viewBox="0 0 2300 5500"><defs><style>.cls-1{fill:#9baa97;}</style></defs><path class="cls-1" d="M1197.08,2480.99c.13,0,.26-.01.39-.02h-.39s0,.02,0,.02Z"/><path class="cls-1" d="M1682.04,1473.9c-1.39-4.69-3.08-6-4.42-6.27-5.1-1.04-12.85,11.35-16.69,20.63-3.21,7.76-2.75,11.1-7.2,17-.71.94-3.07,3.5-7.77,8.64-2.62,2.86-4.88,5.33-8.05,8.2-1.29,1.17-2.93,2.58-3.72,3.27,0,0-3.14,2.72-6.2,5.23-90.15,74.16-180.93,65.6-438.88,65.51-4.78,0-9.61,0-14.5,0-283.61.27-381.89,11.88-472.54-68.24-22.37-19.77-38.21-39.76-48.8-55.03-1.11,5.1-2.14,10.1-3.09,15.01v161.15c2.48,9.34,5.31,17.74,8.29,25.28,4,10.2,10,22.9,20.1,49.6,5.9,15.6,16,43.3,40.2,127.2,27.2,94.6,30.4,115.3,32.1,135.3,1.3,14.7,1.9,31.1,2.7,50.9,1.9,48.6.9,71,0,84.4-1,14.8-1.3,11.5-2.7,29.5-2.6,33.7-4.7,62.5-1.3,96.4,3.4,34,8.8,36.5,5.3,53.5-2.7,13.3-9.8,35.5-13.1,45.6-2.1,6.3-3.9,11.6-5.2,15.2.09.06.19.13.28.19-.02-.06-.04-.12-.06-.18,37.08,25.52,92.81,58.56,165.89,83.79,67.61,22.82,128.27,31.03,174.2,33.67v.6l15.46.03v-14.6c-.2-2-.3-4.1-.3-6.1v-405.9c0-29,21.2-52.9,48.1-55.8,1.9-.2,3.9-.3,5.8-.3,29.5,0,53.5,25.2,53.5,56.1v427.56l4.38.04v-.35c4.5-.24,9.04-.51,13.67-.84,94.96-8.01,163.97-29.88,189.79-38.6,52.42-17.7,96.79-38.94,132.69-59.11.56-.31,1.11-.63,1.67-.94.77-.44,1.54-.87,2.31-1.31,15.51-8.88,29.69-17.7,42.51-26.15h-.1c-10.1-21.3-13.3-39-14.4-50.7-3.8-39.6,6.8-106.3,6.7-116.9,0-8.3-.3-7.7-1-25.9-1.7-45.9-1.5-84-1-112.1,1.1-41.9,6-104.8,25.9-178.2,21.8-80.5,44.8-111.6,63.4-176.9,14.22-49.86,26.8-122.64,16.06-219.09Z"/><path class="cls-1" d="M649.45,1523.36v-10.26c-.2,2.42-.42,4.83-.65,7.2.26,1.06.46,2.07.65,3.06Z"/></svg>