<?xml version="1.0" encoding="UTF-8"?>
<svg id="_Слой_1" xmlns="http://www.w3.org/2000/svg" version="1.1" viewBox="0 0 2300 5500">
  <!-- Generator: Adobe Illustrator 29.1.0, SVG Export Plug-In . SVG Version: 2.1.0 Build 142)  -->
  <defs>
    <style>
      .st0, .st1 {
        fill: #9bc8ec;
        stroke: #9bc8ec;
        stroke-miterlimit: 10;
      }

      .st1 {
        stroke-width: 4px;
      }
    </style>
  </defs>
  <path class="st1" d="M692.1,4003.3c-8.6,45.5-13.2,66.7-24.3,122.5-9.2,46.6-13.9,70.2-15.8,83.7-4.6,33.2-6.2,59.3-8.5,99.4-2.6,44.7-3.9,67.1-3.6,87.3.6,48.5,7.3,93.1,20.8,182.4,2.2,14.4,3.3,21.8,5.1,32.9,9.9,59.9,15.3,71.9,20.1,110.5,3.5,27.4.8,21.5,4.9,58.7,3.1,28.3,5.8,41.2,12.1,82.5,5.9,38.4,10,67.8,12.1,83.7,3.9,28.5,8.3,63.2,12.9,102.8,7.7,7,31.4,26.9,67.3,29.7,51.5,4,85.9-30.4,90.9-35.5-.4-27.4.3-61.6,3.6-100.7,3.3-38.6,8.3-68.6,18.2-128.5,4.2-25.1,10.1-59.4,18.2-100.7,9.5-48.6,14.3-72.9,20.6-97,16.7-63.5,25.2-67.5,37.8-120.5,10.2-42.7,13.2-75.7,16-106.1,2.6-28.9,5.6-76.7,2.3-135.7-1.6-28.9-4.2-66.5-13.7-115.2-7-36.1-13.2-53.9-12.1-86.5.7-18.8,4.1-34.8,10.9-66.7,7.8-36.7,12.7-50,21.7-92,4.2-19.8,7.2-35.9,8.9-45.8-32.5,14-93.6,35.2-172.1,31.4-61.4-3-109.5-20.1-139.3-33.4.7,27.7-.2,59.2-4.3,93.7-2.7,22.8-6.5,43.9-10.7,63.1h0Z"/>
  <polygon class="st0" points="1622.1 3851.5 1622.1 3851.5 1622.1 3851.5 1622.1 3851.5 1622.1 3851.5 1622.1 3851.5"/>
  <path class="st1" d="M1678.9,4219.7c-10.6-59-8.5-59.6-16-100.4-12.4-67.5-20.3-77.5-29.7-125.5-6.5-33.3-13-81.4-11.1-142.3-33.4,11.8-82.5,25-142.8,26.5h0c-73.8,2-133-14.1-169.6-27.3,1.2,9.6,3.2,24.1,6.4,41.7,7.4,39.3,15.5,63.1,20.5,82.1,8.3,31.5,14.9,66.6,10.7,109.7-1.9,19.6-4.3,20.1-10.7,53.3-9.9,51.5-12.4,92.1-13.7,115.2-3.3,59-.4,106.8,2.3,135.7,1.2,12.7,5.1,53.1,16,106.1,9.3,45.2,11.4,40.6,35.4,134.6,19.8,78,24.7,106.1,27.4,125.5.9,6.5,3.1,23.3,6.8,47.9,4.8,32,8.8,54.9,9.5,59.2,4.4,26.1,8.7,76.5,7.6,183.8,7.1,6,47.1,38.8,102.6,31.9,34-4.2,57.3-21.3,67.3-29.7.5-23.8,1.8-58.6,5.7-100.4,5.4-57.8,13.2-100.7,17.1-122,36.6-201.5,36-192,44.5-248.6,16.6-111.3,7.6-96.1,21.7-193.9,2.6-18,6.8-45.9,4.6-83.3-1.5-24.8-4.9-36.9-12.5-79.8h0Z"/>
</svg>