<?xml version="1.0" encoding="UTF-8"?><svg id="_Слой_1" xmlns="http://www.w3.org/2000/svg" viewBox="0 0 2300 5500"><defs><style>.cls-1{fill:#010101;}.cls-2{fill:#1d1d1b;}</style></defs><path class="cls-1" d="M809.7,987.2c-.8-.3-1.2-1.3-.9-2.2.3-.8,1.2-1.2,1.9-.9,11.1,3.7,23.7,6.7,37.9,9,77.9,12.2,145,19.7,201.3,22.3,33.6,1.6,55.3,8.9,72.4,35.5.8,1.2.5,2.7-.7,3.5-1,.7-2.4.6-3.2-.4-21.1-21.5-37.8-29.3-71.3-30.2-44.2-1.1-102.4-7.5-174.7-19.1-26-4.2-47-10.1-62.8-17.5h.1Z"/><path class="cls-1" d="M1529.9,985l1.7,2.4c.7.9.5,2.2-.4,2.9-.2.2-.5.3-.8.4-88.1,19.4-178.1,31.1-269.8,35.2-18.3.8-35.8,11.6-52.4,32.3-1.3,1.6-3.7,1.9-5.4.7l-.2-.2c-1.6-1.2-1.9-3.4-.8-5.1h0c18.4-24.1,39.3-36.5,62.9-37.4,52.7-1.6,104.9-6.5,156.6-14.7,30.5-4.8,66.6-10.3,108.5-16.5h.1Z"/><path class="cls-2" d="M1144.72,2113.59h.53c3,0,5.44,2.43,5.45,5.43l.28,144.73c0,3-2.43,5.44-5.43,5.45h-.53c-3,0-5.44-2.43-5.45-5.43l-.28-144.73c0-3,2.43-5.44,5.43-5.45Z"/><path class="cls-2" d="M1146.43,2284.78c6.86-.53,13.07,7.54,13.88,18.02s-4.1,19.4-10.96,19.93-13.07-7.54-13.88-18.02h0c-.81-10.48,4.1-19.4,10.96-19.93ZM1142.54,2306.65c.41,1.64.99,2.92,1.75,3.86,1.87,2.4,5.33,2.86,7.74,1.04,1.52-1.15,2.31-3.01,2.09-4.9-.18-2.05-.76-3.65-1.75-4.82-1.95-2.41-5.49-2.78-7.9-.82-1.67,1.36-2.42,3.55-1.93,5.65h0Z"/><path class="cls-1" d="M1339,758.2c3.8,37.9,23.9,68.5,60.3,91.8,71.5,45.8,137,81.7,196.7,107.8,9.5,9.5,23.6,16,42.1,19.7,42.9,8.5,71.1,14.6,84.7,18.2,213.9,55.4,221.2,276.5,217.2,456.7-.3,12.5,1.9,24.9,6.6,36.4,26.8,66.8,44.8,122.7,57.1,198.4.6,3.4,6.4,39.6,17.5,108.4,4.2,25.8,14.4,58,28.9,85,30.1,55.8,46.9,88.3,50.4,97.4,26.1,67.9,43.6,140.1,52.4,216.6,12.3,106.9,23.5,209.1,33.8,306.6,5.9,55.9,23.8,160.2,53.9,313.1,4.8,24.7,14.8,54.4,24.8,87.6,2.1,6.9,1.8,14.2-.8,20.9-11.9,31.1-19.9,64.4-23.8,99.9-16.2,37.5-37.5,75.5-63.9,114.1-6,8.8-12.7,14.8-20.3,18-2.6,1.1-5.4,1.4-8.2.9-12-2.6-18.2-9.3-18.7-20.3,0-2.3-2-4.1-4.2-4-.6,0-1.2.2-1.8.5-9.9,5.3-27.1,15.3-37.1,6.3-8.9-7.9-14.3-16-16.3-24-1.7-6.9.3-14.3,5.3-19.4l45.7-46.7c1.9-2,3.5-4.2,4.7-6.7,15.3-30.2,24.8-60.9,28.6-92.2.2-21.9-.4-36.7-2-44.6-2.3-11.2-11.2-23.1-26.6-35.5-1.7-1.4-4.3-1.1-5.7.6-.1.2-.3.4-.4.6-5,9.1-7.6,15-7.6,17.7-1.1,36.9-2.1,76.1-35.6,95.4-2.6,1.6-5.7,2.3-8.8,2.2-34.2-.9-35.3-23.1-28.9-52.3,9.9-45.4,14.7-78.2,4.7-122.1-12.5-54.6-4.3-83.2,24.2-128.8,1.9-3,2.8-6.5,2.7-10.1l-1.1-31.5c-5.4-30.8-14.3-60.9-26.8-90.3-35.7-83.8-74.1-146.3-120.1-237.2-50.1-98.9-76.3-198.5-78.5-298.6-.3-16-1.6-29.5-3.6-40.3-4-21.1-7.6-34.1-10.8-39.2-39.4-62.9-72.3-129.4-98.7-199.7l-36-133.1c-.4-1.3-1.8-2-3.1-1.6-.8.3-1.5,1-1.6,1.8-11.1,71.7-32.3,142.1-63.9,211.2-9.4,20.5-18,51.4-26.1,92.9-13,67.5-21.7,136.7-19.8,208.6,1.8,68.8,4.3,97.6-.5,146-1.8,17.5-3,31.6-3.7,42.2-.2,3.9.3,7.9,1.6,11.7,71.9,216.4,120.9,434.1,147.1,653.3,2.6,21.6,5.7,73.2,9.5,154.8,2.5,54.4,1.6,106-2.6,154.6-11.5,131.6-34.3,255.5-69.2,382.7-18.2,66.1-28.7,113.6-31.4,142.4-6.9,70.8-1.7,142,15.6,213.6,20.6,85.5,34.7,162.1,42.3,229.8,4,35.9,4.6,84.9,1.6,147.1-3.3,69.6-15.2,158.1-35.5,265.4-24.4,128.6-43.4,248.4-57,359.5-8.9,72.5,25.3,123.3,69.8,185,20.3,28.2,37.4,49.9,51.4,64.8,40.4,43.3,84.7,69.6,146.8,105.3,19.1,11,31,26,21.1,46-9.8,20-27,28.2-51.7,24.5-3.3-.5-6.7.4-9.4,2.4-15.6,11.8-33.3,13.7-53.2,5.6-3.1-1.3-6.5-1.1-9.4.5-47.1,25.8-81.1,6.4-126.9-7-37.3-11-56.7-27-79.8-54.4-33.3-39.4-92.2-11.6-130.3-36.9-24.3-16.1-33.8-41.1-28.4-75,5.7-35.7,9.2-59,10.4-69.9.9-8.5.9-17,0-25.4-2.6-23.7-3.2-38.7-1.8-45,9.7-43.5,14.4-79.3,14.4-107.5,0-44.2-4-96.8-11.9-157.9-9.1-125.2-34.8-245.3-77-360.3-15.1-77.4-21.5-146.6-19.3-207.6,1.8-48.2,9.8-124.4,24.2-228.5,1.2-9.1,2-26,2.3-50.9,0-8.6-1.2-17-3.6-25.2-19.1-62.7-30.6-113.1-34.4-151-15.8-155.7-26.2-285-63.5-435.9-16.2-65.4-26.8-112.4-31.8-141-13.9-78.6-21.6-126.1-22.9-142.6-6.2-72.7-11.4-129.3-15.6-169.9-.3-3.3-1.2-6-2.5-8-2.4-3.8-7.5-4.9-11.3-2.4-1.9,1.3-3.3,3.3-3.6,5.6-12,75.3-15.3,149.4-26.4,230.9-11.1,79.8-31.9,165.2-49,246.1-30.3,142.9-36.3,296.7-52.3,426.9-6.4,52.2-18.8,104.7-37.2,157.5-1.2,3.5-1.9,7.2-1.9,11-.4,43.1,9.9,103.2,21.3,204.6,7.7,68.3,6.5,138-3.5,209.2-2.9,21-16.7,73.3-41.3,156.7-30.3,103-50.8,214.7-61.7,335-5,55.3-10.8,104.6-4.5,137.4,4.7,24.5,9.3,48.1,13.6,70.7,2,10.8,2.1,21.8.2,32.6l-2.8,15.7c-.9,5.2-1,10.6,0,15.8,12.3,74.2,42.4,153.2-62.9,159.9-30.6,1.9-64.2-2.4-83.8,23.1-24,31-62.1,54.1-114.4,69.2-39.9,11.5-71.5,9.1-94.7-7.4-2.6-1.8-5.9-2.2-8.8-1-22.6,9.3-42.2,7.8-58.9-4.4-3-2.2-6.8-3-10.5-2.2-8,1.8-19-1-33.2-8.5-17.3-9.2-22-22.4-14.1-39.6,1.2-2.6,3-4.9,5.2-6.8,10.4-8.6,33.2-23.2,47.9-31.3,96.9-52.9,167.3-140.5,220.2-229.5,20.9-35.1,28-76.7,21.2-124.6-18.2-129.4-33.9-230.2-46.9-302.4-33.5-184.8-52-367.4-12.2-554.7,25.9-121.8,50.3-217.5,39.7-331.6-3.3-26.9-8.5-53.4-15.4-79.4-15.8-59.3-33.2-118.5-52.2-177.6-2.9-24.4-9.8-67.2-21-128.6-20.5-112.9-25.1-239-13.9-378.3,20.1-250.7,66.2-498.3,147.1-732.5,3-8.6,4-17.6,3.2-26.7-4.4-47.1-5.6-88.6-1-144.2,9.9-122.9-10-244.9-57.4-361.9-24.4-60.4-39.1-124.2-44.2-191.4,0-1.1-1.1-1.8-2.2-1.7-.8,0-1.4.7-1.6,1.4-16.7,78.6-44.5,154.5-83.4,227.6-16.1,30.3-36.8,67.6-62,111.9-6.9,12.1-11.6,25.3-13.9,39-3.6,21.8-6.2,43.2-7.8,64.3-13.4,172.4-86.3,293.2-170.5,442.6-25.6,45.4-45.6,92.9-60,142.3-9.4,32.3-4.7,64.5,14,96.6,14.9,25.6,7.5,65.8-3.1,99.5-10.3,33-9.9,78.6-3.6,107.3,6,27.1,9,41,9,41.7,0,3-.9,5.9-2.5,8.3-6.4,9.6-14.7,15-25.1,16.3-52.1,6.4-51.7-89.6-53.6-120-.1-2.2-2-3.9-4.2-3.8-.7,0-1.4.3-2,.6-14.8,9.8-25.4,22.5-30.4,40.8-12.2,44-6.1,79.5,18.4,106.3,11,33.5,27.9,47.4,57.4,76.6,7.9,7.8,9.8,18.3,5.7,31.6l-14.8,16.9c-2.1,2.4-5.5,3.1-8.3,1.7-8.8-4.2-16.6-10.1-23.3-17.5-1.3-1.4-3.4-1.5-4.8-.2-.8.7-1.1,1.7-1.1,2.7,1.1,14.9-4.4,24-16.5,27.2-6.8,1.9-12.9-.4-18.2-6.9-44.3-54-87.8-117.1-92.4-192,0-.8-.2-1.5-.4-2.2l-11.2-29.6c-2.7-7.2-2.8-15.1-.3-22.4,45-128.1,76.8-259.3,95.3-393.8,17.8-128.7,33-233.4,45.8-314,9.1-57.5,20.8-111.4,35.3-161.7,18.1-62.8,47.2-110.6,77.6-170.3,21.8-42.7,24.3-88.1,38.2-164,13.3-72.9,36-142.9,68.2-210.1,2.4-5,5-14.6,7.7-28.8.9-4.4,1.2-8.8,1-13.2-3.5-77.1.9-148.7,13.1-214.6,20.9-112.8,69.6-197.6,185.8-230.8,12.9-3.7,45.5-11.2,98-22.5,11.5-2.5,23.2-6.8,35.2-13.2,40.5-21.2,92.7-49.3,156.7-84.4,51.2-28.1,97.5-60.8,111-121.6,2.9-12.8,3.3-37.5,1.3-74.3-.2-3.2-1.1-6.4-2.6-9.2-20.3-36.8-35.1-72.9-44.5-108.1-1.1-4-3.5-7.5-6.8-9.9l-15.6-11.4c-3-2.2-5.5-5-7.4-8.2-15.4-26.3-25.3-54-29.5-83.2-4-26.8-5.8-70.8,32.1-69.1,2.4.1,4.5-1.7,4.6-4.2v-.8c-3-19.7-2.4-53.3,1.8-100.9,3.2-37.1,12.5-69.3,27.8-96.4,40.8-72.2,121.6-117,203.9-116,122.4,1.6,216.6,78.2,236.3,200.9,4.8,30.1,5.9,68.7,3.2,115.7,0,2,1.4,3.7,3.4,3.8.5,0,1,0,1.4-.2l3.3-1.3c2.7-1,5.8-.7,8.2.9,14.2,9.2,21.4,20.7,21.6,34.6.3,37.7-17.5,116.5-55.5,133.9-3.7,1.7-6.4,5-7.4,9-7.5,32-21.2,65.1-41.1,99.1-2,3.4-3.4,7.2-3.9,11-4.8,32.6-3.3,60.8,4.5,84.6h0l-.2.5h0ZM1392.3,407.3c3.7-70.7,10.4-146.2-23.9-210.9-78.8-148.1-291.2-164.3-387.7-25.1-43.4,62.7-48.8,168.9-34.4,240.8.2,1.8-1,3.4-2.8,3.7-1.3.2-2.6-.5-3.3-1.6-4.8-9.8-9.2-15.5-13.1-17.2-8.9-3.7-19.1,1.1-22.8,10.8-.8,2.1-1.3,4.3-1.4,6.5-1.7,41.4,8.2,80.5,29.8,117.2,4.6,7.8,11.1,11.4,19.4,10.7,2.3-.2,4.5,1.2,5.2,3.4,23.2,72,45.9,133,103,184.1,67.9,61,165.8,48.4,227.3-17.8,43.4-46.7,71.6-100.1,84.6-160.2.8-3.4,3.2-6,6.5-7,36.5-11.2,47.4-73.6,52.8-108.9,1.9-12.9,0-24.4-5.4-34.5-3.3-5.9-10.8-7.8-16.7-4.3-2.4,1.4-4.3,3.6-5.4,6.2-2,4.7-3.8,7.5-5.3,8.3-2.1,1.1-4.7.3-5.8-1.9-.4-.7-.5-1.5-.5-2.3h-.1ZM445.4,5422.9c6.1,7.4,13.4,11.2,21.8,11.3,2.8,0,5.4-1.5,6.8-4,8.1-14.2,16.9-31.9,36.8-35.7,15.4-2.9,30-11,43.8-24.1.9-.9,2.4-.8,3.2.1,0,0,0,.2.2.2l1.6,2.4c1,1.4.7,3.4-.7,4.4-15.6,11.8-30.6,20.2-45,25.4-12.3,4.4-21.3,12.3-26.9,23.5-2.6,5.2,0,11.7,5.6,14.5.2,0,.3.2.5.2,12.8,5.4,42.2,11.4,46.1-8.2,1.6-7.9,3.1-13.4,4.6-16.5,1.8-3.9,4.7-7.1,8.2-9.5l26-17.5c2.2-1.5,5.2-1.6,7.5,0,6.9,4.5,13.6,6,20.1,4.4,2.9-.7,5.5-2.5,7.3-5.1,5.5-8,11.7-13.8,18.6-17.4,1.4-.8,3.3-.3,4,1.2.6,1.1.5,2.4-.3,3.3-13.6,17.5-29.6,26.6-48,27.3-13,.5-28,5.2-34.4,15.3-6,9.2-4.5,20.9,3.3,26.2.6.4,1.2.8,1.9,1.1,46.8,22.5,102.4-1.1,150.3-24.6,9.2-4.5,17.3-11,23.8-19,15.2-18.4,37.5-43.9,66.6-44,35.6-.2,104.3,2.3,108.5-43.8,1.6-17.8-2.3-53.7-11.8-107.7-.2-1.4-.3-2.8-.2-4.3l3.6-41c.6-6.7,0-13.4-1.3-19.9-12.9-56.4-18.2-101-12.9-166.5,12.3-152.4,35.9-287,77.5-420.4,34.1-109,45.8-219.4,31.7-331.7-12.8-101.5-19.9-165.3-21.6-191.6-.2-3.2.3-6.4,1.5-9.5,22.2-58.4,36.3-120,42.3-184.9,7.5-80.9,16.8-177.4,27.9-289.4,3.2-32.2,15.5-96.5,37-193.1,18.7-84.3,30.9-148.7,36.6-193.1,7.6-59.9,15.6-130.1,23.9-210.5.3-3.1-1.7-5.9-4.7-6.8l-28.5-8c-.7-.1-1.2-.7-1.2-1.4v-2.9c0-1.3.8-2.3,2-2.4.3,0,.5,0,.8.1,32.9,10.1,65.8,11.2,98.9,3.3,1.4-.4,2.8.4,3.4,1.8l.9,2.4c.2.7,0,1.4-.8,1.7h-.3l-33.7,6.3c-2.3.5-3.8,2.7-3.4,4.9v.3c2.5,9.6,8.6,65.5,18.3,167.5,8.8,92.4,29.2,186.7,57.4,303.6,20.8,86,33.9,156.5,39.5,211.7,10.1,99.9,17.5,172.1,22.4,216.5,5.1,46,16.1,95.6,33.1,148.8,2.7,8.6,4.2,17.6,4.4,26.6.3,19-1.1,40.7-4.4,65-19.7,144.8-36.2,269.2-3.1,400.5,14.7,58.6,40.8,138,52.8,202.6,21,112.2,33.1,227.5,36.3,346,.8,31.4-6,62.8-12.5,96.7-1.6,8.1-2.1,16.5-1.6,24.8,2.3,34-.2,73.8-7.7,119.2-12.9,78.6,49.1,73.7,103.3,79.5,41.6,4.5,59.1,35.6,85.5,59.4,13.3,11.9,38.5,17.7,57.4,23.8,37.6,12,61.6,23.2,100.2,4.1,3.4-1.7,5.5-5.3,5.3-9.1l-1-19.6c-.2-3.5-2.2-6.6-5.3-8-17.5-7.8-33.1-12.2-46.6-13.1-8.4-.5-15.6-6.2-21.8-17-1-1.8-.4-4.1,1.4-5.1.4-.3,1-.4,1.5-.5,3.3-.3,6.8,2.2,10.5,7.4,1.5,2,3.9,3,6.2,2.6,5.2-.7,24.3,5.7,57.3,19.3,3,1.2,5,4,5.2,7.3l1.2,24.8c0,2.8,1.6,5.3,4,6.7,14.6,8.1,30.8,6.8,48.9-4.1,2.4-1.5,3.4-4.4,2.6-7.1-4.5-14.8-9.6-23.7-15.3-26.8-16.9-8.8-36.2-20.5-57.9-34.9-.7-.4-1-1.3-.6-2l1.3-2.3c0-.3.5-.4.8-.3l64.3,33.1c5.4,2.8,9.2,7.9,10.3,14,4.4,24,17.1,28.6,38.1,14,1.4-1.1,1.8-3.1.8-4.5v-.2c-8-9.5-14.4-16.7-19-21.7-12.7-13.6-34.4-18.7-48.9-30.4-.6-.5-.6-1.4,0-2,.3-.4.9-.5,1.3-.4,25.1,7.8,64.5,26.4,72.3,52.1.3,1.3,1.6,2.1,3,1.8,1-.2,1.7-1.1,1.9-2.1,2.5-15.9-2.7-27.8-15.7-35.5-15.4-9.2-40.5-24.4-75.1-45.6-64.8-39.6-118.8-108.9-166.1-183.5-21.9-34.5-32.9-66.3-33-95.4,0-41.6,6.3-102.4,19.2-182.5,3.9-24.2,19.7-115.1,47.3-272.6,29.4-168,40.4-328.9.5-496.1-24.1-101.4-43.4-196-35.5-299.4,2.1-27.1,10.3-65.8,24.8-116.2,2.9-10.2,13.1-50.5,30.5-120.9,33-133.3,49.7-265,49.8-395,.3-286.7-67.9-581.3-158.8-861.4-1-3.2-1.4-6.6-1.1-10,4-35.5,8.3-73.1,7.3-107.4-1.8-56.1-5.2-110.7-.6-161,5-55.4,14.6-113.2,28.9-173.4,4.7-19.7,15.6-49.1,32.6-88.3,23-53.1,38.7-110.4,46.9-171.8,6.1-45,2.6-74.1-.4-129.3,0-1.3-1.2-2.3-2.5-2.2-.8,0-1.6.5-2,1.3-11.3,22.4-25.7,42.1-43.2,59-1.1.9-2.8.7-3.7-.4-.7-.8-.8-2-.2-2.9,28.9-41.6,56.1-82.2,81.4-121.8,3.6-5.7,10-12.8,19-21.1.9-.9,2.5-.9,3.4,0l1.9,1.9c.3.3.4.8.2,1.1l-44.4,65.3c-.9,1.3-1.3,2.9-1.2,4.6l5.2,82.7c0,1.2.2,2.4.5,3.6,5,23,10,46.2,15,69.7,22.9,107.2,62.1,205.5,117.4,294.7,27.1,43.8,28,73.4,30.8,133.6,3.8,81.5,27.9,168.9,62.2,238.4,37.5,76.1,72.9,144.9,106.2,206.3,26,48,58.4,123.6,57.5,181.6-.1,6.1-1.9,12.1-5.1,17.3-19.2,31.3-33,56.7-29.6,96.8.8,8.5,4.4,28.1,11,58.7,3.8,17.7,0,55.9-11.6,114.6-1.9,9.4,4.2,18.6,13.6,20.4.4,0,.8.1,1.2.2h.4c11.3,1.6,22.1-4.8,26.3-15.3,7-17.3,12.1-40.1,15.4-68.3,2.5-22.1,12.9-50.1,31.1-84,.9-1.7,3-2.3,4.7-1.4.3.2.6.4.9.6l2.1,2.1c1.4,1.4,1.8,3.6.9,5.4l-19.6,38.9c-1.2,2.4-.2,5.4,2.2,6.6.1,0,.3.1.5.2.5.2,1.7.4,3.5.5s4.1,1.4,6.8,3.8c6,5.4,16.8,19.2,32.4,41.4,2,2.9,2.6,6.5,1.5,9.9-5.7,17.7-7.7,39.4-6,65.2.1,1.7.8,3.3,2,4.4l4.4,4.3c1.2,1.1,1.3,3,.2,4.2-.7.8-1.8,1.1-2.9.9-.2,0-1.1-.5-2.7-1.4-2.9-1.6-6.6-.5-8.2,2.5l-30.2,58.3c-.4.8-.9,1.6-1.5,2.2l-46.4,50c-1.7,1.8-1.9,4.5-.5,6.6l1.8,2.5c1.8,2.7,5.3,3.4,8,1.7.2-.1.4-.3.6-.4,24.2-20.1,44.5-42.5,69.2-61.1,8.4-6.3,14.1-15.5,17.2-27.7,1.6-6.3,3.9-35.8,7.1-88.7,0-.1,0-.2.2-.2h2.6c1-.1,1.8.6,1.9,1.6,3.2,36,1.6,66.9-4.8,92.7-2.6,10.6-17.2,43.4-43.9,98.3-2,4.2-.5,9.3,3.6,11.6l3,1.7c5.2,3,11.9,1.4,15.1-3.7l52.3-83.7c2.4-4,4.3-8.2,5.5-12.7l35.7-131c.9-3.4.9-7,0-10.4-4.8-18.8-14.4-44.4-19.1-65.4-26.3-116.5-46.9-234.2-62-353-16.1-126-22.2-284.7-56.2-422.2-13.2-53.4-34.9-105.7-65.3-156.7-20.8-34.8-31.1-58.8-38.2-93.2-11.8-57.1-19.7-138.6-37.6-204.4-8.4-30.7-22.6-72-42.8-123.8-4.2-10.6-6.1-21.9-5.6-33.3,6.1-164.2,0-383.3-190.6-442.4-42.6-13.2-99.5-15.3-139.6-35.8-62-31.5-126.7-67.8-194-108.9-74.4-45.3-84.5-97.6-79.4-175.2,0-1.3-1-2.4-2.3-2.5-.6,0-1.1.2-1.6.5-1.6,1.3-7.7,8.2-18.3,20.9-81.2,96.6-213.3,94.4-285-13.2-.8-1.4-2.6-1.8-4-1-1,.6-1.6,1.8-1.4,3,9.8,93.9-31.9,140.3-115.1,187.9-52.9,30.2-108.2,60.1-165.8,89.6-14.2,7.3-29.5,12.2-45.3,14.4-6,.8-29,5.8-69.1,15-95.5,22-156.8,83.5-183.9,184.5-21.1,78.8-25.5,169.6-21.9,257.3.6,13.9-2.2,27.7-8.2,40.3-35.9,76.2-60.7,156-74.4,239.4-8.6,52-15.9,87.9-21.8,107.4-6.3,20.7-20,50.7-41,89.9-24,44.7-42.1,85.8-52.5,128.2-35.2,142.3-51.3,282.5-71.5,425.1-21.8,154.9-50.2,288.8-99.1,424.4-2.1,6-2.1,12.4,0,18.3l11.2,30.5c.2.7.4,1.4.5,2.2,5.4,46.6,17.2,83.5,35.3,110.8,21.9,33,39.3,58.3,52,75.9,3.5,4.8,10,6.1,14.6,2.9,1.4-.9,2.5-2.2,3.2-3.7,2.1-4.4,1.8-9.8-.8-16.3-13.4-33.5-30.8-65.1-52-94.6-1.2-1.7-1.9-3.6-2-5.6l-3.3-70.5c0-.5.3-1,.9-1.1l6.7-.3c1.2,0,2.2.8,2.3,2v.5c-4.8,32.8-.6,63.2,12.5,91.1,1.2,2.6,2.7,5,4.4,7.3,15.2,20.1,28.7,39.1,40.5,57,2.6,4,13.3,11.1,31.9,21.4,2.5,1.4,5.6.5,6.9-1.9l.2-.3c1.3-2.2.6-5.1-1.6-6.4-38.1-24.2-62.9-58.5-74.6-103-1.1-4.3-3.6-26.1-7.5-65.5-.3-3.5,0-7.1,1.1-10.5,3.3-10.3,3.8-20.5,1.5-30.6-.7-3.2,0-6.6,2.1-9.1l38.2-49c.7-.9,1-2,.8-3.1l-6.3-33.8c-.1-.9.4-1.8,1.2-2.1l2.3-.9c1.2-.4,2.6.1,3.1,1.3,12.1,27.6,19.2,52,21.4,73.1,3.2,30.8,7,54.8,11.4,72.1,3.2,12.5,13.9,21.6,26.8,22.7h.7c9.4.8,17.6-6.1,18.4-15.4.1-1.7,0-3.4-.3-5.1-9.2-41.3-12.8-79.7-11-115.2.2-3,.7-6,1.7-8.9,12.5-38.3,25.4-80.1,12.1-111.1-12.3-28.5-19.1-44.2-20.2-47.3-4.1-11.2-2.7-30.3,4.2-57.3,28.6-111.9,112.4-238,152.4-316.3,47.1-92.4,72.4-187.2,80.2-289.2,2.5-31.9,6.1-53.7,11-65.3,11.4-27,27.6-58.2,48.6-93.4,53.2-89.5,90.3-184.9,111.1-286.1,1-4.6,3.4-11.4,7.2-20.4.9-2,1.3-4.2,1.3-6.5l-1-80.5c0-1.9-.5-3.9-1.6-5.5l-41.2-65.6c-.9-1.4-.7-3.2.3-4.5h.2c1.9-1.7,4.6-1.4,6.2.5,0,.1.2.3.3.4,32.02,45.54,64.04,91.08,96.06,136.62-.39.58-.93,1.27-1.69,1.96-.52.47-1.03.84-1.48,1.13-.48.44-.96.88-1.44,1.32-.62-.29-1.33-.67-2.07-1.18-.58-.4-1.08-.8-1.51-1.18-12.79-16.36-25.59-32.71-38.38-49.07-.7-.8-1.8-1-2.7-.4-.5.4-.8.9-.7,1.6.6,23.3.4,42.7-.4,58.2-4.1,71.3,10,155.7,31.7,209.8,22.5,56,35.3,89.3,38.6,99.7,31.6,101.3,39.6,200.8,31.9,314.4-3.3,49.2-2.7,96.2,1.8,141,.5,4.8,0,9.7-1.7,14.3-41.2,118-73.3,237-96.1,356.9-13.2,69.6-26.8,154.6-40.7,254.9-32,231.1-19,456.1,39.1,674.8,14.2,53.6,44,138.4,50.5,196.4,7.2,64.2,2,140-8.1,194.8-2.1,11.5-14.7,73.5-37.9,185.9-29,141-17.4,297.7,7.8,445.9,20.3,119.3,39.4,243.1,57.2,371.5,6.7,48,1.1,89.2-16.7,123.8-25.1,48.8-66.7,104.8-124.7,168-31.4,34.3-69.6,54.6-113.2,80.7-3.2,1.9-15.2,10.8-36.2,26.8-6.4,4.9-8.1,13.7-4,20.5.89,1.48,2.19,2.57,2.19,2.57,3.92,3.2,9.2,2.22,10.51,1.93ZM212.1,3113.1c1.7-.6,2.6-2.5,1.9-4.2-.1-.3-.3-.6-.5-.8-8.2-10.4-20.3-23.9-36.4-40.5-12-12.4-22.4-33.7-31.4-64-.6-2-2.8-3.2-4.8-2.6-.4.1-.7.3-1,.5l-3.8,2.5c-.5.4-.8,1-.6,1.7,10.8,47.4,35.6,83.4,74.5,108.1.6.4,1.3.5,1.5.2h0c.3-.5.5-.8.5-.8h.1v-.1ZM2158.4,3066.2l-63.2,61.7c-1.4,1.3-1.5,3.6,0,5,1,1,2.4,1.4,3.8.9,7.2-2.5,16.6-7.1,28.2-13.8,2-1.2,3.7-2.9,4.9-4.8l29.5-48.7M2161.4,3066.3l-.4-.4c-.8-.6-1.9-.5-2.5.2l3,.2h-.1Z"/></svg>