<?xml version="1.0" encoding="UTF-8"?>
<svg id="_Слой_1" xmlns="http://www.w3.org/2000/svg" version="1.1" viewBox="0 0 2300 5500">
  <!-- Generator: Adobe Illustrator 29.1.0, SVG Export Plug-In . SVG Version: 2.1.0 Build 142)  -->
  <defs>
    <style>
      .st0 {
        fill: none;
      }

      .st1 {
        fill: #9bc8ec;
        stroke: #9bc8ec;
        stroke-miterlimit: 10;
      }
    </style>
  </defs>
  <path class="st0" d="M649.5,1523.4v-10.3c-.2,2.4-.4,4.8-.7,7.2.3,1.1.5,2.1.7,3.1Z"/>
  <path class="st1" d="M649.5,987.8c-3.8.3-8.3.9-13.3,1.9-5.2,1-8.5,2-16.7,4.2-16.1,4.3-16.4,4.1-24,6.3-14.1,4-25.9,8.3-31.3,10.4-26.7,10.6-46.4,26.6-52.2,31.3-41.1,33.4-58.8,77.3-73.1,112.7-2.9,7.2-12.4,31.5-19.8,64.7-7.5,33.6-9.1,59.6-10.4,83.5-1.8,31.6-1.5,62.7-1,103.3.3,31.6.9,38.1-2.1,51.2-4.2,18.2-8.5,19.4-23.6,62.1-4.2,11.9-6.2,18.3-11.1,30.1-5.2,12.6-7.3,15.6-9.9,24-4.1,13.2-2.6,18.4-5,30.7-2.9,15-7.8,22.4-13.1,34.7-5.5,12.6-8.9,29.3-15.7,62.6-3.8,18.8-8.4,43.5-12.5,73.1-1.3,12-3,24.5-5.2,37.6v.2c-1.9,10.7-3.9,20.9-6,30.7,13.5,18.3,33.1,39.7,60.6,58,8.2,5.4,22,14.5,41.8,21.8,32.6,12.1,62.8,12.6,84.2,10.6,11.9-22.2,31.2-58.6,40.7-76.2,49.4-92.3,63.2-117.9,75.4-158.1,5.1-16.7,12.5-44.6,13.6-48.8,6.7-25.3,12.8-50,18.3-74.2,1.5-1.4,3.4-3.5,4.2-6.6.8-2.9.2-5.3,0-6.6-1.3-7.2,3.6-12.6,6.1-19.7.4-1.2.8-2.5,1.2-3.9v-551.6h0ZM649.5,1523.4c-.2-1-.4-2-.7-3.1.2-2.4.4-4.8.7-7.2v10.3Z"/>
  <path class="st1" d="M2025.7,1831.2c-4.4-14.3-5.7-27-5.9-36.6v-.2c-2.4-8.8-6.1-23.4-9.9-41.6-9.6-46.4-6.5-53.8-15.8-91.1-5.7-22.7-8.9-28-10.9-45.6-1.2-10.6-1.1-18.3-5-30.7-2.6-8.4-4.6-11.4-9.9-24-3.6-8.7-6.2-16-11.1-30.1-13-37.4-19.5-56.1-21.3-69.5-1.8-13.9-.8-20.6,0-40.3,1-27.6-.6-56.3-4-113.8-2.6-45.2-4.1-68.3-8.9-88.1-6.6-27.2-15.1-46.5-22.1-62-14.8-32.7-40.5-89.8-85.5-120-9.9-6.6-28.9-17.5-48.3-26.1-12.9-5.7-22.7-9-24.8-9.7-4.4-1.5-1.4-.3-23-6.6-6-1.7-8.7-2.6-12.8-3.1-7-.9-12.9-.3-16.8.3h0v534.3c.2,1.8.3,3.7.5,5.5-.2.8-.3,1.5-.5,2.3v17.4c.3,1.2.6,2.3,1,3.3,2.5,7.1,7.4,12.5,6.1,19.7-.2,1.2-.8,3.6,0,6.6s2.7,5.2,4.2,6.6c5.5,24.1,11.6,48.9,18.3,74.2,4.4,16.6,9,32.9,13.6,48.8,6.8,33,16.9,56.9,24.9,72.8,2.5,4.9,2.1,3.8,10.3,19.2,20.3,38.2,19.5,39.4,31,60.1,15.1,27.3,22.7,41,27.2,48.4,4.6,7.4,8,12.4,9.9,20.7,1.2,5.2,1.4,10.1,4.3,17.6,1.7,4.3,3.5,7.7,4.8,9.8,17.7,1.4,68.2,3.1,119.4-28.5,41.5-25.6,62.4-60,70.9-76.2-3.4-6.4-7-14.4-9.9-23.8h0Z"/>
</svg>