<?xml version="1.0" encoding="UTF-8"?><svg id="_Слой_1" xmlns="http://www.w3.org/2000/svg" viewBox="0 0 2300 5500"><defs><style>.cls-1,.cls-2,.cls-3{fill:#d4deeb;}.cls-2{opacity:.5;}.cls-2,.cls-3{isolation:isolate;}.cls-3,.cls-4{opacity:.2;}.cls-5{fill:#fff;}</style></defs><path class="cls-2" d="M430.35,5402.78c-1.2,2.97-3.89,9.89-1.12,16.55,1.6,3.84,5.04,7.67,15.9,12.14,15.12,6.22,22.44,4.57,38.65,8.32,19.55,4.51,16.37,8.64,28.79,9.85,21.05,2.05,27.59-10.06,43.53-5.01,10.06,3.19,9.77,8.75,21.62,12.58,10.71,3.46,20.2,1.92,28.25.34,31.51-6.18,58.85-16.58,70.42-20.87,43.83-16.25,47.25-18.18,52.16-22.6,16.21-14.6,15.78-26.71,33.91-39.12,13.49-9.24,27.5-11.46,36.51-13.04,21.87-3.85,26.43,1.77,49.2-2.44,7.11-1.31,19.51-3.71,33.39-11.47,7.96-4.46,21.41-11.98,28.69-25.21,5.1-9.28,5.38-18.11.87-50.42-7.45-53.33-12.48-59.82-11.28-84.2,1.12-22.69,5.68-21.15,4.98-40.42-.85-23.45-7.86-32.86-12.73-61.46-1.72-10.09-3.61-25.12-3.38-43.99-5.31,5.57-35.82,36.55-84.66,36.79-43.52.21-72.24-24.13-78.99-30.17-1.29,14.43-4.45,35.36-13.04,59.12-7.92,21.92-17.85,39.03-34.78,63.47-32.6,47.07-56.21,78.57-85.4,106.38-13.23,12.6-24.55,21.39-33.3,28.34-37.52,29.81-56.28,44.72-83.1,59.3-15.39,8.36-37.73,19.03-45.09,37.24Z"/><path class="cls-1" d="M1622.08,3851.5c-33.4,11.83-82.49,24.95-142.85,26.55-73.79,1.95-132.93-14.16-169.56-27.31,1.17,9.59,3.15,24.13,6.44,41.69,7.36,39.33,15.52,63.12,20.53,82.12,8.31,31.52,14.88,66.64,10.66,109.75-1.92,19.6-4.25,20.1-10.66,53.34-9.94,51.55-12.38,92.14-13.69,115.19-3.34,58.97-.36,106.83,2.28,135.72,1.16,12.72,5.12,53.05,15.97,106.07,9.26,45.24,11.44,40.61,35.36,134.58,19.85,77.99,24.67,106.07,27.37,125.46.91,6.55,3.14,23.31,6.84,47.9,4.82,31.99,8.77,54.9,9.49,59.17,4.38,26.14,8.7,76.55,7.62,183.76,7.06,6,47.09,38.84,102.65,31.93,34-4.23,57.28-21.28,67.29-29.65.46-23.83,1.77-58.57,5.7-100.37,5.44-57.82,13.24-100.73,17.11-122.04,36.55-201.51,36.04-192,44.48-248.63,16.59-111.32,7.59-96.07,21.67-193.89,2.59-18.02,6.84-45.89,4.56-83.26-1.51-24.76-4.85-36.87-12.55-79.84-10.57-59-8.46-59.58-15.97-100.37-12.42-67.47-20.34-77.53-29.65-125.46-6.46-33.27-12.96-81.5-11.09-142.44Z"/><path class="cls-2" d="M1758.05,5309.43c-47.08-36.02-74.7-71.19-118.71-134.73-16.93-24.44-26.85-41.55-34.78-63.47-8.59-23.76-11.75-44.69-13.04-59.12-10.25,7.41-35.5,23.52-71.29,25.21-49.82,2.35-84.16-24.94-92.35-31.83-.04,9.48-.3,23.67-1.38,40.86-2.4,37.94-6.29,50.08-13.2,104-9.98,77.82-1.98,53.38-7.82,85.2-3.34,18.21-7.44,34.27.87,50.42,7.46,14.5,20.91,21.29,28.69,25.21,25.75,12.99,39.17,3.86,82.59,13.91,17.6,4.07,26.6,6.25,36.51,13.04,18.12,12.42,17.7,24.52,33.91,39.12,4.92,4.43,8.33,6.36,52.16,22.6,54.27,20.12,60.63,21.46,70.42,20.87,20.34-1.24,19.12-8.64,45.21-10.43,20.83-1.43,29.03,2.78,46.95-2.61,14.61-4.4,13.13-8.39,26.08-11.3,21.26-4.78,31.04,4.7,42.6-1.74,10.6-5.9,14.56-20.66,14.78-28.69.92-32.96-58.52-43.22-128.2-96.53Z"/><path class="cls-1" d="M1629.48,2495.82c-8.57-30.7-14.71-56.06-18.87-74.24,0,0-13.33-58.27-19.63-57.03-.31.06-.63.4-1.23.35-2.26-.18-3.68-5.28-4.54-9.73-19.09,18.79-45.28,45.56-74.84,79.14-63.44,72.07-104.8,132.93-130.24,170.29-30.72,45.12-60.77,93.73-91.56,149.11-25,44.9-33.6,61.6-33.6,61.6-10.7,20.6-35.23,63.25-80.08,127.32-.04.05-1.59,2.27-1.63,2.32,1.19,2.79,2.79,7.01,3.95,12.32,2.42,11.05,1.18,19.82,1.16,23.01-.05,9.03.67,22.88,4.18,43.46,88.41-80.73,184.23-178.96,279.51-296.83,64.65-79.98,120.04-157.86,167.41-231.09Z"/><path class="cls-3" d="M50.88,2864.35c19.88-38.97,23.41-84.3,35.54-126.33,10.11-35.04,23.29-85.07,35.78-148.44,9.73,7.01,29.57,19.35,57.79,23.85,28.88,4.61,52.06-1.29,63.5-5.04-4.33,7.35-6.52,13.82-7.73,18.48-2.27,8.78-2.32,18.15-2.43,36.89,0,1.09.16,3.11.13,5.75-.02,1.78.31,5.44,1.12,10.11.44,2.78.68,3.46,1.55,7.02.72,2.98.29,4.09,1.04,4.44.91.44,1.74-1.01,2.94-.75,1.24.26,1.67,2.1,3.06,6.74,1.61,5.35,2.2,6.78,2.45,7.35,1.29,2.97,2.68,4.94,3.06,5.52,2.85,4.27,7.11,17.44,8.66,31.8,2.41,22.27-2.1,43.41-4.07,51.55-.1,6.32-1.02,11.31-1.84,14.71-1.86,7.7-4.11,10.84-7.62,21.12,0,0-2.8,6.43-4.03,13.81-.91,5.49.21,19.6,2.45,47.8,1.69,21.24,2.53,31.87,3.68,36.16,4.57,17.14,11.28,25.46,7.05,36.16-2.55,6.44-8.07,11.24-10.11,12.87-3.51,2.81-6.9,5.52-11.36,5.19-1.29-.1-6.31-.47-9.03-3.89-.75-.94-1.48-2.31-2.62-2.3-1.28.01-1.66,1.76-3.03,1.92-1.28.15-2.29-1.23-3.68-2.76-1.28-1.42-3.17-3.27-5.82-5.21-1.9-1.47-4.64-3.93-7.05-7.66-2.76-4.28-3.74-8.15-4.29-10.42-1.1-4.52-.72-6.43-1.23-11.95-.58-6.29-1.67-10.18-2.45-13.79-1.37-6.35-3.08-17.91-4.6-40.75-3.41-13.77-16.93-68.03-21.22-75.16-.33-.55-1.23-2.05-1.58-1.91-.7.28,1.34,6.86,3.2,13.03,7.75,25.74,7.78,29.19,6.43,32.48-1.56,3.81-3.26,3.25-11.34,10.42-2.78,2.46-14.12,12.66-20.84,24.82-4.82,8.73-5.94,16.1-7.66,28.19-1.86,13.05-4.41,30.98,1.23,53.32,4.59,18.18,12.77,32.04,19.62,41.36,1.97,7.04,5.54,17.58,12.13,29.25,4.96,8.78,10.2,14.5,31.67,39.3,13.14,15.17,19.69,22.89,18.95,29.24-1.14,9.8-12.01,16.38-19.02,19.79-4.3-15.01-18.19-19.46-27.4-17.5-8.95,1.9-9.86,22.08-9.8,22.25.02.05.03.1.03.1.02.05.05.13.1.26.04.12.34.93.35,1.09.05.74-4.57,1.69-5.06,1.79-1.04,1.4-2.08,2.79-3.12,4.18-3.13.21-7.78.14-12.94-1.52-6.81-2.19-15.54-7.49-32.34-38.48-12.8-23.62-13.17-27.89-20.97-41.79-4.75-8.47-7.43-12.42-9.84-17.58-2.5-5.34-2.35-6.96-4.86-13.12-3.87-9.52-5.96-11.2-8.85-17.63-4.24-9.45-4.95-17.44-6.09-30.44-1.24-14.12.35-15.01-.57-23.22-2.43-21.8-14.95-27.56-19.22-43.74-4.85-18.4,5.07-34.76,12.18-48.7Z"/><path class="cls-1" d="M2034.46,1857.43c-8.19,13.9-21.28,32.93-41.2,51.89-9.7,9.23-26.22,24.72-50.4,36.57-38.77,19-76.65,18.56-98.75,16.2,8.43,55.79,12.25,92.07,14.17,115.55.64,7.81,2.75,24.31,6.4,46.47,3.87,23.51,10.74,40.22,13.38,48.31,17.36,53.19,26.04,79.78,31.96,95.13,9.88,25.62,31.74,66.73,75.07,147.9,11.94,22.36,26.04,50.58,54.26,107.02,6.01,12.02,15.2,30.59,23.78,56.49,7.61,22.95,11.75,42.67,14.12,56.49,5.91,3.39,35.48,19.53,72.09,9.66,29.11-7.85,45.45-27.51,50.54-34.19-9.89-39.9-15.82-72.65-19.32-94.39-9.94-61.61-14.74-123.39-24.53-231.89-1.1-12.15-2.36-25.84-5.2-43.85-1.72-10.9-2.68-14.85-4.46-26.76-2.69-18.01-2.66-23.36-4.46-37.9-3.6-29.09-6.88-33.07-11.89-67.63-2.6-17.93-1.89-18.04-3.72-30.47-6.55-44.49-20.91-78.53-28.99-97.36-3.79-8.82-4.81-10.46-31.22-61.69-13.56-26.3-24.55-47.72-31.64-61.55Z"/><path class="cls-1" d="M859.9,2732.49c95.28,117.87,191.1,216.1,279.51,296.83,3.52-20.58,4.23-34.43,4.18-43.46-.02-3.19-1.26-11.96,1.16-23.01,1.16-5.3,2.76-9.53,3.95-12.32-.04-.05-1.59-2.27-1.63-2.32-44.85-64.08-69.38-106.72-80.08-127.32,0,0-8.6-16.7-33.6-61.6-30.79-55.38-60.85-103.99-91.56-149.11-25.44-37.37-66.79-98.23-130.24-170.29-29.57-33.58-55.75-60.36-74.84-79.14-.86,4.45-2.28,9.55-4.54,9.73-.6.05-.92-.29-1.23-.35-6.3-1.24-19.63,57.03-19.63,57.03-4.16,18.18-10.3,43.54-18.87,74.24,47.36,73.23,102.75,151.1,167.41,231.09Z"/><path class="cls-1" d="M692.06,4003.34c-8.56,45.48-13.19,66.69-24.25,122.49-9.24,46.59-13.9,70.16-15.77,83.68-4.59,33.24-6.16,59.25-8.49,99.44-2.6,44.75-3.89,67.12-3.64,87.32.62,48.46,7.33,93.1,20.75,182.38,2.17,14.41,3.28,21.79,5.11,32.86,9.93,59.86,15.26,71.91,20.15,110.53,3.47,27.44.8,21.51,4.92,58.67,3.14,28.29,5.75,41.24,12.13,82.47,5.94,38.41,9.96,67.77,12.13,83.68,3.89,28.51,8.34,63.17,12.85,102.83,7.67,7.02,31.36,26.87,67.29,29.65,51.52,3.99,85.93-30.39,90.85-35.47-.37-27.43.28-61.56,3.64-100.66,3.32-38.64,8.27-68.61,18.19-128.55,4.15-25.1,10.11-59.44,18.19-100.66,9.53-48.62,14.29-72.94,20.62-97.02,16.67-63.49,25.16-67.47,37.84-120.46,10.21-42.69,13.19-75.67,15.97-106.07,2.64-28.89,5.62-76.75,2.28-135.72-1.64-28.92-4.2-66.51-13.69-115.19-7.03-36.06-13.23-53.88-12.08-86.48.66-18.8,4.08-34.77,10.91-66.7,8.31-38.83,14.43-52.9,21.7-92.03,3.29-17.72,5.28-32.31,6.44-41.69-33.48,13.12-93.53,31.56-169.56,27.31-60.92-3.41-108.96-20.08-139.29-33.41.72,22.32.53,54.81-4.27,93.74-1.79,14.51-4.86,30.89-10.91,63.06Z"/><path class="cls-1" d="M2183.7,2646.98s.02.07.03.14c.11-.04.24-.1.34-.14h-.37Z"/><path class="cls-3" d="M2251.36,2868.01c-6.81-12.73-14.79-53.65-30.75-135.49-6.33-32.45-13.69-73.54-20.73-121.6-2.89,3.3-41.26,26.56-48.46,28.39-32.34,8.22-64.6-.89-74.17-3.86-2.13,10.85-2.63,17.23-2.67,21.1,0,.76-.2,2.86-.2,5.74,0,1.78-.37,5.44-1.24,10.1-.62,3.66-.86,3.66-2.72,11.43-1.98,8.1-2.1,9.99-3.71,13.76-.47,1.07-.92,2.02-1.33,2.85-.9,1.79-1.64,3.06-1.75,3.26-1.48,2.57-10.71,21.56-13.98,30.55-7.53,20.73-4.54,46.68-3.78,53.3,3.14,27.31,10.51,26.74,12.1,52.16.58,9.34-.49,20.84-2.65,43.85-1.94,20.76-2.91,31.13-4.16,37.42-3.91,19.75-8.46,27.89-3.78,38.55.92,2.1,4.34,9.9,12.47,13.23,5.48,2.24,10.79,1.52,12.85,1.13,4.24-.8,7.33-2.59,9.07-3.78.62-.52,1.54-1.3,2.65-2.27,2.93-2.58,5.12-4.73,5.67-5.29,8.01-8.08,10.96-18.14,10.96-18.14,1.08-3.7.6-4.26,1.51-11.34,1.25-9.77,3.13-16.19,4.16-20.41,3.54-14.6,1.38-21.51,3.78-39.31,0,0,2.01-14.95,29.22-70.66.28-.58.98-1.98,1.61-1.89,1.36.21,1.31,7.38,1.31,8.66-.12,17.9-26.17,36.09-21.92,46.87,1.98,5.04,8.13,2.25,19.28,10.58,8.69,6.5,13.15,14.32,16.63,20.41,1.74,3.05,6.66,12.12,9.45,25.32,4.08,19.32.94,34.96-1.89,48.38-2.3,10.9-6.73,26.31-15.88,43.47-2.06,7.02-5.74,17.51-12.47,29.1-12.02,20.7-28.29,35.51-32.13,38.93-15.33,13.66-30.04,21.75-27.97,28.73,1.2,4.05,7.49,5.86,7.42,11.06-.04,2.54-1.59,4.57-2.72,5.77l.49,2.89c0,.44.25,1,.49,1.44,1.25,2.25,4.74,1.72,8.03,2.33,5.29.98,5.53,3.84,9.72,4.86,4.55,1.11,6.82-1.64,13.23-3.78,13.93-4.64,27.95.11,27.94.92,0,.03-.02.04-.13.35-.1.27-.23.64-.36,1.09-.93,3.14-.85,5.92-.61,7.85.88,1.39,1.76,2.77,2.65,4.16,3.82,1.93,9.51,4.02,15.88,3.02,15.2-2.39,22.58-20.54,35.95-48.43,27.77-57.96,28.84-48.34,36.52-72.07,11.87-36.71,2.88-39.87,16.34-71.11,7.89-18.32,15.39-27.46,15.71-45.05.34-18.54-7.56-32.3-10.91-38.55Z"/><path class="cls-1" d="M265.42,1888.37c-26.41,51.23-27.43,52.87-31.22,61.69-8.08,18.83-22.43,52.87-28.99,97.36-1.83,12.43-1.12,12.54-3.72,30.47-5.01,34.57-8.29,38.54-11.89,67.63-1.8,14.55-1.77,19.9-4.46,37.9-1.26,8.44-2.36,16.35-4.46,26.76-2.85,14.11-4.49,18.15-7.59,31.92-1.73,7.7-3.23,15.35-5.96,32.2-6.24,38.47-9.54,65.6-9.54,65.6-9.5,78.02-20.28,140.75-20.28,140.75-4.08,24.5-10.54,60.25-20.28,103.77,9.01,7.83,31.42,25.15,65.13,30.07,25.76,3.76,46.61-1.39,57.72-5.02,3.66-14.03,9.86-34.64,20.28-58.45,11.98-27.36,23.58-45.34,32-59.17,17.68-29.03,13.31-30.31,54.26-107.02,43.33-81.17,65.19-122.28,75.07-147.9,5.92-15.35,14.6-41.95,31.96-95.13,2.64-8.09,9.51-24.8,13.38-48.31,3.65-22.16,5.76-38.66,6.4-46.47,1.92-23.49,5.74-59.76,14.17-115.55-22.09,2.36-59.98,2.8-98.75-16.2-24.18-11.85-40.7-27.34-50.4-36.57-19.92-18.95-33-37.99-41.2-51.89-7.09,13.83-18.08,35.25-31.64,61.55Z"/><path class="cls-2" d="M309.35,1812.42c-1.8,10.67-3.81,20.89-5.94,30.65,10.98,15.96,32.55,42.69,68.58,63.3,49.97,28.58,98.02,28.37,117.96,27.14,13.89-26.02,30.34-56.8,40.71-76.21,49.38-92.34,63.24-117.91,75.44-158.09,5.06-16.68,12.49-44.6,13.61-48.82,6.73-25.29,12.81-50.03,18.31-74.17,1.52-1.39,3.41-3.55,4.22-6.57.79-2.94.21-5.35,0-6.57-1.25-7.21,3.56-12.65,6.1-19.72,1.76-4.9,3.05-12.32.47-23,1.57-16.52,2.61-34.24,2.82-53.04.12-11.21,5.28-307.3,5.28-307.3-.44-23.5-.77-47.18-.98-71.05-.31-34.2-.37-68.03-.2-101.48-4.49.19-11.36.71-19.64,2.31-5.24,1.01-8.49,1.96-16.7,4.18-16.1,4.34-16.42,4.13-24.01,6.26-14.14,3.97-25.85,8.27-31.32,10.44-26.68,10.59-46.44,26.64-52.2,31.32-41.14,33.42-58.79,77.26-73.08,112.74-2.91,7.22-12.43,31.5-19.83,64.72-7.48,33.56-9.07,59.58-10.44,83.51-1.8,31.6-1.47,62.73-1.04,103.35.33,31.56.93,38.07-2.09,51.15-4.19,18.2-8.52,19.39-23.6,62.14-4.2,11.89-6.15,18.29-11.07,30.12-5.24,12.6-7.29,15.6-9.88,23.99-4.08,13.24-2.59,18.4-4.95,30.7-2.88,15.04-7.77,22.43-13.13,34.7-5.49,12.59-8.88,29.27-15.66,62.64-3.81,18.77-8.37,43.52-12.53,73.08-1.3,11.96-3.01,24.51-5.22,37.58Z"/><path class="cls-1" d="M1433.15,873.03c-5.2-3.06-12.51-7.56-20.97-13.44-17.07-11.86-36.14-26.04-51.32-43.99-24.4-28.85-27.71-65.45-30.45-95.87-1.68-18.62-.98-34.24,0-45.12-8.88,4.7-14.91,9.89-18.61,13.53-.86.85-4.16,4.15-7.9,9.02-4.03,5.26-6.42,9.55-6.77,10.15-11.54,20.02-60.91,43.99-60.91,43.99-28.41,13.85-42.62,20.78-51.94,22.66-66.81,13.44-143.05-36.83-152.14-66.81-1.11-3.68-5.02-19.58-14.84-21.76-2.9-.64-5.58.07-6.92.66-13.61,5.99,3.42,46.77-7.91,86.71-8.49,29.93-29.92,48.85-50.77,67.26-22.25,19.64-44.2,30.92-59.02,37.26,27.78,22.52,129.04,99.02,278.98,98.25,143.89-.73,241.56-72.16,270.37-94.95l-8.88-7.57Z"/><path class="cls-5" d="M1732.9,1730.2c26.4,70.3,59.3,136.9,98.7,199.7,3.2,5.1,6.8,18.2,10.8,39.2,2.1,10.9,3.2,24.3,3.6,40.3,2.2,100.1,28.4,199.6,78.5,298.6,46,90.9,84.4,153.4,120.1,237.2,12.5,29.4,21.5,59.5,26.8,90.3l-2.3,2.3c-1.6,1.6-4.2,1-5.9-1.4-.6-.9-1-1.9-1.2-3-9.6-60.2-39-122.6-70.8-179.9-43.2-77.9-75.5-141.2-96.8-189.9-21.3-48.8-35.6-93.6-42.7-134.3-3.9-22.4-7.2-39.3-10-50.6-8.2-33.9-6.9-73.5-9.3-108.1-.2-3-.7-5.9-1.6-8.8-5.4-17.8-8.8-27.9-10.2-30.3-26.7-49.4-49.2-91.3-67.5-125.8-13.2-24.8-20-50-20.3-75.6h0l.1.1Z"/><path class="cls-5" d="M632.9,3552.1c19,59.1,36.3,118.3,52.2,177.6,7,26,12.1,52.5,15.4,79.4l-1.8,11.8c-.2,1.3-1.5,2.2-2.9,2-.5,0-.9-.3-1.3-.6l-2.5-2.5c-.4-.4-.7-.9-.7-1.5-1.8-26.1-3.6-42-5.3-47.8-22.3-72.1-40.1-144.9-53.2-218.3h0l.1-.1Z"/><g class="cls-4"><path class="cls-1" d="M818.92,990.59c-.63,0-1.14.2-1.27.7h0v.3c-.38,1.51.63,3.01,2.53,3.41,65.04,14.05,60.35,4.22-1.27-4.42Z"/><path class="cls-1" d="M1162.38,1663.15c106.76,8.69,336.8,11.45,467.33-137.95,8.37-9.59,16.43-19.9,24.07-31.02,17.37-24.89,29.5-41.78,32.69-44.86,0,0,3.93-3.82,3.86-7.1,0-.14-.02-.41-.18-4.41,0,0-.05-1.34-.19-4.8-.11-2.82-.83-21.16-1.84-47.18.3-14.83.43-29.94.37-45.34-.04-10.33-.17-20.53-.37-30.6-.69-41.21-1.82-69.6-2.78-88.49-.31-6.14-1.21-23.16-2.02-46.42-.47-13.52-.75-24.67-.92-32.16-1.39-28.95-.72-52.26.2-68.59.47-8.37,1.49-21.45,3.53-47.62,1.29-16.53,2.38-30.17,3.14-39.46-12.6-1.55-31.01-4.51-52.58-10.7-34.14-9.8-55.93-21.86-101.9-46.53-19.22-10.32-51.14-27.38-92.75-49.3-28.78,22.9-124.76,93.36-266.31,94.99-150.79,1.74-252.8-75.79-280.16-98.05-39.81,28.72-91.79,59.67-156.23,83.65-23.41,8.71-45.89,15.54-67.05,20.91-5.51,1.8-11.03,3.6-16.54,5.39.22,14.69.52,35.94.86,61.55,1.3,97.89,1.33,125.75.5,145.41-.16,3.81-.3,6.31-.5,9.76-5.06,86-29.66,212.63-18.12,228.42.58.79,4.48,5.72,7.88,13.39,1.93,4.36,2.88,7.74,3.15,8.66,1.78,6.03,7.23,16.57,23.02,36.4,9.41,10.67,19.42,21.02,30.07,31.02,141.83,133.03,338.44,146.28,459.78,141.05ZM1208.2,1058.2c5.22-10.33-11.67-.92-11.85-1.08-.03-.03,4.63-3.54,11.62-8.56,17.22-12.35,2.73,2.08.23,9.64ZM819.19,990.63c.14.02.27.04.4.06,60.69,8.44-.49-.07-.4-.06Z"/></g><path class="cls-2" d="M1728.23,3233.83c1.37-25.77,4.66-100.09-1.81-196.65-2.5-37.26-6.61-80.3-15.26-140.29-22.2-154.1-58-307.05-81.68-401.07-59.25,92.97-133.37,196.08-225.5,302.31-75.92,87.54-151.18,162.34-221.42,225.6,7.33,91.98,18.83,165.78,27.76,215.36,20.66,114.67,36.15,147.18,60.05,288.75,3.73,22.07,13.33,80.41,22.7,156.64,7.45,60.64,12.76,116.37,16.58,166.26,36.63,13.15,95.77,29.26,169.56,27.31,60.36-1.6,109.44-14.72,142.85-26.55.18-14.4,1-35.28,4.08-60.24,4.89-39.68,12.17-68.62,17.27-84.79,14.57-46.15,21.45-94.39,33.07-141.37,12.29-49.7,43.43-175.56,51.73-331.27Z"/><path class="cls-3" d="M1159.98,2482.81c-50.85.82-135.37,1.48-239.07-31.06-82.06-25.76-143.99-62.22-184.07-89.8.31,1.25,1.04,2.39,1.97,3.32,38.62,36.64,74.74,76.09,108.58,118.23,104.43,130.38,192.45,270.62,263.98,420.83,1.25,2.6,29.05,32.99,30.04,31.64,12.21.16,24.41.32,36.62.49,1.69,2.4,36.32-43.02,37.56-45.72,48.32-98.31,103.33-192.02,164.99-281.1,37.27-53.85,71.28-97.36,96.49-128.93,37.86-47.39,101.65-119.47,106.83-125.14-40.85,26.6-100.18,59.86-176.57,85.72-30.8,10.43-123.01,39.52-247.35,41.52Z"/><path class="cls-2" d="M1586.65,2353.76c-10.12-21.3-13.3-39-14.42-50.73-3.78-39.56,6.79-106.32,6.7-116.86-.07-8.28-.29-7.71-.96-25.86-1.69-45.88-1.53-83.98-.96-112.07,1.05-41.85,5.99-104.78,25.86-178.16,21.8-80.53,44.78-111.58,63.44-176.93,15.01-52.58,28.19-130.71,14.1-235.18-70.17,98.64-147.19,143.55-191.28,164.19-84.04,39.35-164.95,39.89-326.77,40.98-141.29.95-212.52-15.95-249.09-26.25-87.87-24.74-136.17-56.54-151.33-66.96-51.74-35.56-86.05-75.48-106.82-103.72-23.83,103.67-12.22,168.01,3.7,208.18,4.05,10.2,10,22.95,20.09,49.55,5.9,15.56,16.02,43.25,40.18,127.22,27.2,94.55,30.42,115.25,32.14,135.26,1.26,14.68,1.91,31.09,2.68,50.89,1.9,48.56.88,71.01,0,84.37-.97,14.8-1.32,11.55-2.68,29.46-2.56,33.71-4.75,62.55-1.34,96.42,3.42,33.97,8.79,36.45,5.29,53.54-2.72,13.27-9.79,35.53-13.13,45.62-2.1,6.35-3.93,11.59-5.22,15.21,36.67,25.55,87.86,55.72,153.16,79.29,79.53,28.71,150.28,36.93,200.2,38.75v-14.64c-.21-2.03-.32-4.06-.32-6.08v-405.88c0-28.95,21.18-52.95,48.06-55.76,1.94-.23,3.87-.34,5.81-.34,29.46,0,53.54,25.23,53.54,56.1v427.62c38.59-1.72,82.31-6.58,129.6-16.98,113.44-24.94,200.92-71.54,259.77-110.26Z"/><path class="cls-2" d="M2019.81,1794.4c-2.39-8.85-6.13-23.4-9.9-41.59-9.63-46.41-6.47-53.82-15.84-91.1-5.72-22.73-8.9-27.98-10.89-45.55-1.2-10.58-1.13-18.31-4.95-30.7-2.59-8.39-4.64-11.39-9.88-23.99-3.62-8.71-6.16-15.97-11.07-30.12-13-37.41-19.5-56.12-21.26-69.53-1.82-13.88-.75-20.59,0-40.3,1.05-27.57-.63-56.32-3.99-113.82-2.64-45.24-4.06-68.26-8.86-88.13-6.57-27.19-15.15-46.49-22.14-62-14.76-32.73-40.51-89.84-85.48-120.02-9.85-6.61-28.95-17.52-48.27-26.13-12.89-5.74-22.67-9.03-24.8-9.74-4.44-1.48-1.39-.32-23.03-6.64-5.98-1.75-8.71-2.56-12.84-3.1-6.99-.91-12.87-.34-16.82.3-9.27,78.53-9.38,138.52-7.63,179.53,0,0,5.16,296.09,5.28,307.3.21,18.8,1.24,36.53,2.82,53.04-2.59,10.68-1.29,18.11.47,23,2.54,7.07,7.35,12.5,6.1,19.72-.21,1.22-.79,3.63,0,6.57.82,3.03,2.7,5.19,4.22,6.57,5.5,24.14,11.58,48.88,18.31,74.17,4.42,16.63,8.97,32.9,13.61,48.82,6.84,33.02,16.87,56.91,24.88,72.76,2.5,4.95,2.12,3.81,10.33,19.25,20.32,38.24,19.51,39.35,30.98,60.09,15.11,27.3,22.67,40.96,27.23,48.35,4.57,7.4,7.98,12.43,9.86,20.65,1.18,5.17,1.41,10.12,4.28,17.6,1.66,4.32,3.5,7.67,4.8,9.82,16.62,1.73,68.34,4.97,120.34-27.29,41.93-26.01,62.17-61.52,70-77.37-3.43-6.43-7.01-14.38-9.9-23.77-4.39-14.25-5.71-26.98-5.94-36.64Z"/><ellipse class="cls-1" cx="636.45" cy="1375.65" rx="134.3" ry="143.5"/><ellipse class="cls-1" cx="1673.58" cy="1375.65" rx="134.3" ry="143.5"/><path class="cls-1" d="M1196.53,2478v-427.62c0-30.87-24.08-56.1-53.54-56.1-1.94,0-3.87.11-5.81.34-26.88,2.82-48.06,26.81-48.06,55.76v405.88c0,2.03.11,4.06.32,6.08v14.64c-.76-.02-1.54-.05-2.31-.08v3.28c6.81.46,15.86,1.14,26.59,1.6,9.83.46,25.69,1.14,46.25,1.03,10.39,0,23.35-.34,38.43-1.25v-3.65c-.62.03-1.25.06-1.87.09Z"/><path class="cls-2" d="M646.28,3564.35c13.34,47.62,24.11,95.93,37.35,143.58,4.1,14.76,12.77,46.03,18.68,88.72,2.85,20.58,4.21,37.83,4.93,49.89,31.51,14.42,91.94,36.93,170.21,34.4,62.49-2.02,111.43-19.2,140.99-32.29,2.85-40.39,6.97-90.6,13.05-148.23,2.35-22.31,9.38-88.35,19.83-159.45,18.42-125.25,32.28-162.84,54.25-283.05,9.88-54.05,22.86-132.82,33.7-230.13-70.24-63.26-145.5-138.06-221.42-225.6-92.13-106.23-166.25-209.35-225.5-302.31-22.17,96.62-53.09,243.59-72.93,395.6-9.71,74.41-13.71,126.66-15.18,147.08-3.61,50.51-8.24,115.18-5.84,192.61,1.94,62.63,10.4,195.41,47.86,329.19Z"/></svg>