<?xml version="1.0" encoding="UTF-8"?>
<svg id="_Слой_1" xmlns="http://www.w3.org/2000/svg" version="1.1" viewBox="0 0 2200 5500">
  <!-- Generator: Adobe Illustrator 29.1.0, SVG Export Plug-In . SVG Version: 2.1.0 Build 142)  -->
  <defs>
    <style>
      .st0 {
        fill: #9bc8ec;
        stroke: #9bc8ec;
        stroke-miterlimit: 10;
        stroke-width: 4px;
      }
    </style>
  </defs>
  <path class="st0" d="M1049.6,3490.1c-30.1,7.5-169.1,39.4-243-37-25.7-26.5-32.9-55.3-43.6-99.1-41.8-171.1-2-440.3-2.9-445.9,0-.3-.6-3.6,0-7.7.2-1.4.5-2.7,1-4.5,1.3-4.2,3.5-5.7,4.1-6,0,0,.2-.1.2-.1.7-.4,2.2-.8,11.5-2.6,6.1-1.2,8.4-1.7,8.4-1.7,14-2.7,14.8-2.8,15.1-2.9,0,0,0,0,0,0,1.1-.3,18.1-20,25.3-28.3.6,5.2,1.4,12.7,2.5,21.7,1.8,15.4,3.3,27.4,3.6,29.4,2.1,16.6,7.5,47.6,13.8,69.6,5.7,20,18.1,53.3,47.3,92.4,17.7,15.1,35.4,30.1,53.1,45.2,22,9.5,56.8,23.9,100.6,39,46.2,16,86.6,28.5,166,50,55.4,15,127.4,33.9,212.9,54.8-20.2,9.8-35.8,10.8-46.8,9.6-12.2-1.3-19.2-5.4-38.9-6.2-7.2-.3-11.4,0-19.7-1.1-10.4-1.5-12.7-3.3-24.2-5.6-11.4-2.3-11.5-1-26.5-3.4-10.2-1.6-8.4-1.9-27.6-5.6-15.5-3-22.8-4-30.4-4.5-6.2-.4-9.4-.7-14-.4-3.6.2-12.9,1.1-26.7,6.9-13.5,5.7-27.6,11.6-37.4,25.5-1.5,2.1-3.8,5.8-9.7,23.2-7,20.6-10.9,36.7-12.4,42.8-9.7,39.8-14.6,59.7-16.9,63.1-8.7,12.9-18.9,19.4-28.2,40-2.3,5.2-4.5,11.1-5.6,14.1-5.7,14.7-8.9,27-10.8,35.2h0Z"/>
  <path class="st0" d="M1459.2,1575.7c-53.3,31.4-186.1,99.8-366.8,93.9-159.2-5.2-275.3-65.4-328.4-97.5,8.8-43.8,13-81.3,15.1-110.1,2.3-31.2,2.3-54.8,2.2-62.2-.1-28.5-1.8-46.5-4-76.9-1.8-23.9-4.1-58.6-6.2-101.5,17.8,21.9,64,77.6,115.9,127.7,29.1,28.1,51.3,46.1,72.1,60.9,14.2,10.1,21.2,15.2,30.9,20.5,45.1,24.9,89.2,26.7,118.4,27.6,29.6.9,62.1,1.8,100-13.4,21.2-8.5,34.5-18.2,58.7-36.1,27-20,54.3-43.3,92.2-81.8,25.3-25.8,57.6-60.7,93.1-104.6-2.7,25.5-3.8,46.3-4.3,60.7-.2,5.4-.2,6.3-.9,43.1-.5,25.2-.8,37.8-.9,43.1-1,37.6-2,40.2-2.3,60.2-.2,11.3-.2,34.7,2.2,62.4,1.8,21.8,5.5,50.5,13.3,83.9h0Z"/>
</svg>