<?xml version="1.0" encoding="UTF-8"?><svg id="_Слой_1" xmlns="http://www.w3.org/2000/svg" viewBox="0 0 2200 5500"><defs><style>.cls-1,.cls-2,.cls-3,.cls-4,.cls-5{fill:#d4ddeb;}.cls-2{opacity:.25;}.cls-3{opacity:.5;}.cls-4{opacity:.51;}.cls-5{opacity:.75;}</style></defs><path class="cls-5" d="M1414.99,5337.75c-213.09-.39-426.18-.77-639.27-1.16.02-3.02.06-7.67.11-13.35.4-44.02,1.01-65.6,1.31-90.61.31-25.55.54-44.26,0-69.6-.63-29.17-1.35-59.69-5.78-99.01-1.17-10.4-3.58-26.54-8.4-58.83-4.44-29.75-6.96-44.63-11.29-63.03-3-12.76-5.58-21.72-7.62-28.89-18.24-64.26-19.97-80.83-33.09-124.23-5.37-17.75-13.69-43.44-25.74-74.33,16.33,16.96,27.13,32.22,33.88,42.81,10.23,16.05,10.55,20.41,29.41,52,9.17,15.35,5.82,8.85,19.7,31.52,12.32,20.12,13.6,23.04,18.38,26.79,7.91,6.2,19.86,6.85,43.75,8.13,35.43,1.91,54.92-2.95,63.26-5.27,14.56-4.06,16.03-6.41,47.3-19.01,0,0,26.56-10.7,48.19-18.05,41.48-14.11,79.25-14.3,112.66-14.46,46.32-.23,75.77-.38,112.29,12.57,16.1,5.71,65.03,25.12,93.65,34.25,6.32,2.02,16.44,5.06,29.64,6.86,7.91,1.08,15.2,1.47,21.52,1.81,10.34.56,15.51.84,21.24.43,13.96-.99,21.73-.98,27.75-6.5,1.84-1.69,3.24-3.85,6.02-8.17,4.45-6.9,5.45-10.57,8.19-15.76,4.85-9.15,7.42-8.43,13.38-17.56,4.96-7.61,3.61-8.79,9.94-22.46,4.92-10.62,9.59-18.24,13.87-25.21,6.5-10.61,10.43-15.54,15.13-22.38,6.16-8.97,14.46-22.45,22.64-40.97.94,27.22-3.67,47.48-8.09,61.02-5.06,15.47-9.53,21.1-17.19,45.66-3.71,11.9-4.14,15.31-10,36.94-5.98,22.03-10.22,35.77-12.7,44.25-3.7,12.67-15.4,52.71-21.55,99.66-5.35,40.86-4.13,68.82-11.54,108.12-.74,3.91-1.54,7.82-2.31,13.85-2.45,19.22-.57,28.67-1.54,58.87-.17,5.38-.19,3.87-.38,9.62-.63,19.04-.22,30.64.38,57.33.56,24.71.84,37.07.77,38.86-.36,8.95-1.19,19.8.38,35.01.54,5.27,1.22,9.58,1.72,12.47Z"/><path class="cls-4" d="M773.44,5085.24c-1.48-.06-2.54-1.32-7.21-7.49-2.17-2.86-4.65-6.16-7.37-9.83-8.31-14.9-24.43-45.65-34.41-80.12-4.93-17.04-7.59-32.28-7.86-33.92-2.41-14.08-2.71-21.94-3.93-35.88-1.17-13.39-4.9-52.04-14.26-94.87-2.02-9.24-3.87-16.74-5.09-21.49.95-1.67,2.72-4.28,5.78-6.45,1.9-1.36,7.23-5.15,13.57-3.37,7.21,2.02,9.65,9.57,9.83,10.17,9.41,33.98,18.47,69.22,27.04,105.68,13.29,56.57,24.24,111.14,33.24,163.38-.69,2.22-4.6,14.38-9.32,14.19Z"/><path class="cls-4" d="M1431.12,5087.7c1.48-.06,2.54-1.32,7.21-7.49,2.17-2.86,4.65-6.16,7.37-9.83,8.31-14.9,24.43-45.65,34.41-80.12,4.93-17.04,7.59-32.28,7.86-33.92,2.41-14.08,2.71-21.94,3.93-35.88,1.17-13.39,4.9-52.04,14.26-94.87,2.02-9.24,3.87-16.74,5.09-21.49-.95-1.67-2.72-4.28-5.78-6.45-1.9-1.36-7.23-5.15-13.57-3.37-7.21,2.02-9.65,9.57-9.83,10.17-9.41,33.98-18.47,69.22-27.04,105.68-13.29,56.57-24.24,111.14-33.24,163.38.69,2.22,4.6,14.38,9.32,14.19Z"/><path class="cls-2" d="M1049.59,3490.05c-30.08,7.51-169.06,39.41-242.98-36.98-25.68-26.53-32.92-55.33-43.61-99.05-41.81-171.13-2.05-440.33-2.86-445.92-.05-.32-.57-3.56-.06-7.72.17-1.37.48-2.74,1-4.46,1.26-4.17,3.55-5.66,4.12-6.01.09-.06.16-.1.24-.14.7-.36,2.2-.75,11.45-2.62,6.12-1.24,8.38-1.68,8.38-1.68,13.98-2.7,14.76-2.8,15.11-2.89,0,0,.04-.01.09-.03,1.09-.31,18.14-20.01,25.28-28.3.58,5.16,1.43,12.66,2.5,21.7,1.81,15.41,3.31,27.38,3.57,29.45,2.1,16.59,7.55,47.65,13.83,69.62,5.73,20.03,18.11,53.31,47.26,92.45,17.7,15.07,35.41,30.15,53.11,45.23,22.03,9.5,56.85,23.87,100.56,39.04,46.15,16.02,86.58,28.49,165.97,49.99,55.42,15.01,127.44,33.93,212.87,54.81-20.18,9.84-35.84,10.78-46.76,9.58-12.21-1.34-19.17-5.43-38.87-6.2-7.18-.28-11.36.07-19.72-1.13-10.45-1.49-12.67-3.28-24.22-5.63-11.45-2.33-11.5-1.03-26.48-3.38-10.25-1.61-8.44-1.94-27.6-5.63-15.47-2.98-22.85-3.96-30.42-4.51-6.21-.45-9.44-.68-13.99-.39-3.64.24-12.93,1.12-26.73,6.91-13.53,5.68-27.59,11.57-37.41,25.5-1.49,2.11-3.83,5.75-9.74,23.18-6.97,20.57-10.91,36.72-12.39,42.81-9.71,39.75-14.61,59.7-16.9,63.09-8.73,12.93-18.92,19.42-28.17,40-2.34,5.2-4.48,11.12-5.63,14.08-5.7,14.68-8.95,27.04-10.81,35.22Z"/><path class="cls-5" d="M1396.77,3244.56c-.98,2.52-10.34,3.35-121.85-26.03-138.94-36.61-106.15-33.08-192.83-55.6,0,0-138.86-36.07-175.3-81.31-.03-.04-2.28-2.82-5.34-6.62-1.99-2.47-4.72-5.85-8.52-10.53-5.98-7.36-16.07-17.55-25.45-32.39-13.23-20.94-13.94-28.73-14.05-32.09-.21-6.06-11.57-24.42-13.71-32.68-2.38-9.2-2.34-43.47-5.29-84.49-.15-2.09-.44-5.42-.46-9.95-.04-10.48,1.49-18.23,2.08-45.17.2-9.27.19-16.84.15-21.68-.1-51.16-.21-102.32-.31-153.48,40.18-1.64,80.37-3.27,120.55-4.9-2.14,10.36-4.35,248.27-4.11,253.54,5.37,116.24,451.92,324.12,444.45,343.39Z"/><path class="cls-1" d="M1362.77,3193.49c-24.98-11.75-60.82-29.27-103.08-52.36-93.78-51.23-145.79-89.77-167.35-106.3-58.89-45.15-86.15-70.48-99.29-102.48-14.47-35.22-8.82-57.38-6.56-208.06.44-29.47.6-53.63.66-69.37,70.69,24.8,142.78,51.26,216.11,79.52,51.64,19.9,102.21,40.04,151.69,60.35,19.35,35.21,56.32,113.93,53.28,219.12-2.37,82.25-28.17,145.08-45.48,179.57Z"/><path class="cls-4" d="M1459.15,1575.71c-53.34,31.39-186.1,99.84-366.82,93.94-159.15-5.19-275.3-65.42-328.42-97.46,8.83-43.82,13.01-81.34,15.09-110.1,2.26-31.15,2.26-54.81,2.22-62.22-.13-28.47-1.78-46.46-4.01-76.92-1.75-23.95-4.08-58.56-6.22-101.46,17.81,21.88,64.04,77.64,115.87,127.71,29.09,28.09,51.31,46.06,72.1,60.92,14.15,10.11,21.22,15.17,30.87,20.51,45.06,24.94,89.18,26.7,118.35,27.56,29.64.86,62.1,1.81,100.04-13.41,21.19-8.5,34.54-18.22,58.7-36.07,27.04-19.99,54.34-43.31,92.2-81.85,25.29-25.75,57.64-60.66,93.07-104.63-2.74,25.53-3.85,46.27-4.35,60.65-.19,5.4-.17,6.35-.93,43.1-.52,25.17-.78,37.75-.93,43.1-1.03,37.55-2.03,40.22-2.32,60.25-.16,11.28-.2,34.71,2.15,62.44,1.85,21.8,5.53,50.49,13.32,83.95Z"/><path class="cls-1" d="M1279.25,1399.26c-15.07,13.16-41.7,33.13-79.9,46.26-12.64,4.35-46.53,14.81-91.17,12.66-49.08-2.37-84.27-18.69-102.76-27.5-30.41-14.48-52.93-31.58-67.81-44.58,1.07-73.33,2.15-146.66,3.22-219.99.36-.06.9-.2,1.48-.55.84-.52,1.28-1.21,1.47-1.55,0,0,.25.18.51.36.63.45,26.17,17.22,41.55,25.09,65.12,33.28,119.98,35.01,119.98,35.01,23.89.75,58.32,1.82,92.52-15.37,12.65-6.36,28.85-17.79,63.81-35.58,9.46-4.81,17.36-8.62,22.71-11.15-1.87,78.97-3.74,157.94-5.61,236.9Z"/><path class="cls-3" d="M1159.08,1031.58c-14.08-3.11-50.75-9.71-95.66.79-69.93,16.36-109.97,62.52-122.6,78.45v55.29c6.15-.73,15.82-2.3,27.07-6.07,16.09-5.39,20.92-10.43,47.16-24.57,29.18-15.73,38.17-17.57,42.08-18.25,8.67-1.52,19.69-3.45,33.01-.35,9.81,2.28,12.47,5.33,21.04,5.26,9.86-.08,13.25-4.17,24.3-7.02,11.35-2.92,20.62-1.92,28.66-1.05,4.75.51,15.49,2.09,48.25,19.65,23.6,12.66,27.7,17.02,44.62,23.87,10.77,4.36,19.98,6.99,26.05,8.52v-55.29c-12.1-15.54-52.64-63.46-123.97-79.24Z"/><path class="cls-1" d="M1116.48,768.11h0c-38.55,0-84.64-153.4-82.15-158.47,18.54-37.7,140.12-42.78,161.26,4.32,2.82,6.29-40.56,154.15-79.11,154.15Z"/></svg>