<?xml version="1.0" encoding="UTF-8"?>
<svg id="_Слой_1" xmlns="http://www.w3.org/2000/svg" version="1.1" viewBox="0 0 2200 5500">
  <!-- Generator: Adobe Illustrator 29.1.0, SVG Export Plug-In . SVG Version: 2.1.0 Build 142)  -->
  <defs>
    <style>
      .st0 {
        isolation: isolate;
        opacity: .5;
      }

      .st0, .st1 {
        fill: #9bc8ec;
        stroke: #9bc8ec;
        stroke-miterlimit: 10;
        stroke-width: 4px;
      }
    </style>
  </defs>
  <path class="st0" d="M773.4,5085.2c-1.5,0-2.5-1.3-7.2-7.5-2.2-2.9-4.7-6.2-7.4-9.8-8.3-14.9-24.4-45.6-34.4-80.1-4.9-17-7.6-32.3-7.9-33.9-2.4-14.1-2.7-21.9-3.9-35.9-1.2-13.4-4.9-52-14.3-94.9-2-9.2-3.9-16.7-5.1-21.5,1-1.7,2.7-4.3,5.8-6.5,1.9-1.4,7.2-5.1,13.6-3.4,7.2,2,9.7,9.6,9.8,10.2,9.4,34,18.5,69.2,27,105.7,13.3,56.6,24.2,111.1,33.2,163.4-.7,2.2-4.6,14.4-9.3,14.2h0Z"/>
  <path class="st0" d="M1431.1,5087.7c1.5,0,2.5-1.3,7.2-7.5,2.2-2.9,4.7-6.2,7.4-9.8,8.3-14.9,24.4-45.6,34.4-80.1,4.9-17,7.6-32.3,7.9-33.9,2.4-14.1,2.7-21.9,3.9-35.9,1.2-13.4,4.9-52,14.3-94.9,2-9.2,3.9-16.7,5.1-21.5-.9-1.7-2.7-4.3-5.8-6.5-1.9-1.4-7.2-5.1-13.6-3.4-7.2,2-9.7,9.6-9.8,10.2-9.4,34-18.5,69.2-27,105.7-13.3,56.6-24.2,111.1-33.2,163.4.7,2.2,4.6,14.4,9.3,14.2h0Z"/>
  <path class="st1" d="M1396.8,3244.6c-1,2.5-10.3,3.4-121.8-26-138.9-36.6-106.2-33.1-192.8-55.6,0,0-138.9-36.1-175.3-81.3,0,0-2.3-2.8-5.3-6.6-2-2.5-4.7-5.9-8.5-10.5-6-7.4-16.1-17.6-25.5-32.4-13.2-20.9-13.9-28.7-14-32.1-.2-6.1-11.6-24.4-13.7-32.7-2.4-9.2-2.3-43.5-5.3-84.5-.2-2.1-.4-5.4-.5-9.9,0-10.5,1.5-18.2,2.1-45.2.2-9.3.2-16.8.2-21.7,0-51.2-.2-102.3-.3-153.5,40.2-1.6,80.4-3.3,120.5-4.9-2.1,10.4-4.3,248.3-4.1,253.5,5.4,116.2,451.9,324.1,444.4,343.4h0Z"/>
</svg>