<?xml version="1.0" encoding="UTF-8"?>
<svg id="_Слой_1" xmlns="http://www.w3.org/2000/svg" version="1.1" viewBox="0 0 2200 5500">
  <!-- Generator: Adobe Illustrator 29.1.0, SVG Export Plug-In . SVG Version: 2.1.0 Build 142)  -->
  <defs>
    <style>
      .st0 {
        fill: #9bc8ec;
        stroke: #9bc8ec;
        stroke-miterlimit: 10;
        stroke-width: 4px;
      }
    </style>
  </defs>
  <path class="st0" d="M1159.1,1031.6c-14.1-3.1-50.8-9.7-95.7.8-69.9,16.4-110,62.5-122.6,78.4v55.3c6.2-.7,15.8-2.3,27.1-6.1,16.1-5.4,20.9-10.4,47.2-24.6,29.2-15.7,38.2-17.6,42.1-18.2,8.7-1.5,19.7-3.4,33-.3,9.8,2.3,12.5,5.3,21,5.3,9.9,0,13.2-4.2,24.3-7,11.3-2.9,20.6-1.9,28.7-1.1,4.8.5,15.5,2.1,48.2,19.7,23.6,12.7,27.7,17,44.6,23.9,10.8,4.4,20,7,26.1,8.5v-55.3c-12.1-15.5-52.6-63.5-124-79.2h0Z"/>
</svg>