<?xml version="1.0" encoding="UTF-8"?><svg id="_Слой_1" xmlns="http://www.w3.org/2000/svg" viewBox="0 0 2200 5500"><defs><style>.cls-1{fill:#e0cdae;}</style></defs><path class="cls-1" d="M1049.59,3490.05c-30.08,7.51-169.06,39.41-242.98-36.98-25.68-26.53-32.92-55.33-43.61-99.05-41.81-171.13-2.05-440.33-2.86-445.92-.05-.32-.57-3.56-.06-7.72.17-1.37.48-2.74,1-4.46,1.26-4.17,3.55-5.66,4.12-6.01.09-.06.16-.1.24-.14.7-.36,2.2-.75,11.45-2.62,6.12-1.24,8.38-1.68,8.38-1.68,13.98-2.7,14.76-2.8,15.11-2.89,0,0,.04-.01.09-.03,1.09-.31,18.14-20.01,25.28-28.3.58,5.16,1.43,12.66,2.5,21.7,1.81,15.41,3.31,27.38,3.57,29.45,2.1,16.59,7.55,47.65,13.83,69.62,5.73,20.03,18.11,53.31,47.26,92.45,17.7,15.07,35.41,30.15,53.11,45.23,22.03,9.5,56.85,23.87,100.56,39.04,46.15,16.02,86.58,28.49,165.97,49.99,55.42,15.01,127.44,33.93,212.87,54.81-20.18,9.84-35.84,10.78-46.76,9.58-12.21-1.34-19.17-5.43-38.87-6.2-7.18-.28-11.36.07-19.72-1.13-10.45-1.49-12.67-3.28-24.22-5.63-11.45-2.33-11.5-1.03-26.48-3.38-10.25-1.61-8.44-1.94-27.6-5.63-15.47-2.98-22.85-3.96-30.42-4.51-6.21-.45-9.44-.68-13.99-.39-3.64.24-12.93,1.12-26.73,6.91-13.53,5.68-27.59,11.57-37.41,25.5-1.49,2.11-3.83,5.75-9.74,23.18-6.97,20.57-10.91,36.72-12.39,42.81-9.71,39.75-14.61,59.7-16.9,63.09-8.73,12.93-18.92,19.42-28.17,40-2.34,5.2-4.48,11.12-5.63,14.08-5.7,14.68-8.95,27.04-10.81,35.22Z"/><path class="cls-1" d="M1459.15,1575.71c-53.34,31.39-186.1,99.84-366.82,93.94-159.15-5.19-275.3-65.42-328.42-97.46,8.83-43.82,13.01-81.34,15.09-110.1,2.26-31.15,2.26-54.81,2.22-62.22-.13-28.47-1.78-46.46-4.01-76.92-1.75-23.95-4.08-58.56-6.22-101.46,17.81,21.88,64.04,77.64,115.87,127.71,29.09,28.09,51.31,46.06,72.1,60.92,14.15,10.11,21.22,15.17,30.87,20.51,45.06,24.94,89.18,26.7,118.35,27.56,29.64.86,62.1,1.81,100.04-13.41,21.19-8.5,34.54-18.22,58.7-36.07,27.04-19.99,54.34-43.31,92.2-81.85,25.29-25.75,57.64-60.66,93.07-104.63-2.74,25.53-3.85,46.27-4.35,60.65-.19,5.4-.17,6.35-.93,43.1-.52,25.17-.78,37.75-.93,43.1-1.03,37.55-2.03,40.22-2.32,60.25-.16,11.28-.2,34.71,2.15,62.44,1.85,21.8,5.53,50.49,13.32,83.95Z"/></svg>