<?xml version="1.0" encoding="UTF-8"?><svg id="_Слой_1" xmlns="http://www.w3.org/2000/svg" xmlns:xlink="http://www.w3.org/1999/xlink" viewBox="0 0 2200 5500"><defs><style>.cls-1{fill:#020303;stroke:#010101;}.cls-1,.cls-2,.cls-3,.cls-4,.cls-5,.cls-6,.cls-7,.cls-8,.cls-9,.cls-10,.cls-11,.cls-12,.cls-13,.cls-14,.cls-15,.cls-16,.cls-17,.cls-18,.cls-19,.cls-20,.cls-21,.cls-22,.cls-23,.cls-24,.cls-25,.cls-26,.cls-27,.cls-28,.cls-29,.cls-30,.cls-31,.cls-32,.cls-33,.cls-34,.cls-35,.cls-36,.cls-37,.cls-38,.cls-39,.cls-40,.cls-41,.cls-42,.cls-43,.cls-44,.cls-45,.cls-46,.cls-47,.cls-48,.cls-49,.cls-50,.cls-51,.cls-52,.cls-53,.cls-54,.cls-55,.cls-56,.cls-57,.cls-58,.cls-59,.cls-60,.cls-61,.cls-62,.cls-63,.cls-64,.cls-65,.cls-66,.cls-67,.cls-68,.cls-69,.cls-70,.cls-71,.cls-72,.cls-73,.cls-74,.cls-75,.cls-76,.cls-77,.cls-78,.cls-79,.cls-80,.cls-81,.cls-82,.cls-83,.cls-84,.cls-85,.cls-86,.cls-87,.cls-88,.cls-89,.cls-90,.cls-91,.cls-92,.cls-93,.cls-94,.cls-95,.cls-96,.cls-97,.cls-98,.cls-99,.cls-100,.cls-101,.cls-102{stroke-miterlimit:10;stroke-width:4px;}.cls-2{fill:url(#_Безымянный_градиент_101-101);}.cls-2,.cls-3,.cls-4,.cls-5,.cls-6,.cls-7,.cls-8,.cls-9,.cls-10,.cls-11,.cls-12,.cls-13,.cls-14,.cls-15,.cls-16,.cls-17,.cls-18,.cls-19,.cls-20,.cls-21,.cls-22,.cls-23,.cls-24,.cls-25,.cls-26,.cls-27,.cls-28,.cls-29,.cls-30,.cls-31,.cls-32,.cls-33,.cls-34,.cls-35,.cls-36,.cls-37,.cls-38,.cls-39,.cls-40,.cls-41,.cls-42,.cls-43,.cls-44,.cls-45,.cls-46,.cls-47,.cls-48,.cls-49,.cls-50,.cls-51,.cls-52,.cls-53,.cls-54,.cls-55,.cls-56,.cls-57,.cls-58,.cls-59,.cls-60,.cls-61,.cls-62,.cls-63,.cls-64,.cls-65,.cls-66,.cls-67,.cls-68,.cls-69,.cls-70,.cls-71,.cls-72,.cls-73,.cls-74,.cls-75,.cls-76,.cls-77,.cls-78,.cls-79,.cls-80,.cls-81,.cls-82,.cls-83,.cls-84,.cls-85,.cls-86,.cls-87,.cls-88,.cls-89,.cls-90,.cls-91,.cls-92,.cls-93,.cls-94,.cls-95,.cls-96,.cls-97,.cls-98,.cls-99,.cls-100,.cls-101,.cls-102{stroke:#010202;}.cls-3{fill:url(#_Безымянный_градиент_101-100);}.cls-4{fill:url(#_Безымянный_градиент_101-2);}.cls-5{fill:url(#_Безымянный_градиент_101-5);}.cls-6{fill:url(#_Безымянный_градиент_101-3);}.cls-7{fill:url(#_Безымянный_градиент_101-7);}.cls-8{fill:url(#_Безымянный_градиент_101-6);}.cls-9{fill:url(#_Безымянный_градиент_101-9);}.cls-10{fill:url(#_Безымянный_градиент_101-8);}.cls-11{fill:url(#_Безымянный_градиент_101-4);}.cls-12{fill:url(#_Безымянный_градиент_101);}.cls-13{fill:url(#_Безымянный_градиент_101-87);}.cls-14{fill:url(#_Безымянный_градиент_101-84);}.cls-15{fill:url(#_Безымянный_градиент_101-73);}.cls-16{fill:url(#_Безымянный_градиент_101-88);}.cls-17{fill:url(#_Безымянный_градиент_101-85);}.cls-18{fill:url(#_Безымянный_градиент_101-70);}.cls-19{fill:url(#_Безымянный_градиент_101-89);}.cls-20{fill:url(#_Безымянный_градиент_101-86);}.cls-21{fill:url(#_Безымянный_градиент_101-71);}.cls-22{fill:url(#_Безымянный_градиент_101-49);}.cls-23{fill:url(#_Безымянный_градиент_101-34);}.cls-24{fill:url(#_Безымянный_градиент_101-33);}.cls-25{fill:url(#_Безымянный_градиент_101-30);}.cls-26{fill:url(#_Безымянный_градиент_101-35);}.cls-27{fill:url(#_Безымянный_градиент_101-31);}.cls-28{fill:url(#_Безымянный_градиент_101-72);}.cls-29{fill:url(#_Безымянный_градиент_101-32);}.cls-30{fill:url(#_Безымянный_градиент_101-36);}.cls-31{fill:url(#_Безымянный_градиент_101-75);}.cls-32{fill:url(#_Безымянный_градиент_101-39);}.cls-33{fill:url(#_Безымянный_градиент_101-74);}.cls-34{fill:url(#_Безымянный_градиент_101-79);}.cls-35{fill:url(#_Безымянный_градиент_101-77);}.cls-36{fill:url(#_Безымянный_градиент_101-76);}.cls-37{fill:url(#_Безымянный_градиент_101-78);}.cls-38{fill:url(#_Безымянный_градиент_101-61);}.cls-39{fill:url(#_Безымянный_градиент_101-62);}.cls-40{fill:url(#_Безымянный_градиент_101-60);}.cls-41{fill:url(#_Безымянный_градиент_101-96);}.cls-42{fill:url(#_Безымянный_градиент_101-97);}.cls-43{fill:url(#_Безымянный_градиент_101-55);}.cls-44{fill:url(#_Безымянный_градиент_101-56);}.cls-45{fill:url(#_Безымянный_градиент_101-81);}.cls-46{fill:url(#_Безымянный_градиент_101-80);}.cls-47{fill:url(#_Безымянный_градиент_101-99);}.cls-48{fill:url(#_Безымянный_градиент_101-98);}.cls-49{fill:url(#_Безымянный_градиент_101-54);}.cls-50{fill:url(#_Безымянный_градиент_101-52);}.cls-51{fill:url(#_Безымянный_градиент_101-53);}.cls-52{fill:url(#_Безымянный_градиент_101-50);}.cls-53{fill:url(#_Безымянный_градиент_101-51);}.cls-54{fill:url(#_Безымянный_градиент_101-83);}.cls-55{fill:url(#_Безымянный_градиент_101-95);}.cls-56{fill:url(#_Безымянный_градиент_101-94);}.cls-57{fill:url(#_Безымянный_градиент_101-63);}.cls-58{fill:url(#_Безымянный_градиент_101-82);}.cls-59{fill:url(#_Безымянный_градиент_101-69);}.cls-60{fill:url(#_Безымянный_градиент_101-68);}.cls-61{fill:url(#_Безымянный_градиент_101-67);}.cls-62{fill:url(#_Безымянный_градиент_101-66);}.cls-63{fill:url(#_Безымянный_градиент_101-65);}.cls-64{fill:url(#_Безымянный_градиент_101-64);}.cls-65{fill:url(#_Безымянный_градиент_101-18);}.cls-66{fill:url(#_Безымянный_градиент_101-19);}.cls-67{fill:url(#_Безымянный_градиент_101-16);}.cls-68{fill:url(#_Безымянный_градиент_101-17);}.cls-69{fill:url(#_Безымянный_градиент_101-23);}.cls-70{fill:url(#_Безымянный_градиент_101-24);}.cls-71{fill:url(#_Безымянный_градиент_101-47);}.cls-72{fill:url(#_Безымянный_градиент_101-48);}.cls-73{fill:url(#_Безымянный_градиент_101-37);}.cls-74{fill:url(#_Безымянный_градиент_101-22);}.cls-75{fill:url(#_Безымянный_градиент_101-38);}.cls-76{fill:url(#_Безымянный_градиент_101-26);}.cls-77{fill:url(#_Безымянный_градиент_101-21);}.cls-78{fill:url(#_Безымянный_градиент_101-25);}.cls-79{fill:url(#_Безымянный_градиент_101-20);}.cls-80{fill:url(#_Безымянный_градиент_101-93);}.cls-81{fill:url(#_Безымянный_градиент_101-92);}.cls-82{fill:url(#_Безымянный_градиент_101-90);}.cls-83{fill:url(#_Безымянный_градиент_101-91);}.cls-84{fill:url(#_Безымянный_градиент_101-44);}.cls-85{fill:url(#_Безымянный_градиент_101-43);}.cls-86{fill:url(#_Безымянный_градиент_101-45);}.cls-87{fill:url(#_Безымянный_градиент_101-40);}.cls-88{fill:url(#_Безымянный_градиент_101-41);}.cls-89{fill:url(#_Безымянный_градиент_101-59);}.cls-90{fill:url(#_Безымянный_градиент_101-46);}.cls-91{fill:url(#_Безымянный_градиент_101-42);}.cls-92{fill:url(#_Безымянный_градиент_101-58);}.cls-93{fill:url(#_Безымянный_градиент_101-57);}.cls-94{fill:url(#_Безымянный_градиент_101-27);}.cls-95{fill:url(#_Безымянный_градиент_101-11);}.cls-96{fill:url(#_Безымянный_градиент_101-14);}.cls-97{fill:url(#_Безымянный_градиент_101-12);}.cls-98{fill:url(#_Безымянный_градиент_101-13);}.cls-99{fill:url(#_Безымянный_градиент_101-10);}.cls-100{fill:url(#_Безымянный_градиент_101-15);}.cls-101{fill:url(#_Безымянный_градиент_101-28);}.cls-102{fill:url(#_Безымянный_градиент_101-29);}</style><radialGradient id="_Безымянный_градиент_101" cx="1578.97" cy="4744.59" fx="1578.97" fy="4744.59" r="51.35" gradientTransform="translate(0 5502) scale(1 -1)" gradientUnits="userSpaceOnUse"><stop offset=".57" stop-color="#161414"/><stop offset=".8" stop-color="#161414"/><stop offset="1" stop-color="#161414"/></radialGradient><radialGradient id="_Безымянный_градиент_101-2" cx="1324.22" cy="4753.01" fx="1324.22" fy="4753.01" r="46.9" xlink:href="#_Безымянный_градиент_101"/><radialGradient id="_Безымянный_градиент_101-3" cx="1583.59" cy="4667.91" fx="1583.59" fy="4667.91" r="82.79" xlink:href="#_Безымянный_градиент_101"/><radialGradient id="_Безымянный_градиент_101-4" cx="1309.89" cy="4780.18" fx="1309.89" fy="4780.18" r="75.43" xlink:href="#_Безымянный_градиент_101"/><radialGradient id="_Безымянный_градиент_101-5" cx="915.39" cy="4780.05" fx="915.39" fy="4780.05" r="75.57" xlink:href="#_Безымянный_градиент_101"/><radialGradient id="_Безымянный_градиент_101-6" cx="1458.15" cy="4823.2" fx="1458.15" fy="4823.2" r="12.95" xlink:href="#_Безымянный_градиент_101"/><radialGradient id="_Безымянный_градиент_101-7" cx="1444.32" cy="4778.69" fx="1444.32" fy="4778.69" r="13.25" xlink:href="#_Безымянный_градиент_101"/><radialGradient id="_Безымянный_градиент_101-8" cx="1422.79" cy="4849.86" fx="1422.79" fy="4849.86" r="30.41" xlink:href="#_Безымянный_градиент_101"/><radialGradient id="_Безымянный_градиент_101-9" cx="916.94" cy="4785.29" fx="916.94" fy="4785.29" r="13.73" xlink:href="#_Безымянный_градиент_101"/><radialGradient id="_Безымянный_градиент_101-10" cx="1613.32" cy="4750.38" fx="1613.32" fy="4750.38" r="36.78" xlink:href="#_Безымянный_градиент_101"/><radialGradient id="_Безымянный_градиент_101-11" cx="928.9" cy="3996.89" fx="928.9" fy="3996.89" r="59.85" xlink:href="#_Безымянный_градиент_101"/><radialGradient id="_Безымянный_градиент_101-12" cx="1111.76" cy="4677.45" fx="1111.76" fy="4677.45" r="639.49" xlink:href="#_Безымянный_градиент_101"/><radialGradient id="_Безымянный_градиент_101-13" cx="1306.65" cy="4785.37" fx="1306.65" fy="4785.37" r="13.6" xlink:href="#_Безымянный_градиент_101"/><radialGradient id="_Безымянный_градиент_101-14" cx="1549.14" cy="4625.89" fx="1549.14" fy="4625.89" r="48.64" xlink:href="#_Безымянный_градиент_101"/><radialGradient id="_Безымянный_градиент_101-15" cx="1345.19" cy="4904.58" fx="1345.19" fy="4904.58" r="11.69" xlink:href="#_Безымянный_градиент_101"/><radialGradient id="_Безымянный_градиент_101-16" cx="943" cy="4901.86" fx="943" fy="4901.86" r="1.58" xlink:href="#_Безымянный_градиент_101"/><radialGradient id="_Безымянный_градиент_101-17" cx="927.81" cy="4905.49" fx="927.81" fy="4905.49" r="9.74" xlink:href="#_Безымянный_градиент_101"/><radialGradient id="_Безымянный_градиент_101-18" cx="1065.86" cy="4870.83" fx="1065.86" fy="4870.83" r="28.99" xlink:href="#_Безымянный_градиент_101"/><radialGradient id="_Безымянный_градиент_101-19" cx="998.17" cy="4872.19" fx="998.17" fy="4872.19" r="32.27" xlink:href="#_Безымянный_градиент_101"/><radialGradient id="_Безымянный_градиент_101-20" cx="1450.42" cy="4999.88" fx="1450.42" fy="4999.88" r="123.2" xlink:href="#_Безымянный_градиент_101"/><radialGradient id="_Безымянный_градиент_101-21" cx="787.86" cy="4866.92" fx="787.86" fy="4866.92" r="23.74" xlink:href="#_Безымянный_градиент_101"/><radialGradient id="_Безымянный_градиент_101-22" cx="926.97" cy="4875.71" fx="926.97" fy="4875.71" r="66.62" xlink:href="#_Безымянный_градиент_101"/><radialGradient id="_Безымянный_градиент_101-23" cx="824.83" cy="4896.73" fx="824.83" fy="4896.73" r="18.63" xlink:href="#_Безымянный_градиент_101"/><radialGradient id="_Безымянный_градиент_101-24" cx="1115.4" cy="4294.88" fx="1115.4" fy="4294.88" r="98.67" xlink:href="#_Безымянный_градиент_101"/><radialGradient id="_Безымянный_градиент_101-25" cx="779.28" cy="5019.33" fx="779.28" fy="5019.33" r="115.1" xlink:href="#_Безымянный_градиент_101"/><radialGradient id="_Безымянный_градиент_101-26" cx="1403.18" cy="4891.27" fx="1403.18" fy="4891.27" r="23.05" xlink:href="#_Безымянный_градиент_101"/><radialGradient id="_Безымянный_градиент_101-27" cx="1315.32" cy="4871.62" fx="1315.32" fy="4871.62" r="63" xlink:href="#_Безымянный_градиент_101"/><radialGradient id="_Безымянный_градиент_101-28" cx="1112.97" cy="4346.23" fx="1112.97" fy="4346.23" r="120.71" xlink:href="#_Безымянный_градиент_101"/><radialGradient id="_Безымянный_градиент_101-29" cx="1114.16" cy="4223.6" fx="1114.16" fy="4223.6" r="87.71" xlink:href="#_Безымянный_градиент_101"/><radialGradient id="_Безымянный_градиент_101-30" cx="1186.71" cy="4863.79" fx="1186.71" fy="4863.79" r="15.75" xlink:href="#_Безымянный_градиент_101"/><radialGradient id="_Безымянный_градиент_101-31" cx="1152.32" cy="4699.31" fx="1152.32" fy="4699.31" r="40.78" xlink:href="#_Безымянный_градиент_101"/><radialGradient id="_Безымянный_градиент_101-32" cx="1037.79" cy="4865.92" fx="1037.79" fy="4865.92" r="15.72" xlink:href="#_Безымянный_градиент_101"/><radialGradient id="_Безымянный_градиент_101-33" cx="1054.79" cy="4804.02" fx="1054.79" fy="4804.02" r="23.34" xlink:href="#_Безымянный_градиент_101"/><radialGradient id="_Безымянный_градиент_101-34" cx="803.62" cy="4852.03" fx="803.62" fy="4852.03" r="29.41" xlink:href="#_Безымянный_градиент_101"/><radialGradient id="_Безымянный_градиент_101-35" cx="1159.11" cy="4868.15" fx="1159.11" fy="4868.15" r="28.14" xlink:href="#_Безымянный_градиент_101"/><radialGradient id="_Безымянный_градиент_101-36" cx="766.24" cy="4822.68" fx="766.24" fy="4822.68" r="13.95" xlink:href="#_Безымянный_градиент_101"/><radialGradient id="_Безымянный_градиент_101-37" cx="1112.51" cy="4565.98" fx="1112.51" fy="4565.98" r="55.58" xlink:href="#_Безымянный_градиент_101"/><radialGradient id="_Безымянный_градиент_101-38" cx="1073.29" cy="4696.03" fx="1073.29" fy="4696.03" r="39.96" xlink:href="#_Безымянный_градиент_101"/><radialGradient id="_Безымянный_градиент_101-39" cx="1111.89" cy="4806.32" fx="1111.89" fy="4806.32" r="19.4" xlink:href="#_Безымянный_градиент_101"/><radialGradient id="_Безымянный_градиент_101-40" cx="878.88" cy="4872.26" fx="878.88" fy="4872.26" r="25.98" xlink:href="#_Безымянный_градиент_101"/><radialGradient id="_Безымянный_градиент_101-41" cx="642.5" cy="4679.37" fx="642.5" fy="4679.37" r="94.97" xlink:href="#_Безымянный_градиент_101"/><radialGradient id="_Безымянный_градиент_101-42" cx="775.56" cy="4780.9" fx="775.56" fy="4780.9" r="16.9" xlink:href="#_Безымянный_градиент_101"/><radialGradient id="_Безымянный_градиент_101-43" cx="674.57" cy="4630.76" fx="674.57" fy="4630.76" r="51.58" xlink:href="#_Безымянный_градиент_101"/><radialGradient id="_Безымянный_градиент_101-44" cx="625.42" cy="4747.82" fx="625.42" fy="4747.82" r="25.95" xlink:href="#_Безымянный_градиент_101"/><radialGradient id="_Безымянный_градиент_101-45" cx="1450.59" cy="4538.03" fx="1450.59" fy="4538.03" r="98.82" xlink:href="#_Безымянный_градиент_101"/><radialGradient id="_Безымянный_градиент_101-46" cx="899.74" cy="4754.31" fx="899.74" fy="4754.31" r="48.57" xlink:href="#_Безымянный_градиент_101"/><radialGradient id="_Безымянный_градиент_101-47" cx="1309.04" cy="4729.03" fx="1309.04" fy="4729.03" r="65.31" xlink:href="#_Безымянный_градиент_101"/><radialGradient id="_Безымянный_градиент_101-48" cx="915.84" cy="4727.69" fx="915.84" fy="4727.69" r="63.15" xlink:href="#_Безымянный_градиент_101"/><radialGradient id="_Безымянный_градиент_101-49" cx="774.22" cy="4534.83" fx="774.22" fy="4534.83" r="99.94" xlink:href="#_Безымянный_градиент_101"/><radialGradient id="_Безымянный_градиент_101-50" cx="1062.87" cy="4504.12" fx="1062.87" fy="4504.12" r="22.86" xlink:href="#_Безымянный_градиент_101"/><radialGradient id="_Безымянный_градиент_101-51" cx="1141.11" cy="4498.01" fx="1141.11" fy="4498.01" r="38.51" xlink:href="#_Безымянный_градиент_101"/><radialGradient id="_Безымянный_градиент_101-52" cx="1114.01" cy="4430.21" fx="1114.01" fy="4430.21" r="28.72" xlink:href="#_Безымянный_градиент_101"/><radialGradient id="_Безымянный_градиент_101-53" cx="1028.51" cy="4532.69" fx="1028.51" fy="4532.69" r="38.9" xlink:href="#_Безымянный_градиент_101"/><radialGradient id="_Безымянный_градиент_101-54" cx="1196.82" cy="4533.58" fx="1196.82" fy="4533.58" r="39.51" xlink:href="#_Безымянный_градиент_101"/><radialGradient id="_Безымянный_градиент_101-55" cx="1020.65" cy="4746.99" fx="1020.65" fy="4746.99" r="51.83" xlink:href="#_Безымянный_градиент_101"/><radialGradient id="_Безымянный_градиент_101-56" cx="1206.36" cy="4532.45" fx="1206.36" fy="4532.45" r="13.13" xlink:href="#_Безымянный_градиент_101"/><radialGradient id="_Безымянный_градиент_101-57" cx="913.98" cy="4803.28" fx="913.98" fy="4803.28" r="71.35" xlink:href="#_Безымянный_градиент_101"/><radialGradient id="_Безымянный_градиент_101-58" cx="1019.16" cy="4531.45" fx="1019.16" fy="4531.45" r="13.71" xlink:href="#_Безымянный_градиент_101"/><radialGradient id="_Безымянный_градиент_101-59" cx="1201.62" cy="4869.01" fx="1201.62" fy="4869.01" r="19.55" xlink:href="#_Безымянный_градиент_101"/><radialGradient id="_Безымянный_градиент_101-60" cx="1228.71" cy="4875.19" fx="1228.71" fy="4875.19" r="28.92" xlink:href="#_Безымянный_градиент_101"/><radialGradient id="_Безымянный_градиент_101-61" cx="1109.8" cy="4375.18" fx="1109.8" fy="4375.18" r="101.51" xlink:href="#_Безымянный_градиент_101"/><radialGradient id="_Безымянный_градиент_101-62" cx="1245.68" cy="4885.82" fx="1245.68" fy="4885.82" r="1.64" xlink:href="#_Безымянный_градиент_101"/><radialGradient id="_Безымянный_градиент_101-63" cx="1169.42" cy="4803.19" fx="1169.42" fy="4803.19" r="23.47" xlink:href="#_Безымянный_градиент_101"/><radialGradient id="_Безымянный_градиент_101-64" cx="1240.39" cy="4882.69" fx="1240.39" fy="4882.69" r="2.78" xlink:href="#_Безымянный_градиент_101"/><radialGradient id="_Безымянный_градиент_101-65" cx="1204.6" cy="4746.05" fx="1204.6" fy="4746.05" r="56.35" xlink:href="#_Безымянный_градиент_101"/><radialGradient id="_Безымянный_градиент_101-66" cx="1421.64" cy="4866.88" fx="1421.64" fy="4866.88" r="17.02" xlink:href="#_Безымянный_градиент_101"/><radialGradient id="_Безымянный_градиент_101-67" cx="1310.25" cy="4803.63" fx="1310.25" fy="4803.63" r="72.39" xlink:href="#_Безымянный_градиент_101"/><radialGradient id="_Безымянный_градиент_101-68" cx="1381.37" cy="3033.27" fx="1381.37" fy="3033.27" r="69.61" xlink:href="#_Безымянный_градиент_101"/><radialGradient id="_Безымянный_градиент_101-69" cx="1589.71" cy="2746.01" fx="1589.71" fy="2746.01" r="26.47" xlink:href="#_Безымянный_градиент_101"/><radialGradient id="_Безымянный_градиент_101-70" cx="1569.55" cy="2715.01" fx="1569.55" fy="2715.01" r="15.81" xlink:href="#_Безымянный_градиент_101"/><radialGradient id="_Безымянный_градиент_101-71" cx="1105.83" cy="2788.16" fx="1105.83" fy="2788.16" r="660.07" xlink:href="#_Безымянный_градиент_101"/><radialGradient id="_Безымянный_градиент_101-72" cx="1521.75" cy="2679.38" fx="1521.75" fy="2679.38" r="30.63" xlink:href="#_Безымянный_градиент_101"/><radialGradient id="_Безымянный_градиент_101-73" cx="1418.38" cy="3035.8" fx="1418.38" fy="3035.8" r="20.9" xlink:href="#_Безымянный_градиент_101"/><radialGradient id="_Безымянный_градиент_101-74" cx="1512.45" cy="2607.44" fx="1512.45" fy="2607.44" r="21.19" xlink:href="#_Безымянный_градиент_101"/><radialGradient id="_Безымянный_градиент_101-75" cx="1374.04" cy="3025.57" fx="1374.04" fy="3025.57" r="47.66" xlink:href="#_Безымянный_градиент_101"/><radialGradient id="_Безымянный_градиент_101-76" cx="1178.53" cy="3196.86" fx="1178.53" fy="3196.86" r="96.54" xlink:href="#_Безымянный_градиент_101"/><radialGradient id="_Безымянный_градиент_101-77" cx="707.17" cy="2811.52" fx="707.17" fy="2811.52" r="162.46" xlink:href="#_Безымянный_градиент_101"/><radialGradient id="_Безымянный_градиент_101-78" cx="708.77" cy="2839.74" fx="708.77" fy="2839.74" r="117.26" xlink:href="#_Безымянный_градиент_101"/><radialGradient id="_Безымянный_градиент_101-79" cx="1185.25" cy="3025.22" fx="1185.25" fy="3025.22" r="39.85" xlink:href="#_Безымянный_градиент_101"/><radialGradient id="_Безымянный_градиент_101-80" cx="1075.11" cy="2741.78" fx="1075.11" fy="2741.78" r="115.87" xlink:href="#_Безымянный_градиент_101"/><radialGradient id="_Безымянный_градиент_101-81" cx="1394.32" cy="3046.68" fx="1394.32" fy="3046.68" r="20.83" xlink:href="#_Безымянный_градиент_101"/><radialGradient id="_Безымянный_градиент_101-82" cx="1022.26" cy="2451.73" fx="1022.26" fy="2451.73" r="172.02" xlink:href="#_Безымянный_градиент_101"/><radialGradient id="_Безымянный_градиент_101-83" cx="661.54" cy="2825.24" fx="661.54" fy="2825.24" r="62.56" xlink:href="#_Безымянный_градиент_101"/><radialGradient id="_Безымянный_градиент_101-84" cx="1208.99" cy="2949.05" fx="1208.99" fy="2949.05" r="17.11" xlink:href="#_Безымянный_градиент_101"/><radialGradient id="_Безымянный_градиент_101-85" cx="1310.58" cy="3043.02" fx="1310.58" fy="3043.02" r="31.75" xlink:href="#_Безымянный_градиент_101"/><radialGradient id="_Безымянный_градиент_101-86" cx="1353.54" cy="2943.3" fx="1353.54" fy="2943.3" r="9.21" xlink:href="#_Безымянный_градиент_101"/><radialGradient id="_Безымянный_градиент_101-87" cx="1272.41" cy="3026.09" fx="1272.41" fy="3026.09" r="6.17" xlink:href="#_Безымянный_градиент_101"/><radialGradient id="_Безымянный_градиент_101-88" cx="1469.98" cy="3013.16" fx="1469.98" fy="3013.16" r="21.51" xlink:href="#_Безымянный_градиент_101"/><radialGradient id="_Безымянный_градиент_101-89" cx="1305.94" cy="2921.43" fx="1305.94" fy="2921.43" r="16.83" xlink:href="#_Безымянный_градиент_101"/><radialGradient id="_Безымянный_градиент_101-90" cx="1330.85" cy="2932.35" fx="1330.85" fy="2932.35" r="67.57" xlink:href="#_Безымянный_градиент_101"/><radialGradient id="_Безымянный_градиент_101-91" cx="1456.34" cy="2969.8" fx="1456.34" fy="2969.8" r="11.28" xlink:href="#_Безымянный_градиент_101"/><radialGradient id="_Безымянный_градиент_101-92" cx="1362.13" cy="2855.51" fx="1362.13" fy="2855.51" r="18.11" xlink:href="#_Безымянный_градиент_101"/><radialGradient id="_Безымянный_градиент_101-93" cx="1410.13" cy="2927.72" fx="1410.13" fy="2927.72" r="25.33" xlink:href="#_Безымянный_градиент_101"/><radialGradient id="_Безымянный_градиент_101-94" cx="1443.42" cy="3023" fx="1443.42" fy="3023" r="16.47" xlink:href="#_Безымянный_градиент_101"/><radialGradient id="_Безымянный_градиент_101-95" cx="1451.85" cy="2695.77" fx="1451.85" fy="2695.77" r="35.32" xlink:href="#_Безымянный_градиент_101"/><radialGradient id="_Безымянный_градиент_101-96" cx="1455.2" cy="2689.09" fx="1455.2" fy="2689.09" r="15.37" xlink:href="#_Безымянный_градиент_101"/><radialGradient id="_Безымянный_градиент_101-97" cx="1465.17" cy="2746.56" fx="1465.17" fy="2746.56" r="18.49" xlink:href="#_Безымянный_градиент_101"/><radialGradient id="_Безымянный_градиент_101-98" cx="1376.02" cy="3042.03" fx="1376.02" fy="3042.03" r="21.55" xlink:href="#_Безымянный_градиент_101"/><radialGradient id="_Безымянный_градиент_101-99" cx="1519.2" cy="2862.85" fx="1519.2" fy="2862.85" r="44.75" xlink:href="#_Безымянный_градиент_101"/><radialGradient id="_Безымянный_градиент_101-100" cx="1467.65" cy="2551.05" fx="1467.65" fy="2551.05" r="48.99" xlink:href="#_Безымянный_градиент_101"/><radialGradient id="_Безымянный_градиент_101-101" cx="1391.97" cy="3038.18" fx="1391.97" fy="3038.18" r="20.56" xlink:href="#_Безымянный_градиент_101"/></defs><path class="cls-1" d="M799.56,4870.74l12.47,2.7,15.03,2.81,15.09,1.19h0l15.06-.46,15.09-2.05,15.14-3.67,15.17-5.29,26.99-11.61,22.21-9.66,15.87-5.97,16.55-5.07,16.76-4.26h0l21.35-4.18,21.65-2.86,21.94-1.59,22.24-.27h.05l.49.65-.4,2.48-.73.59-23.21.49-22.24,1.65-21.27,2.86-20.3,4.02-13.28,3.56-14.04,4.64-15.41,5.91-20.86,8.75-32.5,13.31-12.69,4.45-12.01,3.56-10.07,2.21-11.04,1.46-11.39.62-11.07-.24-10.55-1.08-9.69-1.89-9.07-2.73-7.88-3.43-.38-.38.08-.89.84-.32Z"/><path class="cls-1" d="M1385.41,4873.98h.03l1.21.27.65,1.05.16.89-.19.84-.7.49-12.85,2.48-12.42,1.35-11.98.27-11.55-.86-14.98-2.7-15.76-4.45-17.19-6.37-23.13-9.93-26.59-11.34-19.92-6.91-6.37-1.81-22.57-5.29-23.43-3.81-25.35-2.54-29.99-1.54-1.08-.94-.19-1.16v-.08l.3-.89.86-.38,31.47,1,15.03,1.27,14.58,1.81,14.06,2.32,13.6,2.83,13.14,3.37,12.66,3.89,23.97,9.23,33.71,14.87,16.95,6.83,16.95,4.91,17,3.05,17,1.13h0l16.44-.7,16.44-2.46Z"/><path class="cls-1" d="M691.73,4712.3l16.3,47.13,14.09,43.46,12.36,41.3,10.66,39.3,9.26,38.19,7.85,37.41,6.45,36.47,5.13,36.03,4.16,37.19,3.29,37.38,2.38,37.63,1.46,37.84.59,38.06-.32,38.27-1.21,38.52-2.11,38.71-.54,1.4-1.27.84-1.89.51-.32.05-1.57-.51-.62-1.57,2.54-57.71.76-57.87-1.11-58.06-2.89-58.22-.94-4.53-2.21-4.1-7.58-10.63-7.07-10.88-6.59-11.12-6.1-11.39h0l-8.91-19.14-7.58-19.81-6.26-20.46-4.94-21.16-9.96-54.58-10.34-65.67-2.67-15.95-3.78-18.84-.13-.27-.57-.19-.46.4-4.1,11.8-3.97,8.39-4.45,6.53-5.13,4.75-6.07,3.29-6.32,1.65h-7.29l-7.04-1.89-6.59-3.64-5.8-5.24-5.7-8.15-5.02-10.85-7.61-22.62-6.91-26.29-7.48-36.71-11.44-55.74-4.94-19.95-4.94-16.71-.46-1.4-8.12-26.21-6.05-23.37-4.05-21-2-18.08.05-15.22.81-6.48,1.35-5.97,1.81-4.97,2.38-4.37,2.78-3.51,3.4-2.83,5.18-2.54,6.23-1.27,7.85.11,7.15,1.78,5.97,3.13,5.51,4.62,5.43,6.37,6.48,9.42,7.15,10.31,4.05,3.83,5.4,2.89,1.32-.13.73-1.13-.03-.4-5.29-34.01-3.94-34.04-2.59-34.06-1.27-34.09h0l-.05-27.83.86-27.83,1.73-27.86,2.62-27.88,2.7-20.3,3.56-20.08,4.43-19.81,5.32-19.49,6.15-19.19,6.99-18.84,7.83-18.46,8.66-18.03,9.39-17.41,10.15-16.95,10.96-16.46,11.71-15.92,12.42-15.28,13.14-14.71,13.71-13.93,14.39-13.31,5.48-4.72,23.43-18.49,25.24-17.17,26.48-15.49,28.02-13.98,29.12-12.25,29.88-10.36,30.64-8.5,30.99-6.48,22.7-3.43,24.13-2.54,25.51-1.65,26.91-.73,31.98.67,31.96,2.67,31.77,4.67,31.45,6.61,30.8,8.53,30.18,10.45,29.12,12.2,28.21,14.04,26.8,15.6,25.18,17.06,23.97,18.73,22.21,20,20.59,21.43,18.73,22.54,8.77,11.77,8.34,12.17,7.77,12.28,7.34,12.63,11.74,22.59,10.34,22.97,8.91,23.4,7.48,23.78h0l4.37,16.73,3.67,16.95,5.56,33.04,3.97,34.04,2.4,35.22.78,36.06-.78,36.95-2.4,37.55-3.97,38.27-5.53,38.57.22.78.73.35.16-.03,4.37-1.27,3.83-2.05,2.89-2.48,2.48-3.08,4.26-6.69,5.8-8.91,4.86-6.05,4.99-4.51,5.37-3.21,6.34-2.08,5.34-.73,4.94.16,4.78,1,4.29,1.84,3.05,2,2.73,2.46,4.37,6.02,2.94,7.64,1.24,8.66.03,11.12-.67,11.55-1.4,12.01-2.19,12.47-6.45,26.53-11.36,36.92-2.35,7.29-5.37,21.13-6.8,34.36-10.28,52.66-9.39,39.14-2.54,9.2-5.1,15.03-2.78,5.97-2.97,5.13-3.4,4.53-3.51,3.62-3.86,2.94-4.35,2.32-7.4,2.02-5.99.16-5.18-1.03-4.78-1.94-4.56-2.89-4.45-3.91-2.16-2.67-2.16-3.75-4.48-10.93-1.54-4.13-.19-.24-.59-.08-.38.46-20.89,126.08-6.05,30.5-6.42,24.51-8.61,24.4-5.02,11.82-5.53,11.61h0l-7.8,14.55-8.61,14.14-9.42,13.77-10.2,13.33-.94,2.4-3.21,56.95-1.35,56.79.49,56.6,2.38,56.44-.46,1.57-1.32.92-1.67.49-1.78-.27-1-1.48-.03-.24-1.84-32.93-1.11-33.01-.43-33.06.24-33.15.97-33.23,1.65-33.28,2.35-33.36,3.05-33.44,4.4-37.55,5.53-37.44,6.56-36.3,7.72-36.52,8.88-36.52,10.12-37.03,20.16-66.21,23.21-69.42v-.24l-.65-.08-8.07,13.77-5.05,8.99-35.87,58.71-25.67,43.59-22.35,40.11-20.05,38.62-5.29,10.66-.81.73-1.05-.05-.24-.11h0l-.76-.78.03-1.11,9.45-20.43,9.39-18.54,17.22-31.61,18.22-31.9,19.16-32.2,20.14-32.47,18.76-30.42,13.09-23.48,10.2-21.59,7.91-21.03,10.96-35.95,9.37-35.76,7.83-35.52,6.24-35.3,3.05-26.67,3.43-43.11,1.32-22.65.76-22.27.16-21.57-.4-21.11-.97-20.65-1.57-20.08-2.16-19.78-2.73-19.16-3.32-18.71-3.86-18-4.51-17.79-5.02-17.09-5.56-16.46-6.23-16.25-6.75-15.55-7.42-15.28-13.23-23.81-14.52-22.59-15.84-21.4-17.17-20.22h0l-12.39-13.06-13.01-12.5-13.63-11.93-14.22-11.42-14.82-10.82-15.44-10.31-16.03-9.72-16.65-9.2-17.52-8.8-17.71-8.02-18.11-7.4-18.27-6.64-25.64-7.99-25.97-6.56-26.53-5.26-26.83-3.83-27.56-2.51-27.8-1.13-28.42.22-28.66,1.59-19.35,1.89-19.33,2.67-19.27,3.43-19.16,4.16-19.03,4.91-18.81,5.67-18.33,6.32-18.08,7.02-17.65,7.67-17.33,8.37-16.68,8.93-16.28,9.58-15.57,10.09-15.06,10.72-14.39,11.17-13.82,11.8-21.13,20.27-19.38,21.49-10.09,12.55-9.58,12.9-9.18,13.47-8.61,13.82-8.1,14.2-7.56,14.49-6.96,14.82-6.4,15.09-5.94,15.6-5.37,15.87-4.78,16.09-4.18,16.36-3.67,16.71-3.08,16.92-2.48,17.11-1.92,17.27-2.83,40.41-.92,40.19.94,40.06,2.83,39.84h0l2.32,21.54,2.89,21.46,3.43,21.4,3.99,21.35,4.53,21.32,5.1,21.24,5.64,21.22,6.21,21.13,8.72,27.13,7.48,18.49,7.88,15.17,14.14,24.29,45.53,73.98,18.22,30.26,16.98,30.39,15.71,30.53,14.41,30.66.03.08-.08,1.24-.94.78-.81.22-.92-.08-.65-.65-15.41-33.06-12.71-24.21-34.98-60.33-9.42-14.93-25.51-41.51-24.81-42-.84.05v.32ZM1513.24,4802.16l3.1,4.91,3.4,6.94,1.89,5.48,4.4,11.69,2.19,4.02,2.24,3.02,3.08,2.94,3.37,2.21,3.83,1.57,3.94.76,5.16-.19,4.99-1.51,4.48-2.62,3.97-3.75,5.29-7.4,4.45-8.83,3.83-10.58,4.13-14.82,8.53-35.76,7.21-35.55,2.94-16.38,7.34-38.06,3.4-13.74,3.67-12.28.11-.32,10.63-33.31,6.26-24.05,2.16-11.17,1.54-10.74.97-10.74.32-10.42-.59-9.66-1.92-8.02-3.1-5.94-2-2.24-2.35-1.84-4.24-1.81-5.24-.65-6.53.86-6.67,2.7-5.8,4.1-4.4,5.21-2.81,4.51-8.53,12.61-3.78,4.02-3.91,3.18-5.8,3.24-6.61,2.29-1.38.84-.7,1.43-5.29,26.1-6.51,26.56-7.69,27.02-8.88,27.48-41.7,123.16.16,1.46,1.16.86.22.03,9.72,1.43,8.64,2.51,12.15,4.26,6.1,1.35.38-.03,5.8-1.27,5.7-3.16,5.67-5.21,5.48-7.02,8.93-14.41,7.48-14.79,5.99-15.12,4.51-15.49h0l2.81-14.33,1.62-14.63.38-14.93-.81-15.2-1.62-20.76-.16-14.95,1.21-13.01,2.75-11.74,3-9.23,4.45-14.06,2.4-9.61,1.27-8.72.13-8.31-1.05-8.58-1.59-3.83-3.32-4.97-.19-.46.32-1.11,1.13-.35,1.48.46,2.51,1.78,2.11,3.16,1.43,4.29.92,5.37.32,9.42-1.08,9.91-2.4,10.63-4.51,14.74-3.37,10.74-1.7,6.69-1.48,9.15-.59,9.85.19,11.12,1,16.76.84,12.58.14,19.51-1.94,19.19-3.24,16.01-4.75,15.79-6.26,15.55-7.72,15.33-7.5,11.96-7.56,9.2-7.45,6.34-3.62,2.05-3.7,1.35-5.51.59-3.75-.62-4.37-1.59-4.83-1.62-.7.22-.22.7.11.27ZM690.24,4799.94l-7.15,2.32-5.45,1.27-5.16.13-4.7-.78-4.43-1.57-4.51-2.48-4.21-3.16-4.16-3.94-4.18-4.86-8.04-12.17-9.02-17.76-6.99-17.95-4.99-18.17-2.94-18.41h0l-.94-16.17.59-16.33,2.27-31.07-.08-9.96-1.32-11.15-2.51-12.42-4.32-16.65-4.16-16.49-1.08-10.47.4-13.31,1.51-7.04,1.43-2.89,1.89-2.46,3.45-2.75.03-.03.67-.94-.24-1.16-5.53-6.94-5.91-5.24-6.34-3.48-6.4-1.51-6.37.3-6.24,1.94-.57.27-2.29,1.48-1.94,1.94-3.27,5.78-2.05,7.72-.94,9.66.19,12.15,1.35,13.74,2.54,15.41,3.35,14.85,17.71,58.57,6.42,27.8,11.82,59.44,5.83,27.02,7.15,27.4,5.18,15.9,5.53,12.2,3.02,4.91,3,3.89,3.13,3.1,3.4,2.35,4.26,1.97,4.1,1.21,3.94.4,3.78-.35h0l4.05-1.3,3.83-2.24,1.62-1.27,3.13-3.24,2.75-4.1,2.43-5.05,2.62-7.13,2.59-6.99,2.4-5.05,2.67-4.16,3.02-3.35.19-.32-.16-.67-.67-.22ZM612.21,4535.35l-2.29,4.45-1.65,4.83-1.13,5.53-.51,5.75.05,6.32.65,6.8,1.21,6.59,1.78,6.67,6.4,21.3,2.81,11.82,1.08,10.28.3,10.85-.46,11.36-1.21,11.93-1.13,11.26-.46,11.17.27,11.07.97,11.01,2.75,16.25,4.32,16.09,5.91,15.9,7.45,15.71,7.61,12.52,3.94,5.07,3.94,4.29,4.18,3.64,4.08,2.75,4.21,2.02,4.45,1.35,2.7.14,3.56-.51,9.77-2.97,9.39-2.46,14.06-2.16.43-.62v-.05l-19.65-57.9-19.6-57.52-13.31-42.78-10.31-38.73-7.42-35.17-1.13-2.08-2.13-1-6.05-1.59-3.56-2-3.48-2.94-7.31-9.34-3.59-5.02-.86-.43-.89.38-.14.16ZM1426.81,5092.8l7.53-10.34,7.02-10.61,6.56-10.82,6.05-11.12h0l8.64-18.14,7.4-18.81,6.15-19.43,4.94-20.08,7.37-38.25,8.72-52.74,6.8-41.73,5.45-30.45v-3.02l-1.05-2.83-2.02-2.24-2.7-1.38-9.77-2.89-2.51-.24-2.43.73-1.94,1.62-1.21,2.21-10.88,36.11-9.69,34.39-8.48,32.9-7.5,31.96-6.51,31.36-5.61,30.88-4.67,30.53-3.83,30.31-3.08,31.66.05.35.57.38.65-.27ZM773.86,5084.11l-1.94-12.66-1.75-16.46-3.48-29.2-4.72-31.55h0l-5.51-31.04-6.32-30.91-7.13-30.8-7.94-30.64-20.65-68.53-.86-1.65-1.35-1.24-1.73-.67-1.84-.03-8.31,1.32-1.67.62-1.32,1.21-.73,1.65-.08,1.78,14.79,94.07,8.64,51.96,5.45,26.24,6.53,23.91,7.77,22.08,9.23,20.81,10.93,20.19,12.93,19.97.54.24.49-.35.03-.32Z"/><path class="cls-12" d="M1597.58,697.85c-12.22,10.7-18.52,26.12-25.72,40.3-11.92,24.68-26.86,49.39-27.75,77.57.5,1.35,1.48,4.05,1.96,5.4,2.79-15.27,6.52-30.41,13.27-44.51.78-1.89,1.57-3.77,2.4-5.64,7.1,5.1,15.75,8.82,24.62,6.1-6.29-2.05-12.72-3.74-18.58-6.84-1.09-.5-3.24-1.53-4.33-2.05,5.77-14.55,13.22-28.43,20.2-42.44,5.64-9.76,10.44-21.11,20.87-26.75,2.96-1,6.08-1.5,9.32-1.5-3.49-6.6-11.9-3.29-16.23.35h-.02Z"/><path class="cls-4" d="M1258.69,749.94c36.01,11.35,76.03,13.44,111.78-.02,6.82-2.94,14.14-5.62,19.28-11.2-23.64,11.54-49.93,17.6-76.25,17.21-18.49.48-36.46-4.88-54.81-5.99h0Z"/><path class="cls-6" d="M1584.62,909.62c18.63-19.28,25.08-47.06,26.08-73.11,1-10.83-1.5-21.74.98-32.46l-3.64.59c-.2-6.29-.55-12.63-1.92-18.8-5.47-21.48-9.28-43.39-11.92-65.42h-2.09c-.04,2.96-.07,5.93-.07,8.91.78,28.8,9.48,56.73,13.14,85.22,1.11,22.81-.02,46.18-8.78,67.6-9.32,24.49-34.7,39.58-40.89,65.62,5.27-6.49,8.32-14.44,13.64-20.89,4.88-5.99,10.33-11.48,15.46-17.26h0Z"/><path class="cls-11" d="M1411.84,735.67c-7.52-7.23-16.4-12.7-24.88-18.67-24.01-16.73-53.09-26.1-82.37-26.58-20.41,1.22-41.32,5.25-58.65,16.76-9.46,5.68-16.9,14.07-26.18,20.02-4.22,3.31-9.94,5.7-11.79,11.15-.22,2.99,1.55,7.28,5.18,6.77,11.02.82,21.85-1.94,32.83-2.26,9.83.61,19.28,3.62,28.89,5.62,18.22,3.88,37.03,5.99,55.64,3.88.48-.3,1.44-.96,1.92-1.28.26-7.54-9.37-2.46-13.81-2.12,2.44-1.74,3.88-4.33,5.14-7-18.19,10.94-46.14.94-49.54-21.07-.16-6.38,1.09-12.68,2.79-18.8,5.45-1.81,11.11-3.22,16.9-2.6,13.98,1.3,28.82-2.66,42.11,3.42,2.01,4.2,1.98,9.08,2.46,13.68.04,9.8-4.77,20.45-13.94,24.81-.3,1.48-.94,4.45-1.24,5.9,16.21-6.73,24.29-26.18,19.39-42.72.96.39,2.92,1.18,3.88,1.57,15.3,5.9,29.71,14.03,43.55,22.83-2.7,1.46-5.38,2.94-8.08,4.36-14.9,8.02-31.76,11.42-48.41,13.46,2.99,3.26,7.75,5.01,12.11,3.74,16.86-3.44,34.36-8.37,46.97-20.8,6.23,2.28,12.24,6.12,19.13,5.9h0ZM1212.66,740.48c.68-4.81,5.12-7.04,8.98-9.04,2.01,2.2,4.27,4.16,6.82,5.77-.55-2.76-1.5-5.47-1.5-8.3,1.61-2.07,3.64-3.74,5.54-5.54-2.66,5.56-1.59,11.59.32,17.21-6.71.04-13.44.09-20.15-.11h0ZM1283.41,745.32c-16.05-2.72-31.92-6.91-48.32-6.77-.09-2.92-.16-5.82-.2-8.71.22-2.7.46-5.4.66-8.1,11.04-8.6,23.33-15.71,36.82-19.67-.8,2.55-1.53,5.14-2.64,7.58-2.28,13.57,3.9,26.58,13.68,35.68h0Z"/><path class="cls-5" d="M988.78,744.06c9.54.22,19.17,4.08,28.58.68,2.26-11.74-11.63-14.46-18.1-20.98-17.49-16.03-39.32-27.58-62.89-31.24-21.85-4.47-44.57-.02-65.19,7.69-12.72,5.01-25.08,11.17-36.25,19.15-7.52,5.45-15.94,9.98-21.76,17.45,6.95-1.11,13.2-4.4,19.8-6.68,14.03,12.7,32.83,17.58,50.91,21.24,1.33-1.53,2.7-3.01,4.06-4.51-16.56-2.12-32.72-7.5-47.49-15.21-1.24-.68-3.72-1.98-4.99-2.64,13.02-10.74,28.84-17.4,44.46-23.42-.07,3.58-.13,7.14-.13,10.72-.07,13.48,8.32,27.71,21.35,32.38-3.29-.5-6.58-.96-9.85-1.35-1.42,1.55-2.83,3.1-4.2,4.66,20.09,2.24,40.5,1.2,60.32-2.72-2.99-2.2-6.68-2.55-10.19-3.22,11.72-5.7,17.8-19.7,16.88-32.31-.04-3.4-.16-6.8-.22-10.19,15.19,4.53,29.54,12.11,41.22,22.92.09.87.3,2.62.41,3.49-.8,3.81-3.16,7.02-5.08,10.33-15.07-1.26-29.67,2.55-44.44,4.51,1.35,1.37,2.7,2.76,4.08,4.16,12.79-2.33,25.64-5.27,38.71-4.88l-.02-.03ZM940.39,737.92c-16.14,17.58-52.02,8.91-54.92-16.01l-.8,1.24c.3-6.56-.96-14.68,4.03-19.74,9.3-4.84,20.2-4.12,30.37-3.99,8.98.09,18.63-1.24,26.93,3.01,2.22,4.31,2.66,9.21,3.7,13.9-.3,8.06-3.22,16.1-9.3,21.59h0ZM999.58,729.62c4.72,3.62,11.65,5.16,13.98,11.2-5.93,3.6-12.57.28-18.78-.61,1.89-3.4,3.51-6.93,4.79-10.58h0Z"/><path class="cls-8" d="M1454.58,668.22l-.68-.52-.68-.59c-1.74-.57-5.2-1.7-6.95-2.26,8.08,9.15,16.8,17.76,23.74,27.89-2.64-9.52-9.32-17.06-15.44-24.51h0Z"/><path class="cls-7" d="M1435.91,729.51c9.41-2.22,18.72-6.02,26.1-12.4-11.85,3.86-23.05,9.63-35.38,12.07,3.1.13,6.14.24,9.28.32Z"/><path class="cls-10" d="M1461.53,670.79c-3.26-5.93-8.67-10.13-13.98-14.07-16.01-11.44-34.11-21.37-54.02-23.22-3.18.55-6.32,1.14-9.48,1.59,17.12,1.68,34.4,6.68,48.21,17.32,2.92,2.22,6.43,3.51,9.83,4.86l-3.7,1.09c3.85,4.92,11.11,3.86,14.86,8.76.35.28,1.02.82,1.35,1.11,1.74.63,5.2,1.94,6.95,2.57h0Z"/><path class="cls-9" d="M914.86,703.45c-6.49-.41-10.04,6.02-11.88,11.26,1.2,6.27,3.92,14.59,11.5,15.19,9.21,2.07,17.19-6.52,16.34-15.46-2.03-6.91-8.43-12.5-15.97-10.98h0ZM924.51,717.17c-7.06,7.02-17.6-4.99-8.96-10.37,5.6-4.27,16.69,6.06,8.96,10.37Z"/><path class="cls-99" d="M1609.06,793.05c-1.07,3.88.11,7.45,2.79,10.33,2.03-12.09,2.6-24.33,4.18-36.46.48-16.6,4.42-33.22.98-49.76-1.35-6.02-.57-16.49-8.78-17.3l1.33,3.79c6.82,18.82,4.64,39.32,2.53,58.8-.32,10.26-2.09,20.39-3.03,30.6h0Z"/><path class="cls-95" d="M946.32,1564.2c-15.94-45.97-30.08-92.63-41.2-139.99-.28.82-.82,2.48-1.09,3.31,6.97,33.52,16.08,66.62,26.66,99.21,6.86,20.04,13.4,40.43,23.07,59.3-1.57-7.58-5.08-14.53-7.45-21.83h0Z"/><path class="cls-97" d="M1596.6,666.33c-17.76-.2-28.02,16.44-40.36,26.36,14.2-76,18.1-154.26,7.32-230.96-10.24-75.84-36.94-150.77-84.76-211.19-59.74-76.36-148.03-127.31-241.48-150.29-40.65-10.35-82.61-13.79-124.41-15.19-69.91.89-140.3,13.22-204.63,41.32-51.94,22.72-100.36,54.57-139.38,95.95-51.85,53.04-86.07,121.93-101.58,194.16-8.34,35.62-12,72.08-14.03,108.51.61,25.33-1.48,50.83,1.83,76,1.72,31.02,6.77,61.76,11.48,92.44-8.65-8.39-16.03-18.63-27.14-23.96-6.21-3.55-13.68-3.7-20.54-2.48-11.9,3.05-19.39,14.27-22.74,25.45-6.95,22.72-5.29,46.84-3.4,70.17,3.83,29.82,7.93,59.65,13.34,89.25,5.18,31.92,14.03,63.48,28.82,92.35,8.02,15.03,13.57,31.17,20.7,46.62,7.3,15.6,19.86,30.28,37.4,34.02,11.06,3.44,22.72-1.11,31.7-7.6.59,13.16,3.33,26.1,4.81,39.17,7.02,49.21,11.61,99.88,32.5,145.68,8.54,15.53,5.45,33.96,7.32,50.91,2.09,13.66,1.07,27.54,2.85,41.24,1.48,12.27.41,24.64,1.46,36.94,2.55,35.53,1.44,71.17,1.68,106.76.5,29-1.98,57.9-5.66,86.64-.98,12.55-4.4,24.9-4.1,37.56,18.93-73.33,15.34-149.72,13.84-224.71-.98-13.02-2.12-26.06-1.92-39.1-2.31-25.62-3.55-51.3-6.52-76.86,4.51,6.49,7.89,13.7,12.77,19.95,29.62,41.98,68.14,76.4,105.68,111.06,30.78,28.23,62.39,56.03,97.96,78.14,32.22,20.06,70.39,29.71,108.22,28.98,30.5.09,61.59,2.12,91.34-6.06,32.59-7.67,61.3-26.01,87.42-46.34,36.44-28.52,69.41-61.09,102.5-93.35,25.12-25.31,50.19-51.08,69.52-81.24,2.05-3.42,3.9-6.93,5.79-10.42-2.2,12.9-1.98,26.01-3.4,38.99-.24,16.84-3.1,33.48-2.87,50.37-2.87,25.31-1.5,50.87-2.87,76.29-.43,58.99.8,118.68,15.4,176.17.09-16.86-4.6-33.29-5.49-50.1-6.52-56.44-4.75-113.41-4.06-170.12,2.16-22.35,1.16-44.83,3.77-67.12-.07-17.6,2.31-35.05,2.85-52.61.32-11.7,7.36-21.41,11.15-32.11,12.09-29.41,17.58-60.93,22.28-92.21,3.31-27.6,8.04-55.07,10.22-82.78,6.29,4.47,13.16,8.67,21.09,9.12,13.66.52,27.3-5.77,35.92-16.36,14.48-16.34,18.04-38.67,28.02-57.53,12.33-23.57,21.94-48.59,27.93-74.5.74-3.14,1.85-6.16,3.31-9.06-2.42.11-4.79.24-7.16.35-2.01,17.32-8.28,33.79-14.38,50-5.86,15.9-15.25,30.21-21.2,46.08-5.12,12.61-9,26.04-17.4,36.97-10.78,17.56-37.67,25.08-53.57,10.04-.13-4.08.66-8.1,1.14-12.11,6.95-61.43,22.14-121.58,28.36-183.1.26-15.92,1.64-31.83,1.26-47.77.24-16.56-1.37-33.13-.35-49.69-2.07,8.37-1.24,17.01-1.72,25.53-.72,16.73-1.59,33.44-1.46,50.19-2.81,49.76-14.25,98.44-22.72,147.42-9.35,53.68-15.97,107.77-23.26,161.78-6.06,40.09-14.79,80.91-36.3,115.88-8.56,17.67-20.91,33.04-33.75,47.75-26.23,29.41-54.92,56.48-83.35,83.76-29.67,27.18-59.63,54.57-94.11,75.64-20.78,12.57-44.14,20.54-68.14,24.03-34.75,4.53-70,4.01-104.78.3-23.03-3.35-45.58-10.54-65.77-22.18-31-17.86-58.62-40.91-85.33-64.57-30.02-27.32-60.41-54.36-88.1-84.09-21.61-22.7-41.57-47.54-54.46-76.34-26.71-56.4-28.95-119.82-38.47-180.46-6.6-49.82-15.82-99.23-25.31-148.55-4.58-28.02-10.92-56.05-10.37-84.62-.04-24.66-3.94-49.23-3.16-73.9-.57,2.01-1.16,4.01-1.72,6.02.59,2.96,1.26,5.95,1.24,9-.18,23.2-.94,46.42.22,69.62,1.57,35.88,9.54,71.02,14.99,106.4,5.49,30.98,12.02,61.84,15.25,93.17.55,3.74,1.14,7.48,1.7,11.24-6.02,3.85-12.48,7.82-19.98,7.28-15.6,1.66-29.37-9.02-37.19-21.64-8.76-12.79-13.07-27.82-19.65-41.7-7.32-15.19-14.92-30.28-20.82-46.1-12.29-35.84-17.51-73.52-22.78-110.89-2.51-15.84-4.49-31.74-6.04-47.68.26-22.26-3.03-45.99,7.89-66.47,4.68-10.67,17.93-17.32,29.02-12.72,15.3,5.43,24.4,19.78,35.34,30.83,4.95,4.66,5.73,11.74,7.73,17.88-8.8-43.22-15.16-87.03-17.36-131.11-3.1-32.57-1.14-65.35,1.26-97.88,2.9-30.54,7.69-61,15.58-90.67,16.38-64.31,47.93-125.37,94.11-173.36,39.97-42.78,89.8-75.88,143.7-98.49,53.94-22.92,112.15-35.03,170.56-38.24,60.22-2.76,121.1,3.6,178.72,21.72,87.79,26.32,168.57,79.76,222.1,154.76,18.84,26.95,34.66,56.12,46.08,86.99,26.12,67.9,34.66,141.45,32.85,213.82-.24,49.76-8.04,99.05-17.15,147.85,1.92-5.43,2.94-11.7,7.82-15.4,10.81-9.48,19.65-21.74,32.85-28.14,10.33-5.12,24.08-1.14,29.65,9.06,11.09,18.21,9.78,40.26,9.54,60.74-3.07,42.33-11.4,84.07-17.47,126.03,1.48-.66,4.47-1.98,5.95-2.64,5.12-38.97,12.59-77.75,16.1-116.96,1.22-20.98,1.98-42.94-6.14-62.78-4.56-11.48-15.64-22.18-28.89-20.22h0Z"/><path class="cls-98" d="M1312.41,704.45c-3.88-1.18-8.02-.82-12-1.11-4.62,3.94-8.39,8.91-7.56,15.36.52,4.84,4.62,7.91,7.75,11.17,3.49-.04,6.97-.02,10.48.04,6.08-3.81,9.67-10.46,9.48-17.67-2.64-2.68-4.79-5.99-8.14-7.8h0ZM1308.76,718.54c-3.92.68-10.61,1.78-10.83-4.03.07-1.55.18-4.62.24-6.14,4.25-2.55,8.76-2.62,12.96.09-.35,3.35,1.14,7.98-2.37,10.08h0Z"/><path class="cls-96" d="M1518.52,928.32c.22,4.99,4.62,11.83,10.28,8.48,6.25-6.71,6.36-16.82,11.63-24.22,3.49-5.93,10.54-7.58,16.58-9.76,9.46-2.62,14.9-11.94,18.36-20.46,7.23-22.03,4.75-45.92-1.62-67.82,3.2,24.29,7.04,51.42-6.12,73.54-4.95,9.98-16.88,11.04-25.9,15.34-9.46,7.41-10.96,19.86-16.67,29.71-4.77-13.84,5.4-25.75,13.73-35.53,8.93-10.7,17.47-24.53,13.18-39.02-4.06-13.81-8.32-27.58-11.26-41.7-.61.63-1.81,1.85-2.4,2.46-.55,15.05,6.49,28.69,9.02,43.22,2.26,12.7-5.58,23.96-13.57,32.96-8.19,9-15.62,20.13-15.25,32.79h0Z"/><path class="cls-100" d="M1329.03,595.11c5.68,4.18,12.09-.2,18.28.22-1.78,1.09-3.6,2.09-5.38,3.16.76.61,2.28,1.8,3.05,2.4,3.66-1.81,7.6-1.39,11.4-.26-.91-.96-2.72-2.87-3.62-3.83,2.83-.46,5.7-.89,8.6-1.33-10.61-1.96-21.7-1.94-32.33-.35h0Z"/><path class="cls-67" d="M941.4,599.28c.8,6.84,6.8-3.33,0,0h0Z"/><path class="cls-68" d="M914.51,592.92c8.37,3.97,17.62,5.27,26.6,7.21l-1.85-2.68c-7.91-2.87-16.3-4.86-24.74-4.53h0Z"/><path class="cls-65" d="M1061.27,654.06c-4.56,4.81-10.46,8.14-14.73,13.27,18.24-5.95,29.48-24.22,34.75-41.74,2.51-9.94,5.93-20.5,2.31-30.58.8,6.38.78,12.94-1.37,19.11-4.49,14.34-9.94,29.23-20.96,39.95h0Z"/><path class="cls-66" d="M1023.98,635.88c-8.23-15.62-23.74-25.1-39.54-31.7-6.77,5.73-14.23-5.14-22.05-2.16,9.19,4.36,19.2,7.36,27.23,13.84,11.33,8.93,21.87,19.72,26.86,33.55.66-6.89-3.35-12.92-7.5-18.02-6.86-8-14.66-15.23-23.46-21.04-.26-.63-.76-1.87-1-2.51,20.32,6.34,38.6,23.57,43.48,44.88,1.02-.66,3.05-1.96,4.05-2.62.59,2.68,1.22,5.36,1.89,8.04-.04-18.45-5.64-39.49-21.61-50.46,9.35,12.59,18.02,26.45,18.93,42.61-5.54-2.72-4.05-9.98-7.3-14.42h0Z"/><path class="cls-79" d="M1430.42,533.37c-4.86,31.83,2.94,64.44,16.73,93.13,3.12,7.04,8.37,13.14,9.89,20.85-9.06-4.92-14.16-14.48-23.01-19.65,5.2,9.85,13.57,17.51,21.83,24.83,6.97,6.23,10.61,15.03,16.01,22.48-2.64-11.2-10.72-20.13-13.81-31.22-13-27.8-25.64-56.94-25.92-88.2.13-29.52,7.98-58.23,13.55-87.03,4.25-19.41,6.91-39.1,9.58-58.8,2.53-26.86,1.37-54.07-3.81-80.56,1.96,18.02,4.12,36.03,4.16,54.18-1.62,12.27-1.48,24.7-3.9,36.88-5.12,38.06-16.36,75-21.3,113.1h0Z"/><path class="cls-77" d="M778.45,645.41c1.5.22,2.99.46,4.49.7,7.21-9.63,18.84-14.16,30.04-17.3-1.16-.61-3.49-1.78-4.66-2.4-9.46,1.89-16.88,8.17-24.74,13.27,5.77-12.35,21.24-15.55,28.25-26.86-1.33.59-4.03,1.74-5.38,2.33-12.4,5.88-19.91,17.65-29.87,26.54-4.92,4.92-10.92,9.1-13.84,15.66,6.1-2.74,10.96-7.36,15.71-11.94h0Z"/><path class="cls-74" d="M971.04,647.4c-6.58-6.68-14.12-12.42-22.24-17.12-21.44-12.13-44.64-21.55-69.06-25.47-11.5-2.64-23.35-1.89-34.9-.07,29.32-.96,58.42,6.56,84.85,18.97,14.55,6.8,29.19,14.46,40.95,25.53-7.08-1.2-15.1-1.37-20.34-6.95-33.18-20.68-72.67-31.48-111.8-29.15,33.63,1.62,67.34,8.28,97.71,23.26,5.16,2.79,11.29,4.12,15.46,8.46-35.75-3.72-70.73-14.66-106.9-14.55,6.95,2.7,14.55,1.85,21.78,3.14,14.88,2.96,29.56,7.04,44.55,9.54,34.73,5.45,69,14.94,104.32,15.73-8.32-1.74-16.62-3.72-24.6-6.68-7.56-9.17-15.27-18.54-25.29-25.12-15.21-10.11-31.72-18.36-49.06-24.1l-1.81-2.05c21.02,2.44,42.05,8.04,60.7,18.28,10.35,5.73,17.93,15.01,26.27,23.16-3.51-8.26-11.7-12.96-16.99-19.91,1.94.46,5.86,1.35,7.8,1.81-.85-.94-2.53-2.81-3.38-3.74-12.77-8.41-26.2-16.3-41.28-19.59.87,1.35,2.62,4.06,3.49,5.4-.96-.89-2.85-2.7-3.81-3.6-16.99-.78-33.18-7.73-50.26-8.1-12.24-.22-24.74-1.83-36.78,1.26,17.74,2.03,35.6,2.57,53.4,3.49l-.04,2.62c-3.38.02-6.73.09-10.06.16,15.16,2.01,29.04,8.91,42.44,15.94,16.25,8.8,32.09,19.59,43.07,34.7-6.08-1.07-13.77-.04-18.19-5.25h0Z"/><path class="cls-69" d="M820.57,608.4l-4.22-1.09c1.14-.32,3.42-1,4.56-1.35,8.39-5.84,18.47-8.43,28.34-10.54-17.88-.46-36.53,6.12-48.84,19.36,1.53.09,4.53.28,6.04.37l-1.26-2.62c4.77-3.46,11.17.85,15.4-4.14h0Z"/><path class="cls-70" d="M1252.57,1181.52c-14.51,9.21-28.19,19.82-43.85,27.1-30.19,14.84-64.51,18.69-97.77,17.8-31.87.85-64.31-4.14-93.24-18.04-14.05-6.27-26.43-15.51-39.47-23.44,5.99,7.93,14.55,13.42,22.76,18.84,18.34,11.94,39.19,19.54,60.47,24.29,32.83,5.7,66.58,6.36,99.49.85,34.38-5.95,67.25-22.28,91.6-47.4h0Z"/><path class="cls-78" d="M764.72,644.78c11.5-16.17,19.3-34.9,24.68-53.98,7.43-26.49,4.42-54.46-.82-81.04-7.6-38.26-16.47-76.36-20.11-115.26-.52-24.77.43-49.78,6.32-73.96-13.98,49.89-6.56,102.47,3.33,152.39,6.29,33.48,16.36,67.36,11.52,101.74-3.2,24.97-15.23,47.29-24.92,70.12h0Z"/><path class="cls-76" d="M1374.37,595.48c6.36,2.6,12.98,4.49,19.61,6.36-.28.61-.89,1.85-1.18,2.46,15.88,1.7,23.88,18.56,39.19,21.68-2.83-2.66-5.73-5.27-8.23-8.21,1.22-.02,3.7-.02,4.95-.02-14.64-13.73-34.25-21.91-54.33-22.26h0ZM1422.02,616.27c-2.28,1.28-6.73-1.2-5.86-3.92,2.28-1.16,6.71,1.11,5.86,3.92Z"/><path class="cls-94" d="M1252.62,645.64c-3.22,2.64-6.54,5.58-10.83,6.21-3.94,1.35-9.33.85-11.48,5.18,29.52-3.03,58.36-10.52,87.77-14.44,18.74-4.4,37.53-8.91,56.9-9.3-20.96-3.53-41.66,2.96-62.32,5.38l-.28-2.2c15.62-2.46,30.72-7.28,46.18-10.42,13.98-1.92,27.5-8.12,41.78-6.16-4.12-1.28-8.34-2.14-12.57-2.9-3.16-2.24-7.21-2.16-10.81-2.81.8-1.05,2.46-3.14,3.29-4.18-1.87,1.02-3.72,2.07-5.56,3.12-37.08-1.89-73.37,12.57-104.25,32.18-5.77,2.79-12.33,3.33-18.65,3.7,35.18-26.88,78.76-42.87,123.06-44.33-26.29-3.7-52.48,4.33-76.62,14.07-16.58,6.38-32.02,15.51-45.64,26.91h0ZM1358.2,615.09c9.19-2.31,18.61.07,27.73,1.59l1.33,2.51c-28.08,3.99-57.4,6.64-82.82,20.22-9.76,2.37-19.65,4.45-29.67,5.31,25.4-15.23,54.2-24.9,83.43-29.62Z"/><path class="cls-101" d="M1269.89,1165.44c4.42-.96,9.02,2.96,13.16.5,1.22-4.66-2.33-8.26-4.79-11.65-3.29,2.03-6.47,4.42-10.17,5.6-26.4,4.51-51.87-6.8-77.36-11.9-17.54-4.25-36.53-5.16-53.5,1.87-15.88,6.93-34.59,6.45-50.35-.59-23.79-10.19-49.71-1.48-73.56,3.74-17.45,4.22-35.34,10.37-53.5,7.25-3.92-.63-7.25-2.87-10.28-5.29-5.34,1.16-7.21,6.25-6.86,11.17,5.08-.5,10.15-2.44,15.23-.68,10.74,2.74,21.98,1.3,32.72-.78,23.26-5.18,46.16-13.22,70.12-14.48,16.19-1.33,29.87,9.44,45.72,10.56,22.11,3.77,41.28-13.09,63.39-10.37,23.7,3.12,46.62,10.33,69.98,15.27,9.96,2.12,20.09,1.05,30.06-.24h-.01Z"/><path class="cls-102" d="M1067.72,1265.93c-26.91,5.86-51.98,17.51-76.38,29.94,28.28-10.87,56.34-23.83,86.7-27.8,24.62-3.4,49.73-3.42,74.33.04,29.67,3.88,57.42,15.62,84.59,27.56-24.1-14.62-50.76-24.94-78.4-30.5-29.85-5.86-61.13-5.68-90.84.76h0Z"/><path class="cls-25" d="M1186.2,659.99c-.82-6.52-2.64-13-1.78-19.61.7-8.39,4.42-16.03,6.93-23.96-10.08,11.42-12.11,30.08-5.14,43.57Z"/><path class="cls-27" d="M1156.33,816.88c-1.55-24.01-5.18-47.77-7.32-71.71-2.87,24.08,3.05,47.86,3.58,71.85,1.02,14.4.43,28.8.48,43.2,2.01-14.36,3.74-28.82,3.26-43.33h0Z"/><path class="cls-29" d="M1039.47,636.18c1.55,7.1.78,14.38.43,21.57,6.66-14.44.8-30.69-7.12-43.33,1.16,7.58,5.4,14.23,6.68,21.76h0Z"/><path class="cls-24" d="M1038.12,672.04c8.76,12.13,20.04,22.72,26.01,36.75,2.92,5.62,3.51,12.52,8.04,17.26-1.5-23.14-18.1-41.59-34.75-56.12l.7,2.12h0Z"/><path class="cls-23" d="M819.88,638.99c7.16-2.18,15.03-1.68,21.89-4.9-18.86-3.49-35.99,6.69-52.7,13.75.22.66.63,2.01.82,2.66-10,.72-17.47,9.41-24.42,15.94,1.35.02,4.01.09,5.36.11,5.1-4.7,10.81-8.76,17.12-11.72,10.44-5.62,20.43-12.42,31.92-15.84h0Z"/><path class="cls-26" d="M1167.09,658.34c-17.03-14.71-24.86-37.47-27.1-59.3-1.2,17.71,4.31,35.75,14.4,50.26,6.18,8.23,13.84,16.47,24.03,19.36-3.26-3.97-7.45-7-11.33-10.33h0Z"/><path class="cls-30" d="M777.03,666.33l1.59-2.37c-2.6.85-5.18,1.72-7.78,2.6-2.46,3.1-5.08,6.06-7.67,9.04-4.79,5.36-7.82,12.09-9.3,19.08,5.66-10.96,13.77-20.45,23.16-28.34h0Z"/><path class="cls-73" d="M1095.41,984.39c-13.57-1.68-23.53-12.44-29.89-23.76-3.2-6.1-7.32-12.27-7.06-19.43-.26-20.39,12.35-38.43,12.24-58.8-3.55,20.68-16.73,39.3-15.6,60.82,2.44,14.84,10.58,29.91,23.92,37.53,1.72.74,3.49,1.44,5.27,2.14,17.17,8.5,38.17,9.46,55.25.16,16.01-6.02,25.01-22.14,30.08-37.53,2.68-22.37-11.02-42.09-16.84-62.91,2.12,17.95,10.42,34.31,13.61,52.01,1.83,8.3-2.68,16.14-6.08,23.4-4.6,8.04-9.28,17.03-17.84,21.46-14.53,7.06-31.44,9.39-47.08,4.95v-.03Z"/><path class="cls-75" d="M1076.77,749.61c-1.66,4.77-1.62,9.87-2.01,14.86-1.72,23.35-7.06,46.58-4.97,70.1.87,9.26.16,18.72,2.51,27.77-.37-10.76-.26-21.55-.2-32.31.2-26.91,7.06-53.46,4.66-80.43h0Z"/><path class="cls-32" d="M1084.63,698.7c8.82-.32,17.26-3.66,26.14-3.42,9.63-.39,18.76,3.55,28.39,3.33-17.34-7.36-37.38-8.5-54.52.09h0Z"/><path class="cls-87" d="M915.13,635.2c-13.38-2.46-25.64-9.65-39.45-9.92-4.14-.22-8.28-.55-12.38-1.2-6.86-.66-13.77-.39-20.66-.22,16.47,4.12,33.83,3.03,50.12,8.14,7.3,1.57,14.79,5.23,22.35,3.18h0Z"/><path class="cls-88" d="M612.23,806.23c2.46,17.28-.13,34.9,3.26,52.08,2.79,15.25,7.21,30.58,16.3,43.39,6.27,10.19,16.34,17.06,23.83,26.2,6.1,7.19,9.1,16.28,14.23,24.08-2.81-26.91-30.13-39.97-40.15-63.33-13.25-29.71-14.29-63.89-7.14-95.29-1.5-1.39-2.99-2.79-4.49-4.14-.91,3.58-1.87,7.16-3.07,10.67-.7-20.04-4.1-39.84-4.22-59.95-1.72-14.62,6.27-29.39.11-43.46,12.59.66,19.67,12.77,25.16,22.59,8.26,16.4,17.38,32.46,24.31,49.48l-2.2,1.18c-6.14,3.62-13.14,5.18-19.87,7.23,7.91,3.4,17.12-.16,22.98-5.9.26.5.78,1.48,1.02,1.98,8.26,14.36,10.87,30.89,16.36,46.29-.16-5.79-.46-11.56-1.11-17.32-.82-8.89-4.58-17.12-7.75-25.33-10.83-24.22-21.91-48.52-36.21-70.93-4.36-7.48-12.18-12.31-20.87-12.48-1.5,2.7-4.62,5.06-4.18,8.46,1.05,10.15-2.35,20.02-2.18,30.15.16,24.9,2.85,49.67,5.88,74.35h0Z"/><path class="cls-91" d="M754.08,710.62c11.76,9.94,25.38,19.04,41,20.96l1.96-.55c-9.72-4.47-20.04-7.62-29.37-12.92-4.47-2.64-8.96-5.23-13.59-7.5h0Z"/><path class="cls-85" d="M682.98,805.32c-.52,11.31-1.96,22.64-5.62,33.4-3.05,11.24-8.39,22.68-6.1,34.57,1.98,11.61,10.08,20.68,17.76,29.06,7.14,7.71,16.21,19.82,9.74,30.33-5.12-10.67-8.67-23.14-19.26-29.87-8.96-3.68-19.74-6.27-24.22-15.9-12.24-22.81-8.3-49.89-5.7-74.52-6.14,17.38-7.5,36.32-5.2,54.57,1.14,10.65,5.04,21.28,12.24,29.37,6.45,7.75,18.3,6.66,25.01,14.07,6.23,6.86,7.98,16.23,12.36,24.14,1.5,3.99,6.29,2.18,9.46,2.46,4.38-8.5,2.18-18.47-2.33-26.4-6.56-13.31-21.24-21.57-24.51-36.6-2.81-9.56,1.33-19.06,3.9-28.14,4.16-13,6.45-27.16,2.51-40.52h-.02Z"/><path class="cls-84" d="M618.84,785.92c1.44,1.46,2.92,2.9,4.42,4.36,3.05-19.76,7.45-39.41,8.73-59.38-.04-4.33-.61-8.62-1.59-12.83-1.7,8.67-2.64,17.49-4.33,26.18-1.78,13.98-4.25,27.89-7.23,41.68h0Z"/><path class="cls-86" d="M1477.61,931.12c18.47-27.25,33.57-57.28,40.04-89.75-4.2,9.63-5.47,20.26-9.87,29.85-16.92,40.87-45.14,75.36-69.66,111.71-21.52,32.61-40.43,67.18-54.59,103.65,10-23.09,21.72-45.42,34.5-67.08,18.22-30.54,39.56-59.04,59.58-88.38h0Z"/><path class="cls-90" d="M860.86,748.46c-10.04-2.96-19.17-8.21-28.91-11.9,13.4,9.94,29.26,16.56,45.68,19.36,29.89,6.23,60.61,1.44,89.89-5.58-12.04-2.01-23.66,3.29-35.62,3.9-23.74,3.72-48.1.94-71.05-5.79Z"/><path class="cls-71" d="M1339.45,786.95c22.76-1.81,45.7-11.22,60.76-28.82-4.42,2.53-8.43,5.68-12.61,8.52-24.66,16.56-56.09,20.45-84.94,15.62-21.64-2.81-41.57-12.18-62.41-17.97-7.28-1.48-15.12-3.97-22.37-1.09,14.55-1.72,28,4.97,41.18,10.06,25.33,10.26,52.94,16.99,80.4,13.68h0Z"/><path class="cls-72" d="M957.45,776.78c15.07-5.68,29.94-13.94,46.58-13.09-21.59-2.96-40.95,9.74-61.32,14.55-38.28,11.65-83.26,7.89-115.04-18.02,12.13,15.12,31.35,22.62,49.96,25.97,26.84,5.51,54.57.18,79.84-9.41h0Z"/><path class="cls-22" d="M706.14,843.31c4.2,15.88,10.28,31.19,16.23,46.49,8.82,21.02,21.76,40,34.88,58.51,32.79,44.68,63.85,91.3,85.07,142.72-1.72-7-4.92-13.44-8-19.91-9.89-21.94-20.91-43.42-33.38-64.03-21.2-36.21-49.25-67.88-69.84-104.46-10.67-18.72-17.54-39.22-24.97-59.32h0Z"/><path class="cls-52" d="M1078.4,995.32c-9.28-7.32-20.61-14.64-32.98-12.72-4.75.66-9.48,3.9-10.87,8.65,2.18,8.06,13.66,14.12,20.98,8.8-4.53-3.83-14.62-2.48-14.68-10.74,12.96-2.74,24.79,4.31,35.01,11.37,5.49,3.83,8.98,10.08,15.32,12.79-.7-7.91-7.23-13.27-12.77-18.15h0Z"/><path class="cls-53" d="M1178.29,982.25c-12.83-.89-23.64,7.41-32.57,15.62-3.83,3.92-8.89,7.43-9.98,13.16-.46,3.03-1.89,6.08-5.25,6.66-12.79,4.47-27.16,3.22-39.26-2.68,7.95,12.77,26.86,13.07,39.32,7.02,6.95-2.33,7.34-10.94,12.88-14.88,11.88-9.67,25.29-21.41,41.91-17.93-1.57,8.54-11.59,8-17.08,12.59,8.73,1.96,20.41-.89,22.72-10.67-1.64-5.4-6.77-9.92-12.7-8.89h0Z"/><path class="cls-50" d="M1101.17,1098.81c14.64,8.71,37.05-1.2,39.97-18.08-1.26-13.75-6.43-26.82-12.35-39.17,2.51,15.01,10.5,29.28,8.14,44.9-6.41,6.34-14.25,12.92-23.92,11.81-9-.57-19.84-5.23-23.07-14.23.13-14.59,7.69-27.82,9.21-42.2-5.25,13.98-11.96,28.02-12.27,43.2,1.85,6.77,8.48,10.7,14.27,13.77h0Z"/><path class="cls-51" d="M1008.73,947.2c-3.94,15.71-5.75,33.04,1.76,48.04,6.54,16.19,24.83,23.42,41.22,23.96-.57-.85-1.7-2.53-2.26-3.35-12.68-3.83-26.82-8.89-33.16-21.57-9.98-19.13-4.51-41.48,2.44-60.63,1.81-4.86,4.12-9.5,6.23-14.23-9.08,6.18-12.57,17.86-16.23,27.77h0Z"/><path class="cls-49" d="M1173.27,1019.09c13.77.18,28.54-4.25,37.17-15.55,10.28-14.16,11.29-32.7,8.78-49.45-4.06-12.79-8.82-25.79-17.97-35.9-.61-.11-1.83-.32-2.44-.43,3.05,5.36,5.9,10.85,8.17,16.62,6.56,15.88,9.58,33.75,5.75,50.69-2.6,11.68-11.09,22.05-22.46,26.1-5.77,2.35-12.66,3.01-16.99,7.93h0Z"/><path class="cls-43" d="M984.86,818.98c26.75-17.99,44.53-45.58,64.24-70.43,2.22-2.55,4.79-4.7,7.34-6.91-2.37.7-4.79,1.28-7.16,1.92,6.6-20.66-9.26-39.49-23.46-52.52,10.44,16.19,28.43,33.55,20.82,54.57-11.37,16.78-22.83,33.57-36.69,48.43-7.19,9.46-17.1,16.25-25.1,24.94h0Z"/><path class="cls-44" d="M1209.85,951.53c-.7,6.8-1.02,13.64-2.18,20.41-1.09,4.97-3.81,9.3-5.82,13.94l1.16,1.68c8.41-10.04,8.89-23.7,6.84-36.03h0Z"/><path class="cls-93" d="M962.72,682.36c-25.81-8.69-53.92-8.8-80.24-2.31-15.73,4.86-31.28,10.98-44.79,20.57-7.87,5.7-16.44,10.98-21.91,19.22,17.45-9.96,33.13-23.55,52.85-29.19,29.3-10.65,62.16-12.42,92.02-3.03,20.22,6.25,34.22,23.14,51.52,34.34-4.64-8.96-14.59-13.44-20.52-21.48,3.42.89,6.88,1.83,10.31,2.72-11.35-9.69-25.03-16.4-39.24-20.82h0Z"/><path class="cls-92" d="M1016.12,951.67c-2.28,12.7-2.79,27.64,6.66,37.76l.82-1.53c-1.66-4.6-4.03-8.91-5.16-13.64-1.09-7.52-1.42-15.1-2.33-22.59h0Z"/><path class="cls-89" d="M1190.01,657.96c2.31-9.48,3.33-19.47,8.3-28.08,3.97-8,10.08-14.57,15.16-21.87-15.82,10.81-25.36,30.74-23.46,49.96Z"/><path class="cls-40" d="M1196.21,651.64c4.29-14.34,13.61-26.82,26.36-34.73,11.56-8,25.66-10.24,38.63-14.94-12.44-.07-24.81,3.72-35.82,9.41-14.36,8.62-28.8,22.37-29.17,40.26h0Z"/><path class="cls-38" d="M972.31,1153.44c26.12-12.09,48.75-30.46,74.72-42.83,9.04-3.9,18.65-7.73,28.64-7.43,11.33,3.07,21.46,9.98,33.36,11.17,16.9,1.96,31.04-10.94,47.38-11.72,33.98,9,61.32,32.52,92.21,48.18l2.2-.28c-19.8-14.38-40.41-27.77-61.89-39.52-11.96-6.27-25.08-12.66-38.97-10.65-16.53,1.89-32.35,14.66-49.3,7.43-14.79-5.86-31.61-10.31-47.1-4.29-30.94,11.81-56.18,34.05-84.78,50.17.89-.07,2.66-.18,3.53-.24h0Z"/><path class="cls-39" d="M1247.6,615.61l-1.53-.72c-.59.63-1.74,1.92-2.33,2.57.91-.02,2.76-.09,3.68-.13l.18-1.72Z"/><path class="cls-57" d="M1151.57,726.78c3.18-.04,3.05-4.01,4.33-6.02,4.6-14.94,13.81-27.93,24.03-39.56,2.79-3.18,5.23-6.68,7.34-10.37-18.04,13.42-32.15,33.48-35.71,55.94h0Z"/><path class="cls-64" d="M1237.02,620.67c2.64,1.44,7.08.48,6.73-3.2-2.74-.41-5.99.02-6.73,3.2Z"/><path class="cls-63" d="M1180.05,751.31c-4.64-8.41-5.08-18.76-1.09-27.5,4.6-13.05,14.53-23.03,21.2-34.94-14.9,14.29-29.96,33.61-25.79,55.62-4.14-3.68-8.37-7.25-12.81-10.54.43,1.14,1.3,3.4,1.72,4.53,19.93,17.95,33.61,41.52,52.74,60.28,9.69,9.06,18.91,19.36,31.61,24.27-6.38-4.16-12.72-8.48-18.22-13.77-18.43-17.54-34.53-37.34-49.37-57.94h0Z"/><path class="cls-62" d="M1442.95,646.31c-3.26-7.64-9.04-14.38-16.19-18.61-8.48-2.79-17.49-4.2-26.43-3.66,8.5,2.79,16.64,6.52,24.79,10.19-.68-1.3-2.05-3.9-2.74-5.18,8.54,3.66,12.35,13.14,20.57,17.26h0Z"/><path class="cls-61" d="M1210.53,720.98l2.31.57c14.42-10.65,27.32-23.85,43.87-31.31,20.98-9.65,44.68-9.54,67.2-7.45,28.52,3.29,55.34,15.73,77.8,33.33,2.72,1.53,5.47,3.05,8.26,4.53-16.9-20.26-41.66-32.44-66.4-40.34-29.46-7.67-61.7-7.21-89.93,4.81-13.81,6.27-27.66,13.5-37.99,24.92,4.22-2.64,8.56-5.08,13.22-6.88-5.43,6.62-12.44,11.65-18.34,17.82h0Z"/><path class="cls-60" d="M1380.2,2430.06c-15.07-2.99-30.52-3.24-45.83-2.55-9.1.22-16.84,5.27-25.14,8.26-6.21,2.53-12.63,5.29-17.1,10.48,6.82-1.26,12.04-6.16,18.52-8.34,3.66-.48,7.39-.28,11.13-.32-1.7-.39-5.1-1.18-6.77-1.55,12.38-10.42,29.08-4.31,43.64-5.16,21,3.03,44.66.68,62.37,14.62,14.34,9.6,16.97,28.12,19.32,43.9,3.03-10.67-1.48-21.39-5.73-31.02-2.55-6.56-8.96-10.13-12.72-15.8,13.09,3.51,29.89,7.56,34.4,22.22,1.48,13.92-4.2,27.97-11.5,39.58,4.12,1.39.7,3.81-.59,5.88,20.96-7.58,31.52-33.48,24.01-54.05-.16,7.3.24,14.68-1.28,21.89-1.11,3.2-.85,8.41-5.47,8.73,2.74-11.52,3.6-23.26,2.51-35.07-.37,7.75-.24,15.53-.87,23.26l-3.6.09c1.92-10.31.32-22.07-8.1-29.19.96,3.22,1.94,6.45,2.94,9.69-6.12-3.9-10.72-10.13-17.93-12.13-18.19-6.29-36.73-12.88-56.18-13.42h-.02Z"/><path class="cls-59" d="M1609.35,2787.84c-4.08-6.38-10.81-10.39-15.27-16.44-11.59-13.73-16.99-31.08-24.01-47.27,4.9,24.66,15.73,51.61,39.28,63.73h0Z"/><path class="cls-18" d="M1547.53,2783.13c12.48,9.26,29.6,9.12,44.05,5.1-8.71-.91-17.47.89-26.12-.57-6.14-.91-11.94-3.12-17.93-4.53h0Z"/><path class="cls-21" d="M1588.92,2711.24c-25.29-33.68-42.28-72.61-66.49-106.99-10.11-15.14-23.12-28-33.77-42.68,7.43-2.28,14.36-6.54,17.47-13.98-7.62,1.96-15.25,4.29-23.18,4.22-3.44-12.09.22-26.99,11.04-34.2,9.76-9.92,17.67-23.68,15.69-38.08-.61-.48-1.81-1.42-2.4-1.89-2.14-14.86-1.96-30.15-6.12-44.7-5.49-19.56-12.96-38.51-20-57.55-11.13-29.67-18.15-60.63-26.52-91.12-11.17-40.84-26.86-80.65-49.19-116.75-29.87-49.34-71.37-91.46-119.8-122.74-48.52-32.59-103.68-53.54-159.75-68.97-67.16-18.49-136.18-30.56-205.58-36.14-45.64-3.77-91.56-2.42-137.07,2.14-67.62,6.75-135.35,22.3-195.74,54.36,8.12-2.44,15.38-6.93,23.31-9.87,63.7-25.56,132.1-38.74,200.48-42.14,46.77-4.12,93.81-1.2,140.44,3.05,78.47,9.69,156.48,25.84,231.1,52.31,59.74,21.26,115.52,54.27,161.39,98.21,36.75,36.88,66.33,80.99,85.7,129.38,15.38,36.64,24.1,75.5,34.7,113.65,8.6,31.52,22.48,61.26,31.33,92.69,4.62,18.69,8.23,38.49,3.01,57.47-.43-3.85-.96-7.71-1.64-11.5-2.57,7.25-.8,15.38-4.22,22.39-5.56,14.57-18.28,27.23-16.88,43.81,3.97,17.82,17.95,30.89,29.1,44.55,31.63,38.24,50.41,84.87,79.74,124.7,10.72,15.64,24.38,29.76,30.78,47.95,4.45,12.24,3.62,26.23-2.42,37.78-7.73,17.03-23.55,29.58-41.46,34.44-15.78,5.36-36.25,3.94-45.92,20.13-9.44,17.01-12,38.78-5.31,57.19,2.57,8.46,13,13.44,11.68,23.05-1.87,11.88-7,23.44-15.36,32.2-6.52,5.99-14.71,11.06-23.74,11.37-6.52-1.5-11.37-7.67-18.49-7.39-21.39-.68-41.02,9.87-61.76,13.53-12.77,2.18-27.77,6.14-38.82-2.92-2.66,3.6-8.48,9.37-2.87,13.34,2.62-1.59,5.29-4.47,8.73-3.22,16.58,2.79,33.38-1.11,49.34-5.45,13.22-3.9,26.45-9.24,40.36-9.58,8.39,1.78,15.88,6.34,23.55,10.02,15.96,11.04,22.18,34.16,14.38,51.81-3.18,1.35-6.38,3.14-9.94,2.81-18.24-.5-36.23-4.9-52.83-12.42-12.5-4.6-23.72-12.48-36.73-15.58,18.52,12.11,38.58,22.46,59.86,28.8,7.95,1.81,16.17,2.22,24.29,3.24-6.38,5.82-13.86,10.61-18.82,17.82-3.81,5.25-6.21,11.33-8.78,17.26-8.04-.04-16.01,1.44-23.44,4.49-2.68,1.02-4.97,2.79-7.25,4.42,10.19-1.05,19.82-5.43,30.28-4.77,4.16,23.99,17.17,45.83,18.38,70.43,1.53,22.62-3.88,45.79-16.01,64.99-11.31,18.95-30.08,33.22-51.44,38.88-17.23,4.31-35.23,6.1-52.9,3.81-29.89-2.35-59.34-8.21-88.73-13.88-31.11-6.64-62.52-11.65-93.78-17.56-21.55-3.33-43.14-7.14-64.96-7.93.04.48.13,1.42.18,1.89,27.66,2.64,54.81,9.06,82.24,13.44-8.93,2.24-18.15,3.46-26.73,6.91-22.18,8.62-41.54,25.45-51.41,47.32-13.4,28.6-9.58,61.72-21.3,90.89-5.7,17.56-17.17,32.22-27.14,47.47-11.68,17.6-19.28,37.67-23.24,58.36.5-.04,1.53-.13,2.05-.16,3.14-14.18,9.52-27.41,15.92-40.36,10.74-20.39,27.27-37.38,35.75-59.06,12.22-27.69,10.13-58.86,19.72-87.25,7.06-21.35,23.62-38.76,43.55-48.69,21.32-11,46.58-12.48,69.75-7.45,27.52,5.2,54.94,11,82.52,15.86,23.7,4.29,47.77,7.25,71.91,6.06,24.66-.52,49.71-9.28,67.47-26.79,28.84-28.98,39.34-74.24,26.97-113.1-3.77-15.49-12.27-29.82-13.75-45.75,3.97-17.19,18.74-30.39,34.57-37.1,7.08-2.81,11.4-10.06,11.79-17.51,2.31-17.08-5.77-34.07-18.45-45.18,23.33-4.64,38.06-28.04,39.82-50.54-.32-9.6-9.65-15.32-12.4-24.05-5.75-16.17-3.03-34.68,4.2-49.91,5.1-10.42,17.01-13.29,27.47-15.05,15.49-2.94,31.5-7.06,43.57-17.8,15.32-12.66,25.6-32.38,24.01-52.48-3.42-24.6-21.44-43.07-35.07-62.61l.02-.03ZM1503.52,2488.79c1.14,9.1-5.12,16.8-9.89,23.92,3.31-7.98,6.64-15.92,9.89-23.92Z"/><path class="cls-28" d="M1517.64,2821.23c1.35,3.35,5.34,3.72,8.32,4.88,12.13,4.03,26.93,4.27,37.23-4.31.02-1.5.04-4.51.07-6.04-3.42-2.16-6.88-4.56-11.02-4.77-20.06-2.4-41.07.91-58.65,11.15-5.27,3.22-11.42,6.45-13.34,12.86,7.93-.26,13.53-7.19,20.96-9.44,17.47-6.91,37.42-13.2,56.01-7.06-10.54,10.61-26.77,4.2-39.58,2.72h0Z"/><path class="cls-15" d="M1422.48,2457.28c7.87,9.44,10.02,22.11,10.98,34,1.28-7.84.3-15.9-2.33-23.37-3.94-13.18-16.44-21.41-28.34-26.79-.02,1.07-.04,3.18-.04,4.24l3.31-1.48c5.99,3.77,11.52,8.28,16.42,13.4h0Z"/><path class="cls-33" d="M1504.44,2894.03c-.09,11.52,5.04,24.35,16.03,29.41-2.79-6.91-9.02-11.85-11.11-19.11-2.85-12.96.18-26.04,3.16-38.65-5.01,8.6-7.52,18.45-8.08,28.34h0Z"/><path class="cls-31" d="M1320.77,2467.6c14.14,1.11,28.16,3.26,41.59,8,19.86,4.38,37.67,14.68,56.27,22.55,5.66,2.2,10.65,5.79,14.71,10.35-.76-2.09-1.44-4.18-2.05-6.27-3.1-14.53-4.14-30.44-13.77-42.5-3.72-6.02-10.83-8.6-14.77-14.36-.63.18-1.89.55-2.55.72,6.77,5.82,14.68,10.9,18.69,19.24,5.47,10.92,8.82,23.03,10.58,35.09-13.98-7.58-27.86-15.4-42.83-20.89-.37-1.24-1.07-3.72-1.42-4.95-5.7-7.19-13.02-12.86-20.3-18.34-9.48-7.06-21.64-7.84-32.59-11.2-5.86-1.76-11.85.52-17.58,1.59,22.62-3.46,44.6,7.6,61.15,22.22,2.68,2.92,7.58,4.58,8.48,8.76-9.63-1.98-18.91-6.27-28.52-8.78-11.68.48-24.51-8.17-35.09-1.22h0Z"/><path class="cls-36" d="M1241.91,2425.7c.89-17.28,1.48-34.84-2.07-51.87-7.32-39.15-27.18-74.77-50.69-106.44-22.05-30.06-47.47-57.47-74.68-82.82,14.09,15.94,30.35,30.02,43.48,46.9,35.05,41.48,67.79,87.84,79.15,141.95,4.29,17.12,3.42,34.84,4.81,52.28h0Z"/><path class="cls-35" d="M752.33,2523.93c-19.39-17.6-44.83-30.52-71.58-29.17-21.28-.55-41.54,9.89-56.29,24.7-26.47,28.34-38.67,68.14-37.36,106.44-.7,22,4.18,43.76,9.39,65.03,12.44,41.76,31.98,82.22,62.22,114.06,17.74,19.47,39.76,34.2,59.54,51.42,12.52,10.58,25.4,21.59,41.28,26.68,16.34,5.31,35.6,4.42,49.87-5.88,8.23-5.2,12.83-14.2,16.36-22.96,2.87-13.66,1.66-28.16-2.26-41.52-2.18,5.16-1.07,10.76-.61,16.17,1.18,10.24.13,21.02-4.64,30.3-8.62,18.67-32.04,24.86-50.82,20.54-19.82-4.22-35.12-18.34-50.04-31.11-10.78-9.65-22.81-17.74-33.55-27.43-23.62-20.2-44.26-44.37-58.14-72.3-16.53-30.69-28.02-64.48-31.56-99.21-5.45-40.29,1.07-84.22,26.2-117.2,13.81-18.32,35.03-32.02,58.4-32.79,27.73-1.46,54.16,12.13,73.72,31.02,9.71,7.04,15.8,17.84,25.49,24.81-5.99-12.29-15.64-22.42-25.6-31.61h-.03Z"/><path class="cls-37" d="M719.92,2758.23c10.85-.59,22.18-3.01,32.59,1.48,15.55,4.95,18.56,25.95,34.75,29.69,12.52,2.44,20.52-13,15.01-23.31-6.82-11.2-20.8-15.84-26.82-27.73-7.1-11.85-.46-25.62-.48-38.26.11-8.65.74-19.43-7.6-24.74,1.33,8.19,3.42,16.4,2.81,24.79-.46,11.56-6.36,23.01-2.46,34.55,4.01,14.38,18.28,21.28,28.28,30.92,7.16,7.41-.37,23.01-11.11,18.04-12.15-7.23-16.49-23.53-30.46-28.52-14.92-6.38-31.37.5-46.6-3.68-16.99-6.64-28.48-24.18-29.12-42.24-2.99-17.56,1.89-36.34,13.75-49.71,10.85-11.72,27.58-13.92,40.78-21.96,9.37-5.16,16.82-12.98,24.08-20.7-1.85,21.11-10.7,41.78-25.64,56.94-2.7,2.66-5.06,5.62-7.08,8.82,11.92-4.47,19.8-15.58,26.25-26.04,12.13-20.76,14.29-46.79,5.73-69.25-7.64-19.54-19.02-38.93-37.19-50.37-19.78-12.75-47.06-14.44-67.2-1.59-16.38,9.65-26.73,26.86-32.09,44.7-10.96,35.46-6.88,73.63,2.14,109.04,9.3,38.43,32.83,73.59,65.94,95.48,8.6,5.49,17.34,11.76,27.66,13.4-11.06-6.6-22.28-13.07-32.11-21.48-16.99-13.55-32.35-29.94-41.91-49.64-17.01-32.74-23.68-70.12-22.94-106.79.22-12.68,1.59-25.42,5.66-37.49,4.31-14.79,11.72-29.37,24.35-38.71,18.02-14.23,44.57-15.38,64.46-4.4,14.16,7.73,24.79,20.7,31.74,35.07,3.12,6.68,7.69,13.27,7.73,20.91-3.72,4.03-8.41,7-12.96,10-8.48,4.88-18.34,11-28.45,7.6-5.68-1.55-8.14-7.84-8.12-13.22.2-8.65,4.1-16.62,8.17-24.08,3.88-7.14,10.61-11.9,15.97-17.84-5.06,1.62-9.89,3.92-13.7,7.67-7.5,10.61-15.3,22.76-13.7,36.38.04,9,8.89,16.84,17.86,15.66,14.29-.55,27.66-9.19,36.07-20.52.98,5.49,2.03,11,2.62,16.58-3.33,2.01-6.38,4.45-9.15,7.16-11.22,10.48-25.36,17.06-39.65,22.24-8.46,4.38-16.67,9.76-22.46,17.47-8.76,11.31-11.83,25.7-13.42,39.63.13,8.85,2.4,17.51,4.53,26.06,7.84,16.9,23.85,32.15,43.51,31.98h-.03Z"/><path class="cls-34" d="M1231.88,2445.14c-7.27,3.35-12.79,9.41-19.67,13.42-24.62,16.36-53.98,26.88-73.59,49.87,18.72-15.32,39.84-27.34,61.11-38.78,11.48-7,24.08-13.4,32.15-24.51h0Z"/><path class="cls-46" d="M931.51,2681.26c16.21,4.58,31.67,11.31,47.49,17.03,34.75,13.14,69.27,26.95,102.61,43.44,50.26,25.22,98.84,55.7,137.09,97.44-3.7-7.34-10.72-12.2-16.01-18.3-25.06-25.72-55.25-45.79-86.19-63.7-54.33-31.28-113.76-51.89-172.47-73.13-4.06-1.48-8.28-2.31-12.52-2.79h0Z"/><path class="cls-45" d="M1411.11,2462.18c-10.48-11.88-23.99-21.96-39.7-25.38,18.72,7.43,34.07,20.89,45.81,37.05-1.33-4.22-3.12-8.39-6.12-11.68h0Z"/><path class="cls-58" d="M880.71,3051.3c-16.95-26.12-29.19-55.53-35.09-86.12-1.37-6.25-2.74-12.5-4.51-18.63-4.42-15.66-5.9-31.94-9.15-47.84.98,12.7,1.83,25.62,4.42,38.04,4.56,14.46,5.73,29.74,9.87,44.33,4.31,18.22,11.33,35.66,19.52,52.46,16.01,32.26,42.41,58.56,72.78,77.51,26.73,16.92,56.75,27.62,86.53,37.85,52.65,17.03,105.74,32.61,159.05,47.49,9.3,2.46,18.61,6.08,28.43,5.34-6.34-2.33-12.74-4.58-19.39-5.62-4.68-.61-9.35-1.2-13.79-2.7-23.79-7.95-47.73-15.46-71.76-22.66-47.14-15.36-95.38-28.1-140.62-48.66-33.81-16.19-65.1-39.47-86.29-70.78h0Z"/><path class="cls-54" d="M646.94,2712.44c5.01,12.44,10.31,25.1,19.17,35.38,4.88,5.56,9.56,11.98,16.71,14.82-21.91-18.84-35.9-46.75-38.38-75.52-3.66-32.38,6.41-64.07,7.43-96.22-7.8,39.65-18.88,82-4.92,121.56h0Z"/><path class="cls-14" d="M1232.04,2559.51c-8.08-2.46-16.28-4.53-24.4-6.82-7.39-1.94-14.23-5.6-21.72-7.06,11.76,7.43,25.27,12.09,38.93,14.62,2.37-.24,4.77-.48,7.19-.74h0Z"/><path class="cls-17" d="M1266.4,2466.81c9.8-1.74,18.91-6.45,28.75-7.78,11.33,3.51,23.28,1.94,34.88,3.77,8.3,1.02,16.3,4.14,24.74,4.12-14.84-7.73-32.4-7.52-48.71-7.02-3.53-.55-9.13.8-10.54-3.51,12.9-2.66,26.08-2.42,39.13-3.47-14.48-3.26-30.02-2.42-43.7,3.53-8.12,3.51-17.76,4.33-24.55,10.35h0Z"/><path class="cls-20" d="M1352.05,2551.43c-1.64-1.39-3.22-2.76-4.79-4.12-.63,4.31,3.12,5.64,6.38,6.93.16,5.29-.26,10.56-.85,15.84,9.06-2.18,7.52-14.55,5.73-21.59-2.33.66-4.49,1.64-6.47,2.94Z"/><path class="cls-13" d="M1279.92,2476.09c-2.09-1.55-4.16-3.07-6.21-4.62-4.22,1.62-8.94,3.49-8.8,8.87,5.1-.94,10.06-2.64,15.01-4.24h0Z"/><path class="cls-16" d="M1485.76,2462.89c-2.24,12.4-5.54,25.14-13.53,35.23-4.97,6.66-12.44,10.7-18.13,16.67,21.66-6.29,32.98-30.65,31.65-51.89h0Z"/><path class="cls-19" d="M1324.8,2585.59c-14.05-3.44-27.23-9.6-41-13.75,12.59,7.87,26.75,12.66,40.74,17.42,2.55.46,6.36-4.75.26-3.68h0Z"/><path class="cls-82" d="M1281.23,2543.72c24.14-9.78,48.86-20.18,75.07-22.28,8.14-1.55,13.64,5.77,15.71,12.7-31.13-.63-61.39,8.76-90.5,18.86-8.34,3.33-17.32,5.03-25.18,9.48,1.62.16,4.88.46,6.52.61,4.9.41,10.26-.63,14.88,1.72,19.56,9.89,40,18.38,61.34,23.57-3.53-.24-7.73-1.41-7.14,3.44,10.35,1.37,20.61,3.74,31.11,4.1-2.35,10.72-7.67,23.94-19.95,25.84-18.91,2.12-37.42-4.88-54.27-12.77,6.47,6.38,15.32,9.28,23.69,12.27,12.11,3.68,25.9,7.16,37.88,1.18,10.37-4.56,13.79-16.73,15.38-26.97,3.88,1.64,7.82,3.12,11.92,4.27-3.26-7.41-10.11-12.04-17.08-15.55,1.78-3.51,3.64-7,5.1-10.67,2.83-7.28,3.74-15.05,3.83-22.81,15.23.8,32.85-5.34,38.74-20.61-10.48,1.94-20.87,4.86-31.61,4.51-1.85-5.01-4.05-9.89-6.62-14.55,4.27-1.72,8.37-3.85,12.22-6.41-2.81.43-5.62.94-8.39,1.37-29.3-.59-57.99,7.8-84.57,19.59-12.02,6.38-24.9,11.26-35.88,19.43,10-1.11,18.65-6.58,27.82-10.31h0ZM1278.49,2561.62c.83-.2,2.51-.59,3.33-.76,2.57-1.98,5.66-2.94,8.82-3.58,16.69-3.88,33.36-8.37,50.46-9.87-.55,2.14-1.09,4.29-1.59,6.45-1.74,10-.87,20.24,1.96,29.98-21.94-4.47-42.26-14.07-62.98-22.22h0ZM1341.36,2590.47c1.96-3.05,8.69-1.81,12.11-.78-1.81,3.35-8.85,2.03-12.11.78ZM1353.88,2583.9c-6.66,3.7-9.69-4.77-10.39-9.87-.35-7.34-1.85-15.53,2.33-22.11.07-1.46.22-4.38.28-5.82,5.75.89,13.48-2.07,18.06,1.96,2.4,12.63-2.57,25.97-10.28,35.84h0Z"/><path class="cls-83" d="M1460.2,2547.68c-1.35-10.52-3.53-21.13-7.6-30.96-.76,10.85,2.68,21.41,7.6,30.96Z"/><path class="cls-81" d="M1365.84,2621.45c.2,17.17-3.1,34.05-9.06,50.08,10.52-14.03,12.72-33.22,9.06-50.08Z"/><path class="cls-80" d="M1388.28,2602.67c5.64-5.75,9.17-13.14,14.2-19.41,8.17-11.68,22.18-18.38,28.62-31.35.26-2.01.57-4.01.87-6.02-6.77,11.52-17.67,19.63-26.47,29.46-6.56,8.52-13.86,16.95-17.23,27.32Z"/><path class="cls-56" d="M1439.43,2501.91c10.81-12.57,10.94-33.29-.16-45.83,2.66,8.41,7.23,16.82,5.56,25.93-1.3,6.75-3.9,13.2-5.4,19.91h0Z"/><path class="cls-55" d="M1429.3,2782.57c1.09-5.66,2.07-11.35,2.37-17.12-4.38,7.98-7.69,16.67-8.65,25.77-.18,13.22,3.31,26.77,11,37.67,10.52,13.77,29.69,21.78,46.66,16.47-11.31-2.09-23.35-3.42-32.9-10.42-16.42-11.33-22.14-33.5-18.49-52.37h0Z"/><path class="cls-41" d="M1472.22,2824c.07-.35.22-1.07.28-1.41-6.66.35-14.09.96-19.74-3.22-7.25-4.45-11.46-12.11-14.88-19.61,1.22,15.55,18.47,32.26,34.34,24.24h0Z"/><path class="cls-42" d="M1440.87,2765.11c6.84-4.86,13.07-10.85,21.16-13.75,8.69-3.68,18.28-2.94,27.43-4.45-17.78-3.77-39.15,1.59-48.59,18.19h0Z"/><path class="cls-48" d="M1400.28,2478.4c-3.74-7.82-10.37-13.68-16.44-19.65-9-8.26-19.41-16.42-32.09-17.23,20.41,5.77,33.66,23.12,48.54,36.88h0Z"/><path class="cls-47" d="M1483.98,2586.57c3.85,6.43,9.5,11.48,14.09,17.38,22,27.12,35.53,59.91,56.36,87.77-7.45-16.12-17.3-31.06-25.75-46.68-12.04-21.39-25.25-43.03-44.7-58.47h0Z"/><path class="cls-3" d="M1456.38,2953.27c16.05-8.73,31.02-19.89,48.56-25.68,10.02-3.31,16.25,10.06,26.54,7.89-4.68-4.81-11.24-7.1-16.88-10.52-11.9-3.7-22.98,3.83-33.09,9.06-25.77,14.88-51.24,30.24-77.66,43.92,3.29-.98,6.62-1.74,10.02-2.51,14.71-6.27,28.78-13.96,42.52-22.16Z"/><path class="cls-2" d="M1371.5,2443.16c16.1,10.98,31.24,24.16,40.93,41.32-5.82-19.32-23.44-32.92-40.93-41.32Z"/></svg>