<?xml version="1.0" encoding="UTF-8"?><svg id="_Слой_1" xmlns="http://www.w3.org/2000/svg" viewBox="0 0 2200 5500"><defs><style>.cls-1,.cls-2{fill:#9baa97;stroke:#9baa97;stroke-miterlimit:10;stroke-width:4px;}.cls-2{opacity:.51;}</style></defs><path class="cls-2" d="M773.44,5085.24c-1.48-.06-2.54-1.32-7.21-7.49-2.17-2.86-4.65-6.16-7.37-9.83-8.31-14.9-24.43-45.65-34.41-80.12-4.93-17.04-7.59-32.28-7.86-33.92-2.41-14.08-2.71-21.94-3.93-35.88-1.17-13.39-4.9-52.04-14.26-94.87-2.02-9.24-3.87-16.74-5.09-21.49.95-1.67,2.72-4.28,5.78-6.45,1.9-1.36,7.23-5.15,13.57-3.37,7.21,2.02,9.65,9.57,9.83,10.17,9.41,33.98,18.47,69.22,27.04,105.68,13.29,56.57,24.24,111.14,33.24,163.38-.69,2.22-4.6,14.38-9.32,14.19Z"/><path class="cls-2" d="M1431.12,5087.7c1.48-.06,2.54-1.32,7.21-7.49,2.17-2.86,4.65-6.16,7.37-9.83,8.31-14.9,24.43-45.65,34.41-80.12,4.93-17.04,7.59-32.28,7.86-33.92,2.41-14.08,2.71-21.94,3.93-35.88,1.17-13.39,4.9-52.04,14.26-94.87,2.02-9.24,3.87-16.74,5.09-21.49-.95-1.67-2.72-4.28-5.78-6.45-1.9-1.36-7.23-5.15-13.57-3.37-7.21,2.02-9.65,9.57-9.83,10.17-9.41,33.98-18.47,69.22-27.04,105.68-13.29,56.57-24.24,111.14-33.24,163.38.69,2.22,4.6,14.38,9.32,14.19Z"/><path class="cls-1" d="M1396.77,3244.56c-.98,2.52-10.34,3.35-121.85-26.03-138.94-36.61-106.15-33.08-192.83-55.6,0,0-138.86-36.07-175.3-81.31-.03-.04-2.28-2.82-5.34-6.62-1.99-2.47-4.72-5.85-8.52-10.53-5.98-7.36-16.07-17.55-25.45-32.39-13.23-20.94-13.94-28.73-14.05-32.09-.21-6.06-11.57-24.42-13.71-32.68-2.38-9.2-2.34-43.47-5.29-84.49-.15-2.09-.44-5.42-.46-9.95-.04-10.48,1.49-18.23,2.08-45.17.2-9.27.19-16.84.15-21.68-.1-51.16-.21-102.32-.31-153.48,40.18-1.64,80.37-3.27,120.55-4.9-2.14,10.36-4.35,248.27-4.11,253.54,5.37,116.24,451.92,324.12,444.45,343.39Z"/></svg>