<?xml version="1.0" encoding="UTF-8"?><svg id="_Слой_1" xmlns="http://www.w3.org/2000/svg" viewBox="0 0 2200 5500"><defs><style>.cls-1{fill:#e0cdae;}</style></defs><path class="cls-1" d="M1414.99,5337.75c-213.09-.39-426.18-.77-639.27-1.16.02-3.02.06-7.67.11-13.35.4-44.02,1.01-65.6,1.31-90.61.31-25.55.54-44.26,0-69.6-.63-29.17-1.35-59.69-5.78-99.01-1.17-10.4-3.58-26.54-8.4-58.83-4.44-29.75-6.96-44.63-11.29-63.03-3-12.76-5.58-21.72-7.62-28.89-18.24-64.26-19.97-80.83-33.09-124.23-5.37-17.75-13.69-43.44-25.74-74.33,16.33,16.96,27.13,32.22,33.88,42.81,10.23,16.05,10.55,20.41,29.41,52,9.17,15.35,5.82,8.85,19.7,31.52,12.32,20.12,13.6,23.04,18.38,26.79,7.91,6.2,19.86,6.85,43.75,8.13,35.43,1.91,54.92-2.95,63.26-5.27,14.56-4.06,16.03-6.41,47.3-19.01,0,0,26.56-10.7,48.19-18.05,41.48-14.11,79.25-14.3,112.66-14.46h0c46.32-.23,75.77-.38,112.29,12.57,16.1,5.71,65.03,25.12,93.65,34.25,6.32,2.02,16.44,5.06,29.64,6.86,7.91,1.08,15.2,1.47,21.52,1.81,10.34.56,15.51.84,21.24.43,13.96-.99,21.73-.98,27.75-6.5,1.84-1.69,3.24-3.85,6.02-8.17,4.45-6.9,5.45-10.57,8.19-15.76,4.85-9.15,7.42-8.43,13.38-17.56,4.96-7.61,3.61-8.79,9.94-22.46,4.92-10.62,9.59-18.24,13.87-25.21,6.5-10.61,10.43-15.54,15.13-22.38,6.16-8.97,14.46-22.45,22.64-40.97.94,27.22-3.67,47.48-8.09,61.02-5.06,15.47-9.53,21.1-17.19,45.66-3.71,11.9-4.14,15.31-10,36.94-5.98,22.03-10.22,35.77-12.7,44.25-3.7,12.67-15.4,52.71-21.55,99.66-5.35,40.86-4.13,68.82-11.54,108.12-.74,3.91-1.54,7.82-2.31,13.85-2.45,19.22-.57,28.67-1.54,58.87-.17,5.38-.19,3.87-.38,9.62-.63,19.04-.22,30.64.38,57.33.56,24.71.84,37.07.77,38.86-.36,8.95-1.19,19.8.38,35.01.54,5.27,1.22,9.58,1.72,12.47Z"/></svg>