<?xml version="1.0" encoding="UTF-8"?>
<svg id="_Слой_1" xmlns="http://www.w3.org/2000/svg" version="1.1" viewBox="0 0 2200 5500">
  <!-- Generator: Adobe Illustrator 29.1.0, SVG Export Plug-In . SVG Version: 2.1.0 Build 142)  -->
  <defs>
    <style>
      .st0 {
        fill: #9bc8ec;
        stroke: #9bc8ec;
        stroke-miterlimit: 10;
        stroke-width: 4px;
      }
    </style>
  </defs>
  <path class="st0" d="M1279.2,1399.3c-15.1,13.2-41.7,33.1-79.9,46.3-12.6,4.3-46.5,14.8-91.2,12.7-49.1-2.4-84.3-18.7-102.8-27.5-30.4-14.5-52.9-31.6-67.8-44.6,1.1-73.3,2.2-146.7,3.2-220,.4,0,.9-.2,1.5-.6.8-.5,1.3-1.2,1.5-1.6,0,0,.2.2.5.4.6.4,26.2,17.2,41.5,25.1,65.1,33.3,120,35,120,35,23.9.8,58.3,1.8,92.5-15.4,12.7-6.4,28.8-17.8,63.8-35.6,9.5-4.8,17.4-8.6,22.7-11.2-1.9,79-3.7,157.9-5.6,236.9h0Z"/>
</svg>