<?xml version="1.0" encoding="UTF-8"?><svg id="_Слой_1" xmlns="http://www.w3.org/2000/svg" viewBox="0 0 2200 5500"><defs><style>.cls-1{fill:#9baa97;stroke:#9baa97;stroke-miterlimit:10;stroke-width:4px;}</style></defs><path class="cls-1" d="M1279.25,1399.26c-15.07,13.16-41.7,33.13-79.9,46.26-12.64,4.35-46.53,14.81-91.17,12.66-49.08-2.37-84.27-18.69-102.76-27.5-30.41-14.48-52.93-31.58-67.81-44.58,1.07-73.33,2.15-146.66,3.22-219.99.36-.06.9-.2,1.48-.55.84-.52,1.28-1.21,1.47-1.55,0,0,.25.18.51.36.63.45,26.17,17.22,41.55,25.09,65.12,33.28,119.98,35.01,119.98,35.01,23.89.75,58.32,1.82,92.52-15.37,12.65-6.36,28.85-17.79,63.81-35.58,9.46-4.81,17.36-8.62,22.71-11.15-1.87,78.97-3.74,157.94-5.61,236.9Z"/></svg>