<?xml version="1.0" encoding="UTF-8"?>
<svg id="_Слой_1" xmlns="http://www.w3.org/2000/svg" version="1.1" viewBox="0 0 2200 5500">
  <!-- Generator: Adobe Illustrator 29.1.0, SVG Export Plug-In . SVG Version: 2.1.0 Build 142)  -->
  <defs>
    <style>
      .st0 {
        fill: #9bc8ec;
        isolation: isolate;
        opacity: .8;
        stroke: #9bc8ec;
        stroke-miterlimit: 10;
        stroke-width: 4px;
      }
    </style>
  </defs>
  <path class="st0" d="M1415,5337.8c-213.1-.4-426.2-.8-639.3-1.2,0-3,0-7.7.1-13.4.4-44,1-65.6,1.3-90.6.3-25.5.5-44.3,0-69.6-.6-29.2-1.3-59.7-5.8-99-1.2-10.4-3.6-26.5-8.4-58.8-4.4-29.8-7-44.6-11.3-63-3-12.8-5.6-21.7-7.6-28.9-18.2-64.3-20-80.8-33.1-124.2-5.4-17.8-13.7-43.4-25.7-74.3,16.3,17,27.1,32.2,33.9,42.8,10.2,16,10.5,20.4,29.4,52,9.2,15.4,5.8,8.9,19.7,31.5,12.3,20.1,13.6,23,18.4,26.8,7.9,6.2,19.9,6.9,43.8,8.1,35.4,1.9,54.9-3,63.3-5.3,14.6-4.1,16-6.4,47.3-19,0,0,26.6-10.7,48.2-18,41.5-14.1,79.2-14.3,112.7-14.5,46.3-.2,75.8-.4,112.3,12.6,16.1,5.7,65,25.1,93.7,34.2,6.3,2,16.4,5.1,29.6,6.9,7.9,1.1,15.2,1.5,21.5,1.8,10.3.6,15.5.8,21.2.4,14-1,21.7-1,27.8-6.5,1.8-1.7,3.2-3.9,6-8.2,4.4-6.9,5.4-10.6,8.2-15.8,4.8-9.1,7.4-8.4,13.4-17.6,5-7.6,3.6-8.8,9.9-22.5,4.9-10.6,9.6-18.2,13.9-25.2,6.5-10.6,10.4-15.5,15.1-22.4,6.2-9,14.5-22.5,22.6-41,.9,27.2-3.7,47.5-8.1,61-5.1,15.5-9.5,21.1-17.2,45.7-3.7,11.9-4.1,15.3-10,36.9-6,22-10.2,35.8-12.7,44.2-3.7,12.7-15.4,52.7-21.6,99.7-5.3,40.9-4.1,68.8-11.5,108.1-.7,3.9-1.5,7.8-2.3,13.9-2.4,19.2-.6,28.7-1.5,58.9-.2,5.4-.2,3.9-.4,9.6-.6,19-.2,30.6.4,57.3.6,24.7.8,37.1.8,38.9-.4,9-1.2,19.8.4,35,.5,5.3,1.2,9.6,1.7,12.5h0Z"/>
</svg>