<?xml version="1.0" encoding="UTF-8"?><svg id="_Слой_1" xmlns="http://www.w3.org/2000/svg" viewBox="0 0 2200 5500"><defs><style>.cls-1{fill:#e0cdae;}</style></defs><path class="cls-1" d="M1159.08,1031.58c-14.08-3.11-50.75-9.71-95.66.79-69.93,16.36-109.97,62.52-122.6,78.45v55.29c6.15-.73,15.82-2.3,27.07-6.07,16.09-5.39,20.92-10.43,47.16-24.57,29.18-15.73,38.17-17.57,42.08-18.25,8.67-1.52,19.69-3.45,33.01-.35,9.81,2.28,12.47,5.33,21.04,5.26,9.86-.08,13.25-4.17,24.3-7.02,11.35-2.92,20.62-1.92,28.66-1.05,4.75.51,15.49,2.09,48.25,19.65,23.6,12.66,27.7,17.02,44.62,23.87,10.77,4.36,19.98,6.99,26.05,8.52v-55.29c-12.1-15.54-52.64-63.46-123.97-79.24Z"/></svg>