<?xml version="1.0" encoding="UTF-8"?>
<svg id="_Слой_1" xmlns="http://www.w3.org/2000/svg" version="1.1" viewBox="0 0 2200 5500">
  <!-- Generator: Adobe Illustrator 29.1.0, SVG Export Plug-In . SVG Version: 2.1.0 Build 142)  -->
  <defs>
    <style>
      .st0 {
        fill: #fff;
      }

      .st1 {
        fill: #e5c1d6;
        stroke: #e5c1d6;
        stroke-miterlimit: 10;
      }
    </style>
  </defs>
  <ellipse class="st0" cx="1331.5" cy="476.6" rx="13.5" ry="8" transform="translate(694 1739) rotate(-82.9)"/>
  <path class="st0" d="M905.7,575.6c1.2,2.5,0,5.5-2.5,6.6-2,.9-4.4.4-5.9-1.3-24.4-29.9-34.2-65.8-29.3-107.6.2-2,2-3.5,4-3.3l9.1.7c1.9.1,3.3,1.8,3.2,3.7,0,.3,0,.6-.2.9-1.1,2.9-1.3,6.8-.7,11.7,5,39,12.4,68.5,22.2,88.6h0Z"/>
  <path class="st0" d="M1327,493.6c.1-.5.6-.7,1.1-.6l.7.3c5.6,1.7,5.3,19.2-.8,38.9l-2.3,7.3c-6.1,19.8-15.6,34.4-21.2,32.7l-.7-.2c-.5-.2-.7-.7-.5-1.1h0s23.8-77.3,23.8-77.3h0Z"/>
  <path class="st1" d="M808.5,3882.6c-.4,30.1-5.2,82.4-14.5,157.2-16.3,131-20.1,243-.7,350.9,33,183.1,95.1,391.4,140.4,563.3,7.5,28.4,12.4,51,14.5,67.7,4.6,4.2,24.4,21.5,55.1,21.9,31.8.4,52.5-17.8,56.9-21.9-.7-4.2-2.2-10.7-3-18.6-15.5-153-8.7-326,6.5-495,8.3-92.8,7.8-174-1.4-243.8-8-61-15.4-121.4-16-179.9-.3-37.4,1.1-64,4.5-79.7,18.1-85.6,26.4-153.7,24.9-204.3-.5-17.9-2.1-45.2-4.6-82.1-23.7,12.4-72.2,33.9-137.2,34.4-67.5.5-117.9-21.9-141.7-34.4,7.5,38.1,17.1,95,16.2,164.2h0Z"/>
  <path class="st1" d="M1410.2,3718.8c-25.4,12.6-73.9,32.6-138,33.6-69.3,1-121.8-20.7-147.6-33.6-.5,4.5-1.1,11.7-1.9,20.7-7.7,84.2,4,152,20.5,238.1,20.5,106.8,9.5,168.3-5.3,301.3-9.8,88.7-4.5,178.9,8.2,295.1,10.1,92.9,14.7,183.1,14,270.7-.6,65-2.6,122.4-16.3,177.6,5.1,4.5,27.4,23.1,61.1,22.6,31.9-.5,52.9-17.8,58.3-22.6,1.3-10.3,3.7-27,7.7-47.4,3.2-16.1,6.9-32.5,11.3-49.3,34.6-132.6,67.5-264.2,98.8-394.6,26.6-110.7,40.1-217.3,40.7-319.9.2-36.3-4.3-91.9-13.4-166.7-15-122.4-22.7-220.4-.3-315.8.8-3.2,1.5-6.4,2.3-9.7h0Z"/>
</svg>