<?xml version="1.0" encoding="UTF-8"?>
<svg id="_Слой_1" xmlns="http://www.w3.org/2000/svg" version="1.1" viewBox="0 0 2200 5500">
  <!-- Generator: Adobe Illustrator 29.1.0, SVG Export Plug-In . SVG Version: 2.1.0 Build 142)  -->
  <defs>
    <style>
      .st0 {
        fill: #e4c1d6;
        stroke: #e4c1d6;
        stroke-miterlimit: 10;
      }
    </style>
  </defs>
  <path class="st0" d="M1006.3,5043.9h0c-7.9-.1-20.5-1.3-34.5-7.3-10.3-4.4-18-9.9-23.2-14.3.3,2.8.6,6.4.9,10.7,0,0,.1,2,.2,4,.5,19.4-11.9,47.6-12.4,68.2-1,50.3-5.2,80.9-26,130.4-14.2,34-48.5,62.5-73.9,86-5.5,5.1-10,11.4-13.4,18.8-1.8,3.9-1.3,8.4,1,11.8l4.2,6.3c.8,1.2,2,1.9,3.4,2,2.4.1,4.5-1.7,4.6-4.1,1.7-19.6,13.4-32.6,35.1-38.9.3,0,.7,0,.9.4l1.4,2c0,0,0,.1,0,.2.4.9,0,1.9-.8,2.3-16.5,7.4-25.6,18.6-27.1,33.7-.6,5.8,3.4,11.1,9.1,12.1l8.7,1.5s0,0,0,0c4.3.7,8.3-2.1,9-6.3l2.9-16.3c.7-3.8,3.1-7.1,6.6-8.8,9.2-4.7,16.8-10.9,22.7-18.5.9-1.1,2.3-1.5,3.6-1.1,1.8.5,2.7,2.4,2.2,4.2-5.9,19.2-33,15.3-26.6,44.6.8,3.9,4.4,6.6,8.3,6.4l22-1h0c2.7-.1,4.8-2.5,4.6-5.2l-.9-17.5c-.2-3.6,1.6-7.1,4.6-9.1l25.1-16.8c.8-.5,1.8-.8,2.7-.6,2,.4,3.3,2.3,3,4.3l-.9,4.7c-.2,1.2-1.1,2.3-2.3,2.7-13.1,4.7-20.7,12-22.7,21.7-5.6,26.2,31.3,25.8,44.5,15.2,3.5-2.8,5.5-7.1,5.3-11.6-.6-12.7,8-25.2,25.8-37.6.2-.1.4-.2.6-.3,1.9-.9,4.1,0,4.9,1.8,1.6,3.6,4.5,6.8,8.6,9.7.6.4,1,1.2.8,2-.2,1-1.2,1.8-2.2,1.6,0,0-.8-.5-2.4-1.6-3-2.1-7-2-10,.2-10.2,7.2-16.1,16.4-17.7,27.4-.4,3,.7,5.9,2.9,7.8,10.1,8.7,22,12.4,33.4,11.5,21-1.6,33.4-19.3,35.3-22,4-5.8,6.6-11.9,10.6-48.1,3.5-31.5,4.6-55.1,4.8-59.6.9-19.9,1.2-33.1,1.4-46.2,1.8-81.7,5.3-85.5,2.9-111.2-1.7-17.7-6-43.4-18.2-74.3-5.1,4.5-12.9,10.5-23.7,15.1-12.2,5.3-23.1,6.7-30.3,7.1h0Z"/>
  <path class="st0" d="M1340.8,5300.8c-44.7-34-73.9-130.1-71.8-188.5,1.2-32.1-6.3-55.8-6.4-62.5-.1-11.5.3-21,.8-27.6-5.4,4.8-14.4,11.5-27,16.4-13.5,5.2-25.4,6-32.8,6-7.3.1-19.3-.6-33-6-12.5-4.9-21.3-11.7-26.6-16.4-2.9,8.5-6.6,19.9-10.1,33.6-3.2,12.5-15.9,41.1-12.5,80.2,4.1,47.8,5.7,85.1,4.7,111.9-1.3,37.9,7.4,77.5,17.7,106.4,9.8,27.3,30.6,34.5,62.4,21.5,6.6-2.7,9.4-7.2,8.7-13.5-1.8-14-9.7-24.1-23.9-30.4-.3-.1-.6-.3-.9-.5-1.9-1.4-2.2-4-.9-5.9,5.1-7,7.8-10.5,8.2-10.6.4-.1.8-.2,1.2-.3,2.4-.2,4.4,1.6,4.6,3.9.6,8.1,5.7,15.5,15.3,22.1,2.1,1.4,3.4,3.7,3.5,6.2l.9,19.1c.3,5.8,4.5,10.5,10.2,11.5,12.4,2.2,23.3.8,32.4-4.4,2.7-1.5,4.4-4.4,4.3-7.5-.4-14.2-8.3-25-23.6-32.3-1.4-.7-2.1-2.2-1.7-3.6l.7-2.6c0-.2.2-.5.3-.7.9-1.5,2.9-2.1,4.4-1.2,19.8,11.6,30,25.8,30.8,42.5.2,3.8,3,7,6.8,7.6,9.5,1.6,18.2-.4,26.1-5.8,5.2-3.6,6.6-10.7,3.1-15.9l-20.1-29.6c-.2-.4-.2-.8,0-1.1.3-.7,1.1-1,1.7-.7,18.6,9.9,28.7,24,30.2,42.3,0,.2,0,.4,0,.5.5,2.5,2.9,4.2,5.4,3.7l22.4-4.1c.8-.1,1.6-.5,2.3-.9,2.7-1.9,3.4-5.6,1.6-8.3l-25.9-38.3c-.5-.7-.5-1.6,0-2.4.7-1,2-1.3,3-.6,18.1,12,27.6,25.2,28.5,39.7,0,.9.5,1.8,1.2,2.4,1.5,1.2,3.6,1,4.8-.5,17.4-21.5-13.2-41.3-31.1-55h0Z"/>
</svg>