<?xml version="1.0" encoding="UTF-8"?>
<svg id="_Слой_1" xmlns="http://www.w3.org/2000/svg" version="1.1" viewBox="0 0 2200 5500">
  <!-- Generator: Adobe Illustrator 29.1.0, SVG Export Plug-In . SVG Version: 2.1.0 Build 142)  -->
  <defs>
    <style>
      .st0 {
        fill: #e4c1d6;
        stroke: #e4c1d6;
        stroke-miterlimit: 10;
        stroke-width: 3px;
      }
    </style>
  </defs>
  <path class="st0" d="M984.5,1659.2c1.2-.6,2.7,0,3.3,1.1l.2.3c.4.8.2,1.8-.4,2.5,9.3-3.3,22-7.3,37.2-10.8,45.2-10.3,81.2-8.5,104.1-7.2,0,0,45.3,2.6,80.1,13.9h.6c0,.2.2.3.4.5-.5-.7-.6-1.7,0-2.4l2.4-3c.3-.4.8-.5,1.1-.3,30.5,15.2,62.9,26.6,97.2,34.3,72.2,16.2,161.8,1,193.9-71.9,33.2-75.3,18.1-161.7,2.1-243.6-.6-3.1-.7-6.4-.3-9.6.9-6.6,2.5-13,4.9-19.1h0c-.5,0,0-4.3,0-4.4,1.8-15.9-4.6-166.6-4.6-166.6-1.6-37.6-1.5-92.4,6.9-164.2-7-1.2-15.5-2.6-25.5-4.3-31.7-5.3-79.3-20-142.9-44.2-61.3,52.4-147.8,85.1-243.7,85.1s-182.4-32.7-243.7-85.1c-2.7,1-5.3,2.1-8,3.1-51,19.1-97.4,32.1-139.2,39h-.2c5.5,189.9-2.4,288.8-14,342.6,0-.4-.2-.8-.3-1.3v.8c3.1,11.5,2.7,24,.2,40.7-10.2,67.8-20.9,129.9.7,198.2,43.7,138.2,183.7,123.1,287.6,75.4h0v.5h0ZM1149.5,1066.3c15.4-12.1,28.7-18.7,40-19.8,67.5-7.1,124.8-14.8,171.7-23.1.4,0,.8.2,1,.6v.3c.4,1.5-.4,3-1.8,3.3-49.5,13.4-102.7,22.1-159.6,26-14.3,1.1-29.9,7.5-46.8,19.2h-.2c-1.7,1.1-4,.6-5.1-1.1h0c-1.2-1.8-.8-4.2.9-5.5h0ZM834.6,1024.2v-.3h0c0-.5.6-.8,1-.7,48.7,8.5,108.1,16.5,178.2,23.9,11.8,1.2,25.6,8.1,41.6,20.6,1.7,1.4,2.1,3.8.9,5.6h0v.2c-1.2,1.8-3.6,2.2-5.4,1-17.5-12.2-33.7-18.9-48.6-19.9-59.1-4-114.3-12.9-165.7-26.9-1.5-.4-2.4-1.9-2-3.4h0Z"/>
</svg>