<?xml version="1.0" encoding="UTF-8"?>
<svg id="_Слой_1" xmlns="http://www.w3.org/2000/svg" version="1.1" viewBox="0 0 2200 5500">
  <!-- Generator: Adobe Illustrator 29.1.0, SVG Export Plug-In . SVG Version: 2.1.0 Build 142)  -->
  <defs>
    <style>
      .st0 {
        fill: #e4c1d6;
        stroke: #e4c1d6;
        stroke-miterlimit: 10;
        stroke-width: 2px;
      }
    </style>
  </defs>
  <path class="st0" d="M1082.3,2929.2c0-11.4-.3-34.7-1-58.9,0-2.4-.6-8.8-1.7-21.7-.7-8.1-1.4-15.7-5.1-24.6-.6-1.6-1.2-2.8-1.7-3.7-13.5-19.6-23.5-32.4-34.7-55.5-84.4-174.3-192.2-332.7-323.5-475.1-7.3-7.9-15.4-15.4-24.2-22.4-.2-.1-.4-.3-.6-.3h0s-1.5,0-3,1.4c-9.2,8.5-28.4,83-28.4,83-1.3,5.2-2.9,10.9-6.1,22.3-4.4,15.9-8.1,28.6-10.4,36.5,46.1,65.9,96.9,133.9,152.8,203.1,97,120.1,194.4,224.9,287.3,315.9h0Z"/>
  <path class="st0" d="M1569.2,2399.8c-6.1-20.7-13.9-45.9-23.7-74.1-24.7-70.7-22-45.9-24.8-52.8,0-.2-.4-.8-.9-1.4-2.1-2.4-5.6-2.6-8-.6-20.8,18.1-43.9,42.4-69.5,72.8-81.8,97.4-149.8,189.9-221.8,319.4-25,44.9-33.6,61.6-33.6,61.6-10.7,20.6-17.4,34.6-26,48.9-3.2,5.3-7.8,12.7-13.2,23.3-2.9,5.8-3.4,7.2-5.8,11.3-3.6,5.9-5.9,8.2-7.9,13.7-.3.8-.8,2.2-2,8.1-1.7,8.3-2.7,14.8-3.3,18.9-1.3,9.1-2,13.6-2.7,18.8-2.9,23.3-5.4,56.2-5.7,60.4,87.1-81.2,180.4-177.9,273.7-291.8,67-81.8,125.1-161.5,175.2-236.8h0Z"/>
</svg>