<?xml version="1.0" encoding="UTF-8"?>
<svg id="_Слой_1" xmlns="http://www.w3.org/2000/svg" version="1.1" viewBox="0 0 2200 5500">
  <!-- Generator: Adobe Illustrator 29.1.0, SVG Export Plug-In . SVG Version: 2.1.0 Build 142)  -->
  <defs>
    <style>
      .st0 {
        fill: #e4c1d6;
        stroke: #e4c1d6;
        stroke-miterlimit: 10;
        stroke-width: 2px;
      }
    </style>
  </defs>
  <path class="st0" d="M1106.5,2365.1c-150,0-290.7-40-412.2-110.1.3,1.2,1,2.3,1.9,3.2,37.2,35.3,72,73.3,104.6,113.9,100.6,125.6,185.4,260.7,254.3,405.4,1.2,2.5,8.7,12.9,22.5,31.3,1.5,2,3.8,3.3,6.4,3.5l35.3,2.5c3.2.2,6.2-1.3,7.9-4,17.6-28.4,27.1-43.8,28.3-46.4,69.6-141.6,153.6-273.3,251.9-395,31.4-38.9,62.1-69,102.1-108.4.5-.5.9-1.1,1.3-1.6-119.7,67.3-257.6,105.6-404.4,105.6h0Z"/>
</svg>