<svg version="1.1" id="Layer_1" xmlns="http://www.w3.org/2000/svg" xmlns:xlink="http://www.w3.org/1999/xlink" x="0px" y="0px"
	 width="100%" viewBox="0 0 672 1568" enable-background="new 0 0 672 1568" xml:space="preserve">
<path fill="none" opacity="1.000000" stroke="#000000" stroke-linecap="round" stroke-linejoin="round" stroke-width="3.000000"
	d="
M494.000000,462.500000 
	C491.467346,467.893311 491.283539,473.933289 489.427582,479.475739 
	C485.327271,491.720459 481.290588,504.021515 476.381012,515.951050 
	C470.611908,529.969116 467.653534,544.825195 462.500000,559.000000 
	C464.412872,565.124817 461.621796,571.000732 461.585876,577.000488 
	C461.560608,581.224731 460.400604,585.251953 460.386200,589.499634 
	C460.341858,602.551025 463.099884,615.210449 464.942505,628.008301 
	C465.631042,632.790466 466.550842,637.802185 465.834625,642.474670 
	C463.661652,656.650757 468.132660,669.779602 471.639099,682.963013 
	C475.983246,699.295959 479.735657,715.650635 481.618256,732.486755 
	C483.020874,745.030762 486.679535,757.202576 489.550140,769.488281 
	C491.751404,778.909119 493.256927,788.409485 494.617584,797.983276 
	C496.511658,811.310425 498.540710,824.615723 499.993652,838.000671 
	C500.861633,845.996948 501.847168,853.986145 502.463226,862.002808 
	C503.831329,879.806091 504.546112,897.651855 503.934204,915.497742 
	C503.326416,933.224976 501.952576,950.886108 499.730469,968.529053 
	C498.133148,981.211487 496.305847,993.870728 494.300598,1006.468262 
	C492.393524,1018.449036 488.953003,1030.196899 485.968658,1041.992065 
	C482.499878,1055.701660 478.635040,1069.280029 477.406464,1083.491943 
	C476.207397,1097.362427 475.884705,1111.166260 477.490173,1125.001099 
	C477.566498,1125.658936 477.537292,1126.335815 477.494507,1126.999634 
	C476.456299,1143.110962 480.521942,1158.522827 484.023651,1173.994629 
	C488.320679,1192.980591 492.411530,1211.957397 493.700623,1231.486816 
	C494.086243,1237.328613 494.902283,1243.217285 494.372253,1248.988281 
	C493.221436,1261.518555 492.197510,1274.069946 490.063232,1286.510864 
	C486.982513,1304.468384 484.495667,1322.527466 481.454987,1340.492432 
	C478.330750,1358.951050 475.244812,1377.406372 472.952850,1395.994141 
	C471.740845,1405.823486 470.340118,1415.620605 469.341522,1425.484009 
	C468.748566,1431.340576 468.708374,1437.157471 468.470703,1442.998779 
	C468.095581,1452.217407 469.642670,1461.138672 471.938202,1470.015991 
	C472.817810,1473.417847 473.107635,1476.989380 473.456390,1480.504272 
	C473.641693,1482.372070 474.294495,1483.299927 475.841675,1484.677734 
	C480.131622,1488.498413 483.589844,1493.238037 487.528503,1497.473511 
	C489.939545,1500.066162 492.274261,1502.053101 496.409088,1502.929077 
	C500.933197,1503.887573 505.646210,1506.321289 509.913391,1508.658081 
	C515.699402,1511.826660 514.648926,1519.584473 508.509583,1522.520020 
	C507.772400,1522.872559 506.944946,1523.361816 506.533905,1524.021118 
	C501.897522,1531.456909 494.194946,1532.875977 486.510162,1534.546753 
	C480.822357,1535.783203 476.058929,1538.996826 471.496643,1542.495605 
	C460.998901,1550.546631 448.988464,1553.679199 436.010925,1552.389893 
	C427.758728,1551.570312 419.649841,1549.145020 415.623077,1540.939575 
	C412.735199,1535.055298 412.940033,1528.478882 413.979004,1521.996582 
	C415.731476,1511.062988 418.960266,1500.317505 417.586639,1488.989502 
	C417.059937,1484.645996 415.199341,1480.751587 414.457458,1476.507446 
	C413.108215,1468.788696 414.877563,1461.384766 416.547821,1454.010864 
	C419.629303,1440.406738 418.550751,1426.698120 417.959503,1413.001709 
	C417.700073,1406.991333 417.141724,1400.984009 416.464233,1395.004028 
	C415.612701,1387.487183 414.655701,1379.975220 413.464111,1372.505737 
	C411.599487,1360.817505 408.947235,1349.228394 407.634216,1337.484985 
	C405.826569,1321.317749 401.090698,1305.919556 396.394745,1290.532104 
	C389.939087,1269.378418 388.325897,1247.845337 390.088409,1226.007080 
	C391.100464,1213.467773 392.719604,1200.957764 394.593964,1188.514160 
	C395.947510,1179.528320 396.681976,1170.427490 398.316498,1161.558350 
	C399.548828,1154.871460 401.663239,1148.165771 403.500000,1141.500000 
"/>
<path fill="none" opacity="1.000000" stroke="#000000" stroke-linecap="round" stroke-linejoin="round" stroke-width="3.000000"
	d="
M227.000000,561.750000 
	C225.705139,564.066956 225.101608,566.164551 225.518494,567.995789 
	C227.244263,575.576538 227.258347,583.278992 227.596283,590.995789 
	C228.078964,602.017456 225.994598,612.743042 224.326920,623.473083 
	C223.236664,630.487976 221.986572,637.457581 222.585358,644.492737 
	C223.644791,656.939636 220.669189,668.743347 217.432343,680.481323 
	C213.835159,693.526123 209.941010,706.441711 208.424255,719.991516 
	C206.298630,738.980835 201.240341,757.412781 197.101883,776.022644 
	C195.018143,785.392822 193.986649,794.997925 192.503891,804.500610 
	C191.152054,813.164429 189.610229,821.806335 188.557861,830.507019 
	C187.311615,840.810547 186.397354,851.158020 185.522903,861.501953 
	C184.032166,879.135925 183.559525,896.822693 184.083664,914.497498 
	C184.534485,929.700134 185.718201,944.863953 187.329895,960.018066 
	C188.752823,973.397034 190.603271,986.704102 192.594940,999.985779 
	C194.700745,1014.028503 198.516174,1027.738892 201.995880,1041.501099 
	C205.912476,1056.991089 210.010635,1072.430664 211.044601,1088.497070 
	C211.849976,1101.011475 211.590591,1113.502563 210.884995,1125.993530 
	C210.843704,1126.724487 210.464462,1127.683472 210.530212,1128.497559 
	C211.750885,1143.612305 207.799408,1158.055786 204.384247,1172.472534 
	C200.268616,1189.846191 196.708939,1207.286011 194.500916,1225.000122 
	C192.413849,1241.743774 193.674759,1258.431152 196.098053,1274.985596 
	C198.839584,1293.714478 202.735046,1312.276123 205.403091,1331.013794 
	C209.131348,1357.197510 214.205963,1383.173462 217.083588,1409.490845 
	C218.594284,1423.306641 220.131241,1437.103760 219.415894,1450.995728 
	C218.979935,1459.462036 216.270126,1467.641357 215.137604,1476.018555 
	C214.484726,1480.847900 213.165131,1484.483398 209.127609,1487.662109 
	C205.677261,1490.378418 203.514969,1494.668579 200.458298,1497.961304 
	C195.638443,1503.153320 188.612534,1504.275757 182.458908,1506.903809 
	C176.093964,1509.622314 174.484207,1511.026245 174.456787,1515.999756 
	C174.447083,1517.761108 174.632782,1519.828857 176.044479,1520.387695 
	C180.998245,1522.348755 183.090134,1527.524292 187.496460,1530.006226 
	C191.562729,1532.296753 196.055954,1533.407349 200.515610,1534.432007 
	C205.703430,1535.623779 210.293594,1537.776001 214.515427,1540.979736 
	C225.137955,1549.040161 236.915070,1553.720093 250.496918,1552.466553 
	C256.297577,1551.931274 262.215179,1551.042236 266.946960,1547.430542 
	C275.568451,1540.849976 275.410706,1531.443970 273.948639,1522.007935 
	C272.276886,1511.218506 269.536987,1500.545288 270.561920,1489.505737 
	C270.813080,1486.800537 271.644623,1484.101685 272.535370,1481.512207 
	C275.241455,1473.645264 274.446716,1465.766846 272.444855,1458.014282 
	C268.597626,1443.115112 268.954834,1428.133423 270.361176,1412.987061 
	C270.852997,1407.690063 270.857941,1402.315308 271.495087,1396.999390 
	C272.513519,1388.501587 272.972900,1379.895020 274.639526,1371.527832 
	C276.526947,1362.052246 278.104095,1352.528687 279.391876,1342.985352 
	C281.337952,1328.563721 284.114014,1314.327271 288.623901,1300.540527 
	C292.338013,1289.186646 295.948730,1277.758667 297.288361,1265.975952 
	C298.849365,1252.245605 298.981079,1238.406006 297.696533,1224.481812 
	C296.040222,1206.528809 292.574310,1188.845947 290.773956,1170.972412 
	C289.747864,1160.785522 286.169769,1151.400513 284.500000,1141.500000 
"/>
<path fill="none" opacity="1.000000" stroke="#000000" stroke-linecap="round" stroke-linejoin="round" stroke-width="3.000000"
	d="
M511.500000,388.500000 
	C506.702667,399.038940 500.796356,409.248627 499.581268,421.008392 
	C498.252655,433.866608 494.850159,446.480072 495.026093,459.499634 
	C495.087219,464.023193 497.890961,467.740479 499.114532,471.966858 
	C505.992157,495.723541 516.324951,517.996399 528.418213,539.545898 
	C535.676697,552.480164 539.387756,566.535034 540.094727,581.495544 
	C540.939026,599.359924 544.700012,616.728394 551.008423,633.496826 
	C556.801697,648.895874 564.214600,663.547363 572.033386,677.981934 
	C584.282104,700.594849 594.875366,723.870056 602.634155,748.457642 
	C605.507324,757.562622 606.328064,765.632690 600.622864,774.082947 
	C594.390991,783.313232 594.295471,794.035461 596.648071,804.466614 
	C598.515991,812.749268 598.602417,820.737915 597.107178,829.019348 
	C596.163025,834.248962 595.872803,839.678345 597.014526,844.996887 
	C598.278931,850.887024 603.101562,852.422729 607.514221,848.516052 
	C613.063660,843.602844 612.516479,836.885742 612.962524,830.497375 
	C613.292664,825.768738 612.298889,820.876038 615.000000,816.500000 
"/>
<path fill="none" opacity="1.000000" stroke="#000000" stroke-linecap="round" stroke-linejoin="round" stroke-width="3.000000"
	d="
M381.000000,203.000000 
	C385.716034,224.622650 400.158844,237.789566 418.957794,247.581055 
	C435.493011,256.193451 451.881134,265.138000 467.917786,274.638763 
	C477.208740,280.143097 487.457703,281.836975 497.513947,284.446228 
	C512.646301,288.372650 526.803223,294.086853 537.455566,306.039581 
	C548.943298,318.929626 555.518433,334.407959 559.445801,351.012817 
	C563.055115,366.273041 563.971680,381.866760 563.948364,397.499908 
	C563.940430,402.833740 563.322327,408.166016 563.005676,413.500336 
	C562.887573,415.490570 563.593445,417.178589 564.402893,419.042175 
	C570.736816,433.624359 576.640930,448.403503 579.939697,464.012756 
	C582.732971,477.229980 584.919495,490.567291 586.525574,503.996948 
	C588.311768,518.933228 593.005554,532.913452 600.470215,546.016968 
	C610.819336,564.183838 618.541138,583.486755 622.317261,604.033569 
	C624.769714,617.378052 626.532471,630.903503 627.568481,644.494812 
	C628.396179,655.353943 629.857361,666.164185 630.992249,677.000793 
	C631.864502,685.330017 632.525818,693.683716 633.530945,701.996277 
	C635.313416,716.738647 637.523254,731.421326 642.637817,745.449768 
	C643.081482,746.666870 643.603455,747.791870 643.467651,748.996338 
	C642.083557,761.272766 645.901978,772.811279 648.541870,784.490540 
	C651.527161,797.698242 654.702087,810.867126 658.077881,823.979919 
	C659.127014,828.054932 657.888428,831.573059 656.418823,834.964844 
	C653.122192,842.573486 649.848755,850.496765 649.330505,858.521362 
	C648.564087,870.390747 640.554138,876.783569 633.377136,883.875671 
	C628.865784,888.333435 624.106812,892.600830 619.479492,896.978333 
	C615.391235,900.845703 613.376404,900.440918 610.499939,895.500061 
	C605.915344,887.624817 606.970215,885.028198 614.405579,879.375793 
	C620.613281,874.656738 627.809509,871.750793 633.806274,866.339417 
	C640.595093,860.213562 642.557007,852.746155 644.965332,844.989258 
	C645.815186,842.252258 646.552002,839.484924 648.013062,837.007690 
	C651.323669,831.394409 652.011841,825.591492 649.500000,819.500000 
"/>
<path fill="none" opacity="1.000000" stroke="#000000" stroke-linecap="round" stroke-linejoin="round" stroke-width="3.000000"
	d="
M136.500000,396.500000 
	C133.956223,398.373749 133.636948,401.584198 132.142319,404.085052 
	C123.515968,418.518860 117.371094,434.120850 112.060089,450.020081 
	C108.426292,460.898346 106.509621,472.216095 104.454552,483.491730 
	C101.899353,497.511414 100.972343,511.872620 96.441788,525.480591 
	C92.157082,538.350098 84.705528,549.774902 79.043541,562.020142 
	C72.627235,575.896729 68.266907,590.398926 65.379555,605.476929 
	C60.650406,630.172913 58.244568,655.178772 54.621704,680.017761 
	C52.382576,695.369568 50.547333,710.765869 47.599434,726.019226 
	C46.173859,733.395630 43.155212,740.232178 41.190464,747.415344 
	C39.844475,752.336243 41.640842,756.778076 40.737488,761.544983 
	C39.557674,767.770752 37.862190,773.840942 36.471527,779.993591 
	C33.673141,792.374329 31.968996,805.108765 27.321779,816.929932 
	C23.572317,826.467590 27.122889,834.563354 30.056828,842.980164 
	C31.491018,847.094482 31.634869,851.823792 33.741901,855.355713 
	C36.229828,859.526062 38.001125,864.182861 41.046246,867.962769 
	C49.796986,878.825073 60.485729,887.466675 72.500000,894.500000 
"/>
<path fill="none" opacity="1.000000" stroke="#000000" stroke-linecap="round" stroke-linejoin="round" stroke-width="3.000000"
	d="
M193.500000,461.000000 
	C189.904999,465.920013 189.559601,472.024475 187.589493,477.532013 
	C181.889709,493.466187 175.153641,508.884735 167.722702,524.108704 
	C162.043350,535.744202 154.846237,546.676697 151.319260,559.450073 
	C148.759659,568.719910 148.114731,578.122864 147.069046,587.507690 
	C143.960815,615.403259 134.294495,640.981750 121.094223,665.550598 
	C110.478607,685.308960 99.310501,704.823181 90.562881,725.526550 
	C86.297035,735.622681 82.304161,745.897217 79.661255,756.540039 
	C78.532440,761.085815 78.758888,766.447021 81.608078,770.422546 
	C88.923004,780.629272 90.098679,791.945496 87.296333,803.450378 
	C84.937187,813.135681 85.208084,822.481934 87.032188,831.993835 
	C87.974365,836.906799 86.964066,841.669922 86.545097,846.503906 
	C86.243340,849.985535 80.407578,852.080444 77.026886,849.465271 
	C73.816719,846.982056 71.864441,843.631531 71.504517,839.499634 
	C70.822258,831.667664 70.166664,823.833313 69.500000,816.000000 
"/>
<path fill="none" opacity="1.000000" stroke="#000000" stroke-linecap="round" stroke-linejoin="round" stroke-width="4.000000"
	d="
M337.500000,834.500000 
	C339.706360,840.565430 338.968414,846.978577 338.222015,852.965332 
	C337.368347,859.812988 337.581085,866.679993 336.674255,873.523071 
	C335.154602,884.990967 334.411682,896.548401 332.661591,908.024658 
	C331.266022,917.176636 330.213776,926.379333 328.561432,935.511108 
	C326.058533,949.343506 322.366272,962.879395 319.003937,976.500977 
	C316.274719,987.557434 314.335114,998.760620 312.389221,1009.980774 
	C310.314941,1021.941223 309.160583,1034.005005 307.640594,1046.017822 
	C306.301697,1056.599365 305.679230,1067.329590 305.596375,1078.000732 
	C305.392639,1104.250244 299.866150,1129.522583 292.360138,1154.457886 
	C291.921417,1155.915283 291.563477,1158.048096 289.750000,1159.000000 
"/>
<path fill="none" opacity="1.000000" stroke="#000000" stroke-linecap="round" stroke-linejoin="round" stroke-width="3.000000"
	d="
M351.000000,834.500000 
	C349.495117,838.444214 348.669769,842.353516 350.417206,846.534607 
	C350.950897,847.811523 350.504730,849.500000 350.499207,851.000000 
	C350.449829,864.412109 352.171387,877.684570 353.336823,891.014282 
	C354.361755,902.737183 355.969025,914.370300 357.643646,925.979248 
	C359.124512,936.244873 361.753021,946.351257 364.018738,956.495789 
	C367.446930,971.845154 371.532776,987.070740 374.316833,1002.532959 
	C376.244507,1013.238892 377.474915,1024.118652 378.653137,1034.983398 
	C380.638275,1053.289185 381.653198,1071.619141 382.757874,1089.984497 
	C384.007141,1110.753784 387.861969,1131.280762 395.040497,1150.985229 
	C395.959290,1153.507202 395.606476,1156.557373 398.000000,1158.500000 
"/>
<path fill="none" opacity="1.000000" stroke="#000000" stroke-linecap="round" stroke-linejoin="round" stroke-width="3.000000"
	d="
M307.500000,202.500000 
	C306.025269,211.238251 302.285400,218.867203 297.072754,226.052780 
	C286.283936,240.925095 269.684235,247.117996 254.513519,255.524414 
	C243.610794,261.565826 232.721603,267.646942 222.033142,274.055267 
	C212.401825,279.829773 201.677551,282.068359 190.993149,284.469482 
	C164.447876,290.434998 145.943649,305.675720 135.421082,330.967163 
	C125.775154,354.151550 123.935165,378.379272 124.670593,402.994904 
	C124.767349,406.233063 123.836182,409.987000 126.250000,413.000000 
"/>
<path fill="none" opacity="1.000000" stroke="#000000" stroke-linecap="round" stroke-linejoin="round" stroke-width="3.000000"
	d="
M406.500000,133.500000 
	C407.333313,129.166672 407.807495,124.723480 409.090790,120.527763 
	C410.702057,115.259605 411.152802,109.828445 411.365082,104.494629 
	C411.920776,90.533722 412.207733,76.604362 407.585266,62.971085 
	C398.850769,37.209694 377.029724,23.297266 352.003326,20.964203 
	C336.613556,19.529501 322.092133,21.996210 308.497986,29.496376 
	C294.005005,37.492496 285.281342,49.893723 280.458496,65.487167 
	C276.083679,79.632095 276.237274,94.032738 277.556488,108.494850 
	C278.329865,116.973114 280.592285,125.214874 282.500000,133.500000 
"/>
<path fill="none" opacity="1.000000" stroke="#000000" stroke-linecap="round" stroke-linejoin="round" stroke-width="3.000000"
	d="
M345.500000,318.500000 
	C344.698730,320.103210 345.014862,321.825500 345.011932,323.500031 
	C344.989990,335.999969 345.569244,348.530731 344.896179,360.994385 
	C342.628967,402.979401 343.004822,444.989990 343.023865,487.000000 
	C343.028198,496.500061 343.333344,506.000000 343.500000,515.500000 
"/>
<path fill="none" opacity="1.000000" stroke="#000000" stroke-linecap="round" stroke-linejoin="round" stroke-width="3.000000"
	d="
M463.500000,1386.500000 
	C455.163452,1409.869629 448.392853,1433.599854 446.480804,1458.498535 
	C445.113464,1476.304443 445.974945,1493.868896 451.509064,1510.997070 
	C452.108459,1512.852173 452.833344,1514.666626 453.500000,1516.500000 
"/>
<path fill="none" opacity="1.000000" stroke="#000000" stroke-linecap="round" stroke-linejoin="round" stroke-width="3.000000"
	d="
M225.500000,1387.500000 
	C230.527298,1403.519897 235.715179,1419.563599 238.794128,1436.038452 
	C242.020889,1453.303955 243.449448,1470.835815 241.108978,1488.514404 
	C239.878769,1497.806641 238.604340,1506.966431 234.500000,1515.500000 
"/>
<path fill="none" opacity="1.000000" stroke="#000000" stroke-linecap="round" stroke-linejoin="round" stroke-width="3.000000"
	d="
M267.500000,1394.500000 
	C264.506531,1401.022095 263.265808,1408.085205 262.135681,1415.022095 
	C259.551605,1430.883667 257.615387,1446.860107 258.009186,1462.999756 
	C258.351410,1477.026001 260.149048,1490.867798 263.500000,1504.500000 
"/>
<path fill="none" opacity="1.000000" stroke="#000000" stroke-linecap="round" stroke-linejoin="round" stroke-width="3.000000"
	d="
M421.500000,1395.500000 
	C423.166687,1403.333374 425.050446,1411.128540 426.433044,1419.011719 
	C427.592285,1425.621216 428.402863,1432.314453 428.939514,1439.004883 
	C429.592743,1447.148315 430.426086,1455.294800 430.019165,1463.500977 
	C429.357849,1476.837158 428.226501,1490.096313 424.516876,1503.004883 
	C424.384155,1503.466675 424.500000,1504.000000 424.500000,1504.500000 
"/>
<path fill="none" opacity="1.000000" stroke="#000000" stroke-linecap="round" stroke-linejoin="round" stroke-width="3.000000"
	d="
M344.500000,553.500000 
	C345.567932,573.325745 345.397278,593.188354 344.772095,612.992798 
	C344.340454,626.665588 344.160614,640.329529 344.026337,654.000244 
	C344.005066,656.165100 344.333344,658.333313 344.500000,660.500000 
"/>
<path fill="none" opacity="1.000000" stroke="#000000" stroke-linecap="round" stroke-linejoin="round" stroke-width="3.000000"
	d="
M176.500000,387.500000 
	C185.577881,402.943298 190.250183,419.700745 191.515305,437.498901 
	C192.062241,445.193268 192.794495,453.090820 194.428268,460.404327 
	C197.109406,472.406311 200.263474,484.457520 204.899323,496.040283 
	C212.737869,515.625122 219.434525,535.633667 224.979538,556.005554 
	C225.467117,557.796875 225.666672,559.666687 226.000000,561.500000 
"/>
<path fill="none" opacity="1.000000" stroke="#000000" stroke-linecap="round" stroke-linejoin="round" stroke-width="3.000000"
	d="
M444.500000,841.500000 
	C428.556061,850.997192 411.404663,854.963135 393.009766,851.940613 
	C373.587372,848.749329 356.109985,841.599609 343.947968,824.548462 
	C331.282745,842.333191 313.702454,849.130554 294.001068,852.007324 
	C275.358185,854.729492 258.284637,850.522400 242.500000,840.500000 
"/>
<path fill="none" opacity="1.000000" stroke="#000000" stroke-linecap="round" stroke-linejoin="round" stroke-width="3.000000"
	d="
M294.500000,362.500000 
	C293.965698,373.961151 292.164368,385.233063 290.187775,396.532837 
	C288.984436,403.412109 287.629822,410.249176 285.912689,416.977722 
	C282.561096,430.110901 274.831696,439.955292 262.516968,446.034332 
	C260.178864,447.188507 258.281830,449.230316 255.500000,449.500000 
"/>
<path fill="none" opacity="1.000000" stroke="#000000" stroke-linecap="round" stroke-linejoin="round" stroke-width="3.000000"
	d="
M397.000000,363.500000 
	C397.614349,375.115509 399.471008,386.572662 401.524414,397.995605 
	C403.050598,406.485504 405.082764,414.807251 407.797302,423.066620 
	C411.132904,433.215759 418.485870,439.267456 426.545410,444.935425 
	C429.258484,446.843445 432.500000,448.000000 435.500000,449.500000 
"/>
<path fill="none" opacity="1.000000" stroke="#000000" stroke-linecap="round" stroke-linejoin="round" stroke-width="3.000000"
	d="
M34.500000,819.500000 
	C32.393719,825.396606 32.182384,830.913635 35.848640,836.597656 
	C37.861591,839.718445 38.694843,843.762024 39.434509,847.512939 
	C41.996574,860.505554 50.455303,868.427063 61.449352,874.590332 
	C65.690437,876.967834 70.443672,879.028503 73.411034,883.065369 
	C75.871323,886.412354 77.125771,890.333313 73.499870,893.999878 
	C73.334106,894.167480 73.166840,894.333496 72.999947,894.499939 
	C71.581276,895.915405 74.056625,899.424255 70.002892,899.576782 
	C66.607079,899.704468 65.069366,897.315002 62.994225,895.506653 
	C54.986362,888.528503 47.334129,881.170288 40.043152,873.459229 
	C36.155128,869.347229 33.119835,864.652039 34.000000,858.500000 
"/>
<path fill="none" opacity="1.000000" stroke="#000000" stroke-linecap="round" stroke-linejoin="round" stroke-width="3.000000"
	d="
M344.000000,744.250000 
	C344.000000,749.666687 344.000000,755.083313 344.000000,760.500000 
	C344.000000,777.500000 344.000000,794.500000 344.000000,811.500000 
"/>
<path fill="none" opacity="1.000000" stroke="#000000" stroke-linecap="round" stroke-linejoin="round" stroke-width="3.000000"
	d="
M277.000000,113.500000 
	C270.484741,111.399406 267.175415,113.701736 267.597839,120.994331 
	C268.258179,132.394730 270.146851,143.560684 276.449005,153.532227 
	C278.759735,157.188370 281.291138,159.941818 286.000000,159.500000 
"/>
<path fill="none" opacity="1.000000" stroke="#000000" stroke-linecap="round" stroke-linejoin="round" stroke-width="3.000000"
	d="
M402.500000,159.500000 
	C406.075867,159.985077 408.431000,158.497360 410.564941,155.546967 
	C418.839264,144.107117 421.137726,131.158371 420.410370,117.504776 
	C420.148773,112.594627 417.118591,111.481117 411.500000,113.500000 
"/>
<path fill="none" opacity="1.000000" stroke="#000000" stroke-linecap="round" stroke-linejoin="round" stroke-width="3.000000"
	d="
M249.500000,296.500000 
	C257.520050,302.245300 266.903778,305.360565 275.521088,309.960480 
	C283.300079,314.112823 288.897034,319.971924 291.500000,328.500000 
"/>
<path fill="none" opacity="1.000000" stroke="#000000" stroke-linecap="round" stroke-linejoin="round" stroke-width="3.000000"
	d="
M211.500000,745.500000 
	C214.021484,757.203857 215.976715,768.996521 215.924377,780.999695 
	C215.907654,784.835083 215.000015,788.666687 214.500015,792.500000 
"/>
<path fill="none" opacity="1.000000" stroke="#000000" stroke-linecap="round" stroke-linejoin="round" stroke-width="3.000000"
	d="
M442.500000,296.500000 
	C434.144867,301.938690 424.798798,305.434906 416.016052,310.030670 
	C408.685028,313.866791 403.102997,319.395966 400.500000,327.500000 
"/>
<path fill="none" opacity="1.000000" stroke="#000000" stroke-linecap="round" stroke-linejoin="round" stroke-width="3.000000"
	d="
M476.500000,746.500000 
	C472.552216,761.641113 471.917175,776.998230 473.500000,792.500000 
"/>
<path fill="none" opacity="1.000000" stroke="#000000" stroke-linecap="round" stroke-linejoin="round" stroke-width="3.000000"
	d="
M630.500000,839.500000 
	C629.478149,843.271545 628.134949,846.976807 628.466003,851.002808 
	C628.532898,851.816467 628.878723,852.760864 628.008301,853.509644 
	C623.510559,857.379211 621.168457,863.084229 616.078857,866.613770 
	C609.779785,870.982056 609.056885,874.372864 611.500000,880.500000 
"/>
<path fill="none" opacity="1.000000" stroke="#000000" stroke-linecap="round" stroke-linejoin="round" stroke-width="2.000000"
	d="
M440.500000,1274.500000 
	C443.747009,1286.151733 448.154938,1297.084106 458.482025,1304.524902 
	C461.523956,1306.716675 465.063080,1307.425659 468.500000,1308.500000 
"/>
<path fill="none" opacity="1.000000" stroke="#000000" stroke-linecap="round" stroke-linejoin="round" stroke-width="3.000000"
	d="
M71.500000,777.500000 
	C73.437759,786.606689 70.914207,795.232239 66.751694,802.864563 
	C63.057690,809.637817 61.742542,817.528320 56.602531,823.586975 
	C55.862556,824.459229 56.511566,826.500122 56.497349,828.000000 
	C56.474815,830.376343 56.962978,832.933289 55.459461,834.970093 
	C53.078472,838.195740 53.378960,841.362793 54.338276,845.042175 
	C54.930786,847.314636 55.840046,850.000000 54.519833,852.691345 
	C55.597828,854.209351 57.497063,855.106445 58.565872,856.962036 
	C60.847191,860.922791 64.041550,863.944153 67.900093,866.642822 
	C73.509468,870.566162 74.345352,874.919678 72.000000,880.500000 
"/>
<path fill="none" opacity="1.000000" stroke="#000000" stroke-linecap="round" stroke-linejoin="round" stroke-width="3.000000"
	d="
M247.500000,1274.500000 
	C245.754822,1282.447144 242.476685,1289.746338 237.982574,1296.488403 
	C233.776901,1302.797729 227.696732,1306.488281 220.500000,1308.500000 
"/>
<path fill="none" opacity="1.000000" stroke="#000000" stroke-linecap="round" stroke-linejoin="round" stroke-width="3.000000"
	d="
M612.500000,777.500000 
	C610.632080,786.594360 613.116760,795.192383 617.228027,802.877991 
	C620.838562,809.627563 622.689026,817.110474 626.857361,823.591736 
	C627.967712,825.318115 627.368408,828.164856 627.491516,830.500427 
	C627.663086,833.755554 628.482544,836.722900 631.052307,839.047302 
	C632.522339,838.205383 634.011169,837.352661 635.500000,836.499939 
"/>
<path fill="none" opacity="1.000000" stroke="#000000" stroke-linecap="round" stroke-linejoin="round" stroke-width="3.000000"
	d="
M646.000000,863.000000 
	C637.759338,875.464966 626.681091,884.870850 613.946045,892.408875 
	C612.800171,893.087219 612.312012,894.962646 610.500000,894.500000 
"/>
<path fill="none" opacity="1.000000" stroke="#000000" stroke-linecap="round" stroke-linejoin="round" stroke-width="2.000000"
	d="
M450.500000,1087.500000 
	C450.912231,1100.641235 454.668823,1113.078491 458.500000,1125.500000 
"/>
<path fill="none" opacity="1.000000" stroke="#000000" stroke-linecap="round" stroke-linejoin="round" stroke-width="2.000000"
	d="
M467.500000,686.500000 
	C455.968231,680.137207 443.786316,675.961182 430.500000,675.500000 
"/>
<path fill="none" opacity="1.000000" stroke="#000000" stroke-linecap="round" stroke-linejoin="round" stroke-width="3.000000"
	d="
M257.500000,675.500000 
	C244.175125,675.831482 232.119797,680.433228 220.500000,686.500000 
"/>
<path fill="none" opacity="1.000000" stroke="#000000" stroke-linecap="round" stroke-linejoin="round" stroke-width="3.000000"
	d="
M401.500000,154.500000 
	C401.743713,166.674866 400.711121,178.440598 393.611816,189.074646 
	C390.168457,194.232437 391.104828,200.650513 391.643250,206.486786 
	C392.181458,212.320419 391.802765,218.277863 393.435577,224.018326 
	C393.586060,224.547379 392.833344,225.333328 392.500000,226.000000 
"/>
<path fill="none" opacity="1.000000" stroke="#000000" stroke-linecap="round" stroke-linejoin="round" stroke-width="3.000000"
	d="
M296.500000,171.500000 
	C296.666656,175.833328 297.218506,180.192764 296.927185,184.495071 
	C296.081207,196.986923 297.841980,209.569443 295.542236,222.007812 
	C295.294006,223.350296 295.167694,224.916412 296.500000,226.000000 
"/>
<path fill="none" opacity="1.000000" stroke="#000000" stroke-linecap="round" stroke-linejoin="round" stroke-width="2.000000"
	d="
M237.500000,1087.500000 
	C237.250977,1098.114380 234.567825,1108.300903 231.951172,1118.487427 
	C231.521484,1120.160278 230.444443,1121.666626 230.500000,1123.500000 
"/>
<path fill="none" opacity="1.000000" stroke="#000000" stroke-linecap="round" stroke-linejoin="round" stroke-width="3.000000"
	d="
M449.500000,1125.500000 
	C436.921417,1122.180420 425.198486,1123.852295 414.500000,1131.500000 
"/>
<path fill="none" opacity="1.000000" stroke="#000000" stroke-linecap="round" stroke-linejoin="round" stroke-width="3.000000"
	d="
M273.500000,1131.500000 
	C262.801514,1123.852295 251.078583,1122.180420 238.500000,1125.500000 
"/>
<path fill="none" opacity="1.000000" stroke="#000000" stroke-linecap="round" stroke-linejoin="round" stroke-width="3.000000"
	d="
M558.500061,561.500000 
	C559.333374,564.666687 560.268066,567.810852 560.976746,571.005188 
	C562.092712,576.035339 564.322021,580.552979 568.566467,583.400940 
	C572.915100,586.318909 575.712158,590.337402 578.500000,594.500000 
"/>
<path fill="none" opacity="1.000000" stroke="#000000" stroke-linecap="round" stroke-linejoin="round" stroke-width="3.000000"
	d="
M129.500000,561.500000 
	C128.612427,568.270935 127.445747,575.004456 122.945312,580.454834 
	C120.935600,582.888733 118.352325,584.854248 115.994629,586.994080 
	C113.646263,589.125427 111.765686,591.583740 110.500000,594.500000 
"/>
<path fill="none" opacity="1.000000" stroke="#000000" stroke-linecap="round" stroke-linejoin="round" stroke-width="3.000000"
	d="
M462.000000,561.000000 
	C458.501526,564.433960 458.258728,569.137024 456.917267,573.474426 
	C454.723083,580.568970 452.000031,587.500000 449.500031,594.500000 
"/>
<path fill="none" opacity="1.000000" stroke="#000000" stroke-linecap="round" stroke-linejoin="round" stroke-width="2.000000"
	d="
M277.500000,1098.500000 
	C277.819153,1110.031494 278.828461,1121.461548 282.500000,1132.500000 
"/>
<path fill="none" opacity="1.000000" stroke="#000000" stroke-linecap="round" stroke-linejoin="round" stroke-width="2.000000"
	d="
M410.500000,1099.500000 
	C410.141388,1110.698242 409.119446,1121.795898 405.500000,1132.500000 
"/>
<path fill="none" opacity="1.000000" stroke="#000000" stroke-linecap="round" stroke-linejoin="round" stroke-width="2.000000"
	d="
M387.500000,681.500000 
	C375.332611,685.776855 365.942505,693.627136 358.473816,703.981140 
	C358.008453,704.626282 357.166687,705.000000 356.500031,705.500000 
"/>
<path fill="none" opacity="1.000000" stroke="#000000" stroke-linecap="round" stroke-linejoin="round" stroke-width="3.000000"
	d="
M103.500000,539.500000 
	C101.578255,549.848450 101.123650,560.480896 97.500000,570.500000 
"/>
<path fill="none" opacity="1.000000" stroke="#000000" stroke-linecap="round" stroke-linejoin="round" stroke-width="3.000000"
	d="
M585.000000,539.500000 
	C586.651917,549.941284 586.902405,560.676392 591.500000,570.500000 
"/>
<path fill="none" opacity="1.000000" stroke="#000000" stroke-linecap="round" stroke-linejoin="round" stroke-width="3.000000"
	d="
M228.000000,563.000000 
	C232.143982,572.944946 235.367416,583.206848 238.500000,593.500000 
"/>
<path fill="none" opacity="1.000000" stroke="#000000" stroke-linecap="round" stroke-linejoin="round" stroke-width="3.000000"
	d="
M301.500000,681.500000 
	C313.544342,686.168701 322.718323,694.456604 330.500000,704.500000 
"/>
<path fill="none" opacity="1.000000" stroke="#000000" stroke-linecap="round" stroke-linejoin="round" stroke-width="3.000000"
	d="
M287.000000,155.500000 
	C286.578705,166.301971 288.592346,176.631210 292.992859,186.503174 
	C293.553894,187.761765 294.275421,188.780365 295.750000,189.000000 
"/>
<path fill="none" opacity="1.000000" stroke="#000000" stroke-linecap="round" stroke-linejoin="round" stroke-width="2.000000"
	d="
M411.500000,122.500000 
	C411.604248,131.734406 408.961975,140.290833 404.938568,148.469772 
	C404.579254,149.200211 404.600677,149.816833 404.500000,150.500000 
"/>
<path fill="none" opacity="1.000000" stroke="#000000" stroke-linecap="round" stroke-linejoin="round" stroke-width="2.000000"
	d="
M277.500000,123.500000 
	C276.712585,132.809906 280.398224,141.087585 283.500000,149.500000 
"/>
<path fill="none" opacity="1.000000" stroke="#000000" stroke-linecap="round" stroke-linejoin="round" stroke-width="2.000000"
	d="
M397.500000,146.500000 
	C391.513489,154.510117 384.324310,161.618225 379.500000,170.500000 
"/>
<path fill="none" opacity="1.000000" stroke="#000000" stroke-linecap="round" stroke-linejoin="round" stroke-width="2.000000"
	d="
M291.500000,146.500000 
	C292.239685,150.111893 295.322510,151.970261 297.507019,154.493927 
	C301.771515,159.420517 306.321899,164.143265 308.500000,170.500000 
"/>
<path fill="none" opacity="1.000000" stroke="#000000" stroke-linecap="round" stroke-linejoin="round" stroke-width="2.000000"
	d="
M342.500000,172.500000 
	C334.117645,168.578400 326.239227,170.703888 318.500000,174.500000 
"/>
<path fill="none" opacity="1.000000" stroke="#000000" stroke-linecap="round" stroke-linejoin="round" stroke-width="2.000000"
	d="
M370.500000,174.500000 
	C364.279449,171.776474 357.968140,169.651917 350.992523,170.960175 
	C349.652405,171.211487 348.235260,170.993408 347.500000,172.500000 
"/>
<path fill="none" opacity="1.000000" stroke="#000000" stroke-linecap="round" stroke-linejoin="round" stroke-width="2.000000"
	d="
M609.500000,745.500000 
	C613.192017,752.726379 616.185547,760.104614 614.500000,768.500000 
"/>
<path fill="none" opacity="1.000000" stroke="#000000" stroke-linecap="round" stroke-linejoin="round" stroke-width="3.000000"
	d="
M73.500000,746.500000 
	C71.476326,752.879150 68.613289,759.068176 69.016052,765.999084 
	C69.064880,766.839233 69.333328,767.666687 69.499992,768.500000 
"/>
<path fill="none" opacity="1.000000" stroke="#000000" stroke-linecap="round" stroke-linejoin="round" stroke-width="3.000000"
	d="
M432.500000,1300.500000 
	C426.519135,1305.973511 419.726410,1309.742065 411.500000,1310.500000 
"/>
<path fill="none" opacity="1.000000" stroke="#000000" stroke-linecap="round" stroke-linejoin="round" stroke-width="3.000000"
	d="
M256.500000,1300.500000 
	C261.603607,1306.959473 268.714203,1309.404907 276.500000,1310.500000 
"/>
<path fill="none" opacity="1.000000" stroke="#000000" stroke-linecap="round" stroke-linejoin="round" stroke-width="3.000000"
	d="
M52.500000,745.500000 
	C50.364632,751.022339 48.742443,756.564392 50.935013,762.523926 
	C51.239170,763.350708 50.666664,764.500000 50.499996,765.500000 
"/>
<path fill="none" opacity="1.000000" stroke="#000000" stroke-linecap="round" stroke-linejoin="round" stroke-width="3.000000"
	d="
M631.500000,745.500000 
	C634.814575,751.554626 634.088745,758.034546 633.500000,764.500000 
"/>
<path fill="none" opacity="1.000000" stroke="#000000" stroke-linecap="round" stroke-linejoin="round" stroke-width="3.000000"
	d="
M392.500000,171.500000 
	C392.333344,175.666672 392.153839,179.832870 392.006012,184.000214 
	C391.943024,185.776474 391.795532,187.592773 393.250000,189.000000 
"/>
<path fill="none" opacity="1.000000" stroke="#000000" stroke-linecap="round" stroke-linejoin="round" stroke-width="3.000000"
	d="
M552.500000,396.500000 
	C555.207397,402.582642 558.009216,408.614044 562.000000,414.000000 
"/>
<path fill="none" opacity="1.000000" stroke="#000000" stroke-linecap="round" stroke-linejoin="round" stroke-width="3.000000"
	d="
M214.000015,1484.500000 
	C216.166687,1488.833374 218.333344,1493.166626 220.500015,1497.500000 
"/>
<path fill="none" opacity="1.000000" stroke="#000000" stroke-linecap="round" stroke-linejoin="round" stroke-width="3.000000"
	d="
M474.000000,1484.500000 
	C471.833313,1488.833374 469.666656,1493.166626 467.500000,1497.500000 
"/>
<path fill="none" opacity="1.000000" stroke="#000000" stroke-linecap="round" stroke-linejoin="round" stroke-width="3.000000"
	d="
M604.500000,808.500000 
	C609.047729,814.418274 615.812866,816.135193 622.500000,818.000000 
"/>
<path fill="none" opacity="1.000000" stroke="#000000" stroke-linecap="round" stroke-linejoin="round" stroke-width="3.000000"
	d="
M79.000000,809.000000 
	C74.606026,814.798767 67.658562,815.632385 61.500000,818.000000 
"/>
<path fill="none" opacity="1.000000" stroke="#000000" stroke-linecap="round" stroke-linejoin="round" stroke-width="2.000000"
	d="
M346.500000,734.500000 
	C346.543762,737.268616 345.873627,739.903381 345.000000,742.500000 
"/>
<path fill="none" opacity="1.000000" stroke="#000000" stroke-linecap="round" stroke-linejoin="round" stroke-width="2.000000"
	d="
M341.500000,734.500000 
	C341.456238,737.268616 342.126373,739.903381 343.000000,742.500000 
"/>
<path fill="none" opacity="1.000000" stroke="#000000" stroke-linecap="round" stroke-linejoin="round" stroke-width="2.000000"
	d="
M195.500000,1502.500000 
	C195.481613,1505.218628 193.341537,1506.239868 191.500000,1507.500000 
"/>
<path fill="none" opacity="1.000000" stroke="#000000" stroke-linecap="round" stroke-linejoin="round" stroke-width="3.000000"
	d="
M493.500000,1503.500000 
	C493.411438,1506.304199 496.984375,1506.179199 497.500000,1508.500000 
"/>
<path fill="none" opacity="1.000000" stroke="#000000" stroke-linecap="round" stroke-linejoin="round" stroke-width="2.000000"
	d="
M47.500000,836.500000 
	C49.472347,836.721985 50.393417,839.046509 52.500000,839.000000 
"/>
<path fill="none" opacity="1.000000" stroke="#000000" stroke-linecap="round" stroke-linejoin="round" stroke-width="2.000000"
	d="
M630.500000,821.500000 
	C628.846924,821.187073 629.424683,824.220398 627.500000,823.500000 
"/>
</svg>