<?xml version="1.0" encoding="UTF-8"?><svg id="_Слой_1" xmlns="http://www.w3.org/2000/svg" viewBox="0 0 2300 5500"><defs><style>.cls-1{fill:#010101;}.cls-2{fill:#fff;}</style></defs><path class="cls-1" d="M1340.76,752.85c3.8,37.89,23.89,68.5,60.26,91.84,71.46,45.79,137.01,81.72,196.65,107.8,9.53,9.47,23.57,16.05,42.1,19.74,42.86,8.54,71.11,14.59,84.73,18.16,213.93,55.43,221.21,276.47,217.18,456.72-.29,12.5,1.95,24.88,6.58,36.4,26.84,66.75,44.82,122.71,57.1,198.41.58,3.45,6.43,39.59,17.54,108.41,4.21,25.79,14.38,57.98,28.95,84.99,30.11,55.84,46.93,88.3,50.44,97.36,26.14,67.89,43.59,140.08,52.36,216.56,12.28,106.89,23.54,209.08,33.77,306.56,5.85,55.9,23.8,160.25,53.86,313.05,4.82,24.74,14.82,54.38,24.82,87.63,2.05,6.89,1.77,14.23-.79,20.88-11.93,31.05-19.85,64.35-23.77,99.91-16.2,37.48-37.48,75.52-63.86,114.12-5.96,8.77-12.72,14.76-20.26,17.98-2.57,1.14-5.42,1.45-8.16.88-11.99-2.57-18.22-9.33-18.68-20.26-.09-2.27-1.98-4.06-4.21-3.98-.62.02-1.22.18-1.76.48-9.91,5.26-27.1,15.26-37.1,6.32-8.89-7.95-14.33-15.96-16.31-24.03-1.69-6.94.3-14.26,5.26-19.38l45.7-46.66c1.92-1.98,3.52-4.22,4.74-6.67,15.26-30.17,24.79-60.9,28.59-92.19.23-21.87-.44-36.72-2.02-44.56-2.34-11.23-11.2-23.07-26.58-35.52-1.74-1.39-4.28-1.1-5.67.65-.14.18-.27.37-.38.58-5.03,9.12-7.57,15.03-7.63,17.72-1.05,36.93-2.11,76.05-35.61,95.43-2.64,1.55-5.68,2.31-8.77,2.19-34.21-.88-35.26-23.07-28.86-52.28,9.91-45.35,14.74-78.24,4.65-122.1-12.54-54.56-4.3-83.24,24.21-128.76,1.89-3.03,2.83-6.54,2.72-10.09l-1.14-31.49c-5.38-30.82-14.33-60.93-26.84-90.34-35.7-83.77-74.12-146.31-120.08-237.18-50.11-98.94-76.28-198.47-78.5-298.58-.35-16.02-1.55-29.47-3.6-40.35-4.03-21.05-7.63-34.12-10.79-39.21-39.41-62.86-72.31-129.44-98.68-199.72l-35.96-133.06c-.42-1.29-1.81-1.99-3.1-1.56-.83.27-1.46.97-1.64,1.83-11.05,71.69-32.34,142.1-63.86,211.21-9.36,20.47-18.04,51.43-26.05,92.89-12.98,67.54-21.67,136.66-19.82,208.58,1.84,68.77,4.3,97.63-.53,145.96-1.75,17.48-2.98,31.55-3.68,42.19-.23,3.94.3,7.9,1.58,11.67,71.87,216.36,120.9,434.12,147.1,653.29,2.57,21.64,5.73,73.24,9.47,154.81,2.46,54.44,1.58,105.99-2.63,154.64-11.49,131.57-34.3,255.51-69.21,382.69-18.19,66.14-28.65,113.62-31.4,142.45-6.9,70.81-1.7,142.01,15.61,213.58,20.64,85.49,34.73,162.09,42.28,229.81,4.03,35.85,4.56,84.88,1.58,147.1-3.33,69.59-15.17,158.06-35.52,265.42-24.38,128.59-43.39,248.43-57.01,359.54-8.95,72.54,25.35,123.33,69.82,184.99,20.29,28.24,37.42,49.85,51.4,64.82,40.44,43.33,84.73,69.64,146.83,105.34,19.12,11.05,30.96,25.96,21.14,46.05-9.77,20-26.99,28.16-51.66,24.47-3.31-.51-6.69.35-9.39,2.37-15.61,11.81-33.33,13.68-53.15,5.61-3.05-1.27-6.52-1.08-9.39.53-47.1,25.79-81.05,6.4-126.92-7.02-37.28-10.96-56.66-27.02-79.82-54.38-33.33-39.38-92.19-11.58-130.34-36.93-24.33-16.08-33.8-41.08-28.42-74.99,5.73-35.67,9.21-58.97,10.44-69.91.87-8.46.87-16.95,0-25.35-2.57-23.74-3.16-38.74-1.75-45,9.65-43.45,14.44-79.26,14.38-107.45-.06-44.21-4.03-96.84-11.93-157.88-9.12-125.2-34.79-245.31-77.01-360.33-15.09-77.42-21.52-146.63-19.3-207.62,1.75-48.24,9.82-124.41,24.21-228.49,1.23-9.06,1.99-26.02,2.28-50.87.06-8.55-1.15-17.03-3.6-25.17-19.12-62.74-30.58-113.09-34.38-151.04-15.79-155.69-26.23-284.98-63.5-435.85-16.2-65.38-26.81-112.39-31.84-141.04-13.92-78.59-21.55-126.13-22.89-142.62-6.2-72.69-11.4-129.32-15.61-169.9-.35-3.33-1.17-5.99-2.46-7.98-2.44-3.78-7.49-4.87-11.28-2.43-1.95,1.26-3.27,3.29-3.63,5.58-12.02,75.26-15.26,149.38-26.4,230.95-11.05,79.82-31.93,165.25-49.03,246.12-30.26,142.89-36.31,296.74-52.28,426.9-6.37,52.22-18.77,104.73-37.19,157.53-1.22,3.54-1.87,7.24-1.93,10.96-.44,43.07,9.91,103.15,21.31,204.55,7.72,68.3,6.55,138.03-3.51,209.2-2.92,21.05-16.69,73.3-41.31,156.74-30.29,103.03-50.84,214.69-61.66,334.98-5,55.26-10.79,104.56-4.47,137.36,4.74,24.5,9.27,48.07,13.6,70.7,2.03,10.79,2.09,21.84.18,32.63l-2.81,15.7c-.93,5.22-.96,10.56-.09,15.79,12.28,74.21,42.37,153.24-62.89,159.9-30.61,1.93-64.21-2.37-83.85,23.07-23.97,30.99-62.1,54.06-114.38,69.21-39.88,11.52-71.46,9.06-94.73-7.37-2.56-1.81-5.88-2.17-8.77-.96-22.57,9.3-42.22,7.84-58.94-4.39-3-2.22-6.84-3.03-10.53-2.19-7.95,1.81-19-1.02-33.16-8.51-17.31-9.18-22.02-22.4-14.12-39.65,1.21-2.6,2.98-4.91,5.17-6.75,10.35-8.6,33.16-23.24,47.89-31.31,96.92-52.89,167.27-140.52,220.25-229.46,20.93-35.14,28.01-76.69,21.23-124.64-18.24-129.35-33.89-230.16-46.93-302.44-33.51-184.81-52.01-367.43-12.19-554.7,25.88-121.83,50.26-217.53,39.73-331.65-3.33-26.9-8.48-53.36-15.44-79.38-15.85-59.29-33.24-118.5-52.19-177.62-2.87-24.38-9.85-67.25-20.96-128.59-20.47-112.86-25.09-238.96-13.86-378.31,20.09-250.69,66.22-498.3,147.1-732.5,2.95-8.56,4.05-17.64,3.25-26.66-4.39-47.1-5.61-88.59-1.05-144.2,9.91-122.89-10-244.9-57.36-361.91-24.38-60.41-39.12-124.2-44.21-191.39-.14-1.06-1.11-1.8-2.17-1.66-.77.1-1.4.65-1.61,1.4-16.67,78.59-44.47,154.46-83.42,227.62-16.08,30.29-36.75,67.6-62.01,111.92-6.9,12.07-11.6,25.28-13.86,39.03-3.57,21.75-6.17,43.18-7.81,64.29-13.42,172.44-86.31,293.23-170.52,442.6-25.61,45.44-45.61,92.86-60,142.27-9.36,32.34-4.71,64.53,13.95,96.57,14.91,25.61,7.46,65.79-3.07,99.47-10.26,32.98-9.91,78.59-3.6,107.27,5.96,27.13,8.95,41.02,8.95,41.66-.06,2.98-.94,5.87-2.54,8.33-6.37,9.59-14.74,15.03-25.09,16.31-52.1,6.4-51.66-89.56-53.59-119.99-.12-2.23-2.03-3.93-4.25-3.8-.7.04-1.38.26-1.97.65-14.82,9.82-25.35,22.54-30.44,40.79-12.22,44.03-6.08,79.47,18.42,106.31,10.96,33.51,27.89,47.37,57.45,76.57,7.89,7.78,9.79,18.3,5.7,31.58l-14.82,16.93c-2.06,2.37-5.47,3.06-8.33,1.67-8.83-4.21-16.61-10.06-23.33-17.54-1.29-1.37-3.45-1.46-4.82-.22-.75.68-1.14,1.67-1.06,2.68,1.11,14.91-4.39,23.98-16.49,27.19-6.84,1.87-12.92-.44-18.24-6.93-44.3-54.03-87.8-117.1-92.45-192.01-.06-.76-.21-1.49-.44-2.19l-11.23-29.65c-2.72-7.19-2.81-15.14-.26-22.45,44.97-128.06,76.75-259.34,95.34-393.83,17.78-128.71,33.04-233.38,45.79-314.01,9.06-57.48,20.82-111.37,35.26-161.66,18.07-62.8,47.19-110.61,77.63-170.34,21.84-42.72,24.3-88.06,38.16-164.02,13.27-72.86,36.02-142.89,68.24-210.07,2.4-4.97,4.97-14.56,7.72-28.77.87-4.37,1.2-8.82.96-13.24-3.45-77.13.91-148.65,13.07-214.55,20.88-112.8,69.64-197.62,185.78-230.77,12.86-3.68,45.52-11.2,97.98-22.54,11.46-2.46,23.19-6.84,35.17-13.16,40.46-21.23,92.68-49.35,156.66-84.38,51.23-28.07,97.45-60.79,111.05-121.57,2.87-12.75,3.3-37.51,1.32-74.29-.17-3.23-1.07-6.38-2.63-9.21-20.29-36.84-35.11-72.86-44.47-108.06-1.08-3.98-3.49-7.47-6.84-9.91l-15.61-11.4c-3.01-2.2-5.52-4.98-7.37-8.16-15.44-26.26-25.26-54-29.47-83.24-3.95-26.75-5.79-70.78,32.1-69.12,2.42.12,4.48-1.74,4.6-4.16.01-.28,0-.56-.04-.84-2.98-19.71-2.4-53.33,1.75-100.87,3.22-37.13,12.48-69.26,27.81-96.4,40.79-72.19,121.57-117.01,203.85-115.96,122.36,1.58,216.56,78.15,236.3,200.95,4.85,30.11,5.94,68.68,3.25,115.69-.12,1.98,1.39,3.69,3.37,3.81.49.03.99-.04,1.45-.21l3.33-1.32c2.71-.99,5.75-.67,8.25.88,14.21,9.18,21.4,20.73,21.58,34.65.35,37.72-17.54,116.48-55.52,133.94-3.71,1.72-6.43,5.05-7.37,9.03-7.48,32.04-21.17,65.08-41.05,99.12-2.03,3.42-3.37,7.17-3.95,11.05-4.8,32.63-3.3,60.84,4.47,84.64ZM1394.09,401.91c3.68-70.7,10.44-146.22-23.95-210.86-78.77-148.15-291.21-164.29-387.69-25.09-43.42,62.72-48.77,168.94-34.38,240.77.24,1.78-1,3.41-2.77,3.66-1.33.18-2.63-.47-3.28-1.64-4.8-9.82-9.15-15.55-13.07-17.19-8.87-3.73-19.1,1.1-22.85,10.79-.8,2.07-1.26,4.27-1.36,6.49-1.7,41.4,8.25,80.46,29.82,117.19,4.62,7.84,11.08,11.4,19.38,10.7,2.31-.2,4.45,1.22,5.17,3.42,23.24,72.01,45.87,132.97,102.98,184.11,67.89,61.05,165.78,48.42,227.35-17.81,43.45-46.72,71.63-100.14,84.56-160.25.76-3.36,3.24-6.04,6.49-7.02,36.49-11.23,47.45-73.59,52.8-108.94,1.93-12.86.12-24.36-5.44-34.47-3.27-5.86-10.75-7.78-16.7-4.28-2.43,1.42-4.33,3.61-5.41,6.21-1.99,4.74-3.77,7.51-5.35,8.33-2.1,1.12-4.7.28-5.82-1.86-.36-.7-.53-1.48-.5-2.26ZM447.22,5417.46c6.14,7.43,13.42,11.2,21.84,11.31,2.82,0,5.41-1.5,6.75-3.95,8.07-14.21,16.93-31.93,36.75-35.7,15.38-2.92,29.97-10.96,43.77-24.12.92-.86,2.36-.81,3.22.11.07.08.14.16.2.24l1.58,2.37c.98,1.44.67,3.38-.7,4.39-15.61,11.75-30.61,20.2-45,25.35-12.34,4.44-21.31,12.28-26.93,23.51-2.59,5.21-.07,11.7,5.62,14.5.17.08.34.16.52.24,12.81,5.44,42.19,11.4,46.05-8.16,1.58-7.89,3.1-13.39,4.56-16.49,1.84-3.85,4.65-7.12,8.16-9.47l26.05-17.54c2.22-1.53,5.16-1.57,7.46-.09,6.9,4.5,13.6,5.96,20.09,4.39,2.94-.73,5.53-2.54,7.28-5.09,5.5-8.01,11.69-13.8,18.6-17.37,1.44-.8,3.26-.28,4.05,1.17.59,1.06.47,2.36-.28,3.31-13.57,17.48-29.56,26.58-47.98,27.28-12.98.53-27.98,5.17-34.38,15.26-5.97,9.17-4.51,20.89,3.27,26.18.61.41,1.24.78,1.91,1.1,46.75,22.45,102.36-1.14,150.34-24.65,9.19-4.51,17.3-10.97,23.77-18.95,15.17-18.42,37.54-43.94,66.57-44.03,35.61-.18,104.29,2.28,108.5-43.77,1.64-17.84-2.31-53.74-11.84-107.71-.23-1.4-.29-2.84-.18-4.3l3.6-40.96c.58-6.69.14-13.4-1.32-19.91-12.89-56.4-18.24-101.05-12.89-166.48,12.28-152.36,35.88-287,77.54-420.41,34.12-109.03,45.79-219.37,31.66-331.73-12.75-101.46-19.94-165.34-21.58-191.65-.17-3.18.33-6.41,1.49-9.47,22.16-58.36,36.26-119.99,42.28-184.9,7.54-80.93,16.84-177.39,27.89-289.37,3.16-32.16,15.5-96.51,37.02-193.06,18.71-84.32,30.9-148.7,36.58-193.15,7.6-59.88,15.55-130.05,23.86-210.51.32-3.09-1.65-5.95-4.65-6.75l-28.51-7.98c-.67-.15-1.17-.72-1.23-1.4l-.09-2.89c-.05-1.26.89-2.33,2.1-2.39.27-.01.54.02.79.11,32.86,10.06,65.84,11.17,98.94,3.33,1.39-.36,2.85.39,3.42,1.75l.88,2.37c.25.68-.1,1.44-.78,1.69-.09.03-.18.05-.27.07l-33.68,6.32c-2.33.47-3.85,2.67-3.4,4.9.02.09.04.19.07.28,2.52,9.65,8.63,65.49,18.33,167.53,8.77,92.45,29.21,186.74,57.36,303.58,20.76,85.96,33.92,156.54,39.47,211.74,10.06,99.93,17.54,172.09,22.45,216.48,5.09,46.02,16.11,95.61,33.07,148.76,2.73,8.61,4.21,17.56,4.39,26.58.35,19-1.11,40.67-4.39,65-19.65,144.82-36.23,269.19-3.07,400.5,14.74,58.59,40.79,137.97,52.8,202.62,20.99,112.16,33.1,227.5,36.31,346.03.79,31.4-5.96,62.8-12.46,96.66-1.57,8.15-2.1,16.5-1.58,24.82,2.34,34.03-.23,73.77-7.72,119.2-12.89,78.59,49.12,73.68,103.33,79.47,41.58,4.47,59.12,35.61,85.52,59.38,13.33,11.93,38.51,17.72,57.37,23.77,37.63,12.02,61.57,23.24,100.17,4.12,3.4-1.71,5.47-5.29,5.26-9.12l-.96-19.56c-.16-3.5-2.23-6.59-5.35-7.98-17.54-7.84-33.07-12.19-46.58-13.07-8.36-.53-15.61-6.2-21.75-17.02-1.03-1.81-.39-4.11,1.42-5.14.45-.26.96-.42,1.48-.47,3.27-.29,6.78,2.16,10.53,7.37,1.47,1.96,3.86,2.96,6.23,2.63,5.2-.7,24.3,5.73,57.28,19.3,2.98,1.17,5.01,4.02,5.18,7.28l1.23,24.82c.11,2.78,1.64,5.3,4.03,6.67,14.56,8.13,30.85,6.75,48.86-4.12,2.37-1.46,3.44-4.37,2.63-7.11-4.5-14.79-9.62-23.71-15.35-26.75-16.9-8.83-36.2-20.47-57.89-34.91-.72-.4-.97-1.31-.57-2.03.01-.03.03-.05.04-.08l1.32-2.28c.14-.31.51-.44.82-.3.02.01.04.02.06.03l64.29,33.07c5.41,2.77,9.24,7.92,10.35,13.95,4.39,23.98,17.07,28.65,38.07,14.03,1.45-1.06,1.78-3.06.76-4.47-.05-.06-.09-.12-.14-.18-8.01-9.47-14.36-16.69-19.03-21.67-12.72-13.6-34.38-18.68-48.94-30.35-.56-.54-.57-1.43-.03-1.98.35-.36.86-.5,1.34-.38,25.09,7.81,64.47,26.4,72.28,52.1.32,1.32,1.64,2.13,2.96,1.81.99-.24,1.73-1.07,1.86-2.08,2.51-15.91-2.72-27.75-15.7-35.52-15.44-9.24-40.47-24.44-75.08-45.61-64.82-39.56-118.85-108.85-166.13-183.5-21.87-34.5-32.86-66.31-32.98-95.43-.12-41.58,6.29-102.42,19.21-182.53,3.92-24.21,19.68-115.08,47.28-272.61,29.38-167.97,40.44-328.93.53-496.11-24.12-101.4-43.42-196.04-35.52-299.37,2.05-27.07,10.32-65.81,24.82-116.22,2.92-10.17,13.1-50.46,30.52-120.87,33.04-133.32,49.65-264.98,49.82-394.97.35-286.74-67.89-581.28-158.76-861.35-1.04-3.18-1.4-6.59-1.05-10,4.03-35.52,8.33-73.15,7.28-107.36-1.84-56.05-5.18-110.69-.61-161.04,4.97-55.38,14.59-113.18,28.86-173.41,4.68-19.65,15.55-49.09,32.63-88.33,23.04-53.1,38.68-110.37,46.93-171.83,6.05-45,2.63-74.12-.44-129.29-.06-1.31-1.17-2.31-2.48-2.25-.85.04-1.61.53-1.99,1.29-11.29,22.45-25.7,42.13-43.24,59.03-1.13.91-2.79.73-3.7-.4-.67-.84-.77-2-.25-2.93,28.95-41.63,56.08-82.25,81.4-121.83,3.63-5.73,9.97-12.78,19.03-21.14.95-.92,2.47-.92,3.42,0l1.93,1.93c.3.3.38.76.18,1.14l-44.38,65.26c-.91,1.31-1.34,2.92-1.23,4.56l5.18,82.71c.06,1.17.24,2.37.53,3.6,4.97,22.98,9.97,46.23,15,69.73,22.92,107.24,62.07,205.48,117.45,294.72,27.1,43.77,27.98,73.42,30.79,133.59,3.77,81.49,27.89,168.94,62.19,238.41,37.54,76.14,72.95,144.9,106.22,206.3,26.05,47.98,58.42,123.59,57.45,181.65-.12,6.09-1.87,12.05-5.09,17.28-19.21,31.31-32.98,56.66-29.56,96.75.76,8.54,4.42,28.1,10.96,58.68,3.8,17.66-.06,55.87-11.58,114.64-1.87,9.41,4.24,18.55,13.65,20.42.39.08.78.14,1.18.19l.35.09c11.27,1.46,22.09-4.89,26.31-15.44,7.02-17.31,12.13-40.09,15.35-68.33,2.51-22.05,12.89-50.06,31.14-84.03.87-1.68,2.96-2.31,4.67-1.41.31.16.6.38.85.62l2.1,2.11c1.41,1.42,1.76,3.6.88,5.44l-19.56,38.86c-1.23,2.42-.22,5.39,2.24,6.63.15.08.31.15.47.21.53.23,1.7.41,3.51.53,1.81.12,4.09,1.37,6.84,3.77,6.02,5.38,16.84,19.18,32.45,41.4,2,2.87,2.55,6.53,1.49,9.91-5.73,17.66-7.72,39.38-5.96,65.17.12,1.69.83,3.26,2.02,4.39l4.39,4.3c1.21,1.12,1.28,3.01.16,4.21-.73.79-1.83,1.12-2.88.87-.18,0-1.08-.47-2.72-1.4-2.94-1.59-6.61-.49-8.2,2.46-.02.03-.03.06-.05.09l-30.17,58.33c-.41.81-.91,1.55-1.49,2.19l-46.4,50c-1.7,1.8-1.92,4.53-.53,6.58l1.75,2.54c1.75,2.67,5.34,3.42,8.02,1.66.2-.13.4-.28.58-.43,24.21-20.09,44.47-42.54,69.21-61.14,8.36-6.26,14.09-15.5,17.19-27.72,1.58-6.26,3.95-35.82,7.1-88.68,0-.1.08-.18.17-.18h0l2.63-.09c.99-.05,1.84.68,1.93,1.67,3.16,36.02,1.55,66.92-4.82,92.71-2.63,10.58-17.25,43.36-43.86,98.33-2.04,4.2-.47,9.27,3.6,11.58l2.98,1.67c5.23,3.03,11.9,1.4,15.09-3.68l52.28-83.68c2.44-3.96,4.3-8.24,5.53-12.72l35.7-130.96c.92-3.39.92-6.96,0-10.35-4.82-18.77-14.38-44.38-19.12-65.35-26.26-116.54-46.93-234.2-62.01-352.96-16.05-126.04-22.19-284.72-56.22-422.17-13.16-53.45-34.91-105.67-65.26-156.66-20.79-34.82-31.05-58.77-38.16-93.15-11.75-57.1-19.65-138.59-37.63-204.37-8.36-30.7-22.63-71.98-42.8-123.85-4.17-10.58-6.08-21.94-5.61-33.33,6.05-164.2-.09-383.31-190.6-442.43-42.63-13.24-99.47-15.35-139.64-35.79-61.98-31.46-126.66-67.77-194.02-108.94-74.38-45.35-84.47-97.63-79.38-175.16.05-1.31-.97-2.41-2.28-2.46-.57-.02-1.14.17-1.58.53-1.58,1.29-7.69,8.25-18.33,20.88-81.22,96.57-213.32,94.38-284.98-13.16-.81-1.38-2.59-1.83-3.96-1.02-1.02.6-1.57,1.78-1.39,2.95,9.82,93.94-31.93,140.34-115.08,187.88-52.92,30.23-108.18,60.11-165.78,89.64-14.17,7.32-29.5,12.18-45.35,14.39-5.96.82-29,5.82-69.12,15-95.55,21.99-156.83,83.5-183.85,184.55-21.14,78.77-25.52,169.64-21.93,257.26.58,13.89-2.22,27.7-8.16,40.26-35.9,76.25-60.7,156.04-74.38,239.37-8.6,52.04-15.85,87.86-21.75,107.45-6.32,20.7-20,50.67-41.05,89.91-24.03,44.73-42.1,85.78-52.54,128.24-35.17,142.27-51.31,282.53-71.49,425.06-21.84,154.9-50.17,288.84-99.12,424.45-2.1,5.96-2.07,12.44.09,18.33l11.23,30.52c.23.7.41,1.43.53,2.19,5.44,46.55,17.22,83.47,35.35,110.78,21.93,33.04,39.27,58.33,52.01,75.87,3.47,4.76,10.01,6.06,14.63,2.9,1.36-.94,2.46-2.2,3.18-3.69,2.05-4.39,1.78-9.82-.79-16.31-13.45-33.51-30.79-65.05-52.01-94.64-1.2-1.66-1.9-3.61-2.02-5.61l-3.33-70.52c-.05-.53.34-1,.87-1.05,0,0,0,0,0,0l6.67-.26c1.21-.06,2.24.84,2.31,2,0,.15,0,.31-.03.46-4.8,32.8-.64,63.18,12.46,91.13,1.22,2.57,2.69,5.01,4.39,7.28,15.2,20.06,28.71,39.06,40.52,57.01,2.63,3.98,13.27,11.11,31.93,21.4,2.48,1.35,5.57.49,6.93-1.93l.18-.26c1.29-2.21.59-5.05-1.58-6.4-38.07-24.21-62.95-58.53-74.64-102.98-1.11-4.27-3.6-26.11-7.46-65.52-.35-3.53.04-7.11,1.14-10.53,3.27-10.29,3.77-20.5,1.49-30.61-.73-3.21.05-6.57,2.11-9.12l38.24-49.03c.67-.9.96-2.01.79-3.07l-6.32-33.77c-.15-.93.37-1.82,1.23-2.1l2.28-.88c1.24-.44,2.6.14,3.07,1.32,12.1,27.6,19.24,51.96,21.4,73.07,3.22,30.76,7.02,54.79,11.4,72.1,3.2,12.51,13.93,21.62,26.75,22.72h.7c9.36.79,17.6-6.12,18.41-15.43.15-1.7.03-3.42-.34-5.09-9.18-41.28-12.84-79.67-10.96-115.17.17-3.03.73-6.01,1.67-8.86,12.54-38.33,25.44-80.08,12.1-111.05-12.34-28.48-19.06-44.24-20.17-47.28-4.09-11.17-2.69-30.26,4.21-57.28,28.59-111.92,112.45-237.97,152.45-316.3,47.1-92.36,72.36-187.18,80.17-289.19,2.46-31.93,6.14-53.68,11.05-65.26,11.4-27.02,27.6-58.15,48.59-93.41,53.21-89.53,90.26-184.9,111.13-286.12.99-4.62,3.39-11.43,7.19-20.44.87-2.03,1.32-4.23,1.32-6.49l-.96-80.52c0-1.95-.55-3.86-1.58-5.53l-41.23-65.61c-.88-1.41-.74-3.22.35-4.47l.18-.09c1.86-1.56,4.62-1.31,6.18.54.11.13.22.27.31.42l93.24,138.15c.28.51.13,1.16-.35,1.49l-2.02,1.32c-.54.37-1.27.25-1.67-.26l-39.65-51.14c-.65-.83-1.85-1.02-2.68-.42-.5.36-.78.95-.74,1.56.59,23.27.44,42.66-.44,58.15-4.12,71.31,10,155.69,31.66,209.81,22.45,56.02,35.32,89.26,38.59,99.73,31.58,101.31,39.56,200.78,31.93,314.37-3.27,49.18-2.69,96.19,1.75,141.04.46,4.8-.11,9.67-1.67,14.3-41.23,118-73.27,236.97-96.13,356.91-13.22,69.64-26.78,154.61-40.7,254.9-31.99,231.15-18.95,456.08,39.12,674.78,14.21,53.59,44.03,138.41,50.52,196.39,7.19,64.21,2.02,139.99-8.07,194.81-2.11,11.52-14.74,73.47-37.89,185.87-29.03,140.96-17.37,297.7,7.81,445.85,20.35,119.29,39.41,243.11,57.19,371.47,6.67,47.95,1.11,89.21-16.67,123.76-25.14,48.83-66.72,104.82-124.73,167.97-31.4,34.3-69.64,54.56-113.24,80.7-3.16,1.87-15.23,10.79-36.23,26.75-6.36,4.86-8.09,13.68-4.03,20.52,2.28,3.86,6.46,5.41,12.54,4.65ZM213.9,3107.7c1.69-.61,2.56-2.47,1.95-4.16-.11-.3-.26-.59-.46-.84-8.19-10.41-20.32-23.92-36.4-40.52-11.99-12.4-22.45-33.74-31.4-64.03-.62-2.04-2.75-3.2-4.75-2.61-.37.11-.72.28-1.04.5l-3.77,2.46c-.53.38-.77,1.04-.61,1.67,10.82,47.37,35.64,83.42,74.47,108.15.61.39,1.27.48,1.47.2,0,0,.01-.02.02-.03.29-.53.47-.79.53-.79ZM2160.18,3060.77l-63.24,61.66c-1.42,1.34-1.46,3.56-.07,4.97.97.99,2.44,1.35,3.76.91,7.25-2.46,16.64-7.05,28.16-13.77,2.02-1.21,3.7-2.87,4.91-4.82l29.47-48.68M2163.16,3060.94l-.44-.35c-.78-.55-1.85-.48-2.54.18l2.98.18Z"/><path class="cls-2" d="M1400.4,406.03c1.58-.82,3.36-3.6,5.35-8.33,2.64-6.38,9.85-9.58,16.11-7.15,2.55.99,4.66,2.83,6,5.22,5.56,10.12,7.37,21.61,5.44,34.47-5.35,35.35-16.31,97.71-52.8,108.94-3.25.97-5.73,3.65-6.49,7.02-12.92,60.11-41.11,113.53-84.56,160.25-61.58,66.22-159.46,78.85-227.35,17.81-57.1-51.14-79.73-112.1-102.98-184.11-.72-2.2-2.87-3.62-5.17-3.42-8.3.7-14.77-2.87-19.38-10.7-21.58-36.72-31.52-75.78-29.82-117.19.45-10.38,8.62-18.68,18.23-18.53,2.06.03,4.08.46,5.98,1.25,3.92,1.64,8.27,7.37,13.07,17.19.87,1.57,2.85,2.13,4.41,1.26,1.17-.65,1.82-1.95,1.64-3.28-14.39-71.84-9.03-178.06,34.38-240.77,96.48-139.2,308.93-123.06,387.69,25.09,34.38,64.64,27.63,140.17,23.95,210.86-.11,2.42,1.73,4.48,4.1,4.61.77.04,1.53-.13,2.21-.49Z"/><path class="cls-2" d="M447.22,5417.46c9.03-5.53,9.03-16.32,17.98-20.96,33.74-17.6,51.31-26.69,52.72-27.28.31-.13.49-.45.38-.72,0-.02-.02-.05-.03-.07l-1.49-3.95c-.33-.91-1.33-1.39-2.24-1.06-.07.03-.14.06-.21.09-19.82,10.88-39.73,20.82-59.73,29.82-8.07,3.63-10.53,11.67-7.37,24.12-6.08.76-10.26-.79-12.54-4.65-4.06-6.85-2.32-15.67,4.03-20.52,20.99-15.96,33.07-24.88,36.23-26.75,43.59-26.14,81.84-46.4,113.24-80.7,58.01-63.15,99.58-119.14,124.73-167.97,17.78-34.56,23.33-75.81,16.67-123.76-17.78-128.35-36.84-252.18-57.19-371.47-25.17-148.15-36.84-304.89-7.81-445.85,23.16-112.39,35.79-174.35,37.89-185.87,10.09-54.82,15.26-130.61,8.07-194.81-6.49-57.98-36.31-142.8-50.52-196.39-58.07-218.7-71.11-443.63-39.12-674.78,13.92-100.29,27.48-185.25,40.7-254.9,22.86-119.93,54.91-238.9,96.13-356.91,1.56-4.63,2.13-9.5,1.67-14.3-4.44-44.85-5.03-91.87-1.75-141.04,7.63-113.59-.35-213.06-31.93-314.37-3.27-10.47-16.14-43.71-38.59-99.73-21.67-54.12-35.79-138.5-31.66-209.81.88-15.5,1.02-34.88.44-58.15-.07-1.03.73-1.88,1.78-1.91.63-.02,1.25.27,1.64.77l39.65,51.14c.4.52,1.13.63,1.67.26l2.02-1.32c.48-.33.64-.98.35-1.49l-93.24-138.15c-1.32-2.03-4.04-2.6-6.07-1.28-.15.1-.29.2-.42.31l-.18.09c-1.09,1.25-1.23,3.07-.35,4.47l41.23,65.61c1.03,1.66,1.58,3.58,1.58,5.53l.96,80.52c0,2.26-.45,4.46-1.32,6.49-3.8,9.01-6.2,15.82-7.19,20.44-20.88,101.22-57.92,196.6-111.13,286.12-20.99,35.26-37.19,66.4-48.59,93.41-4.91,11.58-8.6,33.33-11.05,65.26-7.81,102.01-33.07,196.83-80.17,289.19-40,78.33-123.85,204.37-152.45,316.3-6.9,27.02-8.3,46.11-4.21,57.28,1.11,3.04,7.84,18.8,20.17,47.28,13.33,30.96.44,72.71-12.1,111.05-.93,2.85-1.49,5.83-1.67,8.86-1.87,35.49,1.78,73.88,10.96,115.17,2.02,9.13-3.77,18.17-12.95,20.19-1.68.37-3.4.48-5.12.34h-.7c-12.82-1.1-23.56-10.21-26.75-22.72-4.39-17.31-8.19-41.34-11.4-72.1-2.16-21.11-9.3-45.46-21.4-73.07-.47-1.18-1.83-1.76-3.07-1.32l-2.28.88c-.85.28-1.37,1.17-1.23,2.1l6.32,33.77c.17,1.06-.12,2.17-.79,3.07l-38.24,49.03c-2.06,2.55-2.83,5.91-2.11,9.12,2.28,10.12,1.78,20.32-1.49,30.61-1.1,3.41-1.49,7-1.14,10.53,3.86,39.41,6.34,61.25,7.46,65.52,11.7,44.44,36.58,78.77,74.64,102.98,2.17,1.36,2.87,4.19,1.58,6.4l-.18.26c-1.36,2.42-4.45,3.28-6.93,1.93-18.65-10.29-29.3-17.43-31.93-21.4-11.81-17.95-25.32-36.96-40.52-57.01-1.69-2.28-3.16-4.71-4.39-7.28-13.1-27.95-17.25-58.33-12.46-91.13.2-1.15-.61-2.23-1.8-2.43-.16-.03-.32-.03-.48-.03l-6.67.26c-.53.05-.92.51-.88,1.04,0,0,0,0,0,0l3.33,70.52c.12,2.01.82,3.96,2.02,5.61,21.23,29.59,38.56,61.14,52.01,94.64,2.57,6.49,2.84,11.93.79,16.31-2.45,5.03-8.67,6.89-13.89,4.16-1.54-.81-2.89-1.96-3.91-3.37-12.75-17.54-30.09-42.83-52.01-75.87-18.13-27.31-29.91-64.24-35.35-110.78-.12-.76-.29-1.49-.53-2.19l-11.23-30.52c-2.15-5.89-2.18-12.38-.09-18.33,48.94-135.61,77.28-269.54,99.12-424.45,20.17-142.53,36.31-282.79,71.49-425.06,10.44-42.45,28.51-83.5,52.54-128.24,21.05-39.24,34.73-69.21,41.05-89.91,5.91-19.59,13.16-55.41,21.75-107.45,13.68-83.33,38.48-163.12,74.38-239.37,5.93-12.56,8.73-26.37,8.16-40.26-3.6-87.63.79-178.5,21.93-257.26,27.02-101.05,88.3-162.56,183.85-184.55,40.11-9.18,63.15-14.18,69.12-15,15.85-2.21,31.18-7.07,45.35-14.39,57.6-29.53,112.86-59.41,165.78-89.64,83.15-47.54,124.9-93.94,115.08-187.88-.25-1.58.82-3.06,2.4-3.32,1.17-.19,2.34.36,2.95,1.39,71.66,107.54,203.76,109.73,284.98,13.16,10.64-12.63,16.75-19.59,18.33-20.88,1.02-.82,2.51-.67,3.33.35.36.45.55,1.01.53,1.58-5.09,77.54,5,129.82,79.38,175.16,67.36,41.17,132.04,77.48,194.02,108.94,40.17,20.44,97.01,22.54,139.64,35.79,190.51,59.12,196.65,278.23,190.6,442.43-.46,11.39,1.45,22.75,5.61,33.33,20.17,51.87,34.44,93.15,42.8,123.85,17.98,65.79,25.88,147.27,37.63,204.37,7.1,34.38,17.37,58.33,38.16,93.15,30.35,50.99,52.1,103.21,65.26,156.66,34.03,137.45,40.17,296.12,56.22,422.17,15.09,118.76,35.76,236.42,62.01,352.96,4.74,20.96,14.3,46.58,19.12,65.35.92,3.39.92,6.96,0,10.35l-35.7,130.96c-1.22,4.48-3.08,8.76-5.53,12.72l-52.28,83.68c-3.19,5.08-9.85,6.71-15.09,3.68l-2.98-1.67c-4.07-2.31-5.64-7.37-3.6-11.58,26.61-54.97,41.23-87.74,43.86-98.33,6.37-25.79,7.98-56.69,4.82-92.71-.09-.98-.94-1.72-1.93-1.67l-2.63.09c-.1,0-.18.08-.18.18h0c-3.16,52.86-5.53,82.42-7.1,88.68-3.1,12.22-8.83,21.46-17.19,27.72-24.74,18.6-45,41.05-69.21,61.14-2.43,2.07-6.09,1.78-8.16-.65-.16-.18-.3-.38-.43-.58l-1.75-2.54c-1.39-2.04-1.17-4.78.53-6.58l46.4-50c.58-.64,1.08-1.38,1.49-2.19l30.17-58.33c1.54-2.97,5.19-4.13,8.16-2.59.03.01.06.03.09.05,1.64.94,2.54,1.4,2.72,1.4,1.6.38,3.21-.61,3.59-2.21.25-1.05-.08-2.15-.87-2.88l-4.39-4.3c-1.18-1.13-1.9-2.69-2.02-4.39-1.75-25.79.23-47.51,5.96-65.17,1.06-3.38.51-7.04-1.49-9.91-15.61-22.22-26.43-36.02-32.45-41.4-2.75-2.4-5.03-3.65-6.84-3.77-1.81-.12-2.98-.29-3.51-.53-2.58-.99-3.89-3.84-2.92-6.38.06-.16.13-.31.21-.47l19.56-38.86c.88-1.84.53-4.01-.88-5.44l-2.1-2.11c-1.38-1.36-3.58-1.38-4.92-.04-.25.24-.45.53-.61.83-18.24,33.97-28.62,61.98-31.14,84.03-3.22,28.24-8.33,51.02-15.35,68.33-4.23,10.54-15.05,16.89-26.31,15.44l-.35-.09c-9.51-1.22-16.24-9.92-15.02-19.44.05-.39.11-.79.19-1.18,11.52-58.77,15.38-96.98,11.58-114.64-6.55-30.58-10.2-50.14-10.96-58.68-3.42-40.09,10.35-65.43,29.56-96.75,3.22-5.23,4.97-11.19,5.09-17.28.96-58.07-31.4-133.68-57.45-181.65-33.27-61.4-68.68-130.17-106.22-206.3-34.3-69.47-58.42-156.92-62.19-238.41-2.81-60.17-3.68-89.82-30.79-133.59-55.38-89.23-94.53-187.47-117.45-294.72-5.03-23.51-10.03-46.75-15-69.73-.29-1.22-.47-2.43-.53-3.6l-5.18-82.71c-.11-1.64.32-3.25,1.23-4.56l44.38-65.26c.2-.38.13-.84-.18-1.14l-1.93-1.93c-.95-.92-2.47-.92-3.42,0-9.06,8.36-15.41,15.41-19.03,21.14-25.32,39.59-52.45,80.2-81.4,121.83-.71,1.27-.25,2.87,1.01,3.58.94.52,2.1.43,2.93-.25,17.54-16.9,31.96-36.58,43.24-59.03.6-1.16,2.02-1.62,3.19-1.03.75.39,1.24,1.15,1.29,1.99,3.07,55.17,6.49,84.29.44,129.29-8.25,61.46-23.89,118.73-46.93,171.83-17.07,39.24-27.95,68.68-32.63,88.33-14.27,60.23-23.89,118.03-28.86,173.41-4.56,50.35-1.23,104.99.61,161.04,1.05,34.21-3.25,71.84-7.28,107.36-.35,3.41.01,6.82,1.05,10,90.87,280.07,159.11,574.61,158.76,861.35-.18,129.99-16.78,261.65-49.82,394.97-17.43,70.4-27.6,110.69-30.52,120.87-14.5,50.41-22.78,89.15-24.82,116.22-7.89,103.33,11.4,197.97,35.52,299.37,39.91,167.18,28.86,328.14-.53,496.11-27.6,157.53-43.36,248.4-47.28,272.61-12.92,80.11-19.33,140.96-19.21,182.53.12,29.12,11.11,60.93,32.98,95.43,47.28,74.64,101.31,143.94,166.13,183.5,34.62,21.17,59.65,36.37,75.08,45.61,12.98,7.78,18.22,19.62,15.7,35.52-.17,1.35-1.4,2.3-2.75,2.13-1.01-.13-1.84-.87-2.08-1.86-7.81-25.7-47.19-44.3-72.28-52.1-.75-.19-1.51.27-1.7,1.03-.12.48.03.99.38,1.34,14.56,11.67,36.23,16.75,48.94,30.35,4.68,4.97,11.02,12.19,19.03,21.67,1.13,1.33.94,3.34-.43,4.5-.06.05-.12.1-.19.15-20.99,14.62-33.68,9.94-38.07-14.03-1.11-6.02-4.94-11.18-10.35-13.95l-64.29-33.07c-.29-.18-.67-.09-.84.2-.01.02-.02.04-.03.06l-1.32,2.28c-.44.69-.24,1.62.45,2.06.02.02.05.03.08.05,21.69,14.44,40.99,26.08,57.89,34.91,5.73,3.04,10.85,11.96,15.35,26.75.81,2.74-.27,5.65-2.63,7.11-18.01,10.88-34.3,12.25-48.86,4.12-2.4-1.36-3.92-3.88-4.03-6.67l-1.23-24.82c-.17-3.26-2.19-6.11-5.18-7.28-32.98-13.57-52.07-20-57.28-19.3-2.37.33-4.75-.68-6.23-2.63-3.74-5.2-7.25-7.66-10.53-7.37-2.07.21-3.58,2.07-3.37,4.14.05.52.21,1.02.47,1.48,6.14,10.82,13.39,16.49,21.75,17.02,13.51.88,29.03,5.23,46.58,13.07,3.12,1.39,5.19,4.48,5.35,7.98l.96,19.56c.21,3.83-1.86,7.42-5.26,9.12-38.59,19.12-62.54,7.89-100.17-4.12-18.86-6.05-44.03-11.84-57.37-23.77-26.4-23.77-43.94-54.91-85.52-59.38-54.21-5.79-116.22-.88-103.33-79.47,7.48-45.44,10.06-85.17,7.72-119.2-.52-8.33,0-16.67,1.58-24.82,6.49-33.86,13.24-65.26,12.46-96.66-3.22-118.53-15.32-233.87-36.31-346.03-12.02-64.65-38.07-144.03-52.8-202.62-33.16-131.31-16.58-255.68,3.07-400.5,3.27-24.33,4.74-45.99,4.39-65-.17-9.02-1.65-17.97-4.39-26.58-16.96-53.15-27.98-102.74-33.07-148.76-4.91-44.38-12.4-116.54-22.45-216.48-5.55-55.2-18.71-125.78-39.47-211.74-28.16-116.83-48.59-211.13-57.36-303.58-9.71-102.04-15.82-157.88-18.33-167.53-.61-2.19.75-4.48,3.04-5.11.1-.03.19-.05.29-.07l33.68-6.32c.72-.1,1.22-.77,1.12-1.49-.01-.09-.04-.18-.07-.27l-.88-2.37c-.57-1.37-2.03-2.11-3.42-1.75-33.1,7.84-66.08,6.72-98.94-3.33-1.15-.39-2.39.26-2.78,1.46-.09.26-.12.54-.11.82l.09,2.89c.06.69.56,1.25,1.23,1.4l28.51,7.98c3,.8,4.97,3.67,4.65,6.75-8.3,80.46-16.26,150.63-23.86,210.51-5.67,44.44-17.86,108.82-36.58,193.15-21.52,96.54-33.86,160.9-37.02,193.06-11.05,111.98-20.35,208.44-27.89,289.37-6.02,64.91-20.12,126.54-42.28,184.9-1.16,3.07-1.66,6.29-1.49,9.47,1.64,26.31,8.83,90.2,21.58,191.65,14.12,112.36,2.46,222.71-31.66,331.73-41.66,133.41-65.26,268.05-77.54,420.41-5.35,65.43,0,110.08,12.89,166.48,1.45,6.51,1.9,13.23,1.32,19.91l-3.6,40.96c-.12,1.46-.06,2.9.18,4.3,9.53,53.97,13.48,89.88,11.84,107.71-4.21,46.05-72.89,43.59-108.5,43.77-29.03.09-51.4,25.61-66.57,44.03-6.47,7.98-14.58,14.44-23.77,18.95-47.98,23.51-103.59,47.1-150.34,24.65-8.48-4.06-11.37-15.28-6.45-25.06.38-.76.81-1.5,1.28-2.22,6.4-10.09,21.4-14.74,34.38-15.26,18.42-.7,34.41-9.79,47.98-27.28,1.03-1.29.82-3.16-.46-4.19-.94-.76-2.25-.87-3.31-.28-6.9,3.57-13.1,9.36-18.6,17.37-1.75,2.54-4.34,4.35-7.28,5.09-6.49,1.58-13.19.12-20.09-4.39-2.29-1.48-5.24-1.45-7.46.09l-26.05,17.54c-3.5,2.36-6.32,5.63-8.16,9.47-1.46,3.1-2.98,8.6-4.56,16.49-3.86,19.56-33.24,13.6-46.05,8.16-5.82-2.54-8.66-8.93-6.36-14.26.07-.16.14-.32.22-.47,5.61-11.23,14.59-19.06,26.93-23.51,14.39-5.15,29.38-13.6,45-25.35,1.37-1,1.68-2.94.7-4.39l-1.58-2.37c-.73-1.03-2.15-1.27-3.18-.55-.09.06-.17.13-.24.2-13.8,13.16-28.39,21.2-43.77,24.12-19.82,3.77-28.68,21.49-36.75,35.7-1.35,2.44-3.94,3.96-6.75,3.95-8.42-.12-15.7-3.89-21.84-11.31ZM809.74,987.22c15.85,7.48,36.78,13.33,62.8,17.54,72.33,11.64,130.58,18.01,174.73,19.12,33.51.88,50.26,8.68,71.31,30.17.91,1.04,2.46,1.11,3.47.16.91-.86,1.08-2.27.39-3.32-17.1-26.66-38.86-33.95-72.45-35.52-56.31-2.63-123.41-10.06-201.3-22.28-14.15-2.22-26.78-5.2-37.89-8.95-.74-.28-1.59.1-1.93.88-.33.88.06,1.84.88,2.19ZM1529.87,985.03s0-.11-.04-.13c-.05-.02-.11,0-.13.04h0c-41.87,6.2-78.04,11.69-108.5,16.49-51.69,8.13-103.88,13.01-156.57,14.65-23.57.82-44.53,13.27-62.89,37.37-1.24,1.62-.96,3.91.62,5.11.03.02.06.04.08.06l.18.18c1.72,1.22,4.09.92,5.44-.7,16.67-20.7,34.15-31.46,52.45-32.28,91.75-4.03,181.68-15.76,269.81-35.17,1.13-.27,1.85-1.37,1.6-2.46-.06-.29-.19-.55-.37-.78l-1.67-2.37ZM2173.89,3008.36c1.41-1.79,1.1-4.38-.69-5.79l-.41-.33c-1.79-1.41-4.38-1.1-5.79.69h0s-26.14,33.22-26.14,33.22c-1.41,1.79-1.1,4.38.69,5.79h0l.41.33c1.79,1.41,4.38,1.1,5.79-.69h0s26.14-33.22,26.14-33.22Z"/><path class="cls-2" d="M1597.67,952.49c-59.65-26.08-125.2-62.01-196.65-107.8-36.37-23.33-56.46-53.94-60.26-91.84,17.07,41.05,35.99,67.74,56.75,80.08,66.08,39.41,132.8,79.26,200.16,119.55Z"/><path class="cls-1" d="M809.74,987.22c-.82-.35-1.2-1.32-.88-2.19.34-.77,1.19-1.16,1.93-.88,11.11,3.74,23.74,6.72,37.89,8.95,77.89,12.22,144.99,19.65,201.3,22.28,33.59,1.58,55.35,8.86,72.45,35.52.76,1.16.47,2.74-.66,3.54-1.02.72-2.38.56-3.2-.38-21.05-21.49-37.8-29.3-71.31-30.17-44.15-1.11-102.39-7.48-174.73-19.12-26.02-4.21-46.96-10.06-62.8-17.54Z"/><path class="cls-1" d="M1529.87,985.03l1.67,2.37c.7.87.51,2.15-.41,2.86-.24.18-.52.32-.82.39-88.12,19.41-178.06,31.14-269.81,35.17-18.3.82-35.79,11.58-52.45,32.28-1.35,1.62-3.72,1.92-5.44.7l-.18-.18c-1.61-1.16-1.95-3.44-.76-5.09.02-.03.04-.06.06-.09,18.36-24.09,39.32-36.55,62.89-37.37,52.69-1.64,104.88-6.52,156.57-14.65,30.47-4.8,66.63-10.29,108.5-16.49.02-.05.08-.07.13-.04.05.02.07.08.04.13h0Z"/><path class="cls-2" d="M1732.92,1730.24c26.37,70.29,59.27,136.86,98.68,199.72,3.16,5.09,6.75,18.16,10.79,39.21,2.05,10.88,3.24,24.33,3.6,40.35,2.22,100.11,28.39,199.64,78.5,298.58,45.96,90.87,84.38,153.41,120.08,237.18,12.51,29.41,21.46,59.53,26.84,90.34l-2.28,2.28c-1.6,1.6-4.24.97-5.9-1.4-.62-.88-1.04-1.92-1.2-2.98-9.65-60.17-39.03-122.62-70.78-179.9-43.21-77.89-75.46-141.19-96.75-189.9-21.34-48.83-35.58-93.59-42.72-134.29-3.92-22.45-7.25-39.32-10-50.61-8.25-33.86-6.93-73.5-9.3-108.06-.18-2.97-.71-5.92-1.58-8.77-5.44-17.78-8.83-27.89-10.18-30.35-26.66-49.41-49.18-91.34-67.54-125.78-13.22-24.79-19.97-50-20.26-75.61Z"/><path class="cls-2" d="M632.91,3552.05c18.95,59.12,36.34,118.33,52.19,177.62,6.96,26.02,12.1,52.48,15.44,79.38l-1.75,11.84c-.25,1.33-1.53,2.21-2.86,1.97-.47-.09-.91-.31-1.26-.65l-2.54-2.54c-.4-.4-.65-.93-.7-1.49-1.81-26.08-3.6-42.01-5.35-47.8-22.34-72.1-40.06-144.87-53.15-218.32Z"/><path class="cls-2" d="M1334.35,4508.22c42.22,115.02,67.89,235.13,77.01,360.33-2.51-1.11-4.8-2.75-6.84-4.91-1.88-2-3.05-4.52-3.33-7.19-13.22-116.66-35.5-232.73-66.84-348.22Z"/></svg>