<?xml version="1.0" encoding="UTF-8"?><svg id="_Слой_1" xmlns="http://www.w3.org/2000/svg" viewBox="0 0 2200 5500"><defs><style>.cls-1{opacity:.25;}.cls-1,.cls-2,.cls-3,.cls-4,.cls-5{fill:#d3ddeb;}.cls-2{opacity:.24;}.cls-3,.cls-6{opacity:.5;}.cls-4{opacity:.49;}.cls-7{fill:none;stroke:#000;stroke-linecap:round;stroke-linejoin:round;stroke-width:10px;}.cls-8{opacity:.75;}.cls-9{opacity:.26;}</style></defs><path class="cls-4" d="M1265.19,890.68c-38.46-48.37-30.35-108.85-32.56-166.22-.27-7.16-.7-14.27-1.41-21.3l-4.98-2.41c-82.07,99.67-170.12,137.58-293.5,208.48-16.52,8.76-42.75,23.98-72.34,39.22,54.17,53.6,140.96,88.34,238.8,88.34s189.24-36.61,243.05-92.66c-25.07-13.72-50.81-31.05-77.06-53.45Z"/><path class="cls-2" d="M1099.74,1036.14c-97.62,0-184.23-34.59-238.43-87.98-50.37,25.98-110.59,52.13-149.27,46.52l-1.03-.15c-3.51,1.85-7.48,3.71-11.92,5.41-6.98,2.68-13.44,4.35-19.02,5.41.04,6.82.58,119.86-2.29,173.44-.44,8.23-1.08,19.86-2.8,35.31-2.31,20.73-3.58,21.64-7.97,52.33-1.67,11.71-5.23,37.79-7.11,53.83-.3,2.6-1.1,9.56-2.58,18.95-1.17,7.41-1.62,9.07-1.94,11.41-1.25,9.19,1.53,14.34,7.94,33.73,3.35,10.13,6.87,20.88,9.93,34.32.46,2.03,1.95,8.65,3.45,17.87,4.13,25.42,4.2,44.9,5.17,62.45.72,13.09,2.32,32.07,6.33,55.4l.79-.12c3.05,20.05,7.15,39.9,13.32,59.35,2.76,11.25,5.68,22.47,8.69,33.69,121.93,7.79,251.33,12.41,387.48,12.53,140.25.13,273.37-4.54,398.58-12.53,3.58-13.67,7.51-27.47,10.57-41.67,2.69-12.48,3.05-26.31,9.06-38.2.92-4.73,2.31-12.16,3.79-21.28,8.04-49.4,4.23-59.1,10.83-100.71,5.31-33.48,7.96-50.22,12.37-62.24.94-2.57,4.27-11.28,5.22-23.2.13-1.66.56-7.72-.19-15.85-.97-10.42-2.9-13.72-5.03-25.9-.93-5.32-1.11-7.86-2.13-17.4-.87-8.17.21,2.6-4.67-39.41-2.8-24.09-4.2-36.14-5.52-48.11-4.23-38.33-6.44-58.57-8.22-86.08-.47-7.29-1.23-19.21-1.75-34.4-.86-25.06-.91-54.41.87-87.33-26.74-5.51-56.5-13.16-88.33-23.88-34.71-11.69-65.3-24.82-91.57-37.73-53.86,55.8-142.44,92.22-242.61,92.22Z"/><path class="cls-3" d="M1447.73,1832.78h.02c15.48-62.11,33.46-123.56,49.68-185.55-123,8.26-254.15,13.18-392.61,13.19-138.78.01-270.21-4.91-393.45-13.19,8.85,30.55,17.31,61.51,26.3,92.63,8.92,30.87,17.67,61.79,25.32,92.91h-.01c12.8,52.09,22.49,104.73,24.61,158.67-6.84,87.48-66.07,158.68-91.69,240.99-3.63,9.64-7.13,19.31-10.51,29.01,97.53,40.29,250.72,88.38,430.75,83.03,160.3-4.76,306.36-50.84,360.92-68.41,19-6.12,34.68-11.6,45.55-15.5-30.53-110.11-121.03-204.11-97.42-324.64,6.28-34.72,14.03-69.03,22.53-103.15Z"/><g class="cls-6"><path class="cls-5" d="M1079.19,5178.58c3.87-25.62,7.45-51.73,1.01-78.19-6.49-20.71-11.88-41.62-15.94-62.73-10.88,6.35-38.73,20.61-76.14,18.32-28.12-1.72-48.99-12.01-59.73-18.32,5.01,32.58,3.09,57.95.84,75.77-3.19,25.32-4.85,50.32,1.18,74.9.62,2.51,1.47,4.96,2.46,7.38l-2.1.88c-31.72,25.46-37.44,78.11-82.19,86.74-10.09,1.82-19.8,7.38-19.66,20.76.14,12.83-.76,24.86,17.89,26.8,6.69.69,11.21,10.81,19.47,14.27,18.44,7.72,38.2,8.12,57.16,12.68l3.84-.22c44.57,50.47,171.68,44.83,162.03-38.85-4.65-46.84-18.57-92.58-10.12-140.19Z"/><path class="cls-5" d="M1359.86,5283.56c-44.27-9.08-52.38-59.2-81.34-86.97l-4.15-.53c1.95-3.34,3.67-6.83,4.51-10.8,5.95-28.07,2.06-55.54-2.04-83.14-.35-21.61.25-43.09,1.63-64.46-9.84,6.05-34.71,19.54-69.05,19.09-32.39-.42-55.82-13.01-65.7-19.09-3.56,26.56-31.4,71.54-17.42,124.52,15.67,59.4-9.97,115.59-7.27,174.48,7.16,66.79,119.19,66.56,160.55,21.09l5.46.09c16.28-3.26,32.48-7.13,48.89-9.56,11.53-1.71,16.66-13.51,26.17-15.97,26.78-5.25,25.11-46.94-.24-48.75Z"/></g><g class="cls-8"><path class="cls-5" d="M1069.49,2841.28c-1.21,1.09-2.49,2.22-3.78,3.34-25.33,22.04-63.85,39.04-63.85,39.04-24.16,8.79-60.6,18.89-105.77,19.98-39.59.95-72.47-5.34-95.63-11.67-14.08-2.89-119.74-26.3-209.82-105.29,2.95,159.56,37.77,316.57,78.51,473.3,16.61,63.91,65.11,204.76,102.11,407.4,5.26,28.82,9.2,52.67,11.76,68.64,33.83,12.34,88.83,27.66,157.69,26.27,59.95-1.22,108.26-14.66,140.06-26.27-.87-16.27-2.22-41.62-3.84-72.76-3.21-62.08-4.19-84.77-4.65-93.96-2.74-54.11-4.5-108.14-2.69-161.92-1.27-187.59,52.5-382.24-.1-566.12Z"/><path class="cls-5" d="M1416.15,2888.71c-154.59,31.17-268.05-40.92-272.5-44.87-1.03-.92-2.05-1.86-3.07-2.8-11.59,15.3-11.3,34.34-13.72,51.69-22.58,144.72,3.94,289.97,10.89,434.82,0,0,2.99,102.77-6.4,340.35-.05,1.17-.6,15.32-.85,21.54-.27,6.89-1.56,39.8-1.83,46.6,36.36,11.49,90.94,24.12,157.81,22.84,57.74-1.1,105.37-12.2,139.03-22.84,1.54-11.11,3.6-24.78,6.29-40.39,0,0,1.97-11.41,4.15-22.78,37.73-196.57,105.07-412.61,105.07-412.61,31.51-101.07,66.44-253.77,78.14-475.87-45.07,40.33-113.01,86.17-203.03,104.32Z"/></g><path class="cls-5" d="M1080.77,3736.03c-31.8,11.61-80.12,25.05-140.06,26.27-68.86,1.4-123.86-13.93-157.69-26.27,17.97,77.28,19.38,139.58,20.14,180.7,2.38,127.88-39.36,254.7-26.09,382.83,6.85,254.07,137.07,491.25,152.13,743.32,13.81,5.8,38.18,13.95,69.45,13.68,29.66-.26,52.85-7.99,66.42-13.68-4.21-18.36-5.41-33.51-6.46-44.02-1.47-14.78-2.23-29.66-2.19-44.65-.62-10.09-6.61-19.05-5.1-29.3,11.05-75.14,3.9-151.01,9.16-226.45,4.51-82.12,13.77-164,19.26-245.96,10.89-127.45-22.81-252.96-31.7-379.47l1.63-3.25c32.86-109.67,35.47-221.47,31.1-333.75Z"/><path class="cls-5" d="M1406.81,3945.99c.44-70.75,7.46-140.63,18.71-209.95-34.47,10.87-85.06,22.67-146.94,22.85-63.33.19-115.02-11.85-149.91-22.85-3.22,47.97-2.67,104.75,2.36,168.35,4.4,55.71,13.31,110.94,29.4,165.4l1.62,3.25c-9.85,109.5-36.37,216.87-35.65,327.39,14.16,165.72,21.78,332.62,29.54,498.35,5.03,26.04-6.02,50.76-4.17,76.67,2.57,22.72-1.5,45.15-7.24,67.44,13.06,5.78,36.85,14.3,67.67,14.24,30.5-.05,54.06-8.48,67.08-14.24,1.84-22.13,5.38-58.46,12.37-102.87,28.09-178.38,74.87-252.4,111.88-429.56,14.48-69.3,23-110.11,26.1-170.23,7.46-144.57-23.78-241.58-22.83-394.23Z"/><g class="cls-8"><path class="cls-5" d="M486.4,1424.96c-4.27,88.22-45.57,169.47-55.61,257.28-8.61,50.04-14.81,100.64-27.73,149.8-4.07,10.21-8.62,20.71-13.72,31.44-1.75,3.68-3.51,7.29-5.29,10.83,12.92,11.04,37.76,29.3,73.96,39.04,42.75,11.5,78.57,4.99,95.53.75,21.9-57.16,43.41-114.47,64.54-171.93,21.05-57.25,41.72-114.64,62-172.17,1.22-3.41,3.15-9.26,4.69-16.69,4.48-21.55,1.8-37.46-3.36-77.8-4.18-32.73-3-26.81-4.32-35.06-6.19-38.77-21.11-52.16-21.13-84.53,0-5.77.42-9.26,2.27-23.14,7.19-53.93,10.78-80.9,13.81-98.45,5.23-30.32,9.97-91.95,8.05-229-17.02,1.19-43.29,5.33-69.55,20.72-135.3,79.29-117.38,262.91-124.12,398.89Z"/><path class="cls-5" d="M1807.62,1841.95h-3.26l3.26-2.45c-27.13-92.72-30.29-190.38-59.79-282.74-23.9-65.04-31.28-133.01-28.83-201.85-7.8-290.58-84.08-323.05-196.74-349.38-3.25,70.83.38,126.41,4.61,165.34,10.8,99.38,16.21,149.06,19.21,159.18.76,2.55,3.58,11.54,2.74,23.33-.85,11.96-4.99,20.07-7.55,26.2-4.5,10.79-4.25,15.33-8.06,48.93-5.88,51.78-9.25,52.57-10.96,84.21-1,18.48-.76,35,0,49.07h1.94c19.05,57.26,39.8,116.14,62.45,176.42,20.9,55.64,42.22,109.32,63.75,160.99,6.52,3.23,45.97,21.95,91.93,4.71,44.74-16.78,62.3-55.11,65.3-61.96Z"/></g><g class="cls-6"><path class="cls-5" d="M316.97,2019.49c-38.95,96.25-64.93,305.88-66.74,320.42-8.98,72.09-25.74,177.16-59.91,306.13,6.72,4.96,24.27,16.5,49.58,17.89,28.73,1.58,49.4-10.92,56.1-15.37,1.06-6.07,2.69-14.81,5.05-25.24,10.49-46.32,24.9-79.99,31.5-95.14,25.46-58.45,38.2-87.68,60.73-128.4,28.57-51.64,68.83-132.83,119-261.42,24.49-68.83,24.75-142.39,39.5-213.28,1.16-3.86,2.34-7.72,3.55-11.57-16.68,4.41-52.55,11.47-95.49.17-35.96-9.47-60.65-27.53-73.43-38.41-8.2,14.59-19.21,34.85-31.37,59.46,0,0-20.74,41.99-38.06,84.78Z"/><path class="cls-5" d="M2009.59,2599.59c0-.82-.07-1.75-.21-2.77-.16-1.11-.4-2.1-.65-2.94-23.84-95.11-38.05-174.04-46.71-229.52-6.58-42.17-32.99-195.77-52.14-289.49-10.96-53.64-34.16-102.27-46.85-126.59-1.8-3.46-3.63-6.71-8.67-16.13-20.89-39-36.88-70.52-47.35-91.53-4.24,10.22-17.49,38.29-48.73,56-50.08,28.39-102.29,5.17-107.88,2.57,11.15,45.02,16.62,81.85,19.55,107.31,3.12,27.07,2.93,37.38,6.93,61.68,5.57,33.8,13.99,62.65,23.96,90.8,22.09,62.37,51.75,121.16,85.76,186.65,0,0,57.22,108.69,91.04,183.09,0,0,19.11,42.05,21.4,64.21.69,6.66,1.86,12.41,4.2,23.91.27,1.3.9,4.34,2.3,8.14.8,2.18,1.59,3.91,2.13,5.02,4.7,2.39,29.41,14.32,59.01,4.63,27.16-8.89,39.99-29.95,42.92-35.07Z"/></g><g class="cls-9"><path class="cls-5" d="M301.71,2695.4c-1.73-5.04-3.36-10.94-4.51-17.61-1.96-11.4-1.88-21.42-1.2-29.23-7.2,4.65-25.22,14.92-50.32,15.1-28.55.2-48.59-12.78-55.36-17.61-1.52,6.83-3.58,15.86-6.16,26.45-1.28,5.24-2.88,11.69-5.29,21.01-1.59,6.13-6.98,26.98-12.94,47.94-9.72,34.2-20.08,65.73-25.83,82.82-10.38,22.63-20.19,46.88-9.71,71.66,10.49,26.28,16.65,53.66,21.05,81.47,3.35,21.14,17.16,36.47,29.75,51.81,13.86,16.89,26.28,34.32,35.39,54.09,2.5,5.41,7,8.25,10.89,10.95,18.67-4.13,10.09-21.99,16.89-32.17l.84-3.07c10.57,7.67,22.49,15.88,35.99,24.94,21.14-21.02-.69-39.54-15.71-54.39-6.26-6.23-12.18-12.84-18.32-19.2l2.08-2.03c14.8-2.28,25.41,7.45,37.05,13.7,24.5-16.27-14.79-38.52-27-48.24-47.71-32.41-44.22-67.25-34.52-118.57.29-2.99.73-5.96,1.31-8.88l3.62.74c5.21-1.06,9.95-2.88,14.4-5.2l1.89.31c9.28,11.2,3.4,23.69,3.48,35.84.15,21.87-4.81,45.08,12.81,63.52,35.07,32.88,37.22-43.98,33.75-65.1-9.68-62.38,38.29-120.6,5.68-181.04Z"/><path class="cls-5" d="M2075.12,2843.83c-12.52-29.86-22.74-60.48-31.03-91.6-5.71-21.43-10.83-46.42-10.83-46.42-1.64-9.29-3.45-18.73-5.44-28.32-5.63-27.09-12.17-52.65-19.25-76.61-3.47,5.68-15.49,23.72-39.52,32.54-27.87,10.23-51.95.73-57.34-1.55.02,10.93-.21,24.59-1.16,37.63-.2,2.79-.5,6.23-1.26,10.66-1.89,10.99-5.04,18.67-5.7,20.06-28.2,59.46,17.11,114.41,7.6,174.63-4.18,20.06.18,97.7,33.67,68.33,24.8-27.46,6.87-67.92,14.66-101l.95-1.51c5.68,3.53,11.74,6.44,18.59,8.03l3.22-.52c.58,3.46,1.02,6.93,1.42,10.32,2.59,21.59,8.66,42.05,3.08,65.41-5.04,45.69-90.4,66.15-69.48,95.67,4.99,4.71,8.62-.04,13.05-2.87,9.26-2.67,17.57-5.58,25.06-8.75l.85,1.99c10.32,11.92-65.23,44.05-28.82,73.82,11.77-8.29,22.48-15.79,32.26-22.86l4.7,1.16c5.45,4.63-4.34,24.03,11.55,30.54,11.22,4.02,13.8-6.95,17.76-14.25,11.41-21.06,25.31-40.27,40.38-58.92,8.11-10.02,17.48-19.55,20.24-33.85,5.85-30.24,11.1-60.68,22.25-89.74,6.56-17.1,5.06-34.92-1.45-52.02Z"/></g><path class="cls-7" d="M1199.23,2212.46c-26.01,24.3-46.57,52.59-61.9,84.7"/><path class="cls-7" d="M1007.02,2218.98c20.04,23.45,40.15,46.83,53.95,74.83,1.17,2.38,1.1,4.39,1.43,6.61"/><ellipse class="cls-5" cx="673.87" cy="1303.09" rx="134.35" ry="143.51"/><ellipse class="cls-5" cx="1511.58" cy="1298.95" rx="134.35" ry="143.51"/><path class="cls-5" d="M1103.47,2609.6c-27.38,0-49.79,22.41-49.79,49.79,0,36.95-.01,73.9-.02,110.85,8.47,17.96,16.7,35.95,24.67,53.94l.96,1.53c14.31-12.66,33.98-12.55,49.3-.94l1.87-.59c7.31-17.45,14.92-34.85,22.79-52.18v-112.61c0-27.38-22.41-49.79-49.79-49.79Z"/><path class="cls-7" d="M646.44,1336.51c33.83,68.67,30.84,145.24,42.11,219.17,3.05,20.04,7.15,39.89,13.32,59.34,30.7,125.26,79.79,247.84,84.92,377.9-6.85,87.49-66.07,158.68-91.69,240.99-3.69,9.8-7.25,19.64-10.68,29.51-29.91,85.85-50.61,174.33-67.69,263.68-113.64,475.41,163.06,918.61,185.53,1386.27,2.37,127.88-39.36,254.69-26.09,382.82,7.53,279.38,164.23,538.31,152.97,819.09-3.2,25.33-4.85,50.33,1.18,74.91.62,2.51,1.47,4.96,2.46,7.38,4.25,10.34,10.95,20.07,11.74,31.82"/><path class="cls-7" d="M1521.12,1561.29c-10.85,13.28-10.66,30.51-13.94,45.76-26.97,110.43-62.51,218.31-82.78,330.37-23.64,120.6,66.99,214.64,97.47,324.82.03.09.06.17.08.26,44.31,133.58,76.4,273.03,91.29,412.96,42.87,436.48-204.65,835.69-207.33,1267.15,7.08,131.24,36.54,262.28,22.83,394.24-21.72,260.22-156.3,504.26-151.99,767.13,4.1,27.6,7.98,55.07,2.03,83.14-2.45,11.56-12.3,18.95-13.85,30.81-.5,3.77-.3,7.71-1.16,11.46"/><path class="cls-7" d="M1236.08,725.7c9.52-.34,12.7-8.29,16.11-14.75,11.25-21.37,24.92-43.63,26.55-66.78.29-4.2.84-8.29,1.58-12.3,4.41-24.2,15.73-45.51,21.21-68.98,6.32-27.06,14.62-53.7,24.1-79.9,4.29-11.85,8.38-23.37,16.76-33.53.27-.33.54-.65.82-.98,26.28-54.06,14.95-122.09-4.47-177.24-38.81-123.16-164.55-156.53-279.81-150.87-301.97,63.08-230.41,441.92-274.11,667.21-10.24,73.86-40.91,140.71-73.51,206.78-.19.58-.44,1.1-.74,1.58-2.14,3.32-7,4.4-11.93,5.41-29.83,6.07-60.72,9.38-87.94,24.21-135.3,79.3-117.38,262.92-124.13,398.9-4.26,88.22-45.56,169.47-55.6,257.28-8.62,50.03-14.81,100.64-27.73,149.79-25.87,63.43-63.83,122.69-87.41,187.47-71.37,264.65-86.87,544.16-175.96,804.62-10.38,22.62-20.19,46.88-9.71,71.65,10.48,26.28,16.64,53.67,21.05,81.47,3.34,21.15,17.15,36.47,29.75,51.82,13.86,16.88,26.28,34.32,35.39,54.08,2.49,5.41,6.99,8.26,10.89,10.95,18.67-4.12,10.09-21.99,16.89-32.16"/><path class="cls-7" d="M1524.38,1561.29c36.97,151.81,130.05,287.83,144.42,444.73-.64,214.21,291.25,558.87,234.55,693.55-28.2,59.47,17.11,114.41,7.6,174.63-4.18,20.06.18,97.71,33.67,68.33,24.79-27.46,6.87-67.92,14.65-100.99"/><path class="cls-7" d="M1047.13,4069.67c8.9,126.5,42.6,252.02,31.71,379.47-5.49,81.96-14.75,163.83-19.27,245.96-5.25,75.43,1.9,151.31-9.16,226.45-1.5,10.24,4.48,19.2,5.1,29.3-.12,51.71,9.13,102.1,24.59,151.4,6.45,26.45,2.87,52.57-1.01,78.18-8.44,47.62,5.48,93.36,10.13,140.19,9.65,83.68-117.44,89.32-162.03,38.86-4.27-4.84-7.8-10.21-10.36-16.07"/><path class="cls-7" d="M1231.19,704.53c.71,7.03,1.14,14.14,1.41,21.3,2.21,57.36-5.91,117.85,32.56,166.21,241.7,206.33,441.15-17.28,454.02,462.36-2.46,68.84,4.93,136.82,28.83,201.86,29.5,92.36,32.66,190.02,59.78,282.74"/><path class="cls-7" d="M1807.79,1841.44s0,.01.01.01c37.99,75.36,79.26,150.48,100.94,232.92,39.23,192.02,61.55,387.71,114.76,576.8,9.57,65.76,25.59,130.48,51.38,192.01,6.52,17.1,8.02,34.92,1.45,52.03-11.15,29.06-16.39,59.49-22.24,89.73-2.77,14.3-12.13,23.83-20.24,33.86-15.07,18.64-28.97,37.86-40.38,58.91-3.96,7.31-6.54,18.28-17.76,14.26-15.89-6.51-6.1-25.91-11.55-30.54"/><path class="cls-7" d="M1139.98,2841.54c-11.99,15.38-11.66,34.65-14.1,52.2-22.58,144.71,3.94,289.96,10.89,434.81,19.68,245.61-47.79,499.02,22.75,737.86"/><path class="cls-7" d="M1068.31,2841.54c52.96,184.08-.96,379.01.31,566.85-7.4,219.26,44.65,442.76-19.86,658.02"/><path class="cls-7" d="M683.91,1556.4c-34.2,126.47-95.73,243.03-133.28,368.18-14.75,70.89-15,144.44-39.49,213.27-33.14,141.25-252.84,446.78-209.66,556.91,32.61,60.44-15.36,118.66-5.68,181.04,3.47,21.12,1.32,97.97-33.75,65.09-17.62-18.43-12.66-41.64-12.81-63.52-.09-12.14,5.79-24.63-3.49-35.83"/><path class="cls-7" d="M1105.77,1160.6c-13.11,301.57,8.1,604.07-3.26,905.62"/><path class="cls-7" d="M1161.15,4069.67c-9.85,109.5-36.37,216.86-35.66,327.38,14.16,165.73,21.79,332.63,29.55,498.35,5.02,26.05-6.02,50.77-4.17,76.67,7.37,65.15-39.8,127.84-24.66,191.97,15.67,59.39-9.97,115.59-7.27,174.47,7.15,66.79,119.18,66.57,160.55,21.1,5.24-5.77,9.35-12.27,11.97-19.46"/><path class="cls-7" d="M1519.49,2263.31c-173.21,148.94-301.54,352.51-389.29,561.94"/><path class="cls-7" d="M688.8,2264.94c174.69,146.41,297.66,353.75,389.28,560.31"/><path class="cls-7" d="M1276.8,631.23c-16.78,26.86-33.56,50.21-50.59,70.89-82.08,99.66-170.12,137.57-293.5,208.47-44.58,23.63-159.87,94.37-221.11,85.49"/><path class="cls-7" d="M1142.75,2839.02c73.86,65.57,181.45,80.68,272.5,44.87"/><path class="cls-7" d="M799.55,2887.15c89.22,32.38,193.09,14.09,265.26-47.35,4.11-3.51,8.11-7.15,12.01-10.93.72-.74,1.46-1.44,2.21-2.1,14.32-12.66,34-12.55,49.31-.93,1.73,1.33,3.41,2.79,5.02,4.4,3.06,3.02,6.19,5.95,9.38,8.78"/><path class="cls-7" d="M1565.1,1329.99c-37.62,67.49-34.9,145.41-43.97,219.89-.34,3.49.2,6.69,3.25,8.96"/><path class="cls-7" d="M1939.73,2665.63c-24.79,58.18,8.05,110.42,35.31,159.92,3.71,6.48,5.69,14.19,6.99,21.99.58,3.46,1.02,6.93,1.43,10.32,2.59,21.58,8.66,42.05,3.08,65.41-5.04,45.69-90.4,66.14-69.49,95.67,5,4.7,8.63-.04,13.06-2.88,89.11-25.65,90.84-74.44,113.86-151.72"/><path class="cls-7" d="M268.56,2668.88c22.55,52.1-5,100.78-30.45,145.27-5.74,9.53-10.04,20.23-12.26,31.54-.58,2.92-1.02,5.89-1.31,8.88-9.7,51.31-13.2,86.15,34.52,118.56,12.21,9.72,51.5,31.98,26.99,48.25-11.63-6.26-22.25-15.98-37.04-13.7"/><path class="cls-7" d="M143.14,2867.6c20.07,109.73,27.85,137.07,101.83,190.76,10.57,7.67,22.49,15.88,35.99,24.94,21.14-21.02-.69-39.54-15.71-54.4-6.26-6.23-12.18-12.83-18.32-19.19-7.75-8.02-15.88-15.65-25.58-21.62-44.08-26.77-43.4-79.83-57.04-123.75"/><path class="cls-7" d="M2063.52,2867.6c5.57,11.45-4.04,20.45-5.49,30.86-14.26,91.5-38.84,118.6-98.57,161.81-9.77,7.07-20.49,14.57-32.26,22.86-36.42-29.77,39.14-61.91,28.82-73.82"/><path class="cls-7" d="M1278.43,5198.44c28.95,27.78,37.06,77.9,81.34,86.98,25.35,1.81,27.02,43.5.23,48.74-9.51,2.47-14.63,14.26-26.16,15.97-16.41,2.44-32.6,6.31-48.89,9.57"/><path class="cls-7" d="M930.67,5198.44c-31.71,25.47-37.43,78.12-82.18,86.74-10.1,1.82-19.8,7.39-19.66,20.77.13,12.83-.76,24.85,17.88,26.79,6.7.7,11.22,10.81,19.48,14.27,18.44,7.72,38.2,8.13,57.15,12.69"/><path class="cls-7" d="M1345.21,450.43c11.49,12.16,5.9,26.11,3.01,39.04-6.15,24.71-19.36,106.26-53.5,101.04"/><path class="cls-7" d="M1929.96,2818.74c10.59,6.26,19.81,14.81,30.27,21.29,5.68,3.52,11.74,6.43,18.59,8.02"/><path class="cls-7" d="M275.07,2818.74c-10.39,7.51-19.84,16.58-31.2,22.49-4.45,2.31-9.19,4.14-14.4,5.2"/><path class="cls-7" d="M403.75,1841.44c6.21,9.11-2.9,17.26-1.63,26.06"/><path class="cls-7" d="M1804.54,1841.44h0c-4.79,9.03.02,17.44,1.62,26.06"/><path class="cls-1" d="M1613.49,2673.63c-14.89-139.92-46.98-279.39-91.29-412.96l-2.45.81c-.17.15-.34.29-.5.44.17-.15.33-.29.5-.44l2.45-.81c-.02-.08-.05-.17-.08-.25-.02-.06-.04-.13-.05-.19-34.5,12.42-82.78,28.33-141.52,42.96-70.77,17.63-162.37,39.86-284.09,40.7-99.37.69-179.06-13.15-226.7-23.56-74.71-16.32-137.01-38.7-184.9-59.23-.03.08-.06.16-.09.24-.03.08-.06.16-.09.24l4.38,1.52c2.52,2.11,5.02,4.24,7.52,6.37-2.5-2.14-5-4.26-7.52-6.37l-4.38-1.52c-29.9,85.86-50.6,174.34-67.69,263.69-21,87.84-28.66,174.58-27.07,260.58,90.09,78.98,195.75,102.4,209.82,105.29,23.16,6.32,56.05,12.62,95.63,11.67,45.16-1.09,81.61-11.19,105.77-19.98,0,0,38.52-17,63.85-39.04,1.29-1.12,2.57-2.26,3.78-3.34-.07-.25-.14-.5-.21-.74l-3.5-1.74c4.11-3.5,8.12-7.14,12.02-10.92.72-.74,1.46-1.44,2.21-2.1l-.96-1.53c-7.98-18-16.22-36.01-24.69-53.98q0-71.62.02-.13s0,.02.01.03c0-36.95.01-73.9.02-110.85,0-27.38,22.41-49.79,49.79-49.79s49.33,21.96,49.77,48.97v113.56c.13-.3.27-.59.41-.89-8.02,17.63-15.76,35.33-23.19,53.07l-1.87.59c1.74,1.32,3.42,2.79,5.03,4.4,3.06,3.02,6.19,5.95,9.38,8.78l-2.77,2.52c-.13.17-.25.34-.38.51,1.02.94,2.04,1.88,3.07,2.8,4.45,3.95,117.91,76.04,272.5,44.87,90.02-18.15,157.96-63.99,203.03-104.32.2-36.41-1.34-73.04-4.96-109.93ZM1179.52,2715.84c1.22-2.47,2.43-4.95,3.66-7.42v-3.49,3.5c.05-.1.1-.2.16-.3-1.29,2.57-2.55,5.14-3.82,7.72Z"/></svg>