<?xml version="1.0" encoding="UTF-8"?><svg id="_Слой_1" xmlns="http://www.w3.org/2000/svg" viewBox="0 0 2200 5500"><defs><style>.cls-1{fill:#e4c1d6;}.cls-2{fill:#fff;}</style></defs><path class="cls-2" d="M1326.98,493.63c.13-.45.59-.73,1.05-.61l.7.26c5.64,1.74,5.28,19.16-.79,38.94l-2.28,7.28c-6.08,19.76-15.58,34.39-21.23,32.72l-.7-.18c-.46-.16-.69-.66-.53-1.12,0,0,0-.01,0-.02l23.77-77.28Z"/><path class="cls-2" d="M775.7,4352.15c11.17,70,25.23,138.41,42.19,205.25,36.31,143.27,74.09,286.24,113.33,428.92,9.24,33.68,7.63,70.43-4.82,110.26-1.05,1.29-2.37,1.46-3.95.53-3.86-2.4-5.23-5.97-4.12-10.7,3.92-17.37,6.87-34.41,8.86-51.14.64-5.4.4-10.82-.7-16.05-9.47-44.73-13.86-74.03-24.3-108.85-19.12-63.39-58.65-216.42-118.59-459.09-9.82-39.59-12.45-72.63-7.89-99.12Z"/><path class="cls-1" d="M808.5,3882.62c-.41,30.06-5.23,82.45-14.47,157.18-16.31,131.04-20.09,242.97-.7,350.94,32.98,183.15,95.08,391.38,140.43,563.3,7.51,28.39,12.36,50.95,14.55,67.67,4.6,4.23,24.44,21.54,55.07,21.88,31.8.35,52.51-17.83,56.92-21.88-.72-4.21-2.23-10.66-3.04-18.64-15.53-152.97-8.68-326.03,6.49-494.97,8.3-92.8,7.84-174.05-1.4-243.76-7.98-60.96-15.44-121.4-15.96-179.9-.35-37.42,1.14-64,4.47-79.73,18.07-85.61,26.37-153.7,24.91-204.28-.52-17.85-2.05-45.22-4.6-82.06-23.65,12.43-72.25,33.95-137.21,34.43-67.46.5-117.9-21.94-141.66-34.43,7.54,38.14,17.14,95.04,16.2,164.25Z"/><path class="cls-1" d="M1410.19,3718.82c-25.39,12.62-73.95,32.59-137.98,33.55-69.33,1.04-121.79-20.74-147.58-33.55-.49,4.48-1.1,11.74-1.91,20.66-7.72,84.21,4.03,152.01,20.52,238.06,20.53,106.75,9.47,168.32-5.26,301.3-9.82,88.68-4.47,178.85,8.16,295.07,10.06,92.86,14.74,183.09,14.03,270.68-.58,65.04-2.56,122.37-16.33,177.58,5.11,4.5,27.41,23.1,61.11,22.58,31.93-.49,52.92-17.84,58.31-22.58,1.33-10.28,3.67-26.96,7.67-47.39,3.16-16.12,6.91-32.55,11.27-49.31,34.56-132.62,67.48-264.16,98.77-394.62,26.55-110.69,40.11-217.33,40.7-319.89.18-36.31-4.3-91.87-13.42-166.66-15-122.36-22.72-220.42-.35-315.77.75-3.2,1.53-6.44,2.31-9.7Z"/></svg>