<?xml version="1.0" encoding="UTF-8"?><svg id="_Слой_1" xmlns="http://www.w3.org/2000/svg" viewBox="0 0 2200 5500"><defs><style>.cls-1{fill:#d6deea;}.cls-2{fill:#fff;}.cls-3{fill:#c9e0e2;}</style></defs><ellipse class="cls-2" cx="1331.55" cy="476.61" rx="13.51" ry="7.98" transform="translate(694.01 1739.04) rotate(-82.9)"/><path class="cls-2" d="M905.7,575.64c1.15,2.51.06,5.48-2.45,6.63-2.03.93-4.43.41-5.88-1.28-24.38-29.94-34.15-65.81-29.3-107.62.23-2.02,2.01-3.49,4.04-3.33l9.12.7c1.89.12,3.31,1.78,3.18,3.71-.02.32-.09.64-.19.94-1.11,2.87-1.35,6.75-.7,11.67,5.03,39,12.43,68.53,22.19,88.59Z"/><path class="cls-2" d="M1326.98,493.63c.13-.45.59-.73,1.05-.61l.7.26c5.64,1.74,5.28,19.16-.79,38.94l-2.28,7.28c-6.08,19.76-15.58,34.39-21.23,32.72l-.7-.18c-.46-.16-.69-.66-.53-1.12,0,0,0-.01,0-.02l23.77-77.28Z"/><path class="cls-3" d="M1098.67,2174.83c-.71-3.02,1.16-6.04,4.18-6.75,2.1-.49,4.29.25,5.65,1.93.99,1.17,1.58,2.78,1.75,4.82.35,3-1.82,5.67-4.85,5.98-1.91.2-3.8-.61-4.98-2.12-.76-.94-1.34-2.22-1.75-3.86Z"/><path class="cls-2" d="M1945.07,3010.67c17.71-20.16,34.17-34.67,36.75-32.4,2.58,2.27-9.68,20.45-27.39,40.62-17.71,20.16-34.17,34.67-36.75,32.4-2.58-2.27,9.68-20.45,27.39-40.62Z"/><path class="cls-2" d="M1932.21,3009.87l-27.54,38.16c-2.03,2.85-2.49,6.54-1.23,9.82,3.28,8.54,8.71,16.17,16.31,22.89,5.71,5.02,14.32,4.75,19.65-.61l18.77-18.68c.71-.72,1.88-.73,2.61-.02.49.48.67,1.2.46,1.86l-3.16,11.23c-2.46,8.52,2.45,17.42,10.96,19.88,6.2,1.79,12.87-.3,16.93-5.32l29.21-35.52c-.53,21.52-9.97,37.22-28.33,47.1-9.01,4.85-19.88,1.99-32.63-8.6-1.78-1.44-4.09-2.02-6.32-1.58l-17.28,3.25c-.47.12-.91.18-1.32.18-14.91.53-18.86-12.28-25.52-20.26-7.66-9.24-9.74-19.18-6.23-29.82,7.31-22.4,18.86-33.71,34.65-33.95Z"/><path class="cls-2" d="M1118.93,3249.85c14.56,130.23,15.23,259.95,2.02,389.19-7.13.76-10.73-2.57-10.79-10-.09-21.84-4.04-41.84,0-63.33,15.73-83.91,14.41-167.59-3.95-251.04-.58-2.62-.82-5.3-.7-7.98.64-16.2,1.32-32.66,2.02-49.38.23-6.08,4.04-8.57,11.4-7.46Z"/><path class="cls-1" d="M1073.52,3196.26c2.65-25.25,3.53-35.12,5.33-59.89,6.32-86.91,5.41-158.37,3.43-207.2-27.03-26.23-62.29-61.34-102.46-103.84-20.67-21.87-90.7-96.54-176.2-201.71-48.24-59.34-103.25-130.64-161.45-213.45-7.81,31.26-17.66,75.24-25.82,128.39-7.4,48.2-27.18,171.26-10.36,351.84,12.87,138.06,37.37,275.63,73.5,412.69,38.24,145.25,68.65,255.22,91.22,329.89,8.71,28.89,15.9,57.35,21.61,85.38,23.86,12.36,73.3,33.94,139.31,33.97,66.15.03,115.69-21.61,139.56-33.97-.74-11.03-1.87-27.54-3.35-47.6-3.05-41.22-5.62-70.92-6.08-76.47-9.9-118.17,7.83-360.65,11.75-398.04Z"/><path class="cls-1" d="M1556.09,3179.09c19.73-84.99,43.53-201.1,51.14-338.92,5.78-104.81,3.36-256.74-38.07-440.42-66.74,100.97-148.67,211.22-248.77,324.14-68.08,76.8-135.58,144.71-200.13,204.44-2.55,29.59-5.36,74.6-4.38,129.57.88,49.48,4.46,86.04,6.29,105.23,2.03,21.33,17.46,172.98,20,263.14,2.83,100.34-5.86,168.72-17.47,292.56,25.37,12.61,74.65,32.92,139.73,33.54,68.45.65,120.21-20.82,145.82-33.54,16.28-56.17,37.67-144.9,71.2-251.95,20.23-64.62,45.11-160.54,74.64-287.79Z"/></svg>