<?xml version="1.0" encoding="UTF-8"?><svg id="_Слой_1" xmlns="http://www.w3.org/2000/svg" viewBox="0 0 2200 5500"><defs><style>.cls-1{fill:#d6deea;}.cls-2{fill:#fff;}</style></defs><ellipse class="cls-2" cx="1331.55" cy="476.61" rx="13.51" ry="7.98" transform="translate(694.01 1739.04) rotate(-82.9)"/><path class="cls-2" d="M905.7,575.64c1.15,2.51.06,5.48-2.45,6.63-2.03.93-4.43.41-5.88-1.28-24.38-29.94-34.15-65.81-29.3-107.62.23-2.02,2.01-3.49,4.04-3.33l9.12.7c1.89.12,3.31,1.78,3.18,3.71-.02.32-.09.64-.19.94-1.11,2.87-1.35,6.75-.7,11.67,5.03,39,12.43,68.53,22.19,88.59Z"/><path class="cls-2" d="M1326.98,493.63c.13-.45.59-.73,1.05-.61l.7.26c5.64,1.74,5.28,19.16-.79,38.94l-2.28,7.28c-6.08,19.76-15.58,34.39-21.23,32.72l-.7-.18c-.46-.16-.69-.66-.53-1.12,0,0,0-.01,0-.02l23.77-77.28Z"/><path class="cls-2" d="M775.7,4352.15c11.17,70,25.23,138.41,42.19,205.25,36.31,143.27,74.09,286.24,113.33,428.92,9.24,33.68,7.63,70.43-4.82,110.26-1.05,1.29-2.37,1.46-3.95.53-3.86-2.4-5.23-5.97-4.12-10.7,3.92-17.37,6.87-34.41,8.86-51.14.64-5.4.4-10.82-.7-16.05-9.47-44.73-13.86-74.03-24.3-108.85-19.12-63.39-58.65-216.42-118.59-459.09-9.82-39.59-12.45-72.63-7.89-99.12Z"/><ellipse class="cls-1" cx="693.1" cy="1326.99" rx="134.35" ry="143.51"/><ellipse class="cls-1" cx="1530.81" cy="1322.85" rx="134.35" ry="143.51"/></svg>