<?xml version="1.0" encoding="UTF-8"?><svg id="_Слой_1" xmlns="http://www.w3.org/2000/svg" viewBox="0 0 2200 5500"><defs><style>.cls-1{fill:#010101;}.cls-2,.cls-3,.cls-4,.cls-5,.cls-6{fill:#d4deeb;}.cls-3,.cls-7{opacity:.24;}.cls-4{opacity:.75;}.cls-5{opacity:.5;}.cls-6{opacity:.49;}.cls-8{fill:#fff;}.cls-9{fill:#c3e0e3;}</style></defs><path class="cls-1" d="M2015.19,3053.55l-29.21,35.52c-5.58,6.89-15.69,7.95-22.58,2.37-5.01-4.06-7.11-10.73-5.32-16.93l3.16-11.23c.3-.97-.24-2-1.21-2.31-.66-.2-1.38-.03-1.86.47l-18.77,18.68c-5.32,5.37-13.93,5.63-19.65.61-7.6-6.72-13.04-14.36-16.31-22.89-1.26-3.29-.8-6.98,1.23-9.82l27.54-38.16,40.79-40.52c2.68-2.62,4.46-6.06,5.09-9.82l12.28-69.03c1.3-7.48-.34-15.18-4.56-21.49l-15.79-23.33c-1.37-1.94-4.05-2.4-5.99-1.03-1.19.84-1.87,2.21-1.82,3.66,1.93,35.17,5.53,72.01-27.28,91.92-2.88,1.72-6.37,2.04-9.47.88-7.66-2.81-14.21-7.4-19.65-13.77-2.98-8.19-4.3-14-3.95-17.45,4.79-47.54,5.06-79.44.79-95.7-13.95-53.15-23.51-79.29-5.88-127.97,8.51-23.42,9.12-38.16,4.3-61.05-30.52-144.9-138.32-281.56-188.58-423.13-24.97-70.46-39.24-121.07-42.8-151.83-5.35-46.58-3.6-110.69-28.51-162.01-49.12-101.05-85.93-205.86-110.43-314.45-.19-.95-1.11-1.57-2.06-1.38-.66.13-1.19.63-1.36,1.29l-13.59,49.91c-16.43,22.81-25.55,37.78-27.37,44.91-28.71,112.16-50.84,211.18-66.4,297.09-12.46,68.77,14.65,117.62,52.89,188.67,16.05,29.82,48.68,88.33,66.49,135.08,56.19,147.18,83.88,301.09,83.06,461.72-.29,58.3-4.82,122.33-13.59,192.09-17.31,137.83-49.56,289.66-96.75,455.5-53.92,189.87-81.34,286.53-82.28,289.98-23.62,92.63-30.06,183.2-19.3,271.74,9.82,80.46,15.5,128,17.02,142.62,15.35,149.9-2.98,286.47-37.19,434.36-27.31,117.89-59.06,244.78-95.26,380.68-10.79,40.44-26.93,109.2-17.89,156.22,3.57,18.3,5.23,35.06,5,50.26-.79,47.54,20,130.96,62.45,166.74,24.03,20.29,36.69,31.49,37.98,33.59,10.18,17.1,9.65,34.56-11.67,44.38-19.18,8.83-34.5,11.93-45.96,9.3-3.63-.85-7.45-.38-10.79,1.32-13.33,6.78-25.12,7.22-35.35,1.32-2.42-1.43-5.39-1.59-7.98-.44-19.24,8.48-36.55,8.86-51.93,1.14-2.45-1.19-5.34-1.03-7.63.44-7.72,4.97-17.42,7.57-29.12,7.81-28.71.58-46.43-13.19-53.15-41.31-9.3-38.89-13.3-78.27-12.02-118.15,1.05-31.84-4.91-55.61-6.05-80.52-1.93-40.17,1.32-63.5,14.65-104.29,10.99-33.62,17.16-61.37,18.51-83.24,9.36-149.05,6.26-282.06-9.3-399.01-12.63-94.73-16.2-181.48-10.7-260.25,4.21-60.43,17.54-131.75,19.56-193.15,1.75-51.4-3.07-89.47-15.35-148.94-11.29-54.09-17.84-106.28-19.65-156.57-1.75-49.47,7.02-111.05,12.28-165.6,13.22-129.23,12.54-258.96-2.02-389.19-14.74-128.76-18.1-237.12-10.09-325.07,1.46-16.08,6.26-48.65,14.39-97.71.44-2.53-1.25-4.94-3.78-5.38-.34-.06-.69-.08-1.04-.06l-28.33,1.32c-2.9.13-5.15,2.59-5.02,5.49,0,.1.01.2.02.3,11.58,115.72,11.64,231.27.18,346.64-8.42,85.32-13.48,146.69-15.17,184.11-4.56,102.63-2.08,202.56,7.46,299.81,7.54,77.36,10.53,129.49,8.95,156.39-3.45,60.11-9.59,112.01-18.42,155.69-26.4,130.25,7.72,256.74,12.1,391.9,2.89,89.64-11.32,181.66-15.35,272.53-6.26,143.62-5.76,260.57,1.49,350.85,1.49,18.77,4.47,38.68,12.72,61.58,8.65,23.98,12.4,46.55,11.23,67.71-6.55,122.74-10.61,192-12.19,207.79-2.37,23.77-9.21,49.56-31.31,60.52-21.34,10.58-41.58,9.21-60.7-4.12-2.07-1.43-4.79-1.5-6.93-.17-16.78,10.53-34.68,10.88-53.68,1.05-2.32-1.21-5.08-1.24-7.46-.09-12.4,6.02-24.41,5.67-36.05-1.05-2.32-1.36-5.02-1.86-7.63-1.4-11.52,1.93-29.39-2.46-53.59-13.16-2.64-1.13-4.75-3.27-5.88-5.96-5.96-13.86-3.04-26.08,8.77-36.66,37.1-33.24,64.29-54.91,82.98-100.96,16.14-39.7,22.75-81.43,19.82-125.17,12.46-39.82,14.06-76.57,4.82-110.26-39.24-142.68-77.01-285.65-113.33-428.92-16.96-66.84-31.02-135.25-42.19-205.25-10-99.17-9.44-188.64,1.67-268.4,9.88-71.11,15.64-124.99,17.28-161.66,7.19-86.13-.2-166.98-22.19-242.53-76.31-261.91-138.06-477.86-172.01-727.32-2.51-34.21-4.94-69.5-7.28-105.87-8.6-134.32.44-263.96,27.1-388.92,19.06-89.06,44.27-168.29,75.61-237.7,12.34-27.25,35.17-75.2,68.5-143.85,17.89-36.84,23.01-77.16,15.35-120.96-14.38-82.45-30.09-153.47-47.1-213.06-5.15-17.95-11.31-43.77-18.51-77.45-6.08-28.3-16.87-59.59-32.37-93.85-.29-.82-1.19-1.26-2.01-.97-.64.22-1.06.82-1.06,1.5-1.11,15.61-4.65,31.9-10.61,48.86-47.31,133.97-74.56,207.35-81.75,220.16-17.78,31.52-30.73,61.08-38.86,88.68-11.14,37.54-9.12,86.57-15.17,121.83-25.09,145.34-88.85,259.11-165.95,405.24-35.61,67.36-64.47,133.15-70.61,203.14-.64,7.35.26,14.72,2.63,21.67,12.72,38.16,12.19,60.87,1.23,97.36-13.77,45.79-18.16,89.91-15.53,138.59.99,19.24-6.96,29.33-23.86,30.26-13.86,8.71-23.33,4.27-28.42-13.33-7.37-25.32-9.06-50.64-5.09-75.96.33-2.06-1.08-3.99-3.13-4.32-1.16-.18-2.33.18-3.18.98-32.19,30.7-14.12,104.12,5.35,137.27,6.78,11.58,23.01,30.09,48.68,55.52.77.79,2.06.79,2.89,0l1.84-1.84c.97-1.01,1.05-2.58.18-3.68-16.58-20.88-50.61-52.45-53.42-84.38-.13-1.35.86-2.55,2.21-2.68,1.02-.1,1.99.45,2.44,1.36,12.16,24.15,30.64,49.32,55.43,75.52,5.57,5.87,6.6,14.75,2.54,21.84l-13.95,24.12c-2.88,5-9.26,6.71-14.25,3.84-.75-.43-1.44-.95-2.06-1.55l-23.86-23.24c-.8-.85-2.16-.86-3.04-.03-.01.01-.02.02-.03.03-.88.89-.92,2.31-.09,3.25,12.69,13.68,10.67,25.44-6.05,35.26-4.58,2.67-10.42,1.84-14.12-2.02-29.47-30.64-51.11-65.05-64.91-103.24-12.19-33.77-14.3-73.24-24.12-109.03-1.77-6.41-1.65-13.24.35-19.65l18.86-60.61c17.89-45.9,32.63-95.17,44.21-147.8,23.8-107.83,39-183.2,45.61-226.13,23.42-151.74,38.68-281.39,84.29-414.18,15.88-46.23,46.31-96.48,68.59-136.48,5.64-10.06,9.78-20.88,12.28-32.1,8.42-38.24,16.72-82.6,24.91-133.06,9.71-59.94,27.19-135.17,52.45-225.69,4.5-16.08,6.9-28.48,7.19-37.19,3.45-96.13,6.64-159.58,9.56-190.34,13.51-142.45,54.73-244.02,209.02-263.58,2.83-.34,5.47-1.64,7.46-3.68,56.05-56.49,75-141.66,79.99-213.85,6.4-93.5,10.44-267,37.72-396.82,27.37-129.99,111.05-247.18,253.4-260.33,150.34-13.95,260.16,99.82,295.77,240.16,29.21,115.26,31.75,215.42,40.79,360.06,5.35,85.35,15.88,159.55,51.05,225.42,7.95,14.97,21.93,31.64,41.93,50,2.3,2.13,5.11,3.64,8.16,4.39,15.44,3.95,33.07,5.18,50.08,10.61,74.79,23.8,121.1,76.69,138.94,158.67,21.23,97.71,21.14,189.11,23.42,283.4.18,6.49,2.49,16.78,6.93,30.88,21.17,67.95,37.16,132.97,47.98,195.08,13.04,74.67,19.88,113.38,20.52,116.13,12.46,56.4,31.66,88.42,60.52,142.71,42.1,79.38,62.45,169.2,76.75,267.18,11.4,78.59,30.32,195.6,56.75,351.03,17.84,105.02,44.62,209.11,80.35,312.26,1.14,3.32,1.27,6.89.35,10.26-8.68,32.1-10.35,63.24-22.89,96.05-11.11,29.35-24.5,56.08-40.17,80.17ZM728.43,988.94c41.64-8.42,81.78-19.94,120.43-34.56,73.59-27.89,122.8-67.8,125.69-153.67.53-15.96.18-37.13-1.05-63.5-.29-6.06-2.36-11.92-5.96-16.84-25.85-35.38-43.33-74.41-52.45-117.1-.76-3.57-3.68-6.11-8.77-7.63-3.8-1.11-7.37-3.07-10.7-5.88-26.84-22.92-39.88-57.98-39.12-105.17.29-16.72,5.55-25.7,15.79-26.93,1.36-.17,2.72.11,3.86.79l10.18,5.88c1.82,1.02,3.92,1.4,5.96,1.05,95.49-17.07,169.9-68.33,223.23-153.76,5.19-8.3,4.15-19.9-2.63-29.3-6.49-8.89-10.29-14.68-11.4-17.37-.61-1.42.05-3.07,1.47-3.69.83-.36,1.79-.29,2.56.18,3.68,2.22,8.07,6.96,13.16,14.21,1.3,1.87,3.23,3.21,5.44,3.77,1.34.35,2.1.56,2.28.61,2.83,1.16,4.59,4.02,4.39,7.1-1.23,18.07,4.53,36.11,17.28,54.12,36.75,52.01,82.01,82.63,141.66,99.47,34.27,9.59,52.16,14.71,53.68,15.35,2.63,1.05,4.34,3.6,4.3,6.4-.26,42.63-8.51,100.7-46.49,127.01-3.76,2.59-6.35,6.53-7.19,10.96-8.6,43.27-26.99,83.24-55.17,119.9-2.06,2.64-3.31,5.81-3.6,9.12-5.7,60.96-3.68,125.78,36.22,172.8,22.98,27.1,65.87,46.58,101.22,58.59,25.91,8.83,65,20.67,117.27,35.52,1.21.36,2.48-.32,2.84-1.52.27-.88-.02-1.84-.74-2.42-19.53-16.55-34.3-36.81-44.29-60.79-38.68-92.8-47.54-200.95-51.4-322.17-2.98-92.51-13.65-174.96-32.02-247.35-31.31-123.41-127.62-237.79-264.72-235.42-155.6,2.72-246.47,135.78-270.25,279.37-13.51,81.46-21.02,148.62-22.54,201.48-2.89,103.85-5.26,221.04-44.47,321.47-5.91,15.09-17.95,33.86-36.14,56.31-.8.92-.67,2.31.3,3.1.53.43,1.22.61,1.89.5ZM1316.9,456.35c-87.77-14.56-151.66-60.41-191.65-137.53-.43-.92-1.53-1.32-2.45-.89-.33.15-.61.4-.8.72-52.69,84.91-127.07,136.16-223.14,153.76-4.32.8-7.32,4.75-6.93,9.12,5,57.89,22.1,91.49,40.08,148.94,11.4,36.61,29.65,70.35,54.73,101.22,43.94,54.03,113.76,87.71,178.58,43.33,56.25-38.54,93.68-90.2,112.27-154.99,7.66-26.84,12.22-42.01,13.68-45.52,10.09-24.56,29.91-67.54,23.77-94.82-1.11-4.97-.85-8.3.79-10,4.03-4.21,6.05-6.49,6.05-6.84.28-3.17-1.91-6-5-6.49ZM1333.22,463.21c-4.37-.55-8.67,5.01-9.59,12.42h0c-.92,7.4,1.88,13.85,6.25,14.39h0c4.37.54,8.67-5.02,9.59-12.42.92-7.4-1.88-13.85-6.25-14.39ZM905.7,575.64c-9.77-20.06-17.16-49.59-22.19-88.59-.64-4.91-.41-8.8.7-11.67.64-1.83-.28-3.83-2.06-4.46-.3-.11-.6-.17-.92-.19l-9.12-.7c-2.02-.16-3.81,1.32-4.04,3.33-4.85,41.81,4.91,77.69,29.3,107.62,1.8,2.09,4.96,2.33,7.05.53,1.69-1.45,2.21-3.85,1.28-5.88ZM1326.98,493.63l-23.77,77.28c-.17.45.05.96.51,1.13,0,0,.01,0,.02,0l.7.18c5.65,1.67,15.14-12.95,21.23-32.72l2.28-7.28c6.07-19.78,6.43-37.2.79-38.94l-.7-.26c-.46-.11-.92.16-1.05.61ZM1471.98,1673.2c-.59.18-7.72,4.12-21.4,11.84-72.01,40.7-170.6,14.12-239.98-24.74-.94-.5-1.3-1.67-.8-2.61.05-.1.12-.2.19-.29l2.37-2.98c.26-.37.75-.48,1.14-.26,30.47,15.15,62.86,26.58,97.19,34.3,72.19,16.23,161.83.96,193.93-71.93,33.16-75.35,18.07-161.66,2.1-243.58-.64-3.13-.73-6.37-.26-9.56,2.46-18.19,10.35-34.33,23.68-48.42.65-.68,1.71-.75,2.46-.18l2.46,1.93c1.45,1.14,1.67,3.26.5,4.75-.02.03-.04.05-.06.08-10.47,12.46-16.78,26.08-18.95,40.87-.58,3.89-.46,7.84.35,11.67,12.4,58.59,18.22,114.58,17.45,167.97-.06,5.18.53,10.34,1.75,15.35,28.48,115.2,67.13,225.1,115.96,329.72,13.45,28.83,20.32,51.28,20.61,67.36,3.16,162.62,68.86,302.17,148.59,448.39,30.7,56.31,59.38,120.96,81.92,182.71,13.39,36.61,15.09,70.02,5.09,100.26-7.89,23.86-14.03,54.38-7.89,75.78,10.35,35.85,15.5,57.36,15.44,64.56-.23,34.68-.99,61.14-2.28,79.38-.76,10.64,1.29,18.42,6.14,23.33,4.92,5.08,13.48,4.73,19.13-.79.15-.14.29-.29.43-.44,8.01-8.42,11.93-18.77,11.75-31.05-.53-41.63,4.94-80.35,16.4-116.13.56-1.7,2.39-2.63,4.09-2.08.69.23,1.29.68,1.7,1.29,5.09,7.78,2.98,21.11-6.32,40-3.08,6.25-1.14,13.81,4.56,17.81,20.7,14.33,30.14,35.58,28.33,63.77-1.81,28.59-5.41,50.7-10.79,66.31-.98,3.04-1.13,6.28-.44,9.39.06.06.32.79.79,2.19,1.06,3.24.71,6.8-.96,9.82-16.2,28.48-38.45,51.98-66.75,70.52-1.7,1.13-2.57,3.17-2.19,5.18l.44,2.63c.49,2.62,3,4.35,5.62,3.86.45-.08.9-.23,1.31-.44,28.71-14.15,50.61-36.75,65.7-67.8,1.28-2.61,2.14-5.43,2.54-8.33,2.4-19.12,9.24-39.15,20.52-60.08,1.59-2.9,2.18-6.24,1.67-9.47-1.34-8.01-1.93-13.95-1.75-17.81-.07-1.36.97-2.51,2.32-2.59,1.36-.07,2.51.97,2.59,2.32h0c4.85,27.37.12,50.93-14.21,70.7-1.9,2.58-3.08,5.64-3.42,8.86-3.51,34.12-26.31,67.19-34.65,85.96-1.43,3.29.08,7.11,3.36,8.54.41.18.84.32,1.28.41l.26.09c4.88.96,9.87-.99,12.81-5,31.49-43.86,65.26-98.41,72.01-150.96,2.05-15.96,5.03-33.13,8.95-51.49.92-4.24.61-8.62-.88-12.63-26.08-69.53-46.08-138.35-60-206.48-21.58-105.9-49.47-271.18-83.68-495.84-12.75-83.5-40.87-166.42-84.38-248.76-26.93-50.96-42.02-86.49-48.68-133.76-14.85-105.49-36.43-200.28-64.73-284.37-4.39-13.24-5-26.23-6.93-40.44-.18-1.58-2.43-53.83-6.75-156.74-5.26-125.08-29.12-252.09-173.15-282-.82-.18-17.31-2.95-49.47-8.33-32.75-5.44-82.57-20.99-149.46-46.66-97.36-37.28-123.68-119.9-114.12-214.55.13-1.69-1.14-3.16-2.83-3.29-.91-.07-1.8.27-2.43.92-21.58,23.21-45.85,41.2-72.8,53.94-58.33,27.45-117.27-5.7-158.76-48.77-.89-.97-2.4-1-3.36-.06-.53.52-.81,1.25-.76,1.99,2.75,27.78,1.55,56.78-3.6,87.01-12.28,72.19-65.79,104.38-130.17,128.41-50.99,19.12-97.39,32.13-139.2,39.03-45.08,7.54-75.35,15.2-90.78,22.98-50.35,25.55-83.53,67.66-99.56,126.31-24.65,89.99-25.26,176.57-27.81,277-.44,17.1-3.51,41.58-7.63,55.7-31.64,109.58-54.85,217.09-69.64,322.52-11.4,81.22-64.82,137.45-90.87,210.43-20.88,58.3-36.34,121.1-46.4,188.41-26.67,177.94-55.26,334.74-85.78,470.41-7.6,33.86-27.34,95.46-59.21,184.81-3.74,10.47-1.87,21.99,5.61,34.56,2.13,3.57,3.34,7.58,3.51,11.67,3.33,66.72,28.3,125.52,74.91,176.39,1.75,1.87,4.3,2.31,7.63,1.32,3.72-1.08,5.89-4.9,4.84-8.53-.03-.11-.07-.22-.11-.33-8.77-25.38-21.05-52.48-36.84-81.31-6.23-11.23-20.17-58.94-5.88-73.42,1.93-1.93,3.17-4.47,3.51-7.19,4.91-44.03,10.09-51.75,32.89-83.68,1.7-2.41,2.06-5.54.97-8.33-3.98-9.88-5.73-19.53-5.26-28.95.11-2.57,2.28-4.56,4.84-4.45,2.01.08,3.74,1.46,4.28,3.4,11.14,39.91,6.75,90.35,10.79,129.82.94,9.37,8.62,16.64,18.07,17.1l.79.09c8.23.41,15.22-5.93,15.63-14.16.03-.57.02-1.15-.01-1.72-4.15-59.88,3.1-116.98,21.75-171.3,4.35-12.64,4.87-26.28,1.49-39.21l-11.05-41.58c-1.28-4.88-1.69-9.92-1.23-14.91,4.82-56.49,25.96-108.06,51.31-161.31,56.05-118.06,142.27-255.6,177.36-399.71,9.91-40.87,13.68-89.03,17.37-130.78,1.93-22.1,9.3-53.86,16.84-69.21,45.08-91.92,83.15-187.62,114.2-287.09,1.23-3.98,5.29-21.96,12.19-53.94,1.51-6.81,2.13-13.83,1.84-20.88-1.4-33.33-.41-62.8,2.98-88.42,6.61-49.7,10.03-77.07,10.26-82.1.8-6.83-.29-13.75-3.16-20l-11.23-24.56c-.75-1.52-.13-3.36,1.39-4.11,1.31-.65,2.89-.28,3.79.87,18.86,22.45,21.67,39.03,16.93,70.26-10.18,67.8-20.88,129.9.7,198.23,43.68,138.24,183.67,123.06,287.61,75.43,1.24-.58,2.71-.07,3.33,1.14l.18.35c.53,1.04.14,2.32-.88,2.89-81.49,46.58-190.51,63.5-262.26-11.49-1.07-1.19-2.9-1.28-4.09-.21-.84.76-1.16,1.94-.82,3.02,29.65,98.77,53.21,196.89,70.7,294.37,9.41,52.28,1.43,102.51-23.95,150.69-30.17,57.31-54.24,107.48-72.19,150.52-1.16,2.8-.5,6.03,1.67,8.16,37.19,35.32,72.04,73.3,104.55,113.94,100.64,125.55,185.4,260.69,254.28,405.41,1.23,2.51,8.74,12.95,22.54,31.31,1.5,2.01,3.83,3.28,6.4,3.51l35.35,2.54c3.18.22,6.21-1.33,7.89-4.03,17.6-28.36,27.05-43.83,28.33-46.4,69.59-141.63,153.56-273.29,251.91-394.97,31.4-38.86,62.1-69.03,102.1-108.41,2.87-2.87,3.55-7.28,1.67-10.88-48.36-92.98-75.17-144.73-80.43-155.25-24.44-48.65-30.29-101.81-17.54-159.46,34.62-157.07,55.2-243.52,61.75-259.37.54-1.29-.04-2.79-1.29-3.34-.54-.24-1.14-.27-1.7-.09ZM1017.18,5337.79c-.06,0-.85-.53-2.37-1.58-2.99-2.06-7-1.99-10,.18-10.23,7.25-16.14,16.37-17.72,27.37-.39,2.96.7,5.89,2.89,7.81,22.28,19.12,53.15,13.95,68.68-10.53,5.44-8.71,8.97-24.73,10.61-48.07,3.1-44.21,6.49-110.58,10.18-199.11,1.67-39.56-18.16-71.14-22.19-110.78-15.53-152.97-8.68-326.03,6.49-494.97,8.3-92.8,7.84-174.05-1.4-243.76-7.98-60.96-15.44-121.4-15.96-179.9-.35-37.42,1.14-64,4.47-79.73,18.07-85.61,26.37-153.7,24.91-204.28-.99-34.09-5.67-102.8-14.03-206.13-10.61-131.13-2.37-263.4,11.75-398.04,12.86-122.1,13.65-244.75,2.37-367.96-.23-2.93-1.23-5.75-2.89-8.16-13.51-19.65-23.51-32.45-34.65-55.52-84.38-174.32-192.21-332.67-323.49-475.06-7.31-7.95-15.38-15.44-24.21-22.45-.98-.79-2.43-.6-3.24.43-.15.19-.27.4-.36.62-73.97,200.05-100.99,407.46-81.05,622.24,12.87,138.06,37.37,275.63,73.5,412.69,38.24,145.25,68.65,255.22,91.22,329.89,26.26,87.13,38.86,170.34,37.81,249.63-.41,30.06-5.23,82.45-14.47,157.18-16.31,131.04-20.09,242.97-.7,350.94,32.98,183.15,95.08,391.38,140.43,563.3,10.12,38.24,15.41,65.9,15.88,82.98.53,19.38-11.93,47.63-12.37,68.24-.96,50.26-5.17,80.87-25.96,130.43-14.21,34.03-48.51,62.45-73.86,85.96-5.55,5.15-10.03,11.4-13.42,18.77-1.75,3.86-1.35,8.35,1.05,11.84l4.21,6.32c1.31,2.04,4.02,2.63,6.06,1.32,1.18-.76,1.93-2.03,2.01-3.43,1.7-19.65,13.39-32.6,35.09-38.86.32-.06.66.08.88.35l1.4,2.02c.5.83.26,1.89-.53,2.37-.05.03-.11.06-.17.09-16.55,7.43-25.58,18.65-27.1,33.68-.6,5.8,3.38,11.08,9.12,12.1l8.68,1.49c4.29.75,8.37-2.04,9.11-6.24,0-.03,0-.05.01-.08l2.89-16.31c.67-3.81,3.11-7.07,6.58-8.77,9.24-4.74,16.81-10.91,22.72-18.51,1.15-1.44,3.24-1.68,4.68-.53,1.08.86,1.51,2.29,1.1,3.6-5.88,19.21-32.98,15.26-26.58,44.65.82,3.9,4.36,6.62,8.33,6.4l22.02-1.05c2.71-.09,4.83-2.37,4.74-5.08,0-.03,0-.07,0-.1l-.88-17.45c-.16-3.65,1.57-7.11,4.56-9.12l25.09-16.84c1.68-1.15,3.97-.71,5.12.97.54.79.75,1.77.58,2.71l-.88,4.74c-.21,1.25-1.08,2.29-2.28,2.72-13.1,4.74-20.67,11.96-22.72,21.66-5.61,26.23,31.31,25.79,44.47,15.17,3.52-2.81,5.48-7.12,5.26-11.58-.64-12.69,7.95-25.23,25.79-37.63,1.72-1.17,4.05-.76,5.2.91.13.18.23.38.32.58,1.64,3.57,4.5,6.81,8.6,9.74.89.59,1.13,1.79.54,2.67-.43.64-1.19.97-1.95.83ZM1189.19,5325.5c5.09-6.96,7.84-10.5,8.24-10.61,2.22-.83,4.7.3,5.53,2.52.14.37.23.77.26,1.16.64,8.13,5.73,15.5,15.26,22.1,2.1,1.43,3.4,3.74,3.51,6.23l.88,19.12c.32,5.75,4.54,10.52,10.18,11.49,12.45,2.22,23.27.76,32.45-4.39,2.71-1.52,4.36-4.38,4.3-7.46-.41-14.21-8.27-24.97-23.59-32.28-1.36-.67-2.06-2.18-1.67-3.6l.7-2.63c.49-1.72,2.28-2.73,4.01-2.24.25.07.5.18.73.31,19.76,11.64,30.03,25.82,30.79,42.54.16,3.82,2.98,7.01,6.75,7.63,9.47,1.58,18.16-.35,26.05-5.79,5.19-3.6,6.55-10.67,3.07-15.88l-20.09-29.65c-.35-.64-.11-1.44.53-1.78.35-.19.77-.21,1.14-.06,18.6,9.94,28.65,24.03,30.17,42.28.19,2.56,2.43,4.48,4.99,4.28.18-.01.36-.04.54-.07l22.45-4.12c3.24-.6,5.38-3.71,4.79-6.95-.15-.81-.46-1.58-.93-2.27l-25.88-38.33c-.7-.95-.46-2.26.53-2.93.73-.49,1.7-.51,2.45-.05,18.07,11.99,27.57,25.23,28.51,39.73.13,1.88,1.77,3.3,3.66,3.17.93-.07,1.8-.51,2.4-1.24,17.45-21.49-13.16-41.31-31.14-55-44.73-34.03-73.94-130.08-71.84-188.5.88-24.12-4.39-41.31-6.4-62.54-.76-7.87-.67-15.81.26-23.68,3.86-32.28,10.35-65.96,19.47-101.05,34.56-132.62,67.48-264.16,98.77-394.62,26.55-110.69,40.11-217.33,40.7-319.89.18-36.31-4.3-91.87-13.42-166.66-15-122.36-22.72-220.42-.35-315.77,16.84-71.57,41.34-158.79,73.5-261.65,20.23-64.62,45.11-160.54,74.64-287.79,26.9-115.72,43.94-228.7,51.14-338.93,12.46-190.43-8.86-396.29-86.57-567.07-1.33-2.85-4.69-4.11-7.51-2.81-.49.23-.95.52-1.35.88-20.76,18.13-43.91,42.4-69.47,72.8-84.97,100.99-158.91,207.47-221.83,319.45-28.77,51.14-54.21,106.48-84.03,154.46-2.37,3.88-3.92,8.2-4.56,12.72-17.19,119.99-20.44,230.83-9.74,332.52,11.46,108.59,18.13,196.3,20,263.14,2.98,105.78-6.84,176.04-19.38,313.23-7.72,84.2,4.03,152.01,20.52,238.05,20.53,106.75,9.47,168.32-5.26,301.3-9.82,88.68-4.47,178.85,8.16,295.07,10.06,92.86,14.74,183.09,14.03,270.68-.7,78.5-3.42,145.78-26.49,211.65-10.35,29.59-14.53,56.31-12.54,80.17,4.09,47.83,5.67,85.14,4.74,111.92-1.32,37.89,7.37,77.45,17.72,106.4,9.77,27.31,30.58,34.47,62.45,21.49,6.55-2.69,9.44-7.19,8.68-13.51-1.75-14.03-9.71-24.15-23.86-30.35-2.15-.9-3.16-3.36-2.26-5.51.13-.32.3-.62.51-.9ZM193.29,2928.99c-.05-.97-.87-1.72-1.84-1.67-.97.05-1.71.87-1.67,1.84-1.58,20.35-.88,43.77,10,63.24,16.67,30.11,37.69,54.5,63.07,73.15,2.84,2.11,6.85,1.51,8.96-1.33.12-.16.24-.33.34-.51l.18-.26c2-3.29,1.21-7.58-1.84-10-41.28-32.45-67.01-73.94-77.19-124.47ZM1981.82,2978.27c-2.58-2.27-19.04,12.23-36.75,32.4,0,0,0,0,0,0-17.71,20.16-29.98,38.35-27.39,40.62h0c2.58,2.27,19.04-12.24,36.75-32.4,17.71-20.16,29.98-38.35,27.39-40.62Z"/><path class="cls-8" d="M726.23,985.35c18.19-22.45,30.23-41.23,36.14-56.31,39.21-100.43,41.58-217.62,44.47-321.47,1.52-52.86,9.03-120.02,22.54-201.48,23.77-143.59,114.64-276.65,270.25-279.37,137.1-2.37,233.41,112.01,264.72,235.42,18.36,72.39,29.03,154.84,32.02,247.35,3.86,121.22,12.72,229.37,51.4,322.17,10,23.98,24.76,44.24,44.29,60.79.97.8,1.12,2.24.32,3.21-.58.71-1.54,1-2.42.74-52.28-14.85-91.37-26.69-117.27-35.52-35.35-12.02-78.24-31.49-101.22-58.59-39.91-47.01-41.93-111.83-36.22-172.8.28-3.32,1.53-6.49,3.6-9.12,28.19-36.66,46.58-76.63,55.17-119.9.84-4.44,3.43-8.38,7.19-10.96,37.98-26.31,46.23-84.38,46.49-127.01.05-2.8-1.66-5.35-4.3-6.4-1.52-.64-19.41-5.76-53.68-15.35-59.65-16.84-104.91-47.45-141.66-99.47-12.75-18.01-18.51-36.05-17.28-54.12.2-3.08-1.56-5.94-4.39-7.1-.18-.06-.94-.26-2.28-.61-2.21-.56-4.14-1.9-5.44-3.77-5.09-7.25-9.47-11.99-13.16-14.21-1.33-.8-3.05-.38-3.86.94-.47.78-.54,1.73-.18,2.56,1.11,2.69,4.91,8.48,11.4,17.37,6.78,9.4,7.82,21,2.63,29.3-53.33,85.43-127.74,136.69-223.23,153.76-2.04.34-4.15-.03-5.96-1.05l-10.18-5.88c-1.14-.68-2.5-.96-3.86-.79-10.23,1.23-15.5,10.2-15.79,26.93-.76,47.19,12.28,82.25,39.12,105.17,3.33,2.81,6.9,4.77,10.7,5.88,5.09,1.52,8.01,4.06,8.77,7.63,9.12,42.69,26.61,81.72,52.45,117.1,3.6,4.92,5.68,10.78,5.96,16.84,1.23,26.37,1.58,47.54,1.05,63.5-2.89,85.87-52.1,125.78-125.69,153.67-38.65,14.62-78.8,26.14-120.43,34.56-1.23.21-2.43-.58-2.67-1.78-.13-.65.04-1.32.48-1.82Z"/><path class="cls-8" d="M1321.93,462.84c0,.35-2.02,2.63-6.05,6.84-1.64,1.7-1.9,5.03-.79,10,6.14,27.28-13.68,70.26-23.77,94.82-1.46,3.51-6.02,18.68-13.68,45.52-18.6,64.79-56.02,116.45-112.27,154.99-64.82,44.38-134.64,10.7-178.58-43.33-25.09-30.88-43.33-64.62-54.73-101.22-17.98-57.45-35.09-91.05-40.08-148.94-.39-4.37,2.61-8.32,6.93-9.12,96.08-17.6,170.46-68.86,223.14-153.76.53-.87,1.66-1.15,2.53-.62.31.19.56.47.72.8,40,77.13,103.88,122.97,191.65,137.53,3.09.49,5.28,3.33,5,6.49Z"/><ellipse class="cls-8" cx="1331.55" cy="476.61" rx="13.51" ry="7.98" transform="translate(694.01 1739.04) rotate(-82.9)"/><path class="cls-8" d="M905.7,575.64c1.15,2.51.06,5.48-2.45,6.63-2.03.93-4.43.41-5.88-1.28-24.38-29.94-34.15-65.81-29.3-107.62.23-2.02,2.01-3.49,4.04-3.33l9.12.7c1.89.12,3.31,1.78,3.18,3.71-.02.32-.09.64-.19.94-1.11,2.87-1.35,6.75-.7,11.67,5.03,39,12.43,68.53,22.19,88.59Z"/><path class="cls-8" d="M1326.98,493.63c.13-.45.59-.73,1.05-.61l.7.26c5.64,1.74,5.28,19.16-.79,38.94l-2.28,7.28c-6.08,19.76-15.58,34.39-21.23,32.72l-.7-.18c-.46-.16-.69-.66-.53-1.12,0,0,0-.01,0-.02l23.77-77.28Z"/><path class="cls-8" d="M1474.96,1676.62c-6.55,15.85-27.13,102.3-61.75,259.37-12.75,57.66-6.9,110.81,17.54,159.46,5.26,10.53,32.07,62.28,80.43,155.25,1.88,3.6,1.2,8-1.67,10.88-40,39.38-70.7,69.56-102.1,108.41-98.36,121.69-182.33,253.35-251.91,394.97-1.29,2.57-10.73,18.04-28.33,46.4-1.68,2.7-4.72,4.26-7.89,4.03l-35.35-2.54c-2.57-.23-4.9-1.5-6.4-3.51-13.8-18.36-21.31-28.8-22.54-31.31-68.88-144.73-153.65-279.86-254.28-405.41-32.51-40.64-67.36-78.62-104.55-113.94-2.16-2.13-2.82-5.35-1.67-8.16,17.95-43.04,42.02-93.21,72.19-150.52,25.38-48.18,33.36-98.41,23.95-150.69-17.48-97.48-41.05-195.6-70.7-294.37-.48-1.52.37-3.15,1.89-3.63,1.08-.34,2.26-.02,3.02.82,71.75,75,180.78,58.07,262.26,11.49,1.02-.58,1.4-1.85.88-2.89l-.18-.35c-.63-1.21-2.1-1.72-3.33-1.14-103.94,47.63-243.93,62.8-287.61-75.43-21.58-68.33-10.88-130.43-.7-198.23,4.74-31.23,1.93-47.8-16.93-70.26-1.04-1.34-2.97-1.58-4.31-.54-1.15.9-1.52,2.48-.87,3.79l11.23,24.56c2.87,6.25,3.96,13.17,3.16,20-.23,5.03-3.65,32.4-10.26,82.1-3.39,25.61-4.39,55.08-2.98,88.42.29,7.05-.33,14.06-1.84,20.88-6.9,31.99-10.96,49.97-12.19,53.94-31.05,99.47-69.12,195.16-114.2,287.09-7.54,15.35-14.91,47.1-16.84,69.21-3.68,41.75-7.46,89.91-17.37,130.78-35.09,144.11-121.31,281.65-177.36,399.71-25.35,53.24-46.49,104.82-51.31,161.31-.46,4.99-.05,10.04,1.23,14.91l11.05,41.58c3.38,12.93,2.86,26.57-1.49,39.21-18.65,54.32-25.9,111.43-21.75,171.3.54,8.22-5.68,15.32-13.9,15.86-.57.04-1.14.04-1.72.01l-.79-.09c-9.44-.47-17.12-7.74-18.07-17.1-4.03-39.47.35-89.91-10.79-129.82-.69-2.47-3.25-3.92-5.73-3.23-1.94.54-3.31,2.27-3.4,4.28-.47,9.41,1.29,19.06,5.26,28.95,1.09,2.79.73,5.92-.97,8.33-22.81,31.93-27.98,39.65-32.89,83.68-.34,2.73-1.57,5.26-3.51,7.19-14.3,14.47-.35,62.19,5.88,73.42,15.79,28.83,28.07,55.93,36.84,81.31,1.24,3.57-.73,7.49-4.4,8.75-.11.04-.23.07-.34.11-3.33.99-5.88.56-7.63-1.32-46.6-50.87-71.57-109.67-74.91-176.39-.17-4.09-1.38-8.09-3.51-11.67-7.48-12.57-9.36-24.09-5.61-34.56,31.87-89.35,51.61-150.96,59.21-184.81,30.52-135.66,59.12-292.47,85.78-470.41,10.06-67.31,25.52-130.11,46.4-188.41,26.05-72.98,79.47-129.2,90.87-210.43,14.79-105.43,38.01-212.94,69.64-322.52,4.12-14.12,7.19-38.59,7.63-55.7,2.54-100.43,3.16-187.01,27.81-277,16.02-58.65,49.21-100.75,99.56-126.31,15.44-7.78,45.7-15.44,90.78-22.98,41.81-6.9,88.21-19.91,139.2-39.03,64.38-24.03,117.89-56.22,130.17-128.41,5.15-30.23,6.34-59.24,3.6-87.01-.09-1.34.89-2.54,2.2-2.67.72-.07,1.43.2,1.92.74,41.49,43.07,100.43,76.22,158.76,48.77,26.96-12.75,51.23-30.73,72.8-53.94,1.18-1.22,3.13-1.24,4.34-.06.65.63.99,1.52.92,2.43-9.56,94.64,16.75,177.27,114.12,214.55,66.9,25.67,116.72,41.23,149.46,46.66,32.16,5.38,48.65,8.16,49.47,8.33,144.02,29.91,167.88,156.92,173.15,282,4.33,102.92,6.58,155.17,6.75,156.74,1.93,14.21,2.54,27.19,6.93,40.44,28.3,84.09,49.88,178.88,64.73,284.37,6.67,47.28,21.75,82.8,48.68,133.76,43.51,82.33,71.63,165.25,84.38,248.76,34.21,224.66,62.1,389.95,83.68,495.84,13.92,68.12,33.92,136.95,60,206.48,1.49,4.01,1.79,8.39.88,12.63-3.92,18.36-6.9,35.52-8.95,51.49-6.75,52.54-40.52,107.1-72.01,150.96-2.94,4.01-7.93,5.96-12.81,5l-.26-.09c-3.51-.72-5.78-4.15-5.05-7.66.09-.44.23-.87.41-1.29,8.33-18.77,31.14-51.84,34.65-85.96.34-3.22,1.52-6.27,3.42-8.86,14.33-19.76,19.06-43.33,14.21-70.7-.07-1.36-1.23-2.4-2.59-2.32-1.36.07-2.4,1.23-2.32,2.59h0c-.18,3.86.41,9.79,1.75,17.81.51,3.24-.07,6.57-1.67,9.47-11.29,20.93-18.13,40.96-20.52,60.08-.41,2.91-1.27,5.72-2.54,8.33-15.09,31.05-36.99,53.65-65.7,67.8-2.37,1.21-5.28.26-6.49-2.11-.21-.41-.36-.85-.44-1.31l-.44-2.63c-.37-2.01.49-4.05,2.19-5.18,28.3-18.54,50.55-42.04,66.75-70.52,1.68-3.03,2.03-6.59.96-9.82-.47-1.4-.73-2.13-.79-2.19-.69-3.1-.54-6.34.44-9.39,5.38-15.61,8.98-37.72,10.79-66.31,1.81-28.19-7.63-49.44-28.33-63.77-5.7-4-7.64-11.56-4.56-17.81,9.3-18.89,11.4-32.22,6.32-40-.99-1.49-3.01-1.9-4.5-.91-.61.4-1.06,1-1.29,1.7-11.46,35.79-16.93,74.5-16.4,116.13.18,12.28-3.74,22.63-11.75,31.05-5.43,5.73-14.01,6.45-19.17,1.61-.13-.12-.26-.25-.39-.38-4.85-4.91-6.9-12.69-6.14-23.33,1.29-18.24,2.05-44.7,2.28-79.38.06-7.19-5.09-28.71-15.44-64.56-6.14-21.4,0-51.93,7.89-75.78,10-30.23,8.3-63.65-5.09-100.26-22.54-61.75-51.22-126.4-81.92-182.71-79.73-146.22-145.43-285.77-148.59-448.39-.29-16.08-7.16-38.54-20.61-67.36-48.83-104.61-87.48-214.52-115.96-329.72-1.22-5.01-1.81-10.17-1.75-15.35.76-53.39-5.06-109.38-17.45-167.97-.81-3.83-.93-7.78-.35-11.67,2.16-14.79,8.48-28.42,18.95-40.87,1.21-1.45,1.05-3.58-.37-4.76-.02-.02-.05-.04-.07-.06l-2.46-1.93c-.74-.58-1.8-.5-2.46.18-13.33,14.09-21.23,30.23-23.68,48.42-.46,3.19-.37,6.43.26,9.56,15.96,81.92,31.05,168.23-2.1,243.58-32.1,72.89-121.75,88.15-193.93,71.93-34.33-7.72-66.72-19.15-97.19-34.3-.39-.22-.88-.1-1.14.26l-2.37,2.98c-.66.84-.51,2.05.33,2.71.09.07.18.13.28.19,69.38,38.86,167.97,65.43,239.98,24.74,13.68-7.72,20.82-11.67,21.4-11.84,1.3-.42,2.67.32,3.07,1.66.17.58.14,1.2-.09,1.76ZM836.67,1027.63c51.4,13.98,106.63,22.95,165.69,26.93,14.91,1.05,31.11,7.69,48.59,19.91,1.75,1.22,4.15.79,5.37-.96.02-.03.04-.06.06-.1l.09-.09c1.23-1.78.85-4.23-.88-5.61-15.96-12.51-29.82-19.38-41.58-20.61-70.11-7.37-129.52-15.32-178.23-23.86-.47-.1-.94.19-1.05.67,0,.01,0,.02,0,.03l-.09.26c-.35,1.53.55,3.04,2.02,3.42ZM1360.32,1027.63c1.42-.38,2.28-1.85,1.93-3.33l-.09-.26c-.13-.41-.54-.68-.96-.61-46.9,8.25-104.12,15.93-171.66,23.07-11.29,1.17-24.62,7.78-40,19.82-1.7,1.32-2.09,3.71-.88,5.44l.09.09c1.11,1.71,3.39,2.19,5.1,1.08.06-.04.11-.08.17-.12,16.84-11.75,32.42-18.16,46.75-19.21,56.9-3.86,110.08-12.51,159.55-25.96ZM1106.79,1987.2c0-3-2.44-5.43-5.45-5.43h-.53c-3,0-5.43,2.44-5.43,5.45l.25,144.73c0,3,2.44,5.43,5.45,5.43h.53c3,0,5.43-2.44,5.43-5.45h0s-.25-144.73-.25-144.73ZM1102.56,2152.96c-6.86.53-11.76,9.45-10.96,19.93.81,10.48,7.02,18.55,13.88,18.02h0c6.86-.53,11.76-9.45,10.96-19.93-.81-10.48-7.02-18.55-13.88-18.02Z"/><path class="cls-1" d="M836.67,1027.63c-1.47-.38-2.36-1.89-2.02-3.42l.09-.26c.09-.48.54-.79,1.02-.71.01,0,.02,0,.03,0,48.71,8.54,108.12,16.49,178.23,23.86,11.75,1.23,25.61,8.1,41.58,20.61,1.73,1.38,2.11,3.83.88,5.61l-.09.09c-1.17,1.78-3.56,2.28-5.34,1.12-.03-.02-.06-.04-.1-.06-17.48-12.22-33.68-18.86-48.59-19.91-59.06-3.98-114.29-12.95-165.69-26.93Z"/><path class="cls-1" d="M1360.32,1027.63c-49.47,13.45-102.65,22.1-159.55,25.96-14.33,1.05-29.91,7.46-46.75,19.21-1.64,1.2-3.95.84-5.15-.8-.04-.05-.08-.11-.12-.17l-.09-.09c-1.21-1.72-.82-4.12.88-5.44,15.38-12.05,28.71-18.65,40-19.82,67.54-7.13,124.76-14.82,171.66-23.07.43-.06.84.2.96.61l.09.26c.35,1.48-.51,2.96-1.93,3.33Z"/><path class="cls-8" d="M1905.81,2927.33c-8.65,2.81-12.63-4.5-11.93-21.93.94-22.22,1.02-51.93.26-89.12-.12-4.94-1.04-9.8-2.72-14.38-13.16-36.49-20.44-67.1-8.33-102.1.35-.99,3.36-13.1,9.03-36.31,1.33-5.34,1.69-10.86,1.05-16.31-9.91-84.12-48.94-160.17-95.08-246.56l107.71,526.72ZM1791.52,2385.7c-3.57-8.25-9.91-20.55-19.03-36.93-37.48-67.31-67.72-136.72-90.7-208.23-10.61-32.89-14.21-53.15-21.58-84.12-7.46-31.31-5.44-53.86-5.44-85.61,0-4.02-.47-8.05-1.4-12.02-7.66-31.17-13.22-50.49-16.67-57.98-39.59-85.55-73.01-173.29-100.26-263.23-3.68-12.37-10.7-15-22.72-14.03l13.59-49.91c.24-.94,1.19-1.51,2.13-1.27.66.17,1.16.69,1.29,1.36,24.5,108.59,61.31,213.41,110.43,314.45,24.91,51.31,23.16,115.43,28.51,162.01,3.57,30.76,17.83,81.37,42.8,151.83,50.26,141.57,158.06,278.23,188.58,423.13,4.82,22.89,4.21,37.63-4.3,61.05-17.63,48.68-8.07,74.82,5.88,127.97,4.27,16.26,4.01,48.15-.79,95.7-.35,3.45.96,9.27,3.95,17.45l-114.29-541.63Z"/><path class="cls-1" d="M1100.95,1981.78h.53c3,0,5.44,2.44,5.44,5.44v144.73c0,3-2.44,5.44-5.44,5.44h-.53c-3,0-5.44-2.44-5.44-5.44v-144.73c0-3,2.44-5.44,5.44-5.44Z" transform="translate(-3.91 2.1) rotate(-.11)"/><path class="cls-1" d="M1102.56,2152.96c6.86-.53,13.07,7.54,13.88,18.02.81,10.48-4.1,19.4-10.96,19.93-6.86.53-13.07-7.54-13.88-18.02h0c-.81-10.48,4.1-19.4,10.96-19.93ZM1098.67,2174.83c.41,1.64.99,2.92,1.75,3.86,1.87,2.4,5.33,2.86,7.74,1.04,1.52-1.15,2.31-3.01,2.09-4.9-.18-2.05-.76-3.65-1.75-4.82-1.95-2.41-5.49-2.78-7.9-.82-1.67,1.36-2.42,3.55-1.93,5.65Z"/><path class="cls-9" d="M1098.67,2174.83c-.71-3.02,1.16-6.04,4.18-6.75,2.1-.49,4.29.25,5.65,1.93.99,1.17,1.58,2.78,1.75,4.82.35,3-1.82,5.67-4.85,5.98-1.91.2-3.8-.61-4.98-2.12-.76-.94-1.34-2.22-1.75-3.86Z"/><path class="cls-8" d="M1018.58,5334.28c-4.09-2.92-6.96-6.17-8.6-9.74-.83-1.86-3.04-2.68-4.93-1.82-.21.09-.4.2-.59.33-17.83,12.4-26.43,24.94-25.79,37.63.22,4.46-1.74,8.77-5.26,11.58-13.16,10.61-50.08,11.05-44.47-15.17,2.05-9.71,9.62-16.93,22.72-21.66,1.2-.43,2.07-1.47,2.28-2.72l.88-4.74c.35-2-.99-3.91-2.99-4.27-.95-.17-1.92.04-2.71.58l-25.09,16.84c-2.99,2.01-4.72,5.47-4.56,9.12l.88,17.45c.15,2.71-1.93,5.02-4.64,5.17-.03,0-.07,0-.1,0l-22.02,1.05c-3.98.21-7.52-2.5-8.33-6.4-6.4-29.38,20.7-25.44,26.58-44.65.55-1.76-.43-3.63-2.19-4.17-1.31-.41-2.74.03-3.6,1.1-5.91,7.6-13.48,13.77-22.72,18.51-3.47,1.71-5.91,4.97-6.58,8.77l-2.89,16.31c-.69,4.21-4.74,7.04-9.04,6.33-.03,0-.05,0-.08-.01l-8.68-1.49c-5.74-1.03-9.72-6.3-9.12-12.1,1.52-15.03,10.55-26.26,27.1-33.68.84-.38,1.2-1.39.8-2.28-.03-.06-.06-.12-.1-.18l-1.4-2.02c-.22-.28-.56-.41-.88-.35-21.69,6.26-33.39,19.21-35.09,38.86-.15,2.42-2.22,4.26-4.64,4.11-1.4-.08-2.67-.83-3.43-2.01l-4.21-6.32c-2.4-3.49-2.8-7.98-1.05-11.84,3.39-7.37,7.86-13.62,13.42-18.77,25.35-23.51,59.65-51.93,73.86-85.96,20.79-49.56,25-80.17,25.96-130.43.44-20.61,12.89-48.86,12.37-68.24-.47-17.07-5.76-44.73-15.88-82.98-45.35-171.92-107.45-380.15-140.43-563.3-19.39-107.98-15.61-219.9.7-350.94,9.24-74.73,14.06-127.13,14.47-157.18,1.05-79.29-11.55-162.5-37.81-249.63-22.57-74.67-52.98-184.64-91.22-329.89-36.14-137.07-60.64-274.63-73.5-412.69-19.94-214.78,7.08-422.19,81.05-622.24.48-1.22,1.82-1.84,3-1.39.22.08.42.2.6.34,8.83,7.02,16.9,14.5,24.21,22.45,131.28,142.39,239.11,300.74,323.49,475.06,11.14,23.07,21.14,35.87,34.65,55.52,1.67,2.41,2.67,5.23,2.89,8.16,11.29,123.21,10.5,245.86-2.37,367.96-14.12,134.64-22.37,266.91-11.75,398.04,8.36,103.33,13.04,172.04,14.03,206.13,1.46,50.58-6.84,118.68-24.91,204.28-3.33,15.73-4.82,42.31-4.47,79.73.53,58.5,7.98,118.94,15.96,179.9,9.24,69.7,9.71,150.96,1.4,243.76-15.17,168.94-22.02,342-6.49,494.97,4.03,39.65,23.86,71.22,22.19,110.78-3.68,88.53-7.08,154.9-10.18,199.11-1.64,23.33-5.18,39.35-10.61,48.07-15.53,24.47-46.4,29.65-68.68,10.53-2.19-1.92-3.28-4.85-2.89-7.81,1.58-10.99,7.49-20.12,17.72-27.37,3-2.16,7.01-2.24,10-.18,1.52,1.05,2.31,1.58,2.37,1.58,1.05.19,2.05-.51,2.24-1.56.13-.76-.19-1.52-.83-1.95Z"/><path class="cls-8" d="M1190.94,5331.91c14.15,6.2,22.1,16.31,23.86,30.35.76,6.32-2.13,10.82-8.68,13.51-31.87,12.98-52.69,5.82-62.45-21.49-10.35-28.95-19.03-68.5-17.72-106.4.94-26.78-.64-64.09-4.74-111.92-1.99-23.86,2.19-50.58,12.54-80.17,23.07-65.87,25.79-133.15,26.49-211.65.7-87.6-3.98-177.82-14.03-270.68-12.63-116.22-17.98-206.39-8.16-295.07,14.74-132.97,25.79-194.55,5.26-301.3-16.49-86.05-28.24-153.85-20.52-238.05,12.54-137.18,22.37-207.44,19.38-313.23-1.87-66.84-8.54-154.55-20-263.14-10.7-101.69-7.46-212.53,9.74-332.52.64-4.51,2.19-8.84,4.56-12.72,29.82-47.98,55.26-103.33,84.03-154.46,62.92-111.98,136.86-218.47,221.83-319.45,25.55-30.41,48.71-54.67,69.47-72.8,2.32-2.06,5.89-1.81,7.96.56.36.41.66.87.9,1.37,77.71,170.78,99.03,376.64,86.57,567.07-7.19,110.23-24.24,223.2-51.14,338.93-29.53,127.24-54.41,223.17-74.64,287.79-32.16,102.86-56.66,190.08-73.5,261.65-22.37,95.34-14.65,193.41.35,315.77,9.12,74.79,13.6,130.34,13.42,166.66-.58,102.57-14.15,209.2-40.7,319.89-31.29,130.46-64.21,262-98.77,394.62-9.12,35.09-15.61,68.77-19.47,101.05-.93,7.87-1.02,15.81-.26,23.68,2.02,21.23,7.28,38.42,6.4,62.54-2.11,58.42,27.1,154.46,71.84,188.5,17.98,13.68,48.59,33.51,31.14,55-1.2,1.46-3.36,1.67-4.82.47-.72-.6-1.17-1.46-1.24-2.4-.93-14.5-10.44-27.75-28.51-39.73-1.02-.63-2.37-.35-3.03.63-.49.72-.47,1.65.05,2.35l25.88,38.33c1.85,2.73,1.13,6.44-1.59,8.28-.68.46-1.45.78-2.27.93l-22.45,4.12c-2.52.49-4.96-1.15-5.45-3.67-.03-.18-.06-.36-.07-.54-1.52-18.24-11.58-32.34-30.17-42.28-.67-.28-1.44.03-1.72.7-.16.37-.14.79.06,1.14l20.09,29.65c3.48,5.21,2.12,12.27-3.07,15.88-7.89,5.44-16.58,7.37-26.05,5.79-3.78-.62-6.6-3.81-6.75-7.63-.76-16.72-11.02-30.9-30.79-42.54-1.55-.89-3.54-.35-4.43,1.2-.13.23-.24.47-.31.73l-.7,2.63c-.39,1.42.31,2.93,1.67,3.6,15.32,7.31,23.19,18.07,23.59,32.28.06,3.07-1.59,5.94-4.3,7.46-9.18,5.15-20,6.61-32.45,4.39-5.64-.97-9.86-5.74-10.18-11.49l-.88-19.12c-.11-2.49-1.41-4.8-3.51-6.23-9.53-6.61-14.62-13.98-15.26-22.1-.19-2.37-2.26-4.13-4.63-3.94-.4.03-.79.12-1.16.26-.41.12-3.16,3.65-8.24,10.61-1.39,1.86-1.01,4.5.86,5.89.28.21.58.38.9.51Z"/><path class="cls-8" d="M600.45,2952.24c33.95,249.46,95.7,465.41,172.01,727.32,21.99,75.55,29.38,156.39,22.19,242.53-6.78-31.64-9.21-64.15-7.28-97.54.47-7.56-.15-15.12-1.84-22.45-9.47-41.84-10.09-78.68-23.51-124.38-36.14-122.92-71.37-250.28-105.69-382.08-12.86-49.24-19.44-74.99-19.74-77.28-6.4-46.31-23.16-99.73-24.12-148.24-.06-2.56-.98-5.03-2.63-7.02-1.81-2.16-3.13-4.94-3.95-8.33-8.95-35.49-10.76-69.67-5.44-102.54Z"/><path class="cls-8" d="M1932.21,3009.87l-27.54,38.16c-2.03,2.85-2.49,6.54-1.23,9.82,3.28,8.54,8.71,16.17,16.31,22.89,5.71,5.02,14.32,4.75,19.65-.61l18.77-18.68c.71-.72,1.88-.73,2.61-.02.49.48.67,1.2.46,1.86l-3.16,11.23c-2.46,8.52,2.45,17.42,10.96,19.88,6.2,1.79,12.87-.3,16.93-5.32l29.21-35.52c-.53,21.52-9.97,37.22-28.33,47.1-9.01,4.85-19.88,1.99-32.63-8.6-1.78-1.44-4.09-2.02-6.32-1.58l-17.28,3.25c-.47.12-.91.18-1.32.18-14.91.53-18.86-12.28-25.52-20.26-7.66-9.24-9.74-19.18-6.23-29.82,7.31-22.4,18.86-33.71,34.65-33.95Z"/><path class="cls-8" d="M1118.93,3249.85c14.56,130.23,15.23,259.95,2.02,389.19-7.13.76-10.73-2.57-10.79-10-.09-21.84-4.04-41.84,0-63.33,15.73-83.91,14.41-167.59-3.95-251.04-.58-2.62-.82-5.3-.7-7.98.64-16.2,1.32-32.66,2.02-49.38.23-6.08,4.04-8.57,11.4-7.46Z"/><path class="cls-8" d="M775.7,4352.15c11.17,70,25.23,138.41,42.19,205.25,36.31,143.27,74.09,286.24,113.33,428.92,9.24,33.68,7.63,70.43-4.82,110.26-1.05,1.29-2.37,1.46-3.95.53-3.86-2.4-5.23-5.97-4.12-10.7,3.92-17.37,6.87-34.41,8.86-51.14.64-5.4.4-10.82-.7-16.05-9.47-44.73-13.86-74.03-24.3-108.85-19.12-63.39-58.65-216.42-118.59-459.09-9.82-39.59-12.45-72.63-7.89-99.12Z"/><path class="cls-2" d="M808.5,3882.62c-.41,30.06-5.23,82.45-14.47,157.18-16.31,131.04-20.09,242.97-.7,350.94,32.98,183.15,95.08,391.38,140.43,563.3,7.51,28.39,12.36,50.95,14.55,67.67,4.6,4.23,24.44,21.54,55.07,21.88,31.8.35,52.51-17.83,56.92-21.88-.72-4.21-2.23-10.66-3.04-18.64-15.53-152.97-8.68-326.03,6.49-494.97,8.3-92.8,7.84-174.05-1.4-243.76-7.98-60.96-15.44-121.4-15.96-179.9-.35-37.42,1.14-64,4.47-79.73,18.07-85.61,26.37-153.7,24.91-204.28-.52-17.85-2.05-45.22-4.6-82.06-23.65,12.43-72.25,33.95-137.21,34.43-67.46.5-117.9-21.94-141.66-34.43,7.54,38.14,17.14,95.04,16.2,164.25Z"/><path class="cls-2" d="M1410.19,3718.82c-25.39,12.62-73.95,32.59-137.98,33.55-69.33,1.04-121.79-20.74-147.58-33.55-.49,4.48-1.1,11.74-1.91,20.66-7.72,84.21,4.03,152.01,20.52,238.06,20.53,106.75,9.47,168.32-5.26,301.3-9.82,88.68-4.47,178.85,8.16,295.07,10.06,92.86,14.74,183.09,14.03,270.68-.58,65.04-2.56,122.37-16.33,177.58,5.11,4.5,27.41,23.1,61.11,22.58,31.93-.49,52.92-17.84,58.31-22.58,1.33-10.28,3.67-26.96,7.67-47.39,3.16-16.12,6.91-32.55,11.27-49.31,34.56-132.62,67.48-264.16,98.77-394.62,26.55-110.69,40.11-217.33,40.7-319.89.18-36.31-4.3-91.87-13.42-166.66-15-122.36-22.72-220.42-.35-315.77.75-3.2,1.53-6.44,2.31-9.7Z"/><path class="cls-2" d="M1082.29,2929.17c-.07-11.35-.26-34.66-.97-58.87-.07-2.35-.61-8.8-1.69-21.71-.68-8.14-1.37-15.67-5.07-24.61-.64-1.55-1.23-2.81-1.65-3.67-13.51-19.65-23.51-32.45-34.65-55.52-84.38-174.32-192.21-332.67-323.49-475.06-7.31-7.95-15.38-15.44-24.21-22.45-.18-.14-.38-.26-.6-.34h0s-1.49,0-3,1.39c-9.16,8.46-28.36,82.99-28.36,82.99-1.34,5.21-2.92,10.91-6.07,22.31-4.38,15.87-8.06,28.62-10.37,36.54,46.07,65.85,96.86,133.85,152.84,203.11,97.05,120.07,194.36,224.94,287.26,315.88Z"/><path class="cls-2" d="M1569.16,2399.75c-6.07-20.73-13.91-45.9-23.74-74.06-24.68-70.66-22.02-45.93-24.75-52.8-.07-.18-.36-.76-.9-1.37-2.08-2.37-5.64-2.62-7.96-.56-20.76,18.13-43.91,42.4-69.47,72.8-81.82,97.36-149.81,189.87-221.83,319.45-24.96,44.91-33.64,61.62-33.64,61.62-10.68,20.55-17.41,34.58-26.03,48.94-3.17,5.28-7.84,12.7-13.21,23.31-2.94,5.81-3.39,7.24-5.83,11.26-3.57,5.88-5.87,8.2-7.89,13.7-.28.76-.77,2.19-2.01,8.1-1.72,8.27-2.7,14.8-3.3,18.93-1.33,9.07-1.99,13.6-2.65,18.82-2.95,23.3-5.38,56.22-5.69,60.45,87.06-81.17,180.39-177.88,273.72-291.8,67.02-81.81,125.05-161.52,175.18-236.79Z"/><path class="cls-4" d="M1073.52,3196.26c2.65-25.25,3.53-35.12,5.33-59.89,6.32-86.91,5.41-158.37,3.43-207.2-27.03-26.23-62.29-61.34-102.46-103.84-20.67-21.87-90.7-96.54-176.2-201.71-48.24-59.34-103.25-130.64-161.45-213.45-7.81,31.26-17.66,75.24-25.82,128.39-7.4,48.2-27.18,171.26-10.36,351.84,12.87,138.06,37.37,275.63,73.5,412.69,38.24,145.25,68.65,255.22,91.22,329.89,8.71,28.89,15.9,57.35,21.61,85.38,23.86,12.36,73.3,33.94,139.31,33.97,66.15.03,115.69-21.61,139.56-33.97-.74-11.03-1.87-27.54-3.35-47.6-3.05-41.22-5.62-70.92-6.08-76.47-9.9-118.17,7.83-360.65,11.75-398.04Z"/><path class="cls-4" d="M1556.09,3179.09c19.73-84.99,43.53-201.1,51.14-338.92,5.78-104.81,3.36-256.74-38.07-440.42-66.74,100.97-148.67,211.22-248.77,324.14-68.08,76.8-135.58,144.71-200.13,204.44-2.55,29.59-5.36,74.6-4.38,129.57.88,49.48,4.46,86.04,6.29,105.23,2.03,21.33,17.46,172.98,20,263.14,2.83,100.34-5.86,168.72-17.47,292.56,25.37,12.61,74.65,32.92,139.73,33.54,68.45.65,120.21-20.82,145.82-33.54,16.28-56.17,37.67-144.9,71.2-251.95,20.23-64.62,45.11-160.54,74.64-287.79Z"/><path class="cls-3" d="M1106.54,2365.14c-149.98,0-290.69-40.04-412.17-110.08.35,1.18.98,2.28,1.89,3.17,37.19,35.32,72.04,73.3,104.56,113.94,100.64,125.55,185.4,260.69,254.28,405.41,1.23,2.51,8.74,12.95,22.54,31.31,1.5,2.01,3.83,3.28,6.4,3.51l35.35,2.54c3.18.22,6.21-1.33,7.89-4.03,17.6-28.36,27.05-43.83,28.33-46.4,69.59-141.63,153.56-273.29,251.91-394.97,31.4-38.86,62.1-69.03,102.1-108.41.5-.5.93-1.05,1.29-1.63-119.69,67.3-257.6,105.65-404.39,105.65Z"/><path class="cls-5" d="M1510.88,2250.39c-48.36-92.98-75.17-144.73-80.43-155.25-24.44-48.65-30.29-101.81-17.54-159.46,34.62-157.07,55.2-243.52,61.75-259.37.23-.56.26-1.18.09-1.76-.4-1.34-1.78-2.09-3.07-1.66-.59.18-7.72,4.12-21.4,11.84-72.01,40.7-170.6,14.12-239.98-24.74-.1-.05-.2-.12-.28-.19-.19-.15-.33-.32-.45-.51-.09-.03-.19-.06-.28-.09,0,0-.14-.05-.28-.09-34.84-11.29-80.11-13.88-80.11-13.88-22.89-1.31-58.88-3.11-104.09,7.21-16.22,3.7-29.53,8.02-39.02,11.46-81.38,46.14-189.8,62.62-261.25-12.06-.76-.84-1.94-1.16-3.02-.82-1.52.48-2.37,2.11-1.89,3.63,29.65,98.77,53.21,196.89,70.7,294.37,9.42,52.28,1.43,102.51-23.95,150.69-30.17,57.31-54.24,107.48-72.19,150.52-.67,1.62-.71,3.37-.23,4.98,106.03,61.13,226.71,99.4,355.42,108.14v-13.01c-.2-1.79-.31-3.61-.31-5.45v-360.29c0-25.68,19.7-46.98,44.74-49.53,1.76-.19,3.55-.3,5.37-.3h0c27.38,0,49.79,22.41,49.79,49.79v379.6c130.77-6.69,253.58-43.81,361.56-104.52,1.73-2.75,1.92-6.27.37-9.25Z"/><path class="cls-2" d="M1098.86,1933.97c-27.38,0-49.79,22.41-49.79,49.79-.02,126.4-.03,252.8-.05,379.2,6.1.44,14.24.97,23.85,1.41,8.85.4,23.01,1.03,41.4.9,9.28-.06,20.92-.33,34.38-1.08v-380.43c0-27.38-22.41-49.79-49.79-49.79Z"/><path class="cls-5" d="M513.16,2097.41c9.91-40.87,13.68-89.03,17.37-130.78.92-10.41,4.85-36.75,16.84-69.21,4.68-12.68,9.4-22.86,12.8-29.75-18.07.58-47.05-.72-80.16-12.37-31.25-11-53.7-26.84-67.29-38.1-5.96,27.73-14.38,50.12-22.27,67.29-13.2,28.73-20.81,33.9-40.57,72.74-7.92,15.55-18.3,36.13-28.2,64.32-3.65,10.38-8.7,29.35-18.8,67.29-2.4,9.02-8.58,32.35-14.84,60.37-5.67,25.37-6.54,32.74-6.93,36.62-.37,3.71-1.03,11.41-2.75,22.1-1.25,7.79-2.47,13.48-2.69,14.52-2.25,10.73-21.23,116.06-71.12,396.42,5.43,3.33,13.61,7.6,24.23,10.48,9.74,2.64,17.41,3,24.23,3.27,8.62.35,20.81.08,35.35-2.83,8.34-45.58,26.44-88.56,47.45-132.68,56.05-118.06,142.27-255.6,177.36-399.71Z"/><path class="cls-5" d="M1836.2,1906.94c-16.03-30.57-19.41-37.71-22.39-44.53-4.67-10.68-10.76-26.04-16.34-45.46-10.81,14.02-31.5,37.12-64.7,55.08-30.85,16.69-59.29,21.81-76.5,23.57,16.24,42.93,16.81,60.77,16.81,60.77.03.87.04,1.45.03,1.97,0,1.4-.06,2.43-.07,2.63-.11,2.2-.07,14.26.04,18.42.88,33.88,7,68.61,7,68.61,2.77,15.74,6.34,29.89,13.49,58.2,3.82,15.14,7.37,28.59,9.19,34.93,14.49,50.37,31.56,88.21,39.34,105.16,22.97,50.02,47.43,97.5,79.56,158.47,48.36,91.78,61.48,126.82,81.92,182.71,7.39,20.19,11.21,39.41,11.48,57.66,19.79,6.89,34.98,6.91,43.87,6.12,5.26-.47,10.5-1.41,12.75-1.82,13.33-2.43,24.01-5.97,31.36-8.8-50.61-288.41-71.84-419.3-80.42-479.62-1.19-8.34-4.67-33.2-12.4-65.8-4.19-17.65-21.73-90.07-53.73-149.95-1-1.87-9.26-17.29-20.29-38.32Z"/><path class="cls-4" d="M620.16,1025.53c-27.21,13.71-44.37,30.62-50.86,37.23-25.12,25.58-36.25,51.13-38.84,57.31-2.92,6.97-5.35,13.95-9.86,31.77-10.32,40.8-15.56,74.52-17.83,90.22-4.42,30.65-8.47,58.69-9.26,96.55-.52,24.97.77,35.38-.66,64.14-.93,18.79-2.62,37.26-3.45,54.23-.05,1.05-.19,3.98-.61,7.89-.55,5.15-1.59,11.92-3.63,19.66-2.18,8.25-4.6,14.12-5.16,15.5-15.45,38.4-38.59,154.38-38.59,154.38-8.83,44.25-18.91,99.06-28.7,162.79,13.56,10.97,34.16,25.06,61.85,35.63,35.08,13.38,66.17,15.23,85.6,14.84,6.13-12.82,13.98-29.62,22.76-49.48,4.3-9.72,19.21-43.67,38.75-94.57,0,0,18.57-46.6,39.8-115.32,1.23-3.98,5.29-21.96,12.19-53.94,1.51-6.81,2.13-13.83,1.84-20.88-1.4-33.33-.41-62.8,2.98-88.42,6.61-49.7,10.03-77.07,10.26-82.1.8-6.83-.29-13.75-3.16-20l-11.23-24.56c-.65-1.31-.28-2.89.87-3.79,1.34-1.04,3.27-.8,4.31.54,8.94,10.64,14.27,19.97,16.9,30.16,11.58-53.77,19.52-152.75,13.96-342.68-44.78,7.51-74.87,15.14-90.24,22.89Z"/><path class="cls-4" d="M1789.38,1776.25c-4.92-28.57-5.19-39.41-8.7-62.1-1.65-10.68-6.18-30.57-15.24-70.34-8.11-35.6-13.57-57.75-18.65-77.26-3.6-13.86-5.47-21-8.56-31.37-6.69-22.43-9.77-28.59-13.58-43.3-1.01-3.88-4.4-17.72-6.93-40.44-.18-1.58-2.43-53.83-6.75-156.74-5.26-125.08-29.12-252.09-173.15-282-.57-.12-8.62-1.49-24.16-4.09-8.47,72.02-8.59,126.98-6.98,164.64,0,0,6.44,150.71,4.64,166.61-.02.14-.49,4.32,0,4.45.32.08.98-2.42,2.65-5.96.46-.98,1.38-2.61,3.22-5.86,1.76-3.13,2.66-4.71,3.5-5.96,1.02-1.51,1.84-2.56,3.3-4.41,1.91-2.42,1.82-2.11,3.8-4.55.64-.78,1.44-1.42,2.07-2.21.2-.25.43-.55.86-.73.7-.29,1.44-.04,1.87.16.68.58,1.37,1.16,2.05,1.74.32.17.84.51,1.2,1.12.88,1.49,0,3.27-.12,3.53-.31.6-2.23,2.81-3.02,3.83-.97,1.26-3.56,4.92-4.09,5.7-.44.65-.76,1.18-1.16,1.86-1.12,1.92-2.24,3.83-3.18,5.66-4.06,7.88-6.2,15.91-6.2,15.91-1.12,4.21-1.47,7.05-1.57,7.85-.48,4.08-.3,6.85-.25,7.56.18,2.38.55,4.12.64,4.53,2.17,10.47,19.78,152.9,17.69,167.6,0,0-.57,7.67.79,12.05.25.81.52,1.3.72,2.04.19.69.24,1.22.24,1.27,4.88,35.89,31.02,116.26,31.02,116.26,38.36,117.96,76.29,196.46,84.5,213.28,1.88,3.86,3.44,7,4.44,9.01,16.86-1.63,44.26-6.4,74.09-22.01,8.83-4.62,35.73-19.54,60.44-48.42,2.85-3.33,5.11-6.19,6.67-8.22-2.12-9.34-5.13-23.43-8.1-40.71Z"/><path class="cls-6" d="M1338.74,957.03c-97.36-37.28-123.68-119.9-114.12-214.55.07-.91-.27-1.8-.92-2.43-1.21-1.18-3.16-1.15-4.34.06-21.58,23.21-45.84,41.2-72.8,53.94-58.33,27.45-117.27-5.7-158.76-48.77-.49-.53-1.2-.81-1.92-.74-1.31.13-2.3,1.32-2.2,2.67,2.75,27.78,1.55,56.78-3.6,87.01-11.82,69.5-61.87,101.93-123.03,125.69,61.31,52.83,148.16,85.8,244.48,85.8s183.26-33.01,244.58-85.89c-2.43-.92-4.88-1.86-7.36-2.81Z"/><ellipse class="cls-2" cx="693.1" cy="1326.99" rx="134.35" ry="143.51"/><ellipse class="cls-2" cx="1530.81" cy="1322.85" rx="134.35" ry="143.51"/><path class="cls-5" d="M1006.29,5043.94h0c-7.91-.11-20.5-1.29-34.51-7.26-10.29-4.38-17.98-9.92-23.19-14.34.31,2.8.64,6.43.88,10.68,0,0,.13,2,.19,3.99.53,19.38-11.93,47.63-12.37,68.24-.96,50.26-5.17,80.87-25.96,130.43-14.21,34.03-48.51,62.45-73.86,85.96-5.55,5.15-10.03,11.4-13.42,18.77-1.75,3.86-1.35,8.35,1.05,11.84l4.21,6.32c.76,1.18,2.03,1.93,3.43,2.01,2.42.15,4.49-1.7,4.64-4.11,1.7-19.65,13.39-32.6,35.09-38.86.32-.06.66.08.88.35l1.4,2.02c.04.06.07.12.1.18.4.88.04,1.9-.8,2.28-16.55,7.43-25.58,18.65-27.1,33.68-.6,5.8,3.38,11.08,9.12,12.1l8.68,1.49s.05,0,.08.01c4.3.71,8.35-2.12,9.04-6.33l2.89-16.31c.67-3.81,3.11-7.07,6.58-8.77,9.24-4.74,16.81-10.91,22.72-18.51.86-1.08,2.29-1.51,3.6-1.1,1.76.55,2.74,2.42,2.19,4.17-5.88,19.21-32.98,15.26-26.58,44.65.82,3.9,4.36,6.62,8.33,6.4l22.02-1.05s.07,0,.1,0c2.71-.15,4.79-2.46,4.64-5.17l-.88-17.45c-.16-3.65,1.57-7.11,4.56-9.12l25.09-16.84c.79-.54,1.77-.75,2.71-.58,2,.35,3.34,2.26,2.99,4.27l-.88,4.74c-.21,1.25-1.08,2.29-2.28,2.72-13.1,4.74-20.67,11.96-22.72,21.67-5.61,26.23,31.31,25.79,44.47,15.17,3.52-2.81,5.48-7.12,5.26-11.58-.64-12.69,7.95-25.23,25.79-37.63.19-.13.38-.24.59-.33,1.9-.85,4.11-.04,4.93,1.82,1.64,3.57,4.5,6.81,8.6,9.74.64.42.97,1.19.83,1.95-.19,1.05-1.19,1.75-2.24,1.56-.06,0-.85-.53-2.37-1.58-2.99-2.06-7-1.99-10,.18-10.23,7.25-16.14,16.37-17.72,27.37-.39,2.96.7,5.89,2.89,7.81,10.11,8.68,21.99,12.35,33.41,11.49,21.05-1.59,33.35-19.26,35.27-22.01,4.03-5.75,6.62-11.9,10.6-48.07,3.46-31.47,4.62-55.08,4.83-59.58.94-19.92,1.15-33.11,1.44-46.2,1.84-81.66,5.35-85.49,2.89-111.17-1.69-17.71-6-43.43-18.15-74.29-5.05,4.49-12.92,10.45-23.72,15.11-12.19,5.26-23.14,6.73-30.28,7.12Z"/><path class="cls-5" d="M1340.75,5300.77c-44.73-34.03-73.94-130.08-71.84-188.5,1.16-32.08-6.32-55.81-6.4-62.54-.14-11.51.31-21.04.75-27.57-5.39,4.77-14.37,11.55-27.03,16.43-13.5,5.2-25.42,6.02-32.8,5.96-7.32.1-19.35-.65-32.96-5.96-12.52-4.89-21.35-11.69-26.62-16.43-2.94,8.51-6.6,19.94-10.1,33.63-3.19,12.47-15.89,41.06-12.54,80.17,4.09,47.83,5.67,85.14,4.74,111.92-1.32,37.89,7.37,77.45,17.72,106.4,9.77,27.31,30.58,34.47,62.45,21.49,6.55-2.69,9.44-7.19,8.68-13.51-1.75-14.03-9.71-24.15-23.86-30.35-.32-.13-.62-.3-.9-.51-1.86-1.39-2.25-4.03-.86-5.89,5.09-6.96,7.84-10.5,8.24-10.61.37-.14.77-.23,1.16-.26,2.37-.19,4.44,1.58,4.63,3.94.64,8.13,5.73,15.5,15.26,22.1,2.1,1.43,3.4,3.74,3.51,6.23l.88,19.12c.32,5.75,4.54,10.52,10.18,11.49,12.45,2.22,23.27.76,32.45-4.39,2.71-1.52,4.36-4.38,4.3-7.46-.41-14.21-8.27-24.97-23.59-32.28-1.36-.67-2.06-2.18-1.67-3.6l.7-2.63c.07-.25.18-.5.31-.73.89-1.55,2.87-2.09,4.43-1.2,19.76,11.64,30.03,25.82,30.79,42.54.16,3.82,2.98,7.01,6.75,7.63,9.47,1.58,18.16-.35,26.05-5.79,5.19-3.6,6.55-10.67,3.07-15.88l-20.09-29.65c-.19-.35-.21-.77-.06-1.14.28-.67,1.05-.98,1.72-.7,18.6,9.94,28.65,24.03,30.17,42.28.01.18.04.36.07.54.49,2.52,2.93,4.16,5.45,3.67l22.45-4.12c.81-.15,1.58-.46,2.27-.93,2.73-1.85,3.44-5.56,1.59-8.28l-25.88-38.33c-.52-.7-.54-1.63-.05-2.35.66-.98,2.01-1.26,3.03-.63,18.07,11.99,27.57,25.23,28.51,39.73.07.93.51,1.8,1.24,2.4,1.46,1.2,3.61.99,4.82-.47,17.45-21.49-13.16-41.31-31.14-55Z"/><path class="cls-2" d="M285.37,2671.69c-1.28-4.88-1.69-9.92-1.23-14.91.62-7.27,1.52-14.46,2.65-21.58-17.75,3.21-36.41,3.03-55.12-1.11h0c-9.86-2.18-19.24-5.36-28.07-9.4-3.76,17.66-7.56,35-11.38,52-7.6,33.86-27.34,95.46-59.21,184.81-3.74,10.47-1.87,21.99,5.61,34.56,2.13,3.57,3.34,7.58,3.51,11.67,3.33,66.72,28.3,125.52,74.91,176.39,1.75,1.87,4.3,2.31,7.63,1.32.11-.03.23-.07.34-.11,3.66-1.26,5.63-5.18,4.4-8.75-8.77-25.38-21.05-52.48-36.84-81.31-6.23-11.23-20.17-58.94-5.88-73.42,1.93-1.93,3.17-4.47,3.51-7.19,4.91-44.03,10.09-51.75,32.89-83.68,1.7-2.41,2.06-5.54.97-8.33-3.98-9.88-5.73-19.53-5.26-28.95.09-2.01,1.46-3.74,3.4-4.28,2.47-.69,5.04.76,5.73,3.23,11.14,39.91,6.75,90.35,10.79,129.82.94,9.37,8.62,16.64,18.07,17.1l.79.09c.57.03,1.15.02,1.72-.01,8.22-.54,14.44-7.64,13.9-15.86-4.15-59.88,3.1-116.98,21.75-171.3,4.35-12.64,4.87-26.28,1.49-39.21l-11.05-41.58Z"/><path class="cls-2" d="M1945.07,3010.67c17.71-20.16,34.17-34.67,36.75-32.4,2.58,2.27-9.68,20.45-27.39,40.62-17.71,20.16-34.17,34.67-36.75,32.4-2.58-2.27,9.68-20.45,27.39-40.62Z"/><path class="cls-2" d="M2003.05,2640.63c-.93.45-2.42,1.12-4.31,1.79-2.4.85-4.26,1.27-4.96,1.43-7.49,1.71-17.29,4.64-25.55,6.15-3.06.56-5.59.86-6.06.92-1,.12-2.06.23-3.22.33-6.38.54-11.25.19-14.08-.02-13.09-.96-25.97-4.9-30.38-6.32.11,2.69.12,5.94-.12,9.61-.1,1.59-.35,4.9-1.03,9.1-.54,3.34-.7,3.27-2.21,10.31-1.57,7.34-1.73,8.99-3.01,12.42-1.05,2.81-2.08,4.72-2.49,5.54-4.14,8.09-5.64,19.84-6.31,25.07-1.3,10.19-3.32,26.03.91,45.17,2.22,10.06,5.62,18.54,10.06,36.68.73,2.97,1.2,5.1,2.13,9.37,2.68,12.18,3.08,15.69,3.24,18.5.25,4.24.02,7.44-.17,9.81-1.81,23.13-.66,46.42-2.11,69.57,0,0-1.06,15.89,6.14,23.33.13.13.26.26.39.38,5.16,4.84,13.74,4.12,19.17-1.61,8.01-8.42,11.93-18.77,11.75-31.05-.53-41.63,4.94-80.35,16.4-116.13.23-.69.68-1.29,1.29-1.7,1.49-.99,3.51-.59,4.5.91,5.09,7.78,2.98,21.11-6.32,40-3.08,6.25-1.14,13.81,4.56,17.81,20.7,14.33,30.14,35.58,28.33,63.77-1.81,28.59-5.41,50.7-10.79,66.31-.98,3.04-1.13,6.28-.44,9.39.06.06.32.79.79,2.19,1.06,3.24.71,6.8-.96,9.82-16.2,28.48-38.45,51.98-66.75,70.52-1.7,1.13-2.57,3.17-2.19,5.18l.44,2.63c.08.45.23.89.44,1.31,1.21,2.38,4.11,3.32,6.49,2.11,28.71-14.15,50.61-36.75,65.7-67.8,1.28-2.61,2.14-5.43,2.54-8.33,2.4-19.12,9.24-39.15,20.52-60.08,1.59-2.9,2.18-6.24,1.67-9.47-1.34-8.01-1.93-13.95-1.75-17.81-.07-1.36.97-2.51,2.32-2.59,1.36-.07,2.51.97,2.59,2.32,4.85,27.37.12,50.93-14.21,70.7-1.9,2.58-3.08,5.64-3.42,8.86-3.51,34.12-26.31,67.19-34.65,85.96-.18.41-.32.84-.41,1.29-.72,3.51,1.54,6.94,5.05,7.66l.26.09c4.88.96,9.87-.99,12.81-5,31.49-43.86,65.26-98.41,72.01-150.96,2.05-15.96,5.03-33.13,8.95-51.49.92-4.24.61-8.62-.88-12.63-19.4-52.26-62.41-219.36-62.69-221.31Z"/><path class="cls-2" d="M1111.39,563.18h-8.91c-38.69,0-70.06,31.37-70.06,70.06v140.01c39.69,25.67,87.54,32.88,132.94,1.8,5.55-3.8,10.91-7.74,16.09-11.79v-130.01c0-38.69-31.37-70.06-70.06-70.06Z"/><path class="cls-5" d="M1143.49,570.99c22.54,11.64,37.96,35.15,37.96,62.27v129.98c47.35-37.07,79.42-84.8,96.18-143.2,7.66-26.84,12.22-42.01,13.68-45.52,8.37-20.38,23.43-53.43,24.81-79.68-19.9,16.49-49.64,37.39-89.45,53.7-31.81,13.04-60.72,19.32-83.18,22.45Z"/><path class="cls-5" d="M894.44,504.95c1.54,8.37,3.95,20.08,7.6,33.93,2.87,10.87,5.25,18.28,9.6,31.77,9.34,28.92,11.26,31.5,20.4,59.85,1.83,5.67,3.15,9.91,5.53,16.39,5.83,15.87,11.49,27.38,12.86,30.14,13.21,26.61,28.46,45.19,36.34,54.69,5.71,6.87,12.08,14.49,22,23.4,8.95,8.04,17.26,13.98,23.65,18.13v-139.98c0-26,14.18-48.68,35.21-60.77-21.2-.69-51.42-4.08-85.42-16.31-41-14.75-70.21-36.13-87.77-51.25Z"/><g class="cls-7"><path class="cls-2" d="M1148.75,1071.83c1.11,1.71,3.39,2.19,5.1,1.08.06-.04.11-.08.17-.12,16.84-11.75,32.42-18.16,46.75-19.21,56.9-3.86,110.08-12.51,159.55-25.96,1.42-.38,2.28-1.85,1.93-3.33l-.09-.26c-.13-.41-.54-.68-.96-.61-46.9,8.25-104.12,15.93-171.66,23.07-11.29,1.17-24.62,7.78-40,19.82-1.7,1.32-2.09,3.71-.88,5.44l.09.09Z"/><path class="cls-2" d="M1050.95,1074.47c1.75,1.22,4.15.79,5.37-.96.02-.03.04-.06.06-.1l.09-.09c1.23-1.78.85-4.23-.88-5.61-15.96-12.51-29.82-19.38-41.58-20.61-70.11-7.37-129.52-15.32-178.23-23.86-.47-.1-.94.19-1.05.67,0,.01,0,.02,0,.03l-.09.26c-.35,1.53.55,3.04,2.02,3.42,51.4,13.98,106.63,22.95,165.69,26.93,14.91,1.05,31.11,7.69,48.59,19.91Z"/><path class="cls-2" d="M984.46,1659.25c1.24-.58,2.71-.07,3.33,1.14l.18.35c.43.85.24,1.85-.39,2.51,9.35-3.32,22-7.34,37.22-10.81,45.21-10.31,81.2-8.52,104.09-7.21,0,0,45.27,2.59,80.11,13.88.14.05.28.09.28.09.09.03.18.06.28.09.11.18.24.34.41.48-.52-.68-.55-1.65,0-2.36l2.37-2.98c.26-.37.75-.48,1.14-.26,30.47,15.15,62.86,26.58,97.19,34.3,72.19,16.23,161.83.96,193.93-71.93,33.16-75.35,18.07-161.66,2.1-243.58-.64-3.13-.73-6.37-.26-9.56.9-6.64,2.52-12.99,4.87-19.08,0,0,0,0,0,0-.49-.12-.02-4.31,0-4.45,1.8-15.9-4.64-166.61-4.64-166.61-1.61-37.6-1.49-92.43,6.94-164.25-6.98-1.17-15.48-2.59-25.5-4.27-31.67-5.26-79.3-19.98-142.9-44.16-61.27,52.44-147.78,85.15-243.7,85.15s-182.39-32.69-243.66-85.11c-2.66,1.04-5.34,2.06-8.04,3.07-50.99,19.12-97.39,32.13-139.2,39.03-.07.01-.14.02-.21.04,5.55,189.85-2.39,288.8-13.97,342.56-.11-.42-.23-.84-.35-1.26-.05.27-.09.55-.14.82,3.09,11.47,2.73,23.99.19,40.71-10.18,67.8-20.88,129.9.7,198.23,43.68,138.24,183.67,123.06,287.61,75.43ZM1149.54,1066.31c15.38-12.05,28.71-18.65,40-19.82,67.54-7.13,124.76-14.82,171.66-23.07.43-.06.84.2.96.61l.09.26c.35,1.48-.51,2.96-1.93,3.33-49.47,13.45-102.65,22.1-159.55,25.96-14.33,1.05-29.91,7.46-46.75,19.21-.05.04-.11.08-.17.12-1.71,1.11-3.99.63-5.1-1.08l-.09-.09c-1.21-1.72-.82-4.12.88-5.44ZM834.64,1024.21l.09-.26s0-.02,0-.03c.1-.47.57-.77,1.05-.67,48.71,8.54,108.12,16.49,178.23,23.86,11.75,1.23,25.61,8.1,41.58,20.61,1.73,1.38,2.11,3.83.88,5.61l-.09.09s-.04.06-.06.1c-1.22,1.75-3.63,2.18-5.37.96-17.48-12.22-33.68-18.86-48.59-19.91-59.06-3.98-114.29-12.95-165.69-26.93-1.47-.38-2.36-1.89-2.02-3.42Z"/><path class="cls-2" d="M1516.61,1372.64s0,.03,0,.05"/></g></svg>