<?xml version="1.0" encoding="UTF-8"?><svg id="_Слой_1" xmlns="http://www.w3.org/2000/svg" viewBox="0 0 2200 5500"><defs><style>.cls-1{fill:#010101;}.cls-2{fill:#e4c1d6;}.cls-3{opacity:.24;}</style></defs><path class="cls-1" d="M836.67,1027.63c-1.47-.38-2.36-1.89-2.02-3.42l.09-.26c.09-.48.54-.79,1.02-.71.01,0,.02,0,.03,0,48.71,8.54,108.12,16.49,178.23,23.86,11.75,1.23,25.61,8.1,41.58,20.61,1.73,1.38,2.11,3.83.88,5.61l-.09.09c-1.17,1.78-3.56,2.28-5.34,1.12-.03-.02-.06-.04-.1-.06-17.48-12.22-33.68-18.86-48.59-19.91-59.06-3.98-114.29-12.95-165.69-26.93Z"/><path class="cls-1" d="M1360.32,1027.63c-49.47,13.45-102.65,22.1-159.55,25.96-14.33,1.05-29.91,7.46-46.75,19.21-1.64,1.2-3.95.84-5.15-.8-.04-.05-.08-.11-.12-.17l-.09-.09c-1.21-1.72-.82-4.12.88-5.44,15.38-12.05,28.71-18.65,40-19.82,67.54-7.13,124.76-14.82,171.66-23.07.43-.06.84.2.96.61l.09.26c.35,1.48-.51,2.96-1.93,3.33Z"/><g class="cls-3"><path class="cls-2" d="M1148.75,1071.83c1.11,1.71,3.39,2.19,5.1,1.08.06-.04.11-.08.17-.12,16.84-11.75,32.42-18.16,46.75-19.21,56.9-3.86,110.08-12.51,159.55-25.96,1.42-.38,2.28-1.85,1.93-3.33l-.09-.26c-.13-.41-.54-.68-.96-.61-46.9,8.25-104.12,15.93-171.66,23.07-11.29,1.17-24.62,7.78-40,19.82-1.7,1.32-2.09,3.71-.88,5.44l.09.09Z"/><path class="cls-2" d="M1050.95,1074.47c1.75,1.22,4.15.79,5.37-.96.02-.03.04-.06.06-.1l.09-.09c1.23-1.78.85-4.23-.88-5.61-15.96-12.51-29.82-19.38-41.58-20.61-70.11-7.37-129.52-15.32-178.23-23.86-.47-.1-.94.19-1.05.67,0,.01,0,.02,0,.03l-.09.26c-.35,1.53.55,3.04,2.02,3.42,51.4,13.98,106.63,22.95,165.69,26.93,14.91,1.05,31.11,7.69,48.59,19.91Z"/><path class="cls-2" d="M984.46,1659.25c1.24-.58,2.71-.07,3.33,1.14l.18.35c.43.85.24,1.85-.39,2.51,9.35-3.32,22-7.34,37.22-10.81,45.21-10.31,81.2-8.52,104.09-7.21,0,0,45.27,2.59,80.11,13.88.14.05.28.09.28.09.09.03.18.06.28.09.11.18.24.34.41.48-.52-.68-.55-1.65,0-2.36l2.37-2.98c.26-.37.75-.48,1.14-.26,30.47,15.15,62.86,26.58,97.19,34.3,72.19,16.23,161.83.96,193.93-71.93,33.16-75.35,18.07-161.66,2.1-243.58-.64-3.13-.73-6.37-.26-9.56.9-6.64,2.52-12.99,4.87-19.08,0,0,0,0,0,0-.49-.12-.02-4.31,0-4.45,1.8-15.9-4.64-166.61-4.64-166.61-1.61-37.6-1.49-92.43,6.94-164.25-6.98-1.17-15.48-2.59-25.5-4.27-31.67-5.26-79.3-19.98-142.9-44.16-61.27,52.44-147.78,85.15-243.7,85.15s-182.39-32.69-243.66-85.11c-2.66,1.04-5.34,2.06-8.04,3.07-50.99,19.12-97.39,32.13-139.2,39.03-.07.01-.14.02-.21.04,5.55,189.85-2.39,288.8-13.97,342.56-.11-.42-.23-.84-.35-1.26-.05.27-.09.55-.14.82,3.09,11.47,2.73,23.99.19,40.71-10.18,67.8-20.88,129.9.7,198.23,43.68,138.24,183.67,123.06,287.61,75.43ZM1149.54,1066.31c15.38-12.05,28.71-18.65,40-19.82,67.54-7.13,124.76-14.82,171.66-23.07.43-.06.84.2.96.61l.09.26c.35,1.48-.51,2.96-1.93,3.33-49.47,13.45-102.65,22.1-159.55,25.96-14.33,1.05-29.91,7.46-46.75,19.21-.05.04-.11.08-.17.12-1.71,1.11-3.99.63-5.1-1.08l-.09-.09c-1.21-1.72-.82-4.12.88-5.44ZM834.64,1024.21l.09-.26s0-.02,0-.03c.1-.47.57-.77,1.05-.67,48.71,8.54,108.12,16.49,178.23,23.86,11.75,1.23,25.61,8.1,41.58,20.61,1.73,1.38,2.11,3.83.88,5.61l-.09.09s-.04.06-.06.1c-1.22,1.75-3.63,2.18-5.37.96-17.48-12.22-33.68-18.86-48.59-19.91-59.06-3.98-114.29-12.95-165.69-26.93-1.47-.38-2.36-1.89-2.02-3.42Z"/><path class="cls-2" d="M1516.61,1372.64s0,.03,0,.05"/></g></svg>