<?xml version="1.0" encoding="UTF-8"?><svg id="_Слой_1" xmlns="http://www.w3.org/2000/svg" viewBox="0 0 2200 5500"><defs><style>.cls-1{fill:#fff;}.cls-2{fill:#e5c1d6;}</style></defs><ellipse class="cls-1" cx="1331.55" cy="476.61" rx="13.51" ry="7.98" transform="translate(694.01 1739.04) rotate(-82.9)"/><path class="cls-1" d="M905.7,575.64c1.15,2.51.06,5.48-2.45,6.63-2.03.93-4.43.41-5.88-1.28-24.38-29.94-34.15-65.81-29.3-107.62.23-2.02,2.01-3.49,4.04-3.33l9.12.7c1.89.12,3.31,1.78,3.18,3.71-.02.32-.09.64-.19.94-1.11,2.87-1.35,6.75-.7,11.67,5.03,39,12.43,68.53,22.19,88.59Z"/><path class="cls-1" d="M1326.98,493.63c.13-.45.59-.73,1.05-.61l.7.26c5.64,1.74,5.28,19.16-.79,38.94l-2.28,7.28c-6.08,19.76-15.58,34.39-21.23,32.72l-.7-.18c-.46-.16-.69-.66-.53-1.12,0,0,0-.01,0-.02l23.77-77.28Z"/><path class="cls-2" d="M620.16,1025.53c-27.21,13.71-44.37,30.62-50.86,37.23-25.12,25.58-36.25,51.13-38.84,57.31-2.92,6.97-5.35,13.95-9.86,31.77-10.32,40.8-15.56,74.52-17.83,90.22-4.42,30.65-8.47,58.69-9.26,96.55-.52,24.97.77,35.38-.66,64.14-.93,18.79-2.62,37.26-3.45,54.23-.05,1.05-.19,3.98-.61,7.89-.55,5.15-1.59,11.92-3.63,19.66-2.18,8.25-4.6,14.12-5.16,15.5-15.45,38.4-38.59,154.38-38.59,154.38-8.83,44.25-18.91,99.06-28.7,162.79,13.56,10.97,34.16,25.06,61.85,35.63,35.08,13.38,66.17,15.23,85.6,14.84,6.13-12.82,13.98-29.62,22.76-49.48,4.3-9.72,19.21-43.67,38.75-94.57,0,0,18.57-46.6,39.8-115.32,1.23-3.98,5.29-21.96,12.19-53.94,1.51-6.81,2.13-13.83,1.84-20.88-1.4-33.33-.41-62.8,2.98-88.42,6.61-49.7,10.03-77.07,10.26-82.1.8-6.83-.29-13.75-3.16-20l-11.23-24.56c-.65-1.31-.28-2.89.87-3.79,1.34-1.04,3.27-.8,4.31.54,8.94,10.64,14.27,19.97,16.9,30.16,11.58-53.77,19.52-152.75,13.96-342.68-44.78,7.51-74.87,15.14-90.24,22.89Z"/><path class="cls-2" d="M1789.38,1776.25c-4.92-28.57-5.19-39.41-8.7-62.1-1.65-10.68-6.18-30.57-15.24-70.34-8.11-35.6-13.57-57.75-18.65-77.26-3.6-13.86-5.47-21-8.56-31.37-6.69-22.43-9.77-28.59-13.58-43.3-1.01-3.88-4.4-17.72-6.93-40.44-.18-1.58-2.43-53.83-6.75-156.74-5.26-125.08-29.12-252.09-173.15-282-.57-.12-8.62-1.49-24.16-4.09-8.47,72.02-8.59,126.98-6.98,164.64,0,0,6.44,150.71,4.64,166.61-.02.14-.49,4.32,0,4.45.32.08.98-2.42,2.65-5.96.46-.98,1.38-2.61,3.22-5.86,1.76-3.13,2.66-4.71,3.5-5.96,1.02-1.51,1.84-2.56,3.3-4.41,1.91-2.42,1.82-2.11,3.8-4.55.64-.78,1.44-1.42,2.07-2.21.2-.25.43-.55.86-.73.7-.29,1.44-.04,1.87.16.68.58,1.37,1.16,2.05,1.74.32.17.84.51,1.2,1.12.88,1.49,0,3.27-.12,3.53-.31.6-2.23,2.81-3.02,3.83-.97,1.26-3.56,4.92-4.09,5.7-.44.65-.76,1.18-1.16,1.86-1.12,1.92-2.24,3.83-3.18,5.66-4.06,7.88-6.2,15.91-6.2,15.91-1.12,4.21-1.47,7.05-1.57,7.85-.48,4.08-.3,6.85-.25,7.56.18,2.38.55,4.12.64,4.53,2.17,10.47,19.78,152.9,17.69,167.6,0,0-.57,7.67.79,12.05.25.81.52,1.3.72,2.04.19.69.24,1.22.24,1.27,4.88,35.89,31.02,116.26,31.02,116.26,38.36,117.96,76.29,196.46,84.5,213.28,1.88,3.86,3.44,7,4.44,9.01,16.86-1.63,44.26-6.4,74.09-22.01,8.83-4.62,35.73-19.54,60.44-48.42,2.85-3.33,5.11-6.19,6.67-8.22-2.12-9.34-5.13-23.43-8.1-40.71Z"/></svg>