<?xml version="1.0" encoding="UTF-8"?><svg id="_Слой_1" xmlns="http://www.w3.org/2000/svg" viewBox="0 0 2200 5500"><defs><style>.cls-1{fill:#fff;}.cls-2{fill:#e4c1d6;opacity:.5;}</style></defs><path class="cls-1" d="M1326.98,493.63c.13-.45.59-.73,1.05-.61l.7.26c5.64,1.74,5.28,19.16-.79,38.94l-2.28,7.28c-6.08,19.76-15.58,34.39-21.23,32.72l-.7-.18c-.46-.16-.69-.66-.53-1.12,0,0,0-.01,0-.02l23.77-77.28Z"/><path class="cls-2" d="M513.16,2097.41c9.91-40.87,13.68-89.03,17.37-130.78.92-10.41,4.85-36.75,16.84-69.21,4.68-12.68,9.4-22.86,12.8-29.75-18.07.58-47.05-.72-80.16-12.37-31.25-11-53.7-26.84-67.29-38.1-5.96,27.73-14.38,50.12-22.27,67.29-13.2,28.73-20.81,33.9-40.57,72.74-7.92,15.55-18.3,36.13-28.2,64.32-3.65,10.38-8.7,29.35-18.8,67.29-2.4,9.02-8.58,32.35-14.84,60.37-5.67,25.37-6.54,32.74-6.93,36.62-.37,3.71-1.03,11.41-2.75,22.1-1.25,7.79-2.47,13.48-2.69,14.52-2.25,10.73-21.23,116.06-71.12,396.42,5.43,3.33,13.61,7.6,24.23,10.48,9.74,2.64,17.41,3,24.23,3.27,8.62.35,20.81.08,35.35-2.83,8.34-45.58,26.44-88.56,47.45-132.68,56.05-118.06,142.27-255.6,177.36-399.71Z"/><path class="cls-2" d="M1836.2,1906.94c-16.03-30.57-19.41-37.71-22.39-44.53-4.67-10.68-10.76-26.04-16.34-45.46-10.81,14.02-31.5,37.12-64.7,55.08-30.85,16.69-59.29,21.81-76.5,23.57,16.24,42.93,16.81,60.77,16.81,60.77.03.87.04,1.45.03,1.97,0,1.4-.06,2.43-.07,2.63-.11,2.2-.07,14.26.04,18.42.88,33.88,7,68.61,7,68.61,2.77,15.74,6.34,29.89,13.49,58.2,3.82,15.14,7.37,28.59,9.19,34.93,14.49,50.37,31.56,88.21,39.34,105.16,22.97,50.02,47.43,97.5,79.56,158.47,48.36,91.78,61.48,126.82,81.92,182.71,7.39,20.19,11.21,39.41,11.48,57.66,19.79,6.89,34.98,6.91,43.87,6.12,5.26-.47,10.5-1.41,12.75-1.82,13.33-2.43,24.01-5.97,31.36-8.8-50.61-288.41-71.84-419.3-80.42-479.62-1.19-8.34-4.67-33.2-12.4-65.8-4.19-17.65-21.73-90.07-53.73-149.95-1-1.87-9.26-17.29-20.29-38.32Z"/></svg>