<?xml version="1.0" encoding="UTF-8"?><svg id="_Слой_1" xmlns="http://www.w3.org/2000/svg" viewBox="0 0 2200 5500"><defs><style>.cls-1{fill:#fff;}.cls-2{fill:#e5c1d6;}</style></defs><ellipse class="cls-1" cx="1331.55" cy="476.61" rx="13.51" ry="7.98" transform="translate(694.01 1739.04) rotate(-82.9)"/><path class="cls-1" d="M905.7,575.64c1.15,2.51.06,5.48-2.45,6.63-2.03.93-4.43.41-5.88-1.28-24.38-29.94-34.15-65.81-29.3-107.62.23-2.02,2.01-3.49,4.04-3.33l9.12.7c1.89.12,3.31,1.78,3.18,3.71-.02.32-.09.64-.19.94-1.11,2.87-1.35,6.75-.7,11.67,5.03,39,12.43,68.53,22.19,88.59Z"/><path class="cls-1" d="M1326.98,493.63c.13-.45.59-.73,1.05-.61l.7.26c5.64,1.74,5.28,19.16-.79,38.94l-2.28,7.28c-6.08,19.76-15.58,34.39-21.23,32.72l-.7-.18c-.46-.16-.69-.66-.53-1.12,0,0,0-.01,0-.02l23.77-77.28Z"/><path class="cls-1" d="M1945.07,3010.67c17.71-20.16,34.17-34.67,36.75-32.4,2.58,2.27-9.68,20.45-27.39,40.62-17.71,20.16-34.17,34.67-36.75,32.4-2.58-2.27,9.68-20.45,27.39-40.62Z"/><path class="cls-1" d="M1932.21,3009.87l-27.54,38.16c-2.03,2.85-2.49,6.54-1.23,9.82,3.28,8.54,8.71,16.17,16.31,22.89,5.71,5.02,14.32,4.75,19.65-.61l18.77-18.68c.71-.72,1.88-.73,2.61-.02.49.48.67,1.2.46,1.86l-3.16,11.23c-2.46,8.52,2.45,17.42,10.96,19.88,6.2,1.79,12.87-.3,16.93-5.32l29.21-35.52c-.53,21.52-9.97,37.22-28.33,47.1-9.01,4.85-19.88,1.99-32.63-8.6-1.78-1.44-4.09-2.02-6.32-1.58l-17.28,3.25c-.47.12-.91.18-1.32.18-14.91.53-18.86-12.28-25.52-20.26-7.66-9.24-9.74-19.18-6.23-29.82,7.31-22.4,18.86-33.71,34.65-33.95Z"/><path class="cls-2" d="M1106.54,2365.14c-149.98,0-290.69-40.04-412.17-110.08.35,1.18.98,2.28,1.89,3.17,37.19,35.32,72.04,73.3,104.56,113.94,100.64,125.55,185.4,260.69,254.28,405.41,1.23,2.51,8.74,12.95,22.54,31.31,1.5,2.01,3.83,3.28,6.4,3.51l35.35,2.54c3.18.22,6.21-1.33,7.89-4.03,17.6-28.36,27.05-43.83,28.33-46.4,69.59-141.63,153.56-273.29,251.91-394.97,31.4-38.86,62.1-69.03,102.1-108.41.5-.5.93-1.05,1.29-1.63-119.69,67.3-257.6,105.65-404.39,105.65Z"/></svg>