<?xml version="1.0" encoding="UTF-8"?><svg id="_Слой_1" xmlns="http://www.w3.org/2000/svg" viewBox="0 0 2200 5500"><defs><style>.cls-1{fill:#e4c1d6;opacity:.25;}</style></defs><path class="cls-1" d="M1106.54,2365.14c-149.98,0-290.69-40.04-412.17-110.08.35,1.18.98,2.28,1.89,3.17,37.19,35.32,72.04,73.3,104.56,113.94,100.64,125.55,185.4,260.69,254.28,405.41,1.23,2.51,8.74,12.95,22.54,31.31,1.5,2.01,3.83,3.28,6.4,3.51l35.35,2.54c3.18.22,6.21-1.33,7.89-4.03,17.6-28.36,27.05-43.83,28.33-46.4,69.59-141.63,153.56-273.29,251.91-394.97,31.4-38.86,62.1-69.03,102.1-108.41.5-.5.93-1.05,1.29-1.63-119.69,67.3-257.6,105.65-404.39,105.65Z"/></svg>