<?xml version="1.0" encoding="UTF-8"?><svg id="_Слой_1" xmlns="http://www.w3.org/2000/svg" viewBox="0 0 2200 5500"><defs><style>.cls-1{fill:#e4c1d6;}</style></defs><path class="cls-1" d="M1006.29,5043.94h0c-7.91-.11-20.5-1.29-34.51-7.26-10.29-4.38-17.98-9.92-23.19-14.34.31,2.8.64,6.43.88,10.68,0,0,.13,2,.19,3.99.53,19.38-11.93,47.63-12.37,68.24-.96,50.26-5.17,80.87-25.96,130.43-14.21,34.03-48.51,62.45-73.86,85.96-5.55,5.15-10.03,11.4-13.42,18.77-1.75,3.86-1.35,8.35,1.05,11.84l4.21,6.32c.76,1.18,2.03,1.93,3.43,2.01,2.42.15,4.49-1.7,4.64-4.11,1.7-19.65,13.39-32.6,35.09-38.86.32-.06.66.08.88.35l1.4,2.02c.04.06.07.12.1.18.4.88.04,1.9-.8,2.28-16.55,7.43-25.58,18.65-27.1,33.68-.6,5.8,3.38,11.08,9.12,12.1l8.68,1.49s.05,0,.08.01c4.3.71,8.35-2.12,9.04-6.33l2.89-16.31c.67-3.81,3.11-7.07,6.58-8.77,9.24-4.74,16.81-10.91,22.72-18.51.86-1.08,2.29-1.51,3.6-1.1,1.76.55,2.74,2.42,2.19,4.17-5.88,19.21-32.98,15.26-26.58,44.65.82,3.9,4.36,6.62,8.33,6.4l22.02-1.05s.07,0,.1,0c2.71-.15,4.79-2.46,4.64-5.17l-.88-17.45c-.16-3.65,1.57-7.11,4.56-9.12l25.09-16.84c.79-.54,1.77-.75,2.71-.58,2,.35,3.34,2.26,2.99,4.27l-.88,4.74c-.21,1.25-1.08,2.29-2.28,2.72-13.1,4.74-20.67,11.96-22.72,21.67-5.61,26.23,31.31,25.79,44.47,15.17,3.52-2.81,5.48-7.12,5.26-11.58-.64-12.69,7.95-25.23,25.79-37.63.19-.13.38-.24.59-.33,1.9-.85,4.11-.04,4.93,1.82,1.64,3.57,4.5,6.81,8.6,9.74.64.42.97,1.19.83,1.95-.19,1.05-1.19,1.75-2.24,1.56-.06,0-.85-.53-2.37-1.58-2.99-2.06-7-1.99-10,.18-10.23,7.25-16.14,16.37-17.72,27.37-.39,2.96.7,5.89,2.89,7.81,10.11,8.68,21.99,12.35,33.41,11.49,21.05-1.59,33.35-19.26,35.27-22.01,4.03-5.75,6.62-11.9,10.6-48.07,3.46-31.47,4.62-55.08,4.83-59.58.94-19.92,1.15-33.11,1.44-46.2,1.84-81.66,5.35-85.49,2.89-111.17-1.69-17.71-6-43.43-18.15-74.29-5.05,4.49-12.92,10.45-23.72,15.11-12.19,5.26-23.14,6.73-30.28,7.12Z"/><path class="cls-1" d="M1340.75,5300.77c-44.73-34.03-73.94-130.08-71.84-188.5,1.16-32.08-6.32-55.81-6.4-62.54-.14-11.51.31-21.04.75-27.57-5.39,4.77-14.37,11.55-27.03,16.43-13.5,5.2-25.42,6.02-32.8,5.96-7.32.1-19.35-.65-32.96-5.96-12.52-4.89-21.35-11.69-26.62-16.43-2.94,8.51-6.6,19.94-10.1,33.63-3.19,12.47-15.89,41.06-12.54,80.17,4.09,47.83,5.67,85.14,4.74,111.92-1.32,37.89,7.37,77.45,17.72,106.4,9.77,27.31,30.58,34.47,62.45,21.49,6.55-2.69,9.44-7.19,8.68-13.51-1.75-14.03-9.71-24.15-23.86-30.35-.32-.13-.62-.3-.9-.51-1.86-1.39-2.25-4.03-.86-5.89,5.09-6.96,7.84-10.5,8.24-10.61.37-.14.77-.23,1.16-.26,2.37-.19,4.44,1.58,4.63,3.94.64,8.13,5.73,15.5,15.26,22.1,2.1,1.43,3.4,3.74,3.51,6.23l.88,19.12c.32,5.75,4.54,10.52,10.18,11.49,12.45,2.22,23.27.76,32.45-4.39,2.71-1.52,4.36-4.38,4.3-7.46-.41-14.21-8.27-24.97-23.59-32.28-1.36-.67-2.06-2.18-1.67-3.6l.7-2.63c.07-.25.18-.5.31-.73.89-1.55,2.87-2.09,4.43-1.2,19.76,11.64,30.03,25.82,30.79,42.54.16,3.82,2.98,7.01,6.75,7.63,9.47,1.58,18.16-.35,26.05-5.79,5.19-3.6,6.55-10.67,3.07-15.88l-20.09-29.65c-.19-.35-.21-.77-.06-1.14.28-.67,1.05-.98,1.72-.7,18.6,9.94,28.65,24.03,30.17,42.28.01.18.04.36.07.54.49,2.52,2.93,4.16,5.45,3.67l22.45-4.12c.81-.15,1.58-.46,2.27-.93,2.73-1.85,3.44-5.56,1.59-8.28l-25.88-38.33c-.52-.7-.54-1.63-.05-2.35.66-.98,2.01-1.26,3.03-.63,18.07,11.99,27.57,25.23,28.51,39.73.07.93.51,1.8,1.24,2.4,1.46,1.2,3.61.99,4.82-.47,17.45-21.49-13.16-41.31-31.14-55Z"/></svg>