<?xml version="1.0" encoding="UTF-8"?><svg id="_Слой_1" xmlns="http://www.w3.org/2000/svg" viewBox="0 0 2200 5500"><defs><style>.cls-1{fill:#e4c1d6;}.cls-2{fill:#fff;}</style></defs><path class="cls-2" d="M1326.98,493.63c.13-.45.59-.73,1.05-.61l.7.26c5.64,1.74,5.28,19.16-.79,38.94l-2.28,7.28c-6.08,19.76-15.58,34.39-21.23,32.72l-.7-.18c-.46-.16-.69-.66-.53-1.12,0,0,0-.01,0-.02l23.77-77.28Z"/><path class="cls-1" d="M1082.29,2929.17c-.07-11.35-.26-34.66-.97-58.87-.07-2.35-.61-8.8-1.69-21.71-.68-8.14-1.37-15.67-5.07-24.61-.64-1.55-1.23-2.81-1.65-3.67-13.51-19.65-23.51-32.45-34.65-55.52-84.38-174.32-192.21-332.67-323.49-475.06-7.31-7.95-15.38-15.44-24.21-22.45-.18-.14-.38-.26-.6-.34h0s-1.49,0-3,1.39c-9.16,8.46-28.36,82.99-28.36,82.99-1.34,5.21-2.92,10.91-6.07,22.31-4.38,15.87-8.06,28.62-10.37,36.54,46.07,65.85,96.86,133.85,152.84,203.11,97.05,120.07,194.36,224.94,287.26,315.88Z"/><path class="cls-1" d="M1569.16,2399.75c-6.07-20.73-13.91-45.9-23.74-74.06-24.68-70.66-22.02-45.93-24.75-52.8-.07-.18-.36-.76-.9-1.37-2.08-2.37-5.64-2.62-7.96-.56-20.76,18.13-43.91,42.4-69.47,72.8-81.82,97.36-149.81,189.87-221.83,319.45-24.96,44.91-33.64,61.62-33.64,61.62-10.68,20.55-17.41,34.58-26.03,48.94-3.17,5.28-7.84,12.7-13.21,23.31-2.94,5.81-3.39,7.24-5.83,11.26-3.57,5.88-5.87,8.2-7.89,13.7-.28.76-.77,2.19-2.01,8.1-1.72,8.27-2.7,14.8-3.3,18.93-1.33,9.07-1.99,13.6-2.65,18.82-2.95,23.3-5.38,56.22-5.69,60.45,87.06-81.17,180.39-177.88,273.72-291.8,67.02-81.81,125.05-161.52,175.18-236.79Z"/></svg>