<?xml version="1.0" encoding="UTF-8"?><svg id="_Слой_1" xmlns="http://www.w3.org/2000/svg" viewBox="0 0 2200 5500"><defs><style>.cls-1{fill:#fff;}.cls-2{fill:#e5c1d6;}</style></defs><path class="cls-1" d="M905.7,575.64c1.15,2.51.06,5.48-2.45,6.63-2.03.93-4.43.41-5.88-1.28-24.38-29.94-34.15-65.81-29.3-107.62.23-2.02,2.01-3.49,4.04-3.33l9.12.7c1.89.12,3.31,1.78,3.18,3.71-.02.32-.09.64-.19.94-1.11,2.87-1.35,6.75-.7,11.67,5.03,39,12.43,68.53,22.19,88.59Z"/><path class="cls-1" d="M1945.07,3010.67c17.71-20.16,34.17-34.67,36.75-32.4,2.58,2.27-9.68,20.45-27.39,40.62-17.71,20.16-34.17,34.67-36.75,32.4-2.58-2.27,9.68-20.45,27.39-40.62Z"/><path class="cls-1" d="M1932.21,3009.87l-27.54,38.16c-2.03,2.85-2.49,6.54-1.23,9.82,3.28,8.54,8.71,16.17,16.31,22.89,5.71,5.02,14.32,4.75,19.65-.61l18.77-18.68c.71-.72,1.88-.73,2.61-.02.49.48.67,1.2.46,1.86l-3.16,11.23c-2.46,8.52,2.45,17.42,10.96,19.88,6.2,1.79,12.87-.3,16.93-5.32l29.21-35.52c-.53,21.52-9.97,37.22-28.33,47.1-9.01,4.85-19.88,1.99-32.63-8.6-1.78-1.44-4.09-2.02-6.32-1.58l-17.28,3.25c-.47.12-.91.18-1.32.18-14.91.53-18.86-12.28-25.52-20.26-7.66-9.24-9.74-19.18-6.23-29.82,7.31-22.4,18.86-33.71,34.65-33.95Z"/><path class="cls-2" d="M1510.88,2250.39c-48.36-92.98-75.17-144.73-80.43-155.25-24.44-48.65-30.29-101.81-17.54-159.46,34.62-157.07,55.2-243.52,61.75-259.37.23-.56.26-1.18.09-1.76-.4-1.34-1.78-2.09-3.07-1.66-.59.18-7.72,4.12-21.4,11.84-72.01,40.7-170.6,14.12-239.98-24.74-.1-.05-.2-.12-.28-.19-.19-.15-.33-.32-.45-.51-.09-.03-.19-.06-.28-.09,0,0-.14-.05-.28-.09-34.84-11.29-80.11-13.88-80.11-13.88-22.89-1.31-58.88-3.11-104.09,7.21-16.22,3.7-29.53,8.02-39.02,11.46-81.38,46.14-189.8,62.62-261.25-12.06-.76-.84-1.94-1.16-3.02-.82-1.52.48-2.37,2.11-1.89,3.63,29.65,98.77,53.21,196.89,70.7,294.37,9.42,52.28,1.43,102.51-23.95,150.69-30.17,57.31-54.24,107.48-72.19,150.52-.67,1.62-.71,3.37-.23,4.98,106.03,61.13,226.71,99.4,355.42,108.14v-13.01c-.2-1.79-.31-3.61-.31-5.45v-360.29c0-25.68,19.7-46.98,44.74-49.53,1.76-.19,3.55-.3,5.37-.3h0c27.38,0,49.79,22.41,49.79,49.79v379.6c130.77-6.69,253.58-43.81,361.56-104.52,1.73-2.75,1.92-6.27.37-9.25Z"/></svg>