<?xml version="1.0" encoding="UTF-8"?><svg id="_Слой_1" xmlns="http://www.w3.org/2000/svg" viewBox="0 0 2200 5500"><defs><style>.cls-1{fill:#e4c1d6;}.cls-2{fill:#fff;}</style></defs><path class="cls-2" d="M1326.98,493.63c.13-.45.59-.73,1.05-.61l.7.26c5.64,1.74,5.28,19.16-.79,38.94l-2.28,7.28c-6.08,19.76-15.58,34.39-21.23,32.72l-.7-.18c-.46-.16-.69-.66-.53-1.12,0,0,0-.01,0-.02l23.77-77.28Z"/><path class="cls-2" d="M1932.21,3009.87l-27.54,38.16c-2.03,2.85-2.49,6.54-1.23,9.82,3.28,8.54,8.71,16.17,16.31,22.89,5.71,5.02,14.32,4.75,19.65-.61l18.77-18.68c.71-.72,1.88-.73,2.61-.02.49.48.67,1.2.46,1.86l-3.16,11.23c-2.46,8.52,2.45,17.42,10.96,19.88,6.2,1.79,12.87-.3,16.93-5.32l29.21-35.52c-.53,21.52-9.97,37.22-28.33,47.1-9.01,4.85-19.88,1.99-32.63-8.6-1.78-1.44-4.09-2.02-6.32-1.58l-17.28,3.25c-.47.12-.91.18-1.32.18-14.91.53-18.86-12.28-25.52-20.26-7.66-9.24-9.74-19.18-6.23-29.82,7.31-22.4,18.86-33.71,34.65-33.95Z"/><path class="cls-1" d="M285.37,2671.69c-.72-4.33-1.24-9.34-1.23-14.91.02-11,2.08-20.22,4.22-26.97-4.96,1.1-10.67,2.06-17.04,2.59-6.81.57-12.98.54-18.32.23-3.34-.27-6.67-.55-10.01-.82-7.26-.38-17.45-1.92-28.32-7.08-3.87-1.84-7.24-3.86-10.13-5.85-3.81,25.93-8.96,45.96-12.32,57.81-19.6,69.09-48.34,154.42-59.21,184.81-3.74,10.47-1.87,21.99,5.61,34.56,2.13,3.57,3.34,7.58,3.51,11.67,3.33,66.72,28.3,125.52,74.91,176.39,1.75,1.87,4.3,2.31,7.63,1.32.11-.03.23-.07.34-.11,3.66-1.26,5.63-5.18,4.4-8.75-8.77-25.38-21.05-52.48-36.84-81.31-6.23-11.23-20.17-58.94-5.88-73.42,1.93-1.93,3.17-4.47,3.51-7.19,4.91-44.03,10.09-51.75,32.89-83.68,1.7-2.41,2.06-5.54.97-8.33-3.98-9.88-5.73-19.53-5.26-28.95.09-2.01,1.46-3.74,3.4-4.28,2.47-.69,5.04.76,5.73,3.23,11.14,39.91,6.75,90.35,10.79,129.82.94,9.37,8.62,16.64,18.07,17.1l.79.09c.57.03,1.15.02,1.72-.01,8.22-.54,14.44-7.64,13.9-15.86-4.15-59.88,3.1-116.98,21.75-171.3,4.35-12.64,4.87-26.28,1.49-39.21l-11.05-41.58Z"/><path class="cls-1" d="M1945.07,3010.67c17.71-20.16,34.17-34.67,36.75-32.4,2.58,2.27-9.68,20.45-27.39,40.62-17.71,20.16-34.17,34.67-36.75,32.4-2.58-2.27,9.68-20.45,27.39-40.62Z"/><path class="cls-1" d="M2003.05,2640.63c-.93.45-2.42,1.12-4.31,1.79-2.4.85-4.26,1.27-4.96,1.43-7.49,1.71-17.29,4.64-25.55,6.15-3.06.56-5.59.86-6.06.92-1,.12-2.06.23-3.22.33-6.38.54-11.25.19-14.08-.02-13.09-.96-25.97-4.9-30.38-6.32.11,2.69.12,5.94-.12,9.61-.1,1.59-.35,4.9-1.03,9.1-.54,3.34-.7,3.27-2.21,10.31-1.57,7.34-1.73,8.99-3.01,12.42-1.05,2.81-2.08,4.72-2.49,5.54-4.14,8.09-5.64,19.84-6.31,25.07-1.3,10.19-3.32,26.03.91,45.17,2.22,10.06,5.62,18.54,10.06,36.68.73,2.97,1.2,5.1,2.13,9.37,2.68,12.18,3.08,15.69,3.24,18.5.25,4.24.02,7.44-.17,9.81-1.81,23.13-.66,46.42-2.11,69.57,0,0-1.06,15.89,6.14,23.33.13.13.26.26.39.38,5.16,4.84,13.74,4.12,19.17-1.61,8.01-8.42,11.93-18.77,11.75-31.05-.53-41.63,4.94-80.35,16.4-116.13.23-.69.68-1.29,1.29-1.7,1.49-.99,3.51-.59,4.5.91,5.09,7.78,2.98,21.11-6.32,40-3.08,6.25-1.14,13.81,4.56,17.81,20.7,14.33,30.14,35.58,28.33,63.77-1.81,28.59-5.41,50.7-10.79,66.31-.98,3.04-1.13,6.28-.44,9.39.06.06.32.79.79,2.19,1.06,3.24.71,6.8-.96,9.82-16.2,28.48-38.45,51.98-66.75,70.52-1.7,1.13-2.57,3.17-2.19,5.18l.44,2.63c.08.45.23.89.44,1.31,1.21,2.38,4.11,3.32,6.49,2.11,28.71-14.15,50.61-36.75,65.7-67.8,1.28-2.61,2.14-5.43,2.54-8.33,2.4-19.12,9.24-39.15,20.52-60.08,1.59-2.9,2.18-6.24,1.67-9.47-1.34-8.01-1.93-13.95-1.75-17.81-.07-1.36.97-2.51,2.32-2.59,1.36-.07,2.51.97,2.59,2.32,4.85,27.37.12,50.93-14.21,70.7-1.9,2.58-3.08,5.64-3.42,8.86-3.51,34.12-26.31,67.19-34.65,85.96-.18.41-.32.84-.41,1.29-.72,3.51,1.54,6.94,5.05,7.66l.26.09c4.88.96,9.87-.99,12.81-5,31.49-43.86,65.26-98.41,72.01-150.96,2.05-15.96,5.03-33.13,8.95-51.49.92-4.24.61-8.62-.88-12.63-19.4-52.26-62.41-219.36-62.69-221.31Z"/></svg>