<?xml version="1.0" encoding="UTF-8"?><svg id="_Слой_1" xmlns="http://www.w3.org/2000/svg" viewBox="0 0 2200 5500"><defs><style>.cls-1{fill:#dec2d5;}.cls-2{fill:#fff;}</style></defs><path class="cls-1" d="M138.74,1341.43c103.03-273.48,368.34-437.77,661.39-327.37,293.05,110.4,674.4-170.32,909.99-81.57,459.68,173.18,466.42,625.54,339.62,962.13-126.81,336.59-430.35,672.05-1056.67,436.08C366.74,2094.75-59.4,1867.35,138.74,1341.43Z"/><path class="cls-2" d="M775.7,4352.15c11.17,70,25.23,138.41,42.19,205.25,36.31,143.27,74.09,286.24,113.33,428.92,9.24,33.68,7.63,70.43-4.82,110.26-1.05,1.29-2.37,1.46-3.95.53-3.86-2.4-5.23-5.97-4.12-10.7,3.92-17.37,6.87-34.41,8.86-51.14.64-5.4.4-10.82-.7-16.05-9.47-44.73-13.86-74.03-24.3-108.85-19.12-63.39-58.65-216.42-118.59-459.09-9.82-39.59-12.45-72.63-7.89-99.12Z"/></svg>