<?xml version="1.0" encoding="UTF-8"?><svg id="_Слой_1" xmlns="http://www.w3.org/2000/svg" viewBox="0 0 2200 5500"><defs><style>.cls-1{fill:#e4c1d6;}.cls-2{fill:#fff;}</style></defs><path class="cls-2" d="M1326.98,493.63c.13-.45.59-.73,1.05-.61l.7.26c5.64,1.74,5.28,19.16-.79,38.94l-2.28,7.28c-6.08,19.76-15.58,34.39-21.23,32.72l-.7-.18c-.46-.16-.69-.66-.53-1.12,0,0,0-.01,0-.02l23.77-77.28Z"/><path class="cls-1" d="M1338.74,957.03c-97.36-37.28-123.68-119.9-114.12-214.55.07-.91-.27-1.8-.92-2.43-1.21-1.18-3.16-1.15-4.34.06-21.58,23.21-45.84,41.2-72.8,53.94-58.33,27.45-117.27-5.7-158.76-48.77-.49-.53-1.2-.81-1.92-.74-1.31.13-2.3,1.32-2.2,2.67,2.75,27.78,1.55,56.78-3.6,87.01-11.82,69.5-61.87,101.93-123.03,125.69,61.31,52.83,148.16,85.8,244.48,85.8s183.26-33.01,244.58-85.89c-2.43-.92-4.88-1.86-7.36-2.81Z"/></svg>