<?xml version="1.0" encoding="UTF-8"?><svg id="_Слой_1" xmlns="http://www.w3.org/2000/svg" viewBox="0 0 2200 5500"><defs><style>.cls-1{fill:#fff;}.cls-2{fill:#e4c1d6;opacity:.75;}</style></defs><path class="cls-1" d="M1326.98,493.63c.13-.45.59-.73,1.05-.61l.7.26c5.64,1.74,5.28,19.16-.79,38.94l-2.28,7.28c-6.08,19.76-15.58,34.39-21.23,32.72l-.7-.18c-.46-.16-.69-.66-.53-1.12,0,0,0-.01,0-.02l23.77-77.28Z"/><path class="cls-1" d="M600.45,2952.24c33.95,249.46,95.7,465.41,172.01,727.32,21.99,75.55,29.38,156.39,22.19,242.53-6.78-31.64-9.21-64.15-7.28-97.54.47-7.56-.15-15.12-1.84-22.45-9.47-41.84-10.09-78.68-23.51-124.38-36.14-122.92-71.37-250.28-105.69-382.08-12.86-49.24-19.44-74.99-19.74-77.28-6.4-46.31-23.16-99.73-24.12-148.24-.06-2.56-.98-5.03-2.63-7.02-1.81-2.16-3.13-4.94-3.95-8.33-8.95-35.49-10.76-69.67-5.44-102.54Z"/><path class="cls-1" d="M1118.93,3249.85c14.56,130.23,15.23,259.95,2.02,389.19-7.13.76-10.73-2.57-10.79-10-.09-21.84-4.04-41.84,0-63.33,15.73-83.91,14.41-167.59-3.95-251.04-.58-2.62-.82-5.3-.7-7.98.64-16.2,1.32-32.66,2.02-49.38.23-6.08,4.04-8.57,11.4-7.46Z"/><path class="cls-2" d="M1073.52,3196.26c2.65-25.25,3.53-35.12,5.33-59.89,6.32-86.91,5.41-158.37,3.43-207.2-27.03-26.23-62.29-61.34-102.46-103.84-20.67-21.87-90.7-96.54-176.2-201.71-48.24-59.34-103.25-130.64-161.45-213.45-7.81,31.26-17.66,75.24-25.82,128.39-7.4,48.2-27.18,171.26-10.36,351.84,12.87,138.06,37.37,275.63,73.5,412.69,38.24,145.25,68.65,255.22,91.22,329.89,8.71,28.89,15.9,57.35,21.61,85.38,23.86,12.36,73.3,33.94,139.31,33.97,66.15.03,115.69-21.61,139.56-33.97-.74-11.03-1.87-27.54-3.35-47.6-3.05-41.22-5.62-70.92-6.08-76.47-9.9-118.17,7.83-360.65,11.75-398.04Z"/><path class="cls-2" d="M1556.09,3179.09c19.73-84.99,43.53-201.1,51.14-338.92,5.78-104.81,3.36-256.74-38.07-440.42-66.74,100.97-148.67,211.22-248.77,324.14-68.08,76.8-135.58,144.71-200.13,204.44-2.55,29.59-5.36,74.6-4.38,129.57.88,49.48,4.46,86.04,6.29,105.23,2.03,21.33,17.46,172.98,20,263.14,2.83,100.34-5.86,168.72-17.47,292.56,25.37,12.61,74.65,32.92,139.73,33.54,68.45.65,120.21-20.82,145.82-33.54,16.28-56.17,37.67-144.9,71.2-251.95,20.23-64.62,45.11-160.54,74.64-287.79Z"/></svg>