<?xml version="1.0" encoding="UTF-8"?><svg id="_Слой_1" xmlns="http://www.w3.org/2000/svg" viewBox="0 0 2200 5500"><defs><style>.cls-1{fill:#020303;}</style></defs><path class="cls-1" d="M678.42,4747.85l16.83,48.66,14.55,44.87,12.76,42.64,11.01,40.58,9.56,39.44,8.11,38.63,6.66,37.65,5.3,37.21,4.29,38.41,3.4,38.6,2.45,38.85,1.5,39.08.61,39.3-.33,39.52-1.25,39.77-2.17,39.97-.56,1.45-1.31.86-1.95.53-.33.06-1.62-.53-.64-1.62,2.62-59.59.78-59.76-1.14-59.95-2.98-60.12-.98-4.68-2.29-4.24-7.83-10.98-7.3-11.23-6.8-11.48-6.3-11.76h0l-9.2-19.76-7.83-20.46-6.47-21.13-5.1-21.85-10.28-56.36-10.67-67.81-2.76-16.47-3.9-19.45-.14-.28-.59-.2-.47.42-4.24,12.18-4.1,8.67-4.6,6.74-5.3,4.91-6.27,3.4-6.52,1.7h-7.53l-7.27-1.95-6.8-3.76-5.99-5.41-5.88-8.42-5.18-11.2-7.86-23.36-7.14-27.15-7.72-37.9-11.82-57.55-5.1-20.6-5.1-17.25-.47-1.45-8.39-27.06-6.24-24.14-4.18-21.68-2.06-18.67.06-15.72.84-6.69,1.39-6.16,1.87-5.13,2.45-4.52,2.87-3.62,3.51-2.93,5.35-2.62,6.44-1.31,8.11.11,7.39,1.84,6.16,3.23,5.69,4.77,5.6,6.58,6.69,9.73,7.39,10.65,4.18,3.96,5.57,2.98,1.37-.14.75-1.17-.03-.42-5.46-35.12-4.07-35.15-2.68-35.17-1.31-35.2h0l-.06-28.74.89-28.74,1.78-28.76,2.7-28.79,2.79-20.96,3.68-20.74,4.57-20.46,5.49-20.12,6.35-19.82,7.22-19.45,8.08-19.06,8.95-18.62,9.7-17.98,10.48-17.5,11.32-17,12.1-16.44,12.82-15.78,13.57-15.19,14.16-14.38,14.86-13.74,5.66-4.88,24.19-19.09,26.06-17.73,27.34-16,28.93-14.44,30.07-12.65,30.85-10.7,31.63-8.78,32-6.69,23.44-3.54,24.92-2.62,26.34-1.7,27.79-.75,33.03.7,33,2.76,32.8,4.82,32.47,6.83,31.8,8.81,31.16,10.79,30.07,12.6,29.13,14.49,27.68,16.11,26,17.61,24.75,19.34,22.94,20.65,21.27,22.13,19.34,23.27,9.06,12.15,8.61,12.57,8.03,12.68,7.58,13.04,12.12,23.33,10.67,23.72,9.2,24.16,7.72,24.55h0l4.52,17.28,3.79,17.5,5.74,34.11,4.1,35.15,2.48,36.37.81,37.24-.81,38.16-2.48,38.77-4.1,39.52-5.71,39.83.22.81.75.36.17-.03,4.52-1.31,3.96-2.12,2.98-2.56,2.56-3.18,4.4-6.91,5.99-9.2,5.02-6.24,5.16-4.65,5.55-3.32,6.55-2.15,5.52-.75,5.1.17,4.93,1.03,4.43,1.9,3.15,2.06,2.82,2.54,4.52,6.22,3.04,7.89,1.28,8.95.03,11.48-.7,11.93-1.45,12.4-2.26,12.88-6.66,27.4-11.73,38.13-2.42,7.53-5.55,21.82-7.02,35.48-10.62,54.38-9.7,40.41-2.62,9.5-5.27,15.52-2.87,6.16-3.07,5.3-3.51,4.68-3.62,3.73-3.99,3.04-4.49,2.4-7.64,2.09-6.19.17-5.35-1.06-4.93-2.01-4.71-2.98-4.6-4.04-2.23-2.76-2.23-3.87-4.63-11.29-1.59-4.26-.19-.25-.61-.08-.39.47-21.57,130.19-6.24,31.49-6.63,25.31-8.89,25.2-5.18,12.21-5.71,11.98h0l-8.05,15.02-8.89,14.6-9.73,14.21-10.54,13.77-.98,2.48-3.32,58.81-1.39,58.64.5,58.45,2.45,58.28-.47,1.62-1.37.95-1.73.5-1.84-.28-1.03-1.53-.03-.25-1.9-34-1.14-34.09-.45-34.14.25-34.23,1-34.31,1.7-34.36,2.42-34.45,3.15-34.53,4.54-38.77,5.71-38.66,6.77-37.49,7.97-37.71,9.17-37.71,10.45-38.24,20.82-68.37,23.97-71.68v-.25l-.67-.08-8.33,14.21-5.21,9.28-37.04,60.62-26.51,45.01-23.08,41.42-20.71,39.88-5.46,11.01-.84.75-1.09-.06-.25-.11h0l-.78-.81.03-1.14,9.75-21.1,9.7-19.15,17.78-32.64,18.81-32.94,19.79-33.25,20.79-33.53,19.37-31.41,13.52-24.25,10.54-22.3,8.17-21.71,11.32-37.12,9.67-36.93,8.08-36.68,6.44-36.46,3.15-27.54,3.54-44.51,1.37-23.38.78-22.99.17-22.27-.42-21.8-1-21.32-1.62-20.74-2.23-20.43-2.82-19.79-3.43-19.31-3.99-18.59-4.65-18.37-5.18-17.64-5.74-17-6.44-16.78-6.97-16.05-7.66-15.78-13.66-24.58-14.99-23.33-16.36-22.1-17.73-20.88h0l-12.79-13.49-13.43-12.9-14.08-12.32-14.69-11.79-15.3-11.18-15.94-10.65-16.56-10.03-17.2-9.5-18.09-9.09-18.28-8.28-18.7-7.64-18.87-6.86-26.48-8.25-26.81-6.77-27.4-5.43-27.7-3.96-28.46-2.59-28.71-1.17-29.35.22-29.6,1.64-19.98,1.95-19.96,2.76-19.9,3.54-19.79,4.29-19.65,5.07-19.43,5.85-18.92,6.52-18.67,7.25-18.23,7.92-17.89,8.64-17.22,9.23-16.81,9.89-16.08,10.42-15.55,11.06-14.86,11.54-14.27,12.18-21.82,20.93-20.01,22.19-10.42,12.96-9.89,13.32-9.48,13.91-8.89,14.27-8.36,14.66-7.8,14.97-7.19,15.3-6.61,15.58-6.13,16.11-5.55,16.39-4.93,16.61-4.32,16.89-3.79,17.25-3.18,17.48-2.56,17.67-1.98,17.84-2.93,41.72-.95,41.5.98,41.36,2.93,41.14h0l2.4,22.24,2.98,22.16,3.54,22.1,4.12,22.05,4.68,22.02,5.27,21.93,5.83,21.91,6.41,21.82,9,28.01,7.72,19.09,8.14,15.66,14.6,25.08,47.02,76.39,18.81,31.24,17.53,31.38,16.22,31.52,14.88,31.66.03.08-.08,1.28-.98.81-.84.22-.95-.08-.67-.67-15.91-34.14-13.13-25-36.12-62.29-9.73-15.41-26.34-42.87-25.61-43.37-.86.06v.33ZM1526.71,4840.63l3.21,5.07,3.51,7.16,1.95,5.66,4.54,12.07,2.26,4.15,2.31,3.12,3.18,3.04,3.48,2.29,3.96,1.62,4.07.78,5.32-.2,5.16-1.56,4.63-2.7,4.1-3.87,5.46-7.64,4.6-9.11,3.96-10.93,4.26-15.3,8.81-36.93,7.44-36.71,3.04-16.92,7.58-39.3,3.51-14.19,3.79-12.68.11-.33,10.98-34.39,6.47-24.83,2.23-11.54,1.59-11.09,1-11.09.33-10.76-.61-9.98-1.98-8.28-3.2-6.13-2.06-2.31-2.42-1.9-4.38-1.87-5.41-.67-6.74.89-6.88,2.79-5.99,4.24-4.54,5.38-2.9,4.65-8.81,13.02-3.9,4.15-4.04,3.29-5.99,3.34-6.83,2.37-1.42.86-.72,1.48-5.46,26.95-6.72,27.43-7.94,27.9-9.17,28.37-43.06,127.18.17,1.51,1.2.89.22.03,10.03,1.48,8.92,2.59,12.54,4.4,6.3,1.39.39-.03,5.99-1.31,5.88-3.26,5.85-5.38,5.66-7.25,9.23-14.88,7.72-15.27,6.19-15.61,4.65-16h0l2.9-14.8,1.67-15.11.39-15.41-.84-15.69-1.67-21.43-.17-15.44,1.25-13.43,2.84-12.12,3.09-9.53,4.6-14.52,2.48-9.92,1.31-9,.14-8.58-1.09-8.86-1.64-3.96-3.43-5.13-.19-.47.33-1.14,1.17-.36,1.53.47,2.59,1.84,2.17,3.26,1.48,4.43.95,5.55.33,9.73-1.11,10.23-2.48,10.98-4.65,15.22-3.48,11.09-1.76,6.91-1.53,9.45-.61,10.17.2,11.48,1.03,17.31.86,12.99.14,20.15-2.01,19.82-3.34,16.53-4.91,16.3-6.47,16.05-7.97,15.83-7.75,12.35-7.8,9.5-7.69,6.55-3.73,2.12-3.82,1.39-5.69.61-3.87-.64-4.52-1.64-4.99-1.67-.72.22-.22.72.11.28ZM676.89,4838.35l-7.39,2.4-5.63,1.31-5.32.14-4.85-.81-4.57-1.62-4.65-2.56-4.35-3.26-4.29-4.07-4.32-5.02-8.31-12.57-9.31-18.34-7.22-18.53-5.16-18.76-3.04-19.01h0l-.98-16.69.61-16.86,2.34-32.08-.08-10.28-1.37-11.51-2.59-12.82-4.46-17.2-4.29-17.03-1.11-10.81.42-13.74,1.56-7.27,1.48-2.98,1.95-2.54,3.57-2.84.03-.03.7-.98-.25-1.2-5.71-7.16-6.1-5.41-6.55-3.6-6.61-1.56-6.58.31-6.44,2.01-.59.28-2.37,1.53-2.01,2.01-3.37,5.96-2.12,7.97-.98,9.98.2,12.54,1.39,14.19,2.62,15.91,3.46,15.33,18.28,60.48,6.63,28.71,12.21,61.37,6.02,27.9,7.39,28.29,5.35,16.42,5.71,12.6,3.12,5.07,3.09,4.01,3.23,3.21,3.51,2.42,4.4,2.03,4.24,1.25,4.07.42,3.9-.36h0l4.18-1.34,3.96-2.31,1.67-1.31,3.23-3.34,2.84-4.24,2.51-5.21,2.7-7.36,2.68-7.22,2.48-5.21,2.76-4.29,3.12-3.46.2-.33-.17-.7-.7-.22ZM596.31,4565.12l-2.37,4.6-1.7,4.99-1.17,5.71-.53,5.94.06,6.52.67,7.02,1.25,6.8,1.84,6.88,6.61,21.99,2.9,12.21,1.11,10.62.31,11.2-.47,11.73-1.25,12.32-1.17,11.62-.47,11.54.28,11.43,1,11.37,2.84,16.78,4.46,16.61,6.1,16.42,7.69,16.22,7.86,12.93,4.07,5.24,4.07,4.43,4.32,3.76,4.21,2.84,4.35,2.09,4.6,1.39,2.79.14,3.68-.53,10.09-3.07,9.7-2.54,14.52-2.23.45-.64v-.06l-20.29-59.78-20.23-59.39-13.74-44.18-10.65-40-7.66-36.32-1.17-2.15-2.2-1.03-6.24-1.64-3.68-2.06-3.6-3.04-7.55-9.64-3.71-5.18-.89-.45-.92.39-.14.17ZM1437.46,5140.75l7.78-10.67,7.25-10.95,6.77-11.18,6.24-11.48h0l8.92-18.73,7.64-19.43,6.35-20.07,5.1-20.74,7.61-39.49,9-54.46,7.02-43.09,5.63-31.44v-3.12l-1.09-2.93-2.09-2.31-2.79-1.42-10.09-2.98-2.59-.25-2.51.75-2.01,1.67-1.25,2.29-11.23,37.29-10.01,35.51-8.75,33.97-7.75,33-6.72,32.39-5.8,31.88-4.82,31.52-3.96,31.3-3.18,32.69.06.36.59.39.67-.28ZM763.23,5131.77l-2.01-13.07-1.81-17-3.6-30.16-4.88-32.58h0l-5.69-32.05-6.52-31.91-7.36-31.8-8.19-31.63-21.32-70.76-.89-1.7-1.39-1.28-1.78-.7-1.9-.03-8.58,1.37-1.73.64-1.37,1.25-.75,1.7-.08,1.84,15.27,97.13,8.92,53.65,5.63,27.09,6.74,24.69,8.03,22.8,9.53,21.49,11.29,20.85,13.35,20.62.56.25.5-.36.03-.33Z"/><path class="cls-1" d="M789.77,4911.45l12.88,2.79,15.52,2.9,15.58,1.23h0l15.55-.47,15.58-2.12,15.64-3.79,15.66-5.46,27.87-11.98,22.94-9.98,16.39-6.16,17.09-5.24,17.31-4.4h0l22.05-4.32,22.35-2.95,22.66-1.64,22.97-.28h.06l.5.67-.42,2.56-.75.61-23.97.5-22.97,1.7-21.96,2.95-20.96,4.15-13.71,3.68-14.49,4.79-15.91,6.1-21.54,9.03-33.56,13.74-13.1,4.6-12.4,3.68-10.4,2.29-11.4,1.5-11.76.64-11.43-.25-10.9-1.11-10.01-1.95-9.36-2.82-8.14-3.54-.39-.39.08-.92.86-.33Z"/><path class="cls-1" d="M1394.71,4914.8h.03l1.25.28.67,1.09.17.92-.2.86-.72.5-13.27,2.56-12.82,1.39-12.37.28-11.93-.89-15.47-2.79-16.28-4.6-17.75-6.58-23.89-10.26-27.45-11.71-20.57-7.14-6.58-1.87-23.3-5.46-24.19-3.93-26.17-2.62-30.96-1.59-1.11-.98-.19-1.2v-.08l.31-.92.89-.39,32.5,1.03,15.52,1.31,15.05,1.87,14.52,2.4,14.05,2.93,13.57,3.48,13.07,4.01,24.75,9.53,34.81,15.36,17.5,7.05,17.5,5.07,17.56,3.15,17.56,1.17h0l16.97-.72,16.97-2.54Z"/><path class="cls-1" d="M1509.76,3035.19l4.07,4.07,3.46,4.32,2.79,4.57,2.12,4.79,1.73,6.16.75,6.52-.2,6.86-1.17,7.22-1.31,3.62-2.23,3.37-3.04,2.95-3.71,2.37-7.69,4.32-7.05,4.88-6.35,5.46-5.27,5.66-4.18,5.88-2.93,5.83-1.81,5.96-.7,6.24.78,7.36,2.4,7.11,5.41,13.04,4.29,12.6,3.15,12.07,2.03,11.57.98,11.4-.14,10.87-1.25,10.84-2.31,10.26-3.57,10.4-4.91,10.28-3.62,6.05-3.93,5.52-4.4,5.18-4.71,4.68-8.61,6.77-9.78,5.69-11.01,4.6-12.12,3.4-13.29,2.31-14.55,1.17-15.91.17-18.48-.89-21.8-2.09-30.8-3.96-46.6-5.69-17.64-1.34-16.22-.56-11.48.14-10.26.7-9.09,1.25-8,1.78-7.25,2.37-6.72,3.09-5.85,3.68-5.3,4.46-6.47,7.78-4.93,9.14-3.62,10.79-2.31,12.74-1.56,15.22-2.7,24.39-3.32,18.34-4.6,16.3-6.16,14.86-12.65,27.7-4.54,11.93-3.79,11.76-4.21,16.69-4.46,24.75-3.96,29.85-1.11,2.03-2.2.67h-.22l-2.03-1.06-.7-2.2,2.68-24.08,4.15-24.14,5.24-22.24,6.27-19.76,10.34-24.02,8.58-19.4,4.93-13.49,2.17-8.19,1.78-9.23,3.15-25.25,3.34-26.25,1.95-9.48,2.4-8.33,2.98-7.55,3.48-6.52,4.07-5.77,4.91-5.13,5.13-4.04,5.91-3.48,6.44-2.76,7.3-2.17,15.36-2.87,16.58-1.53,17.81-.17,19.04,1.2,88.66,10.81,20.04,1.78,19.76.39,19.51-.98,19.23-2.4,11.79-2.84,11.23-4.77,10.2-6.52,8.95-7.97,7.83-9.59,6.33-10.73,4.93-11.96,3.23-12.65,1.48-13.13-.33-13.35-1.67-10.73-3.12-12.07-4.57-13.55-6.63-16.81-2.01-6.13-.98-6.08.06-7.08,1.25-6.88,2.51-6.97,3.54-6.58,4.79-6.52,5.66-5.88,6.58-5.3,7.05-4.35.53-.84-.42-.89-.45-.17-2.76-.42-10.81-2.17-10.67-3.07-10.51-3.96-10.4-4.85-5.74-2.9-23.24-12.46-7.72-5.04-5.96-4.74-2.15-.64-7.27,1.17-1.37-.33-.7-1.2v-.08l.25-4.04,1.39-3.09,1.34-.95,1.62.06,4.21,1.14,3.01-.14,12.43-5.16,17.67-9.14,45.63-27.45,4.65-2.84,10.76-6.33,8-3.6,7.08-1.67,6.55.2,3.48.89,3.51,1.53,1.23-.06.56-1.11-.22-.61-8.84-12.01-3.82-5.77-2.93-6.02-2.23-6.61-1.34-6.77-.45-7.16.47-7.16,1.34-7.19,2.2-7.08,3.04-6.83,3.82-6.55,2.95-3.34,3.82-2.62,4.85-2.03,5.3-1.25,15.13-2.84,12.51-3.54,10.67-4.54,9.42-5.74,9.2-7.89,8.14-9.62.14-.22.06-1.34-1-.92-4.91-2.29-4.96-3.73-4.57-4.85-4.46-6.22-4.24-7.41-4.04-8.61-8.39-22.8-.78-2.29-1.81-6.44-.67-5.1.33-4.29,1.48-3.62,2.12-2.51,3.04-2.03,4.01-1.59,5.04-1.14,1.03-.72.06-1.25-.17-.31-16.19-22.35-13.68-21.21-15.61-27.09-15.02-26.14-10.67-17.22-27.84-40.8-4.6-7.53-3.6-7.61-2.54-7.78-1.51-7.86-.47-8.14.61-8.28,1.64-8.42,2.73-8.53,5.21-15.11,3.51-13.13,2.09-12.21.64-11.43-.47-13.18-1.2-12.79-2.48-15.22-3.73-15.83-13.55-54.99-12.99-61.79-6.27-25.78-10.09-32.64-8.84-23.97-10.31-22.97-11.79-21.93-13.27-20.96h0l-12.74-17.45-13.88-16.69-14.99-15.94-16.11-15.16-18.92-15.78-20.51-15.11-21.99-14.35-23.33-13.49-24.3-12.43-25.25-11.34-25.53-10.01-26.06-8.72-24.81-7.25-24.83-6.52-24.92-5.85-24.94-5.13-25-4.43-25.08-3.76-25.11-3.04-25.2-2.34h0l-38.46-2.23-24.78-.64-23.91-.06-22.91.5-22.16,1.09-21.54,1.7-20.82,2.29-20.49,2.9-19.79,3.48-19.4,4.12-18.67,4.71-18.28,5.32-18.12,6.05-17.39,6.58-17.22,7.3-16.67,7.92-16.5,8.67-17.36,10.09-.45.22-2.15-.2-1.2-1.78-.22-1.34.28-2.01,1.34-1.51,23.75-13.35,24.11-11.85,20.26-8.7,20.57-7.75,21.15-6.88,21.46-5.96,22.27-5.16,22.63-4.26,23.16-3.37,24.11-2.59,38.63-2.56,38.49-.89,38.35.78,38.18,2.48h0l6.61.61,39.02,4.38,37.93,5.63,36.29,6.8,35.01,8.03,33.31,9.17,31.91,10.37,30.21,11.51,28.79,12.71,27.09,13.82,25.59,15.02,23.86,16.05,22.27,17.22,20.74,18.45,19.12,19.54,17.39,20.62,15.72,21.63,8.61,13.46,10.12,17.89,9.23,18.98,8.5,20.43,7.72,21.77,7.02,23.22,6.52,25.17,6.33,28.32,6.83,34.42,3.4,15.52,5.88,23.24,7.27,29.01,4.1,20.07,1.42,10.84h0l.64,11.4-.22,11.48-1.09,11.59-1.95,11.65-2.15,8.31-3.76,11.23-5.46,17.31-1.34,6.58-.61,6.02.11,5.16.7,5.18,3.23,11.06,5.69,11.79,7.69,11.57,11.62,16.17,11.9,18.14,12.57,20.71,16.08,27.87,14.83,25.67,12.01,18.17,18.09,23.77,17.53,23.27,5.99,9.78,4.13,9.2,2.42,8.95.78,9.06-.59,6.66-1.53,6.8-2.45,6.66-3.46,6.83-6.41,9.62-7.36,8.22-5.71,5.02-6.13,4.4-6.74,3.96-7.11,3.34-7.86,2.9-8.22,2.34-8.86,1.81-9.14,1.25-3.57.78h0l-3.43,1.67-3.12,2.51-2.84,3.34-2.54,4.24-2.93,6.52-2.03,6.49-1.14,6.47-.28,6.47h0l.89,8.03,2.26,7.97,2.7,5.6,4.74,7.3,4.6,7.05,2.76,5.49,1.48,4.99.28,4.71-.5,3.23-1.98,6.63-2.73,6.52-3.32,5.85-3.96,5.41-4.21,4.32-4.71,3.65-4.91,2.65-5.35,1.84-.39.08-.64.53.06.84.17.22ZM1612.41,2856.7l3.01-5.94,2.17-5.94,1.28-5.94.42-5.94h0l-.42-5.85-1.25-5.83-2.09-5.83-2.93-5.83-5.04-8.25-5.52-7.92h0l-11.48-13.74-1.34-.78-1.56.14-10.87,4.29-1.59.95-1.2,1.45-.64,1.76-.06,1.87,1.23,6.27,1.87,6.58,8.14,22.41,4.01,8.78,4.15,7.55,4.21,6.19,4.21,4.77,4.26,3.46,4.57,2.23,1.39-.03,1.06-.89ZM1434.65,3039.43l13.88-3.4,19.12-4.63,14.1-2.54,12.49-1.06,11.06.5,2.34-.03,2.29-.59,1.95-.84,4.18-2.26,3.85-2.73,3.65-3.37,3.23-3.79,2.84-4.24,2.4-4.57,3.34-9.89-.28-2.01-1.51-1.34-4.07-1.2-3.9-.56-5.96.33-6.3,1.7-6.97,3.21-9.34,5.43-2.17,1.31-60.59,35.65-.2.22.56.67ZM1419.88,3047.48l-.31.11-.28.64.36.59,10.76,5.83,24.83,13.04,18.73,8.19,17.67,5.66,8.92,1.92,8.67,1.31,2.68-.2,2.42-1.14,1.87-1.95,1.03-2.48.95-5.99.2-5.77-.56-5.55-1.25-5.3h0l-1.84-4.65-2.45-4.49-3.07-4.26-3.71-4.07-1.92-1.64-4.38-2.26-5.35-1.06-6.47.14-7.72,1.34-31.13,6.63-28.65,5.41Z"/><path class="cls-1" d="M792.47,2575.2l8.08,8.47,8.08,9.28,7.11,10.76,6.1,12.26,5.16,13.74-.17,1.45-1.17.84-.22.03-.33.03-1.87-.5-1.17-1.48-4.63-11.34-5.49-10.54-6.41-9.73-7.3-8.92h0l-7.58-7.53-8.33-6.86-9.11-6.13-9.89-5.43-7.19-3.18-7.47-2.59-7.69-1.98-7.83-1.37-8-.72-7.94-.08-7.53.61-7.3,1.25-9.78,2.87-8.97,3.99-8.64,5.41-7.75,6.47-7.16,7.75-6.19,8.61-5.41,9.73-4.6,10.87-3.6,11.59-2.51,11.93-1.67,12.37-.95,12.57-.22,12.77.5,12.9,1.2,13.1,1.9,13.29,2.65,13.46,3.34,13.63,5.6,18.2,6.77,17.5,7.97,16.75,9.11,16.03h0l10.4,15.44,11.62,14.72,12.79,13.96,13.99,13.24,50.73,44.71,7.55,5.85,8.5,5.04,9.09,4.01,8.95,2.65,8.92,1.37,8.28.03,8.11-1.34,7.25-2.62,4.71-2.65,4.04-3.15,4.21-4.6,3.34-5.18,2.62-5.88,1.98-6.88,1.23-7.5.5-8.25-.2-9.17-.89-9.89v-.14l.72-2.09,2.03-.89h.14l2.31.89,1.06,2.23.56,11.4-.06,9.92-.67,8.67-1.31,7.78-2.03,7.16-2.62,6.16-3.34,5.46-4.24,4.88-4.29,3.6-5.04,3.12-5.55,2.42-6.33,1.87-1.34.31-7.66,1.03-7.64.03-7.94-1.03-7.8-2.01-7.92-2.98-8.11-4.1-7.66-4.82-7.64-5.85-38.49-33.47-21.43-19.51-15.08-15.69-14.49-18.2-12.71-18.9-10.93-19.62-9.11-20.32h0l-4.82-13.24-4.12-13.55-3.4-13.8-2.68-14.1-1.95-14.38-1.25-14.69-.5-14.94.2-15.25.81-10.73,1.7-11.12,2.48-10.93,3.32-10.81,3.96-10.06,4.43-9.09,5.13-8.45,5.43-7.19,7.72-7.97,8.47-6.63,10.23-5.91,10.84-4.32,11.71-2.82,12.04-1.23,12.65.36,12.6,2.01,12.43,3.54,12.01,5.07,15.61,7.94,3.93,1.51,7.83,2.54h0l6.83,2.93,6.61,3.6,6.35,4.21,6.13,4.82,14.72,13.94,13.16,15.16,8.81,12.24,7.94,12.93,7.05,13.63,6.13,14.33,1.87,2.15,2.82.5,25.81-3.76,26.37-2.73,26.9-1.73,27.48-.72,1.87-.78.84-1.84,2.84-44.09,1.9-18.45,2.37-17.17,2.84-16.17,3.37-15.27,3.87-14.3,4.43-13.46,3.71-9.25,4.24-8.53,4.91-8.11,5.38-7.47,6.66-7.66,7.22-6.94,7.94-6.41,8.97-6.13,9.67-5.6,10.73-5.3,12.01-5.1,13.38-4.96,68.26-22.35,10.79-3.93,9.48-4.38,8.19-4.82,6.91-5.24,4.6-4.63,3.71-4.99,2.54-4.57,1.95-4.79,1.51-5.27.92-5.43.25-12.15-1.87-13.24-4.1-14.72-6.19-15.52-8.17-16.14-9.84-16.19-18.87-27.03-14.74-20.85-10.28-15.61-8.47-14.38-7.02-13.74-5.77-13.74-4.43-13.63-3.04-13.46-1.73-13.43-.45-11.4.67-1.7,1.67-.81h.36l1.45.67.47,1.53-.59,7.14.08,5.55,1.51,11.62,2.09,9.98,2.7,9.67,3.4,9.59,4.21,9.84,4.88,9.81,5.74,10.12,14.49,22.1,10.65,14.94,18.9,26.9,12.04,18.84,9.28,17.2,7.19,17,4.82,15.19,1.7,7.41,1.03,7.3.39,6.88-.31,6.72-.95,6.44-1.64,6.22-2.26,5.66-2.93,5.38-4.15,5.66-5.07,5.18-5.77,4.52-6.69,3.99-16.69,7.75-18.31,6.72-18.48,5.85-39.08,12.82-14.83,5.6-13.8,5.85-10.54,5.27-9.59,5.94-8.89,6.74-8,7.39-5.83,6.41-5.27,6.83-4.93,7.47-4.4,7.92-4.07,8.58-3.54,9.03-3.18,9.75-2.7,10.2-4.99,24.36-3.9,26.76-2.82,29.54-2.12,35.68-.33,1.42-.86,1.2-1.23.81-1.45.28-20.74.39-20.76.95-20.76,1.56-20.79,2.15-16.95,2.26-12.68,2.26-1.64-.22-1.14-1.23-8.95-19.06-8.86-16.36-9.23-14.58-9.78-12.96-10.31-11.34-10.98-9.84-11.54-8.22-12.15-6.72-1.2-.56-.61.06-.22.53h0l.11.31Z"/><path class="cls-1" d="M1264.36,2533.31l-.17.03-1.06-.33-.5-1.09.36-1.42.39-.42,15.52-11.51,17.2-11.57,18.84-11.62,20.54-11.71,11.12-5.85,10.23-4.71,9.45-3.65,9-2.7,8.53-1.73,8.03-.78,7.86.17,7.25,1.11,16.97,4.54,16.17,5.8,15.38,7.08,14.58,8.33h0l10.56,7.19,1.67,2.2.89,3.76.03,4.15-.75,4.65-1.64,5.38-2.42,5.77-3.18,6.08-8.05,11.79-3.82,3.54-4.01,1.39h0l-4.1-.7-4.26-2.79-25.45-20.68-11.76-8.61-10.42-5.88-9.95-3.71-9.62-1.5-12.82.5-15.05,2.42-14.6,3.4-16.11,4.4-42.45,13.32-18.37,5.94Z"/><path class="cls-1" d="M1462.69,2557.37l-.89,10.9.31,10.26,1.51,9.59,2.7,8.92,4.4,10.03,5.63,10.48,6.94,11.2,10.15,14.94,9.59,14.1,6.13,9.98,13.94,24.89,12.79,24.08,11.65,23.22,10.51,22.38.42,1.81-.47.61-2.03.5-1.67-1.42-16.69-36.18-18.31-34.92-19.9-33.64-21.52-32.41-5.1-8.44-6.74-13.1-4.26-10.54-2.62-10.84h0l-.75-6.49-.17-6.63.39-6.69.98-6.8.53-.84.95-.22h0l.81.14.64.39.2.75Z"/><path class="cls-1" d="M1405.69,2654.8l-7.55-2.23-.78.08-.53.59-9.14,25.45-.75,3.57.28,3.65,2.45,15.52h0l.53,8.81-.11,8.86-.7,8.92-1.34,8.97-.84,1.31-1.51.33-.81-.14-.33-.11-.64-1.25,1.81-14.41.39-13.91-1.09-13.43-2.51-12.96.2-3.09,10.67-27.34.03-.06-.11-1.37-1.06-.92-20.99-7.36-20.9-8.47-20.88-9.59-20.79-10.7-3.18-.86-14.35-.33h-.14l-1.37-.78-.36-1.51.14-.89.56-1.03,1.09-.47,12.01-1.48,4.38-1.56,47.77-16.42,18.26-5.35,17.11-4.26.92-.33,1.2-1.09.56-1.48-.14-1.59-.84-1.37-1.34-1.37-2.01-1.53-2.31-.98-2.48-.33-2.51.33-13.49,3.82-12.51,4.24-11.48,4.57-10.51,4.99-17.03,8.36-17.84,7.89-1.84.22-1.73-.7-.28-.22-.5-1,.5-1,.31-.17,16.89-7.41,21.29-10.45,17.98-7.66,10.59-4.35,7.86-2.82,7.72-1.87,7.5-.89,7.36.08,1.51-.17,1.31-.75,7.94-6.94.61-.11.86.25.81.72-.08,1.09h0l-.2.25-8.22,8.25-.64,1.84,1.2,4.77,2.15,3.04,2.2,1.37,2.65.75,8.45.31,2.03-.03,10.09-1.14,10.59-3.09.61-.08,1.2.75v1.42l-2.26,3.37-2.95,3.04-3.82,2.93-4.32,2.56-11.04,4.46-11.87,2.59-1.28.7-.5,1.39-.03,7.86-.75,7.61-1.48,7.36-2.17,7.08h0l-3.96,8.86-.17,1.59.98,1.25,7.64,5.32,6.49,6.35h0l1.11,1.34.22,1.34-1.03.86-.64-.03ZM1380.27,2632.93l.22,1.03.98.36.45-.17,2.03-1.62,3.21-4.4,1.98-5.96.78-7.75-.22-11.06-.22-5.69-.45-1.14-1.06-.59-.92-.17-1.42.36-.7,1.31v.17l.03,1.67h0l-.2,8.39-.84,8.42-1.51,8.42-2.15,8.42ZM1330.69,2612.77l42.59,19.65.06.03.89-.03.61-.67,2.42-8.14,1.7-8.05.95-7.97.22-7.89-.03-.28-.92-1.39-1.67-.25-46.68,13.16-.36.2-.33.89.56.75Z"/><path class="cls-1" d="M754.23,2592.79l-8.84-4.46-9.34-3.18-9.59-1.9-9.67-.53-9.09.86-8.78,2.2-7.94,3.46-7.36,4.82-7.47,7.27-5.91,8.7-5.41,11.32-3.4,10.59-2.51,12.88-1.62,13.43-.72,13.85.17,14.16,1.06,14.24,1.98,14.27,2.79,13.88,3.68,13.68,4.35,12.77,5.16,12.32,5.77,11.48,6.58,10.87,7.02,9.75,7.75,9.06,8.19,7.97,8.86,7.14,31.13,20.6,1.17,1.37.22,1.78v.14l-.08.28-.89.89-1.28-.14-17.45-10.73-12.32-8.22-8.61-6.66-10.28-9.48-9.25-10.28-8.47-11.4-7.47-12.12-6.61-13.1-5.8-14.21-4.74-14.77-3.87-15.77-3.23-18.65-1.76-18.14-.25-17.17,1.23-16.33,2.73-15.22,4.21-14.16,5.66-12.9,7.02-11.71,5.1-5.99,6.61-5.21,7.53-4.01,8.75-3.04,9.5-1.81,10.26-.61,10.12.72,9.59,1.98,7.89,2.59,7.36,3.26,6.83,3.93,6.3,4.57h0l5.74,5.21,5.18,5.83,4.68,6.52,4.15,7.14,3.62,7.55,2.98,7.72,2.23,7.47,1.56,7.55.78,7.16.08,7.16-.67,6.86-1.39,6.86-1.28,4.26-3.18,8.14-4.18,8.81-4.52,8.05-4.77,7.16-4.6,5.74-4.49,4.43-4.35,3.12-4.4,1.9-1.62-.45-.39-1.59.45-.75,12.63-13.52,4.96-6.44,4.6-7.27,3.87-7.53,3.23-7.92,2.26-7.66,1.31-7.14.45-6.83-.53-6.61-.72-1h-1.25l-.33.25-.78.78-14.69,13.16-15.91,11.93-14.72,10.79-8.33,7.78-5.85,8.14-4.49,8.42-3.04,8.61-1.62,8.84-.25,7.36.75,7.47,1.76,7.58,2.76,7.66,3.18,6.63,3.68,6.13,4.18,5.63,4.65,5.1h0l9.42,7.75,6.35,3.37,3.96,1.2,4.54.72,11.82.11,8.81-.14,6.63.64,6.22,1.81,4.99,2.59,4.93,3.73,5.02,5.02,6.02,7.25,3.48,3.65,3.57,2.48,3.73,1.28,3.21-.11,2.12-.89,2.03-1.62,1.95-2.62h0l1.09-2.7.45-3.04-.19-3.6-1.51-5.21-3.09-5.16-4.82-5.27-6.97-5.85-4.65-4.04-3.68-4.12-2.93-4.4-2.06-4.52-1.7-7.78.14-8.7,1.84-9.98,4.26-14.69.42-1.31.11-.53.28-12.77.5-1.73,1.34-1.25,1.76-.42,1.73.53h0l1.25,1.39.75,2.23-.17,4.18-3.23,11.68-3.32,12.26-1.51,8.44-.19,7.19,1.17,6.3,1.7,4.26,2.54,4.21,3.26,4.01,4.18,4.07,8.42,7.97,5.6,6.94,3.4,6.66,1.31,6.69-.14,3.65-.78,3.79-1.34,3.65-1.67,3.01-2.03,2.34-2.37,1.73h0l-4.79,1.45-5.77-.39-1.87-.5-3.6-1.64-3.68-2.79-8.39-9.67-2.76-3.51-3.21-3.43-3.46-2.59-4.71-2.29-5.55-1.45-6.55-.64-8.97.06-10.48-.03-7.86-1.53-8.05-3.71-7.69-5.63-7.41-7.5-6.88-9.25-5.82-10.45-4.21-10.56-2.31-9.98-.56-12.4.56-6.02,1.11-5.85h0l2.29-7.44,3.26-7.22,4.24-6.97,5.16-6.74,7.83-7.5,13.16-9.34,7.89-5.35,10.87-8.39,13.27-12.01,4.91-4.57,1.37-2.37-.22-2.73-5.57-14.07-.22-.42-1.42-.7-1.39.7-4.4,4.91-5.66,4.99-5.85,4.18-5.8,3.23-5.32,2.06-4.65.92-4.18-.14-3.82-1.31-2.98-2.23-2.51-3.4-.06-.11-1.48-4.12-.28-4.54.81-5.04,2.01-5.74,3.18-6.3,4.21-6.52,5.27-6.69,5.46-5.8.17-.17.33-1.34-.78-1.14ZM780.32,2623.53l.36-1.31-4.4-8.31-5.49-7.39h0l-4.65-4.79-5.21-4.29-1.25-.36-1.2.59-9.03,10.48-6.44,9.62-3.62,8.31-.75,3.62-.06,3.43,1.11,4.46,2.42,3.21,1.98,1.09,2.26.53,5.66-.47,7.08-2.7,6.55-4.26,14.69-11.43Z"/><path class="cls-1" d="M715.02,2787.75v.03l.25,1.06-.59.92-.06.03-1.23.33-1.14-.56-5.13-6.22-4.82-7.58-4.74-9.09-4.07-9.34-3.51-9.81-2.84-10.01-2.23-10.45-1.53-10.59-.89-10.93-.22-11.01.45-11.15,1.09-11.15,1.78-11.32,2.45-11.2,3.07-11.09,3.71-10.87,4.26-10.62,4.85-10.28,4.65-7.72,4.96-5.46,1.81-.28,1.09,1.48h0l-.22,1.03-4.77,8.05-5.66,9.87-4.43,9.34-3.82,9.81-3.23,10.31-2.65,10.79-2.03,11.26-1.45,11.73-.84,12.24-.25,12.71.72,14.69,2.01,14.13,3.32,13.6,4.63,13.07h0l7.61,15.55,9.64,14.69Z"/><path class="cls-1" d="M893.36,2712.55l-1.42-.53-.56-1.39h0l.03-.22.14-.86.53-.98,1.03-.42,22.24-.39,22.46.67,22.71,1.78,22.97,2.87,23.19,3.93,23.44,5.04,23.69,6.1,23.94,7.22,27.56,9.56,25.36,10.26,23.19,10.95,20.99,11.62,17.98,11.71,16.75,12.82,15.52,13.88,14.3,14.97h0l13.29,16.3,12.01,17.45,10.76,18.56,9.5,19.68,9.06,22.32,7.66,22.46,6.27,22.63,4.88,22.8.03.25-.53,1.14-1.23.33-.89-.14-.84-.81-3.21-15.5-3.82-15.47-4.35-14.99-4.93-14.88-5.38-14.16-5.96-13.94-6.38-13.29-6.94-12.96-7.25-12.1-7.8-11.73-8.14-11.01-8.7-10.56-8.89-9.7-9.42-9.23-9.7-8.5-10.2-7.94-10.59-7.47-15.33-9.78-15.86-9.03-16.42-8.22-16.95-7.41-23.41-9.06-23.41-8.05-23.36-7.02-23.3-6.05-23.3-5.02-23.27-3.99-23.22-3.01-23.19-1.98-20.74-.53-22.63,1Z"/><path class="cls-1" d="M783.08,2734.57l-8.72,6.16-7.69,4.68-2.15.84-1.95-.06-.39-.11-.86-.95.25-1.23.31-.31,18.23-13.04,17.7-13.74.36-.22,1.28.11.64,1.11v.39h0l-.5,1.9-1.42,1.84-6.69,6.02-8.39,6.61Z"/><path class="cls-1" d="M1478.71,2888.36l-3.15-.89-2.82-1.45h0l-4.01-3.71-3.62-5.32-2.76-5.57-2.03-5.94-1.11-6.05-.25-6.02.67-5.94,1.51-5.71,2.37-5.46,4.04-6.08,5.24-5.41,6.19-4.35,7.3-3.43,7.3-2.12,7.36-.98,5.57.03,5.57.64,5.66,1.31,5.66,1.95,1.23,1.09.25,1.64-.03.08-.03.11-.81,1-1.31.08-7.19-2.03-7.16-1.17-7.05-.31-6.77.59-6.3,1.45-5.83,2.34-5.02,3.12-4.4,3.93-3.57,4.6-2.82,5.41-1.92,5.94-1.09,6.72v7.53l1.37,7.25,2.62,6.47,3.93,5.83,5.69,5.24,2.59,2.26.08.28-.31.81-.84.25Z"/><path class="cls-1" d="M1453.43,2837.95l-2.12,11.62-.47,7.33,1.37,10.09,2.65,8.7,3.87,7.25,5.16,5.85h0l6.66,4.54,8.03,3.01,9.36,1.48,10.73-.03,1.37.42.72,1.23.14.98-.2.86-.75.45h-.03l-11.26.45-10.45-1.51-4.77-1.48-4.4-1.95-7.61-5.13-4.43-4.57-3.65-5.27-2.95-6.1-2.06-6.72-1.17-7.22-.28-7.61.61-7.97,1.53-8.19.64-1.11,1.17-.59,1.25-.2.22-.03.89.45.22.98Z"/><path class="cls-1" d="M1497.53,2892.49l-.42-.33-.92-1.73.72-1.81.33-.25,8.17-4.68,8.56-4.01,9.09-3.43,8.84-2.54,8.56-1.64,7.86-.7,7.61.25,6.69,1.14,2.42,1.09,1.81,1.81.89,2.23-.14,2.29-.14.36-.7,1.39-2.2,2.45-2.95,1.73-3.76,1.14-4.82.61-5.74-.06-6.3-.75-6.61-1.42-5.55-1.84-2.54-.56-4.65.53-5.52,1.76-6.47,3.07-6.72,4.04-2.73.78-2.68-.92ZM1561.21,2877.24l-24.89,1.17-.17.2v.06h0l.67,1.84,1.78,1.48,2.62.92,3.01.22,9.53-.45,3.01-.5,2.51-1.17,1.62-1.64.53-1.87v-.06l-.03-.06-.2-.14Z"/><path class="cls-1" d="M869.62,2924.35l.36-.98.95-.39h0l.14.03.89.17.7.72,2.93,23.52,3.46,21.29,4.07,19.84,4.77,18.62,5.41,17.28,6.19,16.17,6.86,14.88,7.55,13.74,2.29,3.71h0l9.89,13.82,11.37,12.88,12.85,11.96,14.33,10.98.67,1.11-.36,1.25h0l-.08.11-.56.56-.89.42-.95-.25-8.36-6.13-7.94-6.52-7.5-6.91-7.08-7.3h0l-12.26-14.88-10.73-16.3-9.23-17.73-7.66-19.09-8.39-26.76-6.47-26.67-4.54-26.62-2.65-26.53Z"/><path class="cls-1" d="M1026.09,3152.86l312.16,120.71,25.72,8.75,33.92,9.62,1.03.72.25,1.23v.06l-.61,1.06-1.2.31-9.59-1.62-37.46-12.18-42.81-15.61-281.78-108.81-1.14-1-.28-1.5.14-.81.03-.11.61-.75,1-.06Z"/><path class="cls-1" d="M993.78,3363.21l8.97,62.51,7.44,47.38v.5l-.78.89-1.2-.14-.14-.11-1.25-2.37-8.84-53.51-8.03-54.63-7.14-54.77-6.05-53.9.56-2.62.11-.14,1.09-.47,1,.67h0l.17.47,5.71,47.63,8.36,62.6Z"/><path class="cls-1" d="M659.71,721.21l.67-.25v-.08l-3.51-20.96-2.9-20.93-2.29-20.93-1.7-20.88-1.11-20.85-.5-20.82.08-20.79.7-20.76h0l1.62-24.55,2.45-24.53,3.29-24.5,4.12-24.44,5.24-23.8,6.88-24.28,8.58-24.78,10.26-25.25,8.25-17.75,9.09-17.2,12.93-21.41,14.19-20.46,15.64-19.68,16.81-18.7,18.26-17.89,19.4-16.81,20.71-15.91,21.8-14.8,17.14-10.42,17.5-9.59,17.81-8.81,18.17-7.94h0l19.79-7.61,20.18-6.66,20.57-5.74,20.96-4.79,21.35-3.85,21.71-2.9,22.13-1.98,22.49-1.03,21.57-.08,21.27.78,20.99,1.67,20.68,2.54,20.37,3.46,20.07,4.32,19.79,5.21,19.48,6.08h0l16.78,6.05,16.53,6.72,16.33,7.41,16.08,8.05,22.32,12.57,21.41,13.68,20.43,14.77,19.4,15.83,18.31,16.89,17.22,17.89,15.91,18.7,14.8,19.68,10.2,15.19,9.56,15.75,8.89,16.22,8.19,16.75,7.3,16.75,6.66,17.14,5.99,17.56,5.32,17.95,4.68,18.34,4.01,18.73,3.34,19.12,2.7,19.54,3.4,34.95h0l1.42,23.47.72,23.52v23.55l-.7,23.63-1.37,23.66-2.09,23.72-2.79,23.77-3.48,23.83.06.53.81.56.86-.42,9.53-12.49,9.11-8.89,4.57-3.29,4.85-2.73,4.85-1.92,5.1-1.28,7.33-.5,5.02.45,4.49,1,4.21,1.64,3.68,2.17,4.07,3.57,3.29,4.26,2.68,5.02,2.15,6.08,1.48,6.77.92,7.58.31,8.64-.31,9.42-1.06,13.55-1.39,10.98-6.41,36.99-6.91,34.73-7.36,32.44-7.86,30.18-13.18,42.81-18.84,53.99-4.57,11.23-5.13,10.09-5.66,8.89-6.22,7.72-2.48,2.12-5.6,3.18-5.55,2.17-5.49,1.2-5.43.2h0l-5.3-.78-5.24-1.73-5.16-2.7-5.13-3.65-.17-.11-.72.03-.42.59-9.2,56.63-8.81,48.77-7.61,34.11-4.15,14.94-4.49,13.91-4.99,13.32-5.38,12.4-5.94,11.96-6.61,11.71-8.33,12.9-9.36,12.68-1.23,2.12-.61,2.34-5.04,51.28-3.43,51.28-1.81,51.26-.17,51.23h0l.72,31.97,1.34,31.94-.67,1.73-1.73.67h0l-.25-.03-2.03-.36-1.42-.81-.64-1.5-2.15-54.99-.06-56.05,2.09-57.11,4.18-58.17,2.48-30.91-.31-.67-.72-.08-.28.2-13.8,14.94-14.72,14.74-15.94,14.86-17.14,14.91-18.37,15.05-20.07,15.61-50.5,36.9-16.61,10.7-17.34,8.97-11.46,4.79-11.65,4.07-11.98,3.43-12.82,2.87-13.21,2.26-14.13,1.73-15.25,1.2-16.47.7-20.21.08-19.37-.86-18.26-1.81-17.42-2.73-16.39-3.71-15.47-4.63-14.41-5.55-13.35-6.41-.2-.11-18.9-11.29-24.97-17.5-10.12-7.27-24.44-18.03-23.61-18.59-22.77-19.12-21.96-19.65-15.69-15.44-14.21-15.97-.92.14-.03.25,3.4,34.87,2.7,34.28,2.01,33.36,1.28,32.75.59,32-.14,31.36-.84,30.49-1.53,29.77v.11l-.92,1.59-1.78.42-.98-.17-1.7-1-.64-1.84,1.06-35.93.39-35.23-.22-34.31-.86-33.67-1.53-32.97-2.15-32.39-2.81-31.58-3.43-30.91-.89-3.37-1.76-3.01-12.15-16.86-10.48-17.34-5.46-10.48-4.99-10.87-8.75-23.11-4.6-15.27-4.38-17.53-4.18-19.82-3.96-22.07-14.33-89.16-.06-.22-.64-.59-.86.11-7.69,4.35-7.27,2.7-7.19,1.17-6.72-.42-5.32-1.42-4.99-2.37-4.88-3.4-4.54-4.21-4.52-5.35-4.07-6.08-3.76-6.86-3.51-7.83-3.76-9.36-9.73-25.7-9.03-25.98-8.28-26.25-7.58-26.53-6.86-26.84-6.1-27.12-5.41-27.4-4.68-27.7-.72-4.52-2.76-18.76-1.42-15.08-.36-13.35.78-11.82,1.92-9.98,3.07-8.31,4.35-6.66,5.41-4.68,6.49-2.87,7.3-1.09,8.86.45,8.17,1.98,6.63,3.04,6.41,4.38,6.63,5.91,8.53,8.97,4.68,5.04ZM1504.45,900.62l-9.92,20.21-12.93,22.13-15.91,24.14-22.41,31.49-9.06,12.54-12.07,17.36-11.51,17.64-10.79,17.64-10.2,17.92-9.59,18.09-8.97,18.37-8.28,18.37-7.69,18.62-.56.64-.86.14-.89-.14-.95-.64-.17-1.09.06-.14,15.13-35.34,16.81-33.92,18.48-32.53,20.18-31.1,47.21-67,10.31-15.47,9.59-16.28,8.84-17.11,8.08-17.92,2.29-8.03,6.8-42.34v-2.34l-9.81-52.62-8.03-38.43-7.39-27.48-9.84-28.07-7.11-15.11-13.96-26.42-11.79-22.55-9.09-19.15-6.61-17.22h0l-3.76-13.49-2.68-13.82-1.62-14.19-.53-14.52v-.08l.59-1.2,1.28-.42h.08l1.28.61.56,1.31.78,13.32,1.59,13.1,2.42,12.82,3.26,12.6h0l6.22,17.98,8,17.48,27.29,51.95,7.69,16.19,6.83,17.64,5.94,19.09,5.04,20.51,14.72,72.21.45.5.67-.17.17-.36,10.34-68.95,9.28-59.76,3.34-28.6,2.03-31.49.72-34.34-.59-37.24-1.03-21.32-1.76-21.15-2.42-20.62-3.15-20.37-3.82-19.68-4.54-19.43-5.21-18.84-5.94-18.53-6.58-17.84-7.3-17.53-7.94-16.92-8.7-16.56-9.25-15.8-10.01-15.41-10.59-14.8-11.34-14.38-10.67-12.37-11.29-12.01-11.68-11.46-12.15-10.98-12.79-10.7-13.24-10.2-13.68-9.7-14.05-9.2-14.38-8.64-14.72-8.08-15.11-7.58-15.36-7-15.64-6.41-15.83-5.8-15.89-5.13-16.03-4.54-16.19-3.87-16.28-3.26-18.51-2.95-18.59-2.23-32.02-2.2-32.25-.11-32.44,1.95-32.66,4.04-17.36,3.07-17.25,3.79-17.09,4.49-16.89,5.18-16.83,5.91-16.58,6.58-16.3,7.25-16.03,7.89-15.75,8.56-15.38,9.14-14.99,9.75-14.58,10.34-14.05,10.84-13.6,11.37-13.07,11.9-12.6,12.43-11.51,12.37-10.84,12.82-10.4,13.43-9.73,13.8-9.31,14.55-8.67,14.86-8.11,15.47-7.44,15.78-6.91,16.36-6.24,16.61-5.69,17.14-4.99,17.34-4.4,17.92-3.73,18.09-3.12,18.48-2.42,18.59-2.42,25.06-1.62,24.86-.84,24.67-.03,24.5.78,24.3,1.56,24.14,2.37,23.94,3.15,23.75,6.94,43.34,9.25,53.18,1.37,10.51,1.28,15.44.53.72.89-.17.25-.47,2.42-13.91,5.35-28.51,1.81-9.48,3.96-18.28,4.77-17.92,5.6-17.61,6.41-17.31h0l6.69-15.69,7.41-15.44,19.98-39.21,9.2-18.65,7.16-19.26h0l3.76-13.46,2.79-13.77,1.9-14.05.95-14.33v-.06l1-.75.86.14,1.06.61.39,1.14-1.11,19.4-2.93,18.53-4.71,17.75-6.52,16.89-10.9,22.94-15.86,30.96-6.27,12.12-6.83,14.35-6.33,15.58-5.88,16.89-5.3,18-4.85,19.31-4.29,20.4-3.79,21.8-3.29,22.85-1.37,6.35-1.56,7.33.03,4.99,7,40.89,1.48,6.16,2.31,5.88,12.74,24.86,8.72,15.13,9.75,15.66,29.26,43.12,20.49,29.74,22.97,35.37,19.15,33.22,8.39,16.22,7.58,16,6.97,16.11,6.19,15.86.03.06-.11,1.17-.92.75-.11.03-1.28-.11-.86-.95-12.15-28.34-13.07-27.04-14.02-25.73-14.94-24.42-28.85-43.53-34.62-50.47-14.44-22.94-15.47-28.71-.28-.25-.61.06-.22.59,13.63,77.48,10.59,64.58,10.34,64.97,7.39,42.98,6.38,28.9,3.87,13.63,4.21,12.79,4.65,12.24,5.24,12.01,5.69,11.48,6.27,11.26,7.14,11.4,7.89,11.2,8.97,11.45,10.06,11.59,11.2,11.87,12.35,12.07,28.74,25.45,37.18,29.85,23.11,17.53,27.59,20.1,10.03,6.83,10.15,6.22,10.26,5.57,10.4,4.96,10.51,4.35,10.65,3.73,10.76,3.09,10.87,2.48h0l3.54.67,13.41,1.98,14.91,1.45,16.44.89,17.95.33,17.11-.19,15.69-.75,14.41-1.31,13.55-1.87,13.07-2.54,12.29-3.15,11.87-3.82,11.76-4.6,10.17-4.71,10.12-5.43,17-10.67,20.93-14.77,46.21-34.84,17.64-14.16,15.97-13.6,14.94-13.55,13.85-13.57,12.82-13.57,12.01-13.85,9.75-12.26,8.58-11.96,7.39-11.62,6.24-11.29,5.41-11.32,5.13-12.1,8.95-25.47,7.41-27.62,5.94-29.88,32.36-193.54,3.32-17.64,4.43-24.33-.64-.45-.2.2ZM606.86,855.36l-.06-14.08v-15.08l.81-11.59,2.4-28.4.81-27.54.78-7.83,1.81-8.92.86-.56,1.06.2.89.5.33.98-1.39,44.45-1.87,36.87-.53,16.25.56,15.36,1.64,14.21,2.76,13.29,3.87,12.37,4.93,11.32,6.19,10.59,7.19,9.48,4.82,5.16,4.49,4.91,3.85,5.16,3.21,5.41,2.59,5.63h0l2.45,7.89,1.37,8.33-.5,1.62-1.48.78h-.36l-1.76-.56-.84-1.67h0l-1.11-7.75-2.17-7.08-4.77-8.75-7.22-8.64-7.3-8.33-6.63-9.36-6.02-10.34-5.35-11.34-1-.45h-.03l-.45.86,9.53,30.44,13.49,39.21,9.5,27.34,5.99,15.47,6.35,12.12,6.86,9.2,3.6,3.43,3.87,2.79,2.73,1.42,4.12,1.45,4.24.7,4.57-.03,4.49-.78,4.15-1.48,3.9-2.12,3.54-2.73,3.07-3.32,1.09-2.26.11-2.48-12.77-72.97-11.51-64.83-6.74-42.5-16.75-108.7-1.23-2.62-14.1-17.28-4.1-4.77-4.49-4.29h0l-8.81-6.3-4.24-2.09-4.71-1.62-4.74-.95-4.82-.31-4.18.36-3.96,1.03-3.4,1.62-3.01,2.29-.92.95-2.73,3.71-2.17,4.26-1.7,4.88-1.31,5.77-1.17,13.35.7,15.94,2.37,20.88,2.98,20.79h0l5.69,30.99,7.08,30.77.11.2.59-.28ZM1581.35,901.85l-5.35,10.93-6.52,10.45-7.61,9.95-8.78,9.48-4.21,5.24-3.21,6.41-2.17,7.5-1.17,8.67-.53,1.03-1.11.33h-.08l-.75-.14-1.59-.95-.5-1.78,1.59-9.36,2.84-8.19,4.6-7.94,6.69-7.97,7.19-8.28,6.27-8.95,5.57-9.95,4.63-10.45,3.9-11.46,2.9-11.76,1.98-12.37,1-12.46.59-25.14-.36-25.73-1.31-26.31-2.26-26.92.17-1.14,1.78-1.51,1.14.06.75.86h0l.03.11,2.59,17.61,2.73,48.3,1.06,44.29.64.31.14-.22,14.05-72.63,3.26-21.52,1.2-17.95-.84-15.3-1.2-6.97-1.64-6.1-1.59-3.96-2.01-3.34-2.51-2.98-2.87-2.37-3.79-2.03-4.1-1.25-4.63-.47-4.74.33-4.91,1.11-4.82,1.84-4.57,2.51-4.24,3.12-5.88,5.8-6.47,8.11-6.88,8.5-6.22,5.43-1.42,2.2-6.24,36.46-7.33,50.75-5.96,41.95-4.85,29.99-23.13,132,.28,3.65,2.01,3.07,4.79,3.73,4.85,2.59,5.07,1.59,4.99.45,4.04-.39,3.93-1.06,3.76-1.67,3.6-2.26,3.46-2.9,3.18-3.43,5.43-8.25,7.22-15.3,6.55-16.86,14.24-41.58,15.22-46.66-.45-.92-.03-.03-1.09.47ZM1583.83,898.64l.28-.89-.2-.56-.56-.08-.22.28.06,1.39h0l.61-.06.03-.08Z"/><path class="cls-1" d="M775.82,511.07l-.11.03-1.14-.28-.59-1v-.08l-3.99-55.58-5.13-73.22-.08-16.56.89-30.21.36-.86.84-.47.92-.14,1.23.31.56,1.11v.17l-.78,23.41.06,23.3.89,23.19,1.76,23.08,3.79,45.15,2.06,36.82-.42,1.2-1.11.64Z"/><path class="cls-1" d="M1424.8,510.43l-1.09-.64-.42-1.2,2.26-36.54,4.01-44.82,1.87-22.91,1-22.99.2-23.16-.67-23.24v-.17l.56-1.11,1.23-.31.92.17.84.45.33.86.72,30.02-.17,16.44-5.49,72.66-4.26,55.18v.08l-.59.98-1.14.28-.11-.03Z"/><path class="cls-1" d="M1018.07,650.76l.98-5.71.31-.78,1.64-.78,1.56.95,3.04,6.27,2.45,7.02,1.64,7.39.7,7-.17,6.74-1,5.94-1.87,5.43-2.79,4.93-1.56,1.67-1.98,1.14-2.23.56-2.29-.08-24.3-4.77-26.37-6.08-78.85-20.76-44.84-12.12-11.15-2.62-9.87-1.48-9.06-.39-8.53.67-7.97,1.56-8.22,2.62-13.91,5.8-13.63,6.74-13.38,7.69-13.1,8.64-2.2.75-.42-.06-.25-.06-.7-.78.14-1.06,9.48-13.32,10.2-12.51,10.93-11.65,11.65-10.81,9-7.39,9.39-6.94,4.26-2.7,6.3-3.07,7.05-2.4,7.3-1.53,8.05-.84,8.58-.08,9.39.59,25.06,3.57h0l69.26,12.35,64.27,13.21,5.88,1.73,4.63,2.48,3.4,3.15,3.12,4.35.86.03.08-.2Z"/><path class="cls-1" d="M1181.23,653.15l.45,1.09,1.17.08.47-.53,3.57-6.49,3.9-4.6,2.62-1.39,22.77-5.18,29.46-6.05,79.04-14.63,3.85-.67,26.2-4.12,9.78-.86,8.89-.17,8.47.5,7.75,1.2,7.33,1.95,7.19,2.76,6.41,3.34,6.27,4.18,7.14,5.55,13.24,11.57,12.37,12.6,11.54,13.66,10.7,14.72.17,1.37-1,.92-.47.06-3.73-1.64-14.05-9.11-13.8-7.83-13.63-6.58-13.38-5.27-2.23-.72-6.19-1.53-6.27-.86-6.49-.28-7.13.33-15.41,2.42-21.04,5.32-64.66,17.53-59.23,15.13-35.56,7.89-4.79.25-3.9-1.31h0l-1.81-1.39-1.53-1.92-2.15-5.32-1.23-6.58-.7-7.14-.08-7.27.53-6.72,1.09-5.8,1.59-4.74,2.06-3.87,2.7-3.09,1.76-.39,1.25,1.28h0l.03.81-1.28,7.58Z"/><path class="cls-1" d="M1031.65,702.82l-.03-.03-.08-1.2.78-.92.22-.14,1.09-.08.86.67,11.62,20.4,8.56,17.06,6.27,15.36,4.21,14.16,1.53,8.39.95,9.28.36,10.2-.25,11.12-1.87,26.62-3.12,26.34-4.38,26-5.6,25.73h0l-3.71,14.35-.98,1.64-1.73.89-1.31.25-.81-.7.03-.17,4.77-17.48,4.1-17.45,3.43-17.45,2.76-17.39,2.09-17.42,1.42-17.36.72-17.36.08-17.34-.7-10.4-1.81-10.76-2.84-10.42-3.71-9.56-10.9-22.6-12.04-22.24Z"/><path class="cls-1" d="M1156.45,929.3l-.84.11-.75-.39-4.21-12.9-5.04-21.99-3.4-18.34-2.73-18.37-2.06-18.42-1.37-18.42h0l-.7-18.39.53-16.97,2.31-16.44,4.1-15.94,5.91-15.89,8.05-16.56,10.42-17.75,1.03-.75,1.25.11.06.03.7.81-.11,1.03v.03l-15.78,30.46-5.3,12.01-3.57,9.87-3.48,14.94-1.73,16.25-.14,18.65,1.48,25.5,2.76,27.51,4.29,27.23h0l4.29,20.65,5.18,20.51.03.08-.22,1.11-.98.64Z"/><path class="cls-1" d="M994.69,755.8l-.06.03-.98.36-.98-.45-.61-.64-15.02-15.33-11.54-10.09-11.06-7.47-5.35-2.7-5.52-2.15-14.02-3.85-14.35-2.34-14.66-.84-14.97.75-15.33,2.37-15.61,3.96-16,5.6-16.36,7.22-17.14,9-17.92,10.79-2.23.78-2.34-.31-.2-.06-.36-.2-.47-1.06.59-1.03,23.72-14.41,22.49-11.37,10.79-4.54,10.45-3.76,10.17-3.04,9.87-2.26,14.3-2.12,14.24-.86,13.74.42,13.04,1.64,12.24,2.87,11.15,4.04,10.28,5.27,8.97,6.35,13.02,11.93,14.16,15.38.36.81-.5,1.28Z"/><path class="cls-1" d="M1208.66,755.44l-.5-1,.36-1.06,13.82-15.22,12.74-11.82,8.81-6.3,10.09-5.27,10.93-4.01,12.04-2.93,12.79-1.7,13.52-.47,14.02.78,14.1,2.01,9.7,2.15,10.03,2.93,10.31,3.65,10.65,4.4,22.19,11.06,23.41,14.02.59,1-.47,1.06-.33.2-.2.06-2.29.33-2.2-.78-17.7-10.48-16.92-8.78-16.17-7-15.75-5.41-15.38-3.82-15.08-2.23-14.77-.67-14.38.92-14.13,2.4-13.77,3.85-5.41,2.15-5.27,2.7-10.84,7.39-11.29,10.01-14.69,15.19-.59.61-.95.45-.98-.36h-.06Z"/><path class="cls-1" d="M1563.01,764.86l-1.06-.89-1.31.45h0l-.31.56-9.31,31.47-.31,2.56.53,2.54,2.7,8.95,1.25,9.03.56,3.76,1.17,3.62,2.79,6.35,4.07,9.53,2.48,7.19,1.48,6.58.56,6.35-.2,5.35-.92,5.69-2.7,10.31-3.6,10.15-4.46,9.95-5.32,9.75-.7,2.76.98,2.68,1.17,2.01.08,1.53-.11.28h0l-1.14.84-2.15.25-5.8.98-4.01,2.17-3.71,3.54-3.34,4.79-3.79,7v.03l-1.62,2.48-1.87,1.76-2.26,1.11-2.31.31-2.68-.67-2.31-1.67-1.64-2.34-1-3.04-.75-5.49-.14-5.35.45-5.18,1.06-5.02h0l2.29-6.35,3.34-6.08,4.38-5.77,5.21-6.94,2.82-5.43,1.06-3.82.53-4.04-.36-9.39-2.17-11.09-4.57-15.19-.53-1.67.11-.61,6.19-9.17,3.21-7.78,5.04-19.31,5.35-17.67,5.66-16,5.94-14.35,4.96-9.98,5.52-9.2,6.08-8.42,6.63-7.61,5.27-4.07,5.96-2.54,5.6-.56,2.31.53,2.06,1.06,2.7,3.09,1.42,4.29.45,2.65,1.14,10.42.2,10.56-.81,10.73-1.76,10.9-1.06,1.53-1.84.31-.08-.03-.84-.25-.75-.56-.2-.92,1.56-14.08.47-11.73-.61-10.26-1.73-8.86-1.73-2.37-2.84-.67h0l-.59.11-3.54,1.42-3.46,2.17-7.05,6.72-7.11,9.84-6.38,12.01-.42,1.17h0l-.22,3.68,1.34,4.15,2.84,4.57,4.4,4.99.45,1.23-.67,1.09-.28.14-3.04,1.2-2.34-.06-1.64-1.67-4.38-11.06ZM1545.48,809.82l-2.15,9.59-2.59,8.81-3.04,8.03-3.48,7.22-.75,2.68.45,2.76,2.54,7.16,1.81,6.83,1.17,6.86.45,6.3-.22,5.88-.95,5.77-1.64,5.27-2.37,5.04-3.21,4.77-6.72,8.84-2.73,4.32-2.03,6.69-1.17,6.1-.28,5.49.59,4.93,1.06,1.2,1.59-.2.45-.5.45-.78,6.86-10.31,3.32-3.51,3.43-2.7,4.43-2.37,5.32-1.76,1.25-.75.61-1.34,1-7.25.7-2.31,6.49-14.41,4.07-12.57,2.06-11.73-.03-11.12-1.98-7.55-4.74-10.76-2.84-6.44-2.31-6.91-1.78-7.36-1.28-7.83-.22-.5-.92-.25-.64.7Z"/><path class="cls-1" d="M638.55,768.34l-4.04,7.61-1.25,1.73-1.48.84h-1.51l-1.67-.75-.89-.89-.45-1.23.14-1.25.67-1.09.45-.39,4.15-3.43,3.79-4.43.61-1.51-.2-1.64-3.4-7.75-4.04-7.33-8-11.04-9.73-9.98-2.12-1.34-2.37-.56-2.23.36-1.81,1.17-2.48,3.93-1.2,5.3-.5,9,.14,9.25.84,9.45,1.51,9.67-.25,1.62-1.23,1.06-.72.28-.5.03-.5-.53-3.57-15.89-1.45-13.85.59-11.76,1.09-4.99,1.64-4.6,2.12-3.34,2.62-1.95,4.35-.84,5.3,1.28,6.16,3.51,5.71,5.02,9.39,11.4,6.94,11.26,8.5,18.03,7.11,18.14,5.74,18.2,4.32,18.28,2.62,8.75,4.85,7.83,1.28,2.9-.14,3.15-.36,1.28-4.15,16.78-1.53,12.21.11,5.43.67,4.6,1.25,4.12,1.95,3.76,2.34,3.57,6.27,9.75,3.87,7.19,2.54,6.55,1.39,6.38.22,7.44-1.11,7.66-1.06,2.56-1.87,1.98-2.42,1.17-2.65.2-.67-.11-2.23-1.14-1.98-2.2-3.18-5.1-3.51-5.6-2.95-3.79-3.26-2.93-3.37-1.87-3.34-.98-3.9-.28-1.56-.67-.5-1.64.06-.31,1.34-4.46-.2-1.62-8.44-15.8-5.35-13.07-3.09-12.4-.7-5.99-.14-6.16,1.03-10.26,2.7-7.64,6.8-15.38.47-1.23,8.61-29.24-.06-1.37-10.98-27.84-.14-.25-.89-.47-.92.45ZM654.3,809.71l-5.35,17.14-4.49,11.04-3.93,9-2.48,8.86-1.09,8.64.31,8.47,1.56,7.8,2.79,7.61,7.39,17.25,3.29,9.89.64,1.31,1.2.84,9.92,4.46,3.09,2.12,1.87,2.01,8.95,13.74.5.47,1.73.14,1.09-1.34.89-7.5-.53-6.41-1.14-4.12-1.95-4.49-7.47-11.76-4.01-5.91-1.23-2.01-2.23-4.77-1.48-4.93-.84-5.24-.22-5.94,1.39-12.85,4.26-17.39.11-.42.17-2.2-.7-2.12-3.37-6.8-2.84-7.47-2.26-8.17-1.7-8.86-.22-.47-.92-.31-.7.67Z"/><path class="cls-1" d="M999.76,776.34l-.47,2.9-1.28,2.09h0l-1.59,1.06-2.12.59-5.74-.42-7.14-1.14-6.8-.31-6.52.47-6.22,1.28-31.8,7.11-16.28,2.37-17.5.7-17.89-1.06-17.92-2.73-17.59-4.38-16.95-5.91-15.86-7.36-14.07-8.47-1.64-.72-1.78-.06-16.19,2.62h0l-1.42-.33-.75-1.25-.17-.92.39-1.67,1.42-.98,8.58-2.4,8.92-3.82,12.99-7.11,11.12-6.24,11.2-5.63,11.4-4.65,11.59-3.65,11.76-2.68h0l10.73-1.59,10.9-.78,11.04.03,11.18.81,9.17,1.25,8.72,1.78,8.11,2.26,7.8,2.82,7.92,3.54,7.75,4.18,7.66,4.91,7.64,5.63,6.02,4.68,14.41,11.46,9.23,8.39,3.4,3.54,1.11,1.81.86,4.32-.59,3.57-2.45,3.51-4.38,2.82-6.55,2.09-8.33,1.25-1.14-.36-.56-1.06v-.36l.42-1.28,1.17-.72,11.9-3.09,3.09-1.48,2.12-2.12h0l.92-1.87.39-2.2-.61-5.35-.47-.72-1.48-.17-.78,1.23ZM917.99,738.52l1.28,4.35.5,4.01-.28,3.68-1.03,3.34h0l-1.73,2.87-2.42,2.56-3.93,2.7-4.07,1.62-4.38.67-4.24-.36-4.07-1.37-3.54-2.29-2.79-3.04-1.87-3.73-.67-3.54.22-3.87,1.11-3.85,2.12-3.99.25-.64-.47-1.64-1.64-.56-17.64,2.84-1.95,1.03-.92,2.01-.14,7.97,1.14,7.11,2.48,6.52,3.62,5.55,3.71,3.76,4.32,3.07,4.79,2.37,5.27,1.64,5.6.92,5.88.17,6.1-.59,6.24-1.37,5.27-2.01,4.57-2.87,4.96-4.93,3.65-5.99,2.34-7.14.81-7.75-.22-4.43-.61-2.26-2.37-2.23-3.07-1.09-10.54-1.34-1.31.45-.45,1.28.08.36ZM877.3,779.69l-7.41-5.91-2.95-3.37-2.48-3.68h0l-2.48-5.27-1.62-5.77-.78-6.27.08-6.74-.56-1.42-1.45-.47h0l-.36.08-8.84,3.48-8.86,4.15-8.86,4.79-8.89,5.46-.47.78.31.86h0l.2.17,13.02,6.86,13.27,5.63,13.46,4.4,13.71,3.18h0l1.48.28.67-.28-.17-.95ZM921.81,781.83l-.39.64.42.64.42.06,51.2-8.25,1.28-.64.67-1.28,1.28-7.5-.11-1.76-.92-1.51-5.83-5.38-6.24-4.82h0l-9.92-5.99-10.79-4.77-1.11.11-.61.95v.31l.42,7.19-.59,6.63-1.53,6.05-2.56,5.49h0l-2.79,4.01-3.46,3.65-4.1,3.26-4.74,2.9ZM979.11,772.75l.14,2.01,1.39,1.45,4.85,1.39,5.63.08.78-.22,1.31-1.73-.67-2.09-8.36-8.36-1.56-.53-1.34.89-.2.42-1.98,6.69Z"/><path class="cls-1" d="M1206.43,773.75l-4.6,3.71-1.81,2.82.11,2.68,1.14,2.54,2.09,2.09,2.7,1.37,13.04,3.09,1.62.81.92,1.56.03.14-.28,1.28-1.14.64-.31-.03h-.03l-8.86-1.56-6.38-2.06-4.54-2.84-2.56-3.6-.64-3.76.92-4.68,1.31-2.73,1.95-2.59,5.77-4.71,6.94-5.13,7.44-6.41,10.81-9.39,11.32-7.92,11.82-6.47,12.32-4.99h0l13.63-3.71,14.21-2.03,13.99-.72,12.93.28,12.37,1.31,11.65,2.37,13.96,4.4,13.6,6.02,38.41,20.07,4.38,2.01,7.72,2.68.98.7.47,1.11-.17,1.17-.81.92h0l-1.37.33-15.05-1.34-1.95.17-1.84.75-12.01,6.94-12.29,5.96-12.54,5.02-12.79,4.07h0l-16.25,3.68-16.64,2.23-17.06.72-17.48-.72-18.17-2.93-35.2-7.22-6.22-.47-8.19.98-7.94.98-6.05-.39-.84-.33-.86-.86-.36-1.17.22-1.2.75-.98,1.98-1.95.92-1.87-.22-.7-.7-.22-.28.11ZM1301.91,780.72l8.22-.81,7.36-2.23,6.58-3.71,5.35-4.99,3.76-5.71,2.51-6.63,1.11-7.19-.25-7.89-1.28-2.7-2.68-1.42-12.99-2.23-.61-.03-1.81,1.11-.22,2.12,1.53,6.3-.06,5.94-1.62,5.27-3.12,4.26-2.45,1.87-2.93,1.39-6.58,1.09-6.61-.98-2.95-1.31-2.48-1.84-3.21-4.18-1.73-5.24-.17-5.94,1.42-6.35-.28-2.09-1.81-1.09-.61.06-12.96,2.48-2.65,1.45-1.23,2.76-.08,7.89,1.23,7.16,2.65,6.58,3.9,5.63,5.43,4.91,6.63,3.57,7.41,2.06,8.25.67ZM1325.27,779.6l-.25.81.72.42h.03l1.48-.28h0l13.66-3.37,13.43-4.6,13.18-5.8,12.93-7.05.2-.14.31-.89-.5-.78-8.97-5.35-8.92-4.68-8.92-4.01-8.89-3.37-.36-.08-1.45.5-.53,1.42.17,6.77-.67,6.27-1.56,5.77-2.42,5.32h0l-2.4,3.71-2.93,3.43-7.33,5.99ZM1281.46,782.73l-7.11-4.38-5.6-5.57h0l-3.79-5.96-2.56-6.91-1.42-7.83-.22-8.78-.03-.42-.98-1.31-1.64-.08-8.5,4.12-8.19,4.85-7.92,5.6-7.58,6.35-.89,1.39-.11,1.67,1.34,4.38,2.06,3.82,1.25,1.23,1.62.61,49.86,8.5.67-.28.06-.7h0l-.31-.31ZM1223.23,772.86l-2.45-5.6-.22-.33-1.28-.64-1.28.64-6.35,8.19-.36,1.9,1.34,1.37.7.11,4.91-.7,4.07-1.76,1.06-1.39-.11-1.78Z"/><path class="cls-1" d="M1273.57,888.08l-.31.95-.67.81-1,.06h0l-.08-.03-20.18-10.12-18.65-11.59-17.17-13.07-15.64-14.52-7.97-8.67-7.53-9.09-6.02-8.64-4.63-8.84-3.29-9.03-1.9-9.17h0l-.56-8.58.59-8.7,1.76-8.86,2.87-9.03,1.2-1.37,1.78-.22.31.08.17.06,1.03.98-.03,1.42-2.59,6.58-1.81,6.41-1.06,6.55-.33,6.41.78,9,2.26,9.23,3.68,9,5.16,9.09,6.69,9.23,8.14,9.28,9.67,9.5,11.93,10.37,8.03,6.38,10.56,7.55,10.98,7,11.4,6.44,11.82,5.85.61,1.31Z"/><path class="cls-1" d="M928.94,888l.61-1.31,11.87-5.91,11.46-6.47,11.01-7.02,10.59-7.58h0l8.05-6.41,11.96-10.4,9.7-9.53,8.19-9.34,6.69-9.28,5.18-9.11,3.68-9.06,2.29-9.23.78-9.06-.33-6.41-1.09-6.58-1.81-6.47-2.62-6.58-.03-1.45,1.06-.98.14-.06.31-.08,1.81.25,1.2,1.37,2.9,9.03,1.76,8.92.59,8.75-.53,8.58h0l-1.92,9.23-3.29,9.06-4.65,8.86-6.05,8.67-7.53,9.14-8.03,8.7h0l-15.69,14.6-17.2,13.1-18.73,11.65-20.26,10.17-.06.03-1.03-.06-.67-.81-.31-.95Z"/><path class="cls-1" d="M1066.09,1022.25l-.17-.39.31-.61.72-.03,9.34,4.96,8.47,3.43,7.97,2.03,7.64.75,8.03-.53,8.47-1.95,12.29-4.43,9.59-4.82,5.13-4.4,7.47-8.36,2.4-3.26,2.7-5.13,1.84-5.43,1.06-6.08.2-6.27-.59-6.8-1.42-7.33-2.2-7.3-2.95-7.5-2.12-3.6-2.9-3.04-3.51-2.31-3.96-1.45-10.76-2.09-10.76-1.45-10.76-.78-10.73-.11h0l-14.24.89-14.24,2.06-7.11,2.23-5.74,3.79-4.43,5.55-2.93,7.19-2.82,14.13-.5,6.72.11,6.13.72,5.63,1.37,5.49,1.95,4.96,2.62,4.68,4.52,5.6,5.35,6.35.2.64-.61,1-1.17-.08-5.04-4.07-4.24-4.57-4.24-6.35-3.07-6.91-2.01-7.69-.86-8,.31-8.58,1.42-8.56,2.59-8.61,3.65-8.22,1.7-2.62,2.17-2.26,5.96-3.87,8.33-3.01,10.37-2.01,12.85-1.31,12.68-.36,12.54.61,12.35,1.56h0l11.9,2.48,5.46,1.92,4.35,2.73,3.21,3.15,2.9,4.29,2.42,5.18,2.4,6.88,2.2,8.36,1.17,7.78.11,7.19-.95,6.58-1.39,4.71-1.98,4.63-5.49,8.72-3.37,3.82-3.76,3.4-3.9,2.76-4.15,2.23-5.24,3.26-6.55,4.04-.08.06-6.02,2.48-6.02,1.78-6.02,1.09-6.05.42h0l-5.83-.22-5.88-.89-5.85-1.51-5.88-2.17-7.39-3.99-5.63-5.02Z"/><path class="cls-1" d="M1042.26,1058.73l-5.13.56-5.71-.84-8.58-2.76-7.41-3.71-6.58-4.77-5.41-5.57-4.93-7.5-3.34-8.25-1.92-9.2-.36-9.62,1.23-10.2,2.73-10.15,4.21-9.87,5.57-9.28,1.62-1.14,2.01.11.36.14,1.09,1.17-.17,1.56-.08.17-5.24,8.95-3.85,9.36-2.42,9.87-.84,9.84.72,9.36,2.29,8.84,3.76,7.83,5.3,6.91,6.02,5.24,7.3,4.18,8.14,2.87,9.34,1.64,1.09.42.7.92.14,1.17-.5,1.06h0l-1.11.67Z"/><path class="cls-1" d="M1160.13,1058.43l-1.09-.7-.45-1.06.14-1.14.72-.89,1.09-.39,9.25-1.37,8.11-2.59,7.33-3.93,6.1-4.99,5.41-6.69,3.93-7.64,2.54-8.67.98-9.23-.59-9.73-2.12-9.81-3.51-9.36-4.93-8.97-.08-.14-.11-1.56,1.11-1.11.36-.14,1.95-.06,1.59,1.17,5.24,9.34,3.87,9.84,2.42,10.09.92,10.12-.64,9.48-2.15,9.03-3.54,8.05-5.07,7.25-5.49,5.35-6.63,4.54-7.41,3.43-8.56,2.51-5.66.64-5.04-.67Z"/><path class="cls-1" d="M1101.55,1059.6l5.55-.36,5.57-1.11,5.66-1.84,5.71-2.62,1.17-1.09.47-1.48.39-3.65.7-2.06,1.37-2.4,1.37-1.67,2.79-2.09,9.87-5.49,8.22-3.62,7.72-2.34,7.19-1.09,6.69.17,2.95.72,2.79,1.45,1.81,1.76.95,2.2.03.11-.08,2.87-1.09,2.62-1.92,2.06-2.51,1.2-6.16,1.14-6.49.28-6.83-.61-7.19-1.45-2.12-.17-4.79.7-4.01,1.31-3.23,1.87-2.45,2.48-1.78,3.26-.86,3.96-.64,1.81-1.48,1.28-7.02,3.21-6.55,2.29-6.13,1.37-5.63.45-5.66-.5-6.08-1.39-6.55-2.34-7.02-3.26-1.45-1.28-.64-1.81-.84-3.96-1.73-3.29h0l-2.45-2.48-3.23-1.9-3.99-1.31-4.79-.75-2.12.14-7.19,1.42-6.86.56-6.49-.33-6.13-1.17-2.51-1.23-1.9-2.06-1.09-2.65-.06-2.87v-.11l.98-2.2,1.84-1.73,2.79-1.45,2.95-.7,6.69-.11,7.19,1.14,7.69,2.4,8.22,3.68,9.81,5.55,2.79,2.12,1.34,1.67,1.37,2.42.67,2.06.36,3.65.47,1.48,1.17,1.09,5.69,2.65,5.63,1.92,5.6,1.14,5.55.39ZM1028.24,1034.09l.3,1.18,1.29,1.2,4.63,1.77,4.96.12,1.65-.62.73-.98-.3-1.18-1.29-1.2-4.63-1.77-4.96-.12-1.65.62-.73.98ZM1174.87,1034.69l-.67-1.28-1.33-.92-1.78-.42-1.97.14-1.85.68-1.45,1.12-.83,1.39-.08,1.45.67,1.28,1.33.92,1.78.42,1.97-.14,1.85-.68,1.45-1.12.83-1.39.08-1.45ZM1156.2,1037.02l3.01.11.33-.86-.53-.75-.39-.08-1.06.06-1.45.33-.42.47.2.59.31.14Z"/><path class="cls-1" d="M1101.07,1138.22l6.44-.7,5.8-2.09,4.54-3.21,3.21-4.4,1.51-5.55-.42-6.05-7.33-30.91.11-1.39,1.03-.98.11-.06.11-.03,1.34.06.89,1.06,3.62,13.07,2.56,11.15,1.42,9.23.36,7.3-.06.92-.81,3.12-1.59,2.87-2.48,2.79-3.09,2.4-4.12,2.31-4.4,1.73-4.6,1.14-4.15.39-4.18-.39-4.57-1.17-4.4-1.76-4.12-2.34-3.07-2.4-2.45-2.82-1.59-2.84-.81-3.15-.06-.92.39-7.3,1.48-9.23,2.59-11.12,3.71-13.07.86-1.03,1.37-.08.11.06.11.06,1,.95.11,1.42-7.44,30.88-.45,6.02,1.48,5.57,3.18,4.4,4.52,3.26,5.83,2.09,6.41.72Z"/><path class="cls-1" d="M1101.21,1255.62l-14.83-.28-13.91-.89-13.02-1.51-12.26-2.09-11.93-2.82-11.23-3.43-10.84-4.1-10.7-4.93-5.85-3.09-19.68-12.07-23.5-16.42-2.7-1.14-.17-.03-2.76-.08-2.84.56-1.45.11-1.34-.5-1.03-1-.53-1.34-.06-.42.22-3.32,1.03-2.09.08-.08,1.9-.72,2.95.39,3.76.92,2.68-.47,18.37-9.95,24.97-14.66,21.54-12.57,16.67-7.92,7.58-2.76,7.25-1.98,6.86-1.23,6.19-.42,5.77.36,5.52,1.23,8.33,2.87,10.87,3.57,7.97,1.09,7.97-1.11,10.84-3.57,8.33-2.93,5.49-1.23,5.77-.36,6.22.39,6.86,1.2,7.25,1.98,7.58,2.73,16.69,7.86,21.57,12.51,25,14.6,18.4,9.89,2.68.47,3.76-.92,2.95-.39,1.9.72.08.06,1.03,2.09.25,3.32-.06.42-.53,1.34-1.03,1-1.34.5-1.45-.08-2.84-.56-2.76.08-.17.03-2.7,1.14-23.47,16.5-19.62,12.1-5.85,3.12-10.67,4.96-10.84,4.12-11.23,3.46-11.9,2.84-12.29,2.12-12.99,1.53-13.94.92-14.83.33ZM967.57,1195.47l9.42-.31,31.02-5.38,25.89-3.96,15.78-1.31,14.44.67,14.3,2.48,12.35,2.26,9.34.98,8.17-.06,7.41-1.17,12.65-2.59,12.46-1.45,9.53-.39,9.73.22,10.37.89,10.87,1.53,43.73,6.74,9.39.39.42-.81-.22-.2-41-24.22-19.43-10.51-8.92-3.93-8.39-3.07-7.58-2.06-6.77-1.09-6.27-.11-5.18.86-18.79,6.3-5.83,1.48-5.1.36-5.49-.47-6.08-1.34-8.05-2.48-14.27-3.96-4.74-.33-5.32.5-6.1,1.28-7,2.09-15.97,6.58-16.95,8.97-44.06,25.56-.03.95.28.08ZM1237.22,1201.71l-11.01-.56-12.12-1.28-27.68-4.77-15.72-2.59-14.72-.89-9.2.25-9.36.89-20.93,3.85-7.61,1.25-6.35.28-6.52-.33-16.03-2.9-8.89-1.84-13.88-1.62-10.84-.11-11.51.86-12.9,1.81-19.29,3.51-2.54.47-19.68,3.01-17.89,1.2-.47.75.17.2,20.71,13.96,20.82,11.71,14.47,6.44,15.66,5.3,16.75,4.07,17.75,2.79,18.42,1.51,19.04.2,19.59-1.09,19.68-2.4,16.3-3.23,15.5-4.54,14.63-5.85,13.82-7.16,18.2-11.2,14.24-10.03.42-.95-.59-.84-.45-.11Z"/><path class="cls-1" d="M1101.8,1292.63l10.98.39,11.34,1.11,11.68,1.84,12.04,2.59,1.92.75,1.48,1.17.36.61-.36,1.31-1.31.39-12.6-2.7-12.21-1.95-11.85-1.14-11.48-.39-11.48.36-11.85,1.17-12.24,1.92-12.57,2.7-1.34-.39-.33-1.34.36-.61,1.48-1.14,1.92-.75,12.04-2.59,11.68-1.84,11.34-1.11,10.98-.36Z"/><path class="cls-1" d="M978.44,1454.06h.06c1.08,0,1.95.87,1.95,1.95v162.83c0,1.08-.87,1.95-1.95,1.95h-.06c-1.08,0-1.95-.87-1.95-1.95v-162.82c0-1.08.87-1.95,1.95-1.95Z" transform="translate(-393.26 337.66) rotate(-16.35)"/><rect class="cls-1" x="1140.23" y="1535.64" width="165.5" height="4.18" rx="1.9" ry="1.9" transform="translate(-594.82 2283.32) rotate(-73.81)"/></svg>