<?xml version="1.0" encoding="UTF-8"?><svg id="_Слой_1" xmlns="http://www.w3.org/2000/svg" viewBox="0 0 2200 5500"><defs><style>.cls-1{stroke:#010101;}.cls-1,.cls-2,.cls-3{fill:#020303;}.cls-1,.cls-3{stroke-miterlimit:10;stroke-width:4px;}.cls-3{stroke:#1d1d1b;}</style></defs><path class="cls-1" d="M691.73,4459.12l16.3,47.13,14.09,43.46,12.36,41.3,10.66,39.3,9.26,38.19,7.85,37.41,6.45,36.47,5.13,36.03,4.16,37.19,3.29,37.38,2.38,37.63,1.46,37.84.59,38.06-.32,38.27-1.21,38.52-2.11,38.71-.54,1.4-1.27.84-1.89.51-.32.05-1.57-.51-.62-1.57,2.54-57.71.76-57.87-1.11-58.06-2.89-58.22-.94-4.53-2.21-4.1-7.58-10.63-7.07-10.88-6.59-11.12-6.1-11.39h0l-8.91-19.14-7.58-19.81-6.26-20.46-4.94-21.16-9.96-54.58-10.34-65.67-2.67-15.95-3.78-18.84-.13-.27-.57-.19-.46.4-4.1,11.8-3.97,8.39-4.45,6.53-5.13,4.75-6.07,3.29-6.32,1.65h-7.29l-7.04-1.89-6.59-3.64-5.8-5.24-5.7-8.15-5.02-10.85-7.61-22.62-6.91-26.29-7.48-36.71-11.44-55.74-4.94-19.95-4.94-16.71-.46-1.4-8.12-26.21-6.05-23.37-4.05-21-2-18.08.05-15.22.81-6.48,1.35-5.97,1.81-4.97,2.38-4.37,2.78-3.51,3.4-2.83,5.18-2.54,6.23-1.27,7.85.11,7.15,1.78,5.97,3.13,5.51,4.62,5.43,6.37,6.48,9.42,7.15,10.31,4.05,3.83,5.4,2.89,1.32-.13.73-1.13-.03-.4-5.29-34.01-3.94-34.04-2.59-34.06-1.27-34.09h0l-.05-27.83.86-27.83,1.73-27.86,2.62-27.88,2.7-20.3,3.56-20.08,4.43-19.81,5.32-19.49,6.15-19.19,6.99-18.84,7.83-18.46,8.66-18.03,9.39-17.41,10.15-16.95,10.96-16.46,11.71-15.92,12.42-15.28,13.14-14.71,13.71-13.93,14.39-13.31,5.48-4.72,23.43-18.49,25.24-17.17,26.48-15.49,28.02-13.98,29.12-12.25,29.88-10.36,30.64-8.5,30.99-6.48,22.7-3.43,24.13-2.54,25.51-1.65,26.91-.73,31.98.67,31.96,2.67,31.77,4.67,31.45,6.61,30.8,8.53,30.18,10.45,29.12,12.2,28.21,14.04,26.8,15.6,25.18,17.06,23.97,18.73,22.21,20,20.59,21.43,18.73,22.54,8.77,11.77,8.34,12.17,7.77,12.28,7.34,12.63,11.74,22.59,10.34,22.97,8.91,23.4,7.48,23.78h0l4.37,16.73,3.67,16.95,5.56,33.04,3.97,34.04,2.4,35.22.78,36.06-.78,36.95-2.4,37.55-3.97,38.27-5.53,38.57.22.78.73.35.16-.03,4.37-1.27,3.83-2.05,2.89-2.48,2.48-3.08,4.26-6.69,5.8-8.91,4.86-6.05,4.99-4.51,5.37-3.21,6.34-2.08,5.34-.73,4.94.16,4.78,1,4.29,1.84,3.05,2,2.73,2.46,4.37,6.02,2.94,7.64,1.24,8.66.03,11.12-.67,11.55-1.4,12.01-2.19,12.47-6.45,26.53-11.36,36.92-2.35,7.29-5.37,21.13-6.8,34.36-10.28,52.66-9.39,39.14-2.54,9.2-5.1,15.03-2.78,5.97-2.97,5.13-3.4,4.53-3.51,3.62-3.86,2.94-4.35,2.32-7.4,2.02-5.99.16-5.18-1.03-4.78-1.94-4.56-2.89-4.45-3.91-2.16-2.67-2.16-3.75-4.48-10.93-1.54-4.13-.19-.24-.59-.08-.38.46-20.89,126.08-6.05,30.5-6.42,24.51-8.61,24.4-5.02,11.82-5.53,11.61h0l-7.8,14.55-8.61,14.14-9.42,13.77-10.2,13.33-.94,2.4-3.21,56.95-1.35,56.79.49,56.6,2.38,56.44-.46,1.57-1.32.92-1.67.49-1.78-.27-1-1.48-.03-.24-1.84-32.93-1.11-33.01-.43-33.06.24-33.15.97-33.23,1.65-33.28,2.35-33.36,3.05-33.44,4.4-37.55,5.53-37.44,6.56-36.3,7.72-36.52,8.88-36.52,10.12-37.03,20.16-66.21,23.21-69.42v-.24l-.65-.08-8.07,13.77-5.05,8.99-35.87,58.71-25.67,43.59-22.35,40.11-20.05,38.62-5.29,10.66-.81.73-1.05-.05-.24-.11h0l-.76-.78.03-1.11,9.45-20.43,9.39-18.54,17.22-31.61,18.22-31.9,19.16-32.2,20.14-32.47,18.76-30.42,13.09-23.48,10.2-21.59,7.91-21.03,10.96-35.95,9.37-35.76,7.83-35.52,6.24-35.3,3.05-26.67,3.43-43.11,1.32-22.65.76-22.27.16-21.57-.4-21.11-.97-20.65-1.57-20.08-2.16-19.78-2.73-19.16-3.32-18.71-3.86-18-4.51-17.79-5.02-17.09-5.56-16.46-6.23-16.25-6.75-15.55-7.42-15.28-13.23-23.81-14.52-22.59-15.84-21.4-17.17-20.22h0l-12.39-13.06-13.01-12.5-13.63-11.93-14.22-11.42-14.82-10.82-15.44-10.31-16.03-9.72-16.65-9.2-17.52-8.8-17.71-8.02-18.11-7.4-18.27-6.64-25.64-7.99-25.97-6.56-26.53-5.26-26.83-3.83-27.56-2.51-27.8-1.13-28.42.22-28.66,1.59-19.35,1.89-19.33,2.67-19.27,3.43-19.16,4.16-19.03,4.91-18.81,5.67-18.33,6.32-18.08,7.02-17.65,7.67-17.33,8.37-16.68,8.93-16.28,9.58-15.57,10.09-15.06,10.72-14.39,11.17-13.82,11.8-21.13,20.27-19.38,21.49-10.09,12.55-9.58,12.9-9.18,13.47-8.61,13.82-8.1,14.2-7.56,14.49-6.96,14.82-6.4,15.09-5.94,15.6-5.37,15.87-4.78,16.09-4.18,16.36-3.67,16.71-3.08,16.92-2.48,17.11-1.92,17.27-2.83,40.41-.92,40.19.94,40.06,2.83,39.84h0l2.32,21.54,2.89,21.46,3.43,21.4,3.99,21.35,4.53,21.32,5.1,21.24,5.64,21.22,6.21,21.13,8.72,27.13,7.48,18.49,7.88,15.17,14.14,24.29,45.53,73.98,18.22,30.26,16.98,30.39,15.71,30.53,14.41,30.66.03.08-.08,1.24-.94.78-.81.22-.92-.08-.65-.65-15.41-33.06-12.71-24.21-34.98-60.33-9.42-14.93-25.51-41.51-24.81-42-.84.05v.32ZM1513.24,4548.98l3.1,4.91,3.4,6.94,1.89,5.48,4.4,11.69,2.19,4.02,2.24,3.02,3.08,2.94,3.37,2.21,3.83,1.57,3.94.76,5.16-.19,4.99-1.51,4.48-2.62,3.97-3.75,5.29-7.4,4.45-8.83,3.83-10.58,4.13-14.82,8.53-35.76,7.21-35.55,2.94-16.38,7.34-38.06,3.4-13.74,3.67-12.28.11-.32,10.63-33.31,6.26-24.05,2.16-11.17,1.54-10.74.97-10.74.32-10.42-.59-9.66-1.92-8.02-3.1-5.94-2-2.24-2.35-1.84-4.24-1.81-5.24-.65-6.53.86-6.67,2.7-5.8,4.1-4.4,5.21-2.81,4.51-8.53,12.61-3.78,4.02-3.91,3.18-5.8,3.24-6.61,2.29-1.38.84-.7,1.43-5.29,26.1-6.51,26.56-7.69,27.02-8.88,27.48-41.7,123.16.16,1.46,1.16.86.22.03,9.72,1.43,8.64,2.51,12.15,4.26,6.1,1.35.38-.03,5.8-1.27,5.7-3.16,5.67-5.21,5.48-7.02,8.93-14.41,7.48-14.79,5.99-15.12,4.51-15.49h0l2.81-14.33,1.62-14.63.38-14.93-.81-15.2-1.62-20.76-.16-14.95,1.21-13.01,2.75-11.74,3-9.23,4.45-14.06,2.4-9.61,1.27-8.72.13-8.31-1.05-8.58-1.59-3.83-3.32-4.97-.19-.46.32-1.11,1.13-.35,1.48.46,2.51,1.78,2.11,3.16,1.43,4.29.92,5.37.32,9.42-1.08,9.91-2.4,10.63-4.51,14.74-3.37,10.74-1.7,6.69-1.48,9.15-.59,9.85.19,11.12,1,16.76.84,12.58.14,19.51-1.94,19.19-3.24,16.01-4.75,15.79-6.26,15.55-7.72,15.33-7.5,11.96-7.56,9.2-7.45,6.34-3.62,2.05-3.7,1.35-5.51.59-3.75-.62-4.37-1.59-4.83-1.62-.7.22-.22.7.11.27ZM690.24,4546.77l-7.15,2.32-5.45,1.27-5.16.13-4.7-.78-4.43-1.57-4.51-2.48-4.21-3.16-4.16-3.94-4.18-4.86-8.04-12.17-9.02-17.76-6.99-17.95-4.99-18.17-2.94-18.41h0l-.94-16.17.59-16.33,2.27-31.07-.08-9.96-1.32-11.15-2.51-12.42-4.32-16.65-4.16-16.49-1.08-10.47.4-13.31,1.51-7.04,1.43-2.89,1.89-2.46,3.45-2.75.03-.03.67-.94-.24-1.16-5.53-6.94-5.91-5.24-6.34-3.48-6.4-1.51-6.37.3-6.24,1.94-.57.27-2.29,1.48-1.94,1.94-3.27,5.78-2.05,7.72-.94,9.66.19,12.15,1.35,13.74,2.54,15.41,3.35,14.85,17.71,58.57,6.42,27.8,11.82,59.44,5.83,27.02,7.15,27.4,5.18,15.9,5.53,12.2,3.02,4.91,3,3.89,3.13,3.1,3.4,2.35,4.26,1.97,4.1,1.21,3.94.4,3.78-.35h0l4.05-1.3,3.83-2.24,1.62-1.27,3.13-3.24,2.75-4.1,2.43-5.05,2.62-7.13,2.59-6.99,2.4-5.05,2.67-4.16,3.02-3.35.19-.32-.16-.67-.67-.22ZM612.21,4282.17l-2.29,4.45-1.65,4.83-1.13,5.53-.51,5.75.05,6.32.65,6.8,1.21,6.59,1.78,6.67,6.4,21.3,2.81,11.82,1.08,10.28.3,10.85-.46,11.36-1.21,11.93-1.13,11.26-.46,11.17.27,11.07.97,11.01,2.75,16.25,4.32,16.09,5.91,15.9,7.45,15.71,7.61,12.52,3.94,5.07,3.94,4.29,4.18,3.64,4.08,2.75,4.21,2.02,4.45,1.35,2.7.14,3.56-.51,9.77-2.97,9.39-2.46,14.06-2.16.43-.62v-.05l-19.65-57.9-19.6-57.52-13.31-42.78-10.31-38.73-7.42-35.17-1.13-2.08-2.13-1-6.05-1.59-3.56-2-3.48-2.94-7.31-9.34-3.59-5.02-.86-.43-.89.38-.14.16ZM1426.81,4839.62l7.53-10.34,7.02-10.61,6.56-10.82,6.05-11.12h0l8.64-18.14,7.4-18.81,6.15-19.43,4.94-20.08,7.37-38.25,8.72-52.74,6.8-41.73,5.45-30.45v-3.02l-1.05-2.83-2.02-2.24-2.7-1.38-9.77-2.89-2.51-.24-2.43.73-1.94,1.62-1.21,2.21-10.88,36.11-9.69,34.39-8.48,32.9-7.5,31.96-6.51,31.36-5.61,30.88-4.67,30.53-3.83,30.31-3.08,31.66.05.35.57.38.65-.27ZM773.86,4830.93l-1.94-12.66-1.75-16.46-3.48-29.2-4.72-31.55h0l-5.51-31.04-6.32-30.91-7.13-30.8-7.94-30.64-20.65-68.53-.86-1.65-1.35-1.24-1.73-.67-1.84-.03-8.31,1.32-1.67.62-1.32,1.21-.73,1.65-.08,1.78,14.79,94.07,8.64,51.96,5.45,26.24,6.53,23.91,7.77,22.08,9.23,20.81,10.93,20.19,12.93,19.97.54.24.49-.35.03-.32Z"/><path class="cls-1" d="M799.56,4617.56l12.47,2.7,15.03,2.81,15.09,1.19h0l15.06-.46,15.09-2.05,15.14-3.67,15.17-5.29,26.99-11.61,22.21-9.66,15.87-5.97,16.55-5.07,16.76-4.26h0l21.35-4.18,21.65-2.86,21.94-1.59,22.24-.27h.05l.49.65-.4,2.48-.73.59-23.21.49-22.24,1.65-21.27,2.86-20.3,4.02-13.28,3.56-14.04,4.64-15.41,5.91-20.86,8.75-32.5,13.31-12.69,4.45-12.01,3.56-10.07,2.21-11.04,1.46-11.39.62-11.07-.24-10.55-1.08-9.69-1.89-9.07-2.73-7.88-3.43-.38-.38.08-.89.84-.32Z"/><path class="cls-1" d="M1385.41,4620.8h.03l1.21.27.65,1.05.16.89-.19.84-.7.49-12.85,2.48-12.42,1.35-11.98.27-11.55-.86-14.98-2.7-15.76-4.45-17.19-6.37-23.13-9.93-26.59-11.34-19.92-6.91-6.37-1.81-22.57-5.29-23.43-3.81-25.35-2.54-29.99-1.54-1.08-.94-.19-1.16v-.08l.3-.89.86-.38,31.47,1,15.03,1.27,14.58,1.81,14.06,2.32,13.6,2.83,13.14,3.37,12.66,3.89,23.97,9.23,33.71,14.87,16.95,6.83,16.95,4.91,17,3.05,17,1.13h0l16.44-.7,16.44-2.46Z"/><path class="cls-1" d="M1496.83,3026.96l3.94,3.94,3.35,4.18,2.7,4.43,2.05,4.64,1.67,5.97.73,6.32-.19,6.64-1.13,6.99-1.27,3.51-2.16,3.27-2.94,2.86-3.59,2.29-7.45,4.18-6.83,4.72-6.15,5.29-5.1,5.48-4.05,5.7-2.83,5.64-1.75,5.78-.67,6.05.76,7.13,2.32,6.88,5.24,12.63,4.16,12.2,3.05,11.69,1.97,11.2.94,11.04-.13,10.53-1.21,10.5-2.24,9.93-3.45,10.07-4.75,9.96-3.51,5.86-3.81,5.34-4.26,5.02-4.56,4.53-8.34,6.56-9.47,5.51-10.66,4.45-11.74,3.29-12.88,2.24-14.09,1.13-15.41.16-17.9-.86-21.11-2.02-29.83-3.83-45.13-5.51-17.09-1.3-15.71-.54-11.12.13-9.93.67-8.8,1.21-7.75,1.73-7.02,2.29-6.5,3-5.67,3.56-5.13,4.32-6.26,7.53-4.78,8.85-3.51,10.45-2.24,12.34-1.51,14.74-2.62,23.62-3.21,17.76-4.45,15.79-5.97,14.39-12.25,26.83-4.4,11.55-3.67,11.39-4.08,16.17-4.32,23.97-3.83,28.91-1.08,1.97-2.13.65h-.22l-1.97-1.03-.67-2.13,2.59-23.32,4.02-23.37,5.07-21.54,6.07-19.14,10.01-23.27,8.31-18.79,4.78-13.06,2.11-7.94,1.73-8.93,3.05-24.45,3.24-25.43,1.89-9.18,2.32-8.07,2.89-7.31,3.37-6.32,3.94-5.59,4.75-4.97,4.97-3.91,5.72-3.37,6.24-2.67,7.07-2.11,14.87-2.78,16.06-1.48,17.25-.16,18.44,1.16,85.86,10.47,19.41,1.73,19.14.38,18.89-.94,18.62-2.32,11.42-2.75,10.88-4.62,9.88-6.32,8.66-7.72,7.58-9.29,6.13-10.39,4.78-11.58,3.13-12.25,1.43-12.71-.32-12.93-1.62-10.39-3.02-11.69-4.43-13.12-6.42-16.28-1.94-5.94-.94-5.88.05-6.86,1.21-6.67,2.43-6.75,3.43-6.37,4.64-6.32,5.48-5.7,6.37-5.13,6.83-4.21.51-.81-.4-.86-.43-.16-2.67-.4-10.47-2.11-10.34-2.97-10.18-3.83-10.07-4.7-5.56-2.81-22.51-12.07-7.48-4.89-5.78-4.59-2.08-.62-7.04,1.13-1.32-.32-.67-1.16v-.08l.24-3.91,1.35-3,1.3-.92,1.57.05,4.08,1.11,2.92-.13,12.04-4.99,17.11-8.85,44.19-26.59,4.51-2.75,10.42-6.13,7.75-3.48,6.86-1.62,6.34.19,3.37.86,3.4,1.48,1.19-.05.54-1.08-.22-.59-8.56-11.63-3.7-5.59-2.83-5.83-2.16-6.4-1.3-6.56-.43-6.94.46-6.94,1.3-6.96,2.13-6.86,2.94-6.61,3.7-6.34,2.86-3.24,3.7-2.54,4.7-1.97,5.13-1.21,14.66-2.75,12.12-3.43,10.34-4.4,9.12-5.56,8.91-7.64,7.88-9.31.13-.22.05-1.3-.97-.89-4.75-2.21-4.8-3.62-4.43-4.7-4.32-6.02-4.1-7.18-3.91-8.34-8.12-22.08-.76-2.21-1.75-6.24-.65-4.94.32-4.16,1.43-3.51,2.05-2.43,2.94-1.97,3.89-1.54,4.89-1.11,1-.7.05-1.21-.16-.3-15.68-21.65-13.25-20.54-15.12-26.24-14.55-25.32-10.34-16.68-26.96-39.52-4.45-7.29-3.48-7.37-2.46-7.53-1.46-7.61-.46-7.88.59-8.02,1.59-8.15,2.65-8.26,5.05-14.63,3.4-12.71,2.02-11.82.62-11.07-.46-12.77-1.16-12.39-2.4-14.74-3.62-15.33-13.12-53.25-12.58-59.84-6.07-24.97-9.77-31.61-8.56-23.21-9.99-22.24-11.42-21.24-12.85-20.3h0l-12.34-16.9-13.44-16.17-14.52-15.44-15.6-14.68-18.33-15.28-19.87-14.63-21.3-13.9-22.59-13.06-23.54-12.04-24.45-10.99-24.72-9.69-25.24-8.45-24.02-7.02-24.05-6.32-24.13-5.67-24.16-4.97-24.21-4.29-24.29-3.64-24.32-2.94-24.4-2.27h0l-37.25-2.16-24-.62-23.16-.05-22.19.49-21.46,1.05-20.86,1.65-20.16,2.21-19.84,2.81-19.16,3.37-18.79,3.99-18.08,4.56-17.71,5.16-17.54,5.86-16.84,6.37-16.68,7.07-16.14,7.67-15.98,8.39-16.82,9.77-.43.22-2.08-.19-1.16-1.73-.22-1.3.27-1.94,1.3-1.46,23-12.93,23.35-11.47,19.62-8.42,19.92-7.5,20.49-6.67,20.78-5.78,21.57-4.99,21.92-4.13,22.43-3.27,23.35-2.51,37.41-2.48,37.28-.86,37.14.76,36.98,2.4h0l6.4.59,37.79,4.24,36.74,5.45,35.14,6.59,33.9,7.77,32.25,8.88,30.91,10.04,29.26,11.15,27.88,12.31,26.24,13.39,24.78,14.55,23.1,15.55,21.57,16.68,20.08,17.87,18.52,18.92,16.84,19.97,15.22,20.95,8.34,13.04,9.8,17.33,8.93,18.38,8.23,19.78,7.48,21.08,6.8,22.48,6.32,24.37,6.13,27.42,6.61,33.33,3.29,15.03,5.7,22.51,7.04,28.1,3.97,19.43,1.38,10.5h0l.62,11.04-.22,11.12-1.05,11.23-1.89,11.28-2.08,8.04-3.64,10.88-5.29,16.76-1.3,6.37-.59,5.83.11,4.99.67,5.02,3.13,10.72,5.51,11.42,7.45,11.2,11.26,15.66,11.53,17.57,12.17,20.05,15.57,26.99,14.36,24.86,11.63,17.6,17.52,23.02,16.98,22.54,5.8,9.47,3.99,8.91,2.35,8.66.76,8.77-.57,6.45-1.48,6.59-2.38,6.45-3.35,6.61-6.21,9.31-7.13,7.96-5.53,4.86-5.94,4.26-6.53,3.83-6.88,3.24-7.61,2.81-7.96,2.27-8.58,1.75-8.85,1.21-3.45.76h0l-3.32,1.62-3.02,2.43-2.75,3.24-2.46,4.1-2.83,6.32-1.97,6.29-1.11,6.26-.27,6.26h0l.86,7.77,2.19,7.72,2.62,5.43,4.59,7.07,4.45,6.83,2.67,5.32,1.43,4.83.27,4.56-.49,3.13-1.92,6.42-2.65,6.32-3.21,5.67-3.83,5.24-4.08,4.18-4.56,3.54-4.75,2.56-5.18,1.78-.38.08-.62.51.05.81.16.22ZM1596.24,2854.11l2.92-5.75,2.11-5.75,1.24-5.75.4-5.75h0l-.4-5.67-1.21-5.64-2.02-5.64-2.83-5.64-4.89-7.99-5.34-7.67h0l-11.12-13.31-1.3-.76-1.51.14-10.53,4.16-1.54.92-1.16,1.4-.62,1.7-.05,1.81,1.19,6.07,1.81,6.37,7.88,21.7,3.89,8.5,4.02,7.31,4.08,5.99,4.08,4.62,4.13,3.35,4.43,2.16,1.35-.03,1.03-.86ZM1424.09,3031.07l13.44-3.29,18.52-4.48,13.66-2.46,12.09-1.03,10.72.49,2.27-.03,2.21-.57,1.89-.81,4.05-2.19,3.72-2.65,3.54-3.27,3.13-3.67,2.75-4.1,2.32-4.43,3.24-9.58-.27-1.94-1.46-1.3-3.94-1.16-3.78-.54-5.78.32-6.1,1.65-6.75,3.1-9.04,5.26-2.11,1.27-58.68,34.52-.19.22.54.65ZM1409.78,3038.87l-.3.11-.27.62.35.57,10.42,5.64,24.05,12.63,18.14,7.94,17.11,5.48,8.64,1.86,8.39,1.27,2.59-.19,2.35-1.11,1.81-1.89,1-2.4.92-5.8.19-5.59-.54-5.37-1.21-5.13h0l-1.78-4.51-2.38-4.35-2.97-4.13-3.59-3.94-1.86-1.59-4.24-2.19-5.18-1.03-6.26.13-7.48,1.3-30.15,6.42-27.75,5.24Z"/><path class="cls-1" d="M802.18,2581.49l7.83,8.21,7.83,8.99,6.88,10.42,5.91,11.88,4.99,13.31-.16,1.4-1.13.81-.22.03-.32.03-1.81-.49-1.13-1.43-4.48-10.99-5.32-10.2-6.21-9.42-7.07-8.64h0l-7.34-7.29-8.07-6.64-8.83-5.94-9.58-5.26-6.96-3.08-7.23-2.51-7.45-1.92-7.58-1.32-7.75-.7-7.69-.08-7.29.59-7.07,1.21-9.47,2.78-8.69,3.86-8.37,5.24-7.5,6.26-6.94,7.5-5.99,8.34-5.24,9.42-4.45,10.53-3.48,11.23-2.43,11.55-1.62,11.98-.92,12.17-.22,12.36.49,12.5,1.16,12.69,1.84,12.87,2.56,13.04,3.24,13.2,5.43,17.63,6.56,16.95,7.72,16.22,8.83,15.52h0l10.07,14.95,11.26,14.25,12.39,13.52,13.55,12.82,49.12,43.29,7.31,5.67,8.23,4.89,8.8,3.89,8.66,2.56,8.64,1.32,8.02.03,7.85-1.3,7.02-2.54,4.56-2.56,3.91-3.05,4.08-4.45,3.24-5.02,2.54-5.7,1.92-6.67,1.19-7.26.49-7.99-.19-8.88-.86-9.58v-.13l.7-2.02,1.97-.86h.13l2.24.86,1.03,2.16.54,11.04-.05,9.61-.65,8.39-1.27,7.53-1.97,6.94-2.54,5.97-3.24,5.29-4.1,4.72-4.16,3.48-4.89,3.02-5.37,2.35-6.13,1.81-1.3.3-7.42,1-7.4.03-7.69-1-7.56-1.94-7.67-2.89-7.85-3.97-7.42-4.67-7.4-5.67-37.28-32.42-20.76-18.89-14.6-15.2-14.04-17.63-12.31-18.3-10.58-19-8.83-19.68h0l-4.67-12.82-3.99-13.12-3.29-13.36-2.59-13.66-1.89-13.93-1.21-14.22-.49-14.47.19-14.76.78-10.39,1.65-10.77,2.4-10.58,3.21-10.47,3.83-9.74,4.29-8.8,4.97-8.18,5.26-6.96,7.48-7.72,8.21-6.42,9.91-5.72,10.5-4.18,11.34-2.73,11.66-1.19,12.25.35,12.2,1.94,12.04,3.43,11.63,4.91,15.12,7.69,3.81,1.46,7.58,2.46h0l6.61,2.83,6.4,3.48,6.15,4.08,5.94,4.67,14.25,13.5,12.74,14.68,8.53,11.85,7.69,12.52,6.83,13.2,5.94,13.87,1.81,2.08,2.73.49,24.99-3.64,25.53-2.65,26.05-1.67,26.61-.7,1.81-.76.81-1.78,2.75-42.7,1.84-17.87,2.29-16.63,2.75-15.66,3.27-14.79,3.75-13.85,4.29-13.04,3.59-8.96,4.1-8.26,4.75-7.85,5.21-7.23,6.45-7.42,6.99-6.72,7.69-6.21,8.69-5.94,9.37-5.43,10.39-5.13,11.63-4.94,12.96-4.8,66.1-21.65,10.45-3.81,9.18-4.24,7.94-4.67,6.69-5.07,4.45-4.48,3.59-4.83,2.46-4.43,1.89-4.64,1.46-5.1.89-5.26.24-11.77-1.81-12.82-3.97-14.25-5.99-15.03-7.91-15.63-9.53-15.68-18.27-26.18-14.28-20.19-9.96-15.12-8.21-13.93-6.8-13.31-5.59-13.31-4.29-13.2-2.94-13.04-1.67-13.01-.43-11.04.65-1.65,1.62-.78h.35l1.4.65.46,1.48-.57,6.91.08,5.37,1.46,11.26,2.02,9.66,2.62,9.37,3.29,9.29,4.08,9.53,4.72,9.5,5.56,9.8,14.04,21.4,10.31,14.47,18.3,26.05,11.66,18.25,8.99,16.65,6.96,16.46,4.67,14.71,1.65,7.18,1,7.07.38,6.67-.3,6.5-.92,6.24-1.59,6.02-2.19,5.48-2.83,5.21-4.02,5.48-4.91,5.02-5.59,4.37-6.48,3.86-16.17,7.5-17.73,6.5-17.9,5.67-37.84,12.42-14.36,5.43-13.36,5.67-10.2,5.1-9.29,5.75-8.61,6.53-7.75,7.15-5.64,6.21-5.1,6.61-4.78,7.23-4.26,7.67-3.94,8.31-3.43,8.75-3.08,9.45-2.62,9.88-4.83,23.59-3.78,25.91-2.73,28.61-2.05,34.55-.32,1.38-.84,1.16-1.19.78-1.4.27-20.08.38-20.11.92-20.11,1.51-20.14,2.08-16.41,2.19-12.28,2.19-1.59-.22-1.11-1.19-8.66-18.46-8.58-15.84-8.93-14.12-9.47-12.55-9.99-10.99-10.63-9.53-11.17-7.96-11.77-6.5-1.16-.54-.59.05-.22.51h0l.11.3Z"/><path class="cls-2" d="M1259.17,2540.93l-.16.03-1.03-.32-.49-1.05.35-1.38.38-.4,15.03-11.15,16.65-11.2,18.25-11.26,19.89-11.34,10.77-5.67,9.91-4.56,9.15-3.54,8.72-2.62,8.26-1.67,7.77-.76,7.61.16,7.02,1.08,16.44,4.4,15.66,5.61,14.9,6.86,14.12,8.07h0l10.23,6.96,1.62,2.13.86,3.64.03,4.02-.73,4.51-1.59,5.21-2.35,5.59-3.08,5.88-7.8,11.42-3.7,3.43-3.89,1.35h0l-3.97-.67-4.13-2.7-24.64-20.03-11.39-8.34-10.09-5.7-9.64-3.59-9.31-1.46-12.42.49-14.58,2.35-14.14,3.29-15.6,4.26-41.11,12.9-17.79,5.75Z"/><path class="cls-1" d="M1451.24,2564.22l-.86,10.55.3,9.93,1.46,9.29,2.62,8.64,4.26,9.72,5.45,10.15,6.72,10.85,9.82,14.47,9.29,13.66,5.94,9.66,13.5,24.1,12.39,23.32,11.28,22.48,10.18,21.67.4,1.75-.46.59-1.97.49-1.62-1.38-16.17-35.03-17.73-33.82-19.27-32.58-20.84-31.39-4.94-8.18-6.53-12.69-4.13-10.2-2.54-10.5h0l-.73-6.29-.16-6.42.38-6.48.94-6.59.51-.81.92-.22h0l.78.13.62.38.19.73Z"/><path class="cls-1" d="M1396.04,2658.58l-7.31-2.16-.76.08-.51.57-8.85,24.64-.73,3.45.27,3.54,2.38,15.03h0l.51,8.53-.11,8.58-.67,8.64-1.3,8.69-.81,1.27-1.46.32-.78-.14-.32-.11-.62-1.21,1.75-13.95.38-13.47-1.05-13.01-2.43-12.55.19-3,10.34-26.48.03-.05-.11-1.32-1.03-.89-20.32-7.13-20.24-8.21-20.22-9.29-20.14-10.36-3.08-.84-13.9-.32h-.13l-1.32-.76-.35-1.46.13-.86.54-1,1.05-.46,11.63-1.43,4.24-1.51,46.26-15.9,17.68-5.18,16.57-4.13.89-.32,1.16-1.05.54-1.43-.13-1.54-.81-1.32-1.3-1.32-1.94-1.48-2.24-.94-2.4-.32-2.43.32-13.06,3.7-12.12,4.1-11.12,4.43-10.18,4.83-16.49,8.1-17.27,7.64-1.78.22-1.67-.67-.27-.22-.49-.97.49-.97.3-.16,16.36-7.18,20.62-10.12,17.41-7.42,10.26-4.21,7.61-2.73,7.48-1.81,7.26-.86,7.13.08,1.46-.16,1.27-.73,7.69-6.72.59-.11.84.24.78.7-.08,1.05h0l-.19.24-7.96,7.99-.62,1.78,1.16,4.62,2.08,2.94,2.13,1.32,2.56.73,8.18.3,1.97-.03,9.77-1.11,10.26-3,.59-.08,1.16.73v1.38l-2.19,3.27-2.86,2.94-3.7,2.83-4.18,2.48-10.69,4.32-11.5,2.51-1.24.67-.49,1.35-.03,7.61-.73,7.37-1.43,7.13-2.11,6.86h0l-3.83,8.58-.16,1.54.94,1.21,7.4,5.16,6.29,6.15h0l1.08,1.3.22,1.3-1,.84-.62-.03ZM1371.43,2637.39l.22,1,.94.35.43-.16,1.97-1.57,3.1-4.26,1.92-5.78.76-7.5-.22-10.72-.22-5.51-.43-1.11-1.03-.57-.89-.16-1.38.35-.67,1.27v.16l.03,1.62h0l-.19,8.12-.81,8.15-1.46,8.15-2.08,8.15ZM1323.41,2617.88l41.24,19.03.05.03.86-.03.59-.65,2.35-7.88,1.65-7.8.92-7.72.22-7.64-.03-.27-.89-1.35-1.62-.24-45.21,12.74-.35.19-.32.86.54.73Z"/><path class="cls-1" d="M765.14,2598.53l-8.56-4.32-9.04-3.08-9.29-1.84-9.37-.51-8.8.84-8.5,2.13-7.69,3.35-7.13,4.67-7.23,7.04-5.72,8.42-5.24,10.96-3.29,10.26-2.43,12.47-1.57,13.01-.7,13.41.16,13.71,1.03,13.79,1.92,13.82,2.7,13.44,3.56,13.25,4.21,12.36,4.99,11.93,5.59,11.12,6.37,10.53,6.8,9.45,7.5,8.77,7.94,7.72,8.58,6.91,30.15,19.95,1.13,1.32.22,1.73v.13l-.08.27-.86.86-1.24-.14-16.9-10.39-11.93-7.96-8.34-6.45-9.96-9.18-8.96-9.96-8.21-11.04-7.23-11.74-6.4-12.69-5.61-13.77-4.59-14.31-3.75-15.28-3.13-18.06-1.7-17.57-.24-16.63,1.19-15.82,2.65-14.74,4.08-13.71,5.48-12.5,6.8-11.34,4.94-5.8,6.4-5.05,7.29-3.89,8.48-2.94,9.2-1.75,9.93-.59,9.8.7,9.28,1.92,7.64,2.51,7.13,3.16,6.61,3.81,6.1,4.43h0l5.56,5.05,5.02,5.64,4.53,6.32,4.02,6.91,3.51,7.31,2.89,7.48,2.16,7.23,1.51,7.31.76,6.94.08,6.94-.65,6.64-1.35,6.64-1.24,4.13-3.08,7.88-4.05,8.53-4.37,7.8-4.62,6.94-4.45,5.56-4.35,4.29-4.21,3.02-4.26,1.84-1.57-.43-.38-1.54.43-.73,12.23-13.09,4.8-6.24,4.45-7.04,3.75-7.29,3.13-7.67,2.19-7.42,1.27-6.91.43-6.61-.51-6.4-.7-.97h-1.21l-.32.24-.76.76-14.22,12.74-15.41,11.55-14.25,10.45-8.07,7.53-5.67,7.88-4.35,8.15-2.94,8.34-1.57,8.56-.24,7.13.73,7.23,1.7,7.34,2.67,7.42,3.08,6.42,3.56,5.94,4.05,5.45,4.51,4.94h0l9.12,7.5,6.15,3.27,3.83,1.16,4.4.7,11.44.11,8.53-.13,6.42.62,6.02,1.75,4.83,2.51,4.78,3.62,4.86,4.86,5.83,7.02,3.37,3.54,3.45,2.4,3.62,1.24,3.1-.11,2.05-.86,1.97-1.57,1.89-2.54h0l1.05-2.62.43-2.94-.19-3.48-1.46-5.05-3-4.99-4.67-5.1-6.75-5.67-4.51-3.91-3.56-3.99-2.83-4.26-2-4.37-1.65-7.53.13-8.42,1.78-9.66,4.13-14.22.4-1.27.11-.51.27-12.36.49-1.67,1.3-1.21,1.7-.4,1.67.51h0l1.21,1.35.73,2.16-.16,4.05-3.13,11.31-3.21,11.88-1.46,8.18-.19,6.96,1.13,6.1,1.65,4.13,2.46,4.08,3.16,3.89,4.05,3.94,8.15,7.72,5.43,6.72,3.29,6.45,1.27,6.48-.13,3.54-.76,3.67-1.3,3.54-1.62,2.92-1.97,2.27-2.29,1.67h0l-4.64,1.4-5.59-.38-1.81-.49-3.48-1.59-3.56-2.7-8.12-9.37-2.67-3.4-3.1-3.32-3.35-2.51-4.56-2.21-5.37-1.4-6.34-.62-8.69.05-10.15-.03-7.61-1.48-7.8-3.59-7.45-5.45-7.18-7.26-6.67-8.96-5.64-10.12-4.08-10.23-2.24-9.66-.54-12.01.54-5.83,1.08-5.67h0l2.21-7.21,3.16-6.99,4.1-6.75,4.99-6.53,7.58-7.26,12.74-9.04,7.64-5.18,10.53-8.12,12.85-11.63,4.75-4.43,1.32-2.29-.22-2.65-5.4-13.63-.22-.4-1.38-.67-1.35.67-4.26,4.75-5.48,4.83-5.67,4.05-5.61,3.13-5.16,2-4.51.89-4.05-.13-3.7-1.27-2.89-2.16-2.43-3.29-.05-.11-1.43-3.99-.27-4.4.78-4.89,1.94-5.56,3.08-6.1,4.08-6.32,5.1-6.48,5.29-5.61.16-.16.32-1.3-.76-1.11ZM790.41,2628.3l.35-1.27-4.26-8.04-5.32-7.15h0l-4.51-4.64-5.05-4.16-1.21-.35-1.16.57-8.75,10.15-6.24,9.31-3.51,8.04-.73,3.51-.05,3.32,1.08,4.32,2.35,3.1,1.92,1.05,2.19.51,5.48-.46,6.86-2.62,6.34-4.13,14.22-11.07Z"/><path class="cls-1" d="M727.17,2787.33v.03l.24,1.03-.57.89-.05.03-1.19.32-1.11-.54-4.97-6.02-4.67-7.34-4.59-8.8-3.94-9.04-3.4-9.5-2.75-9.69-2.16-10.12-1.48-10.26-.86-10.58-.22-10.66.43-10.8,1.05-10.8,1.73-10.96,2.38-10.85,2.97-10.74,3.59-10.53,4.13-10.28,4.7-9.96,4.51-7.48,4.8-5.29,1.75-.27,1.05,1.43h0l-.22,1-4.62,7.8-5.48,9.56-4.29,9.04-3.7,9.5-3.13,9.99-2.56,10.45-1.97,10.9-1.4,11.36-.81,11.85-.24,12.31.7,14.22,1.94,13.68,3.21,13.17,4.48,12.66h0l7.37,15.06,9.34,14.22Z"/><path class="cls-1" d="M899.88,2714.51l-1.38-.51-.54-1.35h0l.03-.22.13-.84.51-.94,1-.4,21.54-.38,21.76.65,22,1.73,22.24,2.78,22.46,3.81,22.7,4.89,22.94,5.91,23.19,6.99,26.69,9.26,24.56,9.93,22.46,10.61,20.32,11.26,17.41,11.34,16.22,12.42,15.03,13.44,13.85,14.49h0l12.87,15.79,11.63,16.9,10.42,17.98,9.2,19.06,8.77,21.62,7.42,21.76,6.07,21.92,4.72,22.08.03.24-.51,1.11-1.19.32-.86-.13-.81-.78-3.1-15.01-3.7-14.98-4.21-14.52-4.78-14.41-5.21-13.71-5.78-13.5-6.18-12.87-6.72-12.55-7.02-11.71-7.56-11.36-7.88-10.66-8.42-10.23-8.61-9.39-9.12-8.93-9.39-8.23-9.88-7.69-10.26-7.23-14.85-9.47-15.36-8.75-15.9-7.96-16.41-7.18-22.67-8.77-22.67-7.8-22.62-6.8-22.56-5.86-22.56-4.86-22.54-3.86-22.48-2.92-22.46-1.92-20.08-.51-21.92.97Z"/><path class="cls-1" d="M793.08,2735.83l-8.45,5.97-7.45,4.53-2.08.81-1.89-.05-.38-.11-.84-.92.24-1.19.3-.3,17.65-12.63,17.14-13.31.35-.22,1.24.11.62,1.08v.38h0l-.49,1.84-1.38,1.78-6.48,5.83-8.12,6.4Z"/><path class="cls-1" d="M1466.76,2884.77l-3.05-.86-2.73-1.4h0l-3.89-3.59-3.51-5.16-2.67-5.4-1.97-5.75-1.08-5.86-.24-5.83.65-5.75,1.46-5.53,2.29-5.29,3.91-5.88,5.07-5.24,5.99-4.21,7.07-3.32,7.07-2.05,7.13-.94,5.4.03,5.4.62,5.48,1.27,5.48,1.89,1.19,1.05.24,1.59-.03.08-.03.11-.78.97-1.27.08-6.96-1.97-6.94-1.13-6.83-.3-6.56.57-6.1,1.4-5.64,2.27-4.86,3.02-4.26,3.81-3.45,4.45-2.73,5.24-1.86,5.75-1.05,6.5v7.29l1.32,7.02,2.54,6.26,3.81,5.64,5.51,5.07,2.51,2.19.08.27-.3.78-.81.24Z"/><path class="cls-1" d="M1442.28,2835.94l-2.05,11.26-.46,7.1,1.32,9.77,2.56,8.42,3.75,7.02,4.99,5.67h0l6.45,4.4,7.77,2.92,9.07,1.43,10.39-.03,1.32.4.7,1.19.13.94-.19.84-.73.43h-.03l-10.9.43-10.12-1.46-4.62-1.43-4.26-1.89-7.37-4.97-4.29-4.43-3.54-5.1-2.86-5.91-2-6.51-1.13-6.99-.27-7.37.59-7.72,1.48-7.94.62-1.08,1.13-.57,1.21-.19.22-.03.86.43.22.94Z"/><path class="cls-1" d="M1484.98,2888.77l-.4-.32-.89-1.67.7-1.75.32-.24,7.91-4.53,8.29-3.89,8.8-3.32,8.56-2.46,8.29-1.59,7.61-.67,7.37.24,6.48,1.11,2.35,1.05,1.75,1.75.86,2.16-.14,2.21-.13.35-.67,1.35-2.13,2.38-2.86,1.67-3.64,1.11-4.67.59-5.56-.05-6.1-.73-6.4-1.38-5.37-1.78-2.46-.54-4.51.51-5.34,1.7-6.26,2.97-6.5,3.91-2.65.76-2.59-.89ZM1546.66,2874l-24.1,1.13-.16.19v.05h0l.65,1.78,1.73,1.43,2.54.89,2.91.22,9.23-.43,2.91-.49,2.43-1.13,1.57-1.59.51-1.81v-.05l-.03-.05-.19-.13Z"/><path class="cls-1" d="M876.89,2919.62l.35-.94.92-.38h0l.13.03.86.16.67.7,2.83,22.78,3.35,20.62,3.94,19.22,4.62,18.03,5.24,16.73,5.99,15.66,6.64,14.41,7.31,13.31,2.21,3.59h0l9.58,13.39,11.01,12.47,12.44,11.58,13.87,10.63.65,1.08-.35,1.21h0l-.08.11-.54.54-.86.4-.92-.24-8.1-5.94-7.69-6.32-7.26-6.69-6.86-7.07h0l-11.88-14.41-10.39-15.79-8.93-17.17-7.42-18.49-8.12-25.91-6.26-25.83-4.4-25.78-2.56-25.7Z"/><path class="cls-1" d="M1028.42,3140.92l302.31,116.9,24.91,8.48,32.85,9.31,1,.7.24,1.19v.05l-.59,1.03-1.16.3-9.29-1.57-36.28-11.8-41.46-15.12-272.88-105.37-1.11-.97-.27-1.46.13-.78.03-.11.59-.73.97-.05Z"/><path class="cls-1" d="M997.14,3344.63l8.69,60.54,7.21,45.89v.49l-.76.86-1.16-.13-.14-.11-1.21-2.29-8.56-51.82-7.77-52.9-6.91-53.04-5.86-52.2.54-2.54.11-.13,1.05-.46.97.65h0l.16.46,5.53,46.13,8.1,60.62Z"/><path class="cls-3" d="M673.6,980.91l.65-.24v-.08l-3.4-20.3-2.81-20.27-2.21-20.27-1.65-20.22-1.08-20.19-.49-20.16.08-20.14.67-20.11h0l1.57-23.78,2.38-23.75,3.19-23.73,3.99-23.67,5.07-23.05,6.67-23.51,8.31-24,9.93-24.45,7.99-17.19,8.8-16.65,12.52-20.73,13.74-19.81,15.14-19.06,16.28-18.11,17.68-17.33,18.79-16.28,20.05-15.41,21.11-14.33,16.6-10.09,16.95-9.29,17.25-8.53,17.6-7.69h0l19.16-7.37,19.54-6.45,19.92-5.56,20.3-4.64,20.68-3.72,21.03-2.81,21.43-1.92,21.78-1,20.89-.08,20.59.76,20.32,1.62,20.03,2.46,19.73,3.35,19.43,4.18,19.16,5.05,18.87,5.88h0l16.25,5.86,16.01,6.5,15.82,7.18,15.57,7.8,21.62,12.17,20.73,13.25,19.78,14.31,18.79,15.33,17.73,16.36,16.68,17.33,15.41,18.11,14.33,19.06,9.88,14.71,9.26,15.25,8.61,15.71,7.94,16.22,7.07,16.22,6.45,16.6,5.8,17,5.16,17.38,4.53,17.76,3.89,18.14,3.24,18.52,2.62,18.92,3.29,33.85h0l1.38,22.73.7,22.78v22.81l-.67,22.89-1.32,22.92-2.02,22.97-2.7,23.02-3.37,23.08.05.51.78.54.84-.4,9.23-12.09,8.83-8.61,4.43-3.18,4.7-2.65,4.7-1.86,4.94-1.24,7.1-.49,4.86.43,4.35.97,4.08,1.59,3.56,2.11,3.94,3.45,3.18,4.13,2.59,4.86,2.08,5.88,1.43,6.56.89,7.34.3,8.37-.3,9.12-1.03,13.12-1.35,10.63-6.21,35.82-6.69,33.63-7.13,31.42-7.61,29.23-12.77,41.46-18.25,52.28-4.43,10.88-4.97,9.77-5.48,8.61-6.02,7.48-2.4,2.05-5.43,3.08-5.37,2.11-5.32,1.16-5.26.19h0l-5.13-.76-5.07-1.67-4.99-2.62-4.97-3.54-.16-.11-.7.03-.4.57-8.91,54.85-8.53,47.24-7.37,33.04-4.02,14.47-4.35,13.47-4.83,12.9-5.21,12.01-5.75,11.58-6.4,11.34-8.07,12.5-9.07,12.28-1.19,2.05-.59,2.27-4.89,49.66-3.32,49.66-1.75,49.64-.16,49.61h0l.7,30.96,1.3,30.93-.65,1.67-1.67.65h0l-.24-.03-1.97-.35-1.38-.78-.62-1.46-2.08-53.25-.05-54.28,2.02-55.31,4.05-56.33,2.4-29.93-.3-.65-.7-.08-.27.19-13.36,14.47-14.25,14.28-15.44,14.39-16.6,14.44-17.79,14.58-19.43,15.12-48.91,35.74-16.09,10.36-16.79,8.69-11.09,4.64-11.28,3.94-11.61,3.32-12.42,2.78-12.79,2.19-13.68,1.67-14.76,1.16-15.95.67-19.57.08-18.76-.84-17.68-1.75-16.87-2.65-15.87-3.59-14.98-4.48-13.95-5.37-12.93-6.21-.19-.11-18.3-10.93-24.18-16.95-9.8-7.04-23.67-17.46-22.86-18-22.05-18.52-21.27-19.03-15.2-14.95-13.77-15.47-.89.13-.03.24,3.29,33.77,2.62,33.2,1.94,32.31,1.24,31.72.57,30.99-.13,30.37-.81,29.53-1.48,28.83v.11l-.89,1.54-1.73.4-.94-.16-1.65-.97-.62-1.78,1.03-34.79.38-34.12-.22-33.23-.84-32.61-1.48-31.93-2.08-31.36-2.73-30.58-3.32-29.93-.86-3.27-1.7-2.91-11.77-16.33-10.15-16.79-5.29-10.15-4.83-10.53-8.48-22.38-4.45-14.79-4.24-16.98-4.05-19.19-3.83-21.38-13.87-86.35-.05-.22-.62-.57-.84.11-7.45,4.21-7.04,2.62-6.96,1.13-6.5-.4-5.16-1.38-4.83-2.29-4.72-3.29-4.4-4.08-4.37-5.18-3.94-5.88-3.64-6.64-3.4-7.58-3.64-9.07-9.42-24.89-8.75-25.16-8.02-25.43-7.34-25.7-6.64-25.99-5.91-26.26-5.24-26.53-4.53-26.83-.7-4.37-2.67-18.17-1.38-14.6-.35-12.93.76-11.44,1.86-9.66,2.97-8.04,4.21-6.45,5.24-4.53,6.29-2.78,7.07-1.05,8.58.43,7.91,1.92,6.42,2.94,6.21,4.24,6.42,5.72,8.26,8.69,4.53,4.89ZM1491.69,1154.66l-9.61,19.57-12.52,21.43-15.41,23.37-21.7,30.5-8.77,12.15-11.69,16.82-11.15,17.09-10.45,17.09-9.88,17.36-9.29,17.52-8.69,17.79-8.02,17.79-7.45,18.03-.54.62-.84.13-.86-.13-.92-.62-.16-1.05.05-.13,14.66-34.23,16.28-32.85,17.9-31.5,19.54-30.12,45.72-64.89,9.99-14.98,9.29-15.76,8.56-16.57,7.83-17.36,2.21-7.77,6.59-41v-2.27l-9.5-50.96-7.77-37.22-7.15-26.61-9.53-27.18-6.88-14.63-13.52-25.59-11.42-21.84-8.8-18.54-6.4-16.68h0l-3.64-13.06-2.59-13.39-1.57-13.74-.51-14.06v-.08l.57-1.16,1.24-.4h.08l1.24.59.54,1.27.76,12.9,1.54,12.69,2.35,12.42,3.16,12.2h0l6.02,17.41,7.75,16.92,26.42,50.31,7.45,15.68,6.61,17.09,5.75,18.49,4.89,19.87,14.25,69.94.43.49.65-.16.16-.35,10.01-66.78,8.99-57.87,3.24-27.69,1.97-30.5.7-33.25-.57-36.06-1-20.65-1.7-20.49-2.35-19.97-3.05-19.73-3.7-19.06-4.4-18.81-5.05-18.25-5.75-17.95-6.37-17.27-7.07-16.98-7.69-16.38-8.42-16.03-8.96-15.3-9.69-14.93-10.26-14.33-10.99-13.93-10.34-11.98-10.93-11.63-11.31-11.09-11.77-10.63-12.39-10.36-12.82-9.88-13.25-9.39-13.6-8.91-13.93-8.37-14.25-7.83-14.63-7.34-14.87-6.77-15.14-6.21-15.33-5.61-15.39-4.97-15.52-4.4-15.68-3.75-15.76-3.16-17.92-2.86-18-2.16-31.01-2.13-31.23-.11-31.42,1.89-31.63,3.91-16.82,2.97-16.71,3.67-16.55,4.35-16.36,5.02-16.3,5.72-16.06,6.37-15.79,7.02-15.52,7.64-15.25,8.29-14.9,8.85-14.52,9.45-14.12,10.01-13.6,10.5-13.17,11.01-12.66,11.53-12.2,12.04-11.15,11.98-10.5,12.42-10.07,13.01-9.42,13.36-9.02,14.09-8.39,14.39-7.85,14.98-7.21,15.28-6.69,15.84-6.05,16.09-5.51,16.6-4.83,16.79-4.26,17.36-3.62,17.52-3.02,17.9-2.35,18-2.35,24.27-1.57,24.08-.81,23.89-.03,23.73.76,23.54,1.51,23.37,2.29,23.19,3.05,23,6.72,41.97,8.96,51.5,1.32,10.18,1.24,14.95.51.7.86-.16.24-.46,2.35-13.47,5.18-27.61,1.75-9.18,3.83-17.71,4.62-17.36,5.43-17.06,6.21-16.76h0l6.48-15.2,7.18-14.95,19.35-37.98,8.91-18.06,6.94-18.65h0l3.64-13.04,2.7-13.33,1.84-13.6.92-13.87v-.05l.97-.73.84.13,1.03.59.38,1.11-1.08,18.79-2.83,17.95-4.56,17.19-6.32,16.36-10.55,22.21-15.36,29.99-6.07,11.74-6.61,13.9-6.13,15.09-5.7,16.36-5.13,17.44-4.7,18.71-4.16,19.76-3.67,21.11-3.18,22.13-1.32,6.15-1.51,7.1.03,4.83,6.77,39.6,1.43,5.97,2.24,5.7,12.34,24.08,8.45,14.66,9.45,15.17,28.34,41.76,19.84,28.8,22.24,34.25,18.54,32.17,8.12,15.71,7.34,15.49,6.75,15.6,5.99,15.36.03.05-.11,1.13-.89.73-.11.03-1.24-.11-.84-.92-11.77-27.45-12.66-26.18-13.58-24.91-14.47-23.64-27.94-42.16-33.52-48.88-13.98-22.21-14.98-27.8-.27-.24-.59.05-.22.57,13.2,75.04,10.26,62.54,10.01,62.92,7.15,41.62,6.18,27.99,3.75,13.2,4.08,12.39,4.51,11.85,5.07,11.63,5.51,11.12,6.07,10.9,6.91,11.04,7.64,10.85,8.69,11.09,9.74,11.23,10.85,11.5,11.96,11.69,27.83,24.64,36.01,28.91,22.38,16.98,26.72,19.46,9.72,6.61,9.82,6.02,9.93,5.4,10.07,4.8,10.18,4.21,10.31,3.62,10.42,3,10.53,2.4h0l3.43.65,12.98,1.92,14.44,1.4,15.93.86,17.38.32,16.57-.19,15.2-.73,13.95-1.27,13.12-1.81,12.66-2.46,11.9-3.05,11.5-3.7,11.39-4.45,9.85-4.56,9.8-5.26,16.46-10.34,20.27-14.31,44.75-33.74,17.09-13.71,15.47-13.17,14.47-13.12,13.41-13.14,12.42-13.14,11.63-13.41,9.45-11.88,8.31-11.58,7.15-11.26,6.05-10.93,5.24-10.96,4.97-11.71,8.66-24.67,7.18-26.75,5.75-28.93,31.34-187.43,3.21-17.09,4.29-23.56-.62-.43-.19.19ZM622.43,1110.83l-.05-13.63v-14.6l.78-11.23,2.32-27.5.78-26.67.76-7.58,1.75-8.64.84-.54,1.03.19.86.49.32.94-1.35,43.05-1.81,35.71-.51,15.74.54,14.87,1.59,13.77,2.67,12.87,3.75,11.98,4.78,10.96,5.99,10.26,6.96,9.18,4.67,4.99,4.35,4.75,3.72,4.99,3.1,5.24,2.51,5.45h0l2.38,7.64,1.32,8.07-.49,1.57-1.43.76h-.35l-1.7-.54-.81-1.62h0l-1.08-7.5-2.11-6.86-4.62-8.48-6.99-8.37-7.07-8.07-6.42-9.07-5.83-10.01-5.18-10.99-.97-.43h-.03l-.43.84,9.23,29.47,13.06,37.98,9.2,26.48,5.8,14.98,6.15,11.74,6.64,8.91,3.48,3.32,3.75,2.7,2.65,1.38,3.99,1.4,4.1.67,4.43-.03,4.35-.76,4.02-1.43,3.78-2.05,3.43-2.65,2.97-3.21,1.05-2.19.11-2.4-12.36-70.66-11.15-62.78-6.53-41.16-16.22-105.27-1.19-2.54-13.66-16.73-3.97-4.62-4.35-4.16h0l-8.53-6.1-4.1-2.02-4.56-1.57-4.59-.92-4.67-.3-4.05.35-3.83,1-3.29,1.57-2.92,2.21-.89.92-2.65,3.59-2.11,4.13-1.65,4.72-1.27,5.59-1.13,12.93.67,15.44,2.29,20.22,2.89,20.14h0l5.51,30.01,6.86,29.8.11.19.57-.27ZM1566.16,1155.85l-5.18,10.58-6.32,10.12-7.37,9.64-8.5,9.18-4.08,5.07-3.1,6.21-2.11,7.26-1.13,8.39-.51,1-1.08.32h-.08l-.73-.14-1.54-.92-.49-1.73,1.54-9.07,2.75-7.94,4.45-7.69,6.48-7.72,6.96-8.02,6.07-8.66,5.4-9.64,4.48-10.12,3.78-11.09,2.81-11.39,1.92-11.98.97-12.07.57-24.35-.35-24.91-1.27-25.48-2.19-26.07.16-1.11,1.73-1.46,1.11.05.73.84h0l.03.11,2.51,17.06,2.65,46.78,1.03,42.89.62.3.13-.22,13.6-70.34,3.16-20.84,1.16-17.38-.81-14.82-1.16-6.75-1.59-5.91-1.54-3.83-1.94-3.24-2.43-2.89-2.78-2.29-3.67-1.97-3.97-1.21-4.48-.46-4.59.32-4.75,1.08-4.67,1.78-4.43,2.43-4.1,3.02-5.7,5.61-6.26,7.85-6.67,8.23-6.02,5.26-1.38,2.13-6.05,35.3-7.1,49.15-5.78,40.62-4.7,29.04-22.4,127.83.27,3.54,1.94,2.97,4.64,3.62,4.7,2.51,4.91,1.54,4.83.43,3.91-.38,3.81-1.03,3.64-1.62,3.48-2.19,3.35-2.81,3.08-3.32,5.26-7.99,6.99-14.82,6.34-16.33,13.79-40.27,14.74-45.18-.43-.89-.03-.03-1.05.46ZM1568.56,1152.74l.27-.86-.19-.54-.54-.08-.22.27.05,1.35h0l.59-.05.03-.08Z"/><path class="cls-2" d="M786.05,777.4l-.11.03-1.11-.27-.57-.97v-.08l-3.86-53.82-4.97-70.91-.08-16.03.86-29.26.35-.84.81-.46.89-.13,1.19.3.54,1.08v.16l-.76,22.67.05,22.56.86,22.46,1.7,22.35,3.67,43.73,2,35.66-.4,1.16-1.08.62Z"/><path class="cls-3" d="M1414.55,776.78l-1.05-.62-.4-1.16,2.19-35.39,3.89-43.4,1.81-22.19.97-22.27.19-22.43-.65-22.51v-.16l.54-1.08,1.19-.3.89.16.81.43.32.84.7,29.07-.16,15.92-5.32,70.37-4.13,53.44v.08l-.57.94-1.11.27-.11-.03Z"/><path class="cls-2" d="M1020.66,912.68l.94-5.53.3-.76,1.59-.76,1.51.92,2.94,6.07,2.38,6.8,1.59,7.15.67,6.77-.16,6.53-.97,5.75-1.81,5.26-2.7,4.78-1.51,1.62-1.92,1.11-2.16.54-2.21-.08-23.54-4.62-25.53-5.88-76.36-20.11-43.43-11.74-10.8-2.54-9.56-1.43-8.77-.38-8.26.65-7.72,1.51-7.96,2.54-13.47,5.61-13.2,6.53-12.96,7.45-12.69,8.37-2.13.73-.4-.05-.24-.05-.67-.76.13-1.03,9.18-12.9,9.88-12.12,10.58-11.28,11.28-10.47,8.72-7.15,9.1-6.72,4.13-2.62,6.1-2.97,6.83-2.32,7.07-1.48,7.8-.81,8.31-.08,9.1.57,24.27,3.45h0l67.07,11.96,62.24,12.79,5.7,1.67,4.48,2.4,3.29,3.05,3.02,4.21.84.03.08-.19Z"/><path class="cls-2" d="M1178.67,915l.43,1.05,1.13.08.46-.51,3.45-6.29,3.78-4.45,2.54-1.35,22.05-5.02,28.53-5.86,76.55-14.17,3.72-.65,25.37-3.99,9.47-.84,8.61-.16,8.21.49,7.5,1.16,7.1,1.89,6.96,2.67,6.21,3.24,6.07,4.05,6.91,5.37,12.82,11.2,11.98,12.2,11.17,13.23,10.36,14.25.16,1.32-.97.89-.46.05-3.62-1.59-13.6-8.83-13.36-7.58-13.2-6.37-12.96-5.1-2.16-.7-5.99-1.48-6.07-.84-6.29-.27-6.91.32-14.93,2.35-20.38,5.16-62.62,16.98-57.36,14.66-34.44,7.64-4.64.24-3.78-1.27h0l-1.75-1.35-1.48-1.86-2.08-5.16-1.19-6.37-.67-6.91-.08-7.04.51-6.5,1.05-5.61,1.54-4.59,2-3.75,2.62-3,1.7-.38,1.21,1.24h0l.03.78-1.24,7.34Z"/><path class="cls-3" d="M1033.8,963.1l-.03-.03-.08-1.16.76-.89.22-.13,1.05-.08.84.65,11.26,19.76,8.29,16.52,6.07,14.87,4.08,13.71,1.48,8.12.92,8.99.35,9.88-.24,10.77-1.81,25.78-3.02,25.51-4.24,25.18-5.43,24.91h0l-3.59,13.9-.94,1.59-1.67.86-1.27.24-.78-.67.03-.16,4.62-16.92,3.97-16.9,3.32-16.9,2.67-16.84,2.02-16.87,1.38-16.82.7-16.82.08-16.79-.67-10.07-1.75-10.42-2.75-10.09-3.59-9.26-10.55-21.89-11.66-21.54Z"/><path class="cls-3" d="M1154.67,1182.43l-.81.11-.73-.38-4.08-12.5-4.89-21.3-3.29-17.76-2.65-17.79-2-17.84-1.32-17.84h0l-.67-17.81.51-16.44,2.24-15.92,3.97-15.44,5.72-15.39,7.8-16.03,10.09-17.19,1-.73,1.21.11.05.03.67.78-.11,1v.03l-15.28,29.5-5.13,11.63-3.45,9.56-3.37,14.47-1.67,15.74-.13,18.06,1.43,24.7,2.67,26.64,4.16,26.37h0l4.16,20,5.02,19.87.03.08-.22,1.08-.94.62Z"/><path class="cls-3" d="M998.01,1014.41l-.05.03-.94.35-.94-.43-.59-.62-14.55-14.85-11.17-9.77-10.72-7.23-5.18-2.62-5.34-2.08-13.58-3.72-13.9-2.27-14.2-.81-14.49.73-14.85,2.29-15.12,3.83-15.49,5.43-15.84,6.99-16.6,8.72-17.36,10.45-2.16.76-2.27-.3-.19-.05-.35-.19-.46-1.03.57-1,22.97-13.95,21.78-11.01,10.45-4.4,10.12-3.64,9.85-2.94,9.55-2.19,13.85-2.05,13.79-.84,13.31.4,12.63,1.59,11.85,2.78,10.8,3.91,9.96,5.1,8.69,6.15,12.61,11.55,13.71,14.9.35.78-.49,1.24Z"/><path class="cls-3" d="M1205.23,1014.06l-.49-.97.35-1.03,13.39-14.74,12.34-11.44,8.53-6.1,9.77-5.1,10.58-3.89,11.66-2.83,12.39-1.65,13.09-.46,13.58.76,13.66,1.94,9.39,2.08,9.72,2.83,9.99,3.54,10.31,4.26,21.49,10.72,22.67,13.58.57.97-.46,1.03-.32.19-.19.05-2.21.32-2.13-.76-17.14-10.15-16.38-8.5-15.66-6.77-15.25-5.24-14.9-3.7-14.6-2.16-14.31-.65-13.93.89-13.68,2.32-13.33,3.72-5.24,2.08-5.1,2.62-10.5,7.15-10.93,9.69-14.22,14.71-.57.59-.92.43-.94-.35h-.05Z"/><path class="cls-3" d="M1548.4,1023.18l-1.03-.86-1.27.43h0l-.3.54-9.02,30.47-.3,2.48.51,2.46,2.62,8.66,1.21,8.75.54,3.64,1.13,3.51,2.7,6.15,3.94,9.23,2.4,6.96,1.43,6.37.54,6.15-.19,5.18-.89,5.51-2.62,9.99-3.48,9.82-4.32,9.64-5.16,9.45-.67,2.67.94,2.59,1.13,1.94.08,1.48-.11.27h0l-1.11.81-2.08.24-5.61.94-3.89,2.11-3.59,3.43-3.24,4.64-3.67,6.77v.03l-1.57,2.4-1.81,1.7-2.19,1.08-2.24.3-2.59-.65-2.24-1.62-1.59-2.27-.97-2.94-.73-5.32-.13-5.18.43-5.02,1.03-4.86h0l2.21-6.15,3.24-5.88,4.24-5.59,5.05-6.72,2.73-5.26,1.03-3.7.51-3.91-.35-9.1-2.11-10.74-4.43-14.71-.51-1.62.11-.59,5.99-8.88,3.1-7.53,4.89-18.71,5.18-17.11,5.48-15.49,5.75-13.9,4.8-9.66,5.34-8.91,5.88-8.15,6.42-7.37,5.1-3.94,5.78-2.46,5.43-.54,2.24.51,2,1.03,2.62,3,1.38,4.16.43,2.56,1.11,10.09.19,10.23-.78,10.39-1.7,10.55-1.03,1.48-1.78.3-.08-.03-.81-.24-.73-.54-.19-.89,1.51-13.63.46-11.36-.59-9.93-1.67-8.58-1.67-2.29-2.75-.65h0l-.57.11-3.43,1.38-3.35,2.11-6.83,6.5-6.88,9.53-6.18,11.63-.4,1.13h0l-.22,3.56,1.3,4.02,2.75,4.43,4.26,4.83.43,1.19-.65,1.05-.27.13-2.94,1.16-2.27-.05-1.59-1.62-4.24-10.72ZM1531.42,1066.72l-2.08,9.29-2.51,8.53-2.94,7.77-3.37,6.99-.73,2.59.43,2.67,2.46,6.94,1.75,6.61,1.13,6.64.43,6.1-.22,5.7-.92,5.59-1.59,5.1-2.29,4.89-3.1,4.62-6.5,8.56-2.65,4.18-1.97,6.48-1.13,5.91-.27,5.32.57,4.78,1.03,1.16,1.54-.19.43-.49.43-.76,6.64-9.99,3.21-3.4,3.32-2.62,4.29-2.29,5.16-1.7,1.21-.73.59-1.3.97-7.02.67-2.24,6.29-13.95,3.94-12.17,2-11.36-.03-10.77-1.92-7.31-4.59-10.42-2.75-6.24-2.24-6.69-1.73-7.13-1.24-7.58-.22-.49-.89-.24-.62.67Z"/><path class="cls-2" d="M653.11,1026.56l-3.91,7.37-1.21,1.67-1.43.81h-1.46l-1.62-.73-.86-.86-.43-1.19.13-1.21.65-1.05.43-.38,4.02-3.32,3.67-4.29.59-1.46-.19-1.59-3.29-7.5-3.91-7.1-7.75-10.69-9.42-9.66-2.05-1.3-2.29-.54-2.16.35-1.75,1.13-2.4,3.81-1.16,5.13-.49,8.72.13,8.96.81,9.15,1.46,9.37-.24,1.57-1.19,1.03-.7.27-.49.03-.49-.51-3.45-15.39-1.4-13.41.57-11.39,1.05-4.83,1.59-4.45,2.05-3.24,2.54-1.89,4.21-.81,5.13,1.24,5.97,3.4,5.53,4.86,9.1,11.04,6.72,10.9,8.23,17.46,6.88,17.57,5.56,17.63,4.18,17.71,2.54,8.48,4.7,7.58,1.24,2.81-.13,3.05-.35,1.24-4.02,16.25-1.48,11.82.11,5.26.65,4.45,1.21,3.99,1.89,3.64,2.27,3.45,6.07,9.45,3.75,6.96,2.46,6.34,1.35,6.18.22,7.21-1.08,7.42-1.03,2.48-1.81,1.92-2.35,1.13-2.56.19-.65-.11-2.16-1.11-1.92-2.13-3.08-4.94-3.4-5.43-2.86-3.67-3.16-2.83-3.27-1.81-3.24-.94-3.78-.27-1.51-.65-.49-1.59.05-.3,1.3-4.32-.19-1.57-8.18-15.3-5.18-12.66-3-12.01-.67-5.8-.13-5.97,1-9.93,2.62-7.4,6.59-14.9.46-1.19,8.34-28.31-.05-1.32-10.63-26.96-.13-.24-.86-.46-.89.43ZM668.37,1066.61l-5.18,16.6-4.35,10.69-3.81,8.72-2.4,8.58-1.05,8.37.3,8.21,1.51,7.56,2.7,7.37,7.15,16.71,3.18,9.58.62,1.27,1.16.81,9.61,4.32,3,2.05,1.81,1.94,8.66,13.31.49.46,1.67.13,1.05-1.3.86-7.26-.51-6.21-1.11-3.99-1.89-4.35-7.23-11.39-3.89-5.72-1.19-1.94-2.16-4.62-1.43-4.78-.81-5.07-.22-5.75,1.35-12.44,4.13-16.84.11-.4.16-2.13-.67-2.05-3.27-6.59-2.75-7.23-2.19-7.91-1.65-8.58-.22-.46-.89-.3-.67.65Z"/><path class="cls-3" d="M1002.93,1034.3l-.46,2.81-1.24,2.02h0l-1.54,1.03-2.05.57-5.56-.4-6.91-1.11-6.59-.3-6.32.46-6.02,1.24-30.8,6.88-15.76,2.29-16.95.67-17.33-1.03-17.36-2.65-17.03-4.24-16.41-5.72-15.36-7.13-13.63-8.21-1.59-.7-1.73-.05-15.68,2.54h0l-1.38-.32-.73-1.21-.16-.89.38-1.62,1.38-.94,8.31-2.32,8.64-3.7,12.58-6.88,10.77-6.05,10.85-5.45,11.04-4.51,11.23-3.54,11.39-2.59h0l10.39-1.54,10.55-.76,10.69.03,10.82.78,8.88,1.21,8.45,1.73,7.85,2.19,7.56,2.73,7.67,3.43,7.5,4.05,7.42,4.75,7.4,5.45,5.83,4.53,13.95,11.09,8.93,8.12,3.29,3.43,1.08,1.75.84,4.18-.57,3.45-2.38,3.4-4.24,2.73-6.34,2.02-8.07,1.21-1.11-.35-.54-1.03v-.35l.4-1.24,1.13-.7,11.53-3,3-1.43,2.05-2.05h0l.89-1.81.38-2.13-.59-5.18-.46-.7-1.43-.16-.76,1.19ZM923.73,997.68l1.24,4.21.49,3.89-.27,3.56-1,3.24h0l-1.67,2.78-2.35,2.48-3.81,2.62-3.94,1.57-4.24.65-4.1-.35-3.94-1.32-3.43-2.21-2.7-2.94-1.81-3.62-.65-3.43.22-3.75,1.08-3.72,2.05-3.86.24-.62-.46-1.59-1.59-.54-17.09,2.75-1.89,1-.89,1.94-.13,7.72,1.11,6.88,2.4,6.32,3.51,5.37,3.59,3.64,4.18,2.97,4.64,2.29,5.1,1.59,5.43.89,5.7.16,5.91-.57,6.05-1.32,5.1-1.94,4.43-2.78,4.8-4.78,3.54-5.8,2.27-6.91.78-7.5-.22-4.29-.59-2.19-2.29-2.16-2.97-1.05-10.2-1.3-1.27.43-.43,1.24.08.35ZM884.32,1037.54l-7.18-5.72-2.86-3.27-2.4-3.56h0l-2.4-5.1-1.57-5.59-.76-6.07.08-6.53-.54-1.38-1.4-.46h0l-.35.08-8.56,3.37-8.58,4.02-8.58,4.64-8.61,5.29-.46.76.3.84h0l.19.16,12.61,6.64,12.85,5.45,13.04,4.26,13.28,3.08h0l1.43.27.65-.27-.16-.92ZM927.43,1039.62l-.38.62.4.62.4.05,49.58-7.99,1.24-.62.65-1.24,1.24-7.26-.11-1.7-.89-1.46-5.64-5.21-6.05-4.67h0l-9.61-5.8-10.45-4.62-1.08.11-.59.92v.3l.4,6.96-.57,6.42-1.48,5.86-2.48,5.32h0l-2.7,3.89-3.35,3.54-3.97,3.16-4.59,2.81ZM982.92,1030.82l.13,1.94,1.35,1.4,4.7,1.35,5.45.08.76-.22,1.27-1.67-.65-2.02-8.1-8.1-1.51-.51-1.3.86-.19.4-1.92,6.48Z"/><path class="cls-3" d="M1203.07,1031.79l-4.45,3.59-1.75,2.73.11,2.59,1.11,2.46,2.02,2.02,2.62,1.32,12.63,3,1.57.78.89,1.51.03.13-.27,1.24-1.11.62-.3-.03h-.03l-8.58-1.51-6.18-2-4.4-2.75-2.48-3.48-.62-3.64.89-4.53,1.27-2.65,1.89-2.51,5.59-4.56,6.72-4.97,7.21-6.21,10.47-9.1,10.96-7.67,11.44-6.26,11.93-4.83h0l13.2-3.59,13.77-1.97,13.55-.7,12.52.27,11.98,1.27,11.28,2.29,13.52,4.26,13.17,5.83,37.19,19.43,4.24,1.94,7.48,2.59.94.67.46,1.08-.16,1.13-.78.89h0l-1.32.32-14.58-1.3-1.89.16-1.78.73-11.63,6.72-11.9,5.78-12.15,4.86-12.39,3.94h0l-15.74,3.56-16.11,2.16-16.52.7-16.92-.7-17.6-2.83-34.09-6.99-6.02-.46-7.94.94-7.69.94-5.86-.38-.81-.32-.84-.84-.35-1.13.22-1.16.73-.94,1.92-1.89.89-1.81-.22-.67-.67-.22-.27.11ZM1295.54,1038.54l7.96-.78,7.13-2.16,6.37-3.59,5.18-4.83,3.64-5.53,2.43-6.42,1.08-6.96-.24-7.64-1.24-2.62-2.59-1.38-12.58-2.16-.59-.03-1.75,1.08-.22,2.05,1.48,6.1-.05,5.75-1.57,5.1-3.02,4.13-2.38,1.81-2.83,1.35-6.37,1.05-6.4-.94-2.86-1.27-2.4-1.78-3.1-4.05-1.67-5.07-.16-5.75,1.38-6.15-.27-2.02-1.75-1.05-.59.05-12.55,2.4-2.56,1.4-1.19,2.67-.08,7.64,1.19,6.94,2.56,6.37,3.78,5.45,5.26,4.75,6.42,3.45,7.18,2,7.99.65ZM1318.16,1037.46l-.24.78.7.4h.03l1.43-.27h0l13.23-3.27,13.01-4.45,12.77-5.61,12.52-6.83.19-.14.3-.86-.49-.76-8.69-5.18-8.64-4.53-8.64-3.89-8.61-3.27-.35-.08-1.4.49-.51,1.38.16,6.56-.65,6.07-1.51,5.59-2.35,5.16h0l-2.32,3.59-2.83,3.32-7.1,5.8ZM1275.73,1040.49l-6.88-4.24-5.43-5.4h0l-3.67-5.78-2.48-6.69-1.38-7.58-.22-8.5-.03-.4-.94-1.27-1.59-.08-8.23,3.99-7.94,4.7-7.67,5.43-7.34,6.15-.86,1.35-.11,1.62,1.3,4.24,2,3.7,1.21,1.19,1.57.59,48.29,8.23.65-.27.05-.67h0l-.3-.3ZM1219.34,1030.93l-2.38-5.43-.22-.32-1.24-.62-1.24.62-6.15,7.94-.35,1.84,1.3,1.32.67.11,4.75-.67,3.94-1.7,1.03-1.35-.11-1.73Z"/><path class="cls-3" d="M1268.09,1142.51l-.3.92-.65.78-.97.05h0l-.08-.03-19.54-9.8-18.06-11.23-16.63-12.66-15.14-14.06-7.72-8.39-7.29-8.8-5.83-8.37-4.48-8.56-3.19-8.75-1.84-8.88h0l-.54-8.31.57-8.42,1.7-8.58,2.78-8.75,1.16-1.32,1.73-.22.3.08.16.05,1,.94-.03,1.38-2.51,6.37-1.75,6.21-1.03,6.34-.32,6.21.76,8.72,2.19,8.93,3.56,8.72,4.99,8.8,6.48,8.93,7.88,8.99,9.37,9.2,11.55,10.04,7.77,6.18,10.23,7.31,10.63,6.77,11.04,6.24,11.44,5.67.59,1.27Z"/><path class="cls-3" d="M934.34,1142.43l.59-1.27,11.5-5.72,11.09-6.26,10.66-6.8,10.26-7.34h0l7.8-6.21,11.58-10.07,9.39-9.23,7.94-9.04,6.48-8.99,5.02-8.83,3.56-8.77,2.21-8.93.76-8.77-.32-6.21-1.05-6.37-1.75-6.26-2.54-6.37-.03-1.4,1.03-.94.13-.05.3-.08,1.75.24,1.16,1.32,2.81,8.75,1.7,8.64.57,8.48-.51,8.31h0l-1.86,8.93-3.18,8.77-4.51,8.58-5.86,8.39-7.29,8.85-7.77,8.42h0l-15.2,14.14-16.65,12.69-18.14,11.28-19.62,9.85-.05.03-1-.05-.65-.78-.3-.92Z"/><path class="cls-3" d="M1067.16,1272.45l-.16-.38.3-.59.7-.03,9.04,4.8,8.21,3.32,7.72,1.97,7.4.73,7.77-.51,8.21-1.89,11.9-4.29,9.29-4.67,4.97-4.26,7.23-8.1,2.32-3.16,2.62-4.97,1.78-5.26,1.03-5.88.19-6.07-.57-6.59-1.38-7.1-2.13-7.07-2.86-7.26-2.05-3.48-2.81-2.94-3.4-2.24-3.83-1.4-10.42-2.02-10.42-1.4-10.42-.76-10.39-.11h0l-13.79.86-13.79,2-6.88,2.16-5.56,3.67-4.29,5.37-2.83,6.96-2.73,13.68-.49,6.5.11,5.94.7,5.45,1.32,5.32,1.89,4.8,2.54,4.53,4.37,5.43,5.18,6.15.19.62-.59.97-1.13-.08-4.89-3.94-4.1-4.43-4.1-6.15-2.97-6.69-1.94-7.45-.84-7.75.3-8.31,1.38-8.29,2.51-8.34,3.54-7.96,1.65-2.54,2.11-2.19,5.78-3.75,8.07-2.92,10.04-1.94,12.44-1.27,12.28-.35,12.15.59,11.96,1.51h0l11.53,2.4,5.29,1.86,4.21,2.65,3.1,3.05,2.81,4.16,2.35,5.02,2.32,6.67,2.13,8.1,1.13,7.53.11,6.96-.92,6.37-1.35,4.56-1.92,4.48-5.32,8.45-3.27,3.7-3.64,3.29-3.78,2.67-4.02,2.16-5.07,3.16-6.34,3.91-.08.05-5.83,2.4-5.83,1.73-5.83,1.05-5.86.4h0l-5.64-.22-5.7-.86-5.67-1.46-5.7-2.11-7.15-3.86-5.45-4.86Z"/><path class="cls-3" d="M1044.09,1307.78l-4.97.54-5.53-.81-8.31-2.67-7.18-3.59-6.37-4.62-5.24-5.4-4.78-7.26-3.24-7.99-1.86-8.91-.35-9.31,1.19-9.88,2.65-9.82,4.08-9.55,5.4-8.99,1.57-1.11,1.94.11.35.13,1.05,1.13-.16,1.51-.08.16-5.07,8.66-3.72,9.07-2.35,9.56-.81,9.53.7,9.07,2.21,8.56,3.64,7.58,5.13,6.69,5.83,5.07,7.07,4.05,7.88,2.78,9.04,1.59,1.05.4.67.89.13,1.13-.49,1.03h0l-1.08.65Z"/><path class="cls-3" d="M1158.23,1307.49l-1.05-.67-.43-1.03.13-1.11.7-.86,1.05-.38,8.96-1.32,7.85-2.51,7.1-3.81,5.91-4.83,5.24-6.48,3.81-7.4,2.46-8.39.94-8.93-.57-9.42-2.05-9.5-3.4-9.07-4.78-8.69-.08-.13-.11-1.51,1.08-1.08.35-.13,1.89-.05,1.54,1.13,5.07,9.04,3.75,9.53,2.35,9.77.89,9.8-.62,9.18-2.08,8.75-3.43,7.8-4.91,7.02-5.32,5.18-6.42,4.4-7.18,3.32-8.29,2.43-5.48.62-4.89-.65Z"/><path class="cls-3" d="M1101.5,1308.62l5.37-.35,5.4-1.08,5.48-1.78,5.53-2.54,1.13-1.05.46-1.43.38-3.54.67-2,1.32-2.32,1.32-1.62,2.7-2.02,9.56-5.32,7.96-3.51,7.48-2.27,6.96-1.05,6.48.16,2.86.7,2.7,1.4,1.75,1.7.92,2.13.03.11-.08,2.78-1.05,2.54-1.86,2-2.43,1.16-5.97,1.11-6.29.27-6.61-.59-6.96-1.4-2.05-.16-4.64.67-3.89,1.27-3.13,1.81-2.38,2.4-1.73,3.16-.84,3.83-.62,1.75-1.43,1.24-6.8,3.1-6.34,2.21-5.94,1.32-5.45.43-5.48-.49-5.88-1.35-6.34-2.27-6.8-3.16-1.4-1.24-.62-1.75-.81-3.83-1.67-3.18h0l-2.38-2.4-3.13-1.84-3.86-1.27-4.64-.73-2.05.14-6.96,1.38-6.64.54-6.29-.32-5.94-1.13-2.43-1.19-1.84-2-1.05-2.56-.05-2.78v-.11l.94-2.13,1.78-1.67,2.7-1.4,2.86-.67,6.48-.11,6.96,1.11,7.45,2.32,7.96,3.56,9.5,5.37,2.7,2.05,1.3,1.62,1.32,2.35.65,2,.35,3.54.46,1.43,1.13,1.05,5.51,2.56,5.45,1.86,5.43,1.11,5.37.38ZM1030.5,1283.92l.29,1.14,1.25,1.17,4.48,1.72,4.8.12,1.6-.6.71-.94-.29-1.14-1.25-1.17-4.48-1.72-4.8-.12-1.6.6-.71.94ZM1172.51,1284.5l-.65-1.24-1.29-.89-1.73-.41-1.9.14-1.79.66-1.4,1.09-.8,1.35-.08,1.4.65,1.24,1.29.89,1.73.41,1.9-.14,1.79-.66,1.4-1.09.8-1.35.08-1.4ZM1154.43,1286.76l2.92.11.32-.84-.51-.73-.38-.08-1.03.05-1.4.32-.4.46.19.57.3.13Z"/><path class="cls-3" d="M1101.04,1384.76l6.24-.67,5.61-2.02,4.4-3.1,3.1-4.26,1.46-5.37-.4-5.86-7.1-29.93.11-1.35,1-.94.11-.05.11-.03,1.3.05.86,1.03,3.51,12.66,2.48,10.8,1.38,8.93.35,7.07-.05.89-.78,3.02-1.54,2.78-2.4,2.7-3,2.32-3.99,2.24-4.26,1.67-4.45,1.11-4.02.38-4.05-.38-4.43-1.13-4.26-1.7-3.99-2.27-2.97-2.32-2.38-2.73-1.54-2.75-.78-3.05-.05-.89.38-7.07,1.43-8.93,2.51-10.77,3.59-12.66.84-1,1.32-.08.11.05.11.05.97.92.11,1.38-7.21,29.91-.43,5.83,1.43,5.4,3.08,4.26,4.37,3.16,5.64,2.02,6.21.7Z"/><path class="cls-3" d="M1101.17,1498.45l-14.36-.27-13.47-.86-12.61-1.46-11.88-2.02-11.55-2.73-10.88-3.32-10.5-3.97-10.36-4.78-5.67-3-19.06-11.69-22.75-15.9-2.62-1.11-.16-.03-2.67-.08-2.75.54-1.4.11-1.3-.49-1-.97-.51-1.3-.05-.4.22-3.21,1-2.02.08-.08,1.84-.7,2.86.38,3.64.89,2.59-.46,17.79-9.64,24.18-14.2,20.86-12.17,16.14-7.67,7.34-2.67,7.02-1.92,6.64-1.19,5.99-.4,5.59.35,5.34,1.19,8.07,2.78,10.53,3.45,7.72,1.05,7.72-1.08,10.5-3.45,8.07-2.83,5.32-1.19,5.59-.35,6.02.38,6.64,1.16,7.02,1.92,7.34,2.65,16.17,7.61,20.89,12.12,24.21,14.14,17.81,9.58,2.59.46,3.64-.89,2.86-.38,1.84.7.08.05,1,2.02.24,3.21-.05.4-.51,1.3-1,.97-1.3.49-1.4-.08-2.75-.54-2.67.08-.16.03-2.62,1.11-22.73,15.98-19,11.71-5.67,3.02-10.34,4.8-10.5,3.99-10.88,3.35-11.53,2.75-11.9,2.05-12.58,1.48-13.5.89-14.36.32ZM971.75,1440.2l9.12-.3,30.04-5.21,25.08-3.83,15.28-1.27,13.98.65,13.85,2.4,11.96,2.19,9.04.94,7.91-.05,7.18-1.13,12.25-2.51,12.07-1.4,9.23-.38,9.42.22,10.04.86,10.53,1.48,42.35,6.53,9.1.38.4-.78-.22-.19-39.7-23.46-18.81-10.18-8.64-3.81-8.12-2.97-7.34-2-6.56-1.05-6.07-.11-5.02.84-18.19,6.1-5.64,1.43-4.94.35-5.32-.46-5.88-1.3-7.8-2.4-13.82-3.83-4.59-.32-5.16.49-5.91,1.24-6.77,2.02-15.47,6.37-16.41,8.69-42.67,24.75-.03.92.27.08ZM1232.89,1446.25l-10.66-.54-11.74-1.24-26.8-4.62-15.22-2.51-14.25-.86-8.91.24-9.07.86-20.27,3.72-7.37,1.21-6.15.27-6.32-.32-15.52-2.81-8.61-1.78-13.44-1.57-10.5-.11-11.15.84-12.5,1.75-18.68,3.4-2.46.46-19.06,2.92-17.33,1.16-.46.73.16.19,20.05,13.52,20.16,11.34,14.01,6.23,15.17,5.13,16.22,3.94,17.19,2.7,17.84,1.46,18.44.19,18.98-1.05,19.06-2.32,15.79-3.13,15.01-4.4,14.17-5.67,13.39-6.94,17.63-10.85,13.79-9.72.4-.92-.57-.81-.43-.11Z"/><path class="cls-3" d="M1101.74,1534.29l10.63.38,10.99,1.08,11.31,1.78,11.66,2.51,1.86.73,1.43,1.13.35.59-.35,1.27-1.27.38-12.2-2.62-11.82-1.89-11.47-1.11-11.12-.38-11.12.35-11.47,1.13-11.85,1.86-12.17,2.62-1.3-.38-.32-1.3.35-.59,1.43-1.11,1.86-.73,11.66-2.51,11.31-1.78,10.99-1.08,10.63-.35Z"/><path class="cls-3" d="M982.28,1690.63h.05c1.04,0,1.89.85,1.89,1.89v157.68c0,1.04-.85,1.89-1.89,1.89h-.05c-1.04,0-1.89-.85-1.89-1.89v-157.68c0-1.04.85-1.89,1.89-1.89Z" transform="translate(-458.97 348.21) rotate(-16.35)"/><rect class="cls-3" x="1138.96" y="1769.63" width="160.28" height="4.05" rx="1.84" ry="1.84" transform="translate(-822.26 2448.28) rotate(-73.81)"/></svg>