<?xml version="1.0" encoding="UTF-8"?><svg id="_Слой_1" xmlns="http://www.w3.org/2000/svg" xmlns:xlink="http://www.w3.org/1999/xlink" viewBox="0 0 2200 5500"><defs><style>.cls-1{fill:url(#Super_Soft_Black_Vignette-101);}.cls-1,.cls-2,.cls-3,.cls-4,.cls-5,.cls-6,.cls-7,.cls-8,.cls-9,.cls-10,.cls-11,.cls-12,.cls-13,.cls-14,.cls-15,.cls-16,.cls-17,.cls-18,.cls-19,.cls-20,.cls-21,.cls-22,.cls-23,.cls-24,.cls-25,.cls-26,.cls-27,.cls-28,.cls-29,.cls-30,.cls-31,.cls-32,.cls-33,.cls-34,.cls-35,.cls-36,.cls-37,.cls-38,.cls-39,.cls-40,.cls-41,.cls-42,.cls-43,.cls-44,.cls-45,.cls-46,.cls-47,.cls-48,.cls-49,.cls-50,.cls-51,.cls-52,.cls-53,.cls-54,.cls-55,.cls-56,.cls-57,.cls-58,.cls-59,.cls-60,.cls-61,.cls-62,.cls-63,.cls-64,.cls-65,.cls-66,.cls-67,.cls-68,.cls-69,.cls-70,.cls-71,.cls-72,.cls-73,.cls-74,.cls-75,.cls-76,.cls-77,.cls-78,.cls-79,.cls-80,.cls-81,.cls-82,.cls-83,.cls-84,.cls-85,.cls-86,.cls-87,.cls-88,.cls-89,.cls-90,.cls-91,.cls-92,.cls-93,.cls-94,.cls-95,.cls-96,.cls-97,.cls-98,.cls-99,.cls-100,.cls-101{stroke:#010101;stroke-miterlimit:10;stroke-width:3px;}.cls-2{fill:url(#Super_Soft_Black_Vignette-100);}.cls-3{fill:url(#Super_Soft_Black_Vignette-36);}.cls-4{fill:url(#Super_Soft_Black_Vignette-31);}.cls-5{fill:url(#Super_Soft_Black_Vignette-54);}.cls-6{fill:url(#Super_Soft_Black_Vignette-51);}.cls-7{fill:url(#Super_Soft_Black_Vignette-34);}.cls-8{fill:url(#Super_Soft_Black_Vignette-40);}.cls-9{fill:url(#Super_Soft_Black_Vignette-33);}.cls-10{fill:url(#Super_Soft_Black_Vignette-60);}.cls-11{fill:url(#Super_Soft_Black_Vignette-61);}.cls-12{fill:url(#Super_Soft_Black_Vignette-64);}.cls-13{fill:url(#Super_Soft_Black_Vignette-30);}.cls-14{fill:url(#Super_Soft_Black_Vignette-62);}.cls-15{fill:url(#Super_Soft_Black_Vignette-67);}.cls-16{fill:url(#Super_Soft_Black_Vignette-72);}.cls-17{fill:url(#Super_Soft_Black_Vignette-73);}.cls-18{fill:url(#Super_Soft_Black_Vignette-76);}.cls-19{fill:url(#Super_Soft_Black_Vignette-74);}.cls-20{fill:url(#Super_Soft_Black_Vignette-77);}.cls-21{fill:url(#Super_Soft_Black_Vignette-75);}.cls-22{fill:url(#Super_Soft_Black_Vignette-49);}.cls-23{fill:url(#Super_Soft_Black_Vignette-92);}.cls-24{fill:url(#Super_Soft_Black_Vignette-95);}.cls-25{fill:url(#Super_Soft_Black_Vignette-97);}.cls-26{fill:url(#Super_Soft_Black_Vignette-94);}.cls-27{fill:url(#Super_Soft_Black_Vignette-96);}.cls-28{fill:url(#Super_Soft_Black_Vignette-99);}.cls-29{fill:url(#Super_Soft_Black_Vignette-91);}.cls-30{fill:url(#Super_Soft_Black_Vignette-98);}.cls-31{fill:url(#Super_Soft_Black_Vignette-90);}.cls-32{fill:url(#Super_Soft_Black_Vignette-78);}.cls-33{fill:url(#Super_Soft_Black_Vignette-79);}.cls-34{fill:url(#Super_Soft_Black_Vignette-70);}.cls-35{fill:url(#Super_Soft_Black_Vignette-71);}.cls-36{fill:url(#Super_Soft_Black_Vignette-93);}.cls-37{fill:url(#Super_Soft_Black_Vignette-41);}.cls-38{fill:url(#Super_Soft_Black_Vignette-46);}.cls-39{fill:url(#Super_Soft_Black_Vignette-44);}.cls-40{fill:url(#Super_Soft_Black_Vignette-83);}.cls-41{fill:url(#Super_Soft_Black_Vignette-50);}.cls-42{fill:url(#Super_Soft_Black_Vignette-87);}.cls-43{fill:url(#Super_Soft_Black_Vignette-81);}.cls-44{fill:url(#Super_Soft_Black_Vignette-82);}.cls-45{fill:url(#Super_Soft_Black_Vignette-52);}.cls-46{fill:url(#Super_Soft_Black_Vignette-55);}.cls-47{fill:url(#Super_Soft_Black_Vignette-84);}.cls-48{fill:url(#Super_Soft_Black_Vignette-57);}.cls-49{fill:url(#Super_Soft_Black_Vignette-56);}.cls-50{fill:url(#Super_Soft_Black_Vignette-88);}.cls-51{fill:url(#Super_Soft_Black_Vignette-86);}.cls-52{fill:url(#Super_Soft_Black_Vignette-89);}.cls-53{fill:url(#Super_Soft_Black_Vignette-80);}.cls-54{fill:url(#Super_Soft_Black_Vignette-85);}.cls-55{fill:url(#Super_Soft_Black_Vignette-35);}.cls-56{fill:url(#Super_Soft_Black_Vignette-38);}.cls-57{fill:url(#Super_Soft_Black_Vignette-32);}.cls-58{fill:url(#Super_Soft_Black_Vignette-37);}.cls-59{fill:url(#Super_Soft_Black_Vignette-39);}.cls-60{fill:url(#Super_Soft_Black_Vignette-68);}.cls-61{fill:url(#Super_Soft_Black_Vignette-65);}.cls-62{fill:url(#Super_Soft_Black_Vignette-63);}.cls-63{fill:url(#Super_Soft_Black_Vignette-66);}.cls-64{fill:url(#Super_Soft_Black_Vignette-69);}.cls-65{fill:url(#Super_Soft_Black_Vignette-58);}.cls-66{fill:url(#Super_Soft_Black_Vignette-59);}.cls-67{fill:url(#Super_Soft_Black_Vignette-53);}.cls-68{fill:url(#Super_Soft_Black_Vignette-48);}.cls-69{fill:url(#Super_Soft_Black_Vignette-10);}.cls-70{fill:url(#Super_Soft_Black_Vignette-11);}.cls-71{fill:url(#Super_Soft_Black_Vignette-43);}.cls-72{fill:url(#Super_Soft_Black_Vignette-47);}.cls-73{fill:url(#Super_Soft_Black_Vignette-45);}.cls-74{fill:url(#Super_Soft_Black_Vignette-42);}.cls-75{fill:url(#Super_Soft_Black_Vignette-17);}.cls-76{fill:url(#Super_Soft_Black_Vignette-18);}.cls-77{fill:url(#Super_Soft_Black_Vignette-19);}.cls-78{fill:url(#Super_Soft_Black_Vignette-16);}.cls-79{fill:url(#Super_Soft_Black_Vignette-15);}.cls-80{fill:url(#Super_Soft_Black_Vignette-13);}.cls-81{fill:url(#Super_Soft_Black_Vignette-12);}.cls-82{fill:url(#Super_Soft_Black_Vignette-14);}.cls-83{fill:url(#Super_Soft_Black_Vignette-28);}.cls-84{fill:url(#Super_Soft_Black_Vignette-22);}.cls-85{fill:url(#Super_Soft_Black_Vignette-23);}.cls-86{fill:url(#Super_Soft_Black_Vignette-29);}.cls-87{fill:url(#Super_Soft_Black_Vignette-26);}.cls-88{fill:url(#Super_Soft_Black_Vignette-27);}.cls-89{fill:url(#Super_Soft_Black_Vignette-24);}.cls-90{fill:url(#Super_Soft_Black_Vignette-25);}.cls-91{fill:url(#Super_Soft_Black_Vignette-20);}.cls-92{fill:url(#Super_Soft_Black_Vignette-21);}.cls-93{fill:url(#Super_Soft_Black_Vignette);}.cls-102{fill:#020303;}.cls-94{fill:url(#Super_Soft_Black_Vignette-8);}.cls-95{fill:url(#Super_Soft_Black_Vignette-5);}.cls-96{fill:url(#Super_Soft_Black_Vignette-2);}.cls-97{fill:url(#Super_Soft_Black_Vignette-9);}.cls-98{fill:url(#Super_Soft_Black_Vignette-4);}.cls-99{fill:url(#Super_Soft_Black_Vignette-7);}.cls-100{fill:url(#Super_Soft_Black_Vignette-3);}.cls-101{fill:url(#Super_Soft_Black_Vignette-6);}</style><radialGradient id="Super_Soft_Black_Vignette" cx="1576.78" cy="769.99" fx="1576.78" fy="769.99" r="52.4" gradientUnits="userSpaceOnUse"><stop offset=".57" stop-color="#161413"/><stop offset=".8" stop-color="#161413"/><stop offset="1" stop-color="#161413"/></radialGradient><radialGradient id="Super_Soft_Black_Vignette-2" cx="1316.83" cy="761.37" fx="1316.83" fy="761.37" r="47.86" xlink:href="#Super_Soft_Black_Vignette"/><radialGradient id="Super_Soft_Black_Vignette-3" cx="1581.51" cy="848.23" fx="1581.51" fy="848.23" r="84.49" xlink:href="#Super_Soft_Black_Vignette"/><radialGradient id="Super_Soft_Black_Vignette-4" cx="1302.22" cy="733.64" fx="1302.22" fy="733.64" r="76.97" xlink:href="#Super_Soft_Black_Vignette"/><radialGradient id="Super_Soft_Black_Vignette-5" cx="899.63" cy="733.78" fx="899.63" fy="733.78" r="77.12" xlink:href="#Super_Soft_Black_Vignette"/><radialGradient id="Super_Soft_Black_Vignette-6" cx="1453.51" cy="689.74" fx="1453.51" fy="689.74" r="13.21" xlink:href="#Super_Soft_Black_Vignette"/><radialGradient id="Super_Soft_Black_Vignette-7" cx="1439.39" cy="735.17" fx="1439.39" fy="735.17" r="13.53" xlink:href="#Super_Soft_Black_Vignette"/><radialGradient id="Super_Soft_Black_Vignette-8" cx="1417.42" cy="662.55" fx="1417.42" fy="662.55" r="31.03" xlink:href="#Super_Soft_Black_Vignette"/><radialGradient id="Super_Soft_Black_Vignette-9" cx="901.21" cy="728.43" fx="901.21" fy="728.43" r="14.01" xlink:href="#Super_Soft_Black_Vignette"/><radialGradient id="Super_Soft_Black_Vignette-10" cx="1611.85" cy="764.06" fx="1611.85" fy="764.06" r="37.53" xlink:href="#Super_Soft_Black_Vignette"/><radialGradient id="Super_Soft_Black_Vignette-11" cx="913.42" cy="1532.99" fx="913.42" fy="1532.99" r="61.08" xlink:href="#Super_Soft_Black_Vignette"/><radialGradient id="Super_Soft_Black_Vignette-12" cx="1100" cy="838.5" fx="1100" fy="838.5" r="652.6" xlink:href="#Super_Soft_Black_Vignette"/><radialGradient id="Super_Soft_Black_Vignette-13" cx="1298.9" cy="728.36" fx="1298.9" fy="728.36" r="13.88" xlink:href="#Super_Soft_Black_Vignette"/><radialGradient id="Super_Soft_Black_Vignette-14" cx="1546.36" cy="891.1" fx="1546.36" fy="891.1" r="49.63" xlink:href="#Super_Soft_Black_Vignette"/><radialGradient id="Super_Soft_Black_Vignette-15" cx="1338.24" cy="606.71" fx="1338.24" fy="606.71" r="11.93" xlink:href="#Super_Soft_Black_Vignette"/><radialGradient id="Super_Soft_Black_Vignette-16" cx="927.8" cy="609.48" fx="927.8" fy="609.48" r="1.61" xlink:href="#Super_Soft_Black_Vignette"/><radialGradient id="Super_Soft_Black_Vignette-17" cx="912.3" cy="605.77" fx="912.3" fy="605.77" r="9.95" xlink:href="#Super_Soft_Black_Vignette"/><radialGradient id="Super_Soft_Black_Vignette-18" cx="1053.18" cy="641.14" fx="1053.18" fy="641.14" r="29.58" xlink:href="#Super_Soft_Black_Vignette"/><radialGradient id="Super_Soft_Black_Vignette-19" cx="984.11" cy="639.76" fx="984.11" fy="639.76" r="32.93" xlink:href="#Super_Soft_Black_Vignette"/><radialGradient id="Super_Soft_Black_Vignette-20" cx="1445.62" cy="509.45" fx="1445.62" fy="509.45" r="125.72" xlink:href="#Super_Soft_Black_Vignette"/><radialGradient id="Super_Soft_Black_Vignette-21" cx="769.48" cy="645.15" fx="769.48" fy="645.15" r="24.22" xlink:href="#Super_Soft_Black_Vignette"/><radialGradient id="Super_Soft_Black_Vignette-22" cx="911.45" cy="636.17" fx="911.45" fy="636.17" r="67.99" xlink:href="#Super_Soft_Black_Vignette"/><radialGradient id="Super_Soft_Black_Vignette-23" cx="807.21" cy="614.72" fx="807.21" fy="614.72" r="19.01" xlink:href="#Super_Soft_Black_Vignette"/><radialGradient id="Super_Soft_Black_Vignette-24" cx="1103.74" cy="1228.89" fx="1103.74" fy="1228.89" r="100.69" xlink:href="#Super_Soft_Black_Vignette"/><radialGradient id="Super_Soft_Black_Vignette-25" cx="760.73" cy="489.6" fx="760.73" fy="489.6" r="117.46" xlink:href="#Super_Soft_Black_Vignette"/><radialGradient id="Super_Soft_Black_Vignette-26" cx="1397.41" cy="620.29" fx="1397.41" fy="620.29" r="23.52" xlink:href="#Super_Soft_Black_Vignette"/><radialGradient id="Super_Soft_Black_Vignette-27" cx="1307.75" cy="640.34" fx="1307.75" fy="640.34" r="64.29" xlink:href="#Super_Soft_Black_Vignette"/><radialGradient id="Super_Soft_Black_Vignette-28" cx="1101.24" cy="1176.5" fx="1101.24" fy="1176.5" r="123.18" xlink:href="#Super_Soft_Black_Vignette"/><radialGradient id="Super_Soft_Black_Vignette-29" cx="1102.47" cy="1301.63" fx="1102.47" fy="1301.63" r="89.51" xlink:href="#Super_Soft_Black_Vignette"/><radialGradient id="Super_Soft_Black_Vignette-30" cx="1176.5" cy="648.33" fx="1176.5" fy="648.33" r="16.07" xlink:href="#Super_Soft_Black_Vignette"/><radialGradient id="Super_Soft_Black_Vignette-31" cx="1141.4" cy="816.18" fx="1141.4" fy="816.18" r="41.61" xlink:href="#Super_Soft_Black_Vignette"/><radialGradient id="Super_Soft_Black_Vignette-32" cx="1024.54" cy="646.16" fx="1024.54" fy="646.16" r="16.05" xlink:href="#Super_Soft_Black_Vignette"/><radialGradient id="Super_Soft_Black_Vignette-33" cx="1041.89" cy="709.33" fx="1041.89" fy="709.33" r="23.81" xlink:href="#Super_Soft_Black_Vignette"/><radialGradient id="Super_Soft_Black_Vignette-34" cx="785.58" cy="660.33" fx="785.58" fy="660.33" r="30.01" xlink:href="#Super_Soft_Black_Vignette"/><radialGradient id="Super_Soft_Black_Vignette-35" cx="1148.35" cy="643.88" fx="1148.35" fy="643.88" r="28.72" xlink:href="#Super_Soft_Black_Vignette"/><radialGradient id="Super_Soft_Black_Vignette-36" cx="747.43" cy="690.28" fx="747.43" fy="690.28" r="14.23" xlink:href="#Super_Soft_Black_Vignette"/><radialGradient id="Super_Soft_Black_Vignette-37" cx="1100.79" cy="952.24" fx="1100.79" fy="952.24" r="56.72" xlink:href="#Super_Soft_Black_Vignette"/><radialGradient id="Super_Soft_Black_Vignette-38" cx="1060.77" cy="819.54" fx="1060.77" fy="819.54" r="40.78" xlink:href="#Super_Soft_Black_Vignette"/><radialGradient id="Super_Soft_Black_Vignette-39" cx="1100.16" cy="706.98" fx="1100.16" fy="706.98" r="19.79" xlink:href="#Super_Soft_Black_Vignette"/><radialGradient id="Super_Soft_Black_Vignette-40" cx="862.37" cy="639.68" fx="862.37" fy="639.68" r="26.51" xlink:href="#Super_Soft_Black_Vignette"/><radialGradient id="Super_Soft_Black_Vignette-41" cx="621.14" cy="836.53" fx="621.14" fy="836.53" r="96.92" xlink:href="#Super_Soft_Black_Vignette"/><radialGradient id="Super_Soft_Black_Vignette-42" cx="756.94" cy="732.91" fx="756.94" fy="732.91" r="17.25" xlink:href="#Super_Soft_Black_Vignette"/><radialGradient id="Super_Soft_Black_Vignette-43" cx="653.86" cy="886.13" fx="653.86" fy="886.13" r="52.64" xlink:href="#Super_Soft_Black_Vignette"/><radialGradient id="Super_Soft_Black_Vignette-44" cx="603.73" cy="766.67" fx="603.73" fy="766.67" r="26.48" xlink:href="#Super_Soft_Black_Vignette"/><radialGradient id="Super_Soft_Black_Vignette-45" cx="1445.78" cy="980.77" fx="1445.78" fy="980.77" r="100.84" xlink:href="#Super_Soft_Black_Vignette"/><radialGradient id="Super_Soft_Black_Vignette-46" cx="883.65" cy="760.05" fx="883.65" fy="760.05" r="49.57" xlink:href="#Super_Soft_Black_Vignette"/><radialGradient id="Super_Soft_Black_Vignette-47" cx="1301.34" cy="785.85" fx="1301.34" fy="785.85" r="66.65" xlink:href="#Super_Soft_Black_Vignette"/><radialGradient id="Super_Soft_Black_Vignette-48" cx="900.09" cy="787.23" fx="900.09" fy="787.23" r="64.44" xlink:href="#Super_Soft_Black_Vignette"/><radialGradient id="Super_Soft_Black_Vignette-49" cx="755.58" cy="984.02" fx="755.58" fy="984.02" r="101.99" xlink:href="#Super_Soft_Black_Vignette"/><radialGradient id="Super_Soft_Black_Vignette-50" cx="1050.11" cy="1015.37" fx="1050.11" fy="1015.37" r="23.32" xlink:href="#Super_Soft_Black_Vignette"/><radialGradient id="Super_Soft_Black_Vignette-51" cx="1129.97" cy="1021.59" fx="1129.97" fy="1021.59" r="39.3" xlink:href="#Super_Soft_Black_Vignette"/><radialGradient id="Super_Soft_Black_Vignette-52" cx="1102.32" cy="1090.79" fx="1102.32" fy="1090.79" r="29.31" xlink:href="#Super_Soft_Black_Vignette"/><radialGradient id="Super_Soft_Black_Vignette-53" cx="1015.07" cy="986.21" fx="1015.07" fy="986.21" r="39.7" xlink:href="#Super_Soft_Black_Vignette"/><radialGradient id="Super_Soft_Black_Vignette-54" cx="1186.82" cy="985.31" fx="1186.82" fy="985.31" r="40.32" xlink:href="#Super_Soft_Black_Vignette"/><radialGradient id="Super_Soft_Black_Vignette-55" cx="1007.04" cy="767.52" fx="1007.04" fy="767.52" r="52.9" xlink:href="#Super_Soft_Black_Vignette"/><radialGradient id="Super_Soft_Black_Vignette-56" cx="1196.56" cy="986.46" fx="1196.56" fy="986.46" r="13.4" xlink:href="#Super_Soft_Black_Vignette"/><radialGradient id="Super_Soft_Black_Vignette-57" cx="898.19" cy="710.07" fx="898.19" fy="710.07" r="72.81" xlink:href="#Super_Soft_Black_Vignette"/><radialGradient id="Super_Soft_Black_Vignette-58" cx="1005.53" cy="987.47" fx="1005.53" fy="987.47" r="13.99" xlink:href="#Super_Soft_Black_Vignette"/><radialGradient id="Super_Soft_Black_Vignette-59" cx="1191.72" cy="643" fx="1191.72" fy="643" r="19.95" xlink:href="#Super_Soft_Black_Vignette"/><radialGradient id="Super_Soft_Black_Vignette-60" cx="1219.36" cy="636.7" fx="1219.36" fy="636.7" r="29.51" xlink:href="#Super_Soft_Black_Vignette"/><radialGradient id="Super_Soft_Black_Vignette-61" cx="1098.02" cy="1146.96" fx="1098.02" fy="1146.96" r="103.59" xlink:href="#Super_Soft_Black_Vignette"/><radialGradient id="Super_Soft_Black_Vignette-62" cx="1236.68" cy="625.85" fx="1236.68" fy="625.85" r="1.67" xlink:href="#Super_Soft_Black_Vignette"/><radialGradient id="Super_Soft_Black_Vignette-63" cx="1158.87" cy="710.17" fx="1158.87" fy="710.17" r="23.94" xlink:href="#Super_Soft_Black_Vignette"/><radialGradient id="Super_Soft_Black_Vignette-64" cx="1231.29" cy="629.05" fx="1231.29" fy="629.05" r="2.83" xlink:href="#Super_Soft_Black_Vignette"/><radialGradient id="Super_Soft_Black_Vignette-65" cx="1194.75" cy="768.48" fx="1194.75" fy="768.48" r="57.51" xlink:href="#Super_Soft_Black_Vignette"/><radialGradient id="Super_Soft_Black_Vignette-66" cx="1416.25" cy="645.18" fx="1416.25" fy="645.18" r="17.37" xlink:href="#Super_Soft_Black_Vignette"/><radialGradient id="Super_Soft_Black_Vignette-67" cx="1302.57" cy="709.73" fx="1302.57" fy="709.73" r="73.87" xlink:href="#Super_Soft_Black_Vignette"/><radialGradient id="Super_Soft_Black_Vignette-68" cx="1381.43" cy="2520.92" fx="1381.43" fy="2520.92" r="71.03" xlink:href="#Super_Soft_Black_Vignette"/><radialGradient id="Super_Soft_Black_Vignette-69" cx="1594.05" cy="2814.06" fx="1594.05" fy="2814.06" r="27.01" xlink:href="#Super_Soft_Black_Vignette"/><radialGradient id="Super_Soft_Black_Vignette-70" cx="1573.48" cy="2845.7" fx="1573.48" fy="2845.7" r="16.13" xlink:href="#Super_Soft_Black_Vignette"/><radialGradient id="Super_Soft_Black_Vignette-71" cx="1100.27" cy="2771.05" fx="1100.27" fy="2771.05" r="673.58" xlink:href="#Super_Soft_Black_Vignette"/><radialGradient id="Super_Soft_Black_Vignette-72" cx="1524.7" cy="2882.07" fx="1524.7" fy="2882.07" r="31.25" xlink:href="#Super_Soft_Black_Vignette"/><radialGradient id="Super_Soft_Black_Vignette-73" cx="1419.21" cy="2518.34" fx="1419.21" fy="2518.34" r="21.33" xlink:href="#Super_Soft_Black_Vignette"/><radialGradient id="Super_Soft_Black_Vignette-74" cx="1515.21" cy="2955.49" fx="1515.21" fy="2955.49" r="21.62" xlink:href="#Super_Soft_Black_Vignette"/><radialGradient id="Super_Soft_Black_Vignette-75" cx="1373.96" cy="2528.79" fx="1373.96" fy="2528.79" r="48.63" xlink:href="#Super_Soft_Black_Vignette"/><radialGradient id="Super_Soft_Black_Vignette-76" cx="1174.44" cy="2353.99" fx="1174.44" fy="2353.99" r="98.52" xlink:href="#Super_Soft_Black_Vignette"/><radialGradient id="Super_Soft_Black_Vignette-77" cx="693.43" cy="2747.22" fx="693.43" fy="2747.22" r="165.78" xlink:href="#Super_Soft_Black_Vignette"/><radialGradient id="Super_Soft_Black_Vignette-78" cx="695.05" cy="2718.42" fx="695.05" fy="2718.42" r="119.66" xlink:href="#Super_Soft_Black_Vignette"/><radialGradient id="Super_Soft_Black_Vignette-79" cx="1181.31" cy="2529.14" fx="1181.31" fy="2529.14" r="40.66" xlink:href="#Super_Soft_Black_Vignette"/><radialGradient id="Super_Soft_Black_Vignette-80" cx="1068.91" cy="2818.39" fx="1068.91" fy="2818.39" r="118.25" xlink:href="#Super_Soft_Black_Vignette"/><radialGradient id="Super_Soft_Black_Vignette-81" cx="1394.66" cy="2507.25" fx="1394.66" fy="2507.25" r="21.26" xlink:href="#Super_Soft_Black_Vignette"/><radialGradient id="Super_Soft_Black_Vignette-82" cx="1014.98" cy="3114.38" fx="1014.98" fy="3114.38" r="175.54" xlink:href="#Super_Soft_Black_Vignette"/><radialGradient id="Super_Soft_Black_Vignette-83" cx="646.87" cy="2733.21" fx="646.87" fy="2733.21" r="63.84" xlink:href="#Super_Soft_Black_Vignette"/><radialGradient id="Super_Soft_Black_Vignette-84" cx="1205.52" cy="2606.86" fx="1205.52" fy="2606.86" r="17.46" xlink:href="#Super_Soft_Black_Vignette"/><radialGradient id="Super_Soft_Black_Vignette-85" cx="1309.2" cy="2510.98" fx="1309.2" fy="2510.98" r="32.4" xlink:href="#Super_Soft_Black_Vignette"/><radialGradient id="Super_Soft_Black_Vignette-86" cx="1353.04" cy="2612.73" fx="1353.04" fy="2612.73" r="9.4" xlink:href="#Super_Soft_Black_Vignette"/><radialGradient id="Super_Soft_Black_Vignette-87" cx="1270.25" cy="2528.25" fx="1270.25" fy="2528.25" r="6.29" xlink:href="#Super_Soft_Black_Vignette"/><radialGradient id="Super_Soft_Black_Vignette-88" cx="1471.88" cy="2541.45" fx="1471.88" fy="2541.45" r="21.95" xlink:href="#Super_Soft_Black_Vignette"/><radialGradient id="Super_Soft_Black_Vignette-89" cx="1304.46" cy="2635.06" fx="1304.46" fy="2635.06" r="17.17" xlink:href="#Super_Soft_Black_Vignette"/><radialGradient id="Super_Soft_Black_Vignette-90" cx="1329.87" cy="2623.91" fx="1329.87" fy="2623.91" r="68.96" xlink:href="#Super_Soft_Black_Vignette"/><radialGradient id="Super_Soft_Black_Vignette-91" cx="1457.94" cy="2585.7" fx="1457.94" fy="2585.7" r="11.51" xlink:href="#Super_Soft_Black_Vignette"/><radialGradient id="Super_Soft_Black_Vignette-92" cx="1361.81" cy="2702.32" fx="1361.81" fy="2702.32" r="18.48" xlink:href="#Super_Soft_Black_Vignette"/><radialGradient id="Super_Soft_Black_Vignette-93" cx="1410.79" cy="2628.64" fx="1410.79" fy="2628.64" r="25.85" xlink:href="#Super_Soft_Black_Vignette"/><radialGradient id="Super_Soft_Black_Vignette-94" cx="1444.76" cy="2531.4" fx="1444.76" fy="2531.4" r="16.81" xlink:href="#Super_Soft_Black_Vignette"/><radialGradient id="Super_Soft_Black_Vignette-95" cx="1453.37" cy="2865.33" fx="1453.37" fy="2865.33" r="36.04" xlink:href="#Super_Soft_Black_Vignette"/><radialGradient id="Super_Soft_Black_Vignette-96" cx="1456.77" cy="2872.16" fx="1456.77" fy="2872.16" r="15.69" xlink:href="#Super_Soft_Black_Vignette"/><radialGradient id="Super_Soft_Black_Vignette-97" cx="1466.94" cy="2813.51" fx="1466.94" fy="2813.51" r="18.87" xlink:href="#Super_Soft_Black_Vignette"/><radialGradient id="Super_Soft_Black_Vignette-98" cx="1375.97" cy="2511.98" fx="1375.97" fy="2511.98" r="21.99" xlink:href="#Super_Soft_Black_Vignette"/><radialGradient id="Super_Soft_Black_Vignette-99" cx="1522.1" cy="2694.83" fx="1522.1" fy="2694.83" r="45.67" xlink:href="#Super_Soft_Black_Vignette"/><radialGradient id="Super_Soft_Black_Vignette-100" cx="1469.49" cy="3013.02" fx="1469.49" fy="3013.02" r="50" xlink:href="#Super_Soft_Black_Vignette"/><radialGradient id="Super_Soft_Black_Vignette-101" cx="1392.26" cy="2515.92" fx="1392.26" fy="2515.92" r="20.99" xlink:href="#Super_Soft_Black_Vignette"/></defs><path class="cls-93" d="M1595.79,709.19c-12.47,10.92-18.9,26.65-26.25,41.13-12.16,25.19-27.41,50.4-28.32,79.16.51,1.38,1.51,4.13,2,5.51,2.85-15.58,6.65-31.03,13.54-45.42.8-1.93,1.6-3.85,2.45-5.76,7.25,5.2,16.07,9,25.12,6.22-6.42-2.09-12.98-3.82-18.96-6.98-1.11-.51-3.31-1.56-4.42-2.09,5.89-14.85,13.49-29.01,20.61-43.31,5.76-9.96,10.65-21.54,21.3-27.3,3.02-1.02,6.2-1.53,9.51-1.53-3.56-6.74-12.14-3.36-16.56.36Z"/><path class="cls-96" d="M1249.96,762.35c36.75,11.58,77.59,13.72,114.07-.02,6.96-3,14.43-5.74,19.67-11.43-24.12,11.78-50.95,17.96-77.81,17.56-18.87.49-37.21-4.98-55.93-6.11Z"/><path class="cls-100" d="M1582.56,925.3c19.01-19.67,25.59-48.02,26.61-74.61,1.02-11.05-1.53-22.19,1-33.12l-3.71.6c-.2-6.42-.56-12.89-1.96-19.19-5.58-21.92-9.47-44.28-12.16-66.76h-2.13c-.04,3.02-.07,6.05-.07,9.09.8,29.39,9.67,57.89,13.41,86.97,1.13,23.28-.02,47.13-8.96,68.98-9.51,24.99-35.41,40.39-41.73,66.96,5.38-6.62,8.49-14.74,13.92-21.32,4.98-6.11,10.54-11.72,15.78-17.61Z"/><path class="cls-98" d="M1406.24,747.79c-7.67-7.38-16.74-12.96-25.39-19.05-24.5-17.07-54.18-26.63-84.06-27.12-20.83,1.24-42.17,5.36-59.85,17.1-9.65,5.8-17.25,14.36-26.72,20.43-4.31,3.38-10.14,5.82-12.03,11.38-.22,3.05,1.58,7.43,5.29,6.91,11.25.84,22.3-1.98,33.5-2.31,10.03.62,19.67,3.69,29.48,5.74,18.59,3.96,37.79,6.11,56.78,3.96.49-.31,1.47-.98,1.96-1.31.27-7.69-9.56-2.51-14.09-2.16,2.49-1.78,3.96-4.42,5.25-7.14-18.56,11.16-47.09.96-50.55-21.5-.16-6.51,1.11-12.94,2.85-19.19,5.56-1.85,11.34-3.29,17.25-2.65,14.27,1.33,29.41-2.71,42.97,3.49,2.05,4.29,2.02,9.27,2.51,13.96.04,10-4.87,20.87-14.23,25.32-.31,1.51-.96,4.54-1.27,6.02,16.54-6.87,24.79-26.72,19.79-43.59.98.4,2.98,1.2,3.96,1.6,15.61,6.02,30.32,14.32,44.44,23.3-2.76,1.49-5.49,3-8.25,4.45-15.21,8.18-32.41,11.65-49.4,13.74,3.05,3.33,7.91,5.11,12.36,3.82,17.21-3.51,35.06-8.54,47.93-21.23,6.36,2.33,12.49,6.25,19.52,6.02ZM1202.99,752.7c.69-4.91,5.22-7.18,9.16-9.23,2.05,2.25,4.36,4.25,6.96,5.89-.56-2.82-1.53-5.58-1.53-8.47,1.64-2.11,3.71-3.82,5.65-5.65-2.71,5.67-1.62,11.83.33,17.56-6.85.04-13.72.09-20.56-.11ZM1275.19,757.64c-16.38-2.78-32.57-7.05-49.31-6.91-.09-2.98-.16-5.94-.2-8.89.22-2.76.47-5.51.67-8.27,11.27-8.78,23.81-16.03,37.57-20.07-.82,2.6-1.56,5.25-2.69,7.74-2.33,13.85,3.98,27.12,13.96,36.41Z"/><path class="cls-95" d="M974.52,756.35c9.74.22,19.56,4.16,29.17.69,2.31-11.98-11.87-14.76-18.47-21.41-17.85-16.36-40.13-28.14-64.18-31.88-22.3-4.56-45.48-.02-66.52,7.85-12.98,5.11-25.59,11.4-36.99,19.54-7.67,5.56-16.27,10.18-22.21,17.81,7.09-1.13,13.47-4.49,20.21-6.82,14.32,12.96,33.5,17.94,51.95,21.68,1.36-1.56,2.76-3.07,4.14-4.6-16.9-2.16-33.39-7.65-48.46-15.52-1.27-.69-3.8-2.02-5.09-2.69,13.29-10.96,29.43-17.76,45.37-23.9-.07,3.65-.13,7.29-.13,10.94-.07,13.76,8.49,28.28,21.79,33.04-3.36-.51-6.71-.98-10.05-1.38-1.45,1.58-2.89,3.16-4.29,4.76,20.5,2.29,41.33,1.22,61.56-2.78-3.05-2.25-6.82-2.6-10.4-3.29,11.96-5.82,18.16-20.1,17.23-32.97-.04-3.47-.16-6.94-.22-10.4,15.5,4.62,30.15,12.36,42.06,23.39.09.89.31,2.67.42,3.56-.82,3.89-3.22,7.16-5.18,10.54-15.38-1.29-30.28,2.6-45.35,4.6,1.38,1.4,2.76,2.82,4.16,4.25,13.05-2.38,26.17-5.38,39.5-4.98ZM925.14,750.08c-16.47,17.94-53.09,9.09-56.04-16.34l-.82,1.27c.31-6.69-.98-14.98,4.11-20.14,9.49-4.94,20.61-4.2,30.99-4.07,9.16.09,19.01-1.27,27.48,3.07,2.27,4.4,2.71,9.4,3.78,14.18-.31,8.23-3.29,16.43-9.49,22.03ZM985.54,741.61c4.82,3.69,11.89,5.27,14.27,11.43-6.05,3.67-12.83.29-19.16-.62,1.93-3.47,3.58-7.07,4.89-10.8Z"/><path class="cls-101" d="M1449.86,678.96l-.69-.53-.69-.6c-1.78-.58-5.31-1.73-7.09-2.31,8.25,9.34,17.14,18.12,24.23,28.46-2.69-9.71-9.51-17.41-15.76-25.01Z"/><path class="cls-99" d="M1430.81,741.5c9.6-2.27,19.1-6.14,26.63-12.65-12.09,3.94-23.52,9.83-36.1,12.32,3.16.13,6.27.24,9.47.33Z"/><path class="cls-94" d="M1456.95,681.58c-3.33-6.05-8.85-10.34-14.27-14.36-16.34-11.67-34.81-21.81-55.13-23.7-3.25.56-6.45,1.16-9.67,1.62,17.47,1.71,35.1,6.82,49.2,17.67,2.98,2.27,6.56,3.58,10.03,4.96l-3.78,1.11c3.93,5.02,11.34,3.94,15.16,8.94.36.29,1.04.84,1.38,1.13,1.78.64,5.31,1.98,7.09,2.62Z"/><path class="cls-97" d="M899.09,714.91c-6.62-.42-10.25,6.14-12.12,11.49,1.22,6.4,4,14.89,11.74,15.5,9.4,2.11,17.54-6.65,16.67-15.78-2.07-7.05-8.6-12.76-16.3-11.2ZM908.94,728.91c-7.2,7.16-17.96-5.09-9.14-10.58,5.71-4.36,17.03,6.18,9.14,10.58Z"/><path class="cls-69" d="M1607.5,806.34c-1.09,3.96.11,7.6,2.85,10.54,2.07-12.34,2.65-24.83,4.27-37.21.49-16.94,4.51-33.9,1-50.78-1.38-6.14-.58-16.83-8.96-17.65l1.36,3.87c6.96,19.21,4.73,40.13,2.58,60-.33,10.47-2.13,20.81-3.09,31.23Z"/><path class="cls-70" d="M931.19,1593.28c-16.27-46.91-30.7-94.53-42.04-142.86-.29.84-.84,2.53-1.11,3.38,7.11,34.21,16.41,67.98,27.21,101.24,7,20.45,13.67,41.26,23.54,60.51-1.6-7.74-5.18-14.83-7.6-22.28Z"/><path class="cls-81" d="M1594.79,677.03c-18.12-.2-28.59,16.78-41.19,26.9,14.49-77.56,18.47-157.42,7.47-235.69-10.45-77.39-37.7-153.86-86.5-215.51-60.96-77.92-151.06-129.92-246.43-153.37-41.48-10.56-84.3-14.07-126.96-15.5-71.34.91-143.17,13.49-208.82,42.17-53,23.19-102.42,55.69-142.23,97.91-52.91,54.13-87.83,124.43-103.66,198.14-8.51,36.35-12.25,73.56-14.32,110.73.62,25.85-1.51,51.87,1.87,77.56,1.76,31.66,6.91,63.02,11.72,94.33-8.83-8.56-16.36-19.01-27.7-24.45-6.34-3.62-13.96-3.78-20.96-2.53-12.14,3.11-19.79,14.56-23.21,25.97-7.09,23.19-5.4,47.8-3.47,71.61,3.91,30.43,8.09,60.87,13.61,91.08,5.29,32.57,14.32,64.78,29.41,94.24,8.18,15.34,13.85,31.81,21.12,47.57,7.45,15.92,20.27,30.9,38.17,34.72,11.29,3.51,23.19-1.13,32.35-7.76.6,13.43,3.4,26.63,4.91,39.97,7.16,50.22,11.85,101.93,33.17,148.66,8.71,15.85,5.56,34.66,7.47,51.95,2.13,13.94,1.09,28.1,2.91,42.08,1.51,12.52.42,25.14,1.49,37.7,2.6,36.26,1.47,72.63,1.71,108.95.51,29.59-2.02,59.09-5.78,88.41-1,12.81-4.49,25.41-4.18,38.33,19.32-74.83,15.65-152.79,14.12-229.31-1-13.29-2.16-26.59-1.96-39.9-2.36-26.14-3.62-52.35-6.65-78.43,4.6,6.62,8.05,13.98,13.03,20.36,30.23,42.84,69.54,77.96,107.84,113.33,31.41,28.81,63.67,57.18,99.97,79.74,32.88,20.47,71.83,30.32,110.44,29.57,31.12.09,62.85,2.16,93.21-6.18,33.26-7.83,62.56-26.54,89.21-47.29,37.19-29.1,70.83-62.34,104.6-95.26,25.63-25.83,51.22-52.13,70.94-82.9,2.09-3.49,3.98-7.07,5.91-10.63-2.25,13.16-2.02,26.54-3.47,39.79-.24,17.18-3.16,34.17-2.93,51.4-2.93,25.83-1.53,51.91-2.93,77.85-.44,60.2.82,121.11,15.72,179.78.09-17.21-4.69-33.97-5.6-51.13-6.65-57.6-4.85-115.73-4.14-173.6,2.2-22.81,1.18-45.75,3.85-68.49-.07-17.96,2.36-35.77,2.91-53.69.33-11.94,7.51-21.85,11.38-32.77,12.34-30.01,17.94-62.18,22.74-94.1,3.38-28.17,8.2-56.2,10.43-84.48,6.42,4.56,13.43,8.85,21.52,9.31,13.94.53,27.86-5.89,36.66-16.7,14.78-16.67,18.41-39.46,28.59-58.71,12.58-24.05,22.39-49.58,28.5-76.03.76-3.2,1.89-6.29,3.38-9.25-2.47.11-4.89.24-7.31.36-2.05,17.67-8.45,34.48-14.67,51.02-5.98,16.23-15.56,30.83-21.63,47.02-5.22,12.87-9.18,26.57-17.76,37.73-11,17.92-38.44,25.59-54.67,10.25-.13-4.16.67-8.27,1.16-12.36,7.09-62.69,22.59-124.07,28.94-186.85.27-16.25,1.67-32.48,1.29-48.75.24-16.9-1.4-33.81-.36-50.71-2.11,8.54-1.27,17.36-1.76,26.05-.73,17.07-1.62,34.12-1.49,51.22-2.87,50.78-14.54,100.46-23.19,150.44-9.54,54.78-16.3,109.98-23.74,165.09-6.18,40.91-15.09,82.57-37.04,118.25-8.74,18.03-21.34,33.72-34.44,48.73-26.77,30.01-56.04,57.64-85.06,85.48-30.28,27.74-60.85,55.69-96.04,77.19-21.21,12.83-45.04,20.96-69.54,24.52-35.46,4.62-71.43,4.09-106.93.31-23.5-3.42-46.51-10.76-67.12-22.63-31.63-18.23-59.82-41.75-87.08-65.89-30.63-27.88-61.65-55.47-89.9-85.81-22.05-23.16-42.42-48.51-55.58-77.9-27.26-57.56-29.54-122.27-39.26-184.16-6.74-50.84-16.14-101.26-25.83-151.59-4.67-28.59-11.14-57.2-10.58-86.35-.04-25.17-4.02-50.24-3.22-75.41-.58,2.05-1.18,4.09-1.76,6.14.6,3.02,1.29,6.07,1.27,9.18-.18,23.68-.96,47.37.22,71.05,1.6,36.61,9.74,72.47,15.3,108.58,5.6,31.61,12.27,63.11,15.56,95.08.56,3.82,1.16,7.63,1.73,11.47-6.14,3.93-12.74,7.98-20.39,7.43-15.92,1.69-29.97-9.2-37.95-22.08-8.94-13.05-13.34-28.39-20.05-42.55-7.47-15.5-15.23-30.9-21.25-47.04-12.54-36.57-17.87-75.03-23.25-113.16-2.56-16.16-4.58-32.39-6.16-48.66.27-22.72-3.09-46.93,8.05-67.83,4.78-10.89,18.3-17.67,29.61-12.98,15.61,5.54,24.9,20.19,36.06,31.46,5.05,4.76,5.85,11.98,7.89,18.25-8.98-44.11-15.47-88.81-17.72-133.79-3.16-33.24-1.16-66.69,1.29-99.88,2.96-31.17,7.85-62.25,15.9-92.53,16.72-65.63,48.91-127.94,96.04-176.91,40.79-43.66,91.64-77.43,146.64-100.51,55.04-23.39,114.45-35.75,174.05-39.02,61.45-2.82,123.58,3.67,182.38,22.16,89.59,26.86,172.02,81.39,226.65,157.93,19.23,27.5,35.37,57.27,47.02,88.77,26.65,69.29,35.37,144.35,33.52,218.2-.24,50.78-8.2,101.08-17.5,150.88,1.96-5.54,3-11.94,7.98-15.72,11.03-9.67,20.05-22.19,33.52-28.72,10.54-5.22,24.57-1.16,30.26,9.25,11.32,18.58,9.98,41.08,9.74,61.98-3.13,43.2-11.63,85.79-17.83,128.61,1.51-.67,4.56-2.02,6.07-2.69,5.22-39.77,12.85-79.34,16.43-119.36,1.25-21.41,2.02-43.82-6.27-64.07-4.65-11.72-15.96-22.63-29.48-20.63Z"/><path class="cls-80" d="M1304.78,715.93c-3.96-1.2-8.18-.84-12.25-1.13-4.71,4.02-8.56,9.09-7.71,15.67.53,4.94,4.71,8.07,7.91,11.4,3.56-.04,7.11-.02,10.69.04,6.2-3.89,9.87-10.67,9.67-18.03-2.69-2.73-4.89-6.11-8.31-7.96ZM1301.05,730.31c-4,.69-10.83,1.82-11.05-4.11.07-1.58.18-4.71.24-6.27,4.34-2.6,8.94-2.67,13.23.09-.36,3.42,1.16,8.14-2.42,10.29Z"/><path class="cls-82" d="M1515.11,944.38c.22,5.09,4.71,12.07,10.49,8.65,6.38-6.85,6.49-17.16,11.87-24.72,3.56-6.05,10.76-7.74,16.92-9.96,9.65-2.67,15.21-12.18,18.74-20.88,7.38-22.48,4.85-46.86-1.65-69.21,3.27,24.79,7.18,52.47-6.25,75.05-5.05,10.18-17.23,11.27-26.43,15.65-9.65,7.56-11.18,20.27-17.01,30.32-4.87-14.12,5.51-26.28,14.01-36.26,9.11-10.92,17.83-25.03,13.45-39.82-4.14-14.09-8.49-28.14-11.49-42.55-.62.64-1.85,1.89-2.45,2.51-.56,15.36,6.62,29.28,9.2,44.11,2.31,12.96-5.69,24.45-13.85,33.64-8.36,9.18-15.94,20.54-15.56,33.46Z"/><path class="cls-79" d="M1321.74,604.35c5.8,4.27,12.34-.2,18.65.22-1.82,1.11-3.67,2.13-5.49,3.22.78.62,2.33,1.84,3.11,2.45,3.74-1.85,7.76-1.42,11.63-.27-.93-.98-2.78-2.93-3.69-3.91,2.89-.47,5.82-.91,8.78-1.36-10.83-2-22.14-1.98-32.99-.36Z"/><path class="cls-78" d="M926.17,608.6c.82,6.98,6.94-3.4,0,0h0Z"/><path class="cls-75" d="M898.73,602.11c8.54,4.05,17.98,5.38,27.14,7.36l-1.89-2.73c-8.07-2.93-16.63-4.96-25.25-4.62Z"/><path class="cls-76" d="M1048.5,664.51c-4.65,4.91-10.67,8.31-15.03,13.54,18.61-6.07,30.08-24.72,35.46-42.59,2.56-10.14,6.05-20.92,2.36-31.21.82,6.51.8,13.21-1.4,19.5-4.58,14.63-10.14,29.83-21.39,40.77Z"/><path class="cls-77" d="M1010.44,645.95c-8.4-15.94-24.23-25.61-40.35-32.35-6.91,5.85-14.52-5.25-22.5-2.2,9.38,4.45,19.59,7.51,27.79,14.12,11.56,9.11,22.32,20.12,27.41,34.24.67-7.03-3.42-13.18-7.65-18.39-7-8.16-14.96-15.54-23.94-21.47-.27-.64-.78-1.91-1.02-2.56,20.74,6.47,39.39,24.05,44.37,45.8,1.04-.67,3.11-2,4.13-2.67.6,2.73,1.24,5.47,1.93,8.2-.04-18.83-5.76-40.3-22.05-51.49,9.54,12.85,18.39,26.99,19.32,43.48-5.65-2.78-4.13-10.18-7.45-14.72Z"/><path class="cls-91" d="M1425.21,541.35c-4.96,32.48,3,65.76,17.07,95.04,3.18,7.18,8.54,13.41,10.09,21.28-9.25-5.02-14.45-14.78-23.48-20.05,5.31,10.05,13.85,17.87,22.28,25.34,7.11,6.36,10.83,15.34,16.34,22.94-2.69-11.43-10.94-20.54-14.09-31.86-13.27-28.37-26.17-58.11-26.45-90.01.13-30.12,8.14-59.42,13.83-88.81,4.34-19.81,7.05-39.9,9.78-60,2.58-27.41,1.4-55.18-3.89-82.21,2,18.39,4.2,36.77,4.25,55.29-1.65,12.52-1.51,25.21-3.98,37.64-5.22,38.84-16.7,76.54-21.74,115.42Z"/><path class="cls-92" d="M759.88,655.68c1.53.22,3.05.47,4.58.71,7.36-9.83,19.23-14.45,30.66-17.65-1.18-.62-3.56-1.82-4.76-2.45-9.65,1.93-17.23,8.34-25.25,13.54,5.89-12.6,21.68-15.87,28.83-27.41-1.36.6-4.11,1.78-5.49,2.38-12.65,6-20.32,18.01-30.48,27.08-5.02,5.02-11.14,9.29-14.12,15.98,6.22-2.8,11.18-7.51,16.03-12.18Z"/><path class="cls-84" d="M956.42,657.71c-6.71-6.82-14.41-12.67-22.7-17.47-21.88-12.38-45.55-21.99-70.47-25.99-11.74-2.69-23.83-1.93-35.61-.07,29.92-.98,59.62,6.69,86.59,19.36,14.85,6.94,29.79,14.76,41.79,26.05-7.23-1.22-15.41-1.4-20.76-7.09-33.86-21.1-74.16-32.12-114.09-29.75,34.32,1.65,68.72,8.45,99.71,23.74,5.27,2.85,11.52,4.2,15.78,8.63-36.48-3.8-72.18-14.96-109.09-14.85,7.09,2.76,14.85,1.89,22.23,3.2,15.18,3.02,30.17,7.18,45.46,9.74,35.44,5.56,70.41,15.25,106.46,16.05-8.49-1.78-16.96-3.8-25.1-6.82-7.71-9.36-15.58-18.92-25.81-25.63-15.52-10.32-32.37-18.74-50.06-24.59l-1.85-2.09c21.45,2.49,42.91,8.2,61.94,18.65,10.56,5.85,18.3,15.32,26.81,23.63-3.58-8.43-11.94-13.23-17.34-20.32,1.98.47,5.98,1.38,7.96,1.85-.87-.96-2.58-2.87-3.45-3.82-13.03-8.58-26.74-16.63-42.13-19.99.89,1.38,2.67,4.14,3.56,5.51-.98-.91-2.91-2.76-3.89-3.67-17.34-.8-33.86-7.89-51.29-8.27-12.49-.22-25.25-1.87-37.53,1.29,18.1,2.07,36.33,2.62,54.49,3.56l-.04,2.67c-3.45.02-6.87.09-10.27.16,15.47,2.05,29.63,9.09,43.31,16.27,16.58,8.98,32.75,19.99,43.95,35.41-6.2-1.09-14.05-.04-18.56-5.36Z"/><path class="cls-85" d="M802.87,617.91l-4.31-1.11c1.16-.33,3.49-1.02,4.65-1.38,8.56-5.96,18.85-8.6,28.92-10.76-18.25-.47-37.28,6.25-49.84,19.76,1.56.09,4.62.29,6.16.38l-1.29-2.67c4.87-3.53,11.4.87,15.72-4.22Z"/><path class="cls-89" d="M1243.71,1202.77c-14.81,9.4-28.77,20.23-44.75,27.66-30.81,15.14-65.83,19.07-99.77,18.16-32.52.87-65.63-4.22-95.15-18.41-14.34-6.4-26.97-15.83-40.28-23.92,6.11,8.09,14.85,13.69,23.23,19.23,18.72,12.18,39.99,19.94,61.71,24.79,33.5,5.82,67.94,6.49,101.53.87,35.08-6.07,68.63-22.74,93.48-48.37Z"/><path class="cls-90" d="M745.87,655.04c11.74-16.5,19.7-35.61,25.19-55.09,7.58-27.03,4.51-55.58-.84-82.7-7.76-39.04-16.81-77.92-20.52-117.62-.53-25.28.44-50.8,6.45-75.47-14.27,50.91-6.69,104.57,3.4,155.51,6.42,34.17,16.7,68.74,11.76,103.82-3.27,25.48-15.54,48.26-25.43,71.56Z"/><path class="cls-87" d="M1368.01,604.73c6.49,2.65,13.25,4.58,20.01,6.49-.29.62-.91,1.89-1.2,2.51,16.21,1.73,24.37,18.94,39.99,22.12-2.89-2.71-5.85-5.38-8.4-8.38,1.25-.02,3.78-.02,5.05-.02-14.94-14.01-34.95-22.36-55.44-22.72ZM1416.63,625.94c-2.33,1.31-6.87-1.22-5.98-4,2.33-1.18,6.85,1.13,5.98,4Z"/><path class="cls-88" d="M1243.76,655.91c-3.29,2.69-6.67,5.69-11.05,6.34-4.02,1.38-9.52.87-11.72,5.29,30.12-3.09,59.56-10.74,89.57-14.74,19.12-4.49,38.3-9.09,58.07-9.49-21.39-3.6-42.51,3.02-63.6,5.49l-.29-2.25c15.94-2.51,31.35-7.43,47.13-10.63,14.27-1.96,28.06-8.29,42.64-6.29-4.2-1.31-8.51-2.18-12.83-2.96-3.22-2.29-7.36-2.2-11.03-2.87.82-1.07,2.51-3.2,3.36-4.27-1.91,1.04-3.8,2.11-5.67,3.18-37.84-1.93-74.87,12.83-106.38,32.84-5.89,2.85-12.58,3.4-19.03,3.78,35.9-27.43,80.37-43.75,125.58-45.24-26.83-3.78-53.55,4.42-78.19,14.36-16.92,6.51-32.68,15.83-46.57,27.46ZM1351.51,624.74c9.38-2.36,18.99.07,28.3,1.62l1.36,2.56c-28.66,4.07-58.58,6.78-84.52,20.63-9.96,2.42-20.05,4.54-30.28,5.42,25.92-15.54,55.31-25.41,85.14-30.23Z"/><path class="cls-83" d="M1261.39,1186.36c4.51-.98,9.2,3.02,13.43.51,1.25-4.76-2.38-8.43-4.89-11.89-3.36,2.07-6.6,4.51-10.38,5.71-26.94,4.6-52.93-6.94-78.94-12.14-17.9-4.34-37.28-5.27-54.6,1.91-16.21,7.07-35.3,6.58-51.38-.6-24.28-10.4-50.73-1.51-75.07,3.82-17.81,4.31-36.06,10.58-54.6,7.4-4-.64-7.4-2.93-10.49-5.4-5.45,1.18-7.36,6.38-7,11.4,5.18-.51,10.36-2.49,15.54-.69,10.96,2.8,22.43,1.33,33.39-.8,23.74-5.29,47.11-13.49,71.56-14.78,16.52-1.36,30.48,9.63,46.66,10.78,22.56,3.85,42.13-13.36,64.69-10.58,24.19,3.18,47.57,10.54,71.41,15.58,10.16,2.16,20.5,1.07,30.68-.24Z"/><path class="cls-86" d="M1055.08,1288.91c-27.46,5.98-53.04,17.87-77.94,30.55,28.86-11.09,57.49-24.32,88.48-28.37,25.12-3.47,50.75-3.49,75.85.04,30.28,3.96,58.6,15.94,86.32,28.12-24.59-14.92-51.8-25.45-80.01-31.12-30.46-5.98-62.38-5.8-92.7.78Z"/><path class="cls-13" d="M1175.98,670.56c-.84-6.65-2.69-13.27-1.82-20.01.71-8.56,4.51-16.36,7.07-24.45-10.29,11.65-12.36,30.7-5.25,44.46Z"/><path class="cls-4" d="M1145.5,830.66c-1.58-24.5-5.29-48.75-7.47-73.18-2.93,24.57,3.11,48.84,3.65,73.32,1.04,14.69.44,29.39.49,44.08,2.05-14.65,3.82-29.41,3.33-44.22Z"/><path class="cls-57" d="M1026.25,646.26c1.58,7.25.8,14.67.44,22.01,6.8-14.74.82-31.32-7.27-44.22,1.18,7.74,5.51,14.52,6.82,22.21Z"/><path class="cls-9" d="M1024.87,682.85c8.94,12.38,20.45,23.19,26.54,37.5,2.98,5.74,3.58,12.78,8.2,17.61-1.53-23.61-18.47-42.44-35.46-57.27l.71,2.16Z"/><path class="cls-7" d="M802.16,649.13c7.31-2.22,15.34-1.71,22.34-5-19.25-3.56-36.73,6.83-53.78,14.03.22.67.64,2.05.84,2.71-10.2.73-17.83,9.6-24.92,16.27,1.38.02,4.09.09,5.47.11,5.2-4.8,11.03-8.94,17.47-11.96,10.65-5.74,20.85-12.67,32.57-16.16Z"/><path class="cls-55" d="M1156.48,668.87c-17.38-15.01-25.37-38.24-27.66-60.51-1.22,18.07,4.4,36.48,14.69,51.29,6.31,8.4,14.12,16.81,24.52,19.76-3.33-4.05-7.6-7.14-11.56-10.54Z"/><path class="cls-3" d="M758.43,677.03l1.62-2.42c-2.65.87-5.29,1.76-7.94,2.65-2.51,3.16-5.18,6.18-7.83,9.23-4.89,5.47-7.98,12.34-9.49,19.47,5.78-11.18,14.05-20.87,23.63-28.92Z"/><path class="cls-58" d="M1083.34,1001.6c-13.85-1.71-24.01-12.69-30.5-24.25-3.27-6.22-7.47-12.52-7.2-19.83-.27-20.81,12.6-39.22,12.49-60-3.62,21.1-17.07,40.1-15.92,62.07,2.49,15.14,10.8,30.52,24.41,38.3,1.76.76,3.56,1.47,5.38,2.18,17.52,8.67,38.95,9.65,56.38.16,16.34-6.14,25.52-22.59,30.7-38.3,2.73-22.83-11.25-42.95-17.18-64.2,2.16,18.32,10.63,35.01,13.89,53.07,1.87,8.47-2.73,16.47-6.2,23.88-4.69,8.2-9.47,17.38-18.21,21.9-14.83,7.2-32.08,9.58-48.04,5.05Z"/><path class="cls-56" d="M1064.31,762.01c-1.69,4.87-1.65,10.07-2.05,15.16-1.76,23.83-7.2,47.53-5.07,71.54.89,9.45.16,19.1,2.56,28.34-.38-10.98-.27-21.99-.2-32.97.2-27.46,7.2-54.55,4.76-82.08Z"/><path class="cls-59" d="M1072.33,710.06c9-.33,17.61-3.73,26.68-3.49,9.83-.4,19.14,3.62,28.97,3.4-17.7-7.51-38.15-8.67-55.64.09Z"/><path class="cls-8" d="M899.36,645.26c-13.65-2.51-26.17-9.85-40.26-10.12-4.22-.22-8.45-.56-12.63-1.22-7-.67-14.05-.4-21.08-.22,16.81,4.2,34.52,3.09,51.15,8.31,7.45,1.6,15.09,5.34,22.81,3.25Z"/><path class="cls-37" d="M590.26,819.79c2.51,17.63-.13,35.61,3.33,53.15,2.85,15.56,7.36,31.21,16.63,44.28,6.4,10.4,16.67,17.41,24.32,26.74,6.22,7.34,9.29,16.61,14.52,24.57-2.87-27.46-30.75-40.79-40.97-64.63-13.52-30.32-14.58-65.2-7.29-97.24-1.53-1.42-3.05-2.85-4.58-4.22-.93,3.65-1.91,7.31-3.13,10.89-.71-20.45-4.18-40.66-4.31-61.18-1.76-14.92,6.4-29.99.11-44.35,12.85.67,20.07,13.03,25.68,23.05,8.43,16.74,17.74,33.12,24.81,50.49l-2.25,1.2c-6.27,3.69-13.41,5.29-20.28,7.38,8.07,3.47,17.47-.16,23.45-6.02.27.51.8,1.51,1.04,2.02,8.43,14.65,11.09,31.52,16.7,47.24-.16-5.91-.47-11.8-1.13-17.67-.84-9.07-4.67-17.47-7.91-25.85-11.05-24.72-22.36-49.51-36.95-72.38-4.45-7.63-12.43-12.56-21.3-12.74-1.53,2.76-4.71,5.16-4.27,8.63,1.07,10.36-2.4,20.43-2.22,30.77.16,25.41,2.91,50.69,6,75.87Z"/><path class="cls-74" d="M735.02,722.22c12,10.14,25.9,19.43,41.84,21.39l2-.56c-9.92-4.56-20.45-7.78-29.97-13.18-4.56-2.69-9.14-5.34-13.87-7.65Z"/><path class="cls-71" d="M662.46,818.86c-.53,11.54-2,23.1-5.74,34.08-3.11,11.47-8.56,23.14-6.22,35.28,2.02,11.85,10.29,21.1,18.12,29.66,7.29,7.87,16.54,20.23,9.94,30.95-5.22-10.89-8.85-23.61-19.65-30.48-9.14-3.76-20.14-6.4-24.72-16.23-12.49-23.28-8.47-50.91-5.82-76.05-6.27,17.74-7.65,37.06-5.31,55.69,1.16,10.87,5.14,21.72,12.49,29.97,6.58,7.91,18.67,6.8,25.52,14.36,6.36,7,8.14,16.56,12.61,24.63,1.53,4.07,6.42,2.22,9.65,2.51,4.47-8.67,2.22-18.85-2.38-26.94-6.69-13.58-21.68-22.01-25.01-37.35-2.87-9.76,1.36-19.45,3.98-28.72,4.25-13.27,6.58-27.72,2.56-41.35Z"/><path class="cls-39" d="M597.01,799.07c1.47,1.49,2.98,2.96,4.51,4.45,3.11-20.16,7.6-40.22,8.91-60.6-.04-4.42-.62-8.8-1.62-13.09-1.73,8.85-2.69,17.85-4.42,26.72-1.82,14.27-4.34,28.46-7.38,42.53Z"/><path class="cls-73" d="M1473.36,947.24c18.85-27.81,34.26-58.45,40.86-91.59-4.29,9.83-5.58,20.67-10.07,30.46-17.27,41.71-46.06,76.9-71.09,114-21.96,33.28-41.26,68.56-55.71,105.77,10.2-23.56,22.16-46.35,35.21-68.45,18.59-31.17,40.37-60.25,60.8-90.19Z"/><path class="cls-38" d="M843.98,760.84c-10.25-3.02-19.56-8.38-29.5-12.14,13.67,10.14,29.86,16.9,46.62,19.76,30.5,6.36,61.85,1.47,91.73-5.69-12.29-2.05-24.14,3.36-36.35,3.98-24.23,3.8-49.09.96-72.5-5.91Z"/><path class="cls-72" d="M1332.37,800.12c23.23-1.85,46.64-11.45,62-29.41-4.51,2.58-8.6,5.8-12.87,8.69-25.17,16.9-57.24,20.87-86.68,15.94-22.08-2.87-42.42-12.43-63.69-18.34-7.43-1.51-15.43-4.05-22.83-1.11,14.85-1.76,28.57,5.07,42.02,10.27,25.85,10.47,54.02,17.34,82.05,13.96Z"/><path class="cls-68" d="M942.55,789.74c15.38-5.8,30.55-14.23,47.53-13.36-22.03-3.02-41.79,9.94-62.58,14.85-39.06,11.89-84.97,8.05-117.4-18.39,12.38,15.43,31.99,23.08,50.98,26.5,27.39,5.62,55.69.18,81.48-9.6Z"/><path class="cls-22" d="M686.09,857.63c4.29,16.21,10.49,31.83,16.56,47.44,9,21.45,22.21,40.82,35.59,59.71,33.46,45.6,65.16,93.17,86.81,145.64-1.76-7.14-5.02-13.72-8.16-20.32-10.09-22.39-21.34-44.31-34.06-65.34-21.63-36.95-50.26-69.27-71.27-106.6-10.89-19.1-17.9-40.02-25.48-60.53Z"/><path class="cls-41" d="M1065.98,1012.76c-9.47-7.47-21.03-14.94-33.66-12.98-4.85.67-9.67,3.98-11.09,8.83,2.22,8.23,13.94,14.41,21.41,8.98-4.62-3.91-14.92-2.53-14.98-10.96,13.23-2.8,25.3,4.4,35.73,11.6,5.6,3.91,9.16,10.29,15.63,13.05-.71-8.07-7.38-13.54-13.03-18.52Z"/><path class="cls-6" d="M1167.91,999.42c-13.09-.91-24.12,7.56-33.24,15.94-3.91,4-9.07,7.58-10.18,13.43-.47,3.09-1.93,6.2-5.36,6.8-13.05,4.56-27.72,3.29-40.06-2.73,8.11,13.03,27.41,13.34,40.13,7.16,7.09-2.38,7.49-11.16,13.14-15.18,12.12-9.87,25.81-21.85,42.77-18.3-1.6,8.71-11.83,8.16-17.43,12.85,8.91,2,20.83-.91,23.19-10.89-1.67-5.51-6.91-10.12-12.96-9.07Z"/><path class="cls-45" d="M1089.21,1118.36c14.94,8.89,37.81-1.22,40.79-18.45-1.29-14.03-6.56-27.37-12.6-39.97,2.56,15.32,10.72,29.88,8.31,45.82-6.54,6.47-14.54,13.18-24.41,12.05-9.18-.58-20.25-5.34-23.54-14.52.13-14.89,7.85-28.39,9.4-43.06-5.36,14.27-12.2,28.59-12.52,44.08,1.89,6.91,8.65,10.92,14.56,14.05Z"/><path class="cls-67" d="M994.88,963.65c-4.02,16.03-5.87,33.72,1.8,49.02,6.67,16.52,25.34,23.9,42.06,24.45-.58-.87-1.73-2.58-2.31-3.42-12.94-3.91-27.37-9.07-33.84-22.01-10.18-19.52-4.6-42.33,2.49-61.87,1.85-4.96,4.2-9.69,6.36-14.52-9.27,6.31-12.83,18.23-16.56,28.34Z"/><path class="cls-5" d="M1162.79,1037.01c14.05.18,29.12-4.34,37.93-15.87,10.49-14.45,11.52-33.37,8.96-50.46-4.14-13.05-9-26.32-18.34-36.64-.62-.11-1.87-.33-2.49-.44,3.11,5.47,6.02,11.07,8.34,16.96,6.69,16.21,9.78,34.44,5.87,51.73-2.65,11.92-11.32,22.5-22.92,26.63-5.89,2.4-12.92,3.07-17.34,8.09Z"/><path class="cls-46" d="M970.52,832.8c27.3-18.36,45.44-46.51,65.56-71.87,2.27-2.6,4.89-4.8,7.49-7.05-2.42.71-4.89,1.31-7.31,1.96,6.74-21.08-9.45-40.3-23.94-53.6,10.65,16.52,29.01,34.24,21.25,55.69-11.6,17.12-23.3,34.26-37.44,49.42-7.34,9.65-17.45,16.58-25.61,25.45Z"/><path class="cls-49" d="M1200.12,968.07c-.71,6.94-1.04,13.92-2.22,20.83-1.11,5.07-3.89,9.49-5.94,14.23l1.18,1.71c8.58-10.25,9.07-24.19,6.98-36.77Z"/><path class="cls-48" d="M947.93,693.39c-26.34-8.87-55.02-8.98-81.88-2.36-16.05,4.96-31.92,11.2-45.71,20.99-8.03,5.82-16.78,11.2-22.36,19.61,17.81-10.16,33.81-24.03,53.93-29.79,29.9-10.87,63.43-12.67,93.9-3.09,20.63,6.38,34.92,23.61,52.58,35.04-4.74-9.14-14.89-13.72-20.94-21.92,3.49.91,7.02,1.87,10.52,2.78-11.58-9.89-25.54-16.74-40.04-21.25Z"/><path class="cls-65" d="M1002.42,968.21c-2.33,12.96-2.85,28.21,6.8,38.53l.84-1.56c-1.69-4.69-4.11-9.09-5.27-13.92-1.11-7.67-1.45-15.41-2.38-23.05Z"/><path class="cls-66" d="M1179.87,668.49c2.36-9.67,3.4-19.87,8.47-28.66,4.05-8.16,10.29-14.87,15.47-22.32-16.14,11.03-25.88,31.37-23.94,50.98Z"/><path class="cls-10" d="M1186.2,662.04c4.38-14.63,13.89-27.37,26.9-35.44,11.8-8.16,26.19-10.45,39.42-15.25-12.69-.07-25.32,3.8-36.55,9.6-14.65,8.8-29.39,22.83-29.77,41.08Z"/><path class="cls-11" d="M957.71,1174.11c26.65-12.34,49.75-31.08,76.25-43.71,9.23-3.98,19.03-7.89,29.23-7.58,11.56,3.13,21.9,10.18,34.04,11.4,17.25,2,31.68-11.16,48.35-11.96,34.68,9.18,62.58,33.19,94.1,49.17l2.25-.29c-20.21-14.67-41.24-28.34-63.16-40.33-12.21-6.4-25.59-12.92-39.77-10.87-16.87,1.93-33.01,14.96-50.31,7.58-15.09-5.98-32.26-10.52-48.06-4.38-31.57,12.05-57.33,34.75-86.52,51.2.91-.07,2.71-.18,3.6-.24Z"/><path class="cls-14" d="M1238.64,625.27l-1.56-.73c-.6.64-1.78,1.96-2.38,2.62.93-.02,2.82-.09,3.76-.13l.18-1.76Z"/><path class="cls-62" d="M1140.65,738.72c3.25-.04,3.11-4.09,4.42-6.14,4.69-15.25,14.09-28.5,24.52-40.37,2.85-3.25,5.34-6.82,7.49-10.58-18.41,13.69-32.81,34.17-36.44,57.09Z"/><path class="cls-12" d="M1227.84,630.43c2.69,1.47,7.23.49,6.87-3.27-2.8-.42-6.11.02-6.87,3.27Z"/><path class="cls-61" d="M1169.71,763.75c-4.74-8.58-5.18-19.14-1.11-28.06,4.69-13.32,14.83-23.5,21.63-35.66-15.21,14.58-30.57,34.3-26.32,56.76-4.22-3.76-8.54-7.4-13.07-10.76.44,1.16,1.33,3.47,1.76,4.62,20.34,18.32,34.3,42.37,53.82,61.51,9.89,9.25,19.3,19.76,32.26,24.77-6.51-4.25-12.98-8.65-18.59-14.05-18.81-17.9-35.24-38.1-50.38-59.13Z"/><path class="cls-63" d="M1437.99,656.6c-3.33-7.8-9.23-14.67-16.52-18.99-8.65-2.85-17.85-4.29-26.97-3.73,8.67,2.85,16.98,6.65,25.3,10.4-.69-1.33-2.09-3.98-2.8-5.29,8.71,3.73,12.6,13.41,20.99,17.61Z"/><path class="cls-15" d="M1200.81,732.8l2.36.58c14.72-10.87,27.88-24.34,44.77-31.95,21.41-9.85,45.6-9.74,68.58-7.6,29.1,3.36,56.47,16.05,79.39,34.01,2.78,1.56,5.58,3.11,8.43,4.62-17.25-20.67-42.51-33.1-67.76-41.17-30.06-7.83-62.96-7.36-91.77,4.91-14.09,6.4-28.23,13.78-38.77,25.43,4.31-2.69,8.74-5.18,13.49-7.02-5.54,6.76-12.69,11.89-18.72,18.18Z"/><path class="cls-60" d="M1380.24,2481.47c-15.38-3.05-31.15-3.31-46.77-2.6-9.29.22-17.18,5.38-25.65,8.43-6.34,2.58-12.89,5.4-17.45,10.69,6.96-1.29,12.29-6.29,18.9-8.51,3.74-.49,7.54-.29,11.36-.33-1.73-.4-5.2-1.2-6.91-1.58,12.63-10.63,29.68-4.4,44.53-5.27,21.43,3.09,45.57.69,63.65,14.92,14.63,9.8,17.32,28.7,19.72,44.8,3.09-10.89-1.51-21.83-5.85-31.66-2.6-6.69-9.14-10.34-12.98-16.12,13.36,3.58,30.5,7.71,35.1,22.68,1.51,14.21-4.29,28.54-11.74,40.39,4.2,1.42.71,3.89-.6,6,21.39-7.74,32.17-34.17,24.5-55.16-.16,7.45.25,14.98-1.31,22.34-1.13,3.27-.87,8.58-5.58,8.91,2.8-11.76,3.67-23.74,2.56-35.79-.38,7.91-.25,15.85-.89,23.74l-3.67.09c1.96-10.52.33-22.52-8.27-29.79.98,3.29,1.98,6.58,3,9.89-6.25-3.98-10.94-10.34-18.3-12.38-18.56-6.42-37.48-13.14-57.33-13.69Z"/><path class="cls-64" d="M1614.09,2846.57c-4.16-6.51-11.03-10.6-15.58-16.78-11.83-14.01-17.34-31.72-24.5-48.24,5,25.17,16.05,52.67,40.08,65.03Z"/><path class="cls-34" d="M1551,2841.77c12.74,9.45,30.21,9.31,44.95,5.2-8.89-.93-17.83.91-26.65-.58-6.27-.93-12.18-3.18-18.3-4.62Z"/><path class="cls-35" d="M1593.24,2768.4c-25.81-34.37-43.15-74.1-67.85-109.18-10.32-15.45-23.59-28.57-34.46-43.55,7.58-2.33,14.65-6.67,17.83-14.27-7.78,2-15.56,4.38-23.65,4.31-3.51-12.34.22-27.54,11.27-34.9,9.96-10.12,18.03-24.17,16.01-38.86-.62-.49-1.85-1.45-2.45-1.93-2.18-15.16-2-30.77-6.25-45.62-5.6-19.96-13.23-39.3-20.41-58.73-11.36-30.28-18.52-61.87-27.06-92.99-11.4-41.68-27.41-82.3-50.2-119.14-30.48-50.35-72.83-93.33-122.25-125.25-49.51-33.26-105.8-54.64-163.02-70.38-68.54-18.87-138.97-31.19-209.79-36.88-46.57-3.85-93.44-2.47-139.88,2.18-69,6.89-138.12,22.76-199.75,55.47,8.29-2.49,15.7-7.07,23.79-10.07,65-26.08,134.81-39.53,204.59-43,47.73-4.2,95.73-1.22,143.32,3.11,80.08,9.89,159.68,26.37,235.83,53.38,60.96,21.7,117.89,55.38,164.69,100.22,37.5,37.64,67.69,82.65,87.46,132.03,15.69,37.39,24.59,77.05,35.41,115.98,8.78,32.17,22.94,62.51,31.97,94.59,4.71,19.07,8.4,39.28,3.07,58.65-.44-3.93-.98-7.87-1.67-11.74-2.62,7.4-.82,15.69-4.31,22.85-5.67,14.87-18.65,27.79-17.23,44.71,4.05,18.19,18.32,31.52,29.7,45.46,32.28,39.02,51.44,86.61,81.37,127.25,10.94,15.96,24.88,30.37,31.41,48.93,4.54,12.49,3.69,26.77-2.47,38.55-7.89,17.38-24.03,30.19-42.31,35.15-16.1,5.47-36.99,4.02-46.86,20.54-9.63,17.36-12.25,39.57-5.42,58.36,2.62,8.63,13.27,13.72,11.92,23.52-1.91,12.12-7.14,23.92-15.67,32.86-6.65,6.11-15.01,11.29-24.23,11.6-6.65-1.53-11.6-7.83-18.87-7.54-21.83-.69-41.86,10.07-63.02,13.81-13.03,2.22-28.34,6.27-39.62-2.98-2.71,3.67-8.65,9.56-2.93,13.61,2.67-1.62,5.4-4.56,8.91-3.29,16.92,2.85,34.06-1.13,50.35-5.56,13.49-3.98,26.99-9.43,41.19-9.78,8.56,1.82,16.21,6.47,24.03,10.23,16.29,11.27,22.63,34.86,14.67,52.87-3.25,1.38-6.51,3.2-10.14,2.87-18.61-.51-36.97-5-53.91-12.67-12.76-4.69-24.21-12.74-37.48-15.9,18.9,12.36,39.37,22.92,61.09,29.39,8.11,1.85,16.5,2.27,24.79,3.31-6.51,5.94-14.14,10.83-19.21,18.18-3.89,5.36-6.34,11.56-8.96,17.61-8.2-.04-16.34,1.47-23.92,4.58-2.73,1.04-5.07,2.85-7.4,4.51,10.4-1.07,20.23-5.54,30.9-4.87,4.25,24.48,17.52,46.77,18.76,71.87,1.56,23.08-3.96,46.73-16.34,66.32-11.54,19.34-30.7,33.9-52.49,39.68-17.58,4.4-35.95,6.22-53.98,3.89-30.5-2.4-60.56-8.38-90.55-14.16-31.75-6.78-63.8-11.89-95.7-17.92-21.99-3.4-44.02-7.29-66.29-8.09.04.49.13,1.45.18,1.93,28.23,2.69,55.93,9.25,83.92,13.72-9.11,2.29-18.52,3.53-27.28,7.05-22.63,8.8-42.39,25.97-52.46,48.29-13.67,29.19-9.78,62.98-21.74,92.75-5.82,17.92-17.52,32.88-27.7,48.44-11.92,17.96-19.67,38.44-23.72,59.56.51-.04,1.56-.13,2.09-.16,3.2-14.47,9.71-27.97,16.25-41.19,10.96-20.81,27.83-38.15,36.48-60.27,12.47-28.26,10.34-60.07,20.12-89.04,7.2-21.79,24.1-39.55,44.44-49.69,21.76-11.23,47.53-12.74,71.18-7.6,28.08,5.31,56.07,11.23,84.21,16.18,24.19,4.38,48.75,7.4,73.38,6.18,25.17-.53,50.73-9.47,68.85-27.34,29.43-29.57,40.15-75.76,27.52-115.42-3.85-15.81-12.52-30.43-14.03-46.69,4.05-17.54,19.12-31.01,35.28-37.86,7.23-2.87,11.63-10.27,12.03-17.87,2.36-17.43-5.89-34.77-18.83-46.11,23.81-4.74,38.84-28.61,40.64-51.58-.33-9.8-9.85-15.63-12.65-24.54-5.87-16.5-3.09-35.39,4.29-50.93,5.2-10.63,17.36-13.56,28.03-15.36,15.81-3,32.15-7.2,44.46-18.16,15.63-12.92,26.12-33.04,24.5-53.55-3.49-25.1-21.88-43.95-35.79-63.89ZM1506.09,2541.4c1.16,9.29-5.22,17.14-10.09,24.41,3.38-8.14,6.78-16.25,10.09-24.41Z"/><path class="cls-16" d="M1520.5,2880.65c1.38,3.42,5.45,3.8,8.49,4.98,12.38,4.11,27.48,4.36,37.99-4.4.02-1.53.04-4.6.07-6.16-3.49-2.2-7.02-4.65-11.25-4.87-20.47-2.45-41.91.93-59.85,11.38-5.38,3.29-11.65,6.58-13.61,13.12,8.09-.27,13.81-7.34,21.39-9.63,17.83-7.05,38.19-13.47,57.16-7.2-10.76,10.83-27.32,4.29-40.39,2.78Z"/><path class="cls-17" d="M1423.39,2509.24c8.03,9.63,10.23,22.56,11.2,34.7,1.31-8,.31-16.23-2.38-23.85-4.02-13.45-16.78-21.85-28.92-27.34-.02,1.09-.04,3.25-.04,4.33l3.38-1.51c6.11,3.85,11.76,8.45,16.76,13.67Z"/><path class="cls-19" d="M1507.03,2954.94c-.09,11.76,5.14,24.85,16.36,30.01-2.85-7.05-9.2-12.09-11.34-19.5-2.91-13.23.18-26.57,3.22-39.44-5.11,8.78-7.67,18.83-8.25,28.92Z"/><path class="cls-21" d="M1319.6,2519.77c14.43,1.13,28.74,3.33,42.44,8.16,20.27,4.47,38.44,14.98,57.42,23.01,5.78,2.25,10.87,5.91,15.01,10.56-.78-2.13-1.47-4.27-2.09-6.4-3.16-14.83-4.22-31.06-14.05-43.37-3.8-6.14-11.05-8.78-15.07-14.65-.64.18-1.93.56-2.6.73,6.91,5.94,14.98,11.12,19.07,19.63,5.58,11.14,9,23.5,10.8,35.81-14.27-7.74-28.43-15.72-43.71-21.32-.38-1.27-1.09-3.8-1.45-5.05-5.82-7.34-13.29-13.12-20.72-18.72-9.67-7.2-22.08-8-33.26-11.43-5.98-1.8-12.09.53-17.94,1.62,23.08-3.53,45.51,7.76,62.4,22.68,2.73,2.98,7.74,4.67,8.65,8.94-9.83-2.02-19.3-6.4-29.1-8.96-11.92.49-25.01-8.34-35.81-1.24Z"/><path class="cls-18" d="M1239.12,2477.02c.91-17.63,1.51-35.55-2.11-52.93-7.47-39.95-27.74-76.3-51.73-108.62-22.5-30.68-48.44-58.65-76.21-84.52,14.38,16.27,30.97,30.63,44.37,47.86,35.77,42.33,69.18,89.64,80.77,144.86,4.38,17.47,3.49,35.55,4.91,53.35Z"/><path class="cls-20" d="M739.52,2577.26c-19.79-17.96-45.75-31.15-73.05-29.77-21.72-.56-42.39,10.09-57.44,25.21-27.01,28.92-39.46,69.54-38.13,108.62-.71,22.45,4.27,44.66,9.58,66.36,12.69,42.62,32.63,83.9,63.49,116.4,18.1,19.87,40.57,34.9,60.76,52.47,12.78,10.8,25.92,22.03,42.13,27.23,16.67,5.42,36.33,4.51,50.89-6,8.4-5.31,13.09-14.49,16.7-23.43,2.93-13.94,1.69-28.74-2.31-42.37-2.22,5.27-1.09,10.98-.62,16.5,1.2,10.45.13,21.45-4.73,30.92-8.8,19.05-32.7,25.37-51.86,20.96-20.23-4.31-35.84-18.72-51.06-31.75-11-9.85-23.28-18.1-34.24-27.99-24.1-20.61-45.17-45.28-59.33-73.78-16.87-31.32-28.59-65.8-32.21-101.24-5.56-41.11,1.09-85.94,26.74-119.6,14.09-18.7,35.75-32.68,59.6-33.46,28.3-1.49,55.27,12.38,75.23,31.66,9.91,7.18,16.12,18.21,26.01,25.32-6.11-12.54-15.96-22.88-26.12-32.26Z"/><path class="cls-32" d="M706.44,2816.36c11.07-.6,22.63-3.07,33.26,1.51,15.87,5.05,18.94,26.48,35.46,30.3,12.78,2.49,20.94-13.27,15.32-23.79-6.96-11.43-21.23-16.16-27.37-28.3-7.25-12.09-.47-26.14-.49-39.04.11-8.83.76-19.83-7.76-25.25,1.36,8.36,3.49,16.74,2.87,25.3-.47,11.8-6.49,23.48-2.51,35.26,4.09,14.67,18.65,21.72,28.86,31.55,7.31,7.56-.38,23.48-11.34,18.41-12.4-7.38-16.83-24.01-31.08-29.1-15.23-6.51-32.01.51-47.55-3.76-17.34-6.78-29.06-24.68-29.72-43.11-3.05-17.92,1.93-37.08,14.03-50.73,11.07-11.96,28.14-14.21,41.62-22.41,9.56-5.27,17.16-13.25,24.57-21.12-1.89,21.54-10.92,42.64-26.17,58.11-2.76,2.71-5.16,5.74-7.22,9,12.16-4.56,20.21-15.9,26.79-26.57,12.38-21.19,14.58-47.75,5.85-70.67-7.8-19.94-19.41-39.73-37.95-51.4-20.19-13.01-48.02-14.74-68.58-1.62-16.72,9.85-27.28,27.41-32.75,45.62-11.18,36.19-7.02,75.14,2.18,111.27,9.49,39.22,33.5,75.1,67.29,97.44,8.78,5.6,17.7,12,28.23,13.67-11.29-6.74-22.74-13.34-32.77-21.92-17.34-13.83-33.01-30.55-42.77-50.66-17.36-33.41-24.16-71.56-23.41-108.98.22-12.94,1.62-25.94,5.78-38.26,4.4-15.09,11.96-29.97,24.85-39.5,18.39-14.52,45.48-15.69,65.78-4.49,14.45,7.89,25.3,21.12,32.39,35.79,3.18,6.82,7.85,13.54,7.89,21.34-3.8,4.11-8.58,7.14-13.23,10.2-8.65,4.98-18.72,11.23-29.03,7.76-5.8-1.58-8.31-8-8.29-13.49.2-8.83,4.18-16.96,8.34-24.57,3.96-7.29,10.83-12.14,16.3-18.21-5.16,1.65-10.09,4-13.98,7.83-7.65,10.83-15.61,23.23-13.98,37.13.04,9.18,9.07,17.18,18.23,15.98,14.58-.56,28.23-9.38,36.81-20.94,1,5.6,2.07,11.23,2.67,16.92-3.4,2.05-6.51,4.54-9.34,7.31-11.45,10.69-25.88,17.41-40.46,22.7-8.63,4.47-17.01,9.96-22.92,17.83-8.94,11.54-12.07,26.23-13.69,40.44.13,9.03,2.45,17.87,4.62,26.59,8,17.25,24.34,32.81,44.4,32.63Z"/><path class="cls-33" d="M1228.89,2496.85c-7.42,3.42-13.05,9.6-20.07,13.69-25.12,16.7-55.09,27.43-75.1,50.89,19.1-15.63,40.66-27.9,62.36-39.57,11.72-7.14,24.57-13.67,32.81-25.01Z"/><path class="cls-53" d="M922.37,2737.81c16.54,4.67,32.32,11.54,48.46,17.38,35.46,13.41,70.69,27.5,104.71,44.33,51.29,25.74,100.86,56.84,139.9,99.44-3.78-7.49-10.94-12.45-16.34-18.67-25.57-26.25-56.38-46.73-87.95-65-55.44-31.92-116.09-52.95-176-74.63-4.14-1.51-8.45-2.36-12.78-2.85Z"/><path class="cls-43" d="M1411.79,2514.24c-10.69-12.12-24.48-22.41-40.51-25.9,19.1,7.58,34.77,21.32,46.75,37.81-1.36-4.31-3.18-8.56-6.25-11.92Z"/><path class="cls-44" d="M870.53,3115.43c-17.3-26.65-29.79-56.67-35.81-87.88-1.4-6.38-2.8-12.76-4.6-19.01-4.51-15.98-6.02-32.59-9.34-48.82,1,12.96,1.87,26.14,4.51,38.82,4.65,14.76,5.85,30.35,10.07,45.24,4.4,18.59,11.56,36.39,19.92,53.53,16.34,32.92,43.28,59.76,74.27,79.1,27.28,17.27,57.91,28.19,88.3,38.62,53.73,17.38,107.91,33.28,162.31,48.46,9.49,2.51,18.99,6.2,29.01,5.45-6.47-2.38-13-4.67-19.79-5.74-4.78-.62-9.54-1.22-14.07-2.76-24.28-8.11-48.71-15.78-73.23-23.12-48.11-15.67-97.33-28.68-143.5-49.66-34.5-16.52-66.43-40.28-88.06-72.23Z"/><path class="cls-40" d="M631.97,2769.63c5.11,12.69,10.52,25.61,19.56,36.1,4.98,5.67,9.76,12.23,17.05,15.12-22.36-19.23-36.64-47.71-39.17-77.07-3.73-33.04,6.54-65.38,7.58-98.19-7.96,40.46-19.27,83.68-5.02,124.05Z"/><path class="cls-47" d="M1229.05,2613.57c-8.25-2.51-16.61-4.62-24.9-6.96-7.54-1.98-14.52-5.71-22.16-7.2,12,7.58,25.79,12.34,39.73,14.92,2.42-.24,4.87-.49,7.34-.76Z"/><path class="cls-54" d="M1264.11,2518.97c10-1.78,19.3-6.58,29.34-7.94,11.56,3.58,23.76,1.98,35.59,3.85,8.47,1.04,16.63,4.22,25.25,4.2-15.14-7.89-33.06-7.67-49.71-7.16-3.6-.56-9.32.82-10.76-3.58,13.16-2.71,26.61-2.47,39.93-3.54-14.78-3.33-30.63-2.47-44.6,3.6-8.29,3.58-18.12,4.42-25.05,10.56Z"/><path class="cls-51" d="M1351.52,2605.32c-1.67-1.42-3.29-2.82-4.89-4.2-.64,4.4,3.18,5.76,6.51,7.07.16,5.4-.27,10.78-.87,16.16,9.25-2.22,7.67-14.85,5.85-22.03-2.38.67-4.58,1.67-6.6,3Z"/><path class="cls-42" d="M1277.91,2528.44c-2.13-1.58-4.25-3.13-6.34-4.71-4.31,1.65-9.12,3.56-8.98,9.05,5.2-.96,10.27-2.69,15.32-4.33Z"/><path class="cls-50" d="M1487.97,2514.97c-2.29,12.65-5.65,25.65-13.81,35.95-5.07,6.8-12.69,10.92-18.5,17.01,22.1-6.42,33.66-31.28,32.3-52.95Z"/><path class="cls-52" d="M1323.71,2640.18c-14.34-3.51-27.79-9.8-41.84-14.03,12.85,8.03,27.3,12.92,41.57,17.78,2.6.47,6.49-4.85.27-3.76Z"/><path class="cls-31" d="M1279.25,2597.45c24.63-9.98,49.86-20.59,76.61-22.74,8.31-1.58,13.92,5.89,16.03,12.96-31.77-.64-62.65,8.94-92.35,19.25-8.51,3.4-17.67,5.13-25.7,9.67,1.65.16,4.98.47,6.65.62,5,.42,10.47-.64,15.18,1.76,19.96,10.09,40.82,18.76,62.6,24.05-3.6-.24-7.89-1.44-7.29,3.51,10.56,1.4,21.03,3.82,31.75,4.18-2.4,10.94-7.83,24.43-20.36,26.37-19.3,2.16-38.19-4.98-55.38-13.03,6.6,6.51,15.63,9.47,24.17,12.52,12.36,3.76,26.43,7.31,38.66,1.2,10.58-4.65,14.07-17.07,15.7-27.52,3.96,1.67,7.98,3.18,12.16,4.36-3.33-7.56-10.32-12.29-17.43-15.87,1.82-3.58,3.71-7.14,5.2-10.89,2.89-7.43,3.82-15.36,3.91-23.28,15.54.82,33.52-5.45,39.53-21.03-10.69,1.98-21.3,4.96-32.26,4.6-1.89-5.11-4.13-10.09-6.76-14.85,4.36-1.76,8.54-3.93,12.47-6.54-2.87.44-5.74.96-8.56,1.4-29.9-.6-59.18,7.96-86.3,19.99-12.27,6.51-25.41,11.49-36.61,19.83,10.2-1.13,19.03-6.71,28.39-10.52ZM1276.45,2615.72c.85-.2,2.56-.6,3.4-.78,2.62-2.02,5.78-3,9-3.65,17.03-3.96,34.04-8.54,51.49-10.07-.56,2.18-1.11,4.38-1.62,6.58-1.78,10.2-.89,20.65,2,30.59-22.39-4.56-43.13-14.36-64.27-22.68ZM1340.61,2645.16c2-3.11,8.87-1.85,12.36-.8-1.85,3.42-9.03,2.07-12.36.8ZM1353.39,2638.46c-6.8,3.78-9.89-4.87-10.6-10.07-.36-7.49-1.89-15.85,2.38-22.56.07-1.49.22-4.47.29-5.94,5.87.91,13.76-2.11,18.43,2,2.45,12.89-2.62,26.5-10.49,36.57Z"/><path class="cls-29" d="M1461.88,2601.49c-1.38-10.74-3.6-21.56-7.76-31.59-.78,11.07,2.73,21.85,7.76,31.59Z"/><path class="cls-23" d="M1365.59,2676.77c.2,17.52-3.16,34.75-9.25,51.11,10.74-14.32,12.98-33.9,9.25-51.11Z"/><path class="cls-36" d="M1388.49,2657.61c5.76-5.87,9.36-13.41,14.49-19.81,8.34-11.92,22.63-18.76,29.21-31.99.27-2.05.58-4.09.89-6.14-6.91,11.76-18.03,20.03-27.01,30.06-6.69,8.69-14.14,17.3-17.58,27.88Z"/><path class="cls-26" d="M1440.69,2554.79c11.03-12.83,11.16-33.97-.16-46.77,2.71,8.58,7.38,17.16,5.67,26.46-1.33,6.89-3.98,13.47-5.51,20.32Z"/><path class="cls-24" d="M1430.35,2841.19c1.11-5.78,2.11-11.58,2.42-17.47-4.47,8.14-7.85,17.01-8.83,26.3-.18,13.49,3.38,27.32,11.23,38.44,10.74,14.05,30.3,22.23,47.62,16.81-11.54-2.13-23.83-3.49-33.57-10.63-16.76-11.56-22.59-34.19-18.87-53.44Z"/><path class="cls-27" d="M1474.15,2883.47c.07-.36.22-1.09.29-1.44-6.8.36-14.38.98-20.14-3.29-7.4-4.54-11.69-12.36-15.18-20.01,1.24,15.87,18.85,32.92,35.04,24.74Z"/><path class="cls-25" d="M1442.16,2823.38c6.98-4.96,13.34-11.07,21.59-14.03,8.87-3.76,18.65-3,27.99-4.54-18.14-3.85-39.95,1.62-49.58,18.56Z"/><path class="cls-30" d="M1400.74,2530.8c-3.82-7.98-10.58-13.96-16.78-20.05-9.18-8.43-19.81-16.76-32.75-17.58,20.83,5.89,34.35,23.59,49.53,37.64Z"/><path class="cls-28" d="M1486.15,2641.18c3.93,6.56,9.69,11.72,14.38,17.74,22.45,27.68,36.26,61.14,57.51,89.57-7.6-16.45-17.65-31.7-26.28-47.64-12.29-21.83-25.77-43.91-45.62-59.67Z"/><path class="cls-2" d="M1457.98,3015.39c16.38-8.91,31.66-20.3,49.55-26.21,10.23-3.38,16.58,10.27,27.08,8.05-4.78-4.91-11.47-7.25-17.23-10.74-12.14-3.78-23.45,3.91-33.77,9.25-26.3,15.18-52.29,30.86-79.25,44.82,3.36-1,6.76-1.78,10.23-2.56,15.01-6.4,29.37-14.25,43.39-22.61Z"/><path class="cls-1" d="M1371.37,2494.83c16.43,11.2,31.88,24.65,41.77,42.17-5.94-19.72-23.92-33.59-41.77-42.17Z"/><path class="cls-102" d="M675.27,4764.97l16.96,49.03,14.66,45.21,12.86,42.96,11.09,40.88,9.63,39.73,8.17,38.92,6.71,37.94,5.34,37.49,4.32,38.69,3.43,38.89,2.47,39.14,1.52,39.37.62,39.59-.34,39.82-1.26,40.07-2.19,40.27-.56,1.46-1.32.87-1.97.53-.34.06-1.63-.53-.65-1.63,2.64-60.03.79-60.2-1.15-60.4-3-60.57-.98-4.72-2.3-4.27-7.89-11.06-7.36-11.32-6.85-11.57-6.35-11.85h0l-9.27-19.91-7.89-20.61-6.51-21.28-5.14-22.01-10.36-56.78-10.75-68.32-2.78-16.6-3.93-19.6-.14-.28-.59-.2-.48.42-4.27,12.27-4.13,8.73-4.63,6.8-5.34,4.94-6.32,3.43-6.57,1.71h-7.58l-7.33-1.97-6.85-3.79-6.04-5.45-5.92-8.48-5.22-11.29-7.92-23.53-7.19-27.35-7.78-38.19-11.91-57.98-5.14-20.75-5.14-17.38-.48-1.46-8.45-27.27-6.29-24.32-4.21-21.85-2.08-18.81.06-15.84.84-6.74,1.4-6.21,1.88-5.17,2.47-4.55,2.89-3.65,3.54-2.95,5.39-2.64,6.49-1.32,8.17.11,7.44,1.85,6.21,3.26,5.73,4.8,5.64,6.63,6.74,9.8,7.44,10.73,4.21,3.99,5.62,3,1.38-.14.76-1.18-.03-.42-5.5-35.38-4.1-35.41-2.7-35.44-1.32-35.46h0l-.06-28.95.9-28.95,1.8-28.98,2.72-29.01,2.81-21.12,3.71-20.89,4.61-20.61,5.53-20.27,6.4-19.96,7.27-19.6,8.14-19.21,9.01-18.76,9.77-18.11,10.56-17.63,11.4-17.13,12.19-16.57,12.92-15.89,13.67-15.3,14.26-14.49,14.97-13.84,5.7-4.91,24.37-19.23,26.25-17.86,27.55-16.12,29.15-14.55,30.3-12.75,31.08-10.78,31.87-8.85,32.24-6.74,23.62-3.57,25.1-2.64,26.54-1.71,28-.76,33.27.7,33.25,2.78,33.05,4.86,32.71,6.88,32.04,8.87,31.39,10.87,30.3,12.69,29.34,14.6,27.88,16.23,26.2,17.75,24.93,19.49,23.11,20.81,21.42,22.3,19.49,23.45,9.13,12.24,8.68,12.66,8.09,12.78,7.64,13.14,12.21,23.5,10.75,23.9,9.27,24.35,7.78,24.74h0l4.55,17.41,3.82,17.63,5.78,34.37,4.13,35.41,2.5,36.64.81,37.51-.81,38.44-2.5,39.06-4.13,39.82-5.76,40.13.22.81.76.37.17-.03,4.55-1.32,3.99-2.13,3-2.58,2.58-3.2,4.44-6.96,6.04-9.27,5.05-6.29,5.19-4.69,5.59-3.34,6.6-2.16,5.56-.76,5.14.17,4.97,1.04,4.46,1.91,3.17,2.08,2.84,2.56,4.55,6.26,3.06,7.95,1.29,9.01.03,11.57-.7,12.02-1.46,12.5-2.27,12.97-6.71,27.6-11.82,38.41-2.44,7.58-5.59,21.99-7.08,35.75-10.7,54.78-9.77,40.72-2.64,9.58-5.31,15.64-2.89,6.21-3.09,5.34-3.54,4.72-3.65,3.76-4.02,3.06-4.52,2.41-7.69,2.11-6.23.17-5.39-1.07-4.97-2.02-4.75-3-4.63-4.07-2.25-2.78-2.25-3.9-4.66-11.37-1.6-4.3-.2-.25-.62-.08-.39.48-21.73,131.16-6.29,31.73-6.68,25.5-8.96,25.38-5.22,12.3-5.76,12.07h0l-8.12,15.14-8.96,14.71-9.8,14.32-10.61,13.87-.98,2.5-3.34,59.25-1.4,59.08.51,58.88,2.47,58.71-.48,1.63-1.38.95-1.74.51-1.85-.28-1.04-1.54-.03-.25-1.91-34.26-1.15-34.34-.45-34.4.25-34.48,1.01-34.57,1.71-34.62,2.44-34.71,3.17-34.79,4.58-39.06,5.76-38.95,6.82-37.77,8.03-37.99,9.24-37.99,10.53-38.53,20.98-68.88,24.15-72.22v-.25l-.67-.08-8.4,14.32-5.25,9.35-37.32,61.07-26.7,45.35-23.25,41.73-20.86,40.18-5.5,11.09-.84.76-1.1-.06-.25-.11h0l-.79-.81.03-1.15,9.83-21.26,9.77-19.29,17.91-32.88,18.95-33.19,19.94-33.5,20.95-33.78,19.52-31.65,13.62-24.43,10.61-22.46,8.23-21.87,11.4-37.4,9.74-37.21,8.14-36.95,6.49-36.73,3.17-27.74,3.57-44.84,1.38-23.56.79-23.17.17-22.44-.42-21.96-1.01-21.48-1.63-20.89-2.25-20.58-2.84-19.94-3.45-19.46-4.02-18.73-4.69-18.5-5.22-17.77-5.78-17.13-6.49-16.9-7.02-16.17-7.72-15.89-13.76-24.77-15.11-23.5-16.48-22.27-17.86-21.03h0l-12.89-13.59-13.53-13-14.18-12.41-14.8-11.88-15.42-11.26-16.06-10.73-16.68-10.11-17.33-9.58-18.22-9.15-18.42-8.34-18.84-7.69-19.01-6.91-26.68-8.31-27.01-6.82-27.6-5.48-27.91-3.99-28.67-2.61-28.92-1.18-29.57.22-29.82,1.66-20.13,1.97-20.11,2.78-20.05,3.57-19.94,4.32-19.8,5.11-19.57,5.9-19.07,6.57-18.81,7.3-18.36,7.97-18.03,8.7-17.35,9.29-16.93,9.97-16.2,10.5-15.67,11.15-14.97,11.63-14.38,12.27-21.99,21.09-20.16,22.35-10.5,13.06-9.97,13.42-9.55,14.01-8.96,14.38-8.42,14.77-7.86,15.08-7.24,15.42-6.65,15.7-6.18,16.23-5.59,16.51-4.97,16.74-4.35,17.02-3.82,17.38-3.2,17.61-2.58,17.8-1.99,17.97-2.95,42.04-.95,41.81.98,41.67,2.95,41.45h0l2.41,22.41,3,22.32,3.57,22.27,4.16,22.21,4.72,22.18,5.31,22.1,5.87,22.07,6.46,21.99,9.07,28.22,7.78,19.23,8.2,15.78,14.71,25.27,47.37,76.97,18.95,31.48,17.66,31.62,16.34,31.76,14.99,31.9.03.08-.08,1.29-.98.81-.84.22-.95-.08-.67-.67-16.03-34.4-13.23-25.19-36.39-62.76-9.8-15.53-26.54-43.19-25.81-43.69-.87.06v.34ZM1529.9,4858.45l3.23,5.11,3.54,7.22,1.97,5.7,4.58,12.16,2.27,4.18,2.33,3.14,3.2,3.06,3.51,2.3,3.99,1.63,4.1.79,5.36-.2,5.19-1.57,4.66-2.72,4.13-3.9,5.5-7.69,4.63-9.18,3.99-11.01,4.3-15.42,8.87-37.21,7.5-36.98,3.06-17.04,7.64-39.59,3.54-14.29,3.82-12.78.11-.34,11.06-34.65,6.51-25.02,2.25-11.62,1.6-11.18,1.01-11.18.34-10.84-.62-10.05-1.99-8.34-3.23-6.18-2.08-2.33-2.44-1.91-4.41-1.88-5.45-.67-6.8.9-6.94,2.81-6.04,4.27-4.58,5.42-2.92,4.69-8.87,13.11-3.93,4.18-4.07,3.31-6.04,3.37-6.88,2.39-1.43.87-.73,1.49-5.5,27.15-6.77,27.63-8,28.11-9.24,28.59-43.38,128.13.17,1.52,1.21.9.22.03,10.11,1.49,8.99,2.61,12.64,4.44,6.35,1.4.39-.03,6.04-1.32,5.92-3.29,5.9-5.42,5.7-7.3,9.29-14.99,7.78-15.39,6.23-15.72,4.69-16.12h0l2.92-14.91,1.68-15.22.39-15.53-.84-15.81-1.68-21.59-.17-15.56,1.26-13.53,2.86-12.21,3.12-9.6,4.63-14.63,2.5-10,1.32-9.07.14-8.65-1.1-8.93-1.66-3.99-3.45-5.17-.2-.48.34-1.15,1.18-.37,1.54.48,2.61,1.85,2.19,3.29,1.49,4.46.95,5.59.34,9.8-1.12,10.31-2.5,11.06-4.69,15.33-3.51,11.18-1.77,6.96-1.54,9.52-.62,10.25.2,11.57,1.04,17.44.87,13.09.14,20.3-2.02,19.96-3.37,16.65-4.94,16.43-6.51,16.17-8.03,15.95-7.81,12.44-7.86,9.58-7.75,6.6-3.76,2.13-3.85,1.4-5.73.62-3.9-.65-4.55-1.66-5.03-1.68-.73.22-.22.73.11.28ZM673.72,4856.15l-7.44,2.41-5.67,1.32-5.36.14-4.89-.81-4.61-1.63-4.69-2.58-4.38-3.29-4.32-4.1-4.35-5.05-8.37-12.66-9.38-18.48-7.27-18.67-5.19-18.9-3.06-19.15h0l-.98-16.82.62-16.99,2.36-32.32-.08-10.36-1.38-11.6-2.61-12.92-4.49-17.33-4.32-17.16-1.12-10.89.42-13.84,1.57-7.33,1.49-3,1.97-2.56,3.59-2.86.03-.03.7-.98-.25-1.21-5.76-7.22-6.15-5.45-6.6-3.62-6.66-1.57-6.63.31-6.49,2.02-.59.28-2.39,1.54-2.02,2.02-3.4,6.01-2.13,8.03-.98,10.05.2,12.64,1.4,14.29,2.64,16.03,3.48,15.44,18.42,60.93,6.68,28.92,12.3,61.83,6.07,28.11,7.44,28.5,5.39,16.54,5.76,12.69,3.14,5.11,3.12,4.04,3.26,3.23,3.54,2.44,4.44,2.05,4.27,1.26,4.1.42,3.93-.37h0l4.21-1.35,3.99-2.33,1.68-1.32,3.26-3.37,2.86-4.27,2.53-5.25,2.72-7.41,2.7-7.27,2.5-5.25,2.78-4.32,3.14-3.48.2-.34-.17-.7-.7-.22ZM592.54,4580.88l-2.39,4.63-1.71,5.03-1.18,5.76-.53,5.98.06,6.57.67,7.08,1.26,6.85,1.85,6.94,6.65,22.15,2.92,12.3,1.12,10.7.31,11.29-.48,11.82-1.26,12.41-1.18,11.71-.48,11.63.28,11.51,1.01,11.46,2.86,16.9,4.49,16.74,6.15,16.54,7.75,16.34,7.92,13.03,4.1,5.28,4.1,4.46,4.35,3.79,4.24,2.86,4.38,2.11,4.63,1.4,2.81.14,3.71-.53,10.17-3.09,9.77-2.56,14.63-2.25.45-.65v-.06l-20.44-60.23-20.39-59.84-13.84-44.51-10.73-40.29-7.72-36.59-1.18-2.16-2.22-1.04-6.29-1.66-3.71-2.08-3.62-3.06-7.61-9.72-3.73-5.22-.9-.45-.93.39-.14.17ZM1439.99,5160.81l7.83-10.75,7.3-11.04,6.82-11.26,6.29-11.57h0l8.99-18.87,7.69-19.57,6.4-20.22,5.14-20.89,7.67-39.79,9.07-54.87,7.08-43.41,5.67-31.67v-3.14l-1.09-2.95-2.11-2.33-2.81-1.43-10.17-3-2.61-.25-2.53.76-2.02,1.68-1.26,2.3-11.32,37.57-10.08,35.77-8.82,34.23-7.81,33.25-6.77,32.63-5.84,32.12-4.86,31.76-3.99,31.53-3.2,32.94.06.37.59.39.67-.28ZM760.71,5151.77l-2.02-13.17-1.82-17.13-3.62-30.38-4.91-32.83h0l-5.73-32.29-6.57-32.15-7.41-32.04-8.26-31.87-21.48-71.29-.9-1.71-1.4-1.29-1.8-.7-1.91-.03-8.65,1.38-1.74.65-1.38,1.26-.76,1.71-.08,1.85,15.39,97.86,8.99,54.05,5.67,27.29,6.8,24.88,8.09,22.97,9.6,21.65,11.37,21,13.45,20.78.56.25.51-.37.03-.34Z"/><path class="cls-102" d="M787.44,4929.8l12.97,2.81,15.64,2.92,15.7,1.24h0l15.67-.48,15.7-2.13,15.75-3.82,15.78-5.5,28.08-12.07,23.11-10.05,16.51-6.21,17.21-5.28,17.44-4.44h0l22.21-4.35,22.52-2.98,22.83-1.66,23.14-.28h.06l.51.67-.42,2.58-.76.62-24.15.51-23.14,1.71-22.13,2.98-21.12,4.18-13.82,3.71-14.6,4.83-16.03,6.15-21.71,9.1-33.81,13.84-13.2,4.63-12.5,3.71-10.47,2.3-11.48,1.52-11.85.65-11.51-.25-10.98-1.12-10.08-1.97-9.43-2.84-8.2-3.57-.39-.39.08-.93.87-.34Z"/><path class="cls-102" d="M1396.92,4933.17h.03l1.26.28.67,1.1.17.93-.2.87-.73.51-13.37,2.58-12.92,1.4-12.47.28-12.02-.9-15.58-2.81-16.4-4.63-17.89-6.63-24.06-10.33-27.66-11.79-20.72-7.19-6.63-1.88-23.47-5.5-24.37-3.96-26.37-2.64-31.2-1.6-1.12-.98-.2-1.21v-.08l.31-.93.9-.39,32.74,1.04,15.64,1.32,15.16,1.88,14.63,2.41,14.15,2.95,13.67,3.51,13.17,4.04,24.93,9.6,35.07,15.47,17.63,7.1,17.63,5.11,17.69,3.17,17.69,1.18h0l17.1-.73,17.1-2.56Z"/></svg>