<?xml version="1.0" encoding="UTF-8"?><svg id="_Слой_1" xmlns="http://www.w3.org/2000/svg" viewBox="0 0 2200 5500"><defs><style>.cls-1{fill:#010101;}.cls-2{fill:#ededed;}.cls-3{fill:#c9e0e2;}</style></defs><path class="cls-2" d="M1098.86,1933.97c-27.38,0-49.79,22.41-49.79,49.79-.02,126.4-.03,252.8-.05,379.2,6.1.44,14.24.97,23.85,1.41,8.85.4,23.01,1.03,41.4.9,9.28-.06,20.92-.33,34.38-1.08v-380.43c0-27.38-22.41-49.79-49.79-49.79Z"/><path class="cls-1" d="M1100.95,1981.78h.53c3,0,5.44,2.44,5.44,5.44v144.73c0,3-2.44,5.44-5.44,5.44h-.53c-3,0-5.44-2.44-5.44-5.44v-144.73c0-3,2.44-5.44,5.44-5.44Z" transform="translate(-3.91 2.1) rotate(-.11)"/><path class="cls-1" d="M1102.56,2152.96c6.86-.53,13.07,7.54,13.88,18.02.81,10.48-4.1,19.4-10.96,19.93-6.86.53-13.07-7.54-13.88-18.02h0c-.81-10.48,4.1-19.4,10.96-19.93ZM1098.67,2174.83c.41,1.64.99,2.92,1.75,3.86,1.87,2.4,5.33,2.86,7.74,1.04,1.52-1.15,2.31-3.01,2.09-4.9-.18-2.05-.76-3.65-1.75-4.82-1.95-2.41-5.49-2.78-7.9-.82-1.67,1.36-2.42,3.55-1.93,5.65Z"/><path class="cls-3" d="M1098.67,2174.83c-.71-3.02,1.16-6.04,4.18-6.75,2.1-.49,4.29.25,5.65,1.93.99,1.17,1.58,2.78,1.75,4.82.35,3-1.82,5.67-4.85,5.98-1.91.2-3.8-.61-4.98-2.12-.76-.94-1.34-2.22-1.75-3.86Z"/><path class="cls-2" d="M808.5,3882.62c-.41,30.06-5.23,82.45-14.47,157.18-16.31,131.04-20.09,242.97-.7,350.94,32.98,183.15,95.08,391.38,140.43,563.3,7.51,28.39,12.36,50.95,14.55,67.67,4.6,4.23,24.44,21.54,55.07,21.88,31.8.35,52.51-17.83,56.92-21.88-.72-4.21-2.23-10.66-3.04-18.64-15.53-152.97-8.68-326.03,6.49-494.97,8.3-92.8,7.84-174.05-1.4-243.76-7.98-60.96-15.44-121.4-15.96-179.9-.35-37.42,1.14-64,4.47-79.73,18.07-85.61,26.37-153.7,24.91-204.28-.52-17.85-2.05-45.22-4.6-82.06-23.65,12.43-72.25,33.95-137.21,34.43-67.46.5-117.9-21.94-141.66-34.43,7.54,38.14,17.14,95.04,16.2,164.25Z"/><path class="cls-2" d="M1410.19,3718.82c-25.39,12.62-73.95,32.59-137.98,33.55-69.33,1.04-121.79-20.74-147.58-33.55-.49,4.48-1.1,11.74-1.91,20.66-7.72,84.21,4.03,152.01,20.52,238.06,20.53,106.75,9.47,168.32-5.26,301.3-9.82,88.68-4.47,178.85,8.16,295.07,10.06,92.86,14.74,183.09,14.03,270.68-.58,65.04-2.56,122.37-16.33,177.58,5.11,4.5,27.41,23.1,61.11,22.58,31.93-.49,52.92-17.84,58.31-22.58,1.33-10.28,3.67-26.96,7.67-47.39,3.16-16.12,6.91-32.55,11.27-49.31,34.56-132.62,67.48-264.16,98.77-394.62,26.55-110.69,40.11-217.33,40.7-319.89.18-36.31-4.3-91.87-13.42-166.66-15-122.36-22.72-220.42-.35-315.77.75-3.2,1.53-6.44,2.31-9.7Z"/><path class="cls-2" d="M1082.29,2929.17c-.07-11.35-.26-34.66-.97-58.87-.07-2.35-.61-8.8-1.69-21.71-.68-8.14-1.37-15.67-5.07-24.61-.64-1.55-1.23-2.81-1.65-3.67-13.51-19.65-23.51-32.45-34.65-55.52-84.38-174.32-192.21-332.67-323.49-475.06-7.31-7.95-15.38-15.44-24.21-22.45-.18-.14-.38-.26-.6-.34h0s-1.49,0-3,1.39c-9.16,8.46-28.36,82.99-28.36,82.99-1.34,5.21-2.92,10.91-6.07,22.31-4.38,15.87-8.06,28.62-10.37,36.54,46.07,65.85,96.86,133.85,152.84,203.11,97.05,120.07,194.36,224.94,287.26,315.88Z"/><path class="cls-2" d="M1569.16,2399.75c-6.07-20.73-13.91-45.9-23.74-74.06-24.68-70.66-22.02-45.93-24.75-52.8-.07-.18-.36-.76-.9-1.37-2.08-2.37-5.64-2.62-7.96-.56-20.76,18.13-43.91,42.4-69.47,72.8-81.82,97.36-149.81,189.87-221.83,319.45-24.96,44.91-33.64,61.62-33.64,61.62-10.68,20.55-17.41,34.58-26.03,48.94-3.17,5.28-7.84,12.7-13.21,23.31-2.94,5.81-3.39,7.24-5.83,11.26-3.57,5.88-5.87,8.2-7.89,13.7-.28.76-.77,2.19-2.01,8.1-1.72,8.27-2.7,14.8-3.3,18.93-1.33,9.07-1.99,13.6-2.65,18.82-2.95,23.3-5.38,56.22-5.69,60.45,87.06-81.17,180.39-177.88,273.72-291.8,67.02-81.81,125.05-161.52,175.18-236.79Z"/><path class="cls-2" d="M1073.52,3196.26c2.65-25.25,3.53-35.12,5.33-59.89,6.32-86.91,5.41-158.37,3.43-207.2-27.03-26.23-62.29-61.34-102.46-103.84-20.67-21.87-90.7-96.54-176.2-201.71-48.24-59.34-103.25-130.64-161.45-213.45-7.81,31.26-17.66,75.24-25.82,128.39-7.4,48.2-27.18,171.26-10.36,351.84,12.87,138.06,37.37,275.63,73.5,412.69,38.24,145.25,68.65,255.22,91.22,329.89,8.71,28.89,15.9,57.35,21.61,85.38,23.86,12.36,73.3,33.94,139.31,33.97,66.15.03,115.69-21.61,139.56-33.97-.74-11.03-1.87-27.54-3.35-47.6-3.05-41.22-5.62-70.92-6.08-76.47-9.9-118.17,7.83-360.65,11.75-398.04Z"/><path class="cls-2" d="M1556.09,3179.09c19.73-84.99,43.53-201.1,51.14-338.92,5.78-104.81,3.36-256.74-38.07-440.42-66.74,100.97-148.67,211.22-248.77,324.14-68.08,76.8-135.58,144.71-200.13,204.44-2.55,29.59-5.36,74.6-4.38,129.57.88,49.48,4.46,86.04,6.29,105.23,2.03,21.33,17.46,172.98,20,263.14,2.83,100.34-5.86,168.72-17.47,292.56,25.37,12.61,74.65,32.92,139.73,33.54,68.45.65,120.21-20.82,145.82-33.54,16.28-56.17,37.67-144.9,71.2-251.95,20.23-64.62,45.11-160.54,74.64-287.79Z"/><path class="cls-2" d="M1106.54,2365.14c-149.98,0-290.69-40.04-412.17-110.08.35,1.18.98,2.28,1.89,3.17,37.19,35.32,72.04,73.3,104.56,113.94,100.64,125.55,185.4,260.69,254.28,405.41,1.23,2.51,8.74,12.95,22.54,31.31,1.5,2.01,3.83,3.28,6.4,3.51l35.35,2.54c3.18.22,6.21-1.33,7.89-4.03,17.6-28.36,27.05-43.83,28.33-46.4,69.59-141.63,153.56-273.29,251.91-394.97,31.4-38.86,62.1-69.03,102.1-108.41.5-.5.93-1.05,1.29-1.63-119.69,67.3-257.6,105.65-404.39,105.65Z"/><path class="cls-2" d="M1510.88,2250.39c-48.36-92.98-75.17-144.73-80.43-155.25-24.44-48.65-30.29-101.81-17.54-159.46,34.62-157.07,55.2-243.52,61.75-259.37.23-.56.26-1.18.09-1.76-.4-1.34-1.78-2.09-3.07-1.66-.59.18-7.72,4.12-21.4,11.84-72.01,40.7-170.6,14.12-239.98-24.74-.1-.05-.2-.12-.28-.19-.19-.15-.33-.32-.45-.51-.09-.03-.19-.06-.28-.09,0,0-.14-.05-.28-.09-34.84-11.29-80.11-13.88-80.11-13.88-22.89-1.31-58.88-3.11-104.09,7.21-16.22,3.7-29.53,8.02-39.02,11.46-81.38,46.14-189.8,62.62-261.25-12.06-.76-.84-1.94-1.16-3.02-.82-1.52.48-2.37,2.11-1.89,3.63,29.65,98.77,53.21,196.89,70.7,294.37,9.42,52.28,1.43,102.51-23.95,150.69-30.17,57.31-54.24,107.48-72.19,150.52-.67,1.62-.71,3.37-.23,4.98,106.03,61.13,226.71,99.4,355.42,108.14v-13.01c-.2-1.79-.31-3.61-.31-5.45v-360.29c0-25.68,19.7-46.98,44.74-49.53,1.76-.19,3.55-.3,5.37-.3h0c27.38,0,49.79,22.41,49.79,49.79v379.6c130.77-6.69,253.58-43.81,361.56-104.52,1.73-2.75,1.92-6.27.37-9.25Z"/><path class="cls-2" d="M513.16,2097.41c9.91-40.87,13.68-89.03,17.37-130.78.92-10.41,4.85-36.75,16.84-69.21,4.68-12.68,9.4-22.86,12.8-29.75-18.07.58-47.05-.72-80.16-12.37-31.25-11-53.7-26.84-67.29-38.1-5.96,27.73-14.38,50.12-22.27,67.29-13.2,28.73-20.81,33.9-40.57,72.74-7.92,15.55-18.3,36.13-28.2,64.32-3.65,10.38-8.7,29.35-18.8,67.29-2.4,9.02-8.58,32.35-14.84,60.37-5.67,25.37-6.54,32.74-6.93,36.62-.37,3.71-1.03,11.41-2.75,22.1-1.25,7.79-2.47,13.48-2.69,14.52-2.25,10.73-21.23,116.06-71.12,396.42,5.43,3.33,13.61,7.6,24.23,10.48,9.74,2.64,17.41,3,24.23,3.27,8.62.35,20.81.08,35.35-2.83,8.34-45.58,26.44-88.56,47.45-132.68,56.05-118.06,142.27-255.6,177.36-399.71Z"/><path class="cls-2" d="M1836.2,1906.94c-16.03-30.57-19.41-37.71-22.39-44.53-4.67-10.68-10.76-26.04-16.34-45.46-10.81,14.02-31.5,37.12-64.7,55.08-30.85,16.69-59.29,21.81-76.5,23.57,16.24,42.93,16.81,60.77,16.81,60.77.03.87.04,1.45.03,1.97,0,1.4-.06,2.43-.07,2.63-.11,2.2-.07,14.26.04,18.42.88,33.88,7,68.61,7,68.61,2.77,15.74,6.34,29.89,13.49,58.2,3.82,15.14,7.37,28.59,9.19,34.93,14.49,50.37,31.56,88.21,39.34,105.16,22.97,50.02,47.43,97.5,79.56,158.47,48.36,91.78,61.48,126.82,81.92,182.71,7.39,20.19,11.21,39.41,11.48,57.66,19.79,6.89,34.98,6.91,43.87,6.12,5.26-.47,10.5-1.41,12.75-1.82,13.33-2.43,24.01-5.97,31.36-8.8-50.61-288.41-71.84-419.3-80.42-479.62-1.19-8.34-4.67-33.2-12.4-65.8-4.19-17.65-21.73-90.07-53.73-149.95-1-1.87-9.26-17.29-20.29-38.32Z"/><path class="cls-2" d="M620.16,1025.53c-27.21,13.71-44.37,30.62-50.86,37.23-25.12,25.58-36.25,51.13-38.84,57.31-2.92,6.97-5.35,13.95-9.86,31.77-10.32,40.8-15.56,74.52-17.83,90.22-4.42,30.65-8.47,58.69-9.26,96.55-.52,24.97.77,35.38-.66,64.14-.93,18.79-2.62,37.26-3.45,54.23-.05,1.05-.19,3.98-.61,7.89-.55,5.15-1.59,11.92-3.63,19.66-2.18,8.25-4.6,14.12-5.16,15.5-15.45,38.4-38.59,154.38-38.59,154.38-8.83,44.25-18.91,99.06-28.7,162.79,13.56,10.97,34.16,25.06,61.85,35.63,35.08,13.38,66.17,15.23,85.6,14.84,6.13-12.82,13.98-29.62,22.76-49.48,4.3-9.72,19.21-43.67,38.75-94.57,0,0,18.57-46.6,39.8-115.32,1.23-3.98,5.29-21.96,12.19-53.94,1.51-6.81,2.13-13.83,1.84-20.88-1.4-33.33-.41-62.8,2.98-88.42,6.61-49.7,10.03-77.07,10.26-82.1.8-6.83-.29-13.75-3.16-20l-11.23-24.56c-.65-1.31-.28-2.89.87-3.79,1.34-1.04,3.27-.8,4.31.54,8.94,10.64,14.27,19.97,16.9,30.16,11.58-53.77,19.52-152.75,13.96-342.68-44.78,7.51-74.87,15.14-90.24,22.89Z"/><path class="cls-2" d="M1789.38,1776.25c-4.92-28.57-5.19-39.41-8.7-62.1-1.65-10.68-6.18-30.57-15.24-70.34-8.11-35.6-13.57-57.75-18.65-77.26-3.6-13.86-5.47-21-8.56-31.37-6.69-22.43-9.77-28.59-13.58-43.3-1.01-3.88-4.4-17.72-6.93-40.44-.18-1.58-2.43-53.83-6.75-156.74-5.26-125.08-29.12-252.09-173.15-282-.57-.12-8.62-1.49-24.16-4.09-8.47,72.02-8.59,126.98-6.98,164.64,0,0,6.44,150.71,4.64,166.61-.02.14-.49,4.32,0,4.45.32.08.98-2.42,2.65-5.96.46-.98,1.38-2.61,3.22-5.86,1.76-3.13,2.66-4.71,3.5-5.96,1.02-1.51,1.84-2.56,3.3-4.41,1.91-2.42,1.82-2.11,3.8-4.55.64-.78,1.44-1.42,2.07-2.21.2-.25.43-.55.86-.73.7-.29,1.44-.04,1.87.16.68.58,1.37,1.16,2.05,1.74.32.17.84.51,1.2,1.12.88,1.49,0,3.27-.12,3.53-.31.6-2.23,2.81-3.02,3.83-.97,1.26-3.56,4.92-4.09,5.7-.44.65-.76,1.18-1.16,1.86-1.12,1.92-2.24,3.83-3.18,5.66-4.06,7.88-6.2,15.91-6.2,15.91-1.12,4.21-1.47,7.05-1.57,7.85-.48,4.08-.3,6.85-.25,7.56.18,2.38.55,4.12.64,4.53,2.17,10.47,19.78,152.9,17.69,167.6,0,0-.57,7.67.79,12.05.25.81.52,1.3.72,2.04.19.69.24,1.22.24,1.27,4.88,35.89,31.02,116.26,31.02,116.26,38.36,117.96,76.29,196.46,84.5,213.28,1.88,3.86,3.44,7,4.44,9.01,16.86-1.63,44.26-6.4,74.09-22.01,8.83-4.62,35.73-19.54,60.44-48.42,2.85-3.33,5.11-6.19,6.67-8.22-2.12-9.34-5.13-23.43-8.1-40.71Z"/><path class="cls-2" d="M1338.74,957.03c-97.36-37.28-123.68-119.9-114.12-214.55.07-.91-.27-1.8-.92-2.43-1.21-1.18-3.16-1.15-4.34.06-21.58,23.21-45.84,41.2-72.8,53.94-58.33,27.45-117.27-5.7-158.76-48.77-.49-.53-1.2-.81-1.92-.74-1.31.13-2.3,1.32-2.2,2.67,2.75,27.78,1.55,56.78-3.6,87.01-11.82,69.5-61.87,101.93-123.03,125.69,61.31,52.83,148.16,85.8,244.48,85.8s183.26-33.01,244.58-85.89c-2.43-.92-4.88-1.86-7.36-2.81Z"/><ellipse class="cls-2" cx="693.1" cy="1326.99" rx="134.35" ry="143.51"/><ellipse class="cls-2" cx="1530.81" cy="1322.85" rx="134.35" ry="143.51"/><path class="cls-2" d="M1110.33,531.69c-78.67,0-145.42,52.5-169.02,125.32,11.16,26.74,26.25,51.84,45.29,75.27,43.94,54.03,113.76,87.71,178.58,43.33,51.17-35.05,86.75-80.97,106.76-137.74-28.31-62.7-90.03-106.18-161.62-106.18Z"/></svg>