<?xml version="1.0" encoding="UTF-8"?><svg id="_Слой_1" xmlns="http://www.w3.org/2000/svg" viewBox="0 0 2200 5500"><defs><style>.cls-1{fill:#d6deea;}</style></defs><path class="cls-1" d="M1556.09,3179.09c19.73-84.99,43.53-201.1,51.14-338.92,5.78-104.81,3.36-256.74-38.07-440.42-66.74,100.97-148.67,211.22-248.77,324.14-68.08,76.8-135.58,144.71-200.13,204.44-2.55,29.59-5.36,74.6-4.38,129.57.88,49.48,4.46,86.04,6.29,105.23,2.03,21.33,17.46,172.98,20,263.14,2.83,100.34-5.86,168.72-17.47,292.56,25.37,12.61,74.65,32.92,139.73,33.54,68.45.65,120.21-20.82,145.82-33.54,16.28-56.17,37.67-144.9,71.2-251.95,20.23-64.62,45.11-160.54,74.64-287.79Z"/></svg>