<?xml version="1.0" encoding="UTF-8"?><svg id="_Слой_1" xmlns="http://www.w3.org/2000/svg" viewBox="0 0 2200 5500"><defs><style>.cls-1{fill:#010101;}.cls-2{fill:#d6deea;}.cls-3{fill:#fff;}.cls-4{fill:#c9e0e2;}</style></defs><path class="cls-2" d="M1098.86,1933.97c-27.38,0-49.79,22.41-49.79,49.79-.02,126.4-.03,252.8-.05,379.2,6.1.44,14.24.97,23.85,1.41,8.85.4,23.01,1.03,41.4.9,9.28-.06,20.92-.33,34.38-1.08v-380.43c0-27.38-22.41-49.79-49.79-49.79Z"/><path class="cls-1" d="M1100.95,1981.78h.53c3,0,5.44,2.44,5.44,5.44v144.73c0,3-2.44,5.44-5.44,5.44h-.53c-3,0-5.44-2.44-5.44-5.44v-144.73c0-3,2.44-5.44,5.44-5.44Z" transform="translate(-3.91 2.1) rotate(-.11)"/><path class="cls-1" d="M1102.56,2152.96c6.86-.53,13.07,7.54,13.88,18.02.81,10.48-4.1,19.4-10.96,19.93-6.86.53-13.07-7.54-13.88-18.02h0c-.81-10.48,4.1-19.4,10.96-19.93ZM1098.67,2174.83c.41,1.64.99,2.92,1.75,3.86,1.87,2.4,5.33,2.86,7.74,1.04,1.52-1.15,2.31-3.01,2.09-4.9-.18-2.05-.76-3.65-1.75-4.82-1.95-2.41-5.49-2.78-7.9-.82-1.67,1.36-2.42,3.55-1.93,5.65Z"/><path class="cls-4" d="M1098.67,2174.83c-.71-3.02,1.16-6.04,4.18-6.75,2.1-.49,4.29.25,5.65,1.93.99,1.17,1.58,2.78,1.75,4.82.35,3-1.82,5.67-4.85,5.98-1.91.2-3.8-.61-4.98-2.12-.76-.94-1.34-2.22-1.75-3.86Z"/><path class="cls-3" d="M775.7,4352.15c11.17,70,25.23,138.41,42.19,205.25,36.31,143.27,74.09,286.24,113.33,428.92,9.24,33.68,7.63,70.43-4.82,110.26-1.05,1.29-2.37,1.46-3.95.53-3.86-2.4-5.23-5.97-4.12-10.7,3.92-17.37,6.87-34.41,8.86-51.14.64-5.4.4-10.82-.7-16.05-9.47-44.73-13.86-74.03-24.3-108.85-19.12-63.39-58.65-216.42-118.59-459.09-9.82-39.59-12.45-72.63-7.89-99.12Z"/></svg>