<?xml version="1.0" encoding="UTF-8"?><svg id="_Слой_1" xmlns="http://www.w3.org/2000/svg" viewBox="0 0 2200 5500"><defs><style>.cls-1{fill:#d6deea;}</style></defs><path class="cls-1" d="M1073.52,3196.26c2.65-25.25,3.53-35.12,5.33-59.89,6.32-86.91,5.41-158.37,3.43-207.2-27.03-26.23-62.29-61.34-102.46-103.84-20.67-21.87-90.7-96.54-176.2-201.71-48.24-59.34-103.25-130.64-161.45-213.45-7.81,31.26-17.66,75.24-25.82,128.39-7.4,48.2-27.18,171.26-10.36,351.84,12.87,138.06,37.37,275.63,73.5,412.69,38.24,145.25,68.65,255.22,91.22,329.89,8.71,28.89,15.9,57.35,21.61,85.38,23.86,12.36,73.3,33.94,139.31,33.97,66.15.03,115.69-21.61,139.56-33.97-.74-11.03-1.87-27.54-3.35-47.6-3.05-41.22-5.62-70.92-6.08-76.47-9.9-118.17,7.83-360.65,11.75-398.04Z"/></svg>