<?xml version="1.0" encoding="UTF-8"?><svg id="_Слой_1" xmlns="http://www.w3.org/2000/svg" viewBox="0 0 2200 5500"><defs><style>.cls-1{fill:#d6deea;}</style></defs><path class="cls-1" d="M1410.19,3718.82c-25.39,12.62-73.95,32.59-137.98,33.55-69.33,1.04-121.79-20.74-147.58-33.55-.49,4.48-1.1,11.74-1.91,20.66-7.72,84.21,4.03,152.01,20.52,238.06,20.53,106.75,9.47,168.32-5.26,301.3-9.82,88.68-4.47,178.85,8.16,295.07,10.06,92.86,14.74,183.09,14.03,270.68-.58,65.04-2.56,122.37-16.33,177.58,5.11,4.5,27.41,23.1,61.11,22.58,31.93-.49,52.92-17.84,58.31-22.58,1.33-10.28,3.67-26.96,7.67-47.39,3.16-16.12,6.91-32.55,11.27-49.31,34.56-132.62,67.48-264.16,98.77-394.62,26.55-110.69,40.11-217.33,40.7-319.89.18-36.31-4.3-91.87-13.42-166.66-15-122.36-22.72-220.42-.35-315.77.75-3.2,1.53-6.44,2.31-9.7Z"/></svg>