<?xml version="1.0" encoding="UTF-8"?><svg id="_Слой_1" xmlns="http://www.w3.org/2000/svg" viewBox="0 0 2200 5500"><defs><style>.cls-1{fill:#d6deea;}</style></defs><path class="cls-1" d="M513.16,2097.41c9.91-40.87,13.68-89.03,17.37-130.78.92-10.41,4.85-36.75,16.84-69.21,4.68-12.68,9.4-22.86,12.8-29.75-18.07.58-47.05-.72-80.16-12.37-31.25-11-53.7-26.84-67.29-38.1-5.96,27.73-14.38,50.12-22.27,67.29-13.2,28.73-20.81,33.9-40.57,72.74-7.92,15.55-18.3,36.13-28.2,64.32-3.65,10.38-8.7,29.35-18.8,67.29-2.4,9.02-8.58,32.35-14.84,60.37-5.67,25.37-6.54,32.74-6.93,36.62-.37,3.71-1.03,11.41-2.75,22.1-1.25,7.79-2.47,13.48-2.69,14.52-2.25,10.73-21.23,116.06-71.12,396.42,5.43,3.33,13.61,7.6,24.23,10.48,9.74,2.64,17.41,3,24.23,3.27,8.62.35,20.81.08,35.35-2.83,8.34-45.58,26.44-88.56,47.45-132.68,56.05-118.06,142.27-255.6,177.36-399.71Z"/></svg>