<?xml version="1.0" encoding="UTF-8"?><svg id="_Слой_1" xmlns="http://www.w3.org/2000/svg" viewBox="0 0 2200 5500"><defs><style>.cls-1{fill:#d6deea;}.cls-2{fill:#fff;}.cls-3{fill:#c9e0e2;}</style></defs><ellipse class="cls-2" cx="1331.55" cy="476.61" rx="13.51" ry="7.98" transform="translate(694.01 1739.04) rotate(-82.9)"/><path class="cls-2" d="M905.7,575.64c1.15,2.51.06,5.48-2.45,6.63-2.03.93-4.43.41-5.88-1.28-24.38-29.94-34.15-65.81-29.3-107.62.23-2.02,2.01-3.49,4.04-3.33l9.12.7c1.89.12,3.31,1.78,3.18,3.71-.02.32-.09.64-.19.94-1.11,2.87-1.35,6.75-.7,11.67,5.03,39,12.43,68.53,22.19,88.59Z"/><path class="cls-2" d="M1326.98,493.63c.13-.45.59-.73,1.05-.61l.7.26c5.64,1.74,5.28,19.16-.79,38.94l-2.28,7.28c-6.08,19.76-15.58,34.39-21.23,32.72l-.7-.18c-.46-.16-.69-.66-.53-1.12,0,0,0-.01,0-.02l23.77-77.28Z"/><path class="cls-3" d="M1098.67,2174.83c-.71-3.02,1.16-6.04,4.18-6.75,2.1-.49,4.29.25,5.65,1.93.99,1.17,1.58,2.78,1.75,4.82.35,3-1.82,5.67-4.85,5.98-1.91.2-3.8-.61-4.98-2.12-.76-.94-1.34-2.22-1.75-3.86Z"/><path class="cls-2" d="M1945.07,3010.67c17.71-20.16,34.17-34.67,36.75-32.4,2.58,2.27-9.68,20.45-27.39,40.62-17.71,20.16-34.17,34.67-36.75,32.4-2.58-2.27,9.68-20.45,27.39-40.62Z"/><path class="cls-2" d="M1932.21,3009.87l-27.54,38.16c-2.03,2.85-2.49,6.54-1.23,9.82,3.28,8.54,8.71,16.17,16.31,22.89,5.71,5.02,14.32,4.75,19.65-.61l18.77-18.68c.71-.72,1.88-.73,2.61-.02.49.48.67,1.2.46,1.86l-3.16,11.23c-2.46,8.52,2.45,17.42,10.96,19.88,6.2,1.79,12.87-.3,16.93-5.32l29.21-35.52c-.53,21.52-9.97,37.22-28.33,47.1-9.01,4.85-19.88,1.99-32.63-8.6-1.78-1.44-4.09-2.02-6.32-1.58l-17.28,3.25c-.47.12-.91.18-1.32.18-14.91.53-18.86-12.28-25.52-20.26-7.66-9.24-9.74-19.18-6.23-29.82,7.31-22.4,18.86-33.71,34.65-33.95Z"/><path class="cls-2" d="M775.7,4352.15c11.17,70,25.23,138.41,42.19,205.25,36.31,143.27,74.09,286.24,113.33,428.92,9.24,33.68,7.63,70.43-4.82,110.26-1.05,1.29-2.37,1.46-3.95.53-3.86-2.4-5.23-5.97-4.12-10.7,3.92-17.37,6.87-34.41,8.86-51.14.64-5.4.4-10.82-.7-16.05-9.47-44.73-13.86-74.03-24.3-108.85-19.12-63.39-58.65-216.42-118.59-459.09-9.82-39.59-12.45-72.63-7.89-99.12Z"/><path class="cls-1" d="M1082.29,2929.17c-.07-11.35-.26-34.66-.97-58.87-.07-2.35-.61-8.8-1.69-21.71-.68-8.14-1.37-15.67-5.07-24.61-.64-1.55-1.23-2.81-1.65-3.67-13.51-19.65-23.51-32.45-34.65-55.52-84.38-174.32-192.21-332.67-323.49-475.06-7.31-7.95-15.38-15.44-24.21-22.45-.18-.14-.38-.26-.6-.34h0s-1.49,0-3,1.39c-9.16,8.46-28.36,82.99-28.36,82.99-1.34,5.21-2.92,10.91-6.07,22.31-4.38,15.87-8.06,28.62-10.37,36.54,46.07,65.85,96.86,133.85,152.84,203.11,97.05,120.07,194.36,224.94,287.26,315.88Z"/><path class="cls-1" d="M1569.16,2399.75c-6.07-20.73-13.91-45.9-23.74-74.06-24.68-70.66-22.02-45.93-24.75-52.8-.07-.18-.36-.76-.9-1.37-2.08-2.37-5.64-2.62-7.96-.56-20.76,18.13-43.91,42.4-69.47,72.8-81.82,97.36-149.81,189.87-221.83,319.45-24.96,44.91-33.64,61.62-33.64,61.62-10.68,20.55-17.41,34.58-26.03,48.94-3.17,5.28-7.84,12.7-13.21,23.31-2.94,5.81-3.39,7.24-5.83,11.26-3.57,5.88-5.87,8.2-7.89,13.7-.28.76-.77,2.19-2.01,8.1-1.72,8.27-2.7,14.8-3.3,18.93-1.33,9.07-1.99,13.6-2.65,18.82-2.95,23.3-5.38,56.22-5.69,60.45,87.06-81.17,180.39-177.88,273.72-291.8,67.02-81.81,125.05-161.52,175.18-236.79Z"/></svg>