<?xml version="1.0" encoding="UTF-8"?><svg id="_Слой_1" xmlns="http://www.w3.org/2000/svg" viewBox="0 0 2200 5500"><defs><style>.cls-1{fill:none;stroke:#000;stroke-linecap:round;stroke-linejoin:round;stroke-width:8px;}.cls-2{fill:#fff;}</style></defs><path class="cls-2" d="M685.16,1556.34l-4.64.72c-34.2,126.48-95.72,243.04-133.27,368.18-14.75,70.89-15.01,144.45-39.5,213.28-33.13,141.24-252.84,446.78-209.66,556.9,32.61,60.44-15.36,118.66-5.68,181.04,3.47,21.12,1.32,97.98-33.75,65.1-17.62-18.44-12.66-41.65-12.81-63.52-.08-12.15,5.8-24.64-3.48-35.84l-1.89-.31c-4.45,2.32-9.19,4.14-14.4,5.2l-3.62-.74c-.58,2.92-1.02,5.89-1.31,8.88-9.7,51.32-13.19,86.16,34.52,118.57,12.21,9.72,51.5,31.97,27,48.24-11.64-6.25-22.25-15.98-37.05-13.7l-2.08,2.03c6.14,6.36,12.06,12.97,18.32,19.2,15.02,14.85,36.85,33.37,15.71,54.39-13.5-9.06-25.42-17.27-35.99-24.94l-.84,3.07c-6.8,10.18,1.78,28.04-16.89,32.17-3.89-2.7-8.39-5.54-10.89-10.95-9.11-19.77-21.53-37.2-35.39-54.09-12.59-15.34-26.4-30.67-29.75-51.81-4.4-27.81-10.56-55.19-21.05-81.47-10.48-24.78-.67-49.03,9.71-71.66,89.09-260.45,104.59-539.97,175.96-804.62,23.59-64.78,61.54-124.03,87.41-187.46,12.92-49.16,19.12-99.76,27.73-149.8,10.04-87.81,51.34-169.06,55.61-257.28,6.74-135.98-11.18-319.6,124.12-398.89,27.23-14.84,58.11-18.15,87.95-24.22,4.94-1,9.79-2.08,11.92-5.41l1.03.15c61.24,8.87,176.53-61.86,221.11-85.49,123.38-70.9,211.43-108.81,293.5-208.48l4.98,2.41c.71,7.03,1.14,14.14,1.41,21.3,2.21,57.37-5.9,117.85,32.56,166.22,241.7,206.32,441.15-17.28,454.02,462.36-2.45,68.84,4.93,136.81,28.83,201.85,29.5,92.36,32.66,190.02,59.79,282.74l-3.26,2.45h3.26c37.99,75.36,79.26,150.48,100.94,232.93,39.23,192.01,61.56,387.71,114.76,576.8,9.57,65.76,25.59,130.48,51.39,192.01,6.51,17.1,8.01,34.92,1.45,52.02-11.15,29.06-16.4,59.5-22.25,89.74-2.76,14.3-12.13,23.83-20.24,33.85-15.07,18.65-28.97,37.86-40.38,58.92-3.96,7.3-6.54,18.27-17.76,14.25-15.89-6.51-6.1-25.91-11.55-30.54l-4.7-1.16c-9.78,7.07-20.49,14.57-32.26,22.86-36.41-29.77,39.14-61.9,28.82-73.82l-.85-1.99c-7.49,3.17-15.8,6.08-25.06,8.75-4.43,2.83-8.06,7.58-13.05,2.87-20.92-29.52,64.44-49.98,69.48-95.67,5.58-23.36-.49-43.82-3.08-65.41-.4-3.39-.84-6.86-1.42-10.32l-3.22.52c-6.85-1.59-12.91-4.5-18.59-8.03l-.95,1.51c-7.79,33.08,10.14,73.54-14.66,101-33.49,29.37-37.85-48.27-33.67-68.33,9.51-60.22-35.8-115.17-7.6-174.63,56.71-134.69-235.19-479.34-234.55-693.56-14.37-156.89-107.45-292.91-144.42-444.73h-3.26c-10.85,13.28-10.66,30.52-13.94,45.76-26.97,110.43-62.5,218.31-82.78,330.37-23.63,120.6,66.99,214.64,97.47,324.83.03.08.06.17.08.25l-2.45.81c-173.22,148.94-301.55,352.51-389.29,561.94l-1.87.59c-15.32-11.61-34.99-11.72-49.3.94l-.96-1.53c-91.61-206.56-214.59-413.91-389.28-560.31l-4.38-1.52c3.43-9.87,6.99-19.7,10.68-29.5,25.62-82.31,84.85-153.51,91.69-240.99-5.13-130.06-54.21-252.64-84.92-377.9-6.17-19.45-10.27-39.3-13.32-59.35Z"/><path class="cls-2" d="M1270.89,5198.58l4.15.53c28.96,27.77,37.07,77.89,81.34,86.97,25.35,1.81,27.02,43.5.24,48.75-9.51,2.46-14.64,14.26-26.17,15.97-16.41,2.43-32.61,6.3-48.89,9.56l-5.46-.09c-41.36,45.47-153.39,45.7-160.55-21.09-2.7-58.89,22.94-115.08,7.27-174.48-15.14-64.12,32.03-126.82,24.66-191.96-1.85-25.91,9.2-50.63,4.17-76.67-7.76-165.73-15.38-332.63-29.54-498.35-.72-110.52,25.8-217.89,35.65-327.39l-1.62-3.25c-70.55-238.85-3.07-492.25-22.76-737.86-6.95-144.85-33.47-290.1-10.89-434.82,2.45-17.55,2.12-36.82,14.1-52.2l2.77-2.52c-3.19-2.83-6.32-5.76-9.38-8.78-1.61-1.61-3.29-3.08-5.03-4.4l1.87-.59c87.74-209.43,216.07-413,389.29-561.94l2.45-.81c44.31,133.57,76.4,273.04,91.29,412.96,42.87,436.49-204.65,835.7-207.33,1267.16,7.08,131.23,36.54,262.27,22.83,394.23-21.71,260.22-156.3,504.27-151.99,767.13,4.1,27.6,7.99,55.07,2.04,83.14-.84,3.97-2.56,7.46-4.51,10.8Z"/><path class="cls-2" d="M1341.82,451.09c11.49,12.17,5.9,26.11,3.01,39.04-6.14,24.72-19.36,106.28-53.5,101.04l-1.76-.12c3.25-9.04,6.39-18.09,8.58-27.5,6.32-27.06,14.61-53.69,24.1-79.89,4.29-11.86,8.38-23.37,16.75-33.54l2.82.97Z"/><path class="cls-2" d="M1335.35,271.91c19.42,55.14,30.76,123.17,4.47,177.23-.28.32-.55.65-.82.98-8.37,10.17-12.46,21.68-16.75,33.54-9.49,26.2-17.78,52.83-24.1,79.89-2.19,9.41-5.33,18.46-8.58,27.5-4.87,13.52-9.99,26.98-12.64,41.48l-3.52-.64c-16.78,26.85-33.56,50.2-50.59,70.89-82.07,99.67-170.12,137.58-293.5,208.48-44.58,23.63-159.87,94.36-221.11,85.49l-1.03-.15c.31-.48.56-1,.74-1.57,32.6-66.08,63.28-132.92,73.52-206.79,43.7-225.29-27.87-604.13,274.1-667.21,115.26-5.66,241,27.71,279.81,150.88Z"/><path class="cls-2" d="M1273.41,631.89l3.52.64c-.74,4.01-1.28,8.1-1.58,12.3-1.62,23.16-15.3,45.41-26.55,66.78-3.4,6.46-6.59,14.41-16.11,14.75l-3.48.13c-.27-7.16-.7-14.27-1.41-21.3l-4.98-2.41c17.03-20.69,33.81-44.04,50.59-70.89Z"/><path class="cls-2" d="M1061.42,2840.46l3.5,1.74c52.96,184.09-.96,379.02.31,566.86-7.4,219.25,44.66,442.75-19.85,658.02l-1.63,3.25c8.89,126.51,42.59,252.02,31.7,379.47-5.49,81.96-14.75,163.84-19.26,245.96-5.26,75.44,1.89,151.31-9.16,226.45-1.51,10.25,4.48,19.21,5.1,29.3-.12,51.71,9.13,102.1,24.59,151.4,6.44,26.46,2.86,52.57-1.01,78.19-8.45,47.61,5.47,93.35,10.12,140.19,9.65,83.68-117.46,89.32-162.03,38.85l-3.84.22c-18.96-4.56-38.72-4.96-57.16-12.68-8.26-3.46-12.78-13.58-19.47-14.27-18.65-1.94-17.75-13.97-17.89-26.8-.14-13.38,9.57-18.94,19.66-20.76,44.75-8.63,50.47-61.28,82.19-86.74l2.1-.88c-.99-2.42-1.84-4.87-2.46-7.38-6.03-24.58-4.37-49.58-1.18-74.9,11.26-280.78-145.44-539.72-152.97-819.09-13.27-128.13,28.47-254.95,26.09-382.83-22.46-467.66-299.17-910.85-185.53-1386.26,17.09-89.35,37.79-177.83,67.69-263.69l4.38,1.52c174.69,146.4,297.67,353.75,389.28,560.31l.96,1.53c-.75.66-1.49,1.36-2.21,2.1-3.9,3.78-7.91,7.42-12.02,10.92Z"/><path class="cls-1" d="M643.06,1337.17c33.82,68.67,30.83,145.23,42.1,219.17,3.05,20.05,7.15,39.9,13.32,59.35,30.71,125.26,79.79,247.84,84.92,377.9-6.84,87.48-66.07,158.68-91.69,240.99-3.69,9.8-7.25,19.63-10.68,29.5-29.9,85.86-50.6,174.34-67.69,263.69-113.64,475.41,163.07,918.6,185.53,1386.26,2.38,127.88-39.36,254.7-26.09,382.83,7.53,279.37,164.23,538.31,152.97,819.09-3.19,25.32-4.85,50.32,1.18,74.9.62,2.51,1.47,4.96,2.46,7.38,4.25,10.35,10.95,20.07,11.74,31.83"/><path class="cls-1" d="M1517.73,1561.95c-10.85,13.28-10.66,30.52-13.94,45.76-26.97,110.43-62.5,218.31-82.78,330.37-23.63,120.6,66.99,214.64,97.47,324.83.03.08.06.17.08.25,44.31,133.57,76.4,273.04,91.29,412.96,42.87,436.49-204.65,835.7-207.33,1267.16,7.08,131.23,36.54,262.27,22.83,394.23-21.71,260.22-156.3,504.27-151.99,767.13,4.1,27.6,7.99,55.07,2.04,83.14-.84,3.97-2.56,7.46-4.51,10.8-3.73,6.37-8.33,12.23-9.35,20.01-.5,3.77-.29,7.71-1.16,11.47"/><path class="cls-1" d="M1232.69,726.36c9.52-.34,12.71-8.29,16.11-14.75,11.25-21.37,24.93-43.62,26.55-66.78.3-4.2.84-8.29,1.58-12.3,2.65-14.5,7.77-27.96,12.64-41.48,3.25-9.04,6.39-18.09,8.58-27.5,6.32-27.06,14.61-53.69,24.1-79.89,4.29-11.86,8.38-23.37,16.75-33.54.27-.33.54-.66.82-.98,26.29-54.06,14.95-122.09-4.47-177.23-38.81-123.17-164.55-156.54-279.81-150.88-301.97,63.08-230.4,441.92-274.1,667.21-10.24,73.87-40.92,140.71-73.52,206.79-.18.57-.43,1.09-.74,1.57-2.13,3.33-6.98,4.41-11.92,5.41-29.84,6.07-60.72,9.38-87.95,24.22-135.3,79.29-117.38,262.91-124.12,398.89-4.27,88.22-45.57,169.47-55.61,257.28-8.61,50.04-14.81,100.64-27.73,149.8-25.87,63.43-63.82,122.68-87.41,187.46-71.37,264.65-86.87,544.17-175.96,804.62-10.38,22.63-20.19,46.88-9.71,71.66,10.49,26.28,16.65,53.66,21.05,81.47,3.35,21.14,17.16,36.47,29.75,51.81,13.86,16.89,26.28,34.32,35.39,54.09,2.5,5.41,7,8.25,10.89,10.95,18.67-4.13,10.09-21.99,16.89-32.17"/><path class="cls-1" d="M1520.99,1561.95c36.97,151.82,130.05,287.84,144.42,444.73-.64,214.22,291.26,558.87,234.55,693.56-28.2,59.46,17.11,114.41,7.6,174.63-4.18,20.06.18,97.7,33.67,68.33,24.8-27.46,6.87-67.92,14.66-101"/><path class="cls-1" d="M1043.75,4070.33c8.89,126.51,42.59,252.02,31.7,379.47-5.49,81.96-14.75,163.84-19.26,245.96-5.26,75.44,1.89,151.31-9.16,226.45-1.51,10.25,4.48,19.21,5.1,29.3-.12,51.71,9.13,102.1,24.59,151.4,6.44,26.46,2.86,52.57-1.01,78.19-8.45,47.61,5.47,93.35,10.12,140.19,9.65,83.68-117.46,89.32-162.03,38.85-4.28-4.85-7.8-10.21-10.36-16.07"/><path class="cls-1" d="M1227.8,705.19c.71,7.03,1.14,14.14,1.41,21.3,2.21,57.37-5.9,117.85,32.56,166.22,241.7,206.32,441.15-17.28,454.02,462.36-2.45,68.84,4.93,136.81,28.83,201.85,29.5,92.36,32.66,190.02,59.79,282.74"/><path class="cls-1" d="M1804.41,1842.11c37.99,75.36,79.26,150.48,100.94,232.93,39.23,192.01,61.56,387.71,114.76,576.8,9.57,65.76,25.59,130.48,51.39,192.01,6.51,17.1,8.01,34.92,1.45,52.02-11.15,29.06-16.4,59.5-22.25,89.74-2.76,14.3-12.13,23.83-20.24,33.85-15.07,18.65-28.97,37.86-40.38,58.92-3.96,7.3-6.54,18.27-17.76,14.25-15.89-6.51-6.1-25.91-11.55-30.54"/><path class="cls-1" d="M1136.59,2842.2c-11.98,15.38-11.65,34.65-14.1,52.2-22.58,144.72,3.94,289.97,10.89,434.82,19.69,245.61-47.79,499.01,22.76,737.86"/><path class="cls-1" d="M1064.92,2842.2c52.96,184.09-.96,379.02.31,566.86-7.4,219.25,44.66,442.75-19.85,658.02"/><path class="cls-1" d="M680.52,1557.06c-34.2,126.48-95.72,243.04-133.27,368.18-14.75,70.89-15.01,144.45-39.5,213.28-33.13,141.24-252.84,446.78-209.66,556.9,32.61,60.44-15.36,118.66-5.68,181.04,3.47,21.12,1.32,97.98-33.75,65.1-17.62-18.44-12.66-41.65-12.81-63.52-.08-12.15,5.8-24.64-3.48-35.84"/><path class="cls-1" d="M1102.38,1161.26c-13.11,301.58,8.11,604.07-3.25,905.62"/><path class="cls-1" d="M1157.76,4070.33c-9.85,109.5-36.37,216.87-35.65,327.39,14.16,165.72,21.78,332.62,29.54,498.35,5.03,26.04-6.02,50.76-4.17,76.67,7.37,65.14-39.8,127.84-24.66,191.96,15.67,59.4-9.97,115.59-7.27,174.48,7.16,66.79,119.19,66.56,160.55,21.09,5.25-5.77,9.36-12.27,11.97-19.45"/><path class="cls-1" d="M1516.11,2263.97c-173.22,148.94-301.55,352.51-389.29,561.94"/><path class="cls-1" d="M685.41,2265.6c174.69,146.4,297.67,353.75,389.28,560.31"/><path class="cls-1" d="M1273.41,631.89c-16.78,26.85-33.56,50.2-50.59,70.89-82.07,99.67-170.12,137.58-293.5,208.48-44.58,23.63-159.87,94.36-221.11,85.49"/><path class="cls-1" d="M796.17,2887.81c89.21,32.37,193.07,14.09,265.25-47.35,4.11-3.5,8.12-7.14,12.02-10.92.72-.74,1.46-1.44,2.21-2.1,14.31-12.66,33.98-12.55,49.3-.94,1.74,1.32,3.42,2.79,5.03,4.4,3.06,3.02,6.19,5.95,9.38,8.78,73.86,65.58,181.45,80.68,272.5,44.87"/><path class="cls-1" d="M1561.71,1330.66c-37.61,67.49-34.9,145.4-43.97,219.89-.34,3.49.2,6.68,3.25,8.96"/><path class="cls-1" d="M1936.34,2666.29c-24.79,58.18,8.05,110.43,35.32,159.92,3.7,6.48,5.68,14.2,6.99,21.99.58,3.46,1.02,6.93,1.42,10.32,2.59,21.59,8.66,42.05,3.08,65.41-5.04,45.69-90.4,66.15-69.48,95.67,4.99,4.71,8.62-.04,13.05-2.87,9.26-2.67,17.57-5.58,25.06-8.75,64.64-27.35,68.17-73.73,88.81-142.97"/><path class="cls-1" d="M265.17,2669.55c22.56,52.1-5,100.77-30.45,145.27-5.74,9.52-10.04,20.23-12.26,31.53-.58,2.92-1.02,5.89-1.31,8.88-9.7,51.32-13.19,86.16,34.52,118.57,12.21,9.72,51.5,31.97,27,48.24-11.64-6.25-22.25-15.98-37.05-13.7"/><path class="cls-1" d="M139.75,2868.26c20.07,109.74,27.85,137.07,101.83,190.76,10.57,7.67,22.49,15.88,35.99,24.94,21.14-21.02-.69-39.54-15.71-54.39-6.26-6.23-12.18-12.84-18.32-19.2-7.75-8.02-15.88-15.64-25.58-21.61-44.08-26.77-43.39-79.84-57.03-123.75"/><path class="cls-1" d="M2060.13,2868.26c5.57,11.46-4.04,20.46-5.49,30.87-14.26,91.51-38.83,118.6-98.57,161.8-9.78,7.07-20.49,14.57-32.26,22.86-36.41-29.77,39.14-61.9,28.82-73.82"/><path class="cls-1" d="M1275.04,5199.11c28.96,27.77,37.07,77.89,81.34,86.97,25.35,1.81,27.02,43.5.24,48.75-9.51,2.46-14.64,14.26-26.17,15.97-16.41,2.43-32.61,6.3-48.89,9.56"/><path class="cls-1" d="M927.29,5199.11c-31.72,25.46-37.44,78.11-82.19,86.74-10.09,1.82-19.8,7.38-19.66,20.76.14,12.83-.76,24.86,17.89,26.8,6.69.69,11.21,10.81,19.47,14.27,18.44,7.72,38.2,8.12,57.16,12.68"/><path class="cls-1" d="M1341.82,451.09c11.49,12.17,5.9,26.11,3.01,39.04-6.14,24.72-19.36,106.28-53.5,101.04"/><path class="cls-1" d="M1200.11,2314.46c-26.01,24.31-46.56,52.59-61.89,84.7"/><path class="cls-1" d="M1007.91,2320.98c20.15,25.32,45.78,49.89,55.38,81.44"/><path class="cls-1" d="M1926.57,2819.4c10.59,6.26,19.81,14.81,30.27,21.29,5.68,3.53,11.74,6.44,18.59,8.03"/><path class="cls-1" d="M271.69,2819.4c-10.39,7.51-19.84,16.59-31.21,22.49-4.45,2.32-9.19,4.14-14.4,5.2"/><path class="cls-1" d="M400.36,1842.11c6.21,9.11-2.9,17.26-1.63,26.06"/><path class="cls-1" d="M1801.15,1842.11c-4.78,9.02.02,17.44,1.63,26.06"/></svg>