<?xml version="1.0" encoding="UTF-8"?>
<svg id="_Слой_1" xmlns="http://www.w3.org/2000/svg" version="1.1" viewBox="0 0 2200 5500">
  <!-- Generator: Adobe Illustrator 29.1.0, SVG Export Plug-In . SVG Version: 2.1.0 Build 142)  -->
  <defs>
    <style>
      .st0 {
        fill: #010101;
      }

      .st1 {
        fill: #fff;
      }

      .st2 {
        fill: #c3e0e3;
      }
    </style>
  </defs>
  <path class="st0" d="M2015.2,3053.6l-29.2,35.5c-5.6,6.9-15.7,7.9-22.6,2.4-5-4.1-7.1-10.7-5.3-16.9l3.2-11.2c.3-1-.2-2-1.2-2.3-.7-.2-1.4,0-1.9.5l-18.8,18.7c-5.3,5.4-13.9,5.6-19.7.6-7.6-6.7-13-14.4-16.3-22.9-1.3-3.3-.8-7,1.2-9.8l27.5-38.2,40.8-40.5c2.7-2.6,4.5-6.1,5.1-9.8l12.3-69c1.3-7.5-.3-15.2-4.6-21.5l-15.8-23.3c-1.4-1.9-4.1-2.4-6-1-1.2.8-1.9,2.2-1.8,3.7,1.9,35.2,5.5,72-27.3,91.9-2.9,1.7-6.4,2-9.5.9-7.7-2.8-14.2-7.4-19.7-13.8-3-8.2-4.3-14-3.9-17.4,4.8-47.5,5.1-79.4.8-95.7-13.9-53.1-23.5-79.3-5.9-128,8.5-23.4,9.1-38.2,4.3-61.1-30.5-144.9-138.3-281.6-188.6-423.1-25-70.5-39.2-121.1-42.8-151.8-5.3-46.6-3.6-110.7-28.5-162-49.1-101.1-85.9-205.9-110.4-314.4-.2-.9-1.1-1.6-2.1-1.4-.7.1-1.2.6-1.4,1.3l-13.6,49.9c-16.4,22.8-25.6,37.8-27.4,44.9-28.7,112.2-50.8,211.2-66.4,297.1-12.5,68.8,14.7,117.6,52.9,188.7,16.1,29.8,48.7,88.3,66.5,135.1,56.2,147.2,83.9,301.1,83.1,461.7-.3,58.3-4.8,122.3-13.6,192.1-17.3,137.8-49.6,289.7-96.8,455.5-53.9,189.9-81.3,286.5-82.3,290-23.6,92.6-30.1,183.2-19.3,271.7,9.8,80.5,15.5,128,17,142.6,15.3,149.9-3,286.5-37.2,434.4-27.3,117.9-59.1,244.8-95.3,380.7-10.8,40.4-26.9,109.2-17.9,156.2,3.6,18.3,5.2,35.1,5,50.3-.8,47.5,20,131,62.4,166.7,24,20.3,36.7,31.5,38,33.6,10.2,17.1,9.7,34.6-11.7,44.4-19.2,8.8-34.5,11.9-46,9.3-3.6-.9-7.4-.4-10.8,1.3-13.3,6.8-25.1,7.2-35.3,1.3-2.4-1.4-5.4-1.6-8-.4-19.2,8.5-36.6,8.9-51.9,1.1-2.4-1.2-5.3-1-7.6.4-7.7,5-17.4,7.6-29.1,7.8-28.7.6-46.4-13.2-53.2-41.3-9.3-38.9-13.3-78.3-12-118.1,1.1-31.8-4.9-55.6-6.1-80.5-1.9-40.2,1.3-63.5,14.7-104.3,11-33.6,17.2-61.4,18.5-83.2,9.4-149,6.3-282.1-9.3-399-12.6-94.7-16.2-181.5-10.7-260.2,4.2-60.4,17.5-131.8,19.6-193.1,1.8-51.4-3.1-89.5-15.3-148.9-11.3-54.1-17.8-106.3-19.7-156.6-1.8-49.5,7-111.1,12.3-165.6,13.2-129.2,12.5-259-2-389.2-14.7-128.8-18.1-237.1-10.1-325.1,1.5-16.1,6.3-48.6,14.4-97.7.4-2.5-1.2-4.9-3.8-5.4-.3,0-.7,0-1,0l-28.3,1.3c-2.9.1-5.2,2.6-5,5.5,0,.1,0,.2,0,.3,11.6,115.7,11.6,231.3.2,346.6-8.4,85.3-13.5,146.7-15.2,184.1-4.6,102.6-2.1,202.6,7.5,299.8,7.5,77.4,10.5,129.5,8.9,156.4-3.4,60.1-9.6,112-18.4,155.7-26.4,130.2,7.7,256.7,12.1,391.9,2.9,89.6-11.3,181.7-15.3,272.5-6.3,143.6-5.8,260.6,1.5,350.9,1.5,18.8,4.5,38.7,12.7,61.6,8.7,24,12.4,46.5,11.2,67.7-6.6,122.7-10.6,192-12.2,207.8-2.4,23.8-9.2,49.6-31.3,60.5-21.3,10.6-41.6,9.2-60.7-4.1-2.1-1.4-4.8-1.5-6.9-.2-16.8,10.5-34.7,10.9-53.7,1-2.3-1.2-5.1-1.2-7.5,0-12.4,6-24.4,5.7-36-1-2.3-1.4-5-1.9-7.6-1.4-11.5,1.9-29.4-2.5-53.6-13.2-2.6-1.1-4.8-3.3-5.9-6-6-13.9-3-26.1,8.8-36.7,37.1-33.2,64.3-54.9,83-101,16.1-39.7,22.8-81.4,19.8-125.2,12.5-39.8,14.1-76.6,4.8-110.3-39.2-142.7-77-285.6-113.3-428.9-17-66.8-31-135.2-42.2-205.2-10-99.2-9.4-188.6,1.7-268.4,9.9-71.1,15.6-125,17.3-161.7,7.2-86.1-.2-167-22.2-242.5-76.3-261.9-138.1-477.9-172-727.3-2.5-34.2-4.9-69.5-7.3-105.9-8.6-134.3.4-264,27.1-388.9,19.1-89.1,44.3-168.3,75.6-237.7,12.3-27.2,35.2-75.2,68.5-143.9,17.9-36.8,23-77.2,15.3-121-14.4-82.4-30.1-153.5-47.1-213.1-5.2-17.9-11.3-43.8-18.5-77.4-6.1-28.3-16.9-59.6-32.4-93.8-.3-.8-1.2-1.3-2-1-.6.2-1.1.8-1.1,1.5-1.1,15.6-4.7,31.9-10.6,48.9-47.3,134-74.6,207.3-81.8,220.2-17.8,31.5-30.7,61.1-38.9,88.7-11.1,37.5-9.1,86.6-15.2,121.8-25.1,145.3-88.9,259.1-166,405.2-35.6,67.4-64.5,133.1-70.6,203.1-.6,7.4.3,14.7,2.6,21.7,12.7,38.2,12.2,60.9,1.2,97.4-13.8,45.8-18.2,89.9-15.5,138.6,1,19.2-7,29.3-23.9,30.3-13.9,8.7-23.3,4.3-28.4-13.3-7.4-25.3-9.1-50.6-5.1-76,.3-2.1-1.1-4-3.1-4.3-1.2-.2-2.3.2-3.2,1-32.2,30.7-14.1,104.1,5.4,137.3,6.8,11.6,23,30.1,48.7,55.5.8.8,2.1.8,2.9,0l1.8-1.8c1-1,1-2.6.2-3.7-16.6-20.9-50.6-52.4-53.4-84.4-.1-1.4.9-2.6,2.2-2.7,1-.1,2,.4,2.4,1.4,12.2,24.1,30.6,49.3,55.4,75.5,5.6,5.9,6.6,14.8,2.5,21.8l-14,24.1c-2.9,5-9.3,6.7-14.2,3.8-.8-.4-1.4-.9-2.1-1.6l-23.9-23.2c-.8-.9-2.2-.9-3,0,0,0,0,0,0,0-.9.9-.9,2.3,0,3.2,12.7,13.7,10.7,25.4-6.1,35.3-4.6,2.7-10.4,1.8-14.1-2-29.5-30.6-51.1-65.1-64.9-103.2-12.2-33.8-14.3-73.2-24.1-109-1.8-6.4-1.7-13.2.3-19.6l18.9-60.6c17.9-45.9,32.6-95.2,44.2-147.8,23.8-107.8,39-183.2,45.6-226.1,23.4-151.7,38.7-281.4,84.3-414.2,15.9-46.2,46.3-96.5,68.6-136.5,5.6-10.1,9.8-20.9,12.3-32.1,8.4-38.2,16.7-82.6,24.9-133.1,9.7-59.9,27.2-135.2,52.5-225.7,4.5-16.1,6.9-28.5,7.2-37.2,3.5-96.1,6.6-159.6,9.6-190.3,13.5-142.4,54.7-244,209-263.6,2.8-.3,5.5-1.6,7.5-3.7,56-56.5,75-141.7,80-213.9,6.4-93.5,10.4-267,37.7-396.8,27.4-130,111-247.2,253.4-260.3,150.3-13.9,260.2,99.8,295.8,240.2,29.2,115.3,31.8,215.4,40.8,360.1,5.3,85.3,15.9,159.5,51.1,225.4,7.9,15,21.9,31.6,41.9,50,2.3,2.1,5.1,3.6,8.2,4.4,15.4,4,33.1,5.2,50.1,10.6,74.8,23.8,121.1,76.7,138.9,158.7,21.2,97.7,21.1,189.1,23.4,283.4.2,6.5,2.5,16.8,6.9,30.9,21.2,67.9,37.2,133,48,195.1,13,74.7,19.9,113.4,20.5,116.1,12.5,56.4,31.7,88.4,60.5,142.7,42.1,79.4,62.4,169.2,76.8,267.2,11.4,78.6,30.3,195.6,56.8,351,17.8,105,44.6,209.1,80.4,312.3,1.1,3.3,1.3,6.9.4,10.3-8.7,32.1-10.4,63.2-22.9,96.1-11.1,29.4-24.5,56.1-40.2,80.2h0ZM728.4,988.9c41.6-8.4,81.8-19.9,120.4-34.6,73.6-27.9,122.8-67.8,125.7-153.7.5-16,.2-37.1-1-63.5-.3-6.1-2.4-11.9-6-16.8-25.8-35.4-43.3-74.4-52.5-117.1-.8-3.6-3.7-6.1-8.8-7.6-3.8-1.1-7.4-3.1-10.7-5.9-26.8-22.9-39.9-58-39.1-105.2.3-16.7,5.5-25.7,15.8-26.9,1.4-.2,2.7.1,3.9.8l10.2,5.9c1.8,1,3.9,1.4,6,1,95.5-17.1,169.9-68.3,223.2-153.8,5.2-8.3,4.2-19.9-2.6-29.3-6.5-8.9-10.3-14.7-11.4-17.4-.6-1.4,0-3.1,1.5-3.7.8-.4,1.8-.3,2.6.2,3.7,2.2,8.1,7,13.2,14.2,1.3,1.9,3.2,3.2,5.4,3.8,1.3.4,2.1.6,2.3.6,2.8,1.2,4.6,4,4.4,7.1-1.2,18.1,4.5,36.1,17.3,54.1,36.8,52,82,82.6,141.7,99.5,34.3,9.6,52.2,14.7,53.7,15.4,2.6,1,4.3,3.6,4.3,6.4-.3,42.6-8.5,100.7-46.5,127-3.8,2.6-6.3,6.5-7.2,11-8.6,43.3-27,83.2-55.2,119.9-2.1,2.6-3.3,5.8-3.6,9.1-5.7,61-3.7,125.8,36.2,172.8,23,27.1,65.9,46.6,101.2,58.6,25.9,8.8,65,20.7,117.3,35.5,1.2.4,2.5-.3,2.8-1.5.3-.9,0-1.8-.7-2.4-19.5-16.5-34.3-36.8-44.3-60.8-38.7-92.8-47.5-201-51.4-322.2-3-92.5-13.7-175-32-247.4-31.3-123.4-127.6-237.8-264.7-235.4-155.6,2.7-246.5,135.8-270.2,279.4-13.5,81.5-21,148.6-22.5,201.5-2.9,103.8-5.3,221-44.5,321.5-5.9,15.1-18,33.9-36.1,56.3-.8.9-.7,2.3.3,3.1.5.4,1.2.6,1.9.5h0ZM1316.9,456.4c-87.8-14.6-151.7-60.4-191.7-137.5-.4-.9-1.5-1.3-2.4-.9-.3.1-.6.4-.8.7-52.7,84.9-127.1,136.2-223.1,153.8-4.3.8-7.3,4.8-6.9,9.1,5,57.9,22.1,91.5,40.1,148.9,11.4,36.6,29.7,70.3,54.7,101.2,43.9,54,113.8,87.7,178.6,43.3,56.2-38.5,93.7-90.2,112.3-155,7.7-26.8,12.2-42,13.7-45.5,10.1-24.6,29.9-67.5,23.8-94.8-1.1-5-.8-8.3.8-10,4-4.2,6.1-6.5,6.1-6.8.3-3.2-1.9-6-5-6.5h0ZM1333.2,463.2c-4.4-.5-8.7,5-9.6,12.4h0c-.9,7.4,1.9,13.9,6.2,14.4h0c4.4.5,8.7-5,9.6-12.4.9-7.4-1.9-13.9-6.2-14.4ZM905.7,575.6c-9.8-20.1-17.2-49.6-22.2-88.6-.6-4.9-.4-8.8.7-11.7.6-1.8-.3-3.8-2.1-4.5-.3-.1-.6-.2-.9-.2l-9.1-.7c-2-.2-3.8,1.3-4,3.3-4.8,41.8,4.9,77.7,29.3,107.6,1.8,2.1,5,2.3,7,.5,1.7-1.5,2.2-3.8,1.3-5.9h0ZM1327,493.6l-23.8,77.3c-.2.5,0,1,.5,1.1h0l.7.2c5.7,1.7,15.1-13,21.2-32.7l2.3-7.3c6.1-19.8,6.4-37.2.8-38.9l-.7-.3c-.5-.1-.9.2-1.1.6h0ZM1472,1673.2c-.6.2-7.7,4.1-21.4,11.8-72,40.7-170.6,14.1-240-24.7-.9-.5-1.3-1.7-.8-2.6,0,0,.1-.2.2-.3l2.4-3c.3-.4.8-.5,1.1-.3,30.5,15.2,62.9,26.6,97.2,34.3,72.2,16.2,161.8,1,193.9-71.9,33.2-75.3,18.1-161.7,2.1-243.6-.6-3.1-.7-6.4-.3-9.6,2.5-18.2,10.3-34.3,23.7-48.4.7-.7,1.7-.8,2.5-.2l2.5,1.9c1.4,1.1,1.7,3.3.5,4.8,0,0,0,0,0,0-10.5,12.5-16.8,26.1-18.9,40.9-.6,3.9-.5,7.8.3,11.7,12.4,58.6,18.2,114.6,17.4,168,0,5.2.5,10.3,1.8,15.3,28.5,115.2,67.1,225.1,116,329.7,13.4,28.8,20.3,51.3,20.6,67.4,3.2,162.6,68.8,302.2,148.6,448.4,30.7,56.3,59.4,121,81.9,182.7,13.4,36.6,15.1,70,5.1,100.3-7.9,23.9-14,54.4-7.9,75.8,10.3,35.9,15.5,57.4,15.4,64.6-.2,34.7-1,61.1-2.3,79.4-.8,10.6,1.3,18.4,6.1,23.3,4.9,5.1,13.5,4.7,19.1-.8.2-.1.3-.3.4-.4,8-8.4,11.9-18.8,11.8-31.1-.5-41.6,4.9-80.4,16.4-116.1.6-1.7,2.4-2.6,4.1-2.1.7.2,1.3.7,1.7,1.3,5.1,7.8,3,21.1-6.3,40-3.1,6.2-1.1,13.8,4.6,17.8,20.7,14.3,30.1,35.6,28.3,63.8-1.8,28.6-5.4,50.7-10.8,66.3-1,3-1.1,6.3-.4,9.4,0,0,.3.8.8,2.2,1.1,3.2.7,6.8-1,9.8-16.2,28.5-38.4,52-66.8,70.5-1.7,1.1-2.6,3.2-2.2,5.2l.4,2.6c.5,2.6,3,4.4,5.6,3.9.5,0,.9-.2,1.3-.4,28.7-14.1,50.6-36.8,65.7-67.8,1.3-2.6,2.1-5.4,2.5-8.3,2.4-19.1,9.2-39.1,20.5-60.1,1.6-2.9,2.2-6.2,1.7-9.5-1.3-8-1.9-13.9-1.8-17.8,0-1.4,1-2.5,2.3-2.6,1.4,0,2.5,1,2.6,2.3h0c4.8,27.4.1,50.9-14.2,70.7-1.9,2.6-3.1,5.6-3.4,8.9-3.5,34.1-26.3,67.2-34.7,86-1.4,3.3,0,7.1,3.4,8.5.4.2.8.3,1.3.4h.3c4.9,1.1,9.9-.9,12.8-4.9,31.5-43.9,65.3-98.4,72-151,2.1-16,5-33.1,8.9-51.5.9-4.2.6-8.6-.9-12.6-26.1-69.5-46.1-138.4-60-206.5-21.6-105.9-49.5-271.2-83.7-495.8-12.8-83.5-40.9-166.4-84.4-248.8-26.9-51-42-86.5-48.7-133.8-14.8-105.5-36.4-200.3-64.7-284.4-4.4-13.2-5-26.2-6.9-40.4-.2-1.6-2.4-53.8-6.8-156.7-5.3-125.1-29.1-252.1-173.2-282-.8-.2-17.3-3-49.5-8.3-32.8-5.4-82.6-21-149.5-46.7-97.4-37.3-123.7-119.9-114.1-214.5.1-1.7-1.1-3.2-2.8-3.3-.9,0-1.8.3-2.4.9-21.6,23.2-45.8,41.2-72.8,53.9-58.3,27.5-117.3-5.7-158.8-48.8-.9-1-2.4-1-3.4,0-.5.5-.8,1.2-.8,2,2.8,27.8,1.5,56.8-3.6,87-12.3,72.2-65.8,104.4-130.2,128.4-51,19.1-97.4,32.1-139.2,39-45.1,7.5-75.3,15.2-90.8,23-50.3,25.6-83.5,67.7-99.6,126.3-24.6,90-25.3,176.6-27.8,277-.4,17.1-3.5,41.6-7.6,55.7-31.6,109.6-54.9,217.1-69.6,322.5-11.4,81.2-64.8,137.4-90.9,210.4-20.9,58.3-36.3,121.1-46.4,188.4-26.7,177.9-55.3,334.7-85.8,470.4-7.6,33.9-27.3,95.5-59.2,184.8-3.7,10.5-1.9,22,5.6,34.6,2.1,3.6,3.3,7.6,3.5,11.7,3.3,66.7,28.3,125.5,74.9,176.4,1.8,1.9,4.3,2.3,7.6,1.3,3.7-1.1,5.9-4.9,4.8-8.5,0-.1,0-.2-.1-.3-8.8-25.4-21.1-52.5-36.8-81.3-6.2-11.2-20.2-58.9-5.9-73.4,1.9-1.9,3.2-4.5,3.5-7.2,4.9-44,10.1-51.8,32.9-83.7,1.7-2.4,2.1-5.5,1-8.3-4-9.9-5.7-19.5-5.3-28.9.1-2.6,2.3-4.6,4.8-4.4,2,0,3.7,1.5,4.3,3.4,11.1,39.9,6.8,90.4,10.8,129.8.9,9.4,8.6,16.6,18.1,17.1h.8c8.2.5,15.2-5.8,15.6-14.1,0-.6,0-1.1,0-1.7-4.1-59.9,3.1-117,21.8-171.3,4.4-12.6,4.9-26.3,1.5-39.2l-11-41.6c-1.3-4.9-1.7-9.9-1.2-14.9,4.8-56.5,26-108.1,51.3-161.3,56-118.1,142.3-255.6,177.4-399.7,9.9-40.9,13.7-89,17.4-130.8,1.9-22.1,9.3-53.9,16.8-69.2,45.1-91.9,83.2-187.6,114.2-287.1,1.2-4,5.3-22,12.2-53.9,1.5-6.8,2.1-13.8,1.8-20.9-1.4-33.3-.4-62.8,3-88.4,6.6-49.7,10-77.1,10.3-82.1.8-6.8-.3-13.8-3.2-20l-11.2-24.6c-.8-1.5-.1-3.4,1.4-4.1,1.3-.7,2.9-.3,3.8.9,18.9,22.4,21.7,39,16.9,70.3-10.2,67.8-20.9,129.9.7,198.2,43.7,138.2,183.7,123.1,287.6,75.4,1.2-.6,2.7,0,3.3,1.1l.2.3c.5,1,.1,2.3-.9,2.9-81.5,46.6-190.5,63.5-262.3-11.5-1.1-1.2-2.9-1.3-4.1-.2-.8.8-1.2,1.9-.8,3,29.7,98.8,53.2,196.9,70.7,294.4,9.4,52.3,1.4,102.5-24,150.7-30.2,57.3-54.2,107.5-72.2,150.5-1.2,2.8-.5,6,1.7,8.2,37.2,35.3,72,73.3,104.5,113.9,100.6,125.6,185.4,260.7,254.3,405.4,1.2,2.5,8.7,12.9,22.5,31.3,1.5,2,3.8,3.3,6.4,3.5l35.3,2.5c3.2.2,6.2-1.3,7.9-4,17.6-28.4,27.1-43.8,28.3-46.4,69.6-141.6,153.6-273.3,251.9-395,31.4-38.9,62.1-69,102.1-108.4,2.9-2.9,3.6-7.3,1.7-10.9-48.4-93-75.2-144.7-80.4-155.2-24.4-48.7-30.3-101.8-17.5-159.5,34.6-157.1,55.2-243.5,61.8-259.4.5-1.3,0-2.8-1.3-3.3-.5-.2-1.1-.3-1.7,0h0ZM1017.2,5337.8c0,0-.8-.5-2.4-1.6-3-2.1-7-2-10,.2-10.2,7.2-16.1,16.4-17.7,27.4-.4,3,.7,5.9,2.9,7.8,22.3,19.1,53.1,14,68.7-10.5,5.4-8.7,9-24.7,10.6-48.1,3.1-44.2,6.5-110.6,10.2-199.1,1.7-39.6-18.2-71.1-22.2-110.8-15.5-153-8.7-326,6.5-495,8.3-92.8,7.8-174-1.4-243.8-8-61-15.4-121.4-16-179.9-.3-37.4,1.1-64,4.5-79.7,18.1-85.6,26.4-153.7,24.9-204.3-1-34.1-5.7-102.8-14-206.1-10.6-131.1-2.4-263.4,11.8-398,12.9-122.1,13.7-244.8,2.4-368-.2-2.9-1.2-5.8-2.9-8.2-13.5-19.6-23.5-32.4-34.7-55.5-84.4-174.3-192.2-332.7-323.5-475.1-7.3-7.9-15.4-15.4-24.2-22.4-1-.8-2.4-.6-3.2.4-.2.2-.3.4-.4.6-74,200.1-101,407.5-81,622.2,12.9,138.1,37.4,275.6,73.5,412.7,38.2,145.2,68.7,255.2,91.2,329.9,26.3,87.1,38.9,170.3,37.8,249.6-.4,30.1-5.2,82.4-14.5,157.2-16.3,131-20.1,243-.7,350.9,33,183.1,95.1,391.4,140.4,563.3,10.1,38.2,15.4,65.9,15.9,83,.5,19.4-11.9,47.6-12.4,68.2-1,50.3-5.2,80.9-26,130.4-14.2,34-48.5,62.5-73.9,86-5.5,5.1-10,11.4-13.4,18.8-1.8,3.9-1.3,8.4,1,11.8l4.2,6.3c1.3,2,4,2.6,6.1,1.3,1.2-.8,1.9-2,2-3.4,1.7-19.6,13.4-32.6,35.1-38.9.3,0,.7,0,.9.4l1.4,2c.5.8.3,1.9-.5,2.4,0,0-.1,0-.2,0-16.5,7.4-25.6,18.6-27.1,33.7-.6,5.8,3.4,11.1,9.1,12.1l8.7,1.5c4.3.8,8.4-2,9.1-6.2,0,0,0,0,0,0l2.9-16.3c.7-3.8,3.1-7.1,6.6-8.8,9.2-4.7,16.8-10.9,22.7-18.5,1.2-1.4,3.2-1.7,4.7-.5,1.1.9,1.5,2.3,1.1,3.6-5.9,19.2-33,15.3-26.6,44.6.8,3.9,4.4,6.6,8.3,6.4l22-1c2.7,0,4.8-2.4,4.7-5.1h0c0-.1-.9-17.6-.9-17.6-.2-3.6,1.6-7.1,4.6-9.1l25.1-16.8c1.7-1.1,4-.7,5.1,1,.5.8.8,1.8.6,2.7l-.9,4.7c-.2,1.2-1.1,2.3-2.3,2.7-13.1,4.7-20.7,12-22.7,21.7-5.6,26.2,31.3,25.8,44.5,15.2,3.5-2.8,5.5-7.1,5.3-11.6-.6-12.7,8-25.2,25.8-37.6,1.7-1.2,4-.8,5.2.9.1.2.2.4.3.6,1.6,3.6,4.5,6.8,8.6,9.7.9.6,1.1,1.8.5,2.7-.4.6-1.2,1-2,.8h0ZM1189.2,5325.5c5.1-7,7.8-10.5,8.2-10.6,2.2-.8,4.7.3,5.5,2.5.1.4.2.8.3,1.2.6,8.1,5.7,15.5,15.3,22.1,2.1,1.4,3.4,3.7,3.5,6.2l.9,19.1c.3,5.8,4.5,10.5,10.2,11.5,12.4,2.2,23.3.8,32.4-4.4,2.7-1.5,4.4-4.4,4.3-7.5-.4-14.2-8.3-25-23.6-32.3-1.4-.7-2.1-2.2-1.7-3.6l.7-2.6c.5-1.7,2.3-2.7,4-2.2.2,0,.5.2.7.3,19.8,11.6,30,25.8,30.8,42.5.2,3.8,3,7,6.8,7.6,9.5,1.6,18.2-.4,26.1-5.8,5.2-3.6,6.6-10.7,3.1-15.9l-20.1-29.6c-.3-.6-.1-1.4.5-1.8.3-.2.8-.2,1.1,0,18.6,9.9,28.7,24,30.2,42.3.2,2.6,2.4,4.5,5,4.3.2,0,.4,0,.5,0l22.4-4.1c3.2-.6,5.4-3.7,4.8-7-.2-.8-.5-1.6-.9-2.3l-25.9-38.3c-.7-1-.5-2.3.5-2.9.7-.5,1.7-.5,2.4,0,18.1,12,27.6,25.2,28.5,39.7.1,1.9,1.8,3.3,3.7,3.2.9,0,1.8-.5,2.4-1.2,17.4-21.5-13.2-41.3-31.1-55-44.7-34-73.9-130.1-71.8-188.5.9-24.1-4.4-41.3-6.4-62.5-.8-7.9-.7-15.8.3-23.7,3.9-32.3,10.3-66,19.5-101,34.6-132.6,67.5-264.2,98.8-394.6,26.6-110.7,40.1-217.3,40.7-319.9.2-36.3-4.3-91.9-13.4-166.7-15-122.4-22.7-220.4-.3-315.8,16.8-71.6,41.3-158.8,73.5-261.6,20.2-64.6,45.1-160.5,74.6-287.8,26.9-115.7,43.9-228.7,51.1-338.9,12.5-190.4-8.9-396.3-86.6-567.1-1.3-2.9-4.7-4.1-7.5-2.8-.5.2-.9.5-1.3.9-20.8,18.1-43.9,42.4-69.5,72.8-85,101-158.9,207.5-221.8,319.4-28.8,51.1-54.2,106.5-84,154.5-2.4,3.9-3.9,8.2-4.6,12.7-17.2,120-20.4,230.8-9.7,332.5,11.5,108.6,18.1,196.3,20,263.1,3,105.8-6.8,176-19.4,313.2-7.7,84.2,4,152,20.5,238.1,20.5,106.8,9.5,168.3-5.3,301.3-9.8,88.7-4.5,178.9,8.2,295.1,10.1,92.9,14.7,183.1,14,270.7-.7,78.5-3.4,145.8-26.5,211.6-10.3,29.6-14.5,56.3-12.5,80.2,4.1,47.8,5.7,85.1,4.7,111.9-1.3,37.9,7.4,77.5,17.7,106.4,9.8,27.3,30.6,34.5,62.4,21.5,6.6-2.7,9.4-7.2,8.7-13.5-1.8-14-9.7-24.1-23.9-30.4-2.2-.9-3.2-3.4-2.3-5.5.1-.3.3-.6.5-.9h0ZM193.3,2929c0-1-.9-1.7-1.8-1.7s-1.7.9-1.7,1.8c-1.6,20.4-.9,43.8,10,63.2,16.7,30.1,37.7,54.5,63.1,73.1,2.8,2.1,6.9,1.5,9-1.3.1-.2.2-.3.3-.5l.2-.3c2-3.3,1.2-7.6-1.8-10-41.3-32.4-67-73.9-77.2-124.5h0ZM1981.8,2978.3c-2.6-2.3-19,12.2-36.8,32.4h0c-17.7,20.2-30,38.4-27.4,40.6h0c2.6,2.3,19-12.2,36.8-32.4s30-38.4,27.4-40.6Z"/>
  <path class="st1" d="M726.2,985.3c18.2-22.5,30.2-41.2,36.1-56.3,39.2-100.4,41.6-217.6,44.5-321.5,1.5-52.9,9-120,22.5-201.5,23.8-143.6,114.6-276.6,270.2-279.4,137.1-2.4,233.4,112,264.7,235.4,18.4,72.4,29,154.8,32,247.4,3.9,121.2,12.7,229.4,51.4,322.2,10,24,24.8,44.2,44.3,60.8,1,.8,1.1,2.2.3,3.2-.6.7-1.5,1-2.4.7-52.3-14.8-91.4-26.7-117.3-35.5-35.3-12-78.2-31.5-101.2-58.6-39.9-47-41.9-111.8-36.2-172.8.3-3.3,1.5-6.5,3.6-9.1,28.2-36.7,46.6-76.6,55.2-119.9.8-4.4,3.4-8.4,7.2-11,38-26.3,46.2-84.4,46.5-127,0-2.8-1.7-5.4-4.3-6.4-1.5-.6-19.4-5.8-53.7-15.4-59.7-16.8-104.9-47.5-141.7-99.5-12.8-18-18.5-36-17.3-54.1.2-3.1-1.6-5.9-4.4-7.1-.2,0-.9-.3-2.3-.6-2.2-.6-4.1-1.9-5.4-3.8-5.1-7.2-9.5-12-13.2-14.2-1.3-.8-3.1-.4-3.9.9-.5.8-.5,1.7-.2,2.6,1.1,2.7,4.9,8.5,11.4,17.4,6.8,9.4,7.8,21,2.6,29.3-53.3,85.4-127.7,136.7-223.2,153.8-2,.3-4.2,0-6-1l-10.2-5.9c-1.1-.7-2.5-1-3.9-.8-10.2,1.2-15.5,10.2-15.8,26.9-.8,47.2,12.3,82.3,39.1,105.2,3.3,2.8,6.9,4.8,10.7,5.9,5.1,1.5,8,4.1,8.8,7.6,9.1,42.7,26.6,81.7,52.5,117.1,3.6,4.9,5.7,10.8,6,16.8,1.2,26.4,1.6,47.5,1,63.5-2.9,85.9-52.1,125.8-125.7,153.7-38.7,14.6-78.8,26.1-120.4,34.6-1.2.2-2.4-.6-2.7-1.8-.1-.7,0-1.3.5-1.8h0Z"/>
  <path class="st1" d="M1321.9,462.8c0,.4-2,2.6-6.1,6.8-1.6,1.7-1.9,5-.8,10,6.1,27.3-13.7,70.3-23.8,94.8-1.5,3.5-6,18.7-13.7,45.5-18.6,64.8-56,116.5-112.3,155-64.8,44.4-134.6,10.7-178.6-43.3-25.1-30.9-43.3-64.6-54.7-101.2-18-57.5-35.1-91-40.1-148.9-.4-4.4,2.6-8.3,6.9-9.1,96.1-17.6,170.5-68.9,223.1-153.8.5-.9,1.7-1.1,2.5-.6.3.2.6.5.7.8,40,77.1,103.9,123,191.7,137.5,3.1.5,5.3,3.3,5,6.5h0Z"/>
  <ellipse class="st1" cx="1331.5" cy="476.6" rx="13.5" ry="8" transform="translate(694 1739) rotate(-82.9)"/>
  <path class="st1" d="M905.7,575.6c1.2,2.5,0,5.5-2.5,6.6-2,.9-4.4.4-5.9-1.3-24.4-29.9-34.2-65.8-29.3-107.6.2-2,2-3.5,4-3.3l9.1.7c1.9.1,3.3,1.8,3.2,3.7,0,.3,0,.6-.2.9-1.1,2.9-1.3,6.8-.7,11.7,5,39,12.4,68.5,22.2,88.6h0Z"/>
  <path class="st1" d="M1327,493.6c.1-.5.6-.7,1.1-.6l.7.3c5.6,1.7,5.3,19.2-.8,38.9l-2.3,7.3c-6.1,19.8-15.6,34.4-21.2,32.7l-.7-.2c-.5-.2-.7-.7-.5-1.1h0s23.8-77.3,23.8-77.3h0Z"/>
  <path class="st1" d="M1475,1676.6c-6.6,15.8-27.1,102.3-61.8,259.4-12.8,57.7-6.9,110.8,17.5,159.5,5.3,10.5,32.1,62.3,80.4,155.2,1.9,3.6,1.2,8-1.7,10.9-40,39.4-70.7,69.6-102.1,108.4-98.4,121.7-182.3,253.4-251.9,395-1.3,2.6-10.7,18-28.3,46.4-1.7,2.7-4.7,4.3-7.9,4l-35.3-2.5c-2.6-.2-4.9-1.5-6.4-3.5-13.8-18.4-21.3-28.8-22.5-31.3-68.9-144.7-153.7-279.9-254.3-405.4-32.5-40.6-67.4-78.6-104.5-113.9-2.2-2.1-2.8-5.4-1.7-8.2,18-43,42-93.2,72.2-150.5,25.4-48.2,33.4-98.4,24-150.7-17.5-97.5-41-195.6-70.7-294.4-.5-1.5.4-3.2,1.9-3.6,1.1-.3,2.3,0,3,.8,71.8,75,180.8,58.1,262.3,11.5,1-.6,1.4-1.8.9-2.9l-.2-.3c-.6-1.2-2.1-1.7-3.3-1.1-103.9,47.6-243.9,62.8-287.6-75.4-21.6-68.3-10.9-130.4-.7-198.2,4.7-31.2,1.9-47.8-16.9-70.3-1-1.3-3-1.6-4.3-.5-1.2.9-1.5,2.5-.9,3.8l11.2,24.6c2.9,6.2,4,13.2,3.2,20-.2,5-3.7,32.4-10.3,82.1-3.4,25.6-4.4,55.1-3,88.4.3,7.1-.3,14.1-1.8,20.9-6.9,32-11,50-12.2,53.9-31,99.5-69.1,195.2-114.2,287.1-7.5,15.3-14.9,47.1-16.8,69.2-3.7,41.8-7.5,89.9-17.4,130.8-35.1,144.1-121.3,281.6-177.4,399.7-25.4,53.2-46.5,104.8-51.3,161.3-.5,5,0,10,1.2,14.9l11,41.6c3.4,12.9,2.9,26.6-1.5,39.2-18.6,54.3-25.9,111.4-21.8,171.3.5,8.2-5.7,15.3-13.9,15.9-.6,0-1.1,0-1.7,0h-.8c-9.4-.6-17.1-7.8-18.1-17.2-4-39.5.4-89.9-10.8-129.8-.7-2.5-3.2-3.9-5.7-3.2-1.9.5-3.3,2.3-3.4,4.3-.5,9.4,1.3,19.1,5.3,28.9,1.1,2.8.7,5.9-1,8.3-22.8,31.9-28,39.6-32.9,83.7-.3,2.7-1.6,5.3-3.5,7.2-14.3,14.5-.4,62.2,5.9,73.4,15.8,28.8,28.1,55.9,36.8,81.3,1.2,3.6-.7,7.5-4.4,8.8-.1,0-.2,0-.3.1-3.3,1-5.9.6-7.6-1.3-46.6-50.9-71.6-109.7-74.9-176.4-.2-4.1-1.4-8.1-3.5-11.7-7.5-12.6-9.4-24.1-5.6-34.6,31.9-89.4,51.6-151,59.2-184.8,30.5-135.7,59.1-292.5,85.8-470.4,10.1-67.3,25.5-130.1,46.4-188.4,26-73,79.5-129.2,90.9-210.4,14.8-105.4,38-212.9,69.6-322.5,4.1-14.1,7.2-38.6,7.6-55.7,2.5-100.4,3.2-187,27.8-277,16-58.7,49.2-100.8,99.6-126.3,15.4-7.8,45.7-15.4,90.8-23,41.8-6.9,88.2-19.9,139.2-39,64.4-24,117.9-56.2,130.2-128.4,5.2-30.2,6.3-59.2,3.6-87,0-1.3.9-2.5,2.2-2.7.7,0,1.4.2,1.9.7,41.5,43.1,100.4,76.2,158.8,48.8,27-12.8,51.2-30.7,72.8-53.9,1.2-1.2,3.1-1.2,4.3,0,.7.6,1,1.5.9,2.4-9.6,94.6,16.8,177.3,114.1,214.5,66.9,25.7,116.7,41.2,149.5,46.7,32.2,5.4,48.7,8.2,49.5,8.3,144,29.9,167.9,156.9,173.2,282,4.3,102.9,6.6,155.2,6.8,156.7,1.9,14.2,2.5,27.2,6.9,40.4,28.3,84.1,49.9,178.9,64.7,284.4,6.7,47.3,21.8,82.8,48.7,133.8,43.5,82.3,71.6,165.3,84.4,248.8,34.2,224.7,62.1,389.9,83.7,495.8,13.9,68.1,33.9,136.9,60,206.5,1.5,4,1.8,8.4.9,12.6-3.9,18.4-6.9,35.5-8.9,51.5-6.8,52.5-40.5,107.1-72,151-2.9,4-7.9,6-12.8,5h-.3c-3.5-.8-5.8-4.2-5.1-7.8,0-.4.2-.9.4-1.3,8.3-18.8,31.1-51.8,34.7-86,.3-3.2,1.5-6.3,3.4-8.9,14.3-19.8,19.1-43.3,14.2-70.7,0-1.4-1.2-2.4-2.6-2.3-1.4,0-2.4,1.2-2.3,2.6h0c-.2,3.9.4,9.8,1.8,17.8.5,3.2,0,6.6-1.7,9.5-11.3,20.9-18.1,41-20.5,60.1-.4,2.9-1.3,5.7-2.5,8.3-15.1,31.1-37,53.6-65.7,67.8-2.4,1.2-5.3.3-6.5-2.1-.2-.4-.4-.9-.4-1.3l-.4-2.6c-.4-2,.5-4.1,2.2-5.2,28.3-18.5,50.6-42,66.8-70.5,1.7-3,2-6.6,1-9.8-.5-1.4-.7-2.1-.8-2.2-.7-3.1-.5-6.3.4-9.4,5.4-15.6,9-37.7,10.8-66.3,1.8-28.2-7.6-49.4-28.3-63.8-5.7-4-7.6-11.6-4.6-17.8,9.3-18.9,11.4-32.2,6.3-40-1-1.5-3-1.9-4.5-.9-.6.4-1.1,1-1.3,1.7-11.5,35.8-16.9,74.5-16.4,116.1.2,12.3-3.7,22.6-11.8,31.1-5.4,5.7-14,6.4-19.2,1.6-.1-.1-.3-.2-.4-.4-4.8-4.9-6.9-12.7-6.1-23.3,1.3-18.2,2.1-44.7,2.3-79.4,0-7.2-5.1-28.7-15.4-64.6-6.1-21.4,0-51.9,7.9-75.8,10-30.2,8.3-63.6-5.1-100.3-22.5-61.8-51.2-126.4-81.9-182.7-79.7-146.2-145.4-285.8-148.6-448.4-.3-16.1-7.2-38.5-20.6-67.4-48.8-104.6-87.5-214.5-116-329.7-1.2-5-1.8-10.2-1.8-15.3.8-53.4-5.1-109.4-17.4-168-.8-3.8-.9-7.8-.3-11.7,2.2-14.8,8.5-28.4,18.9-40.9,1.2-1.4,1.1-3.6-.4-4.8,0,0,0,0,0,0l-2.5-1.9c-.7-.6-1.8-.5-2.5.2-13.3,14.1-21.2,30.2-23.7,48.4-.5,3.2-.4,6.4.3,9.6,16,81.9,31.1,168.2-2.1,243.6-32.1,72.9-121.8,88.2-193.9,71.9-34.3-7.7-66.7-19.2-97.2-34.3-.4-.2-.9,0-1.1.3l-2.4,3c-.7.8-.5,2.1.3,2.7,0,0,.2.1.3.2,69.4,38.9,168,65.4,240,24.7,13.7-7.7,20.8-11.7,21.4-11.8,1.3-.4,2.7.3,3.1,1.7.2.6.1,1.2,0,1.8h0ZM836.7,1027.6c51.4,14,106.6,22.9,165.7,26.9,14.9,1.1,31.1,7.7,48.6,19.9,1.8,1.2,4.2.8,5.4-1,0,0,0,0,0,0h0c1.2-1.9.8-4.3-.9-5.7-16-12.5-29.8-19.4-41.6-20.6-70.1-7.4-129.5-15.3-178.2-23.9-.5,0-.9.2-1,.7h0s0,.3,0,.3c-.3,1.5.5,3,2,3.4h0ZM1360.3,1027.6c1.4-.4,2.3-1.8,1.9-3.3v-.3c-.2-.4-.6-.7-1-.6-46.9,8.2-104.1,15.9-171.7,23.1-11.3,1.2-24.6,7.8-40,19.8-1.7,1.3-2.1,3.7-.9,5.4h0c1.1,1.8,3.4,2.3,5.1,1.2,0,0,.1,0,.2-.1,16.8-11.8,32.4-18.2,46.8-19.2,56.9-3.9,110.1-12.5,159.6-26h0ZM1106.8,1987.2c0-3-2.4-5.4-5.4-5.4h-.5c-3,0-5.4,2.4-5.4,5.4l.2,144.7c0,3,2.4,5.4,5.4,5.4h.5c3,0,5.4-2.4,5.4-5.4h0l-.2-144.7ZM1102.6,2153c-6.9.5-11.8,9.4-11,19.9.8,10.5,7,18.6,13.9,18h0c6.9-.5,11.8-9.4,11-19.9-.8-10.5-7-18.6-13.9-18Z"/>
  <path class="st0" d="M836.7,1027.6c-1.5-.4-2.4-1.9-2-3.4v-.3c.2-.5.6-.8,1.1-.7h0c48.7,8.5,108.1,16.5,178.2,23.9,11.8,1.2,25.6,8.1,41.6,20.6,1.7,1.4,2.1,3.8.9,5.6h0c-1.2,1.9-3.6,2.4-5.3,1.2,0,0,0,0,0,0-17.5-12.2-33.7-18.9-48.6-19.9-59.1-4-114.3-12.9-165.7-26.9h0Z"/>
  <path class="st0" d="M1360.3,1027.6c-49.5,13.4-102.7,22.1-159.6,26-14.3,1.1-29.9,7.5-46.8,19.2-1.6,1.2-3.9.8-5.2-.8,0,0,0-.1-.1-.2h0c-1.2-1.8-.8-4.2.9-5.5,15.4-12.1,28.7-18.7,40-19.8,67.5-7.1,124.8-14.8,171.7-23.1.4,0,.8.2,1,.6v.3c.4,1.5-.4,3-1.8,3.3h0Z"/>
  <path class="st0" d="M1100.8,1981.8h.5c3,0,5.4,2.4,5.5,5.4l.3,144.7c0,3-2.4,5.4-5.4,5.5h-.5c-3,0-5.4-2.4-5.5-5.4l-.3-144.7c0-3,2.4-5.4,5.4-5.5Z"/>
  <path class="st0" d="M1102.6,2153c6.9-.5,13.1,7.5,13.9,18s-4.1,19.4-11,19.9-13.1-7.5-13.9-18h0c-.8-10.5,4.1-19.4,11-19.9ZM1098.7,2174.8c.4,1.6,1,2.9,1.8,3.9,1.9,2.4,5.3,2.9,7.7,1,1.5-1.1,2.3-3,2.1-4.9-.2-2.1-.8-3.6-1.8-4.8-1.9-2.4-5.5-2.8-7.9-.8-1.7,1.4-2.4,3.6-1.9,5.6h0Z"/>
  <path class="st2" d="M1098.7,2174.8c-.7-3,1.2-6,4.2-6.8,2.1-.5,4.3.2,5.7,1.9,1,1.2,1.6,2.8,1.8,4.8.3,3-1.8,5.7-4.8,6-1.9.2-3.8-.6-5-2.1-.8-.9-1.3-2.2-1.8-3.9h0Z"/>
  <path class="st1" d="M1018.6,5334.3c-4.1-2.9-7-6.2-8.6-9.7-.8-1.9-3-2.7-4.9-1.8-.2,0-.4.2-.6.3-17.8,12.4-26.4,24.9-25.8,37.6.2,4.5-1.7,8.8-5.3,11.6-13.2,10.6-50.1,11-44.5-15.2,2-9.7,9.6-16.9,22.7-21.7,1.2-.4,2.1-1.5,2.3-2.7l.9-4.7c.3-2-1-3.9-3-4.3-1-.2-1.9,0-2.7.6l-25.1,16.8c-3,2-4.7,5.5-4.6,9.1l.9,17.5c.2,2.7-1.9,5-4.6,5.2h0l-22,1c-4,.2-7.5-2.5-8.3-6.4-6.4-29.4,20.7-25.4,26.6-44.6.5-1.8-.4-3.6-2.2-4.2-1.3-.4-2.7,0-3.6,1.1-5.9,7.6-13.5,13.8-22.7,18.5-3.5,1.7-5.9,5-6.6,8.8l-2.9,16.3c-.7,4.2-4.7,7-9,6.3,0,0,0,0,0,0l-8.7-1.5c-5.7-1-9.7-6.3-9.1-12.1,1.5-15,10.5-26.3,27.1-33.7.8-.4,1.2-1.4.8-2.3,0,0,0-.1,0-.2l-1.4-2c-.2-.3-.6-.4-.9-.4-21.7,6.3-33.4,19.2-35.1,38.9-.2,2.4-2.2,4.3-4.6,4.1-1.4,0-2.7-.8-3.4-2l-4.2-6.3c-2.4-3.5-2.8-8-1-11.8,3.4-7.4,7.9-13.6,13.4-18.8,25.3-23.5,59.7-51.9,73.9-86,20.8-49.6,25-80.2,26-130.4.4-20.6,12.9-48.9,12.4-68.2-.5-17.1-5.8-44.7-15.9-83-45.3-171.9-107.5-380.1-140.4-563.3-19.4-108-15.6-219.9.7-350.9,9.2-74.7,14.1-127.1,14.5-157.2,1-79.3-11.5-162.5-37.8-249.6-22.6-74.7-53-184.6-91.2-329.9-36.1-137.1-60.6-274.6-73.5-412.7-19.9-214.8,7.1-422.2,81-622.2.5-1.2,1.8-1.8,3-1.4.2,0,.4.2.6.3,8.8,7,16.9,14.5,24.2,22.4,131.3,142.4,239.1,300.7,323.5,475.1,11.1,23.1,21.1,35.9,34.7,55.5,1.7,2.4,2.7,5.2,2.9,8.2,11.3,123.2,10.5,245.9-2.4,368-14.1,134.6-22.4,266.9-11.8,398,8.4,103.3,13,172,14,206.1,1.5,50.6-6.8,118.7-24.9,204.3-3.3,15.7-4.8,42.3-4.5,79.7.5,58.5,8,118.9,16,179.9,9.2,69.7,9.7,151,1.4,243.8-15.2,168.9-22,342-6.5,495,4,39.6,23.9,71.2,22.2,110.8-3.7,88.5-7.1,154.9-10.2,199.1-1.6,23.3-5.2,39.4-10.6,48.1-15.5,24.5-46.4,29.6-68.7,10.5-2.2-1.9-3.3-4.9-2.9-7.8,1.6-11,7.5-20.1,17.7-27.4,3-2.2,7-2.2,10-.2,1.5,1,2.3,1.6,2.4,1.6,1,.2,2-.5,2.2-1.6.1-.8-.2-1.5-.8-2h0Z"/>
  <path class="st1" d="M1190.9,5331.9c14.2,6.2,22.1,16.3,23.9,30.4.8,6.3-2.1,10.8-8.7,13.5-31.9,13-52.7,5.8-62.4-21.5-10.3-29-19-68.5-17.7-106.4.9-26.8-.6-64.1-4.7-111.9-2-23.9,2.2-50.6,12.5-80.2,23.1-65.9,25.8-133.1,26.5-211.6.7-87.6-4-177.8-14-270.7-12.6-116.2-18-206.4-8.2-295.1,14.7-133,25.8-194.6,5.3-301.3-16.5-86.1-28.2-153.9-20.5-238.1,12.5-137.2,22.4-207.4,19.4-313.2-1.9-66.8-8.5-154.6-20-263.1-10.7-101.7-7.5-212.5,9.7-332.5.6-4.5,2.2-8.8,4.6-12.7,29.8-48,55.3-103.3,84-154.5,62.9-112,136.9-218.5,221.8-319.4,25.6-30.4,48.7-54.7,69.5-72.8,2.3-2.1,5.9-1.8,8,.6.4.4.7.9.9,1.4,77.7,170.8,99,376.6,86.6,567.1-7.2,110.2-24.2,223.2-51.1,338.9-29.5,127.2-54.4,223.2-74.6,287.8-32.2,102.9-56.7,190.1-73.5,261.6-22.4,95.3-14.7,193.4.3,315.8,9.1,74.8,13.6,130.3,13.4,166.7-.6,102.6-14.2,209.2-40.7,319.9-31.3,130.5-64.2,262-98.8,394.6-9.1,35.1-15.6,68.8-19.5,101-.9,7.9-1,15.8-.3,23.7,2,21.2,7.3,38.4,6.4,62.5-2.1,58.4,27.1,154.5,71.8,188.5,18,13.7,48.6,33.5,31.1,55-1.2,1.5-3.4,1.7-4.8.5-.7-.6-1.2-1.5-1.2-2.4-.9-14.5-10.4-27.8-28.5-39.7-1-.6-2.4-.4-3,.6-.5.7-.5,1.6,0,2.4l25.9,38.3c1.8,2.7,1.1,6.4-1.6,8.3-.7.5-1.4.8-2.3.9l-22.4,4.1c-2.5.5-5-1.1-5.4-3.7,0-.2,0-.4,0-.5-1.5-18.2-11.6-32.3-30.2-42.3-.7-.3-1.4,0-1.7.7-.2.4-.1.8,0,1.1l20.1,29.6c3.5,5.2,2.1,12.3-3.1,15.9-7.9,5.4-16.6,7.4-26.1,5.8-3.8-.6-6.6-3.8-6.8-7.6-.8-16.7-11-30.9-30.8-42.5-1.6-.9-3.5-.4-4.4,1.2-.1.2-.2.5-.3.7l-.7,2.6c-.4,1.4.3,2.9,1.7,3.6,15.3,7.3,23.2,18.1,23.6,32.3,0,3.1-1.6,5.9-4.3,7.5-9.2,5.1-20,6.6-32.4,4.4-5.6-1-9.9-5.7-10.2-11.5l-.9-19.1c-.1-2.5-1.4-4.8-3.5-6.2-9.5-6.6-14.6-14-15.3-22.1-.2-2.4-2.3-4.1-4.6-3.9-.4,0-.8.1-1.2.3-.4.1-3.2,3.6-8.2,10.6-1.4,1.9-1,4.5.9,5.9.3.2.6.4.9.5h0Z"/>
  <path class="st1" d="M1945.1,3010.7c17.7-20.2,34.2-34.7,36.8-32.4s-9.7,20.4-27.4,40.6c-17.7,20.2-34.2,34.7-36.8,32.4s9.7-20.4,27.4-40.6Z"/>
  <path class="st1" d="M1932.2,3009.9l-27.5,38.2c-2,2.9-2.5,6.5-1.2,9.8,3.3,8.5,8.7,16.2,16.3,22.9,5.7,5,14.3,4.8,19.7-.6l18.8-18.7c.7-.7,1.9-.7,2.6,0,.5.5.7,1.2.5,1.9l-3.2,11.2c-2.5,8.5,2.4,17.4,11,19.9,6.2,1.8,12.9-.3,16.9-5.3l29.2-35.5c-.5,21.5-10,37.2-28.3,47.1-9,4.9-19.9,2-32.6-8.6-1.8-1.4-4.1-2-6.3-1.6l-17.3,3.2c-.5.1-.9.2-1.3.2-14.9.5-18.9-12.3-25.5-20.3-7.7-9.2-9.7-19.2-6.2-29.8,7.3-22.4,18.9-33.7,34.7-33.9h0Z"/>
  <path class="st1" d="M1118.9,3249.9c14.6,130.2,15.2,259.9,2,389.2-7.1.8-10.7-2.6-10.8-10,0-21.8-4-41.8,0-63.3,15.7-83.9,14.4-167.6-3.9-251-.6-2.6-.8-5.3-.7-8,.6-16.2,1.3-32.7,2-49.4.2-6.1,4-8.6,11.4-7.5h0Z"/>
  <path class="st1" d="M775.7,4352.1c11.2,70,25.2,138.4,42.2,205.2,36.3,143.3,74.1,286.2,113.3,428.9,9.2,33.7,7.6,70.4-4.8,110.3-1,1.3-2.4,1.5-4,.5-3.9-2.4-5.2-6-4.1-10.7,3.9-17.4,6.9-34.4,8.9-51.1.6-5.4.4-10.8-.7-16-9.5-44.7-13.9-74-24.3-108.9-19.1-63.4-58.7-216.4-118.6-459.1-9.8-39.6-12.5-72.6-7.9-99.1h0Z"/>
</svg>