<svg version="1.1" id="Layer_1" xmlns="http://www.w3.org/2000/svg" xmlns:xlink="http://www.w3.org/1999/xlink" x="0px" y="0px"
	 width="100%" viewBox="0 0 1280 3328" enable-background="new 0 0 1280 3328" xml:space="preserve">
<path fill="none" opacity="1.000000" stroke="#000000" stroke-linecap="round" stroke-linejoin="round" stroke-width="3.000000"
	d="
M363.000000,791.000000 
	C375.263092,816.968323 381.133514,844.608093 382.833618,873.009949 
	C384.640686,903.198608 389.130463,932.849548 397.025818,961.992981 
	C408.592194,1004.686890 421.135284,1047.135132 431.745300,1090.062988 
	C440.175720,1124.171997 449.470581,1158.258911 449.158478,1194.001343 
	C448.977875,1214.685059 441.174286,1232.724243 433.103363,1251.045532 
	C419.745789,1281.367798 403.854645,1310.530762 392.866211,1341.953247 
	C379.860474,1379.144531 366.955444,1416.308472 358.965424,1454.992798 
	C354.350433,1477.336548 348.940369,1499.493774 344.753632,1521.954102 
	C339.924377,1547.860962 335.869019,1573.785889 332.682281,1599.961304 
	C328.745850,1632.294189 328.981567,1664.618530 329.051910,1696.999878 
	C329.115265,1726.163208 332.387238,1755.181641 336.288513,1783.960938 
	C345.225433,1849.887207 359.026917,1914.833496 376.617523,1979.104736 
	C389.213654,2025.127319 402.989838,2070.858154 414.553009,2117.111816 
	C425.409576,2160.538330 437.309601,2203.777832 445.206818,2247.963135 
	C449.657715,2272.866211 453.695892,2297.643799 455.484039,2322.965820 
	C456.660126,2339.621094 456.661774,2356.365234 458.652924,2373.041504 
	C460.630341,2389.602295 457.204376,2406.351807 455.901337,2422.992188 
	C454.697784,2438.361816 453.233063,2453.754639 450.867462,2468.979492 
	C447.306671,2491.895996 445.137756,2515.052246 443.631714,2538.041504 
	C442.115417,2561.186523 437.891541,2584.505127 442.644836,2608.071533 
	C444.852570,2619.017090 443.521454,2630.652832 444.697052,2642.031250 
	C446.808502,2662.467285 449.418457,2682.875977 453.297577,2702.942383 
	C461.464050,2745.187988 473.942444,2786.453125 485.332245,2827.908691 
	C494.395081,2860.895020 503.744354,2893.812500 511.833649,2927.040527 
	C518.356262,2953.833252 523.709106,2980.916504 529.176758,3007.964355 
	C533.928955,3031.472900 536.812500,3055.078857 538.158569,3078.990967 
	C538.765320,3089.769043 537.862427,3100.530029 536.552551,3110.943604 
	C534.596558,3126.493896 533.581970,3141.840088 537.283142,3156.930664 
	C539.286377,3165.098145 545.398987,3172.100342 546.000000,3181.000000 
"/>
<path fill="none" opacity="1.000000" stroke="#000000" stroke-linecap="round" stroke-linejoin="round" stroke-width="3.000000"
	d="
M900.000000,929.000000 
	C893.338745,937.156494 893.455017,947.735901 891.440308,957.094788 
	C885.842834,983.095581 878.037903,1008.451538 870.796997,1033.942383 
	C858.979492,1075.544067 849.099182,1117.498535 840.614441,1159.922852 
	C833.138733,1197.302124 843.000427,1230.452026 859.034119,1262.983154 
	C874.513794,1294.390259 889.244507,1325.958252 900.460144,1359.345459 
	C910.620728,1389.591919 920.510620,1419.727905 927.111145,1450.976562 
	C933.028870,1478.992554 939.628235,1506.853027 945.369019,1534.924561 
	C950.663330,1560.813232 954.453125,1586.908691 956.553345,1613.035889 
	C959.301392,1647.222778 960.692078,1681.563232 957.452209,1716.042480 
	C955.768066,1733.965332 954.966553,1752.082764 952.802307,1769.976074 
	C950.211548,1791.395874 947.060303,1812.761841 943.551758,1834.090698 
	C938.914307,1862.281494 932.840698,1890.147095 926.601013,1917.910278 
	C919.874146,1947.841064 911.416443,1977.442993 903.365173,2007.099121 
	C892.964050,2045.411255 882.136841,2083.612549 871.877197,2121.967041 
	C860.881409,2163.073486 850.845276,2204.411133 842.312744,2246.063965 
	C838.887329,2262.785889 836.371887,2279.808105 834.640076,2296.963623 
	C831.479797,2328.270020 828.602356,2359.576904 829.273865,2390.994141 
	C829.688049,2410.370117 832.037659,2429.730469 834.470703,2449.066650 
	C836.257874,2463.269287 838.128235,2477.613281 839.102478,2491.993164 
	C840.346558,2510.354980 842.690186,2528.642822 843.917725,2547.005615 
	C845.834229,2575.673828 846.459167,2604.296143 843.281433,2633.031006 
	C841.398743,2650.055908 839.950562,2667.101562 837.043152,2684.007324 
	C832.402954,2710.988770 826.490479,2737.646973 819.088013,2764.024658 
	C806.765503,2807.934082 794.806091,2851.948242 783.063354,2896.016846 
	C774.186157,2929.331787 767.499329,2963.140137 760.706726,2996.941162 
	C757.423462,3013.279297 753.174805,3029.577393 751.399841,3046.043213 
	C749.335693,3065.191406 747.103333,3084.598633 749.977783,3104.003174 
	C752.487732,3120.947021 754.872070,3137.812012 751.219971,3155.046631 
	C749.715393,3162.146973 743.667786,3166.681641 742.711609,3173.962158 
	C742.407410,3176.278320 742.532349,3178.695068 742.000000,3181.000000 
"/>
<path fill="none" opacity="1.000000" stroke="#000000" stroke-linecap="round" stroke-linejoin="round" stroke-width="3.000000"
	d="
M725.000000,416.000000 
	C730.846069,415.791901 732.800720,410.910004 734.890381,406.942261 
	C741.799438,393.823334 750.192932,380.159698 751.192505,365.943237 
	C752.464783,347.848267 761.263733,332.839325 765.185791,316.043396 
	C769.065430,299.428772 774.157288,283.077667 779.981995,266.993500 
	C782.702637,259.480835 785.286499,252.190109 790.770142,245.802658 
	C795.822021,239.918121 796.550232,231.418304 797.775757,223.963135 
	C802.673706,194.168793 798.629395,165.177902 788.023682,136.991089 
	C781.644226,120.036331 773.930054,103.574211 761.793213,90.187454 
	C746.807617,73.658447 728.221924,62.033546 705.002991,62.280888 
	C692.740723,62.411510 683.579773,55.402786 673.099182,51.717960 
	C621.179199,33.463657 576.897644,47.616173 537.023804,82.027557 
	C504.232056,110.327049 489.823151,148.805130 479.102966,189.027451 
	C471.325409,218.208969 465.978546,248.008301 463.298004,278.026611 
	C460.477997,309.606689 457.450592,341.232361 456.980469,372.999725 
	C456.576752,400.279114 452.753723,427.205109 447.958801,453.992615 
	C442.859955,482.477966 435.387878,510.255737 424.173309,537.072510 
	C417.875854,552.131287 407.896332,565.300659 402.828003,580.944275 
	C401.915527,583.760681 398.510590,584.528625 395.047333,585.232788 
	C376.729889,588.957031 357.769104,590.989014 341.053497,600.098206 
	C313.078400,615.343201 295.064026,638.957458 284.965759,668.988464 
	C273.829529,702.106079 268.228394,736.104309 266.867371,770.994812 
	C265.905151,795.661682 265.375549,820.322510 264.850952,844.996826 
	C264.362823,867.955627 259.077759,890.162170 252.071426,912.022888 
	C242.544785,941.747437 236.010681,972.146973 230.708649,1002.949829 
	C225.420898,1033.669800 221.617538,1064.737915 213.685165,1094.917236 
	C211.006989,1105.106567 204.486099,1114.250977 200.034042,1124.015503 
	C186.917297,1152.783813 170.828842,1180.177246 160.023102,1210.008423 
	C148.406738,1242.077515 142.650421,1275.497437 136.839539,1308.972168 
	C130.822220,1343.636108 126.148483,1378.499512 119.412834,1413.080444 
	C112.353897,1449.320923 105.768600,1485.693726 98.723343,1521.946289 
	C94.197876,1545.232788 87.415634,1568.120239 80.811455,1590.945435 
	C77.844910,1601.198364 77.303001,1611.749756 75.419777,1622.076538 
	C70.283897,1650.239624 62.144608,1677.361816 51.998573,1703.999512 
	C50.562363,1707.770020 48.732578,1711.427368 47.245178,1715.099365 
	C42.943516,1725.719360 41.607071,1736.908691 46.028683,1747.988525 
	C52.467628,1764.123291 56.250008,1780.936157 58.953430,1798.007324 
	C61.009029,1810.987549 69.486130,1820.397461 77.220871,1829.818726 
	C85.730499,1840.183960 93.355850,1850.890137 98.948174,1863.023926 
	C100.478394,1866.343872 103.241142,1868.092163 105.633591,1869.746582 
	C117.093925,1867.213623 111.825409,1856.246094 116.000000,1850.000000 
"/>
<path fill="none" opacity="1.000000" stroke="#000000" stroke-linecap="round" stroke-linejoin="round" stroke-width="3.000000"
	d="
M902.000000,929.000000 
	C909.924377,949.600708 914.468689,971.256592 921.893127,992.038208 
	C932.628113,1022.086243 946.061096,1051.036377 957.167725,1080.937744 
	C965.100098,1102.293335 974.843811,1122.900146 981.277100,1144.919067 
	C986.763672,1163.697754 988.307129,1182.958618 990.663574,1202.041504 
	C993.796570,1227.413940 997.581238,1252.653442 1005.225708,1276.928955 
	C1021.392151,1328.266602 1046.347168,1375.862061 1069.894897,1424.051392 
	C1090.387573,1465.988770 1111.861328,1507.536621 1128.708130,1551.112793 
	C1135.088745,1567.616821 1141.510132,1584.469116 1141.273926,1603.003540 
	C1141.157471,1612.147705 1138.080444,1620.301147 1134.656372,1627.843994 
	C1125.962402,1646.995483 1128.649536,1666.183472 1133.373779,1684.905640 
	C1137.572388,1701.544312 1142.251831,1717.425415 1139.328247,1735.054443 
	C1137.244019,1747.622437 1138.636597,1760.732910 1143.099731,1772.963623 
	C1146.569336,1782.471680 1152.907837,1783.713379 1160.003662,1777.003906 
	C1166.657471,1770.712036 1167.848145,1762.615967 1168.053711,1754.001343 
	C1168.364136,1741.001099 1166.889160,1727.954468 1169.000000,1715.000000 
"/>
<path fill="none" opacity="1.000000" stroke="#000000" stroke-linecap="round" stroke-linejoin="round" stroke-width="4.000000"
	d="
M609.000000,2469.000000 
	C610.555725,2490.418457 613.039612,2511.722168 615.862244,2533.018311 
	C619.615845,2561.338623 624.843079,2589.414307 627.407715,2617.963379 
	C629.930176,2646.042725 630.058472,2674.113037 628.466064,2701.969482 
	C626.864929,2729.978516 623.842468,2758.030273 621.446167,2786.038086 
	C619.543274,2808.280273 618.187988,2830.675293 616.635986,2852.974609 
	C613.412781,2899.287109 617.799622,2945.872559 611.013977,2992.001953 
	C610.088867,2998.291260 613.764160,3003.792480 614.143677,3009.991211 
	C615.248169,3028.030762 615.040771,3046.190186 618.942261,3064.012695 
	C621.816284,3077.141357 626.056213,3089.888184 629.238892,3102.941650 
	C633.199219,3119.184570 631.000793,3135.217041 628.622070,3150.942871 
	C625.899231,3168.944580 627.022827,3186.370605 629.969177,3204.005127 
	C631.802307,3214.977295 634.115906,3225.948975 634.836731,3237.010742 
	C636.329224,3259.911377 624.755188,3275.420166 601.945129,3278.607422 
	C588.222046,3280.525146 573.577881,3281.009521 560.087341,3276.724854 
	C546.704895,3272.474854 535.436890,3264.312500 529.000000,3251.000000 
"/>
<path fill="none" opacity="1.000000" stroke="#000000" stroke-linecap="round" stroke-linejoin="round" stroke-width="3.000000"
	d="
M722.000000,403.000000 
	C724.841370,419.282135 721.415710,435.751556 723.162781,451.982483 
	C725.653503,475.122864 726.307800,498.802124 742.855713,518.123535 
	C754.618835,531.858276 770.135254,540.054382 785.137085,548.763855 
	C807.896118,561.976685 831.609802,573.513306 858.000244,577.998474 
	C874.696228,580.836060 891.431091,583.297424 908.033081,586.845032 
	C964.692200,598.952515 995.407166,635.636169 1009.165649,689.958069 
	C1018.508484,726.845642 1020.273804,764.196594 1021.600037,801.978943 
	C1022.441101,825.940613 1020.442444,850.251892 1025.167236,873.966675 
	C1028.671143,891.553589 1034.171753,908.750122 1039.291748,925.912964 
	C1049.287720,959.420837 1055.308594,993.626587 1061.144165,1027.975464 
	C1065.221191,1051.972656 1068.085815,1076.278076 1076.000000,1099.500000 
"/>
<path fill="none" opacity="1.000000" stroke="#000000" stroke-linecap="round" stroke-linejoin="round" stroke-width="3.000000"
	d="
M1076.000000,1101.000000 
	C1084.777832,1111.981934 1087.301514,1125.971191 1093.883179,1138.063599 
	C1112.254150,1171.815918 1128.394043,1206.577515 1137.972900,1244.006958 
	C1143.702759,1266.396973 1147.499634,1289.155029 1151.248413,1311.959106 
	C1153.771240,1327.305054 1156.511963,1342.733643 1158.450317,1358.069458 
	C1160.617920,1375.220825 1164.031372,1392.061768 1167.121826,1408.977783 
	C1172.619629,1439.070679 1178.907104,1469.037842 1184.563110,1499.082275 
	C1190.872192,1532.595337 1201.052368,1565.011963 1208.423096,1598.128418 
	C1211.608521,1612.441040 1213.006470,1627.476685 1216.147095,1641.968140 
	C1221.655518,1667.386230 1230.723267,1691.744263 1239.974609,1716.009644 
	C1243.977173,1726.508545 1244.897339,1737.446899 1240.867676,1747.949219 
	C1234.022339,1765.790161 1230.801270,1784.475830 1227.210693,1803.040771 
	C1225.512695,1811.820312 1219.761475,1817.670776 1214.785034,1823.826172 
	C1205.531250,1835.272461 1196.997070,1847.070312 1189.993774,1859.996704 
	C1187.563843,1864.481445 1185.976685,1871.216553 1179.090820,1868.746826 
	C1173.406372,1866.708008 1172.975220,1860.569702 1172.949219,1855.000244 
	C1172.941406,1853.332642 1173.857666,1851.361816 1172.000000,1850.000000 
"/>
<path fill="none" opacity="1.000000" stroke="#000000" stroke-linecap="round" stroke-linejoin="round" stroke-width="4.000000"
	d="
M666.000000,1715.000000 
	C658.642212,1724.441040 658.845337,1736.270996 657.343750,1747.047852 
	C652.685364,1780.482056 650.910461,1814.236084 652.134827,1847.995117 
	C653.249451,1878.729126 655.704407,1909.383545 658.612915,1940.036743 
	C660.944153,1964.606201 663.057251,1989.280884 664.029419,2013.998901 
	C665.457947,2050.320801 666.336121,2086.654053 665.940125,2122.999268 
	C665.587158,2155.388916 663.865540,2187.781006 660.705383,2219.971191 
	C657.007996,2257.633057 656.077454,2295.320312 657.300964,2332.990234 
	C658.339233,2364.955566 662.515015,2396.712646 669.696289,2428.069580 
	C672.227051,2439.120117 675.443726,2450.375977 674.923584,2461.996582 
	C674.803894,2464.669434 676.835083,2465.432373 678.000000,2467.000000 
"/>
<path fill="none" opacity="1.000000" stroke="#000000" stroke-linecap="round" stroke-linejoin="round" stroke-width="4.000000"
	d="
M622.000000,1715.000000 
	C628.429810,1726.499023 628.961731,1739.508301 630.828735,1752.025513 
	C634.431335,1776.178955 635.849426,1800.656860 635.619568,1824.996460 
	C635.434143,1844.633545 635.859985,1864.361450 634.058044,1884.005371 
	C632.133850,1904.981689 631.014587,1926.035034 628.906433,1946.990601 
	C626.596191,1969.955566 625.427856,1992.983154 623.747620,2015.981567 
	C622.601562,2031.668091 623.524109,2047.334473 622.186340,2063.015869 
	C619.973206,2088.957520 620.668274,2115.007080 622.034363,2140.998291 
	C623.666443,2172.047607 626.690430,2203.022461 628.557251,2234.026611 
	C630.517944,2266.588135 633.210938,2299.353027 630.788513,2331.984375 
	C627.814819,2372.040283 622.578430,2411.865967 613.114624,2451.027588 
	C611.848694,2456.266113 614.654785,2462.352051 610.000000,2467.000000 
"/>
<path fill="none" opacity="1.000000" stroke="#000000" stroke-linecap="round" stroke-linejoin="round" stroke-width="3.000000"
	d="
M386.000000,926.000000 
	C379.091370,941.057556 376.428833,957.468689 371.417114,973.133423 
	C362.247711,1001.793274 350.056732,1029.143311 339.256378,1057.098999 
	C327.099823,1088.565186 311.851929,1118.982910 304.183716,1152.042603 
	C300.763000,1166.790405 298.518097,1181.927368 297.173645,1197.015503 
	C294.559784,1226.349976 288.718933,1254.967041 279.933105,1282.979004 
	C269.162811,1317.318237 253.883041,1349.783936 238.055725,1382.027344 
	C217.494141,1423.915283 196.896011,1465.795898 177.164886,1508.077026 
	C165.430191,1533.222656 153.795258,1558.608398 148.126022,1586.026001 
	C145.422043,1599.103027 145.092758,1612.798462 151.222595,1624.887085 
	C161.155991,1644.476562 159.518982,1664.198975 153.824158,1683.949341 
	C148.881989,1701.089478 145.603943,1717.977417 147.723297,1736.032471 
	C149.120865,1747.938721 148.979904,1760.300415 144.942261,1771.979980 
	C141.163651,1782.910400 134.848602,1784.204834 127.003883,1775.996338 
	C116.188354,1764.679443 119.229645,1750.430298 119.138374,1736.999023 
	C119.087723,1729.544800 122.697983,1721.875977 117.000000,1715.000000 
"/>
<path fill="none" opacity="1.000000" stroke="#000000" stroke-linecap="round" stroke-linejoin="round" stroke-width="3.000000"
	d="
M645.000000,683.000000 
	C648.008667,700.000000 644.149414,716.992737 644.699402,734.009705 
	C644.764160,736.012207 644.121704,738.684082 644.059509,741.001587 
	C642.029724,816.654907 640.694153,892.343628 642.329224,967.992859 
	C643.366699,1015.990234 645.237915,1063.980225 646.415161,1111.989868 
	C647.211121,1144.451538 645.268311,1176.678711 644.008728,1209.000366 
	C643.619080,1218.998169 643.333374,1229.000000 643.000000,1239.000000 
"/>
<path fill="none" opacity="1.000000" stroke="#000000" stroke-linecap="round" stroke-linejoin="round" stroke-width="4.000000"
	d="
M679.000000,2469.000000 
	C675.912170,2502.885498 670.793091,2536.466309 665.341370,2570.055420 
	C661.707397,2592.444580 658.910095,2615.076416 658.557983,2637.993164 
	C658.395569,2648.569092 656.547913,2659.323975 657.106384,2669.994385 
	C658.399902,2694.708740 659.400452,2719.440430 662.779724,2744.030273 
	C663.953918,2752.574219 664.308594,2761.373779 664.745728,2770.012939 
	C666.618469,2807.021729 670.187744,2843.907471 671.593079,2880.977539 
	C672.592590,2907.341064 672.358887,2933.668213 672.800049,2960.003418 
	C672.893066,2965.557129 674.251099,2970.768311 675.250305,2975.951660 
	C678.332581,2991.939453 671.550110,3007.115967 672.688599,3023.022217 
	C673.842041,3039.139160 670.661194,3055.255371 666.851013,3070.963867 
	C664.492188,3080.688477 661.730286,3090.387451 658.757507,3099.924316 
	C654.474670,3113.664307 654.586182,3127.879395 657.546692,3140.875488 
	C662.986267,3164.755127 660.232666,3187.744629 655.946594,3210.990234 
	C653.685608,3223.252441 652.155884,3235.568604 653.085083,3247.993652 
	C654.198364,3262.877930 667.038452,3276.939453 685.042969,3278.505859 
	C703.143188,3280.080566 721.898682,3281.717041 739.156555,3271.258301 
	C748.427185,3265.639893 754.731445,3258.513428 759.000000,3249.000000 
"/>
<path fill="none" opacity="1.000000" stroke="#000000" stroke-linecap="round" stroke-linejoin="round" stroke-width="3.000000"
	d="
M899.000000,1360.000000 
	C879.708435,1371.778809 865.197876,1388.972412 850.300415,1405.274536 
	C831.475647,1425.874390 814.074829,1447.843872 796.961975,1469.970581 
	C769.825684,1505.057617 744.002319,1541.169067 721.353882,1579.210693 
	C698.849304,1617.010620 678.912231,1656.384644 664.166748,1698.058960 
	C663.173950,1700.864868 661.926819,1703.005859 660.000000,1705.000000 
"/>
<path fill="none" opacity="1.000000" stroke="#000000" stroke-linecap="round" stroke-linejoin="round" stroke-width="3.000000"
	d="
M389.000000,1361.000000 
	C407.171936,1370.764893 420.441742,1386.339111 433.716003,1401.252808 
	C455.432678,1425.651489 475.954071,1451.189941 495.859802,1477.107666 
	C528.646240,1519.796631 558.266357,1564.585205 584.253723,1611.860474 
	C599.569519,1639.722534 611.564087,1668.920898 623.812988,1698.078613 
	C624.933594,1700.746094 626.073181,1703.005859 628.000000,1705.000000 
"/>
<path fill="none" opacity="1.000000" stroke="#000000" stroke-linecap="round" stroke-linejoin="round" stroke-width="3.000000"
	d="
M750.000000,358.000000 
	C739.010071,367.616425 734.508057,381.647095 726.183960,393.133301 
	C708.578918,417.425690 687.726807,438.241028 662.926758,454.890900 
	C639.112610,470.878906 612.060669,480.475433 586.024414,492.054871 
	C569.569641,499.373047 553.734985,507.925110 541.044922,521.043457 
	C524.217773,538.438599 503.161072,549.219849 482.025482,560.049744 
	C459.562225,571.559875 435.523193,577.997864 410.984039,582.920471 
	C408.403442,583.438171 405.532806,583.404175 403.000000,582.000000 
"/>
<path fill="none" opacity="1.000000" stroke="#000000" stroke-linecap="round" stroke-linejoin="round" stroke-width="3.000000"
	d="
M541.000000,2995.000000 
	C547.212402,3013.707764 554.692383,3031.942139 560.239380,3050.930176 
	C566.670532,3072.944092 570.869385,3095.089844 572.137268,3117.992432 
	C573.509033,3142.772705 570.825317,3167.001465 565.000000,3191.000000 
"/>
<path fill="none" opacity="1.000000" stroke="#000000" stroke-linecap="round" stroke-linejoin="round" stroke-width="3.000000"
	d="
M575.000000,715.000000 
	C574.666626,735.333313 575.161804,755.721069 573.831421,775.988953 
	C570.859619,821.260010 556.142578,862.055481 524.975403,895.977417 
	C521.748169,899.489929 518.481812,903.206970 513.000000,903.000000 
"/>
<path fill="none" opacity="1.000000" stroke="#000000" stroke-linecap="round" stroke-linejoin="round" stroke-width="3.000000"
	d="
M747.000000,2993.000000 
	C742.491638,3009.410156 734.704712,3024.610596 729.767334,3040.929688 
	C723.206848,3062.613281 718.830383,3084.513916 715.647888,3106.949951 
	C711.773315,3134.265625 716.972168,3160.480957 721.000000,3187.000000 
"/>
<path fill="none" opacity="1.000000" stroke="#000000" stroke-linecap="round" stroke-linejoin="round" stroke-width="3.000000"
	d="
M717.000000,713.000000 
	C714.699707,736.370972 717.094238,759.714844 718.302673,782.984253 
	C719.480835,805.672974 723.813416,827.812256 735.705444,848.172058 
	C742.514404,859.829468 746.629333,872.966492 754.804504,884.143005 
	C759.901001,891.110718 765.482910,896.939697 773.000000,901.000000 
"/>
<path fill="none" opacity="1.000000" stroke="#000000" stroke-linecap="round" stroke-linejoin="round" stroke-width="3.000000"
	d="
M645.000000,1519.000000 
	C643.313293,1522.543579 644.030518,1526.322632 644.027893,1530.000000 
	C643.987732,1586.000000 644.000000,1642.000000 644.000000,1698.000000 
"/>
<path fill="none" opacity="1.000000" stroke="#000000" stroke-linecap="round" stroke-linejoin="round" stroke-width="3.000000"
	d="
M678.000000,2997.000000 
	C684.226318,3005.427734 682.303101,3015.782959 683.569214,3025.058838 
	C687.590454,3054.517334 687.034058,3084.375977 685.601074,3113.980713 
	C684.638794,3133.862061 679.494873,3153.487793 675.000000,3173.000000 
"/>
<path fill="none" opacity="1.000000" stroke="#000000" stroke-linecap="round" stroke-linejoin="round" stroke-width="3.000000"
	d="
M608.000000,3000.000000 
	C603.388184,3005.643066 605.388733,3012.981689 604.699646,3019.079102 
	C603.549316,3029.256836 601.127991,3039.597412 602.052429,3049.995361 
	C603.071716,3061.461670 599.490234,3072.530762 599.851440,3084.004639 
	C600.691772,3110.697998 604.374207,3136.967773 610.213867,3162.951904 
	C610.679504,3165.023926 610.509888,3167.026123 611.000000,3169.000000 
"/>
<path fill="none" opacity="1.000000" stroke="#000000" stroke-linecap="round" stroke-linejoin="round" stroke-width="3.000000"
	d="
M457.000000,1743.000000 
	C473.906616,1748.552368 491.266174,1752.782227 509.000000,1752.781860 
	C544.308960,1752.781128 577.525452,1744.047974 606.848267,1723.780518 
	C613.934143,1718.882812 620.970093,1713.610229 627.227478,1707.222900 
	C637.045837,1697.200684 651.777039,1697.884766 661.939087,1708.060791 
	C692.930725,1739.095459 731.598938,1751.063110 774.008667,1752.787476 
	C795.006348,1753.641235 815.250488,1747.967773 835.000000,1741.000000 
"/>
<path fill="none" opacity="1.000000" stroke="#000000" stroke-linecap="round" stroke-linejoin="round" stroke-width="3.000000"
	d="
M927.000000,787.000000 
	C912.879700,813.222473 907.051025,841.577637 904.921265,870.994324 
	C903.688232,888.025696 901.664246,904.999756 900.003052,922.000305 
	C899.793823,924.141846 900.128174,926.104919 902.000000,927.500000 
"/>
<path fill="none" opacity="1.000000" stroke="#000000" stroke-linecap="round" stroke-linejoin="round" stroke-width="3.000000"
	d="
M1157.000000,1607.000000 
	C1146.022949,1633.677246 1153.361206,1658.269165 1166.152466,1681.917603 
	C1170.333008,1689.646973 1174.309937,1697.529175 1178.681030,1705.182129 
	C1181.962158,1710.926758 1183.039673,1718.248779 1183.849854,1725.017944 
	C1185.436157,1738.271606 1189.166504,1750.833740 1185.737671,1765.176392 
	C1182.021851,1780.719238 1171.866211,1788.786621 1160.822021,1796.753174 
	C1154.140503,1801.572632 1147.148926,1805.383179 1142.856079,1812.917969 
	C1140.505615,1817.043457 1139.577148,1820.617188 1143.080566,1823.914429 
	C1146.147217,1826.800415 1148.374756,1823.886475 1151.093750,1822.146362 
	C1156.126221,1818.925415 1163.437622,1818.981445 1167.654785,1816.429443 
	C1184.676270,1806.128662 1202.459473,1796.090576 1208.263672,1774.069458 
	C1212.235596,1758.999878 1215.363281,1743.623535 1221.000000,1729.000000 
"/>
<path fill="none" opacity="1.000000" stroke="#000000" stroke-linecap="round" stroke-linejoin="round" stroke-width="3.000000"
	d="
M131.000000,1609.000000 
	C140.584442,1632.053101 135.631470,1653.959961 124.787079,1674.889648 
	C120.757774,1682.666138 116.878426,1690.601074 112.308182,1698.185669 
	C107.870293,1705.550903 104.832504,1714.056396 103.975563,1722.997681 
	C102.699471,1736.312256 98.274986,1749.202271 100.807823,1763.035156 
	C103.599487,1778.281372 114.266396,1787.227417 125.164413,1795.790771 
	C131.717270,1800.939575 139.253220,1804.751465 144.020279,1811.986694 
	C147.335358,1817.017944 148.372253,1821.544434 141.742126,1825.409302 
	C134.598480,1821.571045 128.081039,1815.600342 119.000000,1817.000000 
"/>
<path fill="none" opacity="1.000000" stroke="#000000" stroke-linecap="round" stroke-linejoin="round" stroke-width="3.000000"
	d="
M571.000000,2345.000000 
	C575.618774,2367.928711 579.953308,2390.909424 587.946777,2413.019287 
	C594.540833,2431.258301 600.666687,2449.666748 607.000061,2468.000000 
"/>
<path fill="none" opacity="1.000000" stroke="#000000" stroke-linecap="round" stroke-linejoin="round" stroke-width="3.000000"
	d="
M54.000000,1731.000000 
	C58.483803,1753.536255 62.890213,1776.053711 69.758835,1798.075195 
	C72.659500,1807.375244 79.540154,1813.061035 85.117432,1819.904297 
	C99.933357,1838.083862 119.694527,1850.306152 138.614731,1863.425903 
	C144.977356,1856.392822 145.895401,1849.684937 140.909241,1843.068359 
	C137.377640,1838.382080 133.148148,1834.184326 128.969162,1830.031006 
	C120.267769,1821.382690 112.685684,1811.548828 102.014915,1804.975830 
	C84.181648,1793.990845 77.638847,1776.198853 74.130173,1756.976196 
	C72.390236,1747.443970 68.796844,1738.467407 67.000000,1729.000000 
"/>
<path fill="none" opacity="1.000000" stroke="#000000" stroke-linecap="round" stroke-linejoin="round" stroke-width="3.000000"
	d="
M1233.000000,1731.000000 
	C1236.420044,1738.031250 1230.518555,1743.557861 1229.629639,1749.948486 
	C1227.890015,1762.457153 1223.242554,1774.541382 1221.177612,1787.029419 
	C1218.081055,1805.755615 1204.674561,1817.279419 1192.913940,1829.919922 
	C1180.289307,1843.489380 1163.639893,1851.964355 1149.306030,1863.320435 
	C1140.976196,1854.599976 1140.766479,1849.971558 1149.083740,1840.070312 
	C1153.614746,1834.676392 1159.106567,1830.099976 1163.942505,1824.946045 
	C1165.669067,1823.105957 1169.400513,1821.790649 1167.000000,1818.000000 
"/>
<path fill="none" opacity="1.000000" stroke="#000000" stroke-linecap="round" stroke-linejoin="round" stroke-width="3.000000"
	d="
M715.000000,2349.000000 
	C711.551331,2375.180176 703.931213,2400.228516 695.164917,2425.058105 
	C690.998291,2436.859863 685.424011,2448.310303 683.980774,2460.997803 
	C683.683105,2463.614502 681.813232,2465.320068 680.000000,2467.000000 
"/>
<path fill="none" opacity="1.000000" stroke="#000000" stroke-linecap="round" stroke-linejoin="round" stroke-width="3.000000"
	d="
M751.000000,3162.000000 
	C760.177368,3171.024658 765.316833,3182.899902 772.827454,3193.126709 
	C780.281189,3203.276611 786.708435,3213.300781 800.941956,3215.394775 
	C806.940491,3216.277100 813.312988,3220.660156 812.992371,3228.999756 
	C812.682007,3237.075439 810.309387,3242.932129 801.083618,3245.322510 
	C795.244812,3246.835693 792.096863,3254.078857 785.019043,3255.128418 
	C774.944031,3256.622803 765.000000,3259.000000 755.000000,3261.000000 
"/>
<path fill="none" opacity="1.000000" stroke="#000000" stroke-linecap="round" stroke-linejoin="round" stroke-width="3.000000"
	d="
M537.500000,3162.000000 
	C525.763977,3171.309082 520.780029,3185.530518 512.181458,3197.134521 
	C505.548492,3206.085693 498.664246,3213.158203 487.045563,3215.252686 
	C480.846283,3216.370117 474.887573,3219.785645 474.973907,3228.000244 
	C475.056732,3235.879395 474.505005,3243.261230 485.953064,3244.451416 
	C490.065582,3244.878906 492.838379,3251.088623 497.911102,3253.212402 
	C509.233032,3257.951904 521.363464,3258.201660 533.000000,3261.000000 
"/>
<path fill="none" opacity="1.000000" stroke="#000000" stroke-linecap="round" stroke-linejoin="round" stroke-width="3.000000"
	d="
M792.000000,247.000000 
	C799.053650,254.467743 795.623718,263.027893 793.847656,270.965912 
	C790.439392,286.199036 787.403992,301.639099 780.886841,315.948486 
	C778.023193,322.235962 774.182800,327.859070 768.242859,332.323181 
	C765.089844,334.692871 763.315369,332.540802 761.000000,333.000000 
"/>
<path fill="none" opacity="1.000000" stroke="#000000" stroke-linecap="round" stroke-linejoin="round" stroke-width="3.000000"
	d="
M491.000000,2305.000000 
	C492.562622,2320.306641 492.566895,2335.697510 491.799286,2350.989990 
	C491.060699,2365.703369 488.666656,2380.333252 486.999969,2395.000000 
"/>
<path fill="none" opacity="1.000000" stroke="#000000" stroke-linecap="round" stroke-linejoin="round" stroke-width="3.000000"
	d="
M795.000000,2311.000000 
	C791.873718,2339.366211 797.940491,2367.075684 801.000000,2395.000000 
"/>
<path fill="none" opacity="1.000000" stroke="#000000" stroke-linecap="round" stroke-linejoin="round" stroke-width="2.000000"
	d="
M705.000000,1391.000000 
	C689.030212,1405.919556 676.409546,1423.286499 667.000000,1443.000000 
"/>
<path fill="none" opacity="1.000000" stroke="#000000" stroke-linecap="round" stroke-linejoin="round" stroke-width="2.000000"
	d="
M587.000000,1395.000000 
	C599.302490,1409.398926 611.649902,1423.750366 620.122314,1440.939697 
	C620.842407,1442.400757 620.798645,1443.633667 621.000000,1445.000000 
"/>
<path fill="none" opacity="1.000000" stroke="#000000" stroke-linecap="round" stroke-linejoin="round" stroke-width="3.000000"
	d="
M271.000000,1177.000000 
	C269.051361,1196.130493 259.303772,1210.852905 245.000000,1223.000000 
"/>
<path fill="none" opacity="1.000000" stroke="#000000" stroke-linecap="round" stroke-linejoin="round" stroke-width="3.000000"
	d="
M1017.000000,1177.000000 
	C1017.402161,1195.218994 1027.040405,1208.497803 1040.000000,1220.000000 
"/>
<path fill="none" opacity="1.000000" stroke="#000000" stroke-linecap="round" stroke-linejoin="round" stroke-width="2.000000"
	d="
M565.000000,653.000000 
	C558.598999,637.410034 546.052307,628.785156 531.000000,623.000000 
"/>
<path fill="none" opacity="1.000000" stroke="#000000" stroke-linecap="round" stroke-linejoin="round" stroke-width="2.000000"
	d="
M759.000000,623.000000 
	C744.768921,629.715881 733.087219,639.321106 725.000000,653.000000 
"/>
<path fill="none" opacity="1.000000" stroke="#000000" stroke-linecap="round" stroke-linejoin="round" stroke-width="2.000000"
	d="
M213.000000,1147.000000 
	C211.205704,1157.041138 207.967224,1166.793457 207.000000,1177.000000 
"/>
<path fill="none" opacity="1.000000" stroke="#000000" stroke-linecap="round" stroke-linejoin="round" stroke-width="2.000000"
	d="
M1073.000000,1145.000000 
	C1076.965332,1153.576904 1077.564331,1163.026489 1080.000000,1172.000000 
"/>
<path fill="none" opacity="1.000000" stroke="#000000" stroke-linecap="round" stroke-linejoin="round" stroke-width="3.000000"
	d="
M1151.000000,1701.000000 
	C1161.040283,1706.932983 1169.064453,1716.225830 1181.000000,1719.000000 
"/>
<path fill="none" opacity="1.000000" stroke="#000000" stroke-linecap="round" stroke-linejoin="round" stroke-width="3.000000"
	d="
M135.000000,1701.000000 
	C126.123131,1707.418457 118.371712,1715.690674 107.000000,1718.000000 
"/>
<path fill="none" opacity="1.000000" stroke="#000000" stroke-linecap="round" stroke-linejoin="round" stroke-width="2.000000"
	d="
M214.000000,1101.000000 
	C217.813950,1106.592529 212.217316,1111.596924 213.000000,1117.000000 
"/>
<path fill="none" opacity="1.000000" stroke="#000000" stroke-linecap="round" stroke-linejoin="round" stroke-width="2.000000"
	d="
M1074.000000,1101.000000 
	C1071.063477,1106.537720 1074.013428,1111.707520 1075.000000,1117.000000 
"/>
</svg>