<?xml version="1.0" encoding="UTF-8"?><svg id="_Слой_1" xmlns="http://www.w3.org/2000/svg" viewBox="0 0 2200 5500"><defs><style>.cls-1{fill:#72c1a7;}</style></defs><path class="cls-1" d="M1454.85,2374.52c-7.97-1.65-15.52,7.11-28.44,20.4-37.12,38.22-28.94,97.92-137.72,221.28-14.01,15.88-67.63,75.55-109.33,167.07-18.96,41.61-20.42,56.81-19.81,64.14.09,1.12-.2,1.93.33,2.62,10.96,14.52,243.66-71.78,307.29-244.49,36.94-100.25,15.32-225.31-12.31-231.03Z"/><path class="cls-1" d="M1053.62,2853.35c4.84-7.79-.84-19.08-8.89-37.74-23.14-53.65-85.83-67.6-164.94-229.1-10.18-20.79-48.04-99.97-122.39-178.63-33.8-35.76-48.34-43.05-55.88-45.18-1.15-.32-1.84-.94-2.74-.65-18.85,6.08-26.35,284.39,119.99,416.9,84.94,76.92,218.07,101.41,234.85,74.41Z"/></svg>