<?xml version="1.0" encoding="UTF-8"?><svg id="_Слой_1" xmlns="http://www.w3.org/2000/svg" viewBox="0 0 430 80"><defs><style>.cls-1{fill:#72163b;}</style></defs><path class="cls-1" d="M5.4,75.74c-.34-.5-.51-1.09-.51-1.77.08-1.14.31-1.83.69-2.06.38-.23.84-.34,1.37-.34h1.03c2.29,0,3.96-.59,5.03-1.77,1.07-1.18,1.92-2.52,2.57-4,.65-1.49,1.09-2.5,1.32-3.03L36.92,15.41c.46-1.14.69-2.06.69-2.75,0-1.37-.53-2.36-1.6-2.97-1.07-.61-2.56-1.1-4.46-1.49-1.3-.23-2.1-.46-2.4-.69-.31-.23-.46-.88-.46-1.94,0-.92.25-1.52.74-1.83.5-.3,1.28-.46,2.34-.46,3.81,0,6.84.29,9.09.86,2.25.57,4.21,1.72,5.89,3.43,1.68,1.72,3.24,4.33,4.69,7.83l19.22,47.35c1.14,2.9,2.25,5.07,3.32,6.52,1.07,1.45,2.67,2.21,4.8,2.29h.69c.76,0,1.3.13,1.6.4.3.27.5.93.57,2,0,.69-.17,1.28-.52,1.77-.34.5-.86.74-1.54.74-4.88-.23-9.08-.34-12.58-.34-4.57,0-9.3.11-14.18.34-.69,0-1.2-.25-1.54-.74s-.51-1.09-.51-1.77c.07-1.07.27-1.73.57-2,.3-.27.84-.4,1.6-.4,2.59,0,4.42-.25,5.49-.74,1.07-.5,1.6-1.39,1.6-2.69,0-.99-.46-2.78-1.37-5.38l-3.89-9.49h-28.25c-1.91,4.73-2.99,7.47-3.26,8.23-.27.76-.4,1.18-.4,1.26-.92,2.9-1.37,4.77-1.37,5.6,0,1.3.57,2.16,1.72,2.57,1.14.42,3.32.63,6.52.63h.69c.76,0,1.3.13,1.6.4.3.27.5.93.57,2,0,.69-.17,1.28-.51,1.77s-.86.74-1.54.74c-4.88-.23-9.04-.34-12.47-.34-2.44,0-6.14.11-11.09.34-.69,0-1.2-.25-1.54-.74ZM28.68,48.35h24.02l-11.55-29.39h-.34l-12.12,29.39Z"/><path class="cls-1" d="M93.36,75.74c-.34-.5-.51-1.09-.51-1.77.07-1.14.3-1.83.69-2.06.38-.23,1.1-.34,2.17-.34,2.21,0,3.83-.4,4.86-1.2s1.66-1.75,1.89-2.86c.23-1.1.38-2.69.46-4.75l.23-45.41c0-2.29-.25-4.02-.74-5.2-.5-1.18-1.28-2.04-2.34-2.57-1.07-.53-2.59-.99-4.58-1.37-1.3-.23-2.1-.46-2.4-.69-.31-.23-.46-.88-.46-1.94,0-.92.25-1.52.74-1.83.5-.3,1.28-.46,2.34-.46,4.73,0,8.46.33,11.21.97,2.75.65,5.16,1.81,7.26,3.49,2.1,1.68,4.4,4.23,6.92,7.66l31.34,41.18h.34l-.23-39.23c-.08-2.06-.23-3.64-.46-4.75-.23-1.1-.86-2.06-1.89-2.86-1.03-.8-2.65-1.2-4.86-1.2h-.69c-.76,0-1.32-.13-1.66-.4-.34-.27-.55-.93-.63-2,0-.69.19-1.28.57-1.77.38-.5.88-.74,1.49-.74,4.88.23,8.54.34,10.98.34,1.45,0,4.23-.07,8.35-.23l2.4-.11c.69,0,1.2.25,1.54.74.34.5.51,1.09.51,1.77-.08,1.14-.31,1.83-.69,2.06-.38.23-1.11.34-2.17.34-2.21,0-3.83.4-4.86,1.2-1.03.8-1.66,1.75-1.89,2.86-.23,1.11-.38,2.69-.46,4.75l-.23,57.65c-.08.99-1.03,1.49-2.86,1.49-1.45,0-2.56-.5-3.32-1.49l-43.12-57.65h-.34l.23,45.41c.08,2.06.23,3.64.46,4.75.23,1.11.86,2.06,1.89,2.86s2.65,1.2,4.86,1.2h.69c.76,0,1.32.13,1.66.4.34.27.55.93.63,2,0,.69-.17,1.28-.51,1.77-.34.5-.86.74-1.54.74-4.88-.23-8.58-.34-11.09-.34-1.53,0-4.19.08-8.01.23l-2.63.11c-.69,0-1.2-.25-1.54-.74Z"/><path class="cls-1" d="M188.87,75.74c-.34-.5-.51-1.09-.51-1.77.08-1.14.32-1.83.74-2.06.42-.23,1.12-.34,2.12-.34,2.21,0,3.85-.4,4.92-1.2,1.07-.8,1.75-1.77,2.06-2.92.3-1.14.5-2.71.57-4.69V17.35c-.08-1.98-.27-3.55-.57-4.69-.31-1.14-.99-2.12-2.06-2.92-1.07-.8-2.71-1.2-4.92-1.2h-.69c-.69,0-1.2-.13-1.54-.4-.34-.27-.55-.93-.63-2,0-.69.17-1.28.51-1.77.34-.5.86-.74,1.54-.74,4.96.23,9.49.34,13.61.34,4.57,0,9.34-.11,14.3-.34.69,0,1.2.25,1.54.74.34.5.51,1.09.51,1.77-.08,1.14-.33,1.83-.74,2.06-.42.23-1.16.34-2.23.34-2.21,0-3.85.4-4.92,1.2-1.07.8-1.74,1.79-2,2.97-.27,1.18-.44,2.73-.51,4.63v45.41c.08,1.91.25,3.45.51,4.63.27,1.18.93,2.17,2,2.97,1.07.8,2.71,1.2,4.92,1.2h.69c.76,0,1.31.13,1.66.4.34.27.55.93.63,2,0,.69-.17,1.28-.51,1.77-.34.5-.86.74-1.54.74-4.88-.23-9.61-.34-14.18-.34-4.19,0-8.77.11-13.73.34-.69,0-1.2-.25-1.54-.74Z"/><path class="cls-1" d="M283.17,75.57l-25.73-58.22h-.34l.23,45.41c.08,2.06.23,3.64.46,4.75.23,1.11.86,2.06,1.89,2.86s2.65,1.2,4.86,1.2h.69c.76,0,1.32.13,1.66.4.34.27.55.93.63,2,0,.69-.17,1.28-.51,1.77-.34.5-.86.74-1.54.74l-2.86-.11c-3.51-.15-6.02-.23-7.55-.23-2.59,0-6.37.11-11.32.34-.69,0-1.2-.25-1.54-.74s-.51-1.09-.51-1.77c.07-1.14.3-1.83.69-2.06.38-.23,1.1-.34,2.17-.34,2.21,0,3.83-.4,4.86-1.2s1.66-1.75,1.89-2.86c.23-1.1.38-2.69.46-4.75l.23-45.41c0-2.36-.27-4.14-.8-5.32-.53-1.18-1.32-2.02-2.34-2.52-1.03-.5-2.54-.93-4.52-1.32-.31-.07-.76-.17-1.37-.29-.61-.11-1.01-.34-1.2-.69-.19-.34-.29-.9-.29-1.66,0-.92.25-1.52.74-1.83.5-.3,1.28-.46,2.34-.46,4.5,0,8.2.29,11.09.86,2.9.57,5.43,1.74,7.61,3.49,2.17,1.75,3.98,4.35,5.43,7.78l19.67,44.15h.34l22.53-55.59h6.52c4.19,0,8.73-.11,13.61-.34.69,0,1.2.25,1.54.74.34.5.51,1.09.51,1.77-.08,1.14-.33,1.83-.74,2.06-.42.23-1.13.34-2.12.34-2.21,0-3.85.4-4.92,1.2-1.07.8-1.74,1.79-2,2.97-.27,1.18-.44,2.73-.51,4.63v45.41c.08,1.91.25,3.45.51,4.63.27,1.18.93,2.17,2,2.97,1.07.8,2.71,1.2,4.92,1.2h.69c.69,0,1.2.13,1.54.4.34.27.55.93.63,2,0,.69-.17,1.28-.51,1.77s-.86.74-1.54.74c-4.88-.23-9.46-.34-13.73-.34s-9.11.11-14.07.34c-.69,0-1.2-.25-1.54-.74s-.51-1.09-.51-1.77c.08-1.14.3-1.83.69-2.06.38-.23,1.1-.34,2.17-.34,2.21,0,3.85-.4,4.92-1.2,1.07-.8,1.73-1.79,2-2.97.27-1.18.44-2.73.51-4.63V17.35h-.34l-23.56,58.22c-.31.76-1.07,1.14-2.29,1.14-1.14,0-1.94-.38-2.4-1.14Z"/><path class="cls-1" d="M348.88,75.74c-.34-.5-.51-1.09-.51-1.77.08-1.14.31-1.83.69-2.06.38-.23.84-.34,1.37-.34h1.03c2.29,0,3.96-.59,5.03-1.77,1.07-1.18,1.92-2.52,2.57-4,.65-1.49,1.09-2.5,1.32-3.03l20.02-47.35c.46-1.14.69-2.06.69-2.75,0-1.37-.53-2.36-1.6-2.97-1.07-.61-2.56-1.1-4.46-1.49-1.3-.23-2.1-.46-2.4-.69-.31-.23-.46-.88-.46-1.94,0-.92.25-1.52.74-1.83.5-.3,1.28-.46,2.34-.46,3.81,0,6.84.29,9.09.86,2.25.57,4.21,1.72,5.89,3.43,1.68,1.72,3.24,4.33,4.69,7.83l19.22,47.35c1.14,2.9,2.25,5.07,3.32,6.52,1.07,1.45,2.67,2.21,4.8,2.29h.69c.76,0,1.3.13,1.6.4.3.27.5.93.57,2,0,.69-.17,1.28-.52,1.77-.34.5-.86.74-1.54.74-4.88-.23-9.08-.34-12.58-.34-4.57,0-9.3.11-14.18.34-.69,0-1.2-.25-1.54-.74s-.51-1.09-.51-1.77c.07-1.07.27-1.73.57-2,.3-.27.84-.4,1.6-.4,2.59,0,4.42-.25,5.49-.74,1.07-.5,1.6-1.39,1.6-2.69,0-.99-.46-2.78-1.37-5.38l-3.89-9.49h-28.25c-1.91,4.73-2.99,7.47-3.26,8.23-.27.76-.4,1.18-.4,1.26-.92,2.9-1.37,4.77-1.37,5.6,0,1.3.57,2.16,1.72,2.57,1.14.42,3.32.63,6.52.63h.69c.76,0,1.3.13,1.6.4.3.27.5.93.57,2,0,.69-.17,1.28-.51,1.77s-.86.74-1.54.74c-4.88-.23-9.04-.34-12.47-.34-2.44,0-6.14.11-11.09.34-.69,0-1.2-.25-1.54-.74ZM372.15,48.35h24.02l-11.55-29.39h-.34l-12.12,29.39Z"/></svg>