<?xml version="1.0" encoding="UTF-8"?><svg id="_Слой_1" xmlns="http://www.w3.org/2000/svg" viewBox="0 0 430 130"><defs><style>.cls-1{fill:#72163b;}</style></defs><path class="cls-1" d="M5.4,82.32c-.34-.5-.51-1.09-.51-1.77.08-1.14.31-1.83.69-2.06.38-.23.84-.34,1.37-.34h1.03c2.29,0,3.96-.59,5.03-1.77,1.07-1.18,1.92-2.52,2.57-4,.65-1.49,1.09-2.5,1.32-3.03l20.02-47.35c.46-1.14.69-2.06.69-2.75,0-1.37-.53-2.36-1.6-2.97-1.07-.61-2.56-1.1-4.46-1.49-1.3-.23-2.1-.46-2.4-.69-.31-.23-.46-.88-.46-1.94,0-.92.25-1.52.74-1.83.5-.3,1.28-.46,2.34-.46,3.81,0,6.84.29,9.09.86,2.25.57,4.21,1.72,5.89,3.43,1.68,1.72,3.24,4.33,4.69,7.83l19.22,47.35c1.14,2.9,2.25,5.07,3.32,6.52,1.07,1.45,2.67,2.21,4.8,2.29h.69c.76,0,1.3.13,1.6.4.3.27.5.93.57,2,0,.69-.17,1.28-.52,1.77-.34.5-.86.74-1.54.74-4.88-.23-9.08-.34-12.58-.34-4.57,0-9.3.11-14.18.34-.69,0-1.2-.25-1.54-.74s-.51-1.09-.51-1.77c.07-1.07.27-1.73.57-2,.3-.27.84-.4,1.6-.4,2.59,0,4.42-.25,5.49-.74,1.07-.5,1.6-1.39,1.6-2.69,0-.99-.46-2.78-1.37-5.38l-3.89-9.49h-28.25c-1.91,4.73-2.99,7.47-3.26,8.23-.27.76-.4,1.18-.4,1.26-.92,2.9-1.37,4.77-1.37,5.6,0,1.3.57,2.16,1.72,2.57,1.14.42,3.32.63,6.52.63h.69c.76,0,1.3.13,1.6.4.3.27.5.93.57,2,0,.69-.17,1.28-.51,1.77s-.86.74-1.54.74c-4.88-.23-9.04-.34-12.47-.34-2.44,0-6.14.11-11.09.34-.69,0-1.2-.25-1.54-.74ZM28.68,54.93h24.02l-11.55-29.39h-.34l-12.12,29.39Z"/><path class="cls-1" d="M93.36,82.32c-.34-.5-.51-1.09-.51-1.77.07-1.14.3-1.83.69-2.06.38-.23,1.1-.34,2.17-.34,2.21,0,3.83-.4,4.86-1.2s1.66-1.75,1.89-2.86c.23-1.1.38-2.69.46-4.75l.23-45.41c0-2.29-.25-4.02-.74-5.2-.5-1.18-1.28-2.04-2.34-2.57-1.07-.53-2.59-.99-4.58-1.37-1.3-.23-2.1-.46-2.4-.69-.31-.23-.46-.88-.46-1.94,0-.92.25-1.52.74-1.83.5-.3,1.28-.46,2.34-.46,4.73,0,8.46.33,11.21.97,2.75.65,5.16,1.81,7.26,3.49,2.1,1.68,4.4,4.23,6.92,7.66l31.34,41.18h.34l-.23-39.23c-.08-2.06-.23-3.64-.46-4.75-.23-1.1-.86-2.06-1.89-2.86-1.03-.8-2.65-1.2-4.86-1.2h-.69c-.76,0-1.32-.13-1.66-.4-.34-.27-.55-.93-.63-2,0-.69.19-1.28.57-1.77.38-.5.88-.74,1.49-.74,4.88.23,8.54.34,10.98.34,1.45,0,4.23-.07,8.35-.23l2.4-.11c.69,0,1.2.25,1.54.74.34.5.51,1.09.51,1.77-.08,1.14-.31,1.83-.69,2.06-.38.23-1.11.34-2.17.34-2.21,0-3.83.4-4.86,1.2-1.03.8-1.66,1.75-1.89,2.86-.23,1.11-.38,2.69-.46,4.75l-.23,57.65c-.08.99-1.03,1.49-2.86,1.49-1.45,0-2.56-.5-3.32-1.49l-43.12-57.65h-.34l.23,45.41c.08,2.06.23,3.64.46,4.75.23,1.11.86,2.06,1.89,2.86s2.65,1.2,4.86,1.2h.69c.76,0,1.32.13,1.66.4.34.27.55.93.63,2,0,.69-.17,1.28-.51,1.77-.34.5-.86.74-1.54.74-4.88-.23-8.58-.34-11.09-.34-1.53,0-4.19.08-8.01.23l-2.63.11c-.69,0-1.2-.25-1.54-.74Z"/><path class="cls-1" d="M188.87,82.32c-.34-.5-.51-1.09-.51-1.77.08-1.14.32-1.83.74-2.06.42-.23,1.12-.34,2.12-.34,2.21,0,3.85-.4,4.92-1.2,1.07-.8,1.75-1.77,2.06-2.92.3-1.14.5-2.71.57-4.69V23.93c-.08-1.98-.27-3.55-.57-4.69-.31-1.14-.99-2.12-2.06-2.92-1.07-.8-2.71-1.2-4.92-1.2h-.69c-.69,0-1.2-.13-1.54-.4-.34-.27-.55-.93-.63-2,0-.69.17-1.28.51-1.77.34-.5.86-.74,1.54-.74,4.96.23,9.49.34,13.61.34,4.57,0,9.34-.11,14.3-.34.69,0,1.2.25,1.54.74.34.5.51,1.09.51,1.77-.08,1.14-.33,1.83-.74,2.06-.42.23-1.16.34-2.23.34-2.21,0-3.85.4-4.92,1.2-1.07.8-1.74,1.79-2,2.97-.27,1.18-.44,2.73-.51,4.63v45.41c.08,1.91.25,3.45.51,4.63.27,1.18.93,2.17,2,2.97,1.07.8,2.71,1.2,4.92,1.2h.69c.76,0,1.31.13,1.66.4.34.27.55.93.63,2,0,.69-.17,1.28-.51,1.77-.34.5-.86.74-1.54.74-4.88-.23-9.61-.34-14.18-.34-4.19,0-8.77.11-13.73.34-.69,0-1.2-.25-1.54-.74Z"/><path class="cls-1" d="M283.17,82.15l-25.73-58.22h-.34l.23,45.41c.08,2.06.23,3.64.46,4.75.23,1.11.86,2.06,1.89,2.86s2.65,1.2,4.86,1.2h.69c.76,0,1.32.13,1.66.4.34.27.55.93.63,2,0,.69-.17,1.28-.51,1.77-.34.5-.86.74-1.54.74l-2.86-.11c-3.51-.15-6.02-.23-7.55-.23-2.59,0-6.37.11-11.32.34-.69,0-1.2-.25-1.54-.74s-.51-1.09-.51-1.77c.07-1.14.3-1.83.69-2.06.38-.23,1.1-.34,2.17-.34,2.21,0,3.83-.4,4.86-1.2s1.66-1.75,1.89-2.86c.23-1.1.38-2.69.46-4.75l.23-45.41c0-2.36-.27-4.14-.8-5.32-.53-1.18-1.32-2.02-2.34-2.52-1.03-.5-2.54-.93-4.52-1.32-.31-.07-.76-.17-1.37-.29-.61-.11-1.01-.34-1.2-.69-.19-.34-.29-.9-.29-1.66,0-.92.25-1.52.74-1.83.5-.3,1.28-.46,2.34-.46,4.5,0,8.2.29,11.09.86,2.9.57,5.43,1.74,7.61,3.49,2.17,1.75,3.98,4.35,5.43,7.78l19.67,44.15h.34l22.53-55.59h6.52c4.19,0,8.73-.11,13.61-.34.69,0,1.2.25,1.54.74.34.5.51,1.09.51,1.77-.08,1.14-.33,1.83-.74,2.06-.42.23-1.13.34-2.12.34-2.21,0-3.85.4-4.92,1.2-1.07.8-1.74,1.79-2,2.97-.27,1.18-.44,2.73-.51,4.63v45.41c.08,1.91.25,3.45.51,4.63.27,1.18.93,2.17,2,2.97,1.07.8,2.71,1.2,4.92,1.2h.69c.69,0,1.2.13,1.54.4.34.27.55.93.63,2,0,.69-.17,1.28-.51,1.77s-.86.74-1.54.74c-4.88-.23-9.46-.34-13.73-.34s-9.11.11-14.07.34c-.69,0-1.2-.25-1.54-.74s-.51-1.09-.51-1.77c.08-1.14.3-1.83.69-2.06.38-.23,1.1-.34,2.17-.34,2.21,0,3.85-.4,4.92-1.2,1.07-.8,1.73-1.79,2-2.97.27-1.18.44-2.73.51-4.63V23.93h-.34l-23.56,58.22c-.31.76-1.07,1.14-2.29,1.14-1.14,0-1.94-.38-2.4-1.14Z"/><path class="cls-1" d="M348.88,82.32c-.34-.5-.51-1.09-.51-1.77.08-1.14.31-1.83.69-2.06.38-.23.84-.34,1.37-.34h1.03c2.29,0,3.96-.59,5.03-1.77,1.07-1.18,1.92-2.52,2.57-4,.65-1.49,1.09-2.5,1.32-3.03l20.02-47.35c.46-1.14.69-2.06.69-2.75,0-1.37-.53-2.36-1.6-2.97-1.07-.61-2.56-1.1-4.46-1.49-1.3-.23-2.1-.46-2.4-.69-.31-.23-.46-.88-.46-1.94,0-.92.25-1.52.74-1.83.5-.3,1.28-.46,2.34-.46,3.81,0,6.84.29,9.09.86,2.25.57,4.21,1.72,5.89,3.43,1.68,1.72,3.24,4.33,4.69,7.83l19.22,47.35c1.14,2.9,2.25,5.07,3.32,6.52,1.07,1.45,2.67,2.21,4.8,2.29h.69c.76,0,1.3.13,1.6.4.3.27.5.93.57,2,0,.69-.17,1.28-.52,1.77-.34.5-.86.74-1.54.74-4.88-.23-9.08-.34-12.58-.34-4.57,0-9.3.11-14.18.34-.69,0-1.2-.25-1.54-.74s-.51-1.09-.51-1.77c.07-1.07.27-1.73.57-2,.3-.27.84-.4,1.6-.4,2.59,0,4.42-.25,5.49-.74,1.07-.5,1.6-1.39,1.6-2.69,0-.99-.46-2.78-1.37-5.38l-3.89-9.49h-28.25c-1.91,4.73-2.99,7.47-3.26,8.23-.27.76-.4,1.18-.4,1.26-.92,2.9-1.37,4.77-1.37,5.6,0,1.3.57,2.16,1.72,2.57,1.14.42,3.32.63,6.52.63h.69c.76,0,1.3.13,1.6.4.3.27.5.93.57,2,0,.69-.17,1.28-.51,1.77s-.86.74-1.54.74c-4.88-.23-9.04-.34-12.47-.34-2.44,0-6.14.11-11.09.34-.69,0-1.2-.25-1.54-.74ZM372.15,54.93h24.02l-11.55-29.39h-.34l-12.12,29.39Z"/><path class="cls-1" d="M128.64,119.43c-.09-.13-.14-.28-.14-.46.02-.3.08-.48.18-.54.1-.06.29-.09.57-.09.58,0,1.01-.1,1.29-.31s.46-.47.53-.78c.07-.31.11-.71.13-1.21v-11.91c-.02-.5-.06-.9-.13-1.21-.07-.31-.25-.57-.53-.78s-.71-.32-1.29-.32h-.18c-.2,0-.34-.03-.42-.1-.08-.07-.13-.25-.15-.53,0-.18.05-.33.14-.46.09-.13.23-.19.4-.19,1.3.06,2.48.09,3.54.09h4.23c1.1,0,1.99.08,2.67.24.68.16,1.29.41,1.83.75.52.34.93.81,1.23,1.4.3.59.45,1.24.45,1.93,0,1.24-.4,2.23-1.21,2.96-.81.73-1.76,1.23-2.83,1.49v.09c1.04,0,1.98.21,2.83.62.85.41,1.51.96,1.98,1.65.47.69.71,1.44.71,2.24,0,1.36-.42,2.46-1.25,3.3-.83.84-1.87,1.44-3.12,1.79-1.25.35-2.55.53-3.88.53l-3.6-.03c-1.08,0-2.27.03-3.57.09-.18,0-.31-.07-.4-.2ZM135.43,108.86c.8,0,1.5-.06,2.08-.18s1.11-.44,1.58-.96c.46-.52.69-1.33.69-2.43,0-2.38-1.17-3.57-3.51-3.57h-2.1v7.14h1.26ZM139.89,117.27c.89-.71,1.33-1.88,1.33-3.5-.1-1.08-.6-1.97-1.52-2.67s-2.35-1.05-4.3-1.05h-1.23v5.97c0,.68.06,1.18.19,1.51.13.33.34.55.63.66.29.11.74.17,1.33.17,1.48-.02,2.67-.38,3.56-1.09Z"/><path class="cls-1" d="M154.82,118.77c-1.45-.91-2.57-2.12-3.36-3.62-.79-1.5-1.19-3.11-1.19-4.83,0-2.1.47-3.93,1.42-5.49.95-1.56,2.16-2.75,3.65-3.58,1.48-.83,2.98-1.25,4.5-1.25,1.92,0,3.62.46,5.08,1.37,1.47.91,2.6,2.11,3.39,3.6.79,1.49,1.19,3.1,1.19,4.82,0,2.1-.48,3.94-1.44,5.5-.96,1.57-2.19,2.77-3.69,3.6-1.5.83-3.01,1.24-4.53,1.24-1.9,0-3.58-.46-5.02-1.36ZM163.22,117.6c.91-.81,1.59-1.9,2.04-3.27.45-1.37.67-2.88.67-4.54,0-1.54-.23-2.96-.69-4.25s-1.15-2.32-2.07-3.09c-.92-.77-2.04-1.16-3.36-1.16-2,0-3.51.85-4.52,2.54-1.01,1.69-1.52,3.83-1.52,6.41,0,1.56.23,2.99.68,4.29.45,1.3,1.12,2.34,2.02,3.12.9.78,2.01,1.17,3.33,1.17s2.49-.41,3.4-1.21Z"/><path class="cls-1" d="M174.98,119.43c-.09-.13-.13-.28-.13-.46.02-.3.08-.48.18-.54.1-.06.29-.09.57-.09.58,0,1.01-.1,1.29-.31.28-.21.45-.47.52-.78.07-.31.11-.71.14-1.21v-11.91c-.02-.5-.07-.9-.14-1.21-.07-.31-.25-.57-.52-.78-.28-.21-.71-.32-1.29-.32h-.18c-.2,0-.34-.03-.42-.1-.08-.07-.13-.25-.15-.53,0-.18.04-.33.13-.46.09-.13.21-.19.38-.19,1.32.06,2.51.09,3.57.09h4.68c1.92,0,3.67.38,5.24,1.15,1.57.77,2.81,1.88,3.72,3.32s1.37,3.14,1.37,5.1-.52,3.77-1.54,5.18c-1.03,1.41-2.37,2.46-4.02,3.15-1.65.69-3.42,1.04-5.3,1.04h-4.14c-1.06,0-2.25.03-3.57.09-.16,0-.28-.07-.38-.2ZM188.66,116.25c1.09-1.45,1.64-3.47,1.64-6.08,0-1.64-.3-3.1-.89-4.39-.59-1.29-1.45-2.29-2.56-3.01-1.12-.72-2.45-1.08-3.99-1.08l-2.34.03v14.67c0,.78.23,1.32.71,1.61.47.29,1.23.43,2.29.43,2.34,0,4.05-.72,5.15-2.17Z"/><path class="cls-1" d="M202.76,119.43c-.09-.13-.13-.28-.13-.46.02-.3.08-.48.19-.54.11-.06.29-.09.56-.09.58,0,1.01-.1,1.29-.31.28-.21.45-.47.52-.78.07-.31.11-.71.13-1.21v-3.75c0-.32-.49-1.49-1.48-3.5s-1.8-3.58-2.42-4.7c-.4-.72-.84-1.25-1.32-1.6s-1.07-.59-1.77-.74c-.08-.02-.2-.04-.36-.08-.16-.03-.27-.09-.31-.18s-.07-.24-.07-.44c0-.24.06-.4.19-.48.13-.08.33-.12.62-.12,1.6,0,2.85.21,3.75.65.9.43,1.7,1.25,2.4,2.47.34.66.81,1.61,1.41,2.85.88,1.76,1.46,2.9,1.74,3.42h.09l3.33-6.57c.18-.4.27-.69.27-.87,0-.24-.12-.4-.38-.48-.25-.08-.66-.12-1.21-.12h-.18c-.2,0-.34-.03-.42-.1-.08-.07-.13-.25-.15-.53,0-.18.04-.33.13-.46.09-.13.21-.19.38-.19,1.3.06,2.39.09,3.27.09.74,0,1.75-.03,3.03-.09.18,0,.31.06.4.19.09.13.14.29.14.46-.02.28-.07.46-.15.53s-.22.1-.42.1c-.82,0-1.48.16-1.98.47-.5.31-.95.83-1.35,1.57l-3.39,6.39c-.06.12-.18.37-.36.73-.18.37-.3.71-.36,1.02-.06.31-.09.69-.09,1.12v2.91c.02.5.06.91.13,1.21.07.31.24.57.53.78.28.21.71.31,1.29.31h.18c.2,0,.34.04.42.11.08.07.13.25.15.52,0,.18-.04.34-.13.46-.09.13-.22.2-.38.2-1.28-.06-2.48-.09-3.6-.09-1.18,0-2.42.03-3.72.09-.18,0-.32-.07-.41-.2Z"/><path class="cls-1" d="M234.86,118.92c-1.41-.81-2.53-1.96-3.36-3.46s-1.24-3.25-1.24-5.25.4-3.8,1.2-5.34c.8-1.54,1.94-2.73,3.42-3.58,1.48-.85,3.21-1.28,5.19-1.28,1.72,0,3.25.35,4.59,1.04,1.34.69,2.01,1.75,2.01,3.2.02.9-.25,1.67-.81,2.29s-1.31.95-2.25.95c-.36,0-.67-.07-.92-.2s-.43-.29-.55-.46c-.12-.18-.17-.32-.15-.42,0-.04.14-.15.42-.33.28-.18.53-.43.75-.75.22-.32.33-.71.33-1.17,0-.9-.31-1.62-.92-2.15-.61-.53-1.46-.79-2.54-.79-1.22,0-2.31.34-3.25,1.04-.95.69-1.69,1.7-2.22,3.03-.53,1.33-.79,2.92-.79,4.75,0,1.6.29,3.05.85,4.37.57,1.31,1.38,2.35,2.42,3.12,1.04.77,2.23,1.16,3.57,1.16,1.08,0,2-.22,2.78-.67.77-.45,1.46-1.17,2.08-2.17.1-.18.24-.27.42-.27.16,0,.34.06.54.18.32.22.48.44.48.66,0,.12-.04.22-.12.3-.76.96-1.48,1.68-2.15,2.17-.67.49-1.4.83-2.17,1-.78.18-1.76.27-2.94.27-1.7,0-3.26-.4-4.67-1.21Z"/><path class="cls-1" d="M250.73,119.43c-.09-.13-.13-.28-.13-.46.02-.3.08-.48.18-.54.1-.06.22-.09.36-.09h.27c.6,0,1.04-.15,1.32-.46.28-.31.5-.66.67-1.05.17-.39.29-.66.35-.79l5.25-12.42c.12-.3.18-.54.18-.72,0-.36-.14-.62-.42-.78s-.67-.29-1.17-.39c-.34-.06-.55-.12-.63-.18-.08-.06-.12-.23-.12-.51,0-.24.06-.4.2-.48.13-.08.33-.12.61-.12,1,0,1.79.08,2.39.23.59.15,1.1.45,1.54.9.44.45.85,1.14,1.23,2.06l5.04,12.42c.3.76.59,1.33.87,1.71s.7.58,1.26.6h.18c.2,0,.34.04.42.11.08.07.13.25.15.52,0,.18-.04.34-.14.46-.09.13-.22.2-.4.2-1.28-.06-2.38-.09-3.3-.09-1.2,0-2.44.03-3.72.09-.18,0-.31-.07-.4-.2-.09-.13-.14-.28-.14-.46.02-.28.07-.45.15-.52s.22-.11.42-.11c.68,0,1.16-.06,1.44-.19.28-.13.42-.37.42-.71,0-.26-.12-.73-.36-1.41l-1.02-2.49h-7.41c-.5,1.24-.79,1.96-.85,2.16-.07.2-.1.31-.1.33-.24.76-.36,1.25-.36,1.47,0,.34.15.57.45.67.3.11.87.17,1.71.17h.18c.2,0,.34.04.42.11.08.07.13.25.15.52,0,.18-.04.34-.13.46-.09.13-.23.2-.41.2-1.28-.06-2.37-.09-3.27-.09-.64,0-1.61.03-2.91.09-.18,0-.31-.07-.41-.2ZM256.84,112.25h6.3l-3.03-7.71h-.09l-3.18,7.71Z"/><path class="cls-1" d="M273.77,119.43c-.09-.13-.13-.28-.13-.46.02-.3.08-.48.18-.54.1-.06.29-.09.57-.09.58,0,1.01-.1,1.29-.31.28-.21.45-.47.52-.78.07-.31.11-.71.14-1.21v-11.88c-.02-.52-.07-.93-.14-1.23-.07-.3-.25-.56-.52-.78-.28-.22-.71-.33-1.29-.33h-.18c-.2,0-.34-.03-.42-.1-.08-.07-.13-.25-.15-.53,0-.18.04-.33.13-.46.09-.13.23-.19.41-.19,1.3.06,2.49.09,3.57.09h5.16c1.54.02,2.82.26,3.85.73,1.03.47,1.79,1.07,2.27,1.8.48.73.72,1.51.72,2.35,0,1.1-.44,2.11-1.3,3.03-.87.92-2.06,1.58-3.56,1.98l.51.81c.84,1.36,1.6,2.52,2.28,3.5.68.97,1.42,1.88,2.22,2.71.56.46,1.16.73,1.8.81.04,0,.13,0,.27.02.14,0,.25.06.34.17.09.1.14.25.14.45,0,.18-.04.34-.14.46-.09.13-.22.2-.4.2l-.78-.03c-.88-.04-1.52-.06-1.92-.06-.8-.16-1.48-.45-2.05-.86-.57-.41-1.14-.99-1.7-1.75-.58-.76-1.39-2-2.43-3.72l-.54-.87c-.3-.46-.59-.77-.87-.94-.28-.17-.76-.26-1.44-.26h-.87v4.89c.02.5.06.91.14,1.21.07.31.24.57.52.78.28.21.71.31,1.29.31h.18c.18,0,.31.04.41.11.09.07.14.25.17.52,0,.18-.04.34-.14.46-.09.13-.23.2-.4.2-1.28-.06-2.53-.09-3.75-.09-1.06,0-2.24.03-3.54.09-.18,0-.31-.07-.41-.2ZM281.95,109.97c2.98,0,4.47-1.4,4.47-4.2,0-1.14-.39-2.1-1.17-2.88-.78-.78-2.06-1.17-3.84-1.17-.58,0-1.02.07-1.32.21-.3.14-.51.38-.62.72-.11.34-.17.86-.17,1.56v5.76h2.64Z"/><path class="cls-1" d="M296.9,119.43c-.09-.13-.13-.28-.13-.46.02-.3.08-.48.18-.54.1-.06.29-.09.57-.09.58,0,1.01-.1,1.29-.31.28-.21.45-.47.52-.78.07-.31.11-.71.14-1.21v-11.91c-.02-.5-.07-.9-.14-1.21-.07-.31-.25-.57-.52-.78-.28-.21-.71-.32-1.29-.32h-.18c-.2,0-.34-.03-.42-.1-.08-.07-.13-.25-.15-.53,0-.18.04-.33.13-.46.09-.13.21-.19.38-.19,1.32.06,2.51.09,3.57.09h9.42c.52,0,.78.24.78.72l.09,4.2c0,.18-.09.33-.27.43-.18.11-.36.17-.54.17-.24,0-.45-.04-.63-.13-.18-.09-.28-.22-.3-.41-.16-.98-.33-1.72-.52-2.23-.19-.51-.47-.89-.84-1.14-.37-.25-.9-.38-1.58-.41h-4.02v7.62h5.43c.14.02.25.1.33.23.08.13.12.29.12.46,0,.16-.04.3-.12.42-.08.12-.19.18-.33.18h-5.43v5.67c.04.42.09.76.15,1.01s.24.47.54.67c.3.2.77.29,1.41.27h2.76c.7-.02,1.23-.13,1.59-.34.36-.21.65-.54.85-.97.21-.44.46-1.16.76-2.16.14-.36.48-.5,1.02-.42.2.04.38.12.53.24.15.12.21.27.19.45l-.6,3.78c-.06.26-.15.43-.27.51-.12.08-.32.12-.6.12h-9.9c-1.08,0-2.28.03-3.6.09-.16,0-.28-.07-.38-.2Z"/></svg>